<svg xmlns="http://www.w3.org/2000/svg" xmlns:xlink="http://www.w3.org/1999/xlink" contentStyleType="text/css" data-diagram-type="DESCRIPTION" height="1183px" preserveAspectRatio="none" style="width:970px;height:1183px;background:#FFFFFF;" version="1.1" viewBox="0 0 970 1183" width="970px" zoomAndPan="magnify"><title>Activities in Infrastructure Context (2)</title><defs/><g><text fill="#000000" font-family="Chalkduster" font-size="42" font-weight="bold" lengthAdjust="spacing" textLength="942.2386" x="10" y="51.7215">Activities in Infrastructure Context (2)</text><!--cluster activities--><g class="cluster" data-entity="activities" data-source-line="7" data-uid="ent0002" id="cluster_activities"><polygon fill="#FFC7D8" points="40.1,83.8912,40.1,84.1013,50.0286,83.4768,59.9571,84.0844,69.8857,84.2908,79.8143,83.1778,89.7428,83.8134,99.6714,83.4647,109.6,83.5077,119.5286,83.823,129.4571,83.1998,139.3857,84.4448,149.3143,83.2609,159.2428,83.6934,169.1714,84.3231,179.1,83.8054,189.0286,83.9594,198.9571,83.8592,208.8857,84.0697,218.8143,84.1303,228.7428,84.4769,238.6714,84.5622,248.6,84.5704,258.5286,84.1458,268.4571,84.3547,278.3857,84.5934,288.3143,83.17,298.2428,84.5697,308.1714,83.5947,318.1,84.425,328.0286,83.3961,337.9571,83.8227,347.8857,84.6328,357.8143,83.8424,367.7428,83.9965,377.6714,84.2298,387.6,84.3074,397.5286,83.8873,407.4571,84.1784,417.3857,83.3187,427.3143,84.1755,437.2428,84.4394,447.1714,84.3357,457.1,84.5042,467.0286,83.4081,476.9571,83.239,486.8857,83.2698,496.8143,83.8323,506.7428,83.6946,516.6714,84.5726,526.6,83.7165,536.5286,83.5481,546.4571,84.1194,556.3857,83.2243,566.3143,83.372,576.2428,84.5401,586.1714,84.3268,596.1,83.8912,596.1937,84.1174,596.4125,83.9385,596.8478,84.2824,597.236,84.5123,597.4539,84.3315,597.8678,84.6234,597.8382,84.6112,598.053,84.993,598.3614,85.4136,598.3058,85.6835,598.596,86.0966,598.6,86.3912,598.0462,86.3912,597.9227,96.3129,599.1036,106.2346,597.883,116.1563,599.1089,126.078,598.8066,135.9997,598.3321,145.9214,598.2462,155.8432,599.0587,165.7649,598.3007,175.6866,599.1918,185.6083,598.0472,195.53,599.2174,205.4517,599.0843,215.3734,598.845,225.2952,598.6472,235.2169,599.3266,245.1386,599.2136,255.0603,598.7692,264.982,598.8682,274.9037,598.4697,284.8254,599.3164,294.7472,598.7549,304.6689,598.7726,314.5906,597.9916,324.5123,598.1948,334.434,599.1307,344.3557,599.0297,354.2774,598.5571,364.1992,598.2778,374.1209,598.3811,384.0426,597.9138,393.9643,599.0147,403.886,599.3396,413.8077,599.1264,423.7294,598.6,433.6512,598.814,433.7398,598.4114,433.9873,598.334,434.3694,598.0413,434.6624,598.1017,435.1016,597.8678,435.4189,597.8992,435.4949,597.5847,435.7355,597.1314,435.6411,596.7899,435.8169,596.5101,436.1413,596.1,436.1512,596.1,436.7185,586.1714,435.6386,576.2428,435.9573,566.3143,436.3004,556.3857,435.5403,546.4571,436.5046,536.5286,436.4092,526.6,436.0504,516.6714,436.2934,506.7428,436.8798,496.8143,435.8383,486.8857,436.4661,476.9571,436.4368,467.0286,436.2669,457.1,436.2921,447.1714,436.2646,437.2428,435.527,427.3143,435.7503,417.3857,435.6896,407.4571,436.215,397.5286,436.2393,387.6,436.3129,377.6714,435.8602,367.7428,436.0836,357.8143,436.0309,347.8857,436.728,337.9571,436.5777,328.0286,435.6656,318.1,436.0782,308.1714,435.5739,298.2428,436.4395,288.3143,436.7596,278.3857,436.6957,268.4571,435.7156,258.5286,436.6151,248.6,435.4084,238.6714,436.3513,228.7428,435.8518,218.8143,436.2479,208.8857,436.3915,198.9571,436.6233,189.0286,435.4312,179.1,436.6266,169.1714,436.3293,159.2428,436.5065,149.3143,436.899,139.3857,436.1566,129.4571,436.3264,119.5286,436.3646,109.6,436.3484,99.6714,436.1503,89.7428,436.8619,79.8143,435.5414,69.8857,436.7164,59.9571,435.5272,50.0286,435.6108,40.1,436.1512,40.1051,436.1635,39.75,436.0134,39.33,435.7065,39.0921,435.8392,38.6997,435.5989,38.3322,435.4189,38.556,435.5116,38.3912,435.1505,37.9013,434.6546,37.7703,434.3075,37.7067,433.9882,37.6,433.6512,37.9555,433.6512,38.003,423.7294,37.9011,413.8077,37.258,403.886,38.2363,393.9643,38.2338,384.0426,37.5527,374.1209,37.3609,364.1992,37.1986,354.2774,37.3854,344.3557,37.7374,334.434,37.5316,324.5123,37.1822,314.5906,38.0874,304.6689,37.1411,294.7472,38.1024,284.8254,38.0272,274.9037,37.9719,264.982,38.2925,255.0603,37.3541,245.1386,37.2993,235.2169,38.1189,225.2952,37.0031,215.3734,37.366,205.4517,37.7155,195.53,37.6687,185.6083,37.2415,175.6866,37.557,165.7649,38.3446,155.8432,38.2485,145.9214,37.0037,135.9997,37.6785,126.078,37.0861,116.1563,37.5737,106.2346,37.893,96.3129,37.6,86.3912,37.7293,86.4447,37.5417,85.9528,38.0162,85.7351,38.0419,85.3316,38.0147,84.9061,38.3322,84.6234,38.2721,84.4783,38.7274,84.5775,39.0712,84.4074,39.3908,84.179,39.6607,83.8306,40.1,83.8912" style="stroke:#181818;stroke-width:4;"/><text fill="#000000" font-family="Chalkduster" font-size="24" font-style="italic" lengthAdjust="spacing" textLength="174.126" x="231.037" y="109.732">&#171;workspace&#187;</text><text fill="#000000" font-family="Chalkduster" font-size="24" font-weight="bold" lengthAdjust="spacing" textLength="545.1314" x="45.5343" y="140.3619">Research &amp; Data Management Activities</text></g><!--cluster infrastructure--><g class="cluster" data-entity="infrastructure" data-source-line="9" data-uid="ent0011" id="cluster_infrastructure"><polygon fill="none" points="268.1,686.1512,268.1,686.3613,278.0193,685.7368,287.9387,686.3444,297.8581,686.5508,307.7774,685.4378,317.6968,686.0734,327.6161,685.7247,337.5355,685.7677,347.4548,686.083,357.3742,685.4598,367.2935,686.7048,377.2129,685.5209,387.1322,685.9534,397.0516,686.5831,406.971,686.0654,416.8903,686.2194,426.8097,686.1192,436.729,686.3297,446.6484,686.3903,456.5677,686.7369,466.4871,686.8222,476.4064,686.8304,486.3258,686.4058,496.2451,686.6147,506.1645,686.8534,516.0839,685.43,526.0032,686.8297,535.9226,685.8547,545.8419,686.685,555.7613,685.6561,565.6806,686.0827,575.6,686.8928,585.5193,686.1024,595.4387,686.2565,605.3581,686.4898,615.2774,686.5674,625.1968,686.1473,635.1161,686.4384,645.0355,685.5787,654.9548,686.4355,664.8742,686.6994,674.7935,686.5957,684.7129,686.7642,694.6322,685.6681,704.5516,685.499,714.471,685.5298,724.3903,686.0923,734.3097,685.9546,744.229,686.8326,754.1484,685.9765,764.0677,685.8081,773.9871,686.3794,783.9064,685.4843,793.8258,685.632,803.7451,686.8001,813.6645,686.5868,823.5839,686.8857,833.5032,685.8294,843.4226,686.4704,853.3419,686.7416,863.2613,685.6788,873.1806,686.0553,883.1,686.1512,883.1161,686.19,883.5367,686.4983,883.8066,686.4428,884.2197,686.733,884.4436,686.5664,884.8678,686.8834,884.6592,686.797,885.1693,687.3012,884.9399,687.499,885.4638,688.009,885.5172,688.324,885.6,688.6512,885.3321,688.6512,885.2462,698.5703,886.0587,708.4895,885.3007,718.4087,886.1918,728.3279,885.0472,738.2471,886.2174,748.1663,886.0843,758.0854,885.845,768.0046,885.6472,777.9238,886.3266,787.843,886.2136,797.7622,885.7692,807.6814,885.8682,817.6005,885.4697,827.5197,886.3164,837.4389,885.7549,847.3581,885.7726,857.2773,884.9916,867.1965,885.1948,877.1157,886.1307,887.0348,886.0297,896.954,885.5571,906.8732,885.2778,916.7924,885.3811,926.7116,884.9138,936.6308,886.0147,946.5499,886.3396,956.4691,886.1264,966.3883,886.2949,976.3075,885.4633,986.2267,885.6872,996.1459,885.2124,1006.065,885.884,1015.9842,885.8468,1025.9034,886.1524,1035.8226,885.3703,1045.7418,885.4656,1055.661,886.0434,1065.5801,886.1673,1075.4993,885.0875,1085.4185,885.4061,1095.3377,885.7493,1105.2569,884.9891,1115.1761,885.9534,1125.0952,885.858,1135.0144,885.4992,1144.9336,885.7422,1154.8528,886.3287,1164.772,885.6,1174.6912,885.5036,1174.6513,885.5505,1175.0849,885.3951,1175.4347,885.1963,1175.7666,885.0576,1176.1234,884.8678,1176.4589,884.8822,1176.4939,884.4346,1176.4132,884.1095,1176.6284,883.7482,1176.7561,883.4617,1177.0644,883.1,1177.1912,883.1,1177.2793,873.1806,1177.3529,863.2613,1176.9002,853.3419,1177.1236,843.4226,1177.0709,833.5032,1177.768,823.5839,1177.6177,813.6645,1176.7056,803.7451,1177.1182,793.8258,1176.6139,783.9064,1177.4795,773.9871,1177.7996,764.0677,1177.7357,754.1484,1176.7556,744.229,1177.6551,734.3097,1176.4484,724.3903,1177.3913,714.471,1176.8918,704.5516,1177.2879,694.6322,1177.4315,684.7129,1177.6633,674.7935,1176.4712,664.8742,1177.6666,654.9548,1177.3693,645.0355,1177.5465,635.1161,1177.939,625.1968,1177.1966,615.2774,1177.3664,605.3581,1177.4046,595.4387,1177.3884,585.5193,1177.1903,575.6,1177.9019,565.6806,1176.5814,555.7613,1177.7564,545.8419,1176.5672,535.9226,1176.6508,526.0032,1177.2312,516.0839,1177.2194,506.1645,1176.6983,496.2451,1177.6049,486.3258,1177.3,476.4064,1177.9178,466.4871,1177.8583,456.5677,1176.7429,446.6484,1176.7932,436.729,1177.062,426.8097,1177.5467,416.8903,1177.5941,406.971,1177.4923,397.0516,1176.8492,387.1322,1177.8275,377.2129,1177.8249,367.2935,1177.1439,357.3742,1176.9521,347.4548,1176.7898,337.5355,1176.9766,327.6161,1177.3286,317.6968,1177.1228,307.7774,1176.7734,297.8581,1177.6785,287.9387,1176.7322,278.0193,1177.6935,268.1,1177.1912,268.1545,1177.3227,267.7939,1177.1592,267.4812,1177.1115,267.008,1176.6761,266.6474,1176.5128,266.3322,1176.4589,266.492,1176.5251,266.002,1176.0292,265.9673,1175.722,265.9284,1175.413,265.7676,1175.0535,265.6,1174.6912,265.2415,1174.6912,265.557,1164.772,266.3446,1154.8528,266.2485,1144.9336,265.0037,1135.0144,265.6785,1125.0952,265.0861,1115.1761,265.5737,1105.2569,265.893,1095.3377,266.0199,1085.4185,264.9353,1075.4993,266.0005,1065.5801,265.6084,1055.661,265.0446,1045.7418,265.1289,1035.8226,265.9266,1025.9034,265.8498,1015.9842,265.5835,1006.065,264.9279,996.1459,266.2581,986.2267,265.2882,976.3075,265.0719,966.3883,265.5327,956.4691,266.1897,946.5499,266.2154,936.6308,265.6351,926.7116,265.4488,916.7924,265.7698,906.8732,265.7862,896.954,265.0922,887.0348,266.0139,877.1157,266.1588,867.1965,265.3842,857.2773,265.1708,847.3581,266.2746,837.4389,265.621,827.5197,265.5998,817.6005,265.899,807.6814,264.9543,797.7622,266.13,787.843,265.5845,777.9238,266.2688,768.0046,265.3841,758.0854,266.009,748.1663,265.156,738.2471,265.845,728.3279,265.9793,718.4087,265.2726,708.4895,265.963,698.5703,265.6,688.6512,265.424,688.5783,265.6015,688.2376,266.1032,688.0312,266.2501,687.6778,266.3608,687.3095,266.3322,686.8834,266.2863,686.7724,266.7348,686.8553,266.9791,686.4451,267.4003,686.462,267.7463,686.2972,268.1,686.1512" style="stroke:#181818;stroke-width:4;"/><text fill="#000000" font-family="Chalkduster" font-size="24" font-weight="bold" lengthAdjust="spacing" textLength="295.9823" x="427.6088" y="711.992">Storage Infrastucture</text></g><!--cluster Access and authentication services--><g class="cluster" data-entity="Access and authentication services" data-source-line="11" data-uid="ent0012" id="cluster_Access and authentication services"><polygon fill="none" points="292.1,743.1512,292.1,743.3613,302.0474,742.7368,311.9947,743.3444,321.9421,743.5508,331.8895,742.4378,341.8368,743.0734,351.7842,742.7247,361.7316,742.7677,371.6789,743.083,381.6263,742.4598,391.5737,743.7048,401.521,742.5209,411.4684,742.9534,421.4158,743.5831,431.3631,743.0654,441.3105,743.2194,451.2579,743.1192,461.2053,743.3297,471.1526,743.3903,481.1,743.7369,491.0474,743.8222,500.9947,743.8304,510.9421,743.4058,520.8895,743.6147,530.8368,743.8534,540.7842,742.43,550.7316,743.8297,560.6789,742.8547,570.6263,743.685,580.5737,742.6561,590.521,743.0827,600.4684,743.8928,610.4158,743.1024,620.3631,743.2565,630.3105,743.4898,640.2579,743.5674,650.2053,743.1473,660.1526,743.4384,670.1,742.5787,680.0474,743.4355,689.9947,743.6994,699.9421,743.5957,709.8895,743.7642,719.8368,742.6681,729.7842,742.499,739.7316,742.5298,749.6789,743.0923,759.6263,742.9546,769.5737,743.8326,779.521,742.9765,789.4684,742.8081,799.4158,743.3794,809.3631,742.4843,819.3105,742.632,829.2579,743.8001,839.2053,743.5868,849.1526,743.8857,859.1,743.1512,859.0589,743.0521,859.4943,743.3959,859.8824,743.6259,860.1004,743.445,860.502,743.7074,860.8678,743.8834,860.9066,743.8995,861.2149,744.3201,861.1594,744.59,861.4495,745.0031,861.283,745.227,861.6,745.6512,860.9227,745.6512,862.1036,755.5302,860.883,765.4092,862.1089,775.2882,861.8066,785.1673,861.3321,795.0463,861.2462,804.9253,862.0587,814.8043,861.3007,824.6834,862.1918,834.5624,861.0472,844.4414,862.2174,854.3204,862.0843,864.1995,861.845,874.0785,861.6472,883.9575,862.3266,893.8365,862.2136,903.7156,861.7692,913.5946,861.8682,923.4736,861.4697,933.3526,862.3164,943.2316,861.7549,953.1107,861.7726,962.9897,860.9916,972.8687,861.1948,982.7477,862.1307,992.6268,862.0297,1002.5058,861.5571,1012.3848,861.2778,1022.2638,861.3811,1032.1429,860.9138,1042.0219,862.0147,1051.9009,862.3396,1061.7799,862.1264,1071.659,862.2949,1081.538,861.4633,1091.417,861.6872,1101.296,861.2124,1111.1751,861.884,1121.0541,861.8468,1130.9331,862.1524,1140.8121,861.6,1150.6912,861.5293,1150.6619,861.4121,1151.0276,861.4437,1151.4548,861.3354,1151.8242,860.8564,1152.04,860.8678,1152.4589,860.843,1152.3992,860.5332,1152.6513,860.0827,1152.5637,859.8522,1153.0071,859.4864,1153.1242,859.1,1153.1912,859.1,1153.0904,849.1526,1153.3334,839.2053,1153.9198,829.2579,1152.8783,819.3105,1153.5061,809.3631,1153.4768,799.4158,1153.3069,789.4684,1153.3321,779.521,1153.3046,769.5737,1152.567,759.6263,1152.7903,749.6789,1152.7296,739.7316,1153.255,729.7842,1153.2793,719.8368,1153.3529,709.8895,1152.9002,699.9421,1153.1236,689.9947,1153.0709,680.0474,1153.768,670.1,1153.6177,660.1526,1152.7056,650.2053,1153.1182,640.2579,1152.6139,630.3105,1153.4795,620.3631,1153.7996,610.4158,1153.7357,600.4684,1152.7556,590.521,1153.6551,580.5737,1152.4484,570.6263,1153.3913,560.6789,1152.8918,550.7316,1153.2879,540.7842,1153.4315,530.8368,1153.6633,520.8895,1152.4712,510.9421,1153.6666,500.9947,1153.3693,491.0474,1153.5465,481.1,1153.939,471.1526,1153.1966,461.2053,1153.3664,451.2579,1153.4046,441.3105,1153.3884,431.3631,1153.1903,421.4158,1153.9019,411.4684,1152.5814,401.521,1153.7564,391.5737,1152.5672,381.6263,1152.6508,371.6789,1153.2312,361.7316,1153.2194,351.7842,1152.6983,341.8368,1153.6049,331.8895,1153.3,321.9421,1153.9178,311.9947,1153.8583,302.0474,1152.7429,292.1,1153.1912,292.0492,1153.0686,291.73,1153.0049,291.4382,1153.0078,291.0907,1152.8759,290.7242,1152.6981,290.3322,1152.4589,290.2269,1152.4153,290.3817,1152.1865,290.2345,1151.8327,289.8783,1151.3922,289.6728,1151.0142,289.6,1150.6912,289.1986,1150.6912,289.3854,1140.8121,289.7374,1130.9331,289.5316,1121.0541,289.1822,1111.1751,290.0874,1101.296,289.1411,1091.417,290.1024,1081.538,290.0272,1071.659,289.9719,1061.7799,290.2925,1051.9009,289.3541,1042.0219,289.2993,1032.1429,290.1189,1022.2638,289.0031,1012.3848,289.366,1002.5058,289.7155,992.6268,289.6687,982.7477,289.2415,972.8687,289.557,962.9897,290.3446,953.1107,290.2485,943.2316,289.0037,933.3526,289.6785,923.4736,289.0861,913.5946,289.5737,903.7156,289.893,893.8365,290.0199,883.9575,288.9353,874.0785,290.0005,864.1995,289.6084,854.3204,289.0446,844.4414,289.1289,834.5624,289.9266,824.6834,289.8498,814.8043,289.5835,804.9253,288.9279,795.0463,290.2581,785.1673,289.2882,775.2882,289.0719,765.4092,289.5327,755.5302,289.6,745.6512,289.7816,745.7264,289.936,745.3761,289.9037,744.9485,289.9928,744.5712,290.2381,744.2586,290.3322,743.8834,290.356,743.9407,290.621,743.5806,291.0921,743.718,291.4642,743.6161,291.7189,743.2312,292.1,743.1512" style="stroke:#181818;stroke-width:4;"/><text fill="#000000" font-family="Chalkduster" font-size="24" font-weight="bold" lengthAdjust="spacing" textLength="480.5039" x="335.348" y="768.992">Access and authentication services</text></g><!--entity coll--><g class="entity" data-entity="coll" data-source-line="9" data-uid="ent0003" id="entity_coll"><polygon fill="none" points="410.6459,177.8371,409.4733,179.4394,408.0863,181.7862,406.1026,183.3678,404.018,184.2327,402.3559,184.3078,400.2197,183.2261,398.2041,182.5195,396.6741,181.0847,395.8716,179.4423,395.3957,178.1345,394.9294,176.4262,394.1727,174.9562,394.7542,173.521,395.2637,171.9488,397.1758,170.7053,398.521,169.092,400.186,168.5562,402.1655,168.0948,404.7039,168.369,406.0942,169.0246,407.7106,169.3218,409.6761,171.3355,410.3612,173.4613,410.6589,174.9118,410.3217,177.302" style="stroke:#8B0000;stroke-width:4;"/><path d="M402.6018,183.8912 L402.7886,183.8912 L402.2335,189.2912 L402.7736,194.6912 L402.957,200.0912 L401.9676,205.4912 L402.6018,210.8912 M389.6018,191.8912 L389.6018,191.8221 L394.8018,191.5121 L400.0018,191.5503 L405.2018,191.8306 L410.4018,191.2766 L415.6018,191.8912 M402.6018,210.8912 L402.9736,211.2135 L399.5784,213.5242 L397.2689,216.776 L395.0919,220.1426 L392.1441,222.8412 L389.6018,225.8912 M402.6018,210.8912 L402.6476,210.9309 L405.1803,213.8726 L407.9217,216.9951 L410.5624,220.0304 L413.3952,223.2321 L415.6018,225.8912" fill="none" style="stroke:#8B0000;stroke-width:4;"/><text fill="#000000" font-family="Chalkduster" font-size="24" lengthAdjust="spacing" textLength="100.1635" x="352.52" y="254.732">Collect</text></g><!--entity cur--><g class="entity" data-entity="cur" data-source-line="10" data-uid="ent0004" id="entity_cur"><polygon fill="none" points="279.6481,177.8371,278.4754,179.4394,277.0884,181.7862,275.1047,183.3678,273.0202,184.2327,271.3581,184.3078,269.2219,183.2261,267.2062,182.5195,265.6763,181.0847,264.8738,179.4423,264.3979,178.1345,263.9316,176.4262,263.1748,174.9562,263.7564,173.521,264.2659,171.9488,266.1779,170.7053,267.5232,169.092,269.1882,168.5562,271.1676,168.0948,273.706,168.369,275.0963,169.0246,276.7128,169.3218,278.6782,171.3355,279.3634,173.4613,279.6611,174.9118,279.3239,177.302" style="stroke:#8B0000;stroke-width:4;"/><path d="M271.6039,183.8912 L271.7907,183.8912 L271.2356,189.2912 L271.7757,194.6912 L271.9592,200.0912 L270.9698,205.4912 L271.6039,210.8912 M258.6039,191.8912 L258.6039,191.8221 L263.8039,191.5121 L269.0039,191.5503 L274.2039,191.8306 L279.4039,191.2766 L284.6039,191.8912 M271.6039,210.8912 L271.9758,211.2135 L268.5805,213.5242 L266.2711,216.776 L264.0941,220.1426 L261.1463,222.8412 L258.6039,225.8912 M271.6039,210.8912 L271.6497,210.9309 L274.1825,213.8726 L276.9238,216.9951 L279.5645,220.0304 L282.3973,223.2321 L284.6039,225.8912" fill="none" style="stroke:#8B0000;stroke-width:4;"/><text fill="#000000" font-family="Chalkduster" font-size="24" lengthAdjust="spacing" textLength="90.9878" x="226.11" y="254.732">Curate</text></g><!--entity int--><g class="entity" data-entity="int" data-source-line="11" data-uid="ent0005" id="entity_int"><polygon fill="none" points="256.6455,336.4671,255.4728,338.0694,254.0858,340.4162,252.1021,341.9978,250.0176,342.8627,248.3555,342.9378,246.2193,341.8561,244.2036,341.1495,242.6737,339.7147,241.8712,338.0723,241.3953,336.7645,240.929,335.0562,240.1722,333.5862,240.7538,332.151,241.2633,330.5788,243.1753,329.3353,244.5206,327.722,246.1856,327.1862,248.165,326.7248,250.7034,326.999,252.0937,327.6546,253.7102,327.9518,255.6756,329.9655,256.3608,332.0913,256.6585,333.5418,256.3213,335.932" style="stroke:#8B0000;stroke-width:4;"/><path d="M248.6013,342.5212 L248.7881,342.5212 L248.233,347.9212 L248.7731,353.3212 L248.9566,358.7212 L247.9672,364.1212 L248.6013,369.5212 M235.6013,350.5212 L235.6013,350.4521 L240.8013,350.1421 L246.0013,350.1803 L251.2013,350.4606 L256.4013,349.9066 L261.6013,350.5212 M248.6013,369.5212 L248.9732,369.8435 L245.5779,372.1542 L243.2685,375.406 L241.0915,378.7726 L238.1437,381.4712 L235.6013,384.5212 M248.6013,369.5212 L248.6471,369.5609 L251.1799,372.5026 L253.9212,375.6251 L256.5619,378.6604 L259.3947,381.8621 L261.6013,384.5212" fill="none" style="stroke:#8B0000;stroke-width:4;"/><text fill="#000000" font-family="Chalkduster" font-size="24" lengthAdjust="spacing" textLength="129.1227" x="184.04" y="413.362">Integrate</text></g><!--entity an--><g class="entity" data-entity="an" data-source-line="12" data-uid="ent0006" id="entity_an"><polygon fill="none" points="408.6431,336.4671,407.4705,338.0694,406.0835,340.4162,404.0998,341.9978,402.0152,342.8627,400.3531,342.9378,398.2169,341.8561,396.2012,341.1495,394.6713,339.7147,393.8688,338.0723,393.3929,336.7645,392.9266,335.0562,392.1698,333.5862,392.7514,332.151,393.2609,330.5788,395.173,329.3353,396.5182,327.722,398.1832,327.1862,400.1627,326.7248,402.701,326.999,404.0914,327.6546,405.7078,327.9518,407.6733,329.9655,408.3584,332.0913,408.6561,333.5418,408.3189,335.932" style="stroke:#8B0000;stroke-width:4;"/><path d="M400.5989,342.5212 L400.7858,342.5212 L400.2307,347.9212 L400.7707,353.3212 L400.9542,358.7212 L399.9648,364.1212 L400.5989,369.5212 M387.5989,350.5212 L387.5989,350.4521 L392.7989,350.1421 L397.9989,350.1803 L403.1989,350.4606 L408.3989,349.9066 L413.5989,350.5212 M400.5989,369.5212 L400.9708,369.8435 L397.5756,372.1542 L395.2661,375.406 L393.0891,378.7726 L390.1413,381.4712 L387.5989,384.5212 M400.5989,369.5212 L400.6448,369.5609 L403.1775,372.5026 L405.9189,375.6251 L408.5596,378.6604 L411.3924,381.8621 L413.5989,384.5212" fill="none" style="stroke:#8B0000;stroke-width:4;"/><text fill="#000000" font-family="Chalkduster" font-size="24" lengthAdjust="spacing" textLength="104.7779" x="348.21" y="413.362">Analyse</text></g><g class="entity" data-entity="GMN15" data-source-line="21" data-uid="ent0016" id="entity_GMN15"><path d="M305.27,943.4112 L305.8305,943.4112 L304.1651,953.6101 L305.7854,963.809 L306.3358,974.0078 L303.3676,984.2067 L305.0628,994.4056 L304.1327,1004.6045 L304.2473,1014.8034 L305.0882,1025.0023 L303.4263,1035.2012 L306.7464,1045.4001 L303.5892,1055.599 L304.7426,1065.7979 L306.4218,1075.9968 L305.0412,1086.1957 L305.452,1096.3946 L305.1848,1106.5935 L305.7461,1116.7924 L305.9077,1126.9913 L305.27,1137.1902 L305.27,1137.1902 L305.27,1138.752 L315.2895,1138.9796 L325.309,1139.0015 L335.3286,1137.8692 L345.3481,1138.4264 L355.3676,1139.0628 L365.3872,1135.267 L375.4067,1138.9995 L385.4262,1136.3995 L395.4458,1138.6137 L405.4653,1135.8701 L415.4848,1137.0075 L425.5044,1139.1678 L435.5239,1137.0602 L445.5434,1137.471 L455.563,1138.0932 L465.5825,1138.3001 L475.602,1137.1797 L485.6215,1137.9561 L495.6411,1135.6637 L505.6606,1137.9485 L515.6801,1138.652 L525.6997,1138.3756 L535.7192,1138.8249 L545.7387,1135.9019 L555.7583,1135.451 L565.7778,1135.5331 L575.7973,1137.0331 L585.8169,1136.6661 L595.8364,1139.0073 L605.8559,1136.7244 L615.8755,1136.2754 L625.895,1137.7989 L635.9145,1135.4119 L645.934,1137.1902 L645.934,1137.1902 L644.5497,1137.1902 L647.6646,1126.9802 L647.0958,1116.7703 L647.8927,1106.5603 L645.0759,1096.3504 L646.7852,1086.1404 L647.5085,1075.9305 L644.6743,1065.7205 L645.6784,1055.5106 L646.27,1045.3007 L647.6721,1035.0907 L645.9229,1024.8808 L647.1676,1014.6708 L644.4573,1004.4609 L644.128,994.2509 L647.277,984.041 L644.0222,973.831 L647.2913,963.6211 L645.934,953.4112 L646.0639,953.541 L643.7657,951.2428 L641.7117,949.1888 L640.2224,947.6995 L637.7459,945.223 L635.934,943.4112 L635.934,944.9895 L625.8896,941.9372 L615.8452,945.0576 L605.8008,944.7026 L595.7564,944.0644 L585.7119,943.5371 L575.6675,945.3488 L565.6231,945.0474 L555.5787,943.8625 L545.5342,944.1263 L535.4898,943.0638 L525.4454,945.3217 L515.401,943.8241 L505.3565,943.8714 L495.3121,941.7889 L485.2677,942.3306 L475.2233,944.8265 L465.1788,944.5572 L455.1344,943.2967 L445.09,943.4112 L444.2983,943.0775 L440.9077,934.5387 L436.1153,925.409 L435.1763,917.9036 L432.3302,909.5943 L428.1621,900.7278 L424.9319,892.2567 L419.58,882.8912 L419.2297,882.7898 L422.7217,893.0425 L424.4238,902.7772 L429.0626,913.3617 L431.8854,923.4207 L435.5867,933.7339 L437.09,943.4112 L437.09,942.7987 L426.95,943.0527 L416.81,944.5937 L406.67,944.9241 L396.53,942.0444 L386.39,942.8941 L376.25,943.8092 L366.11,941.7822 L355.97,944.3535 L345.83,944.0991 L335.69,943.1425 L325.55,943.7905 L315.41,945.3543 L305.27,943.4112 L305.27,943.4112" fill="none" style="stroke:#181818;stroke-width:4;"/><path d="M635.934,943.4112 L636.1209,943.4112 L635.5658,945.4112 L636.1059,947.4112 L636.2893,949.4112 L635.2999,951.4112 L635.934,953.4112 L635.934,953.3421 L637.934,953.0321 L639.934,953.0703 L641.934,953.3506 L643.934,952.7966 L645.934,953.4112 L646.282,953.7591 L643.5379,951.015 L641.8097,949.2869 L640.2055,947.6827 L637.8801,945.3572 L635.934,943.4112" fill="none" style="stroke:#181818;stroke-width:4;"/><text fill="#000000" font-family="Chalkduster" font-size="24" lengthAdjust="spacing" textLength="319.6641" x="311.27" y="972.252">Collections eg websites</text><text fill="#000000" font-family="Chalkduster" font-size="24" lengthAdjust="spacing" textLength="188.4729" x="311.27" y="1002.8819">Working data</text><text fill="#000000" font-family="Chalkduster" font-size="24" lengthAdjust="spacing" textLength="189.0829" x="311.27" y="1033.5117">Bibliographies</text><text fill="#000000" font-family="Chalkduster" font-size="24" lengthAdjust="spacing" textLength="70.3293" x="311.27" y="1064.1415">Code</text><text fill="#000000" font-family="Chalkduster" font-size="24" lengthAdjust="spacing" textLength="288.1061" x="311.27" y="1094.7714">Desktop computation</text><text fill="#000000" font-family="Chalkduster" font-size="24" lengthAdjust="spacing" textLength="24.4243" x="311.27" y="1125.4012">...</text></g><!--entity repo--><g class="entity" data-entity="repo" data-source-line="13" data-uid="ent0013" id="entity_repo"><path d="M537.12,802.1512 L537.12,802.1512 L537.1616,802.2348 L538.3655,801.3261 L539.8133,800.9078 L541.1817,800.3297 L542.289,799.2266 L543.7577,798.8504 L543.7528,798.8162 L547.231,798.1666 L550.7335,797.6894 L554.2531,797.3321 L557.7141,796.5618 L561.2571,796.3699 L561.2774,796.6151 L563.5722,795.8969 L565.9264,795.8946 L568.2878,795.9797 L570.607,795.5565 L572.9485,795.4007 L572.9503,795.4309 L575.5574,795.2249 L578.173,795.1566 L580.7845,795.0219 L583.4039,795.014 L585.9976,794.5926 L586.0117,794.8905 L588.8027,794.7618 L591.5846,794.441 L594.3799,794.4014 L597.1758,794.375 L599.9518,793.9309 L599.9401,793.6106 L602.8443,794.1263 L605.7097,793.5873 L608.6046,793.8502 L611.4692,793.2873 L614.3587,793.4012 L614.3579,793.3707 L620.0393,793.5861 L625.7025,793.0904 L631.3765,793.0144 L637.0514,792.9735 L642.7197,792.6785 L642.7225,792.8635 L647.6678,792.6026 L652.6179,792.6577 L657.5602,792.2015 L662.514,792.508 L667.4602,792.3074 L667.4618,792.551 L672.2889,792.4737 L677.1168,792.5174 L681.9411,791.999 L686.768,791.8926 L691.5973,792.1512 L691.5973,792.1512 L691.5955,791.875 L696.4246,792.1562 L701.2516,792.1263 L706.0815,792.5478 L710.9065,792.1985 L715.7344,792.3074 L715.7321,792.155 L720.684,792.4831 L725.6262,792.1595 L730.5753,792.2994 L735.5311,792.8927 L740.4749,792.6785 L740.4799,792.8721 L746.1555,793.1494 L751.8157,792.8246 L757.4952,793.2539 L763.1705,793.519 L768.836,793.4012 L768.8283,793.1913 L771.7158,793.4645 L774.6008,793.669 L777.4907,794.0085 L780.3614,793.8231 L783.2428,793.9309 L783.2526,794.1363 L786.022,793.8174 L788.8103,793.8949 L791.626,794.5515 L794.3911,794.142 L797.1971,794.5926 L797.2111,794.8183 L799.8126,794.8458 L802.4094,794.797 L805.0168,794.9205 L807.649,795.4426 L810.2462,795.4007 L810.2352,795.2681 L812.6062,795.8567 L814.9024,795.5435 L817.2837,796.2557 L819.6171,796.3906 L821.9376,796.3699 L821.9529,796.4777 L825.4404,796.8868 L828.9827,797.6818 L832.4755,798.1282 L835.9477,798.4288 L839.437,798.8504 L839.49,798.9571 L840.7387,799.4587 L842.2338,800.4558 L843.4502,800.8925 L844.7813,801.5597 L846.0747,802.1512 L844.4524,802.1512 L844.9941,812.1883 L847.49,822.2254 L847.2207,832.2624 L845.9602,842.2995 L845.2155,852.3366 L845.4909,862.3737 L846.0747,872.4108 L846.0747,872.4108 L845.9389,872.1378 L844.8292,873.236 L843.5659,874.0255 L842.1962,874.6008 L840.902,875.328 L839.437,875.7116 L839.4284,875.6514 L835.9425,876.2461 L832.413,876.5332 L828.9551,877.3249 L825.4529,877.8046 L821.9376,878.1921 L821.9579,878.4367 L819.5909,878.2842 L817.2561,878.5202 L814.939,878.97 L812.6053,879.2188 L810.2462,879.1613 L810.2321,878.934 L807.631,879.2369 L805.0306,879.5508 L802.3999,879.3752 L799.8166,879.9646 L797.1971,879.9694 L797.2025,880.084 L794.4041,880.057 L791.6184,880.2972 L788.8399,880.6899 L786.0271,880.3598 L783.2428,880.631 L783.248,880.7709 L780.3661,880.8639 L777.482,880.8944 L774.601,881.0115 L771.7192,881.1053 L768.836,881.1608 L768.8289,880.8835 L763.1592,881.1273 L757.4863,881.2448 L751.8201,881.6228 L746.1481,881.7781 L740.4749,881.8835 L740.476,881.9554 L735.5249,881.8284 L730.5783,882.0019 L725.6298,882.0527 L720.6864,882.4367 L715.7344,882.2546 L715.7356,882.4442 L710.9056,882.07 L706.0794,882.2847 L701.2505,882.0918 L696.4256,882.5077 L691.5973,882.4108 L691.5973,882.4108 L691.5991,882.6813 L686.7715,882.6216 L681.9412,882.1548 L677.1164,882.5233 L672.2855,881.9557 L667.4602,882.2546 L667.4616,882.3435 L662.5101,882.0473 L657.5647,882.1491 L652.6175,882.1387 L647.671,882.1675 L642.7197,881.8835 L642.7116,881.5636 L637.0529,881.9502 L631.3773,881.6736 L625.7071,881.6078 L620.0393,881.6376 L614.3587,881.1608 L614.3587,881.1633 L611.4802,881.1327 L608.5994,881.0437 L605.7178,880.9306 L602.8332,880.7366 L599.9518,880.631 L599.9668,880.9466 L597.1482,880.228 L594.382,880.6173 L591.5661,879.957 L588.7771,879.8619 L585.9976,879.9694 L585.9987,879.9872 L583.3885,879.8203 L580.7644,879.4276 L578.1795,879.6681 L575.5613,879.3712 L572.9485,879.1613 L572.9752,879.4832 L570.6347,879.2629 L568.2555,878.5751 L565.919,878.4035 L563.5906,878.3287 L561.2571,878.1921 L561.2792,878.3485 L557.7823,877.8733 L554.2761,877.3324 L550.7361,876.5533 L547.2973,876.4877 L543.7577,875.7116 L543.8831,875.9638 L542.4208,875.0326 L541.0553,874.2962 L539.6956,873.5714 L538.4051,872.9856 L537.12,872.4108 L537.4864,872.4108 L536.9376,862.3737 L536.0059,852.3366 L538.4197,842.2995 L535.8962,832.2624 L538.4597,822.2254 L538.2593,812.1883 L537.12,802.1512" fill="#00FF7F" style="stroke:#181818;stroke-width:4;"/><path d="M537.12,802.1512 L537.12,802.1512 L537.1616,802.2348 L538.3655,802.6464 L539.8133,803.5484 L541.1817,804.2907 L542.289,804.5079 L543.7577,805.4519 L543.7528,805.4177 L547.231,805.7604 L550.7335,806.2754 L554.2531,806.9102 L557.7141,807.1321 L561.2571,807.9324 L561.2774,808.1776 L563.5722,807.8471 L565.9264,808.2325 L568.2878,808.7053 L570.607,808.6698 L572.9485,808.9016 L572.9503,808.9319 L575.5574,809.0491 L578.173,809.3041 L580.7845,809.4926 L583.4039,809.8079 L585.9976,809.7098 L586.0117,810.0077 L588.8027,810.1436 L591.5846,810.0874 L594.3799,810.3125 L597.1758,810.5508 L599.9518,810.3714 L599.9401,810.0511 L602.8443,810.7787 L605.7097,810.4516 L608.6046,810.9263 L611.4692,810.5753 L614.3587,810.9012 L614.3579,810.8707 L620.0393,811.3752 L625.7025,811.1686 L631.3765,811.3815 L637.0514,811.6297 L642.7197,811.6238 L642.7225,811.8088 L647.6678,811.6963 L652.6179,811.8999 L657.5602,811.5921 L662.514,812.0471 L667.4602,811.9949 L667.4618,812.2385 L672.2889,812.2237 L677.1168,812.3299 L681.9411,811.874 L686.768,811.8301 L691.5973,812.1512 L691.5973,812.1512 L691.5955,811.875 L696.4246,812.0937 L701.2516,812.0013 L706.0815,812.3603 L710.9065,811.9485 L715.7344,811.9949 L715.7321,811.8425 L720.684,812.0221 L725.6262,811.5501 L730.5753,811.5416 L735.5311,811.9864 L740.4749,811.6238 L740.4799,811.8174 L746.1555,811.8056 L751.8157,811.1918 L757.4952,811.332 L763.1705,811.308 L768.836,810.9012 L768.8283,810.6913 L771.7158,810.7526 L774.6008,810.7452 L777.4907,810.8728 L780.3614,810.4755 L783.2428,810.3714 L783.2526,810.5767 L786.022,809.9932 L788.8103,809.8061 L791.626,810.198 L794.3911,809.5238 L797.1971,809.7098 L797.2111,809.9355 L799.8126,809.6398 L802.4094,809.2677 L805.0168,809.068 L807.649,809.2668 L810.2462,808.9016 L810.2352,808.7691 L812.6062,808.97 L814.9024,808.2691 L817.2837,808.5936 L819.6171,808.3408 L821.9376,807.9324 L821.9529,808.0402 L825.4404,807.4571 L828.9827,807.26 L832.4755,806.7141 L835.9477,806.0225 L839.437,805.4519 L839.49,805.5587 L840.7387,804.7399 L842.2338,804.4167 L843.4502,803.5331 L844.7813,802.88 L846.0747,802.1512" fill="none" style="stroke:#181818;stroke-width:4;"/><text fill="#000000" font-family="Chalkduster" font-size="24" font-style="italic" lengthAdjust="spacing" textLength="169.1404" x="607.0272" y="839.992">&#171;repository&#187;</text><text fill="#000000" font-family="Chalkduster" font-size="24" lengthAdjust="spacing" textLength="288.9547" x="547.12" y="870.6219">Archival Repositories</text></g><!--entity comp--><g class="entity" data-entity="comp" data-source-line="17" data-uid="ent0014" id="entity_comp"><path d="M305.54,802.1512 L305.54,802.1512 L305.573,802.2386 L308.5395,800.8226 L311.6992,799.919 L314.7961,798.8486 L317.6859,797.2295 L320.8623,796.3699 L320.8584,796.3356 L323.9821,795.8261 L327.1253,795.4896 L330.2822,795.2734 L333.3921,794.6427 L336.5677,794.5926 L336.584,794.8381 L340.15,794.0748 L343.7634,794.0283 L347.3827,794.0693 L350.9682,793.6014 L354.5715,793.4012 L354.5727,793.4315 L358.1717,793.2424 L361.7762,793.1914 L365.378,793.0738 L368.9849,793.0831 L372.5752,792.6785 L372.5823,792.9767 L375.7234,792.9061 L378.8601,792.6432 L382.0033,792.6618 L385.1469,792.6936 L388.2806,792.3074 L388.2774,791.9869 L391.3482,792.5777 L394.4082,792.1131 L397.4765,792.4509 L400.5363,791.9624 L403.603,792.1512 L403.603,792.1512 L403.6027,792.1207 L406.6708,792.512 L409.7317,792.192 L412.7969,792.2917 L415.8624,792.4267 L418.9253,792.3074 L418.9297,792.4924 L422.0664,792.3799 L425.2105,792.5835 L428.3425,792.2757 L431.4926,792.7306 L434.6307,792.6785 L434.6405,792.922 L438.2394,793.0204 L441.8431,793.2398 L445.4244,792.8976 L449.0221,792.967 L452.6345,793.4012 L452.6162,793.1256 L456.2335,793.6133 L459.8302,793.7906 L463.4567,794.4182 L467.0323,794.2768 L470.6382,794.5926 L470.6211,794.4411 L473.7907,795.0488 L476.8871,795.009 L480.0355,795.4297 L483.235,796.301 L486.3436,796.3699 L486.412,796.5511 L489.5233,797.8316 L492.4221,798.5486 L495.5871,799.9714 L498.6941,801.2404 L501.666,802.1512 L500.4062,802.1512 L501.4103,812.1883 L502.0019,822.2254 L503.404,832.2624 L501.6548,842.2995 L502.8995,852.3366 L500.1892,862.3737 L501.666,872.4108 L501.666,872.4108 L501.5597,872.1292 L498.6805,873.7765 L495.4245,874.4252 L492.5524,876.0912 L489.4405,877.1217 L486.3436,878.1921 L486.3302,878.0738 L483.1849,878.3913 L480.0844,879.1056 L476.9054,879.1263 L473.8089,879.8753 L470.6382,879.9694 L470.622,879.7243 L467.0556,880.4815 L463.4509,880.6608 L459.8432,880.7929 L456.2366,880.9435 L452.6345,881.1608 L452.6474,881.4835 L449.0447,881.5778 L445.436,881.5251 L441.837,881.7135 L438.2291,881.6811 L434.6307,881.8835 L434.6382,882.2018 L431.4913,882.0265 L428.3504,882.1086 L425.2011,881.8358 L422.0621,882.0003 L418.9253,882.2546 L418.9277,882.4905 L415.8628,882.4768 L412.7962,882.298 L409.7305,882.2051 L406.6665,882.2823 L403.603,882.4108 L403.603,882.4108 L403.5999,882.1059 L400.5404,882.5639 L397.4774,882.677 L394.412,882.551 L391.3483,882.5947 L388.2806,882.2546 L388.2792,882.1938 L385.1405,882.2191 L381.9944,881.9339 L378.8604,882.1581 L375.7189,882.0673 L372.5752,881.8835 L372.5851,882.1288 L368.9704,881.637 L365.3713,881.5347 L361.7809,881.6468 L358.1823,881.5573 L354.5715,881.1608 L354.5564,880.9335 L350.965,880.8366 L347.3744,880.7505 L343.7513,880.1751 L340.1789,880.3644 L336.5677,879.9694 L336.5806,880.0834 L333.4216,879.5695 L330.2927,879.3213 L327.1809,879.2248 L323.9878,878.4094 L320.8623,878.1921 L320.9117,878.3231 L317.8427,877.1546 L314.7516,875.9277 L311.691,874.7819 L308.6223,873.6143 L305.54,872.4108 L303.8756,872.4108 L304.4711,862.3737 L304.3092,852.3366 L305.7102,842.2995 L305.775,832.2624 L305.9713,822.2254 L304.7641,812.1883 L305.54,802.1512" fill="#FFC7D8" style="stroke:#181818;stroke-width:4;"/><path d="M305.54,802.1512 L305.54,802.1512 L305.573,802.2386 L308.5395,803.1351 L311.6992,804.544 L314.7961,805.7861 L317.6859,806.4795 L320.8623,807.9324 L320.8584,807.8981 L323.9821,808.0995 L327.1253,808.474 L330.2822,808.9687 L333.3921,809.049 L336.5677,809.7098 L336.584,809.9553 L340.15,809.6685 L343.7634,810.0986 L347.3827,810.6162 L350.9682,810.6248 L354.5715,810.9012 L354.5727,810.9315 L358.1717,811.0315 L361.7762,811.2695 L365.378,811.441 L368.9849,811.7394 L372.5752,811.6238 L372.5823,811.922 L375.7234,811.9998 L378.8601,811.8854 L382.0033,812.0525 L385.1469,812.2327 L388.2806,811.9949 L388.2774,811.6744 L391.3482,812.3277 L394.4082,811.9256 L397.4765,812.3259 L400.5363,811.8999 L403.603,812.1512 L403.603,812.1512 L403.6027,812.1207 L406.6708,812.4495 L409.7317,812.067 L412.7969,812.1042 L415.8624,812.1767 L418.9253,811.9949 L418.9297,812.1799 L422.0664,811.919 L425.2105,811.9741 L428.3425,811.5179 L431.4926,811.8244 L434.6307,811.6238 L434.6405,811.8673 L438.2394,811.6767 L441.8431,811.607 L445.4244,810.9757 L449.0221,810.7561 L452.6345,810.9012 L452.6162,810.6256 L456.2335,810.6368 L459.8302,810.3374 L463.4567,810.4885 L467.0323,809.8706 L470.6382,809.7098 L470.6211,809.5583 L473.7907,809.4551 L476.8871,808.7043 L480.0355,808.4141 L483.235,808.5745 L486.3436,807.9324 L486.412,808.1136 L489.5233,807.0816 L492.4221,805.4861 L495.5871,804.5964 L498.6941,803.5529 L501.666,802.1512" fill="none" style="stroke:#181818;stroke-width:4;"/><text fill="#000000" font-family="Chalkduster" font-size="24" font-style="italic" lengthAdjust="spacing" textLength="174.126" x="316.54" y="839.992">&#171;workspace&#187;</text><text fill="#000000" font-family="Chalkduster" font-size="24" lengthAdjust="spacing" textLength="155.8807" x="325.6626" y="870.6219">Workspaces</text></g><!--link coll to cur--><g class="link" data-entity-1="coll" data-entity-2="cur" data-source-line="17" data-uid="lnk7" id="link_coll_cur"><path d="M352.34,212.7112 L352.34,212.8046 L346.552,212.527 L340.764,212.7971 L334.976,212.8888 L329.188,212.3941 L323.4,212.7112" fill="none" style="stroke:#181818;stroke-width:4;"/><polygon fill="#181818" points="317.4,212.7112,317.4284,212.7752,319.1439,213.385,321.0262,214.37,322.8541,215.2329,324.5034,215.6939,326.4,216.7112,326.3817,216.6928,325.4995,215.8106,324.7096,215.0208,323.9839,214.2951,323.037,213.3482,322.4,212.7112,322.5305,212.8417,323.0514,211.7626,323.9534,211.0645,324.9018,210.413,325.5798,209.4909,326.4,208.7112,326.4092,208.7319,324.5957,209.5014,322.8242,210.3655,321.0324,211.184,319.2793,212.0896,317.4,212.7112" style="stroke:#181818;stroke-width:4;"/></g><!--link cur to int--><g class="link" data-entity-1="cur" data-entity-2="int" data-source-line="18" data-uid="lnk8" id="link_cur_int"><path d="M263.6385,267.9175 L263.9157,267.9582 L261.672,277.5107 L261.0536,287.3017 L259.906,297.0151 L257.0177,306.4729 L256.5389,316.2844" fill="none" style="stroke:#181818;stroke-width:4;"/><polygon fill="#181818" points="264.51,261.9812,264.5692,262.0186,263.3403,263.572,262.4585,265.345,261.4637,267.0465,260.0971,268.5129,259.2451,270.3047,259.2296,270.2839,260.068,269.5153,260.9842,268.8515,261.9547,268.2605,262.7384,267.4185,263.7837,266.9281,263.9318,267.0383,264.2905,267.7104,265.0814,268.7042,265.9252,269.7372,266.462,270.5419,267.1603,271.4667,267.1822,271.4729,266.6199,269.5668,266.1575,267.6885,265.6469,265.7968,265.2281,263.9308,264.51,261.9812" style="stroke:#181818;stroke-width:4;"/><polygon fill="#181818" points="255.67,322.2212,255.7292,322.2586,256.6055,320.4822,257.829,318.9253,258.9394,317.2968,259.678,315.4335,260.9312,313.8953,260.9158,313.8746,259.9389,314.457,259.04,315.1442,258.1954,315.9042,257.1639,316.4133,256.3941,317.2739,256.5421,317.3841,255.5499,316.241,254.9898,315.4197,254.4825,314.6376,253.6683,313.6271,253.0156,312.7367,253.0375,312.7429,253.5362,314.6308,254.1346,316.5466,254.685,318.4489,255.3271,320.3769,255.67,322.2212" style="stroke:#181818;stroke-width:4;"/></g><!--link cur to an--><g class="link" data-entity-1="cur" data-entity-2="an" data-source-line="19" data-uid="lnk9" id="link_cur_an"><path d="M315.1753,266.6118 L315.3917,266.79 L320.7462,273.5431 L327.3688,281.3406 L333.5786,288.798 L338.4302,295.137 L345.0818,302.9583 L350.7201,309.9451 L357.1563,317.5891" fill="none" style="stroke:#181818;stroke-width:4;"/><polygon fill="#181818" points="311.36,261.9812,311.4275,261.9999,311.7541,263.8421,312.4764,265.7942,313.0699,267.7106,313.2396,269.5092,313.9959,271.4707,313.9701,271.4682,313.9631,270.3309,314.0861,269.2062,314.2994,268.0901,314.2013,266.944,314.5394,265.8401,314.5572,266.0237,315.6454,265.7396,316.7854,265.9919,317.9317,266.3095,319.0412,266.2464,320.1701,266.3836,320.1803,266.404,318.4033,265.4936,316.6727,264.6759,314.9197,263.8134,313.2093,263.0363,311.36,261.9812" style="stroke:#181818;stroke-width:4;"/><polygon fill="#181818" points="360.97,322.2212,361.0375,322.2399,360.3104,320.2861,359.9791,318.4422,359.5189,316.5624,358.6349,314.5652,358.3376,312.7306,358.3118,312.7281,358.0869,313.843,357.9921,314.9705,357.9876,316.1067,357.6717,317.2128,357.7919,318.3611,357.8097,318.5448,356.6456,318.0429,355.5334,318.0772,354.4275,318.177,353.2848,317.8962,352.1615,317.8155,352.1716,317.8358,353.9184,318.6871,355.7115,319.631,357.4822,320.5302,359.2956,321.5146,360.97,322.2212" style="stroke:#181818;stroke-width:4;"/></g><!--link int to an--><g class="link" data-entity-1="int" data-entity-2="an" data-source-line="20" data-uid="lnk10" id="link_int_an"><path d="M319.62,371.3412 L319.62,371.4346 L324.082,371.157 L328.544,371.4271 L333.006,371.5188 L337.468,371.0241 L341.93,371.3412" fill="none" style="stroke:#181818;stroke-width:4;"/><polygon fill="#181818" points="313.62,371.3412,313.6484,371.4052,315.3639,372.015,317.2462,373,319.0741,373.8629,320.7234,374.3239,322.62,375.3412,322.6017,375.3228,321.7195,374.4406,320.9296,373.6508,320.2039,372.9251,319.257,371.9782,318.62,371.3412,318.7505,371.4717,319.2714,370.3926,320.1734,369.6945,321.1218,369.043,321.7998,368.1209,322.62,367.3412,322.6292,367.3619,320.8157,368.1314,319.0442,368.9955,317.2524,369.814,315.4993,370.7196,313.62,371.3412" style="stroke:#181818;stroke-width:4;"/><polygon fill="#181818" points="347.93,371.3412,347.9584,371.4052,346.0739,370.415,344.3562,369.8,342.5841,369.0629,340.6334,367.9239,338.93,367.3412,338.9117,367.3228,339.6295,368.0406,340.4396,368.8508,341.3139,369.7251,341.967,370.3782,342.93,371.3412,343.0605,371.4717,341.9814,371.9926,341.2834,372.8945,340.6318,373.843,339.7098,374.5209,338.93,375.3412,338.9392,375.3619,340.7257,374.5314,342.5542,373.7955,344.3624,373.014,346.2093,372.3196,347.93,371.3412" style="stroke:#181818;stroke-width:4;"/></g><!--reverse link coll to repo--><g class="link" data-entity-1="coll" data-entity-2="repo" data-source-line="31" data-uid="lnk19" id="link_coll_repo"><path d="M458.7534,220.8832 L458.7667,220.9757 L463.5405,221.3905 L468.3921,222.3474 L473.2183,223.1278 L477.9614,223.3277 L482.8196,224.3311 L482.8143,224.297 L488.2394,224.9822 L493.691,225.8396 L499.161,226.8165 L504.5675,227.3812 L510.0629,228.5234 L510.1032,228.7661 L515.9706,229.2361 L521.9557,230.4148 L527.9551,231.68 L533.871,232.4421 L539.8308,233.4688 L539.8362,233.4987 L546.1563,234.5963 L552.5009,235.8299 L558.8336,236.9979 L565.1889,238.291 L571.4707,239.1763 L571.5271,239.4692 L574.7914,240.1012 L578.0193,240.5444 L581.3004,241.264 L584.5841,241.9966 L587.7886,242.3186 L587.7253,242.0044 L591.1565,243.2814 L594.3791,243.5239 L597.7603,244.5529 L600.9781,244.7719 L604.3298,245.6548 L604.3235,245.625 L607.7347,246.6834 L610.9985,247.046 L614.3492,247.8192 L617.7073,248.6269 L621.0127,249.1859 L621.0529,249.3664 L624.3609,249.9296 L627.7376,250.8013 L631.0032,251.1739 L634.4345,252.291 L637.7556,252.9131 L637.8113,253.1503 L641.1451,253.8903 L644.5065,254.748 L647.7395,255.0586 L651.0666,255.7703 L654.4771,256.8374 L654.4106,256.5694 L657.7945,257.6365 L661.1034,258.4017 L664.521,259.6049 L667.7531,260.0602 L671.0955,260.9601 L671.0567,260.8126 L674.408,261.9226 L677.5936,262.4023 L680.897,263.3302 L684.3158,264.6966 L687.5292,265.2821 L687.5814,265.4686 L690.8506,266.501 L693.9577,266.9534 L697.2679,268.1323 L700.5339,269.1529 L703.6967,269.8047 L703.6366,269.6035 L706.8484,270.7087 L710.0406,271.748 L713.2714,272.9167 L716.3519,273.5822 L719.5164,274.5289 L719.5791,274.7247 L722.5194,275.2798 L725.5807,276.2129 L728.8188,277.6982 L731.7315,278.1669 L734.9067,279.4558 L734.9804,279.6696 L737.9125,280.5687 L740.8196,281.3955 L743.783,282.3856 L746.8766,283.7531 L749.786,284.5865 L749.7394,284.4619 L752.7354,285.9001 L755.4147,286.4907 L758.4541,288.045 L761.2907,289.0567 L764.0727,289.9222 L764.1138,290.0231 L766.8032,291.05 L769.6396,292.438 L772.3432,293.4999 L774.9912,294.4253 L777.6854,295.464 L777.734,295.5728 L780.2331,296.5609 L782.9581,298.0543 L785.4276,298.9762 L788.0022,300.1332 L790.5423,301.2129 L790.4222,300.9707 L792.8663,302.243 L795.4549,303.8072 L797.8389,304.9584 L800.1495,305.9616 L802.5619,307.1702 L802.4924,307.045 L804.7348,308.3184 L806.8542,309.3702 L809.3119,311.0313 L811.6022,312.3908 L813.6627,313.3368 L813.7876,313.5346 L815.8477,314.8734 L817.6704,315.8363 L819.7436,317.1958 L821.651,318.2928 L823.763,319.7139 L823.8375,319.8158 L825.6314,321.1202 L827.5152,322.5476 L829.1138,323.5847 L830.9424,324.9367 L832.7813,326.3027 L832.9103,326.4516 L834.5173,327.8536 L835.7741,328.851 L837.4377,330.3184 L839.1085,331.794 L840.636,333.1041 L840.4384,332.9179 L842.0722,334.6149 L843.3632,335.9889 L844.5691,337.2826 L845.9696,338.7597 L847.2455,340.1194 L847.5202,340.2908 L848.9589,342.9811 L851.0271,346.0641 L852.8475,348.9925 L854.6148,351.8879 L856.4026,354.796 L856.4639,354.8086 L857.0915,357.9152 L857.4098,360.9581 L858.1465,364.0872 L858.7596,367.1908 L859.6,370.3412 L859.6851,370.3412 L859.7175,380.2971 L859.8157,390.253 L859.212,400.2089 L859.51,410.1649 L859.4397,420.1208 L860.3691,430.0767 L860.1687,440.0326 L858.9526,449.9886 L859.5028,459.9445 L858.8303,469.9004 L859.9845,479.8563 L860.4113,489.8123 L860.3261,499.7682 L859.0192,509.7241 L860.2186,519.68 L858.6096,529.636 L859.8669,539.5919 L859.2009,549.5478 L859.7289,559.5038 L859.9204,569.4597 L860.2295,579.4156 L858.6401,589.3715 L860.234,599.3275 L859.8376,609.2834 L860.0738,619.2393 L860.5971,629.1952 L859.6,639.1512 L859.6024,639.1513 L859.5594,641.5252 L859.458,643.8961 L859.3325,646.2659 L859.1262,648.6316 L859.0082,651.0017 L859.3207,651.048 L858.3963,653.2819 L858.5691,655.6784 L857.7024,657.9209 L857.3953,660.2463 L857.289,662.6014 L857.3063,662.6056 L856.7487,664.8717 L855.9711,667.0842 L855.81,669.4469 L855.1258,671.6822 L854.5263,673.9381 L854.8324,674.0411 L854.0628,676.2449 L852.8486,678.2991 L852.1253,680.5185 L851.4941,682.7689 L850.804,684.9994 L850.9494,685.0615 L850.0492,687.2245 L849.0881,689.3615 L847.9056,691.4041 L847.386,693.7295 L846.2063,695.7733 L846.4568,695.9022 L845.1098,697.8585 L843.9561,699.9143 L842.8141,701.9761 L841.8101,704.1089 L840.8171,706.2474 L840.8694,706.2788 L839.5716,708.2642 L838.2191,710.2167 L837.3447,712.4561 L835.7647,714.2721 L834.7203,716.4095 L834.9047,716.5355 L833.533,718.4842 L832.1686,720.4379 L830.9422,722.4859 L829.2538,724.2182 L828,726.2474 L827.8938,726.1663 L826.7313,728.2877 L824.8853,729.8869 L823.5615,731.8851 L822.2329,733.8797 L820.7402,735.7489 L820.7635,735.7685 L819.0753,737.4767 L817.6394,739.3977 L816.364,741.4538 L814.7882,743.2569 L813.0248,744.9016 L812.8297,744.7222 L811.4331,746.6836 L809.6219,748.2638 L808.164,750.1689 L806.6511,752.0233 L804.9379,753.6935 L805.0702,753.8251 L803.0535,755.1689 L801.7143,757.1866 L799.9159,758.7474 L798.0633,760.2544 L796.5634,762.1123 L796.4203,761.9594 L794.947,763.8249 L793.2081,765.4067 L791.4116,766.9269 L789.4968,768.3209 L787.9854,770.1456 L788.1784,770.3654 L786.1545,771.5686 L784.3515,773.0236 L782.7471,774.7046 L781.2003,776.4512 L779.2878,777.7814 L779.4622,777.9921 L777.5512,779.2386 L775.7518,780.62 L774.0961,782.1751 L772.3541,783.6259 L770.5547,785.0073 L770.4155,784.8296 L768.9312,786.5129 L767.234,787.9243 L765.2847,789.0141 L763.4893,790.3002 L761.87,791.8112" fill="none" style="stroke:#181818;stroke-width:4;"/><polygon fill="#181818" points="452.81,220.0612,452.8469,220.1207,454.4106,220.9829,456.1908,222.194,457.9005,223.2915,459.3782,224.0154,461.1771,225.2565,461.1564,225.2408,460.3809,224.2686,459.7095,223.3752,459.1104,222.5366,458.2619,221.5091,457.7628,220.7462,457.8742,220.8933,458.5381,219.8958,459.5272,219.3279,460.5559,218.8124,461.3538,217.992,462.2731,217.3319,462.2794,217.3538,460.3776,217.8675,458.5044,218.4808,456.6173,219.0461,454.7567,219.7029,452.81,220.0612" style="stroke:#181818;stroke-width:4;"/><text fill="#000000" font-family="Chalkduster" font-size="24" lengthAdjust="spacing" textLength="77.0387" x="860.6" y="507.992">Reuse</text></g><!--link cur to repo--><g class="link" data-entity-1="cur" data-entity-2="repo" data-source-line="32" data-uid="lnk20" id="link_cur_repo"><path d="M317.43,251.5912 L317.4768,251.672 L320.7718,253.4178 L324.341,255.6375 L327.8209,257.7029 L331.0073,259.2607 L334.6,261.5212 L334.586,261.4896 L337.3476,262.603 L340.1799,263.8756 L343.0614,265.2588 L345.7735,266.2608 L348.7229,267.7967 L348.806,268.0283 L351.5125,268.5681 L354.4616,269.7842 L357.4404,271.0827 L360.2468,271.9013 L363.1439,272.9723 L363.1522,273.0015 L366.0741,273.7921 L369.0337,274.7155 L371.9751,275.5748 L374.9513,276.5564 L377.8142,277.1395 L377.8779,277.4308 L380.8527,278.0844 L383.7865,278.5501 L386.7805,279.2909 L389.7772,280.0445 L392.6847,280.3897 L392.6336,280.0732 L395.7371,281.1723 L398.6724,281.2294 L401.7355,282.0786 L404.667,282.1121 L407.7065,282.8143 L407.7031,282.784 L410.7679,283.4799 L413.7537,283.4689 L416.7861,283.8751 L419.8225,284.3162 L422.8306,284.5048 L422.8433,284.6893 L425.866,284.7126 L428.9104,285.0512 L431.9195,284.8796 L434.9813,285.4691 L438.0081,285.5526 L438.016,285.7961 L441.0509,285.8493 L444.0897,286.0235 L447.1102,285.6359 L450.1441,285.6601 L453.19,286.0491 L453.1893,285.773 L456.2174,286.0303 L459.2447,285.9765 L462.2732,286.374 L465.2997,286.0009 L468.3274,286.0859 L468.324,285.9335 L471.3384,286.121 L474.3384,285.657 L477.3486,285.6563 L480.3689,286.109 L483.3713,285.7543 L483.3792,285.9478 L486.3649,285.9588 L489.326,285.368 L492.3179,285.5309 L495.3032,285.5297 L498.2727,285.1458 L498.2614,284.9361 L501.2125,284.9445 L504.1598,284.8841 L507.1144,284.9587 L510.0407,284.5087 L512.9828,284.3518 L512.9955,284.557 L518.6976,283.7504 L524.4242,283.3399 L530.1867,283.508 L535.8831,282.6109 L541.6329,282.5732 L541.646,282.799 L544.4067,282.5045 L547.1629,282.1336 L549.9291,281.9351 L552.7184,282.1353 L555.4751,281.7714 L555.4689,281.6385 L558.1782,281.9099 L560.8457,281.2774 L563.5607,281.6726 L566.2489,281.4892 L568.93,281.1499 L568.9329,281.2587 L571.5343,281.1009 L574.1462,281.3328 L576.7486,281.2127 L579.347,280.9453 L581.9487,280.8002 L581.9489,280.9194 L584.4554,280.7449 L586.9625,281.1239 L589.469,280.877 L591.9757,280.8876 L594.4824,280.8136 L594.4718,280.5434 L596.8753,280.7272 L599.2914,281.2365 L601.6895,281.2852 L604.0813,281.1689 L606.4819,281.2816 L606.4692,281.139 L608.7566,281.3875 L611.0215,281.3835 L613.3481,282.0736 L615.6442,282.4203 L617.8984,282.2957 L617.9338,282.5269 L620.1021,282.9313 L622.203,282.8962 L624.375,283.3249 L626.5,283.4466 L628.6829,283.9472 L628.7119,284.0701 L630.7288,284.5301 L632.7807,285.1384 L634.7217,285.2762 L636.7521,285.7935 L638.7865,286.3277 L638.8608,286.5103 L642.4753,288.024 L645.888,289.0422 L649.5351,290.6361 L653.1863,292.24 L656.755,293.6413 L656.589,293.4265 L659.7825,296.0309 L662.688,298.2627 L665.5219,300.4018 L668.5194,302.7526 L671.4122,304.9679 L671.6798,305.1503 L673.4882,308.1038 L675.9096,311.4752 L678.0897,314.6821 L680.2182,317.8538 L682.3665,321.0391 L682.4248,321.0621 L683.2067,323.0663 L683.695,324.9545 L684.5806,326.9997 L685.3487,328.9984 L686.3327,331.0825 L686.3603,331.0894 L686.9495,333.3928 L687.5599,335.7015 L687.9435,337.9532 L688.6185,340.2782 L689.2264,342.5863 L689.1734,342.5791 L689.8348,345.2319 L690.123,347.8341 L690.0758,350.3907 L690.6119,353.0266 L690.9984,355.6421 L690.7421,355.6316 L691.2468,358.5871 L691.5093,361.5328 L691.6012,364.4714 L691.2863,367.3934 L691.6,370.3412 L692.2186,370.3412 L690.6096,380.2971 L691.8669,390.253 L691.2009,400.2089 L691.7289,410.1649 L691.9204,420.1208 L692.2295,430.0767 L690.6401,440.0326 L692.234,449.9886 L691.8376,459.9445 L692.0738,469.9004 L692.5971,479.8563 L691.6073,489.8123 L691.8337,499.7682 L691.8846,509.7241 L691.863,519.68 L691.5989,529.636 L692.5476,539.5919 L690.787,549.5478 L692.3537,559.5038 L690.768,569.4597 L690.8796,579.4156 L691.6533,589.3715 L691.6377,599.3275 L690.9429,609.2834 L692.1516,619.2393 L691.7451,629.1952 L691.6,639.1512 L692.5689,639.1512 L692.4895,648.9178 L691.0023,658.6845 L691.0694,668.4512 L691.4278,678.2178 L692.074,687.9845 L692.1373,697.7512 L692.0015,707.5178 L691.144,717.2845 L692.4485,727.0512 L692.445,736.8178 L691.5369,746.5845 L691.2812,756.3512 L691.0648,766.1178 L691.3139,775.8845 L691.6,785.6512" fill="none" style="stroke:#181818;stroke-width:4;"/><polygon fill="#181818" points="691.6,791.6512,691.664,791.6796,692.2738,789.7951,693.2589,788.0773,694.1217,786.3053,694.5827,784.3546,695.6,782.6512,695.5817,782.6328,694.6995,783.3506,693.9096,784.1608,693.1839,785.0351,692.237,785.6882,691.6,786.6512,691.7305,786.7817,690.6514,785.7026,689.9534,785.0045,689.3018,784.353,688.3798,783.4309,687.6,782.6512,687.6208,782.6604,688.3903,784.4468,689.2544,786.2753,690.0728,788.0835,690.9784,789.9305,691.6,791.6512" style="stroke:#181818;stroke-width:4;"/><text fill="#000000" font-family="Chalkduster" font-size="24" lengthAdjust="spacing" textLength="96.2652" x="692.6" y="507.992">Deposit</text></g><!--link an to repo--><g class="link" data-entity-1="an" data-entity-2="repo" data-source-line="33" data-uid="lnk21" id="link_an_repo"><path d="M358.5,420.4912 L358.5716,420.5512 L355.6765,423.5728 L353.2011,426.9462 L350.589,430.2051 L347.5275,433.0872 L345.0882,436.4908 L345.0614,436.4689 L342.1743,439.7555 L339.4221,443.1524 L336.7635,446.6258 L333.782,449.8352 L331.2528,453.4144 L331.4457,453.5672 L328.2895,456.7058 L325.6964,460.2903 L323.1721,463.9293 L320.248,467.2516 L317.5342,470.7405 L317.5583,470.7589 L314.9105,474.1733 L312.3727,477.6712 L309.7818,481.1289 L307.2922,484.6634 L304.4725,487.9474 L304.7136,488.123 L303.4934,489.8043 L302.1177,491.3723 L300.9696,493.1062 L299.8322,494.8478 L298.3568,496.3432 L298.0947,496.1587 L297.4537,498.1508 L295.9495,499.5355 L295.1016,501.3819 L293.5778,502.7528 L292.608,504.5135 L292.5826,504.4968 L290.858,507.7753 L288.5391,510.6631 L286.5709,513.7815 L284.6321,516.9192 L282.4809,519.9173 L282.6415,520.0091 L280.9095,522.6603 L279.452,525.4685 L277.5505,528.0228 L276.3111,530.9558 L274.6315,533.637 L274.8548,533.7346 L273.8062,536.0189 L272.8686,538.3518 L271.4159,540.4595 L270.3407,542.7323 L269.6,545.1512 L269.3388,545.0615 L268.3467,548.7233 L267.0604,552.284 L266.2009,555.9912 L264.6126,559.4483 L263.4575,563.0541 L263.309,563.0194 L262.8468,566.1139 L261.7499,569.06 L261.1043,572.1116 L260.9003,575.2664 L259.91,578.2374 L260.1028,578.2548 L260.4946,581.1448 L260.2865,583.9806 L260.8298,586.8842 L261.2093,589.7731 L261.2075,592.6276 L261.0228,592.5277 L262.8485,595.712 L264.6137,598.8636 L266.4978,602.0795 L267.9198,605.0456 L269.6,608.1512 L269.7599,608.2803 L270.7217,609.6224 L271.9923,611.2139 L273.7138,613.1696 L274.605,614.4547 L276.1661,616.2808 L276.3324,616.4341 L277.5586,617.7809 L278.7286,619.0758 L280.0256,620.4878 L281.6162,622.1703 L282.7913,623.47 L282.7036,623.37 L285.6521,626.0238 L288.004,627.9972 L291.0342,630.7443 L293.6825,633.0558 L296.2279,635.2499 L296.2862,635.3419 L298.9789,637.005 L301.8804,638.9973 L304.5933,640.6922 L307.2273,642.2627 L309.9268,643.9365 L309.974,644.046 L312.6994,645.0912 L315.6443,646.6444 L318.3409,647.6231 L321.1396,648.8381 L323.9048,649.9755 L323.8346,649.7144 L326.7129,650.569 L329.6758,651.7382 L332.519,652.4622 L335.3193,653.0267 L338.1791,653.8126 L338.1589,653.6708 L341.0828,654.1324 L343.971,654.343 L346.9576,655.2435 L349.8954,655.8026 L352.7665,655.8933 L352.7786,656.127 L355.7659,656.3558 L358.7304,656.1407 L361.719,656.3941 L364.6917,656.3374 L367.6841,656.6635 L367.6848,656.7897 L370.7377,656.7542 L373.7915,656.8711 L376.8422,656.5045 L379.8954,656.5279 L382.9487,656.5687 L382.9552,656.7656 L386.0828,656.7178 L389.1928,656.1353 L392.3232,656.1741 L395.4539,656.2237 L398.5775,656.0545 L398.5693,655.7832 L401.7843,656.114 L404.985,655.974 L408.1821,655.7171 L411.3873,655.7275 L414.5874,655.5668 L414.5877,655.8906 L417.8688,655.4246 L421.1507,655.7005 L424.4323,655.6843 L427.7138,655.6057 L430.9953,655.5511 L430.9987,655.6136 L434.3626,655.7818 L437.7096,655.6348 L441.0795,655.9144 L444.4427,656.0678 L447.8183,656.453 L447.822,656.4812 L451.2744,656.9449 L454.7296,657.4304 L458.1544,657.684 L461.6183,658.2355 L465.0732,658.7184 L465.0613,658.6663 L468.6715,659.7831 L472.1973,660.5329 L475.6472,660.9527 L479.2291,661.9463 L482.7772,662.7927 L482.6928,662.5505 L486.4533,664.1796 L490.1341,665.5797 L493.7588,666.8187 L497.2495,667.6732 L500.9471,669.1218 L501.0314,669.31 L502.6652,669.6503 L504.6895,670.8627 L506.4517,671.4899 L508.3767,672.4804 L510.2121,673.2711 L510.2614,673.3658 L512.1865,674.4333 L513.8197,674.9392 L515.9423,676.3866 L517.7589,677.2454 L519.6,678.1512 L519.6791,678.2878 L521.7293,679.5754 L523.5267,680.4265 L525.5273,681.6284 L527.4986,682.7797 L529.4138,683.8342 L529.4601,683.9086 L531.3407,685.0333 L533.4349,686.5013 L535.0519,687.2025 L537.2549,688.8453 L539.0493,689.8315 L538.8958,689.6005 L540.806,690.8869 L542.8384,692.3572 L544.7252,693.6082 L546.4867,694.6707 L548.4975,696.1086 L548.6035,696.2589 L550.3758,697.4526 L552.3844,698.9815 L554.2196,700.2644 L555.7844,701.1637 L557.7496,702.631 L557.644,702.4891 L559.5247,703.9315 L561.4627,705.451 L563.2847,706.8145 L565.067,708.1248 L566.7965,709.3641 L566.7029,709.2443 L568.7374,710.9687 L570.5032,712.3496 L572.0833,713.4931 L573.7974,714.8078 L575.6294,716.2734 L575.5164,716.1353 L577.291,717.6098 L579.1121,719.141 L580.7761,720.4804 L582.3997,721.7705 L584.2394,723.3244 L584.3801,723.489 L585.7825,724.6009 L587.7356,726.3574 L589.3895,727.7636 L591.0492,729.1766 L592.6174,730.4825 L592.8219,730.7126 L594.1723,731.847 L595.7836,733.275 L597.6529,734.9934 L598.951,736.0689 L600.7546,737.7134 L600.6842,737.6369 L602.3669,739.2049 L603.9303,740.6434 L605.3792,741.9576 L607.0517,743.5145 L608.6421,744.9823 L608.8705,745.2219 L610.3668,746.6455 L611.5108,747.6995 L613.2435,749.3711 L614.5876,750.6351 L616.2709,752.2549 L616.2627,752.2466 L617.8345,753.7961 L619.3463,755.2846 L620.4805,756.3893 L622.2847,758.1752 L623.6321,759.4966 L623.6348,759.4992 L626.2321,762.1749 L629.0357,765.0515 L632.0664,768.1494 L634.8188,770.9761 L637.516,773.7492 L637.5107,773.7442 L639.8382,776.2891 L642.8131,779.4339 L645.0382,781.8838 L647.5089,784.5615 L650.2223,787.4639" fill="none" style="stroke:#181818;stroke-width:4;"/><polygon fill="#181818" points="654.25,791.9112,654.3165,791.933,653.5035,789.9968,653.0805,788.1889,652.5306,786.3392,651.5628,784.3521,651.1734,782.5552,651.1475,782.5539,650.9754,783.6781,650.9338,784.8088,650.9828,785.944,650.7194,787.0637,650.8936,788.2051,650.9027,788.3894,649.7532,787.9393,648.6304,788.0274,647.5108,788.1811,646.3723,787.9528,645.2437,787.9254,645.2529,787.9462,647.0406,788.7128,648.8703,789.5741,650.6797,790.3897,652.5277,791.2925,654.25,791.9112" style="stroke:#181818;stroke-width:4;"/><text fill="#000000" font-family="Chalkduster" font-size="24" lengthAdjust="spacing" textLength="123.421" x="312.8983" y="569.992">Publish /</text><text fill="#000000" font-family="Chalkduster" font-size="24" lengthAdjust="spacing" textLength="208.0177" x="270.6" y="600.6219">Archive Results</text></g><!--link an to comp--><g class="link" data-entity-1="an" data-entity-2="comp" data-source-line="34" data-uid="lnk22" id="link_an_comp"><path d="M363.15,420.4512 L363.2131,420.52 L361.5339,421.6835 L360.2247,423.2507 L358.7951,424.6864 L356.9691,425.6899 L355.6917,427.2916 L355.6701,427.2647 L353.9845,428.4179 L352.4079,429.707 L350.907,431.0905 L349.1451,432.1486 L347.7487,433.6624 L347.887,433.866 L345.9154,434.5687 L344.3474,435.8658 L342.8287,437.2353 L341.0234,438.183 L339.3689,439.3526 L339.3835,439.3792 L337.6083,440.2998 L335.8994,441.3416 L334.1586,442.325 L332.4787,443.4198 L330.6,444.1512 L330.7034,444.4309 L328.3247,445.3146 L325.8791,446.0179 L323.5313,446.9853 L321.188,447.965 L318.6997,448.5526 L318.6506,448.2358 L316.6205,449.1802 L314.4288,449.0816 L312.3599,449.7759 L310.1645,449.6537 L308.0728,450.2007 L308.0706,450.1703 L304.2607,450.2493 L300.3991,449.6188 L296.568,449.4069 L292.7395,449.2302 L288.8925,448.7999 L288.9089,448.9842 L285.027,448.4532 L281.1732,448.237 L277.2739,447.5114 L273.4425,447.5457 L269.5659,447.0748 L269.5937,447.3168 L267.4265,447.5196 L265.2731,447.8425 L263.0556,447.607 L260.885,447.7809 L258.7562,448.3174 L258.6731,448.054 L256.3171,449.0592 L253.8674,449.7676 L251.5536,450.9065 L249.0079,451.3104 L246.6,452.1512 L246.5394,452.0113 L243.7253,453.5073 L240.6521,454.4053 L237.7632,455.7285 L235.0546,457.4679 L232.0249,458.4663 L232.107,458.6416 L229.3241,460.0916 L226.2857,460.9961 L223.5672,462.5837 L220.7791,464.0225 L217.8285,465.1145 L217.7328,464.9276 L215.073,466.4782 L212.3818,467.9676 L209.7522,469.5772 L206.8832,470.7193 L204.1479,472.1226 L204.2494,472.3014 L201.4209,473.3875 L198.7882,474.8187 L196.4417,476.754 L193.5684,477.7612 L191.1201,479.5173 L191.2418,479.708 L188.722,481.1563 L186.1609,482.5401 L183.6929,484.0695 L181.4395,485.9356 L178.8823,487.3253 L178.8039,487.2178 L176.7751,489.1875 L174.2132,490.4261 L172.2574,492.496 L169.9604,494.0978 L167.5714,495.5735 L167.6419,495.6565 L165.5356,497.3325 L163.6819,499.3056 L161.5999,501.0103 L159.4226,502.6029 L157.3245,504.2886 L157.4095,504.3722 L155.474,506.0898 L153.9334,508.1953 L151.9461,509.8621 L150.1426,511.7094 L148.2787,513.4974 L148.0668,513.3295 L146.596,515.3314 L145.3806,517.5356 L143.8039,519.4535 L142.0977,521.2689 L140.5711,523.2266 L140.4487,523.1524 L139.2415,525.2314 L137.8174,527.179 L136.9893,529.488 L135.8663,531.6182 L134.3388,533.503 L134.554,533.5947 L133.6989,535.7941 L132.4348,537.8194 L131.6024,540.0284 L130.4842,542.1158 L129.7187,544.3534 L129.8411,544.3841 L129.2509,546.6703 L128.8085,548.9935 L127.8972,551.1992 L127.3642,553.4997 L126.848,555.8044 L127.0444,555.8205 L126.9024,558.2406 L126.2272,560.6174 L126.1715,563.0446 L126.1266,565.4727 L125.8637,567.883 L125.5931,567.8609 L126.228,570.4423 L126.3936,572.9854 L126.4425,575.519 L126.758,578.0744 L126.9029,580.6158 L127.2179,580.6909 L127.4075,583.2663 L128.3189,586.0138 L128.9462,588.6935 L129.5127,591.3588 L130.1026,594.0296 L130.161,594.0523 L131.2491,596.8722 L132.0431,599.5776 L133.235,602.4379 L134.3094,605.2524 L135.6,608.1512 L135.6254,608.1638 L137.1387,611.1759 L138.6717,614.1978 L139.9955,617.1151 L141.588,620.1668 L143.1186,623.1875 L143.0723,623.1608 L145.0161,626.2219 L146.6336,629.0949 L147.9577,631.7989 L149.792,634.7969 L151.4954,637.7194 L151.2806,637.5792 L153.4339,640.5952 L155.3843,643.4786 L157.1917,646.2687 L158.6581,648.8363 L160.6514,651.7478 L160.818,651.8692 L162.3558,654.2585 L164.6657,657.2104 L166.4575,659.7848 L168.5709,662.5936 L170.5074,665.2733 L170.5906,665.3403 L172.7663,668.0096 L174.4489,670.2822 L176.9582,673.2199 L178.9506,675.7418 L180.9843,678.2968 L181.1029,678.4012 L183.4376,681.0208 L185.3937,683.3073 L187.6541,685.8616 L189.8706,688.3773 L192.0031,690.819 L192.0665,690.8796 L194.2992,693.2231 L196.8242,695.8459 L198.6961,697.8449 L201.3701,700.6099 L203.4847,702.8407 L203.2915,702.6418 L205.6904,704.9728 L208.2432,707.4623 L210.6126,709.7629 L212.8243,711.9011 L215.3499,714.3627 L215.4733,714.4989 L217.8163,716.6031 L220.4346,719.0112 L222.8508,721.1962 L224.952,723.0334 L227.5197,725.3856 L227.4052,725.2508 L229.9616,727.4468 L232.5801,729.7159 L235.0728,731.837 L237.5225,733.9074 L239.915,735.9103 L239.8201,735.7916 L242.5999,738.1367 L245.1075,740.1413 L247.4268,741.9103 L249.8819,743.8492 L252.4566,745.9376 L252.349,745.7953 L254.9209,747.7676 L257.537,749.7986 L260.0036,751.6317 L262.4318,753.414 L265.0656,755.4682 L265.1918,755.6442 L267.4661,757.1094 L270.2345,759.2635 L272.7345,761.0433 L275.2396,762.8303 L277.6627,764.5029 L277.8362,764.7571 L280.1023,766.1206 L282.5898,767.8084 L285.2965,769.8171 L287.5181,771.1154 L290.1689,773.0424 L290.1121,772.9553 L292.6642,774.6945 L295.1201,776.2861 L297.4836,777.7361 L300.0275,779.4626 L302.5052,781.0876 L302.6805,781.3683 L305.0753,782.8423 L307.1996,783.8835 L309.776,785.6481 L312.0539,786.9351 L314.5923,788.6391" fill="none" style="stroke:#181818;stroke-width:4;"/><polygon fill="#181818" points="319.71,791.7712,319.7677,791.8109,318.4786,790.0708,317.5276,788.5638,316.4666,786.9809,315.0434,785.1484,314.1215,783.6614,314.0963,783.6553,314.248,784.7281,314.5267,785.8314,314.8937,786.9559,314.9565,788.0073,315.4453,789.1611,315.4885,789.3406,314.2961,789.2216,313.2299,789.6266,312.1791,790.0954,311.0387,790.1924,309.9455,790.4849,309.9485,790.5075,311.897,790.7316,313.8591,791.0584,315.8146,791.3357,317.7826,791.7075,319.71,791.7712" style="stroke:#181818;stroke-width:4;"/><text fill="#000000" font-family="Chalkduster" font-size="24" lengthAdjust="spacing" textLength="51.5271" x="156.9934" y="569.992">Use,</text><text fill="#000000" font-family="Chalkduster" font-size="24" lengthAdjust="spacing" textLength="92.3138" x="136.6" y="600.6219">extend</text></g><!--reverse link cur to comp--><g class="link" data-entity-1="cur" data-entity-2="comp" data-source-line="35" data-uid="lnk23" id="link_cur_comp"><path d="M322.4741,253.8937 L322.5239,253.9728 L324.8013,255.2633 L327.3702,257.0174 L329.8442,258.6205 L332.006,259.7273 L334.6,261.5212 L334.5838,261.4907 L337.4488,262.915 L340.3955,264.4932 L343.399,266.1782 L346.2068,267.4949 L349.2887,269.3275 L349.3854,269.5537 L352.1595,270.3439 L355.2158,271.7947 L358.3067,273.326 L361.1971,274.3884 L364.1929,275.6975 L364.2029,275.7261 L367.18,276.7266 L370.2026,277.8575 L373.2033,278.9255 L376.2458,280.1135 L379.152,280.9102 L379.2356,281.1965 L382.2073,282.0669 L385.1252,282.7527 L388.1219,283.7087 L391.1223,284.6775 L394.0056,285.2448 L393.9261,284.9342 L396.9979,286.284 L399.808,286.6113 L402.817,287.7158 L405.6211,288.02 L408.5932,288.9802 L408.5861,288.9506 L411.5027,289.9837 L414.2526,290.3253 L417.1008,291.0749 L419.9574,291.8588 L422.7543,292.3956 L422.7989,292.5751 L425.4687,293.0687 L428.2147,293.8692 L430.8374,294.1733 L433.644,295.2177 L436.3284,295.7699 L436.3944,296.0045 L438.9473,296.6826 L441.5329,297.4772 L443.9661,297.7308 L446.5111,298.3809 L449.155,299.3824 L449.0646,299.1215 L451.5301,300.1836 L453.8938,300.9517 L456.4053,302.1463 L458.6645,302.6127 L461.0736,303.512 L461.0106,303.3732 L463.2856,304.5896 L465.2912,305.2125 L467.4884,306.2574 L469.873,307.7153 L471.9238,308.4379 L472.0263,308.6022 L474.0208,309.9151 L475.6966,310.717 L477.7716,312.1589 L479.7597,313.4614 L481.5451,314.439 L481.4052,314.2824 L483.163,315.8783 L484.8751,317.4229 L486.6771,319.0683 L488.1293,320.322 L489.7769,321.7944 L489.9419,321.9171 L490.9157,323.4454 L492.208,325.2104 L493.9656,327.3213 L494.8666,328.7955 L496.4587,330.7833 L496.6646,330.8772 L497.5366,333.0017 L498.339,335.0945 L499.2986,337.2589 L500.6214,339.589 L501.4302,341.6847 L501.3008,341.654 L502.3063,344.3639 L502.4314,346.8653 L503.5576,349.6037 L504.1201,352.2086 L504.5308,354.7776 L504.6394,354.7851 L504.7656,357.8918 L505.2807,361.0252 L505.4444,364.1344 L505.4612,367.2336 L505.6,370.3412 L505.9576,370.3412 L505.4263,380.2971 L506.5553,390.253 L505.8065,400.2089 L505.8301,410.1649 L504.7889,420.1208 L505.0597,430.0767 L506.3077,440.0326 L506.173,449.9886 L505.5427,459.9445 L505.1704,469.9004 L505.3081,479.8563 L504.6851,489.8123 L506.153,499.7682 L506.5861,509.7241 L506.3018,519.68 L506.5266,529.636 L505.4177,539.5919 L505.7163,549.5478 L505.0832,559.5038 L505.9787,569.4597 L505.929,579.4156 L506.3365,589.3715 L505.2938,599.3275 L505.4208,609.2834 L506.1913,619.2393 L506.3564,629.1952 L505.6,639.1512 L505.3723,639.1428 L505.4349,641.3002 L505.5083,643.4579 L505.0916,645.5977 L505.4409,647.7656 L505.2049,649.912 L505.3189,649.9242 L504.9312,652.0534 L504.8094,654.2111 L504.8394,656.385 L504.1499,658.482 L504.059,660.643 L504.197,660.6668 L503.8165,662.7991 L503.3745,664.9209 L503.018,667.0573 L502.6384,669.1898 L502.2211,671.3158 L501.951,671.2528 L501.5534,673.3926 L501.033,675.5037 L500.7661,677.674 L500.2825,679.7937 L499.7501,681.9021 L499.8192,681.9222 L499.0169,683.9602 L498.5033,686.0822 L497.8718,688.17 L497.5602,690.3507 L496.705,692.3734 L496.8843,692.4352 L495.7889,694.3687 L495.2502,696.494 L494.3263,698.4866 L493.9779,700.6775 L493.1447,702.7014 L493.3961,702.8008 L492.5664,704.8216 L491.3579,706.6926 L490.9264,708.8709 L489.6243,710.7049 L489.1279,712.8576 L489.2092,712.8936 L488.1235,714.7949 L487.4015,716.8574 L486.5771,718.8745 L485.7884,720.9075 L484.7137,722.8137 L484.4263,722.6732 L483.9531,724.8519 L482.8838,726.7395 L482.004,728.7195 L481.2102,730.7416 L479.961,732.5412 L479.9631,732.5424 L479.0233,734.4719 L478.0318,736.374 L477.019,738.2648 L475.9348,740.1176 L474.9286,742.0119 L475.2028,742.1687 L473.6427,743.7144 L473.0454,745.8108 L471.536,747.3854 L470.5176,749.241 L469.6755,751.1973 L469.6906,751.2065 L468.6032,752.9782 L467.3225,754.6318 L466.5834,756.6161 L465.3848,758.3198 L464.2605,760.069 L464.5316,760.2444 L463.4058,761.9359 L461.886,763.3726 L460.8012,765.0907 L459.7979,766.8615 L458.7425,768.5986 L458.8731,768.6876 L457.7781,770.3313 L456.6283,771.9377 L455.2797,773.4085 L454.5266,775.2852 L453.1805,776.7578 L453.408,776.9239 L450.9594,779.7641 L448.6865,782.7325 L446.4241,785.7086 L444.2871,788.7762 L442.16,791.8512" fill="none" style="stroke:#181818;stroke-width:4;"/><polygon fill="#181818" points="317.56,250.4512,317.62,250.4873,318.4569,252.068,319.6457,253.8603,320.7199,255.5838,321.4172,257.0805,322.6362,258.8911,322.6107,258.8866,322.3,257.7522,322.1179,256.6404,322.0252,255.5445,321.6244,254.3942,321.6551,253.3199,321.6871,253.5017,322.7329,252.9168,323.8721,252.8626,325.0228,252.8731,326.1071,252.5069,327.2262,252.3389,327.2306,252.3612,325.291,251.9509,323.3711,251.6422,321.4418,251.2845,319.5307,251.0203,317.56,250.4512" style="stroke:#181818;stroke-width:4;"/><text fill="#000000" font-family="Chalkduster" font-size="24" lengthAdjust="spacing" textLength="114.0332" x="506.6" y="507.992">Preserve</text></g><!--SRC=[NP5FImGn3CNl_HHnJmhE21wNPS4_5s-YY1T1CfquM-oqGvFkkeZVtRJhYElqC92yttj9U-A2zRcdrn737jhseaV1ncFNiEmzjV8XvkH8CyQUV8DMtDQ98swdF7fZn8cd9Lpzri45k0jl2LbIjf8JmKqCGXy2fvTdfdo9h60OFC7YKMB2WMRY02m0YysHn-SHTcKjCGE67Z3BXe8uY-9Y0AQqTTfS50BALXro8PBTk2rwUA0fijDOLqGQbBG0grMQw_lrkh9V0A2_FnxFCRtpXFO7j76S5DpDrSf1eGviY4BGHP4uGdohSdCJlTSrT5866c17dMOIcsBjmb33pBNhl8j3mccZGohJaxabVfSuLPSiTLVJjgqXlO8IPBxqcBfBq-IfQTOgzHwMkd1cCZOdRVHn5xHJPKkuFQniCC2_pdtM2NW35o_XS76aDfozS17FHZL3xs09JqpdBq7VMCUfKQjPCYlk4vMdeMy0]--></g></svg>