<svg xmlns="http://www.w3.org/2000/svg" xmlns:xlink="http://www.w3.org/1999/xlink" contentStyleType="text/css" data-diagram-type="DESCRIPTION" height="701px" preserveAspectRatio="none" style="width:859px;height:701px;background:#FFFFFF;" version="1.1" viewBox="0 0 859 701" width="859px" zoomAndPan="magnify"><title>An idealised  view of</title><defs/><g><text fill="#000000" font-family="Chalkduster" font-size="42" font-weight="bold" lengthAdjust="spacing" textLength="521.6354" x="164.9591" y="51.7215">An idealised  view of</text><text fill="#000000" font-family="Chalkduster" font-size="42" font-weight="bold" lengthAdjust="spacing" textLength="641.3701" x="105.0917" y="105.3238">a research data cycle with</text><text fill="#000000" font-family="Chalkduster" font-size="42" font-weight="bold" lengthAdjust="spacing" textLength="831.5535" x="10" y="158.926">Archival Repository Infrastructure</text><!--cluster activities--><g class="cluster" data-entity="activities" data-source-line="7" data-uid="ent0002" id="cluster_activities"><polygon fill="#FFC7D8" points="68.5394,191.0956,68.5394,191.3058,78.468,190.6813,88.3966,191.2889,98.3251,191.4953,108.2537,190.3822,118.1823,191.0179,128.1109,190.6691,138.0394,190.7121,147.968,191.0274,157.8966,190.4042,167.8251,191.6492,177.7537,190.4653,187.6823,190.8978,197.6109,191.5275,207.5394,191.0098,217.468,191.1638,227.3966,191.0636,237.3251,191.2741,247.2537,191.3347,257.1823,191.6813,267.1109,191.7666,277.0394,191.7748,286.968,191.3502,296.8966,191.5592,306.8251,191.7978,316.7537,190.3744,326.6823,191.7741,336.6109,190.7991,346.5394,191.6294,356.468,190.6006,366.3966,191.0271,376.3251,191.8372,386.2537,191.0468,396.1823,191.2009,406.1109,191.4342,416.0394,191.5118,425.968,191.0917,435.8966,191.3828,445.8251,190.5232,455.7537,191.38,465.6823,191.6438,475.6109,191.5401,485.5394,191.7086,495.468,190.6125,505.3966,190.4434,515.3251,190.4742,525.2537,191.0367,535.1823,190.8991,545.1109,191.777,555.0394,190.9209,564.968,190.7525,574.8966,191.3239,584.8251,190.4287,594.7537,190.5765,604.6823,191.7445,614.6109,191.5313,624.5394,191.0956,624.6331,191.3218,624.8519,191.1429,625.2872,191.4868,625.6754,191.7167,625.8934,191.5359,626.3072,191.8278,626.2777,191.8156,626.4924,192.1974,626.8008,192.6181,626.7452,192.8879,627.0354,193.301,627.0394,193.5956,626.4856,193.5956,626.3622,203.5173,627.543,213.439,626.3225,223.3607,627.5484,233.2824,627.2461,243.2042,626.7715,253.1259,626.6857,263.0476,627.4982,272.9693,626.7401,282.891,627.6313,292.8127,626.4867,302.7344,627.6568,312.6562,627.5237,322.5779,627.2844,332.4996,627.0866,342.4213,627.766,352.343,627.653,362.2647,627.2087,372.1864,627.3076,382.1082,626.9092,392.0299,627.7559,401.9516,627.1943,411.8733,627.212,421.795,626.4311,431.7167,626.6342,441.6384,627.5702,451.5602,627.4692,461.4819,626.9965,471.4036,626.7173,481.3253,626.8205,491.247,626.3532,501.1687,627.4542,511.0904,627.779,521.0122,627.5658,530.9339,627.0394,540.8556,627.2534,540.9442,626.8509,541.1917,626.7734,541.5738,626.4807,541.8668,626.5411,542.306,626.3072,542.6233,626.3387,542.6993,626.0241,542.9399,625.5708,542.8455,625.2294,543.0213,624.9495,543.3457,624.5394,543.3556,624.5394,543.9229,614.6109,542.8431,604.6823,543.1617,594.7537,543.5048,584.8251,542.7447,574.8966,543.709,564.968,543.6136,555.0394,543.2548,545.1109,543.4978,535.1823,544.0843,525.2537,543.0427,515.3251,543.6706,505.3966,543.6412,495.468,543.4714,485.5394,543.4965,475.6109,543.4691,465.6823,542.7314,455.7537,542.9548,445.8251,542.894,435.8966,543.4194,425.968,543.4437,416.0394,543.5173,406.1109,543.0646,396.1823,543.2881,386.2537,543.2354,376.3251,543.9324,366.3966,543.7821,356.468,542.87,346.5394,543.2827,336.6109,542.7784,326.6823,543.644,316.7537,543.9641,306.8251,543.9001,296.8966,542.92,286.968,543.8196,277.0394,542.6128,267.1109,543.5557,257.1823,543.0563,247.2537,543.4523,237.3251,543.5959,227.3966,543.8277,217.468,542.6357,207.5394,543.8311,197.6109,543.5338,187.6823,543.7109,177.7537,544.1034,167.8251,543.3611,157.8966,543.5309,147.968,543.569,138.0394,543.5528,128.1109,543.3548,118.1823,544.0663,108.2537,542.7458,98.3251,543.9209,88.3966,542.7316,78.468,542.8153,68.5394,543.3556,68.5445,543.3679,68.1895,543.2178,67.7695,542.9109,67.5315,543.0437,67.1391,542.8033,66.7717,542.6233,66.9954,542.716,66.8307,542.3549,66.3407,541.8591,66.2098,541.5119,66.1461,541.1927,66.0394,540.8556,66.3949,540.8556,66.4424,530.9339,66.3406,521.0122,65.6975,511.0904,66.6758,501.1687,66.6732,491.247,65.9921,481.3253,65.8004,471.4036,65.638,461.4819,65.8248,451.5602,66.1768,441.6384,65.971,431.7167,65.6216,421.795,66.5268,411.8733,65.5805,401.9516,66.5418,392.0299,66.4667,382.1082,66.4113,372.1864,66.7319,362.2647,65.7935,352.343,65.7388,342.4213,66.5583,332.4996,65.4425,322.5779,65.8054,312.6562,66.1549,302.7344,66.1081,292.8127,65.681,282.891,65.9964,272.9693,66.784,263.0476,66.6879,253.1259,65.4431,243.2042,66.1179,233.2824,65.5255,223.3607,66.0131,213.439,66.3324,203.5173,66.0394,193.5956,66.1687,193.6491,65.9812,193.1572,66.4557,192.9396,66.4814,192.536,66.4542,192.1105,66.7717,191.8278,66.7116,191.6828,67.1669,191.7819,67.5106,191.6119,67.8302,191.3834,68.1001,191.035,68.5394,191.0956" style="stroke:#181818;stroke-width:4;"/><text fill="#000000" font-family="Chalkduster" font-size="24" font-style="italic" lengthAdjust="spacing" textLength="174.126" x="259.4764" y="216.9365">&#171;workspace&#187;</text><text fill="#000000" font-family="Chalkduster" font-size="24" font-weight="bold" lengthAdjust="spacing" textLength="545.1314" x="73.9737" y="247.5663">Research &amp; Data Management Activities</text></g><!--entity coll--><g class="entity" data-entity="coll" data-source-line="9" data-uid="ent0003" id="entity_coll"><polygon fill="none" points="439.0854,285.0415,437.9127,286.6438,436.5257,288.9906,434.542,290.5722,432.4575,291.4371,430.7954,291.5122,428.6591,290.4305,426.6435,289.7239,425.1136,288.2892,424.3111,286.6467,423.8351,285.3389,423.3689,283.6306,422.6121,282.1607,423.1936,280.7254,423.7032,279.1532,425.6152,277.9097,426.9604,276.2964,428.6255,275.7606,430.6049,275.2993,433.1433,275.5734,434.5336,276.2291,436.1501,276.5263,438.1155,278.5399,438.8007,280.6657,439.0983,282.1162,438.7612,284.5064" style="stroke:#8B0000;stroke-width:4;"/><path d="M431.0412,291.0956 L431.228,291.0956 L430.6729,296.4956 L431.213,301.8956 L431.3965,307.2956 L430.4071,312.6956 L431.0412,318.0956 M418.0412,299.0956 L418.0412,299.0265 L423.2412,298.7165 L428.4412,298.7547 L433.6412,299.035 L438.8412,298.481 L444.0412,299.0956 M431.0412,318.0956 L431.4131,318.4179 L428.0178,320.7287 L425.7083,323.9805 L423.5313,327.347 L420.5836,330.0456 L418.0412,333.0956 M431.0412,318.0956 L431.087,318.1353 L433.6197,321.077 L436.3611,324.1995 L439.0018,327.2348 L441.8346,330.4365 L444.0412,333.0956" fill="none" style="stroke:#8B0000;stroke-width:4;"/><text fill="#000000" font-family="Chalkduster" font-size="24" lengthAdjust="spacing" textLength="100.1635" x="380.9594" y="361.9365">Collect</text></g><!--entity cur--><g class="entity" data-entity="cur" data-source-line="10" data-uid="ent0004" id="entity_cur"><polygon fill="none" points="308.0875,285.0415,306.9149,286.6438,305.5279,288.9906,303.5442,290.5722,301.4596,291.4371,299.7975,291.5122,297.6613,290.4305,295.6456,289.7239,294.1157,288.2892,293.3132,286.6467,292.8373,285.3389,292.371,283.6306,291.6142,282.1607,292.1958,280.7254,292.7053,279.1532,294.6174,277.9097,295.9626,276.2964,297.6276,275.7606,299.6071,275.2993,302.1455,275.5734,303.5358,276.2291,305.1522,276.5263,307.1177,278.5399,307.8028,280.6657,308.1005,282.1162,307.7633,284.5064" style="stroke:#8B0000;stroke-width:4;"/><path d="M300.0433,291.0956 L300.2302,291.0956 L299.6751,296.4956 L300.2152,301.8956 L300.3986,307.2956 L299.4092,312.6956 L300.0433,318.0956 M287.0433,299.0956 L287.0433,299.0265 L292.2433,298.7165 L297.4433,298.7547 L302.6433,299.035 L307.8433,298.481 L313.0433,299.0956 M300.0433,318.0956 L300.4152,318.4179 L297.02,320.7287 L294.7105,323.9805 L292.5335,327.347 L289.5857,330.0456 L287.0433,333.0956 M300.0433,318.0956 L300.0892,318.1353 L302.6219,321.077 L305.3633,324.1995 L308.004,327.2348 L310.8368,330.4365 L313.0433,333.0956" fill="none" style="stroke:#8B0000;stroke-width:4;"/><text fill="#000000" font-family="Chalkduster" font-size="24" lengthAdjust="spacing" textLength="90.9878" x="254.5494" y="361.9365">Curate</text></g><!--entity int--><g class="entity" data-entity="int" data-source-line="11" data-uid="ent0005" id="entity_int"><polygon fill="none" points="285.0849,443.6715,283.9123,445.2738,282.5253,447.6206,280.5416,449.2022,278.457,450.0671,276.7949,450.1422,274.6587,449.0605,272.643,448.3539,271.1131,446.9192,270.3106,445.2767,269.8347,443.9689,269.3684,442.2606,268.6116,440.7907,269.1932,439.3554,269.7027,437.7832,271.6148,436.5397,272.96,434.9264,274.625,434.3906,276.6045,433.9293,279.1429,434.2034,280.5332,434.8591,282.1496,435.1563,284.1151,437.1699,284.8002,439.2957,285.0979,440.7462,284.7607,443.1364" style="stroke:#8B0000;stroke-width:4;"/><path d="M277.0407,449.7256 L277.2276,449.7256 L276.6725,455.1256 L277.2126,460.5256 L277.396,465.9256 L276.4066,471.3256 L277.0407,476.7256 M264.0407,457.7256 L264.0407,457.6565 L269.2407,457.3465 L274.4407,457.3847 L279.6407,457.665 L284.8407,457.111 L290.0407,457.7256 M277.0407,476.7256 L277.4126,477.0479 L274.0174,479.3587 L271.7079,482.6105 L269.5309,485.977 L266.5831,488.6756 L264.0407,491.7256 M277.0407,476.7256 L277.0866,476.7653 L279.6193,479.707 L282.3607,482.8295 L285.0014,485.8648 L287.8342,489.0665 L290.0407,491.7256" fill="none" style="stroke:#8B0000;stroke-width:4;"/><text fill="#000000" font-family="Chalkduster" font-size="24" lengthAdjust="spacing" textLength="129.1227" x="212.4794" y="520.5665">Integrate</text></g><!--entity an--><g class="entity" data-entity="an" data-source-line="12" data-uid="ent0006" id="entity_an"><polygon fill="none" points="437.0826,443.6715,435.9099,445.2738,434.5229,447.6206,432.5392,449.2022,430.4547,450.0671,428.7926,450.1422,426.6563,449.0605,424.6407,448.3539,423.1108,446.9192,422.3082,445.2767,421.8323,443.9689,421.3661,442.2606,420.6093,440.7907,421.1908,439.3554,421.7003,437.7832,423.6124,436.5397,424.9576,434.9264,426.6227,434.3906,428.6021,433.9293,431.1405,434.2034,432.5308,434.8591,434.1473,435.1563,436.1127,437.1699,436.7978,439.2957,437.0955,440.7462,436.7583,443.1364" style="stroke:#8B0000;stroke-width:4;"/><path d="M429.0384,449.7256 L429.2252,449.7256 L428.6701,455.1256 L429.2102,460.5256 L429.3936,465.9256 L428.4042,471.3256 L429.0384,476.7256 M416.0384,457.7256 L416.0384,457.6565 L421.2384,457.3465 L426.4384,457.3847 L431.6384,457.665 L436.8384,457.111 L442.0384,457.7256 M429.0384,476.7256 L429.4103,477.0479 L426.015,479.3587 L423.7055,482.6105 L421.5285,485.977 L418.5808,488.6756 L416.0384,491.7256 M429.0384,476.7256 L429.0842,476.7653 L431.6169,479.707 L434.3583,482.8295 L436.999,485.8648 L439.8318,489.0665 L442.0384,491.7256" fill="none" style="stroke:#8B0000;stroke-width:4;"/><text fill="#000000" font-family="Chalkduster" font-size="24" lengthAdjust="spacing" textLength="104.7779" x="376.6494" y="520.5665">Analyse</text></g><!--entity repo--><g class="entity" data-entity="repo" data-source-line="15" data-uid="ent0011" id="entity_repo"><path d="M480.5594,604.0456 L480.5594,604.0456 L480.601,604.1292 L481.805,603.2205 L483.2528,602.8022 L484.6211,602.2242 L485.7284,601.1211 L487.1971,600.7448 L487.1923,600.7106 L490.6704,600.061 L494.173,599.5839 L497.6925,599.2265 L501.1535,598.4562 L504.6965,598.2643 L504.7168,598.5096 L507.0116,597.7913 L509.3658,597.789 L511.7272,597.8741 L514.0465,597.4509 L516.3879,597.2951 L516.3898,597.3254 L518.9969,597.1193 L521.6125,597.051 L524.2239,596.9163 L526.8433,596.9084 L529.437,596.487 L529.4511,596.7849 L532.2422,596.6562 L535.0241,596.3354 L537.8193,596.2958 L540.6152,596.2694 L543.3913,595.8254 L543.3795,595.5051 L546.2837,596.0208 L549.1492,595.4818 L552.0441,595.7446 L554.9086,595.1817 L557.7981,595.2956 L557.7973,595.2651 L563.4787,595.4805 L569.142,594.9849 L574.8159,594.9088 L580.4908,594.8679 L586.1592,594.5729 L586.1619,594.7579 L591.1072,594.497 L596.0573,594.5521 L600.9997,594.0959 L605.9535,594.4024 L610.8997,594.2018 L610.9013,594.4455 L615.7284,594.3681 L620.5563,594.4118 L625.3805,593.8934 L630.2075,593.787 L635.0368,594.0456 L635.0368,594.0456 L635.035,593.7694 L639.864,594.0507 L644.691,594.0207 L649.521,594.4422 L654.3459,594.093 L659.1738,594.2018 L659.1716,594.0494 L664.1235,594.3775 L669.0656,594.0539 L674.0147,594.1938 L678.9706,594.7871 L683.9144,594.5729 L683.9193,594.7665 L689.5949,595.0438 L695.2551,594.719 L700.9346,595.1483 L706.6099,595.4134 L712.2754,595.2956 L712.2677,595.0858 L715.1552,595.359 L718.0402,595.5635 L720.9302,595.9029 L723.8008,595.7175 L726.6823,595.8254 L726.692,596.0307 L729.4615,595.7118 L732.2497,595.7894 L735.0654,596.4459 L737.8306,596.0364 L740.6365,596.487 L740.6505,596.7128 L743.252,596.7403 L745.8488,596.6914 L748.4563,596.8149 L751.0884,597.337 L753.6856,597.2951 L753.6746,597.1625 L756.0456,597.7511 L758.3419,597.438 L760.7231,598.1501 L763.0565,598.285 L765.377,598.2643 L765.3923,598.3721 L768.8798,598.7812 L772.4221,599.5763 L775.9149,600.0226 L779.3871,600.3232 L782.8764,600.7448 L782.9295,600.8515 L784.1782,601.3531 L785.6733,602.3502 L786.8897,602.7869 L788.2207,603.4541 L789.5141,604.0456 L787.8918,604.0456 L788.4335,614.0827 L790.9294,624.1198 L790.6601,634.1569 L789.3996,644.194 L788.655,654.2311 L788.9303,664.2682 L789.5141,674.3052 L789.5141,674.3052 L789.3783,674.0322 L788.2686,675.1305 L787.0054,675.9199 L785.6357,676.4952 L784.3415,677.2224 L782.8764,677.606 L782.8679,677.5459 L779.382,678.1405 L775.8525,678.4277 L772.3945,679.2193 L768.8923,679.699 L765.377,680.0865 L765.3973,680.3312 L763.0303,680.1786 L760.6955,680.4147 L758.3785,680.8645 L756.0447,681.1132 L753.6856,681.0557 L753.6715,680.8284 L751.0705,681.1314 L748.4701,681.4452 L745.8394,681.2696 L743.256,681.859 L740.6365,681.8638 L740.6419,681.9784 L737.8435,681.9514 L735.0578,682.1916 L732.2793,682.5843 L729.4665,682.2542 L726.6823,682.5255 L726.6874,682.6654 L723.8056,682.7583 L720.9214,682.7888 L718.0405,682.9059 L715.1587,682.9997 L712.2754,683.0552 L712.2684,682.7779 L706.5987,683.0217 L700.9258,683.1393 L695.2595,683.5172 L689.5876,683.6725 L683.9144,683.7779 L683.9154,683.8498 L678.9643,683.7228 L674.0177,683.8963 L669.0693,683.9471 L664.1258,684.3311 L659.1738,684.149 L659.1751,684.3386 L654.345,683.9645 L649.5188,684.1791 L644.6899,683.9862 L639.865,684.4022 L635.0368,684.3052 L635.0368,684.3052 L635.0385,684.5757 L630.2109,684.516 L625.3807,684.0492 L620.5558,684.4177 L615.725,683.8501 L610.8997,684.149 L610.901,684.2379 L605.9496,683.9418 L601.0041,684.0435 L596.057,684.0331 L591.1104,684.0619 L586.1592,683.7779 L586.151,683.458 L580.4923,683.8446 L574.8168,683.568 L569.1465,683.5022 L563.4788,683.532 L557.7981,683.0552 L557.7982,683.0577 L554.9196,683.0271 L552.0389,682.9381 L549.1572,682.825 L546.2726,682.6311 L543.3913,682.5255 L543.4062,682.841 L540.5876,682.1224 L537.8215,682.5118 L535.0056,681.8515 L532.2165,681.7563 L529.437,681.8638 L529.4381,681.8816 L526.828,681.7148 L524.2038,681.322 L521.6189,681.5625 L519.0007,681.2656 L516.3879,681.0557 L516.4146,681.3776 L514.0741,681.1574 L511.6949,680.4695 L509.3585,680.2979 L507.03,680.2231 L504.6965,680.0865 L504.7187,680.2429 L501.2218,679.7677 L497.7155,679.2268 L494.1755,678.4477 L490.7367,678.3821 L487.1971,677.606 L487.3225,677.8582 L485.8602,676.9271 L484.4947,676.1906 L483.1351,675.4658 L481.8445,674.88 L480.5594,674.3052 L480.9259,674.3052 L480.377,664.2682 L479.4453,654.2311 L481.8591,644.194 L479.3356,634.1569 L481.8991,624.1198 L481.6987,614.0827 L480.5594,604.0456" fill="#00FF7F" style="stroke:#181818;stroke-width:4;"/><path d="M480.5594,604.0456 L480.5594,604.0456 L480.601,604.1292 L481.805,604.5409 L483.2528,605.4428 L484.6211,606.1851 L485.7284,606.4023 L487.1971,607.3464 L487.1923,607.3122 L490.6704,607.6548 L494.173,608.1698 L497.6925,608.8047 L501.1535,609.0265 L504.6965,609.8268 L504.7168,610.0721 L507.0116,609.7415 L509.3658,610.1269 L511.7272,610.5997 L514.0465,610.5642 L516.3879,610.7961 L516.3898,610.8263 L518.9969,610.9435 L521.6125,611.1985 L524.2239,611.387 L526.8433,611.7024 L529.437,611.6042 L529.4511,611.9021 L532.2422,612.0381 L535.0241,611.9819 L537.8193,612.207 L540.6152,612.4452 L543.3913,612.2658 L543.3795,611.9455 L546.2837,612.6731 L549.1492,612.346 L552.0441,612.8208 L554.9086,612.4698 L557.7981,612.7956 L557.7973,612.7651 L563.4787,613.2696 L569.142,613.063 L574.8159,613.276 L580.4908,613.5242 L586.1592,613.5182 L586.1619,613.7032 L591.1072,613.5907 L596.0573,613.7943 L600.9997,613.4865 L605.9535,613.9415 L610.8997,613.8893 L610.9013,614.133 L615.7284,614.1181 L620.5563,614.2243 L625.3805,613.7684 L630.2075,613.7245 L635.0368,614.0456 L635.0368,614.0456 L635.035,613.7694 L639.864,613.9882 L644.691,613.8957 L649.521,614.2547 L654.3459,613.843 L659.1738,613.8893 L659.1716,613.7369 L664.1235,613.9166 L669.0656,613.4446 L674.0147,613.436 L678.9706,613.8808 L683.9144,613.5182 L683.9193,613.7118 L689.5949,613.7 L695.2551,613.0862 L700.9346,613.2265 L706.6099,613.2024 L712.2754,612.7956 L712.2677,612.5858 L715.1552,612.6471 L718.0402,612.6396 L720.9302,612.7672 L723.8008,612.3699 L726.6823,612.2658 L726.692,612.4712 L729.4615,611.8876 L732.2497,611.7005 L735.0654,612.0924 L737.8306,611.4182 L740.6365,611.6042 L740.6505,611.8299 L743.252,611.5342 L745.8488,611.1621 L748.4563,610.9624 L751.0884,611.1612 L753.6856,610.7961 L753.6746,610.6635 L756.0456,610.8644 L758.3419,610.1636 L760.7231,610.488 L763.0565,610.2352 L765.377,609.8268 L765.3923,609.9346 L768.8798,609.3515 L772.4221,609.1544 L775.9149,608.6086 L779.3871,607.9169 L782.8764,607.3464 L782.9295,607.4531 L784.1782,606.6344 L785.6733,606.3112 L786.8897,605.4275 L788.2207,604.7744 L789.5141,604.0456" fill="none" style="stroke:#181818;stroke-width:4;"/><text fill="#000000" font-family="Chalkduster" font-size="24" font-style="italic" lengthAdjust="spacing" textLength="169.1404" x="550.4666" y="641.8865">&#171;repository&#187;</text><text fill="#000000" font-family="Chalkduster" font-size="24" lengthAdjust="spacing" textLength="288.9547" x="490.5594" y="672.5163">Archival Repositories</text></g><!--entity keep--><g class="entity" data-entity="keep" data-source-line="19" data-uid="ent0012" id="entity_keep"><polygon fill="none" points="423.0861,604.3015,421.9134,605.9038,420.5264,608.2506,418.5427,609.8322,416.4582,610.6971,414.7961,610.7722,412.6599,609.6905,410.6442,608.9839,409.1143,607.5492,408.3118,605.9067,407.8359,604.5989,407.3696,602.8906,406.6128,601.4207,407.1944,599.9854,407.7039,598.4132,409.6159,597.1697,410.9612,595.5564,412.6262,595.0206,414.6056,594.5593,417.144,594.8334,418.5343,595.4891,420.1508,595.7863,422.1162,597.7999,422.8014,599.9257,423.0991,601.3762,422.7619,603.7664" style="stroke:#8B0000;stroke-width:4;"/><path d="M415.0419,610.3556 L415.2287,610.3556 L414.6736,615.7556 L415.2137,621.1556 L415.3972,626.5556 L414.4078,631.9556 L415.0419,637.3556 M402.0419,618.3556 L402.0419,618.2865 L407.2419,617.9765 L412.4419,618.0147 L417.6419,618.295 L422.8419,617.741 L428.0419,618.3556 M415.0419,637.3556 L415.4138,637.6779 L412.0185,639.9887 L409.7091,643.2405 L407.5321,646.607 L404.5843,649.3056 L402.0419,652.3556 M415.0419,637.3556 L415.0877,637.3953 L417.6204,640.337 L420.3618,643.4595 L423.0025,646.4948 L425.8353,649.6965 L428.0419,652.3556" fill="none" style="stroke:#8B0000;stroke-width:4;"/><text fill="#000000" font-family="Chalkduster" font-size="24" lengthAdjust="spacing" textLength="60.305" x="384.8894" y="681.1965">Keep</text></g><!--link coll to cur--><g class="link" data-entity-1="coll" data-entity-2="cur" data-source-line="17" data-uid="lnk7" id="link_coll_cur"><path d="M380.7794,319.9156 L380.7794,320.009 L374.9914,319.7314 L369.2034,320.0015 L363.4154,320.0932 L357.6274,319.5985 L351.8394,319.9156" fill="none" style="stroke:#181818;stroke-width:4;"/><polygon fill="#181818" points="345.8394,319.9156,345.8679,319.9796,347.5833,320.5894,349.4656,321.5745,351.2935,322.4373,352.9428,322.8983,354.8394,323.9156,354.8211,323.8973,353.9389,323.0151,353.149,322.2252,352.4234,321.4995,351.4765,320.5526,350.8394,319.9156,350.9699,320.0461,351.4909,318.967,352.3928,318.269,353.3412,317.6174,354.0192,316.6954,354.8394,315.9156,354.8487,315.9364,353.0351,316.7059,351.2636,317.57,349.4718,318.3884,347.7187,319.294,345.8394,319.9156" style="stroke:#181818;stroke-width:4;"/></g><!--link cur to int--><g class="link" data-entity-1="cur" data-entity-2="int" data-source-line="18" data-uid="lnk8" id="link_cur_int"><path d="M292.0779,375.1219 L292.3552,375.1626 L290.1114,384.7151 L289.4931,394.5061 L288.3454,404.2195 L285.4572,413.6773 L284.9784,423.4888" fill="none" style="stroke:#181818;stroke-width:4;"/><polygon fill="#181818" points="292.9494,369.1856,293.0086,369.223,291.7797,370.7765,290.8979,372.5494,289.9031,374.2509,288.5366,375.7173,287.6845,377.5091,287.6691,377.4883,288.5074,376.7197,289.4237,376.0559,290.3941,375.4649,291.1779,374.623,292.2231,374.1326,292.3712,374.2427,292.7299,374.9149,293.5209,375.9086,294.3646,376.9417,294.9014,377.7464,295.5997,378.6712,295.6216,378.6773,295.0594,376.7712,294.5969,374.8929,294.0863,373.0013,293.6675,371.1352,292.9494,369.1856" style="stroke:#181818;stroke-width:4;"/><polygon fill="#181818" points="284.1094,429.4256,284.1686,429.463,285.0449,427.6866,286.2684,426.1297,287.3788,424.5013,288.1174,422.6379,289.3707,421.0998,289.3552,421.079,288.3783,421.6614,287.4795,422.3486,286.6348,423.1087,285.6033,423.6177,284.8335,424.4783,284.9816,424.5885,283.9893,423.4454,283.4293,422.6241,282.9219,421.842,282.1078,420.8315,281.455,419.9412,281.4769,419.9473,281.9756,421.8352,282.5741,423.751,283.1244,425.6533,283.7665,427.5813,284.1094,429.4256" style="stroke:#181818;stroke-width:4;"/></g><!--link cur to an--><g class="link" data-entity-1="cur" data-entity-2="an" data-source-line="19" data-uid="lnk9" id="link_cur_an"><path d="M343.6148,373.8163 L343.8311,373.9944 L349.1856,380.7475 L355.8083,388.545 L362.018,396.0024 L366.8697,402.3414 L373.5212,410.1627 L379.1595,417.1495 L385.5958,424.7935" fill="none" style="stroke:#181818;stroke-width:4;"/><polygon fill="#181818" points="339.7994,369.1856,339.8669,369.2043,340.1935,371.0465,340.9159,372.9987,341.5093,374.915,341.679,376.7136,342.4353,378.6752,342.4095,378.6727,342.4025,377.5354,342.5255,376.4106,342.7388,375.2946,342.6408,374.1485,342.9789,373.0445,342.9966,373.2282,344.0848,372.9441,345.2248,373.1963,346.3711,373.5139,347.4807,373.4509,348.6096,373.588,348.6197,373.6084,346.8428,372.698,345.1121,371.8803,343.3591,371.0179,341.6487,370.2407,339.7994,369.1856" style="stroke:#181818;stroke-width:4;"/><polygon fill="#181818" points="389.4094,429.4256,389.4769,429.4443,388.7499,427.4906,388.4185,425.6466,387.9583,423.7669,387.0743,421.7696,386.777,419.935,386.7512,419.9325,386.5264,421.0474,386.4315,422.1749,386.427,423.3111,386.1111,424.4172,386.2314,425.5655,386.2492,425.7492,385.085,425.2473,383.9728,425.2817,382.867,425.3815,381.7242,425.1006,380.6009,425.0199,380.6111,425.0403,382.3578,425.8915,384.1509,426.8354,385.9217,427.7346,387.7351,428.7191,389.4094,429.4256" style="stroke:#181818;stroke-width:4;"/></g><!--link int to an--><g class="link" data-entity-1="int" data-entity-2="an" data-source-line="20" data-uid="lnk10" id="link_int_an"><path d="M348.0594,478.5456 L348.0594,478.639 L352.5214,478.3614 L356.9834,478.6315 L361.4454,478.7232 L365.9074,478.2285 L370.3694,478.5456" fill="none" style="stroke:#181818;stroke-width:4;"/><polygon fill="#181818" points="342.0594,478.5456,342.0879,478.6096,343.8033,479.2194,345.6856,480.2045,347.5135,481.0673,349.1628,481.5283,351.0594,482.5456,351.0411,482.5273,350.1589,481.6451,349.369,480.8552,348.6434,480.1295,347.6965,479.1826,347.0594,478.5456,347.1899,478.6761,347.7109,477.597,348.6128,476.899,349.5612,476.2474,350.2392,475.3254,351.0594,474.5456,351.0687,474.5664,349.2551,475.3359,347.4836,476.2,345.6918,477.0184,343.9387,477.924,342.0594,478.5456" style="stroke:#181818;stroke-width:4;"/><polygon fill="#181818" points="376.3694,478.5456,376.3979,478.6096,374.5133,477.6194,372.7956,477.0045,371.0235,476.2673,369.0728,475.1283,367.3694,474.5456,367.3511,474.5273,368.0689,475.2451,368.879,476.0552,369.7534,476.9295,370.4065,477.5826,371.3694,478.5456,371.4999,478.6761,370.4209,479.197,369.7228,480.099,369.0712,481.0474,368.1492,481.7254,367.3694,482.5456,367.3787,482.5664,369.1651,481.7359,370.9936,481,372.8018,480.2184,374.6487,479.524,376.3694,478.5456" style="stroke:#181818;stroke-width:4;"/></g><!--link keep to repo--><g class="link" data-entity-1="keep" data-entity-2="repo" data-source-line="20" data-uid="lnk13" id="link_keep_repo"><path d="M445.5494,639.1756 L445.5494,639.269 L451.3074,638.9914 L457.0654,639.2615 L462.8234,639.3532 L468.5814,638.8585 L474.3394,639.1756" fill="none" style="stroke:#181818;stroke-width:4;"/><polygon fill="#181818" points="480.3394,639.1756,480.3679,639.2396,478.4833,638.2494,476.7656,637.6345,474.9935,636.8973,473.0428,635.7583,471.3394,635.1756,471.3211,635.1573,472.0389,635.8751,472.849,636.6852,473.7234,637.5595,474.3765,638.2126,475.3394,639.1756,475.4699,639.3061,474.3909,639.827,473.6928,640.729,473.0412,641.6774,472.1192,642.3554,471.3394,643.1756,471.3487,643.1964,473.1351,642.3659,474.9636,641.63,476.7718,640.8484,478.6187,640.154,480.3394,639.1756" style="stroke:#181818;stroke-width:4;"/></g><!--link cur to repo--><g class="link" data-entity-1="cur" data-entity-2="repo" data-source-line="22" data-uid="lnk14" id="link_cur_repo"><path d="M345.9994,357.6556 L346.0517,357.733 L347.5958,358.652 L349.4465,360.0247 L351.1974,361.2497 L352.6198,361.9889 L354.4969,363.4006 L354.4787,363.3713 L356.1052,364.3047 L357.8238,365.3859 L359.6064,366.5699 L361.1684,367.3998 L363.0394,368.7256 L363.1582,368.9411 L364.9857,369.6275 L367.1599,370.943 L369.3764,372.3353 L371.3468,373.281 L373.4467,374.4616 L373.4596,374.4891 L375.419,375.379 L377.4371,376.394 L379.4269,377.3486 L381.4708,378.4183 L383.3383,379.113 L383.4408,379.3931 L387.1342,380.7482 L390.7613,381.9227 L394.4853,383.3617 L398.2139,384.813 L401.7986,385.8717 L401.7161,385.562 L405.2903,387.073 L408.5926,387.5642 L412.1016,388.8307 L415.3978,389.2989 L418.8684,390.4214 L418.8615,390.3917 L422.1687,391.4945 L425.3144,391.9045 L428.5554,392.7232 L431.8044,393.5763 L434.9957,394.1818 L435.0457,394.3599 L438.1217,395.0583 L441.2833,396.0611 L444.3065,396.5715 L447.536,397.8163 L450.6284,398.5728 L450.7214,398.7979 L453.8211,400.0436 L456.9669,401.401 L459.8981,402.239 L462.9866,403.4578 L466.2146,405.0139 L466.0691,404.7791 L469.3983,406.9738 L472.5636,408.904 L475.9668,411.2179 L478.9638,412.8767 L482.2023,414.9249 L482.1064,414.8064 L483.9229,416.3439 L485.3296,417.3746 L487.0278,418.7657 L489.0111,420.5095 L490.4867,421.6253 L490.6198,421.7659 L492.4217,423.4824 L493.8094,424.7616 L495.7159,426.5885 L497.5093,428.296 L499.0394,429.7256 L498.8782,429.5911 L501.5524,432.7501 L504.1739,435.8651 L506.899,439.0666 L509.2209,441.9317 L511.7681,444.9847 L511.9472,445.0856 L513.194,447.7744 L514.7865,450.658 L516.8841,453.8262 L518.0518,456.4703 L519.9697,459.5373 L520.1829,459.6131 L521.0659,462.4064 L521.8769,465.174 L522.8506,467.9995 L524.2006,470.9588 L525.0181,473.7287 L524.8885,473.6988 L525.9282,476.623 L526.0863,479.3438 L527.2468,482.2957 L527.8429,485.1176 L528.2869,487.9043 L528.3937,487.9254 L528.8801,490.8094 L529.7489,493.7689 L530.2722,496.6602 L530.651,499.523 L531.1498,502.4095 L531.2653,502.4386 L531.8598,505.4313 L532.9908,508.5594 L533.5149,511.5343 L534.2886,514.5723 L534.9804,517.5895 L534.7277,517.4932 L536.0465,520.7654 L537.6696,524.1536 L538.862,527.3776 L539.9001,530.5429 L541.1524,533.7897 L541.0249,533.7245 L541.9444,535.4636 L542.6382,537.0871 L543.9524,539.0281 L544.9596,540.8119 L545.5456,542.3804 L545.7452,542.5025 L546.9078,544.3367 L547.6913,545.9387 L548.875,547.7857 L549.7937,549.4706 L551.0394,551.3556 L551.1431,551.4276 L552.5719,553.4955 L554.1259,555.6503 L555.2829,557.5293 L556.7601,559.6308 L558.2515,561.7422 L558.4078,561.8623 L559.8862,563.7625 L560.9403,565.3367 L562.4873,567.2897 L564.0429,569.2493 L565.425,571.0755 L565.2185,570.8991 L567.074,572.968 L568.5713,574.731 L569.9796,576.418 L571.5913,578.2787 L573.0728,580.0282 L573.3094,580.2492 L574.6982,581.7822 L576.6292,583.8216 L578.3467,585.6617 L580.0186,587.4591 L581.708,589.2729" fill="none" style="stroke:#181818;stroke-width:4;"/><polygon fill="#181818" points="585.8794,593.5856,585.9452,593.6096,585.0733,591.6882,584.5871,589.9077,583.9754,588.0813,582.9505,586.1039,582.4974,584.3356,582.4715,584.3352,582.3365,585.4644,582.332,586.5959,582.4182,587.7289,582.1917,588.8566,582.4033,589.9917,582.4063,590.1762,581.2685,589.7628,580.1397,589.8881,579.012,590.0791,577.8779,589.8877,576.7472,589.8975,576.7557,589.9186,578.5696,590.6252,580.4224,591.4279,582.2564,592.1843,584.1261,593.029,585.8794,593.5856" style="stroke:#181818;stroke-width:4;"/><text fill="#000000" font-family="Chalkduster" font-size="24" lengthAdjust="spacing" textLength="96.2652" x="552.0394" y="487.3865">Deposit</text></g><!--link repo to coll--><g class="link" data-entity-1="repo" data-entity-2="coll" data-source-line="23" data-uid="lnk15" id="link_repo_coll"><path d="M654.7594,593.8556 L654.8477,593.886 L655.8201,590.2155 L657.3102,586.7235 L658.6318,583.1733 L659.3989,579.432 L660.9334,575.9553 L660.9004,575.9453 L661.3345,573.9691 L661.9353,572.0432 L662.6519,570.1523 L662.9693,568.1408 L663.846,566.2981 L664.0836,566.3621 L664.116,564.2171 L664.8421,562.2589 L665.6529,560.3234 L665.9712,558.2554 L666.5485,556.2571 L666.578,556.2641 L667.0191,554.1821 L667.5947,552.1315 L668.1054,550.0659 L668.7398,548.0291 L668.9708,545.898 L669.2635,545.9551 L669.6815,543.8335 L669.9107,541.675 L670.4162,539.5705 L670.9347,537.4685 L671.0427,535.2863 L670.7259,535.2379 L671.6711,533.1722 L671.573,530.947 L672.268,528.8431 L672.1463,526.6143 L672.694,524.4878 L672.6637,524.4846 L673.2539,522.3387 L673.1366,520.1176 L673.4368,517.9409 L673.772,515.7679 L673.8544,513.5681 L674.0391,513.5782 L673.9726,511.3729 L674.2216,509.1849 L673.96,506.9691 L674.4601,504.7948 L674.4537,502.5928 L674.6974,502.5935 L674.6449,500.4004 L674.7134,498.2075 L674.2198,496.0131 L674.1383,493.8198 L674.4217,491.6277 L674.1462,491.6091 L674.2489,489.448 L674.0412,487.266 L674.2838,485.1144 L673.7574,482.9109 L673.6882,480.7383 L673.5372,480.7171 L673.4876,478.6027 L672.7925,476.398 L672.5565,474.2575 L672.7696,472.1799 L672.1829,469.9903 L672.3719,470.0324 L672.032,467.953 L671.1043,465.7428 L670.9129,463.6966 L670.5611,461.6146 L669.8356,459.4494 L669.6354,459.3858 L669.143,457.3828 L668.5851,455.359 L668.1559,453.3761 L667.2262,451.2342 L666.576,449.1812 L666.7651,449.2619 L665.5013,447.0985 L664.6024,445.091 L664.2367,443.3112 L662.8894,441.1121 L662.3341,439.2514 L662.5318,439.3613 L661.3554,437.3908 L660.1121,435.3832 L659.0198,433.4595 L658.2766,431.7298 L657.0394,429.7256 L656.93,429.6499 L655.7293,427.6673 L653.7843,425.1701 L652.6856,423.258 L651.1104,421.0164 L649.4069,418.6861 L649.4909,418.7554 L647.7319,416.6483 L646.2738,414.7893 L644.5439,412.7062 L642.7005,410.5294 L640.9513,408.4305 L641.037,408.5133 L639.0722,406.4899 L637.5053,404.8511 L635.4884,402.7773 L633.6567,400.8825 L631.7641,398.9288 L631.584,398.7272 L629.6786,397.0391 L627.9901,395.5939 L625.9947,393.8049 L623.8892,391.8928 L621.9364,390.1516 L621.8484,390.0386 L619.8013,388.4583 L617.5983,386.6779 L615.8237,385.4474 L613.837,383.9448 L611.5597,382.0689 L611.6919,382.262 L609.5673,380.8402 L607.1916,379.0517 L605.0809,377.6502 L602.7948,375.9926 L600.7252,374.6512 L600.7906,374.7591 L598.5418,373.3885 L596.372,372.1481 L593.9518,370.4943 L591.7335,369.174 L589.5242,367.8686 L589.6177,368.0421 L587.3485,366.8552 L584.8258,365.1972 L582.5977,364.0864 L580.3748,362.9853 L578.0481,361.6915 L577.9305,361.4468 L575.7841,360.7128 L573.4337,359.5543 L571.0327,358.2903 L568.7475,357.2674 L566.3881,356.0901 L566.516,356.3876 L563.9826,354.9513 L561.7424,354.1966 L559.3867,353.1735 L557.0064,352.0931 L554.6355,351.0348 L554.6581,351.0932 L552.3029,350.174 L549.834,348.9604 L547.519,348.1452 L545.1585,347.2122 L542.8817,346.4957 L542.891,346.5225 L540.5618,345.7222 L538.2397,344.9426 L535.841,343.9421 L533.5408,343.2254 L531.2179,342.4433 L531.2019,342.3923 L528.998,341.9688 L526.6816,341.186 L524.2639,340.08 L522.0222,339.5359 L519.7354,338.8477 L519.6657,338.6008 L517.5283,338.3373 L515.3251,337.8405 L513.0754,337.1795 L510.715,336.1266 L508.5257,335.6792 L508.5767,335.879 L506.2748,334.8052 L504.2093,334.657 L501.9852,333.8877 L499.8596,333.5041 L497.6798,332.9082 L497.7039,333.0123 L495.649,332.632 L493.4515,331.6351 L491.4931,331.6721 L489.3852,331.0627 L487.2893,330.5049" fill="none" style="stroke:#181818;stroke-width:4;"/><polygon fill="#181818" points="481.4294,329.2156,481.471,329.272,482.9336,330.2725,484.6397,331.6037,486.2666,332.8272,487.6326,333.6965,489.3597,335.0561,489.3378,335.0421,488.6305,334.0263,488.0331,333.0808,487.5123,332.1842,486.7279,331.1191,486.3126,330.29,486.412,330.4455,487.1527,329.5036,488.1836,329.0156,489.2498,328.5831,490.1101,327.8283,491.0787,327.243,491.0833,327.2653,489.1467,327.6271,487.2309,328.0903,485.3051,328.5046,483.3984,329.0123,481.4294,329.2156" style="stroke:#181818;stroke-width:4;"/><text fill="#000000" font-family="Chalkduster" font-size="24" lengthAdjust="spacing" textLength="77.0387" x="675.5194" y="487.3865">Reuse</text></g><!--SRC=[POxDQiCm48JlUeg93xtPlOSGCEHIIYu-1yf6tYGYicIabLrJ-kwL7PnIkh2mV_FjR8pJDhNyqP6RK5MlBGcLbivbbCbo9P-YDdzkEj-oBKcB6OmOZbMVEgkK6B6yHUrWMYPh8hV0O7Y4lvmS8N1a2lg6-G7qf2rZD78xkJfFpK0M3VS-6l5Xmfkx18eIafOKMEK8h8NSDQkAPaMzu333ZkJeoXqxGVsqLO0YVbrYjnjzkCUUDE_t-9gHtpaNEsUA6VlVnue9UP01uUbl8M06v0y-e7XdxfVJUowGGor5kNzebT8fe2pNVWiS7Z2rzFD2Uslpek4K-GS0]--></g></svg>