<?xml version="1.0" encoding="us-ascii" standalone="no"?><svg xmlns="http://www.w3.org/2000/svg" xmlns:xlink="http://www.w3.org/1999/xlink" contentStyleType="text/css" height="1194px" preserveAspectRatio="none" style="width:1174px;height:1194px;background:#FFFFFF;" version="1.1" viewBox="0 0 1174 1194" width="1174px" zoomAndPan="magnify"><defs/><g><text fill="#000000" font-family="Chalkduster" font-size="42" font-weight="bold" lengthAdjust="spacing" textLength="942" x="109" y="51.7215">Activities in Infrastructure Context (2)</text><!--cluster activities--><g id="cluster_activities"><polygon fill="#FFC7D8" points="53.5,83.8912,53.5,84.1013,63.4821,83.4768,73.4643,84.0844,83.4464,84.2908,93.4286,83.1778,103.4107,83.8134,113.3929,83.4647,123.375,83.5077,133.3571,83.823,143.3393,83.1998,153.3214,84.4448,163.3036,83.2609,173.2857,83.6934,183.2679,84.3231,193.25,83.8054,203.2321,83.9594,213.2143,83.8592,223.1964,84.0697,233.1786,84.1303,243.1607,84.4769,253.1429,84.5622,263.125,84.5704,273.1071,84.1458,283.0893,84.3547,293.0714,84.5934,303.0536,83.17,313.0357,84.5697,323.0179,83.5947,333,84.425,342.9821,83.3961,352.9643,83.8227,362.9464,84.6328,372.9286,83.8424,382.9107,83.9965,392.8929,84.2298,402.875,84.3074,412.8571,83.8873,422.8393,84.1784,432.8214,83.3187,442.8036,84.1755,452.7857,84.4394,462.7679,84.3357,472.75,84.5042,482.7321,83.4081,492.7143,83.239,502.6964,83.2698,512.6786,83.8323,522.6607,83.6946,532.6429,84.5726,542.625,83.7165,552.6071,83.5481,562.5893,84.1194,572.5714,83.2243,582.5536,83.372,592.5357,84.5401,602.5179,84.3268,612.5,83.8912,612.5937,84.1174,612.8125,83.9385,613.2478,84.2824,613.636,84.5123,613.854,84.3315,614.2678,84.6234,614.2382,84.6112,614.453,84.993,614.7614,85.4136,614.7058,85.6835,614.996,86.0966,615,86.3912,614.4462,86.3912,614.3227,96.3129,615.5036,106.2346,614.2831,116.1563,615.509,126.078,615.2066,135.9997,614.7321,145.9214,614.6462,155.8432,615.4588,165.7649,614.7007,175.6866,615.5919,185.6083,614.4473,195.53,615.6174,205.4517,615.4843,215.3734,615.245,225.2952,615.0472,235.2169,615.7266,245.1386,615.6136,255.0603,615.1693,264.982,615.2682,274.9037,614.8697,284.8254,615.7165,294.7472,615.1549,304.6689,615.1726,314.5906,614.3916,324.5123,614.5948,334.434,615.5307,344.3557,615.4298,354.2774,614.9571,364.1992,614.6778,374.1209,614.7811,384.0426,614.3138,393.9643,615.4147,403.886,615.7396,413.8077,615.5264,423.7294,615,433.6512,615.214,433.7398,614.8114,433.9873,614.734,434.3694,614.4413,434.6624,614.5017,435.1016,614.2678,435.4189,614.2992,435.4949,613.9847,435.7355,613.5314,435.6411,613.19,435.8169,612.9101,436.1413,612.5,436.1512,612.5,436.7185,602.5179,435.6386,592.5357,435.9573,582.5536,436.3004,572.5714,435.5403,562.5893,436.5046,552.6071,436.4092,542.625,436.0504,532.6429,436.2934,522.6607,436.8798,512.6786,435.8383,502.6964,436.4661,492.7143,436.4368,482.7321,436.2669,472.75,436.2921,462.7679,436.2646,452.7857,435.527,442.8036,435.7503,432.8214,435.6896,422.8393,436.215,412.8571,436.2393,402.875,436.3129,392.8929,435.8602,382.9107,436.0836,372.9286,436.0309,362.9464,436.728,352.9643,436.5777,342.9821,435.6656,333,436.0782,323.0179,435.5739,313.0357,436.4395,303.0536,436.7596,293.0714,436.6957,283.0893,435.7156,273.1071,436.6151,263.125,435.4084,253.1429,436.3513,243.1607,435.8518,233.1786,436.2479,223.1964,436.3915,213.2143,436.6233,203.2321,435.4312,193.25,436.6266,183.2679,436.3293,173.2857,436.5065,163.3036,436.899,153.3214,436.1566,143.3393,436.3264,133.3571,436.3646,123.375,436.3484,113.3929,436.1503,103.4107,436.8619,93.4286,435.5414,83.4464,436.7164,73.4643,435.5272,63.4821,435.6108,53.5,436.1512,53.5051,436.1635,53.1501,436.0134,52.73,435.7065,52.4921,435.8392,52.0997,435.5989,51.7322,435.4189,51.956,435.5116,51.7912,435.1505,51.3013,434.6546,51.1703,434.3075,51.1067,433.9882,51,433.6512,51.3555,433.6512,51.403,423.7294,51.3012,413.8077,50.658,403.886,51.6364,393.9643,51.6338,384.0426,50.9527,374.1209,50.7609,364.1992,50.5986,354.2774,50.7854,344.3557,51.1374,334.434,50.9316,324.5123,50.5822,314.5906,51.4874,304.6689,50.5411,294.7472,51.5024,284.8254,51.4272,274.9037,51.3719,264.982,51.6925,255.0603,50.7541,245.1386,50.6994,235.2169,51.5189,225.2952,50.4031,215.3734,50.766,205.4517,51.1155,195.53,51.0687,185.6083,50.6415,175.6866,50.957,165.7649,51.7446,155.8432,51.6485,145.9214,50.4037,135.9997,51.0785,126.078,50.4861,116.1563,50.9737,106.2346,51.293,96.3129,51,86.3912,51.1293,86.4447,50.9417,85.9528,51.4162,85.7351,51.4419,85.3316,51.4148,84.9061,51.7322,84.6234,51.6721,84.4783,52.1274,84.5775,52.4712,84.4074,52.7908,84.179,53.0607,83.8306,53.5,83.8912" style="stroke:#181818;stroke-width:4.0;"/><text fill="#000000" font-family="Chalkduster" font-size="24" font-style="italic" lengthAdjust="spacing" textLength="175" x="245.5" y="109.732">&#171;workspace&#187;</text><text fill="#000000" font-family="Chalkduster" font-size="24" font-weight="bold" lengthAdjust="spacing" textLength="548" x="59" y="140.3619">Research &amp; Data Management Activities</text></g><!--cluster infrastructure--><g id="cluster_infrastructure"><polygon fill="none" points="9.5,686.1512,9.5,686.3613,19.4655,685.7368,29.431,686.3444,39.3966,686.5508,49.3621,685.4378,59.3276,686.0734,69.2931,685.7247,79.2586,685.7677,89.2241,686.083,99.1897,685.4598,109.1552,686.7048,119.1207,685.5209,129.0862,685.9534,139.0517,686.5831,149.0172,686.0654,158.9828,686.2194,168.9483,686.1192,178.9138,686.3297,188.8793,686.3903,198.8448,686.7369,208.8103,686.8222,218.7759,686.8304,228.7414,686.4058,238.7069,686.6147,248.6724,686.8534,258.6379,685.43,268.6034,686.8297,278.569,685.8547,288.5345,686.685,298.5,685.6561,308.4655,686.0827,318.431,686.8928,328.3966,686.1024,338.3621,686.2565,348.3276,686.4898,358.2931,686.5674,368.2586,686.1473,378.2241,686.4384,388.1897,685.5787,398.1552,686.4355,408.1207,686.6994,418.0862,686.5957,428.0517,686.7642,438.0172,685.6681,447.9828,685.499,457.9483,685.5298,467.9138,686.0923,477.8793,685.9546,487.8448,686.8326,497.8103,685.9765,507.7759,685.8081,517.7414,686.3794,527.7069,685.4843,537.6724,685.632,547.6379,686.8001,557.6034,686.5868,567.569,686.8857,577.5345,685.8294,587.5,686.4704,597.4655,686.7416,607.431,685.6788,617.3966,686.0553,627.3621,686.2771,637.3276,686.8029,647.2931,686.147,657.2586,686.6137,667.2241,685.5974,677.1897,685.4739,687.1552,686.6548,697.1207,685.4342,707.0862,686.6601,717.0517,686.3578,727.0172,685.8832,736.9828,685.7974,746.9483,686.6099,756.9138,685.8518,766.8793,686.743,776.8448,685.5984,786.8103,686.7686,796.7759,686.6355,806.7414,686.3961,816.7069,686.1984,826.6724,686.8778,836.6379,686.7647,846.6034,686.3204,856.569,686.4193,866.5345,686.0209,876.5,686.8676,886.4655,686.306,896.431,686.3237,906.3966,685.5428,916.3621,685.7459,926.3276,686.6819,936.2931,686.5809,946.2586,686.1082,956.2241,685.829,966.1897,685.9322,976.1552,685.465,986.1207,686.5659,996.0862,686.8907,1006.0517,686.6776,1016.0172,686.8461,1025.9828,686.0144,1035.9483,686.2384,1045.9138,685.7636,1055.8793,686.4352,1065.8448,686.3979,1075.8103,686.7035,1085.7759,685.9215,1095.7414,686.0168,1105.7069,686.5946,1115.6724,686.7185,1125.6379,685.6386,1135.6034,685.9573,1145.569,686.3004,1155.5345,685.5403,1165.5,686.1512,1165.5451,686.26,1165.8865,686.3771,1166.1943,686.413,1166.5788,686.6343,1167.0072,686.9614,1167.2678,686.8834,1167.1714,686.8435,1167.5112,687.2771,1167.6486,687.6269,1167.7428,687.9588,1167.897,688.3156,1168,688.6512,1168.1135,688.6512,1167.3758,698.599,1167.5992,708.5468,1167.5385,718.4946,1168.0638,728.4424,1168.0881,738.3902,1168.1617,748.338,1167.709,758.2858,1167.9325,768.2336,1167.8798,778.1814,1168.5769,788.1292,1168.4266,798.077,1167.5145,808.0248,1167.9271,817.9726,1167.4228,827.9204,1168.2884,837.8682,1168.6085,847.816,1168.5446,857.7638,1167.5644,867.7116,1168.464,877.6594,1167.2572,887.6072,1168.2002,897.555,1167.7007,907.5028,1168.0967,917.4506,1168.2403,927.3984,1168.4721,937.3462,1167.2801,947.294,1168.4755,957.2418,1168.1782,967.1896,1168.3553,977.1374,1168.7478,987.0852,1168.0055,997.033,1168.1753,1006.9808,1168.2134,1016.9286,1168.1972,1026.8764,1167.9992,1036.8242,1168.7107,1046.772,1167.3903,1056.7198,1168.5653,1066.6676,1167.376,1076.6154,1167.4597,1086.5632,1168.04,1096.511,1168.0283,1106.4588,1167.5072,1116.4066,1168.4137,1126.3544,1168.1089,1136.3022,1168.7267,1146.25,1168.6671,1156.1978,1167.5517,1166.1456,1167.6021,1176.0934,1168,1186.0412,1167.9602,1186.0247,1167.963,1186.4401,1167.8312,1186.7997,1167.6534,1187.1402,1167.3089,1187.4118,1167.2678,1187.8089,1167.3489,1188.0049,1166.9951,1188.1506,1166.5546,1188.0873,1166.1766,1188.1746,1165.8024,1188.2711,1165.5,1188.5412,1165.5,1188.3266,1155.5345,1188.6786,1145.569,1188.4728,1135.6034,1188.1234,1125.6379,1189.0285,1115.6724,1188.0822,1105.7069,1189.0435,1095.7414,1188.9684,1085.7759,1188.913,1075.8103,1189.2337,1065.8448,1188.2953,1055.8793,1188.2405,1045.9138,1189.06,1035.9483,1187.9443,1025.9828,1188.3072,1016.0172,1188.6567,1006.0517,1188.6098,996.0862,1188.1827,986.1207,1188.4982,976.1552,1189.2858,966.1897,1189.1896,956.2241,1187.9449,946.2586,1188.6197,936.2931,1188.0273,926.3276,1188.5148,916.3621,1188.8342,906.3966,1188.961,896.431,1187.8764,886.4655,1188.9417,876.5,1188.5496,866.5345,1187.9858,856.569,1188.0701,846.6034,1188.8678,836.6379,1188.791,826.6724,1188.5247,816.7069,1187.8691,806.7414,1189.1993,796.7759,1188.2293,786.8103,1188.0131,776.8448,1188.4738,766.8793,1189.1309,756.9138,1189.1566,746.9483,1188.5763,736.9828,1188.39,727.0172,1188.7109,717.0517,1188.7274,707.0862,1188.0334,697.1207,1188.9551,687.1552,1189.1,677.1897,1188.3254,667.2241,1188.112,657.2586,1189.2158,647.2931,1188.5622,637.3276,1188.541,627.3621,1188.8402,617.3966,1187.8955,607.431,1189.0711,597.4655,1188.5257,587.5,1189.21,577.5345,1188.3253,567.569,1188.9502,557.6034,1188.0972,547.6379,1188.7862,537.6724,1188.9205,527.7069,1188.2138,517.7414,1188.9042,507.7759,1187.9697,497.8103,1188.0707,487.8448,1189.224,477.8793,1189.2255,467.9138,1189.1097,457.9483,1188.1808,447.9828,1188.9254,438.0172,1188.0691,428.0517,1188.5993,418.0862,1188.5399,408.1207,1188.2787,398.1552,1189.1571,388.1897,1188.9844,378.2241,1188.2204,368.2586,1189.0678,358.2931,1188.633,348.3276,1187.9576,338.3621,1188.3078,328.3966,1188.0159,318.431,1188.4021,308.4655,1187.9122,298.5,1187.941,288.5345,1188.6115,278.569,1188.4208,268.6034,1188.4826,258.6379,1188.398,248.6724,1188.7085,238.7069,1187.9861,228.7414,1188.7012,218.7759,1187.798,208.8103,1188.8372,198.8448,1189.1339,188.8793,1189.0633,178.9138,1188.9025,168.9483,1188.7334,158.9828,1188.6469,149.0172,1187.9011,139.0517,1188.9877,129.0862,1188.8708,119.1207,1188.3878,109.1552,1188.5354,99.1897,1188.3326,89.2241,1188.7589,79.2586,1189.2217,69.2931,1188.1873,59.3276,1189.01,49.3621,1188.452,39.3966,1188.1619,29.431,1188.1093,19.4655,1187.8965,9.5,1188.5412,9.4438,1188.4054,9.1511,1188.4059,8.8277,1188.3323,8.5128,1188.2793,8.1394,1188.0847,7.7322,1187.8089,7.5132,1187.7182,7.7764,1187.5343,7.589,1187.1638,7.4594,1186.8172,7.3072,1186.4613,7,1186.0412,6.3409,1186.0412,6.7423,1176.0934,7.316,1166.1456,6.5185,1156.1978,6.8971,1146.25,7.067,1136.3022,7.3261,1126.3544,7.0458,1116.4066,7.7447,1106.4588,7.4114,1096.511,7.2561,1086.5632,6.4601,1076.6154,7.3388,1066.6676,6.4255,1056.7198,7.3057,1046.772,7.0078,1036.8242,7.2995,1026.8764,6.9126,1016.9286,6.8039,1006.9808,6.2591,997.033,6.7856,987.0852,6.2951,977.1374,6.7539,967.1896,7.4379,957.2418,7.1607,947.294,6.5485,937.3462,7.2458,927.3984,7.0656,917.4506,7.5433,907.5028,7.5649,897.555,7.0937,887.6072,6.821,877.6594,6.7855,867.7116,6.9936,857.7638,7.6691,847.816,6.3263,837.8682,6.8361,827.9204,7.2668,817.9726,7.7317,808.0248,7.2119,798.077,6.8018,788.1292,6.2621,778.1814,6.5762,768.2336,6.7781,758.2858,7.3398,748.338,7.3695,738.3902,7.0518,728.4424,6.867,718.4946,6.2804,708.5468,7.129,698.599,7,688.6512,7.1341,688.7067,7.3567,688.3847,7.3232,687.9566,7.464,687.6007,7.518,687.2089,7.7322,686.8834,7.764,686.96,8.0258,686.5922,8.5052,686.7494,8.7539,686.3499,9.0788,686.1343,9.5,686.1512" style="stroke:#181818;stroke-width:4.0;"/><text fill="#000000" font-family="Chalkduster" font-size="24" font-weight="bold" lengthAdjust="spacing" textLength="184" x="495.5" y="711.992">Infrastucture</text></g><!--cluster Access and authentication services--><g id="cluster_Access and authentication services"><polygon fill="none" points="33.5,743.1512,33.5,743.3613,43.482,742.7368,53.464,743.3444,63.4459,743.5508,73.4279,742.4378,83.4099,743.0734,93.3919,742.7247,103.3739,742.7677,113.3559,743.083,123.3378,742.4598,133.3198,743.7048,143.3018,742.5209,153.2838,742.9534,163.2658,743.5831,173.2477,743.0654,183.2297,743.2194,193.2117,743.1192,203.1937,743.3297,213.1757,743.3903,223.1577,743.7369,233.1396,743.8222,243.1216,743.8304,253.1036,743.4058,263.0856,743.6147,273.0676,743.8534,283.0495,742.43,293.0315,743.8297,303.0135,742.8547,312.9955,743.685,322.9775,742.6561,332.9595,743.0827,342.9414,743.8928,352.9234,743.1024,362.9054,743.2565,372.8874,743.4898,382.8694,743.5674,392.8514,743.1473,402.8333,743.4384,412.8153,742.5787,422.7973,743.4355,432.7793,743.6994,442.7613,743.5957,452.7432,743.7642,462.7252,742.6681,472.7072,742.499,482.6892,742.5298,492.6712,743.0923,502.6532,742.9546,512.6351,743.8326,522.6171,742.9765,532.5991,742.8081,542.5811,743.3794,552.5631,742.4843,562.545,742.632,572.527,743.8001,582.509,743.5868,592.491,743.8857,602.473,742.8294,612.455,743.4704,622.4369,743.7416,632.4189,742.6788,642.4009,743.0553,652.3829,743.2771,662.3649,743.8029,672.3468,743.147,682.3288,743.6137,692.3108,742.5974,702.2928,742.4739,712.2748,743.6548,722.2568,742.4342,732.2387,743.6601,742.2207,743.3578,752.2027,742.8832,762.1847,742.7974,772.1667,743.6099,782.1486,742.8518,792.1306,743.743,802.1126,742.5984,812.0946,743.7686,822.0766,743.6355,832.0586,743.3961,842.0405,743.1984,852.0225,743.8778,862.0045,743.7647,871.9865,743.3204,881.9685,743.4193,891.9505,743.0209,901.9324,743.8676,911.9144,743.306,921.8964,743.3237,931.8784,742.5428,941.8604,742.7459,951.8423,743.6819,961.8243,743.5809,971.8063,743.1082,981.7883,742.829,991.7703,742.9322,1001.7523,742.465,1011.7342,743.5659,1021.7162,743.8907,1031.6982,743.6776,1041.6802,743.8461,1051.6622,743.0144,1061.6441,743.2384,1071.6261,742.7636,1081.6081,743.4352,1091.5901,743.3979,1101.5721,743.7035,1111.5541,742.9215,1121.536,743.0168,1131.518,743.5946,1141.5,743.1512,1141.5724,743.3259,1141.7882,743.1398,1142.1824,743.3843,1142.5797,743.6365,1142.8363,743.5488,1143.2678,743.8834,1143.3766,743.9285,1143.4937,744.2699,1143.5296,744.5776,1143.7509,744.9622,1144.078,745.3906,1144,745.6512,1143.6871,745.6512,1144.315,755.5652,1144.2856,765.4793,1144.1158,775.3933,1144.1409,785.3074,1144.1135,795.2214,1143.3758,805.1354,1143.5992,815.0495,1143.5385,824.9635,1144.0638,834.8776,1144.0881,844.7916,1144.1617,854.7057,1143.709,864.6197,1143.9325,874.5338,1143.8798,884.4478,1144.5769,894.3619,1144.4266,904.2759,1143.5145,914.19,1143.9271,924.104,1143.4228,934.0181,1144.2884,943.9321,1144.6085,953.8462,1144.5446,963.7602,1143.5644,973.6743,1144.464,983.5883,1143.2572,993.5024,1144.2002,1003.4164,1143.7007,1013.3304,1144.0967,1023.2445,1144.2403,1033.1585,1144.4721,1043.0726,1143.2801,1052.9866,1144.4755,1062.9007,1144.1782,1072.8147,1144.3553,1082.7288,1144.7478,1092.6428,1144.0055,1102.5569,1144.1753,1112.4709,1144.2134,1122.385,1144.1972,1132.299,1143.9992,1142.2131,1144.7107,1152.1271,1144,1162.0412,1143.8122,1161.9634,1144.0276,1162.4668,1143.5149,1162.6687,1143.3943,1163.0329,1143.4265,1163.4605,1143.2678,1163.8089,1143.2714,1163.8176,1142.8513,1163.8036,1142.6134,1164.2292,1142.221,1164.2818,1141.9462,1164.6185,1141.5,1164.5412,1141.5,1165.2083,1131.518,1164.0929,1121.536,1164.1432,1111.5541,1164.412,1101.5721,1164.8967,1091.5901,1164.9441,1081.6081,1164.8423,1071.6261,1164.1992,1061.6441,1165.1775,1051.6622,1165.1749,1041.6802,1164.4939,1031.6982,1164.3021,1021.7162,1164.1398,1011.7342,1164.3266,1001.7523,1164.6786,991.7703,1164.4728,981.7883,1164.1234,971.8063,1165.0285,961.8243,1164.0822,951.8423,1165.0435,941.8604,1164.9684,931.8784,1164.913,921.8964,1165.2337,911.9144,1164.2953,901.9324,1164.2405,891.9505,1165.06,881.9685,1163.9443,871.9865,1164.3072,862.0045,1164.6567,852.0225,1164.6098,842.0405,1164.1827,832.0586,1164.4982,822.0766,1165.2858,812.0946,1165.1896,802.1126,1163.9449,792.1306,1164.6197,782.1486,1164.0273,772.1667,1164.5148,762.1847,1164.8342,752.2027,1164.961,742.2207,1163.8764,732.2387,1164.9417,722.2568,1164.5496,712.2748,1163.9858,702.2928,1164.0701,692.3108,1164.8678,682.3288,1164.791,672.3468,1164.5247,662.3649,1163.8691,652.3829,1165.1993,642.4009,1164.2293,632.4189,1164.0131,622.4369,1164.4738,612.455,1165.1309,602.473,1165.1566,592.491,1164.5763,582.509,1164.39,572.527,1164.7109,562.545,1164.7274,552.5631,1164.0334,542.5811,1164.9551,532.5991,1165.1,522.6171,1164.3254,512.6351,1164.112,502.6532,1165.2158,492.6712,1164.5622,482.6892,1164.541,472.7072,1164.8402,462.7252,1163.8955,452.7432,1165.0711,442.7613,1164.5257,432.7793,1165.21,422.7973,1164.3253,412.8153,1164.9502,402.8333,1164.0972,392.8514,1164.7862,382.8694,1164.9205,372.8874,1164.2138,362.9054,1164.9042,352.9234,1163.9697,342.9414,1164.0707,332.9595,1165.224,322.9775,1165.2255,312.9955,1165.1097,303.0135,1164.1808,293.0315,1164.9254,283.0495,1164.0691,273.0676,1164.5993,263.0856,1164.5399,253.1036,1164.2787,243.1216,1165.1571,233.1396,1164.9844,223.1577,1164.2204,213.1757,1165.0678,203.1937,1164.633,193.2117,1163.9576,183.2297,1164.3078,173.2477,1164.0159,163.2658,1164.4021,153.2838,1163.9122,143.3018,1163.941,133.3198,1164.6115,123.3378,1164.4208,113.3559,1164.4826,103.3739,1164.398,93.3919,1164.7085,83.4099,1163.9861,73.4279,1164.7012,63.4459,1163.798,53.464,1164.8372,43.482,1165.1339,33.5,1164.5412,33.5666,1164.7019,33.1925,1164.506,32.8174,1164.3075,32.4528,1164.1344,32.0041,1163.7583,31.7322,1163.8089,31.8697,1163.8659,31.6873,1163.4974,31.3921,1163.0823,31.2911,1162.7475,31.0822,1162.3681,31,1162.0412,31.2177,1162.0412,31.6805,1152.1271,30.6461,1142.2131,31.4689,1132.299,30.9108,1122.385,30.6207,1112.4709,30.5681,1102.5569,30.3553,1092.6428,30.5591,1082.7288,31.0363,1072.8147,31.273,1062.9007,31.5762,1052.9866,31.4201,1043.0726,30.2886,1033.1585,31.619,1023.2445,31.4861,1013.3304,31.5407,1003.4164,31.5219,993.5024,30.3409,983.5883,30.7423,973.6743,31.316,963.7602,30.5185,953.8462,30.8971,943.9321,31.067,934.0181,31.3261,924.104,31.0458,914.19,31.7447,904.2759,31.4114,894.3619,31.2561,884.4478,30.4601,874.5338,31.3388,864.6197,30.4255,854.7057,31.3057,844.7916,31.0078,834.8776,31.2995,824.9635,30.9126,815.0495,30.8039,805.1354,30.2591,795.2214,30.7856,785.3074,30.2951,775.3933,30.7539,765.4793,31.4379,755.5652,31,745.6512,31.0495,745.6717,31.0074,745.24,31.3686,744.9754,31.4595,744.5989,31.7531,744.3062,31.7322,743.8834,31.8043,744.0574,32.0977,743.7658,32.4165,743.5354,32.7655,743.378,33.1456,743.2956,33.5,743.1512" style="stroke:#181818;stroke-width:4.0;"/><text fill="#000000" font-family="Chalkduster" font-size="24" font-weight="bold" lengthAdjust="spacing" textLength="482" x="346.5" y="768.992">Access and authentication services</text></g><!--cluster comp--><g id="cluster_comp"><path d="M381,818.1512 L381,818.1512 L381.0192,818.2426 L384.1031,817.3108 L387.2997,816.9149 L390.4596,816.3445 L393.4988,815.2003 L396.7051,814.8504 L396.7025,814.8159 L400.2961,814.3943 L403.9025,814.1462 L407.5179,814.0189 L411.1025,813.4756 L414.7302,813.5149 L414.7423,813.7607 L419.3924,813.0061 L424.0776,812.9691 L428.7671,813.0197 L433.4317,812.5608 L438.1094,812.3699 L438.1104,812.4002 L443.6413,812.1619 L449.1771,812.0615 L454.7105,811.8946 L460.2484,811.8547 L465.7717,811.4007 L465.7795,811.6988 L471.9546,811.5408 L478.1246,811.1906 L484.302,811.1218 L490.4797,811.0662 L496.6465,810.5926 L496.6401,810.2721 L503.2558,810.7617 L509.8504,810.1962 L516.4611,810.4328 L523.0552,809.8433 L529.6628,809.9309 L529.6624,809.9005 L536.4854,810.1546 L543.2974,809.6974 L550.1159,809.6599 L556.9349,809.6576 L563.75,809.4012 L563.756,809.9561 L573.3362,809.2927 L582.9266,809.5776 L592.5004,808.3283 L602.0989,809.3674 L611.689,809.6159 L621.2737,809.3744 L630.8535,808.6785 L630.8587,809.4959 L640.6056,807.9726 L650.3604,807.6852 L660.1168,807.6644 L669.8778,808.3526 L679.6328,808.1072 L689.3906,808.3074 L689.3931,809.216 L698.9082,808.0485 L708.4258,807.7979 L717.9461,808.5336 L727.4611,807.3141 L736.9799,807.485 L746.5,808.1512 L746.5,808.1512 L746.5024,809.0164 L756.0198,808.7581 L765.5391,809.1826 L775.0535,807.8002 L784.5741,808.6809 L794.0933,809.0686 L803.6094,808.3074 L803.6054,807.6775 L813.3647,808.2414 L823.1228,808.5991 L832.8834,809.362 L842.6341,808.5492 L852.3942,809.2334 L862.1465,808.6785 L862.1385,807.9402 L871.723,807.8788 L881.3261,809.5564 L890.8948,808.0323 L900.4987,809.77 L910.0805,809.4702 L919.6599,808.9407 L929.25,809.4012 L929.2476,809.2439 L936.0706,809.711 L942.8828,809.4801 L949.7064,809.9821 L956.5159,809.5794 L963.3372,809.9309 L963.3427,810.2053 L969.9447,810.2785 L976.5459,810.3044 L983.1474,810.3489 L989.7567,810.7831 L996.3535,810.5926 L996.3607,810.8652 L1002.5304,810.8294 L1008.7065,811.035 L1014.8769,811.0196 L1021.0617,811.5574 L1027.2283,811.4007 L1027.2307,811.4695 L1032.7634,811.6712 L1038.2837,811.5182 L1043.8194,811.8022 L1049.3664,812.4118 L1054.8906,812.3699 L1054.9,812.5607 L1059.5655,812.5799 L1064.2353,812.6849 L1068.9134,812.9597 L1073.579,812.9813 L1078.2698,813.5149 L1078.2834,813.6988 L1081.8991,814.1098 L1085.4971,814.2824 L1089.1077,814.6242 L1092.6854,814.5227 L1096.2949,814.8504 L1096.3029,814.8883 L1099.4005,815.342 L1102.6029,816.2942 L1105.7405,816.9382 L1108.9095,817.7313 L1112,818.1512 L1111.3876,818.1512 L1111.6416,828.2975 L1113.1826,838.4438 L1113.5129,848.5902 L1110.6332,858.7365 L1111.483,868.8828 L1112.398,879.0292 L1110.3711,889.1755 L1112.9424,899.3218 L1112.688,909.4682 L1111.7313,919.6145 L1112.3793,929.7608 L1113.9431,939.9072 L1111.1657,950.0535 L1112.84,960.1998 L1112.7617,970.3462 L1112.3087,980.4925 L1112.3758,990.6388 L1112.3026,1000.7852 L1110.3356,1010.9315 L1110.9312,1021.0778 L1110.7692,1031.2242 L1112.1702,1041.3705 L1112.235,1051.5168 L1112.4313,1061.6632 L1111.2241,1071.8095 L1111.82,1081.9558 L1111.6794,1092.1022 L1113.5383,1102.2485 L1113.1375,1112.3948 L1112,1122.5412 L1112,1122.5412 L1111.9556,1122.33 L1108.8523,1123.1696 L1105.6652,1123.6104 L1102.6033,1124.6471 L1099.4916,1125.4464 L1096.2949,1125.8419 L1096.3128,1126.0833 L1092.6756,1125.916 L1089.1001,1126.5818 L1085.4554,1126.314 L1081.8814,1126.999 L1078.2698,1127.1774 L1078.2633,1127.0445 L1073.596,1127.4493 L1068.9233,1127.7421 L1064.2525,1128.074 L1059.5508,1127.7738 L1054.8906,1128.3224 L1054.898,1128.5336 L1049.3609,1128.5954 L1043.8312,1128.8679 L1038.3049,1129.2361 L1032.7608,1129.1002 L1027.2283,1129.2916 L1027.2303,1129.3695 L1021.0558,1129.5481 L1014.8807,1129.7025 L1008.7034,1129.7762 L1002.5367,1130.2539 L996.3535,1130.0998 L996.3481,1129.8288 L989.7553,1130.4833 L983.1414,1130.0871 L976.5389,1130.2566 L969.9408,1130.6468 L963.3372,1130.7614 L963.3374,1130.7739 L956.5163,1130.6483 L949.7052,1131.1571 L942.8856,1131.1276 L936.0725,1131.5081 L929.25,1131.2912 L929.2596,1132.1806 L919.6573,1130.7968 L910.0719,1130.9671 L900.4895,1131.4286 L890.9102,1132.1781 L881.3247,1132.3446 L871.737,1132.3121 L862.1465,1132.0138 L862.1436,1131.5579 L852.3957,1132.9241 L842.6395,1132.9825 L832.8775,1132.1363 L823.1197,1131.9425 L813.3622,1131.7879 L803.6094,1132.3849 L803.6086,1132.0988 L794.0916,1132.5942 L784.5727,1132.3458 L775.0532,1131.906 L765.5382,1133.1389 L756.0166,1131.9032 L746.5,1132.5412 L746.5,1132.5412 L746.5018,1133.211 L736.9833,1133.0848 L727.4649,1132.9849 L717.9478,1133.3864 L708.4262,1132.1091 L698.9078,1132.0101 L689.3906,1132.3849 L689.395,1133.0767 L679.6294,1131.5272 L669.8763,1131.9492 L660.123,1132.3534 L650.3665,1132.2291 L640.6067,1131.5977 L630.8535,1132.0138 L630.8529,1131.9565 L621.278,1132.9033 L611.6904,1132.6719 L602.0863,1130.9091 L592.5098,1131.7056 L582.9151,1130.8125 L573.3358,1131.3593 L563.75,1131.2912 L563.752,1131.4214 L556.9355,1131.3718 L550.1105,1130.7838 L543.3005,1131.1513 L536.4803,1130.8711 L529.6628,1130.7614 L529.6579,1130.5146 L523.0554,1130.4197 L516.4592,1130.6419 L509.8553,1130.4754 L503.2496,1130.2248 L496.6465,1130.0998 L496.6387,1129.8011 L490.4792,1130.2305 L484.293,1129.638 L478.1155,1129.3803 L471.9459,1129.4234 L465.7717,1129.2916 L465.7809,1129.5536 L460.2488,1129.3712 L454.7073,1128.9196 L449.172,1128.643 L443.6445,1128.5917 L438.1094,1128.3224 L438.1134,1128.4051 L433.4225,1127.868 L428.7667,1128.0482 L424.094,1127.8835 L419.4014,1127.3106 L414.7302,1127.1774 L414.7161,1126.9872 L411.1473,1127.2093 L407.5209,1126.6525 L403.9151,1126.3761 L400.3199,1126.2416 L396.7051,1125.8419 L396.6461,1125.5611 L393.6125,1125.4123 L390.4216,1124.5149 L387.3432,1124.1524 L384.1213,1123.1074 L381,1122.5412 L382.0907,1122.5412 L379.816,1112.3948 L381.6534,1102.2485 L382.0114,1092.1022 L380.1271,1081.9558 L381.968,1071.8095 L379.4762,1061.6632 L379.7454,1051.5168 L382.8209,1041.3705 L382.825,1031.2242 L382.516,1021.0778 L380.039,1010.9315 L382.0246,1000.7852 L379.7412,990.6388 L381.1551,980.4925 L380.9967,970.3462 L380.3002,960.1998 L382.6424,950.0535 L382.1821,939.9072 L380.1447,929.7608 L382.4043,919.6145 L381.245,909.4682 L379.4438,899.3218 L380.3778,889.1755 L379.5993,879.0292 L380.6291,868.8828 L379.3227,858.7365 L379.3996,848.5902 L381.1875,838.4438 L380.679,828.2975 L381,818.1512 " fill="#FFC7D8" style="stroke:#181818;stroke-width:4.0;"/><path d="M381,818.1512 L381,818.1512 L381.0192,818.2426 L384.1031,818.6311 L387.2997,819.5555 L390.4596,820.3055 L393.4988,820.4815 L396.7051,821.4519 L396.7025,821.4175 L400.2961,821.53 L403.9025,821.8161 L407.5179,822.223 L411.1025,822.2139 L414.7302,822.7874 L414.7423,823.0332 L419.3924,822.7366 L424.0776,823.1576 L428.7671,823.6661 L433.4317,823.6653 L438.1094,823.9324 L438.1104,823.9627 L443.6413,824.1121 L449.1771,824.3994 L454.7105,824.6202 L460.2484,824.9679 L465.7717,824.9016 L465.7795,825.1998 L471.9546,825.3651 L478.1246,825.338 L484.302,825.5925 L490.4797,825.8601 L496.6465,825.7098 L496.6401,825.3893 L503.2558,826.1436 L509.8504,825.8427 L516.4611,826.3439 L523.0552,826.0191 L529.6628,826.3714 L529.6624,826.3409 L536.4854,826.8069 L543.2974,826.5616 L550.1159,826.736 L556.9349,826.9457 L563.75,826.9012 L563.756,827.4561 L573.3362,826.9992 L582.9266,827.4906 L592.5004,826.4477 L602.0989,827.6933 L611.689,828.1482 L621.2737,828.1133 L630.8535,827.6238 L630.8587,828.4412 L640.6056,827.0416 L650.3604,826.878 L660.1168,826.9808 L669.8778,827.7927 L679.6328,827.671 L689.3906,827.9949 L689.3931,828.9035 L698.9082,827.7881 L708.4258,827.5896 L717.9461,828.3774 L727.4611,827.21 L736.9799,827.433 L746.5,828.1512 L746.5,828.1512 L746.5024,829.0164 L756.0198,828.706 L765.5391,829.0784 L775.0535,827.644 L784.5741,828.4726 L794.0933,828.8082 L803.6094,827.9949 L803.6054,827.365 L813.3647,827.8053 L823.1228,828.0392 L832.8834,828.6784 L842.6341,827.7419 L852.3942,828.3024 L862.1465,827.6238 L862.1385,826.8855 L871.723,826.6176 L881.3261,828.0888 L890.8948,826.3582 L900.4987,827.8894 L910.0805,827.3831 L919.6599,826.6472 L929.25,826.9012 L929.2476,826.7439 L936.0706,826.9991 L942.8828,826.5562 L949.7064,826.8463 L956.5159,826.2317 L963.3372,826.3714 L963.3427,826.6457 L969.9447,826.4543 L976.5459,826.2156 L983.1474,825.9954 L989.7567,826.165 L996.3535,825.7098 L996.3607,825.9824 L1002.5304,825.6233 L1008.7065,825.5057 L1014.8769,825.167 L1021.0617,825.3816 L1027.2283,824.9016 L1027.2307,824.9704 L1032.7634,824.7845 L1038.2837,824.2437 L1043.8194,824.1401 L1049.3664,824.362 L1054.8906,823.9324 L1054.9,824.1232 L1059.5655,823.6843 L1064.2353,823.3314 L1068.9134,823.1482 L1073.579,822.7118 L1078.2698,822.7874 L1078.2834,822.9712 L1081.8991,822.8481 L1085.4971,822.4865 L1089.1077,822.2941 L1092.6854,821.6584 L1096.2949,821.4519 L1096.3029,821.4899 L1099.4005,820.6232 L1102.6029,820.2552 L1105.7405,819.5788 L1108.9095,819.0516 L1112,818.1512 " fill="none" style="stroke:#181818;stroke-width:4.0;"/><text fill="#000000" font-family="Chalkduster" font-size="24" font-style="italic" lengthAdjust="spacing" textLength="175" x="659" y="853.992">&#171;workspace&#187;</text><text fill="#000000" font-family="Chalkduster" font-size="24" font-weight="bold" lengthAdjust="spacing" textLength="174" x="659.5" y="884.6219">Computation</text></g><!--entity coll--><g id="elem_coll"><polygon fill="none" points="340.0442,177.8371,338.8715,179.4394,337.4845,181.7862,335.5008,183.3678,333.4163,184.2327,331.7542,184.3078,329.618,183.2261,327.6023,182.5195,326.0724,181.0847,325.2699,179.4423,324.7939,178.1345,324.3277,176.4262,323.5709,174.9562,324.1525,173.521,324.662,171.9488,326.574,170.7053,327.9192,169.092,329.5843,168.5562,331.5637,168.0948,334.1021,168.369,335.4924,169.0246,337.1089,169.3218,339.0743,171.3355,339.7595,173.4613,340.0571,174.9118,339.72,177.302" style="stroke:#8B0000;stroke-width:4.0;"/><path d="M332,183.8912 L332.1868,183.8912 L331.6317,189.2912 L332.1718,194.6912 L332.3553,200.0912 L331.3659,205.4912 L332,210.8912 M319,191.8912 L319,191.8221 L324.2,191.5121 L329.4,191.5503 L334.6,191.8306 L339.8,191.2766 L345,191.8912 M332,210.8912 L332.3719,211.2135 L328.9766,213.5242 L326.6672,216.776 L324.4901,220.1426 L321.5424,222.8412 L319,225.8912 M332,210.8912 L332.0458,210.9309 L334.5785,213.8726 L337.3199,216.9951 L339.9606,220.0304 L342.7934,223.2321 L345,225.8912 " fill="none" style="stroke:#8B0000;stroke-width:4.0;"/><text fill="#000000" font-family="Chalkduster" font-size="24" lengthAdjust="spacing" textLength="99" x="282.5" y="254.732">Collect</text></g><!--entity cur--><g id="elem_cur"><polygon fill="none" points="210.0442,177.8371,208.8715,179.4394,207.4845,181.7862,205.5008,183.3678,203.4163,184.2327,201.7542,184.3078,199.618,183.2261,197.6023,182.5195,196.0724,181.0847,195.2699,179.4423,194.7939,178.1345,194.3277,176.4262,193.5709,174.9562,194.1525,173.521,194.662,171.9488,196.574,170.7053,197.9192,169.092,199.5843,168.5562,201.5637,168.0948,204.1021,168.369,205.4924,169.0246,207.1089,169.3218,209.0743,171.3355,209.7595,173.4613,210.0571,174.9118,209.72,177.302" style="stroke:#8B0000;stroke-width:4.0;"/><path d="M202,183.8912 L202.1868,183.8912 L201.6317,189.2912 L202.1718,194.6912 L202.3553,200.0912 L201.3659,205.4912 L202,210.8912 M189,191.8912 L189,191.8221 L194.2,191.5121 L199.4,191.5503 L204.6,191.8306 L209.8,191.2766 L215,191.8912 M202,210.8912 L202.3719,211.2135 L198.9766,213.5242 L196.6672,216.776 L194.4901,220.1426 L191.5424,222.8412 L189,225.8912 M202,210.8912 L202.0458,210.9309 L204.5785,213.8726 L207.3199,216.9951 L209.9606,220.0304 L212.7934,223.2321 L215,225.8912 " fill="none" style="stroke:#8B0000;stroke-width:4.0;"/><text fill="#000000" font-family="Chalkduster" font-size="24" lengthAdjust="spacing" textLength="91" x="156.5" y="254.732">Curate</text></g><!--entity int--><g id="elem_int"><polygon fill="none" points="184.0442,336.4671,182.8715,338.0694,181.4845,340.4162,179.5008,341.9978,177.4163,342.8627,175.7542,342.9378,173.618,341.8561,171.6023,341.1495,170.0724,339.7147,169.2699,338.0723,168.7939,336.7645,168.3277,335.0562,167.5709,333.5862,168.1525,332.151,168.662,330.5788,170.574,329.3353,171.9192,327.722,173.5843,327.1862,175.5637,326.7248,178.1021,326.999,179.4924,327.6546,181.1089,327.9518,183.0743,329.9655,183.7595,332.0913,184.0571,333.5418,183.72,335.932" style="stroke:#8B0000;stroke-width:4.0;"/><path d="M176,342.5212 L176.1868,342.5212 L175.6317,347.9212 L176.1718,353.3212 L176.3553,358.7212 L175.3659,364.1212 L176,369.5212 M163,350.5212 L163,350.4521 L168.2,350.1421 L173.4,350.1803 L178.6,350.4606 L183.8,349.9066 L189,350.5212 M176,369.5212 L176.3719,369.8435 L172.9766,372.1542 L170.6672,375.406 L168.4901,378.7726 L165.5424,381.4712 L163,384.5212 M176,369.5212 L176.0458,369.5609 L178.5785,372.5026 L181.3199,375.6251 L183.9606,378.6604 L186.7934,381.8621 L189,384.5212 " fill="none" style="stroke:#8B0000;stroke-width:4.0;"/><text fill="#000000" font-family="Chalkduster" font-size="24" lengthAdjust="spacing" textLength="130" x="111" y="413.362">Integrate</text></g><!--entity an--><g id="elem_an"><polygon fill="none" points="337.0442,336.4671,335.8715,338.0694,334.4845,340.4162,332.5008,341.9978,330.4163,342.8627,328.7542,342.9378,326.618,341.8561,324.6023,341.1495,323.0724,339.7147,322.2699,338.0723,321.7939,336.7645,321.3277,335.0562,320.5709,333.5862,321.1525,332.151,321.662,330.5788,323.574,329.3353,324.9192,327.722,326.5843,327.1862,328.5637,326.7248,331.1021,326.999,332.4924,327.6546,334.1089,327.9518,336.0743,329.9655,336.7595,332.0913,337.0571,333.5418,336.72,335.932" style="stroke:#8B0000;stroke-width:4.0;"/><path d="M329,342.5212 L329.1868,342.5212 L328.6317,347.9212 L329.1718,353.3212 L329.3553,358.7212 L328.3659,364.1212 L329,369.5212 M316,350.5212 L316,350.4521 L321.2,350.1421 L326.4,350.1803 L331.6,350.4606 L336.8,349.9066 L342,350.5212 M329,369.5212 L329.3719,369.8435 L325.9766,372.1542 L323.6672,375.406 L321.4901,378.7726 L318.5424,381.4712 L316,384.5212 M329,369.5212 L329.0458,369.5609 L331.5785,372.5026 L334.3199,375.6251 L336.9606,378.6604 L339.7934,381.8621 L342,384.5212 " fill="none" style="stroke:#8B0000;stroke-width:4.0;"/><text fill="#000000" font-family="Chalkduster" font-size="24" lengthAdjust="spacing" textLength="106" x="276" y="413.362">Analyse</text></g><!--entity repo--><g id="elem_repo"><path d="M47.5,916.6512 L47.5,916.6512 L47.5416,916.7348 L48.7458,915.8261 L50.1937,915.4078 L51.5623,914.8298 L52.6698,913.7266 L54.1387,913.3504 L54.1338,913.3162 L57.6125,912.6666 L61.1155,912.1894 L64.6356,911.8321 L68.0971,911.0618 L71.6406,910.8699 L71.661,911.1151 L73.9561,910.3969 L76.3106,910.3946 L78.6724,910.4797 L80.992,910.0565 L83.3337,909.9007 L83.3356,909.9309 L85.9431,909.7249 L88.5591,909.6566 L91.1709,909.5219 L93.7906,909.514 L96.3848,909.0926 L96.3989,909.3905 L99.1903,909.2618 L101.9726,908.941 L104.7683,908.9014 L107.5646,908.875 L110.3411,908.4309 L110.3293,908.1106 L113.2339,908.6263 L116.0998,908.0873 L118.9951,908.3502 L121.8601,907.7873 L124.75,907.9012 L124.7492,907.8707 L130.4314,908.0861 L136.0955,907.5904 L141.7703,907.5144 L147.446,907.4735 L153.1152,907.1785 L153.118,907.3635 L158.064,907.1026 L163.0148,907.1577 L167.9579,906.7015 L172.9124,907.008 L177.8594,906.8074 L177.861,907.051 L182.6888,906.9737 L187.5174,907.0174 L192.3424,906.499 L197.17,906.3926 L202,906.6512 L202,906.6512 L201.9982,906.375 L206.828,906.6562 L211.6557,906.6263 L216.4863,907.0478 L221.312,906.6985 L226.1406,906.8074 L226.1383,906.655 L231.091,906.9831 L236.0338,906.6595 L240.9836,906.7994 L245.9403,907.3927 L250.8848,907.1785 L250.8897,907.3721 L256.5661,907.6494 L262.2272,907.3246 L267.9075,907.7539 L273.5836,908.019 L279.25,907.9012 L279.2423,907.6913 L282.1302,907.9645 L285.0156,908.169 L287.906,908.5085 L290.7771,908.3231 L293.6589,908.4309 L293.6687,908.6363 L296.4385,908.3174 L299.2272,908.3949 L302.0433,909.0515 L304.8089,908.642 L307.6152,909.0926 L307.6292,909.3183 L310.2311,909.3458 L312.8283,909.297 L315.4361,909.4205 L318.0687,909.9426 L320.6663,909.9007 L320.6553,909.7681 L323.0266,910.3567 L325.3232,910.0435 L327.7048,910.7557 L330.0385,910.8906 L332.3594,910.8699 L332.3747,910.9777 L335.8627,911.3868 L339.4055,912.1818 L342.8988,912.6282 L346.3715,912.9288 L349.8613,913.3504 L349.9144,913.4571 L351.1633,913.9587 L352.6586,914.9558 L353.8752,915.3925 L355.2064,916.0597 L356.5,916.6512 L354.8777,916.6512 L355.4194,926.6883 L357.9153,936.7254 L357.646,946.7624 L356.3855,956.7995 L355.6409,966.8366 L355.9162,976.8737 L356.5,986.9108 L356.5,986.9108 L356.3642,986.6378 L355.2543,987.736 L353.9909,988.5255 L352.621,989.1008 L351.3266,989.828 L349.8613,990.2116 L349.8528,990.1514 L346.3664,990.7461 L342.8364,991.0332 L339.3779,991.8249 L335.8752,992.3046 L332.3594,992.6921 L332.3797,992.9367 L330.0123,992.7842 L327.6772,993.0202 L325.3598,993.47 L323.0257,993.7188 L320.6663,993.6613 L320.6522,993.434 L318.0507,993.7369 L315.4499,994.0508 L312.8189,993.8752 L310.2351,994.4646 L307.6152,994.4694 L307.6207,994.584 L304.8219,994.557 L302.0357,994.7972 L299.2568,995.1899 L296.4436,994.8598 L293.6589,995.131 L293.6641,995.2709 L290.7818,995.3639 L287.8973,995.3944 L285.0159,995.5115 L282.1336,995.6053 L279.25,995.6608 L279.2429,995.3835 L273.5724,995.6273 L267.8987,995.7448 L262.2316,996.1228 L256.5588,996.2781 L250.8848,996.3835 L250.8858,996.4554 L245.934,996.3284 L240.9867,996.5019 L236.0375,996.5527 L231.0933,996.9367 L226.1406,996.7546 L226.1419,996.9442 L221.3111,996.57 L216.4842,996.7847 L211.6546,996.5918 L206.829,997.0077 L202,996.9108 L202,996.9108 L202.0018,997.1813 L197.1734,997.1216 L192.3425,996.6548 L187.517,997.0233 L182.6854,996.4557 L177.8594,996.7546 L177.8607,996.8435 L172.9086,996.5473 L167.9624,996.6491 L163.0145,996.6387 L158.0672,996.6675 L153.1152,996.3835 L153.1071,996.0636 L147.4476,996.4502 L141.7712,996.1736 L136.1001,996.1078 L130.4315,996.1376 L124.75,995.6608 L124.7501,995.6633 L121.8711,995.6327 L118.9899,995.5437 L116.1079,995.4306 L113.2228,995.2366 L110.3411,995.131 L110.356,995.4466 L107.537,994.728 L104.7704,995.1173 L101.9542,994.457 L99.1647,994.3619 L96.3848,994.4694 L96.3859,994.4872 L93.7753,994.3203 L91.1508,993.9276 L88.5655,994.1681 L85.9469,993.8712 L83.3337,993.6613 L83.3604,993.9832 L81.0196,993.7629 L78.64,993.0751 L76.3033,992.9035 L73.9745,992.8287 L71.6406,992.6921 L71.6628,992.8485 L68.1654,992.3733 L64.6586,991.8324 L61.1181,991.0533 L57.6787,990.9877 L54.1387,990.2116 L54.2641,990.4638 L52.8016,989.5326 L51.4359,988.7962 L50.076,988.0714 L48.7853,987.4856 L47.5,986.9108 L47.8664,986.9108 L47.3176,976.8737 L46.3859,966.8366 L48.7997,956.7995 L46.2762,946.7624 L48.8397,936.7254 L48.6393,926.6883 L47.5,916.6512 " fill="#00FF7F" style="stroke:#181818;stroke-width:4.0;"/><path d="M47.5,916.6512 L47.5,916.6512 L47.5416,916.7348 L48.7458,917.1464 L50.1937,918.0484 L51.5623,918.7907 L52.6698,919.0079 L54.1387,919.9519 L54.1338,919.9177 L57.6125,920.2604 L61.1155,920.7754 L64.6356,921.4102 L68.0971,921.6321 L71.6406,922.4324 L71.661,922.6776 L73.9561,922.3471 L76.3106,922.7325 L78.6724,923.2053 L80.992,923.1698 L83.3337,923.4016 L83.3356,923.4319 L85.9431,923.5491 L88.5591,923.8041 L91.1709,923.9926 L93.7906,924.3079 L96.3848,924.2098 L96.3989,924.5077 L99.1903,924.6436 L101.9726,924.5874 L104.7683,924.8125 L107.5646,925.0508 L110.3411,924.8714 L110.3293,924.5511 L113.2339,925.2787 L116.0998,924.9516 L118.9951,925.4263 L121.8601,925.0753 L124.75,925.4012 L124.7492,925.3707 L130.4314,925.8752 L136.0955,925.6686 L141.7703,925.8815 L147.446,926.1297 L153.1152,926.1238 L153.118,926.3088 L158.064,926.1963 L163.0148,926.3999 L167.9579,926.0921 L172.9124,926.5471 L177.8594,926.4949 L177.861,926.7385 L182.6888,926.7237 L187.5174,926.8299 L192.3424,926.374 L197.17,926.3301 L202,926.6512 L202,926.6512 L201.9982,926.375 L206.828,926.5937 L211.6557,926.5013 L216.4863,926.8603 L221.312,926.4485 L226.1406,926.4949 L226.1383,926.3425 L231.091,926.5221 L236.0338,926.0501 L240.9836,926.0416 L245.9403,926.4864 L250.8848,926.1238 L250.8897,926.3174 L256.5661,926.3056 L262.2272,925.6918 L267.9075,925.832 L273.5836,925.808 L279.25,925.4012 L279.2423,925.1913 L282.1302,925.2526 L285.0156,925.2452 L287.906,925.3728 L290.7771,924.9755 L293.6589,924.8714 L293.6687,925.0767 L296.4385,924.4932 L299.2272,924.3061 L302.0433,924.698 L304.8089,924.0238 L307.6152,924.2098 L307.6292,924.4355 L310.2311,924.1398 L312.8283,923.7677 L315.4361,923.568 L318.0687,923.7668 L320.6663,923.4016 L320.6553,923.2691 L323.0266,923.47 L325.3232,922.7691 L327.7048,923.0936 L330.0385,922.8408 L332.3594,922.4324 L332.3747,922.5402 L335.8627,921.9571 L339.4055,921.76 L342.8988,921.2141 L346.3715,920.5225 L349.8613,919.9519 L349.9144,920.0587 L351.1633,919.2399 L352.6586,918.9168 L353.8752,918.0331 L355.2064,917.38 L356.5,916.6512 " fill="none" style="stroke:#181818;stroke-width:4.0;"/><text fill="#000000" font-family="Chalkduster" font-size="24" font-style="italic" lengthAdjust="spacing" textLength="169" x="117.5" y="954.492">&#171;repository&#187;</text><text fill="#000000" font-family="Chalkduster" font-size="24" lengthAdjust="spacing" textLength="289" x="57.5" y="985.1219">Archival Repositories</text></g><!--entity Collections\neg websites--><g id="elem_Collections\neg websites"><polygon fill="none" points="408,911.1512,408,911.3613,418,910.7368,428,911.3444,438,911.5508,448,910.4378,458,911.0734,468,910.7247,478,910.7677,488,911.083,498,910.4598,508,911.7048,518,910.5209,528,910.9534,538,911.5831,548,911.0654,558,911.2194,568,911.1192,578,911.1512,578.0228,911.2061,578.3841,911.3713,578.7818,911.6244,579.1463,911.7972,579.5009,911.9461,579.7678,911.8834,579.8462,911.9159,580.057,912.2961,580.2769,912.6801,579.985,912.8521,580.5625,913.3842,580.5,913.6512,580.2035,913.6512,581.0338,923.1836,580.005,932.7161,580.4315,942.2485,581.2416,951.781,580.4513,961.3135,580.6053,970.8459,580.8386,980.3784,580.5,989.9108,580.6282,989.9639,580.3524,990.2639,580.2956,990.6546,579.8844,990.8985,580.0018,991.3613,579.7678,991.6786,579.8377,991.8474,579.4709,991.9619,579.1389,992.1603,578.6455,991.9692,578.2704,992.0635,578,992.4108,578,991.7894,568,992.3519,558,992.2143,548,993.0922,538,992.2361,528,992.0678,518,992.6391,508,991.744,498,991.8917,488,993.0598,478,992.8465,468,993.1453,458,992.089,448,992.73,438,993.0012,428,991.9384,418,992.315,408,992.4108,408.0161,992.4496,407.7296,992.4651,407.2924,992.1166,406.9983,992.1139,406.5151,991.6545,406.2322,991.6786,406.0237,991.5922,406.2409,991.3893,405.7186,990.88,405.9496,990.6829,405.7101,990.2907,405.5,989.9108,405.2321,989.9108,405.1462,980.3784,405.9588,970.8459,405.2007,961.3135,406.0919,951.781,404.9473,942.2485,406.1174,932.7161,405.9843,923.1836,405.5,913.6512,405.5754,913.6824,405.661,913.3036,406.0167,913.0367,406.1283,912.6688,406.1379,912.2585,406.2322,911.8834,406.2664,911.966,406.5692,911.6968,407.0307,911.8111,407.3126,911.4917,407.6685,911.3508,408,911.1512" style="stroke:#181818;stroke-width:4.0;"/><text fill="#000000" font-family="Chalkduster" font-size="24" lengthAdjust="spacing" textLength="155" x="415.5" y="944.992">Collections</text><text fill="#000000" font-family="Chalkduster" font-size="24" lengthAdjust="spacing" textLength="151" x="415.5" y="975.6219">eg websites</text></g><!--entity Working data--><g id="elem_Working data"><polygon fill="none" points="618.5,926.4712,618.5,926.6813,628.2619,926.0568,638.0238,926.6644,647.7857,926.8708,657.5476,925.7578,667.3095,926.3934,677.0714,926.0447,686.8333,926.0877,696.5952,926.403,706.3571,925.7798,716.119,927.0248,725.881,925.8409,735.6429,926.2734,745.4048,926.9031,755.1667,926.3854,764.9286,926.5394,774.6905,926.4392,784.4524,926.6497,794.2143,926.7103,803.9762,927.0569,813.7381,927.1422,823.5,926.4712,823.5866,926.6803,823.886,926.696,824.2662,926.9068,824.6502,927.1268,824.8222,926.8349,825.2678,927.2034,825.4767,927.2899,825.3229,927.5191,825.7251,927.9786,825.5547,928.2009,825.8325,928.6089,826,928.9712,826.7416,928.9712,825.9513,938.0971,826.1053,947.2231,826.3386,956.3491,826.4162,965.475,826,974.601,825.9988,974.6005,825.942,974.9912,825.5308,975.2351,825.6482,975.6979,825.583,976.0851,825.2678,976.3688,825.3245,976.5057,824.9924,976.704,824.499,976.5129,824.1239,976.6073,823.7743,976.7632,823.5,977.101,823.5,977.0421,813.7381,976.9045,803.9762,977.7824,794.2143,976.9263,784.4524,976.7579,774.6905,977.3293,764.9286,976.4342,755.1667,976.5819,745.4048,977.7499,735.6429,977.5367,725.881,977.8355,716.119,976.7792,706.3571,977.4202,696.5952,977.6914,686.8333,976.6286,677.0714,977.0051,667.3095,977.227,657.5476,977.7528,647.7857,977.0968,638.0238,977.5636,628.2619,976.5472,618.5,977.101,618.4136,976.8924,618.2107,977.1096,617.7014,976.5873,617.5043,976.8184,617.1121,976.5788,616.7322,976.3688,616.6497,976.3346,616.4768,975.9701,616.5806,975.7202,616.2007,975.2699,616.3287,975.03,616,974.601,615.4473,974.601,616.6174,965.475,616.4843,956.3491,616.245,947.2231,616.0472,938.0971,616,928.9712,616.2238,929.0638,616.3354,928.6959,616.345,928.2856,616.5219,927.9447,616.5457,927.5403,616.7322,927.2034,616.8236,927.424,617.1055,927.1046,617.4614,926.9636,617.7153,926.5767,618.0948,926.4928,618.5,926.4712" style="stroke:#181818;stroke-width:4.0;"/><text fill="#000000" font-family="Chalkduster" font-size="24" lengthAdjust="spacing" textLength="190" x="626" y="960.312">Working data</text></g><!--entity Bibliographies--><g id="elem_Bibliographies"><polygon fill="none" points="863.5,926.4712,863.5,926.6813,873.65,926.0568,883.8,926.6644,893.95,926.8708,904.1,925.7578,914.25,926.3934,924.4,926.0447,934.55,926.0877,944.7,926.403,954.85,925.7798,965,927.0248,975.15,925.8409,985.3,926.2734,995.45,926.9031,1005.6,926.3854,1015.75,926.5394,1025.9,926.4392,1036.05,926.6497,1046.2,926.7103,1056.35,927.0569,1066.5,926.4712,1066.5856,926.6778,1066.9402,926.8268,1067.2396,926.8425,1067.6198,927.0533,1068.0038,927.2732,1068.2678,927.2034,1068.0457,927.1114,1068.6232,927.6435,1068.4693,927.8727,1068.8715,928.3321,1068.7011,928.5545,1069,928.9712,1068.9315,928.9712,1069.7416,938.0971,1068.9513,947.2231,1069.1053,956.3491,1069.3386,965.475,1069,974.601,1069.1282,974.6541,1068.8524,974.954,1068.7956,975.3447,1068.3844,975.5886,1068.5018,976.0515,1068.2678,976.3688,1068.3377,976.5376,1067.9709,976.6521,1067.6389,976.8504,1067.1455,976.6593,1066.7704,976.7537,1066.5,977.101,1066.5,976.4796,1056.35,977.0421,1046.2,976.9045,1036.05,977.7824,1025.9,976.9263,1015.75,976.7579,1005.6,977.3293,995.45,976.4342,985.3,976.5819,975.15,977.7499,965,977.5367,954.85,977.8355,944.7,976.7792,934.55,977.4202,924.4,977.6914,914.25,976.6286,904.1,977.0051,893.95,977.227,883.8,977.7528,873.65,977.0968,863.5,977.101,863.559,977.2434,863.0758,976.784,862.7065,976.5995,862.5036,976.8167,861.9943,976.2944,861.7322,976.3688,861.889,976.4337,861.6494,976.0416,861.3568,975.6275,861.1839,975.263,861.2877,975.0131,861,974.601,860.7007,974.601,861.5919,965.475,860.4473,956.3491,861.6174,947.2231,861.4843,938.0971,861,928.9712,861.0754,929.0024,861.161,928.6236,861.5167,928.3567,861.6283,927.9888,861.6379,927.5785,861.7322,927.2034,861.7664,927.286,862.0692,927.0168,862.5307,927.1311,862.8126,926.8117,863.1685,926.6708,863.5,926.4712" style="stroke:#181818;stroke-width:4.0;"/><text fill="#000000" font-family="Chalkduster" font-size="24" lengthAdjust="spacing" textLength="188" x="871" y="960.312">Bibliographies</text></g><!--entity Code--><g id="elem_Code"><polygon fill="none" points="450.5,1057.9112,450.5,1058.1213,459.9444,1057.4968,469.3889,1058.1044,478.8333,1058.3108,488.2778,1057.1978,497.7222,1057.8334,507.1667,1057.4847,516.6111,1057.5277,526.0556,1057.843,535.5,1057.9112,535.4118,1057.6982,535.9242,1058.2281,536.1267,1058.01,536.5354,1058.2896,536.9693,1058.63,537.2678,1058.6434,537.2414,1058.6325,537.4352,1059.0057,537.5508,1059.3464,537.7621,1059.7268,537.9272,1060.0881,538,1060.4112,538.5857,1060.4112,538.6711,1069.5371,538.6793,1078.6631,538.2546,1087.7891,538.4636,1096.915,538,1106.041,538.2163,1106.1306,537.6315,1106.3026,537.9161,1106.8347,537.4693,1107.0638,537.5786,1107.5233,537.2678,1107.8088,537.2046,1107.6563,536.9055,1107.9341,536.6553,1108.33,536.2009,1108.2331,535.867,1108.427,535.5,1108.541,535.5,1108.8796,526.0556,1108.9572,516.6111,1108.5371,507.1667,1108.8282,497.7222,1107.9686,488.2778,1108.8254,478.8333,1109.0892,469.3889,1108.9855,459.9444,1109.154,450.5,1108.541,450.4384,1108.3922,450.0633,1108.1937,449.7136,1108.0567,449.4318,1108.0835,449.0607,1107.8947,448.7322,1107.8088,448.9421,1107.8957,448.532,1107.4329,448.3337,1107.0579,448.3632,1106.7772,447.9411,1106.3095,448,1106.041,447.4809,1106.041,448.649,1096.915,448.4357,1087.7891,448.7345,1078.6631,447.6782,1069.5371,448,1060.4112,448.0983,1060.4519,448.3283,1060.1329,448.1474,1059.6438,448.4098,1059.3383,448.6246,1059.013,448.7322,1058.6434,448.8154,1058.8441,449.0853,1058.4957,449.4983,1058.493,449.7223,1058.0335,450.0601,1057.849,450.5,1057.9112" style="stroke:#181818;stroke-width:4.0;"/><text fill="#000000" font-family="Chalkduster" font-size="24" lengthAdjust="spacing" textLength="70" x="458" y="1091.752">Code</text></g><!--entity Desktop computers--><g id="elem_Desktop computers"><polygon fill="none" points="575.5,1057.9112,575.5,1058.1213,585.537,1057.4968,595.5741,1058.1044,605.6111,1058.3108,615.6481,1057.1978,625.6852,1057.8334,635.7222,1057.4847,645.7593,1057.5277,655.7963,1057.843,665.8333,1057.2198,675.8704,1058.4648,685.9074,1057.2809,695.9444,1057.7134,705.9815,1058.3431,716.0185,1057.8254,726.0556,1057.9794,736.0926,1057.8792,746.1296,1058.0897,756.1667,1058.1503,766.2037,1058.4969,776.2407,1058.5822,786.2778,1058.5904,796.3148,1058.1658,806.3519,1058.3747,816.3889,1058.6134,826.4259,1057.19,836.463,1058.5897,846.5,1057.9112,846.4622,1057.8198,846.9216,1058.222,847.144,1058.0516,847.5519,1058.3294,848.0088,1058.7253,848.2678,1058.6434,848.2528,1058.6372,848.4466,1059.0104,848.6649,1059.3937,848.8353,1059.7571,848.8524,1060.0571,849,1060.4112,849.2872,1060.4112,848.4276,1069.5371,849.2844,1078.6631,849.5482,1087.7891,849.4445,1096.915,849,1106.041,849.1888,1106.1192,848.7048,1106.3329,848.5063,1106.6649,848.3693,1107.0224,848.3961,1107.4477,848.2678,1107.8088,848.2427,1107.7482,848.0011,1108.1651,847.5384,1108.0479,847.1633,1108.1425,846.8827,1108.4648,846.5,1108.541,846.5,1107.8742,836.463,1108.0219,826.4259,1109.1899,816.3889,1108.9767,806.3519,1109.2755,796.3148,1108.2192,786.2778,1108.8602,776.2407,1109.1314,766.2037,1108.0686,756.1667,1108.4451,746.1296,1108.667,736.0926,1109.1928,726.0556,1108.5368,716.0185,1109.0036,705.9815,1107.9872,695.9444,1107.8637,685.9074,1109.0446,675.8704,1107.8241,665.8333,1109.05,655.7963,1108.7476,645.7593,1108.2731,635.7222,1108.1872,625.6852,1108.9998,615.6481,1108.2417,605.6111,1109.1329,595.5741,1107.9882,585.537,1109.1584,575.5,1108.541,575.5618,1108.6901,575.1777,1108.47,574.7989,1108.2626,574.532,1108.3254,574.1641,1108.1442,573.7322,1107.8088,573.7844,1107.8304,573.6684,1107.4894,573.3992,1107.085,573.5135,1106.8395,573.1941,1106.4143,573,1106.041,573.1726,1106.041,572.3916,1096.915,572.5948,1087.7891,573.5307,1078.6631,573.4298,1069.5371,573,1060.4112,572.9868,1060.4057,573.0472,1060.0165,573.2255,1059.6761,573.228,1059.263,573.7135,1059.0499,573.7322,1058.6434,573.8266,1058.8712,574.1529,1058.6591,574.528,1058.5645,574.7755,1058.1619,575.1576,1058.0845,575.5,1057.9112" style="stroke:#181818;stroke-width:4.0;"/><text fill="#000000" font-family="Chalkduster" font-size="24" lengthAdjust="spacing" textLength="256" x="583" y="1091.752">Desktop computers</text></g><!--entity more...--><g id="elem_more..."><polygon fill="none" points="886,1057.9112,886,1058.1213,895.8182,1057.4968,905.6364,1058.1044,915.4545,1058.3108,925.2727,1057.1978,935.0909,1057.8334,944.9091,1057.4847,954.7273,1057.5277,964.5455,1057.843,974.3636,1057.2198,984.1818,1058.4648,994,1057.9112,993.9196,1057.7171,994.3283,1057.9967,994.7622,1058.3371,995.0497,1058.3241,995.4229,1058.518,995.7678,1058.6434,995.7579,1058.6393,995.9692,1059.0197,996.1343,1059.381,996.3875,1059.7788,996.5602,1060.1432,996.5,1060.4112,997.1793,1060.4112,996.7546,1069.5371,996.9636,1078.6631,997.2022,1087.7891,995.7788,1096.915,996.5,1106.041,996.709,1106.1275,996.2622,1106.3567,996.3715,1106.8162,995.9082,1107.0385,995.8931,1107.4465,995.7678,1107.8088,995.8624,1108.0371,995.408,1107.9402,995.0741,1108.1341,994.7503,1108.3524,994.4066,1108.5227,994,1108.541,994,1108.5371,984.1818,1108.8282,974.3636,1107.9686,964.5455,1108.8254,954.7273,1109.0892,944.9091,1108.9855,935.0909,1109.154,925.2727,1108.0579,915.4545,1107.8888,905.6364,1107.9196,895.8182,1108.4821,886,1108.541,885.9749,1108.4805,885.7334,1108.6044,885.2706,1108.1943,884.8956,1107.996,884.6149,1108.0255,884.2322,1107.8088,884.0269,1107.7237,883.9259,1107.389,884.1392,1107.1844,883.9271,1106.8037,883.8726,1106.4882,883.5,1106.041,883.1782,1106.041,883.8192,1096.915,884.0904,1087.7891,883.0276,1078.6631,883.4041,1069.5371,883.5,1060.4112,883.5388,1060.4272,883.8472,1060.1407,883.7916,1059.7035,884.0818,1059.4095,883.9152,1058.9263,884.2322,1058.6434,884.1458,1058.4348,884.65,1058.652,884.8479,1058.1297,885.3578,1058.3608,885.6728,1058.1212,886,1057.9112" style="stroke:#181818;stroke-width:4.0;"/><text fill="#000000" font-family="Chalkduster" font-size="24" lengthAdjust="spacing" textLength="93" x="893.5" y="1091.752">more...</text></g><!--link coll to cur--><g id="link_coll_cur"><path d="M282.1,212.7112 L282.1,212.8046 L276.472,212.527 L270.844,212.7971 L265.216,212.8888 L259.588,212.3941 L253.96,212.7112 " fill="none" style="stroke:#181818;stroke-width:4.0;"/><polygon fill="#181818" points="247.96,212.7112,247.9885,212.7752,249.7039,213.385,251.5862,214.37,253.4141,215.2329,255.0634,215.6939,256.96,216.7112,256.9417,216.6928,256.0595,215.8106,255.2696,215.0208,254.5439,214.2951,253.597,213.3482,252.96,212.7112,253.0905,212.8417,253.6114,211.7626,254.5134,211.0645,255.4618,210.413,256.1398,209.4909,256.96,208.7112,256.9692,208.7319,255.1557,209.5014,253.3842,210.3655,251.5924,211.184,249.8393,212.0896,247.96,212.7112" style="stroke:#181818;stroke-width:4.0;"/></g><!--link cur to int--><g id="link_cur_int"><path d="M193.0066,267.9 L193.2831,267.9459 L190.8545,277.4899 L190.0466,287.303 L188.7109,297.0284 L185.6397,306.4657 L184.9709,316.3019 " fill="none" style="stroke:#181818;stroke-width:4.0;"/><polygon fill="#181818" points="193.99,261.9812,194.0485,262.0197,192.7905,263.5497,191.8754,265.3057,190.8486,266.9881,189.4547,268.4284,188.569,270.2039,188.5539,270.1828,189.4066,269.4302,190.3353,268.7838,191.3167,268.2112,192.1162,267.3841,193.1705,266.9135,193.3206,267.0209,193.6577,267.7116,194.433,268.7158,195.2618,269.7582,195.7795,270.5781,196.4608,271.515,196.4829,271.5208,195.9564,269.6056,195.5301,267.7164,195.0555,265.8147,194.6732,263.9369,193.99,261.9812" style="stroke:#181818;stroke-width:4.0;"/><polygon fill="#181818" points="183.99,322.2212,184.0485,322.2597,184.9582,320.5002,186.2108,318.9666,187.3518,317.3594,188.1254,315.5104,189.4075,313.9962,189.3924,313.9751,188.4047,314.539,187.4931,315.2091,186.6342,315.953,185.5933,316.4426,184.8074,317.2884,184.9575,317.3958,183.9781,316.2461,183.4369,315.41,182.9491,314.6122,182.1503,313.5917,181.5151,312.6883,181.5371,312.694,181.9998,314.5922,182.5627,316.5164,183.0772,318.4281,183.684,320.3637,183.99,322.2212" style="stroke:#181818;stroke-width:4.0;"/></g><!--link cur to an--><g id="link_cur_an"><path d="M244.919,266.6416 L245.1366,266.8181 L250.3888,273.5678 L256.917,281.3522 L263.0296,288.7996 L267.7758,295.139 L274.333,302.947 L279.8707,309.9282 L286.2113,317.5605 " fill="none" style="stroke:#181818;stroke-width:4.0;"/><polygon fill="#181818" points="241.14,261.9812,241.2076,261.9994,241.5189,263.8472,242.2268,265.8019,242.8056,267.7218,242.9596,269.5273,243.7015,271.4911,243.6758,271.4884,243.6776,270.3511,243.8094,269.2273,244.0315,268.113,243.9424,266.9661,244.2891,265.8648,244.3083,266.0484,245.3926,265.7734,246.5328,266.0343,247.6798,266.3606,248.7872,266.3065,249.9154,266.4525,249.9257,266.4727,248.1555,265.5487,246.4323,264.717,244.6863,263.8407,242.9837,263.0494,241.14,261.9812" style="stroke:#181818;stroke-width:4.0;"/><polygon fill="#181818" points="289.99,322.2212,290.0577,322.2394,289.3445,320.2832,289.0278,318.4339,288.5821,316.5498,287.7116,314.5513,287.429,312.7111,287.4033,312.7084,287.1701,313.8216,287.0667,314.9483,287.0537,316.0845,286.7295,317.1881,286.8411,318.3373,286.8603,318.5208,285.694,318.0108,284.5838,318.0366,283.4803,318.1277,282.3371,317.8385,281.2149,317.7493,281.2252,317.7696,282.9651,318.6342,284.7519,319.5911,286.5161,320.5035,288.3236,321.5007,289.99,322.2212" style="stroke:#181818;stroke-width:4.0;"/></g><!--link int to an--><g id="link_int_an"><path d="M247.44,371.3412 L247.44,371.4346 L251.882,371.157 L256.324,371.4271 L260.766,371.5188 L265.208,371.0241 L269.65,371.3412 " fill="none" style="stroke:#181818;stroke-width:4.0;"/><polygon fill="#181818" points="241.44,371.3412,241.4685,371.4052,243.1839,372.015,245.0662,373,246.8941,373.8629,248.5434,374.3239,250.44,375.3412,250.4217,375.3228,249.5395,374.4406,248.7496,373.6508,248.0239,372.9251,247.077,371.9782,246.44,371.3412,246.5705,371.4717,247.0914,370.3926,247.9934,369.6945,248.9418,369.043,249.6198,368.1209,250.44,367.3412,250.4492,367.3619,248.6357,368.1314,246.8642,368.9955,245.0724,369.814,243.3193,370.7196,241.44,371.3412" style="stroke:#181818;stroke-width:4.0;"/><polygon fill="#181818" points="275.65,371.3412,275.6785,371.4052,273.7939,370.415,272.0762,369.8,270.3041,369.0629,268.3534,367.9239,266.65,367.3412,266.6317,367.3228,267.3495,368.0406,268.1596,368.8508,269.0339,369.7251,269.687,370.3782,270.65,371.3412,270.7805,371.4717,269.7014,371.9926,269.0034,372.8945,268.3518,373.843,267.4298,374.5209,266.65,375.3412,266.6592,375.3619,268.4457,374.5314,270.2742,373.7955,272.0824,373.014,273.9293,372.3196,275.65,371.3412" style="stroke:#181818;stroke-width:4.0;"/></g><!--reverse link coll to repo--><g id="link_coll_repo"><path d="M387.593,217.412 L387.6005,217.5052 L393.2181,217.6804 L398.8795,218.4014 L404.5267,218.9447 L410.127,218.9034 L415.7921,219.6714 L415.789,219.637 L422.3173,220.0729 L428.8613,220.6823 L435.4161,221.4123 L441.9334,221.7267 L448.5032,222.6231 L448.5282,222.8679 L455.7447,223.0853 L463.0341,224.0175 L470.3324,225.0368 L477.579,225.5487 L484.8528,226.3275 L484.8562,226.3577 L492.674,227.2169 L500.5076,228.2132 L508.3336,229.1434 L516.1741,230.1999 L523.9671,230.8447 L524.0047,231.1406 L528.0693,231.6606 L532.1097,231.9899 L536.1856,232.5984 L540.2632,233.2201 L544.2881,233.4269 L544.2449,233.1093 L548.4655,234.2873 L552.5442,234.4195 L556.7307,235.3467 L560.8061,235.4552 L564.9726,236.2348 L564.9682,236.2047 L569.2078,237.1692 L573.3451,237.4299 L577.5427,238.1058 L581.7454,238.8167 L585.9116,239.276 L585.94,239.4588 L590.1281,239.9307 L594.3649,240.7149 L598.5229,240.9938 L602.7983,242.0265 L606.9957,242.558 L607.0359,242.7983 L611.2523,243.4589 L615.4887,244.2388 L619.6324,244.4644 L623.8441,245.0963 L628.1159,246.0883 L628.067,245.8164 L632.3206,246.8197 L636.5192,247.5167 L640.7977,248.658 L644.9397,249.0407 L649.1628,249.8744 L649.1338,249.7247 L653.355,250.7838 L657.4522,251.2032 L661.6376,252.0775 L665.9094,253.397 L670.0273,253.9238 L670.0671,254.1133 L674.209,255.1073 L678.2271,255.512 L682.4003,256.6548 L686.5396,257.6368 L690.6003,258.2441 L690.5536,258.0394 L694.6252,259.1223 L698.6816,260.1382 L702.7679,261.2857 L706.7375,261.9212 L710.7724,262.8428 L710.8219,263.0423 L714.6455,263.5808 L718.5646,264.5045 L722.6236,265.9908 L726.4252,266.4412 L730.4345,267.7274 L730.4938,267.9456 L734.2672,268.8516 L738.0204,269.6837 L741.819,270.6824 L745.7223,272.0665 L749.4774,272.9054 L749.4392,272.7779 L753.2157,274.2532 L756.7327,274.8616 L760.5447,276.4556 L764.1906,277.4947 L767.7918,278.3843 L767.8261,278.4876 L771.2938,279.5617 L774.8841,281.0058 L778.3637,282.1156 L781.797,283.0856 L785.2687,284.1717 L785.31,284.2835 L788.5547,285.338 L791.991,286.9117 L795.2106,287.8983 L798.5193,289.1263 L801.7987,290.275 L801.695,290.0253 L804.8245,291.3941 L808.0788,293.0636 L811.1564,294.3075 L814.1706,295.3989 L817.2728,296.7019 L817.2116,296.5724 L820.093,297.9655 L822.866,299.1293 L825.9368,300.9233 L828.8602,302.4054 L831.5816,303.4597 L831.6934,303.6652 L834.3361,305.1503 L836.7663,306.2449 L839.4207,307.7516 L841.9267,308.9855 L844.616,310.5561 L844.6839,310.6625 L847.0051,312.137 L849.4084,313.74 L851.5515,314.9356 L853.9044,316.4597 L856.2667,317.9986 L856.3867,318.1549 L858.4518,319.7578 L860.1912,320.9362 L862.309,322.6078 L864.4335,324.288 L866.4247,325.7945 L866.2373,325.5981 L868.2442,327.5396 L869.9261,329.1404 L871.5273,330.6564 L873.313,332.366 L874.9806,333.9516 L875.2331,334.1544 L876.2411,335.5697 L877.8276,337.4495 L879.1864,339.1465 L880.4965,340.8044 L881.8253,342.4773 L881.8798,342.5081 L882.874,344.2825 L883.5934,345.9017 L884.6847,347.7308 L885.6661,349.4979 L886.8495,351.3791 L886.8773,351.3852 L887.7179,355.1799 L888.58,358.9793 L889.2135,362.7287 L890.1406,366.5423 L891,370.3412 L890.8397,370.3412 L891.7691,380.2971 L891.5688,390.253 L890.3526,400.2089 L890.9028,410.1649 L890.2304,420.1208 L891.3845,430.0767 L891.8113,440.0326 L891.7261,449.9886 L890.4193,459.9445 L891.6186,469.9004 L890.0096,479.8563 L891.2669,489.8123 L890.6009,499.7682 L891.129,509.7241 L891.3204,519.68 L891.6295,529.636 L890.0401,539.5919 L891.634,549.5478 L891.2376,559.5038 L891.4738,569.4597 L891.9971,579.4156 L891.0073,589.3715 L891.2337,599.3275 L891.2846,609.2834 L891.263,619.2393 L890.9989,629.1952 L891,639.1512 L891.2772,639.3025 L889.7411,640.8915 L889.1783,643.0119 L887.6933,644.6288 L886.7049,646.5169 L885.8946,648.5021 L885.9025,648.518 L883.0047,649.9617 L880.0055,651.2028 L877.2902,653.0114 L874.3341,654.3385 L871.4169,655.7435 L871.5042,656.0544 L869.425,656.6108 L867.2189,656.7153 L865.1528,657.3187 L863.1131,658.0155 L861.0565,658.6526 L861.0879,658.8075 L858.6457,659.3236 L856.1903,659.7747 L853.6872,659.99 L851.3272,660.9116 L848.8247,661.1298 L848.8662,661.4084 L846.0324,661.5244 L843.2307,661.8555 L840.4308,662.1996 L837.6539,662.6971 L834.8787,663.2068 L834.8854,663.2675 L831.7748,663.5184 L828.6572,663.7057 L825.6007,664.4474 L822.454,664.3711 L819.3758,664.9155 L819.3938,665.1381 L816.0106,665.3792 L812.6281,665.6292 L809.2591,666.0456 L805.8448,665.9044 L802.4731,666.2877 L802.4653,666.1544 L798.8576,666.7315 L795.1995,666.4499 L791.5799,666.8244 L787.96,667.193 L784.3279,667.3553 L784.3292,667.3858 L780.4753,667.355 L776.635,667.654 L772.8033,668.1627 L768.9555,668.279 L765.0975,668.1499 L765.0902,667.885 L761.0667,668.2955 L757.0278,668.143 L753.0021,668.4704 L748.9742,668.723 L744.939,668.7035 L744.942,668.8901 L740.7482,668.477 L736.5702,669.0192 L732.3814,668.9139 L728.1914,668.7322 L724.0096,669.0479 L724.008,668.8385 L719.7021,669.2264 L715.3933,669.2257 L711.0838,669.1407 L706.7729,668.8827 L702.4666,669.2148 L702.4671,669.5073 L693.6068,669.062 L684.7471,668.9516 L675.8879,669.1422 L667.0287,669.42 L658.1688,669.1437 L658.1712,669.4172 L649.1958,669.0795 L640.2219,668.9169 L631.25,668.9797 L622.277,668.9072 L613.3031,668.7446 L613.3007,668.519 L604.4699,668.8341 L595.6355,668.804 L586.7967,668.3653 L577.9605,668.176 L569.1274,668.2723 L569.1295,668.5721 L560.6819,668.2234 L552.2363,668.1557 L543.7917,668.2304 L535.3432,667.7523 L526.8996,667.981 L526.8996,668.2166 L522.9015,667.9746 L518.9035,668.279 L514.9053,667.8862 L510.9073,668.1643 L506.9092,667.9829 L506.9077,667.7856 L503.1036,668.1203 L499.2977,668.2085 L495.489,667.923 L491.6849,668.2583 L487.8773,668.1255 L487.8729,667.8716 L484.2905,667.9795 L480.7163,668.555 L477.1331,668.6188 L473.549,668.6303 L469.9614,668.4407 L469.9564,668.2806 L466.6381,668.7153 L463.2977,668.4388 L459.9764,668.7783 L456.647,668.8558 L453.3185,668.9603 L453.3127,668.8438 L450.2895,669.3848 L447.2432,669.4593 L444.1838,669.2713 L441.16,669.7986 L438.1059,669.716 L438.1089,669.7567 L435.3614,669.6621 L432.648,670.0221 L429.9133,670.0975 L427.2011,670.4734 L424.4808,670.7398 L424.4498,670.4619 L422.0752,670.7394 L419.7321,671.3002 L417.3466,671.4807 L414.9736,671.7727 L412.6004,672.0633 L412.59,672.0005 L410.6169,672.4677 L408.5687,672.482 L406.625,673.1266 L404.5636,673.0617 L402.622,673.7185 L402.6627,673.8436 L399.9791,674.8556 L397.245,675.7122 L394.4985,676.5308 L391.7508,677.3459 L389,678.1512 L389.0252,678.1909 L385.575,679.9849 L382.5607,682.4668 L379.2602,684.497 L375.8725,686.3897 L372.6362,688.5213 L372.6347,688.5192 L369.4632,690.7786 L366.4591,693.262 L363.4648,695.7583 L360.0719,697.7217 L357.0485,700.1793 L357.1846,700.3371 L354.0595,702.7055 L351.0122,705.1641 L348.0338,707.7027 L345.0089,710.1873 L342.233,712.9605 L342.0959,712.8204 L339.4348,715.7199 L336.6989,718.543 L333.9836,721.3873 L331.1256,724.0856 L328.1856,726.7001 L327.9523,726.4868 L325.7321,729.7923 L323.0319,732.6591 L320.3932,735.5821 L317.7304,738.4831 L314.9026,741.2333 L314.6767,741.0468 L312.3097,744.1928 L310.0018,747.3876 L307.224,750.1943 L304.8492,753.3339 L302.3799,756.3954 L302.4037,756.4133 L300.1424,759.6079 L297.6897,762.6582 L295.5846,765.9703 L293.113,769.0065 L290.6137,772.0217 L290.7073,772.0865 L288.2136,775.0704 L286.332,778.4776 L283.7955,781.4319 L281.9145,784.8395 L279.6,787.9474 L279.6029,787.9493 L277.6591,791.2312 L275.4612,794.3506 L273.3675,797.5367 L271.1105,800.6183 L269.3349,804.0077 L269.253,803.9591 L267.1614,807.0538 L265.4327,810.364 L263.7899,813.7253 L261.78,816.8684 L259.8145,820.038 L259.6389,819.9407 L258.1541,823.258 L256.3281,826.3863 L254.7578,829.6563 L253.0103,832.828 L251.0348,835.8734 L251.0717,835.8926 L249.3556,838.9318 L247.733,842.0197 L246.2065,845.1575 L244.8643,848.3911 L242.9919,851.3491 L242.7229,851.2176 L241.4644,854.3074 L240.1744,857.3818 L238.898,860.4628 L237.2285,863.3516 L235.6819,866.3005 L235.6019,866.2636 L234.0679,869.0156 L232.8784,871.9266 L231.6437,874.8166 L230.5542,877.7737 L229.1009,880.5629 L229.2513,880.6286 L227.9508,883.2538 L226.7043,885.9026 L225.2942,888.4799 L224.4686,891.3126 L223.2449,893.9713 L223.4237,894.0454 L222.4983,896.5655 L221.2313,898.944 L220.1968,901.4188 L219.0466,903.8457 L218.11,906.3612 " fill="none" style="stroke:#181818;stroke-width:4.0;"/><polygon fill="#181818" points="381.61,216.9612,381.6432,217.0229,383.2794,217.7725,385.1101,218.8839,386.8775,219.8775,388.4365,220.4837,390.284,221.6262,390.2643,221.6093,389.4385,220.6756,388.7118,219.8271,388.0539,219.0378,387.1587,218.0445,386.5959,217.3369,386.7162,217.4768,387.3167,216.44,388.2686,215.8117,389.2633,215.2332,390.0086,214.3647,390.8851,213.6488,390.8928,213.6702,389.0265,214.3012,387.1951,215.0298,385.3469,215.7113,383.5307,216.4825,381.61,216.9612" style="stroke:#181818;stroke-width:4.0;"/><text fill="#000000" font-family="Chalkduster" font-size="24" lengthAdjust="spacing" textLength="77" x="892" y="507.992">Reuse</text></g><!--link cur to repo--><g id="link_cur_repo"><path d="M247.98,250.4212 L248.0324,250.4985 L249.5749,251.42 L251.4247,252.7948 L253.1744,254.0219 L254.5951,254.7637 L256.4713,256.1774 L256.4529,256.1481 L258.0764,257.0855 L259.7923,258.1705 L261.5724,259.358 L263.1311,260.192 L265,261.5212 L265.1161,261.7381 L267.7885,262.8369 L270.7999,264.5692 L273.8526,266.3787 L276.6647,267.7386 L279.6033,269.3349 L279.6153,269.3628 L282.5612,270.5987 L285.5617,271.9614 L288.5358,273.2629 L291.5602,274.6811 L294.4207,275.7188 L294.5197,276.0001 L297.4953,277.0499 L300.407,277.9181 L303.4122,279.052 L306.4218,280.1983 L309.2926,280.9502 L309.2019,280.6428 L312.3313,282.1107 L315.1621,282.5664 L318.2199,283.7916 L321.0439,284.2243 L324.0595,285.3066 L324.0519,285.2772 L327.0427,286.3775 L329.855,286.7892 L332.7727,287.6073 L335.6992,288.4595 L338.5619,289.0656 L338.6058,289.2453 L341.3771,289.7517 L344.2235,290.5652 L346.9485,290.8818 L349.8545,291.9395 L352.6401,292.5045 L352.6996,292.7408 L355.3873,293.3754 L358.1045,294.1273 L360.6845,294.3342 L363.3651,294.9406 L366.1348,295.901 L366.0591,295.6354 L368.6779,296.6021 L371.2114,297.2696 L373.8686,298.3711 L376.3147,298.7315 L378.8863,299.5324 L378.8359,299.3885 L381.2895,300.457 L383.5279,300.9102 L385.9194,301.801 L388.4605,303.1198 L390.735,303.6763 L390.8156,303.8524 L393.0281,304.9599 L394.9902,305.5198 L397.266,306.7656 L399.4734,307.862 L401.5216,308.6101 L401.41,308.4323 L403.4119,309.7743 L405.3773,311.0581 L407.4144,312.4563 L409.1724,313.4096 L411.0864,314.6114 L411.2237,314.7644 L412.5586,315.8975 L414.1587,317.3259 L416.146,319.1857 L417.4203,320.2512 L419.2698,321.9576 L419.4516,322.0922 L420.6722,323.8059 L421.8312,325.4741 L423.1291,327.2451 L424.7478,329.2538 L425.9125,330.9261 L425.7914,330.8711 L427.1404,333.2087 L427.6658,335.1718 L429.1276,337.5608 L430.0622,339.71 L430.8547,341.7946 L430.9607,341.8197 L431.4916,344.4086 L432.402,347.0872 L432.9696,349.6848 L433.3938,352.2486 L433.9371,354.8405 L434.056,354.8486 L434.0919,357.9366 L434.6799,361.0625 L434.6435,364.1456 L434.8639,367.2463 L435,370.3412 L434.1889,370.3412 L434.4597,380.2971 L435.7077,390.253 L435.573,400.2089 L434.9428,410.1649 L434.5704,420.1208 L434.7081,430.0767 L434.0851,440.0326 L435.553,449.9886 L435.9861,459.9445 L435.7019,469.9004 L435.9266,479.8563 L434.8177,489.8123 L435.1163,499.7682 L434.4832,509.7241 L435.3787,519.68 L435.329,529.636 L435.7365,539.5919 L434.6938,549.5478 L434.8208,559.5038 L435.5913,569.4597 L435.7564,579.4156 L434.3166,589.3715 L434.7415,599.3275 L435.199,609.2834 L434.1855,619.2393 L435.4712,629.1952 L435,639.1512 L435.1092,639.186 L434.025,642.0581 L433.1955,645.0116 L432.5114,648.0114 L431.138,650.7912 L430.3381,653.7541 L430.414,653.8718 L428.0863,655.3585 L425.7248,656.7927 L423.4102,658.2997 L421.083,659.7871 L418.735,661.2424 L418.629,660.9861 L415.6728,662.3163 L412.6683,663.5299 L409.7635,664.9842 L406.7735,666.2327 L403.7644,667.4351 L403.8066,667.4932 L400.7355,669.4736 L397.841,671.6972 L394.8744,673.8215 L392.1035,676.2154 L389,678.1512 L389.1422,678.2766 L386.3616,680.8156 L384.0225,683.7442 L381.3778,686.4031 L379.1898,689.4648 L376.6171,692.1873 L376.8236,692.3618 L374.3662,695.2265 L371.5977,697.8284 L369.4674,700.9694 L366.622,703.5063 L364.4384,706.6024 L364.5075,706.6585 L361.9456,709.4607 L359.6927,712.5138 L357.3528,715.4962 L355.0432,718.5033 L352.4908,721.3132 L352.2389,721.1159 L350.3191,724.4281 L347.8771,727.3311 L345.601,730.3643 L343.4003,733.4564 L340.8007,736.236 L340.8026,736.2375 L338.5816,739.2933 L336.3139,742.3139 L334.027,745.3198 L331.6756,748.2769 L329.3947,751.2874 L329.6492,751.4745 L326.9573,754.1463 L325.1591,757.4749 L322.5141,760.1811 L320.3251,763.2225 L318.2995,766.384 L318.314,766.3944 L316.1582,769.403 L313.8182,772.28 L311.9944,775.5258 L309.7326,778.4587 L307.5417,781.4422 L307.8068,781.6267 L305.7063,784.5989 L303.2206,787.303 L301.1602,790.3031 L299.1795,793.3586 L297.1479,796.3786 L297.2786,796.4674 L295.2954,799.4255 L293.2573,802.3463 L291.0202,805.1319 L289.3792,808.3224 L287.1446,811.1097 L287.3793,811.2655 L285.2099,813.9866 L283.2217,816.8279 L281.2444,819.6764 L279.3963,822.6108 L277.5586,825.552 L277.6098,825.5853 L275.7046,828.3494 L273.746,831.0788 L272.2548,834.112 L270.0737,836.6969 L268.4163,839.622 L268.6046,839.742 L266.8421,842.4469 L265.087,845.1565 L263.4728,847.9559 L261.3867,850.4547 L259.7445,853.2363 L259.6309,853.1659 L256.7752,858.4633 L253.1886,863.3074 L250.1604,868.4979 L247.1272,873.6852 L243.9184,878.7636 L243.9446,878.7793 L241.0568,883.2221 L238.452,887.8348 L236.0271,892.5554 L233.2654,897.0739 L230.2932,901.4661 " fill="none" style="stroke:#181818;stroke-width:4.0;"/><polygon fill="#181818" points="227.24,906.6312,227.2806,906.6882,228.7645,905.3762,230.4867,904.3988,232.1312,903.3124,233.5207,901.8678,235.2632,900.9191,235.2568,900.894,234.1321,901.063,233.0399,901.3584,231.9703,901.7418,230.8228,901.8222,229.7844,902.327,229.9631,902.3729,229.2993,901.1789,229.1574,900.119,229.0791,899.0755,228.6304,897.9368,228.3765,896.8481,228.3991,896.8507,228.1386,898.8035,227.981,900.7682,227.7738,902.7271,227.6612,904.6971,227.24,906.6312" style="stroke:#181818;stroke-width:4.0;"/><text fill="#000000" font-family="Chalkduster" font-size="24" lengthAdjust="spacing" textLength="96" x="436" y="507.992">Deposit</text></g><!--link an to repo--><g id="link_an_repo"><path d="M287.22,420.5212 L287.2918,420.5809 L284.4162,423.6041 L281.9615,426.9776 L279.3698,430.237 L276.3272,433.1213 L273.9088,436.5248 L273.8819,436.5031 L271.0153,439.7909 L268.2839,443.1885 L265.6465,446.6623 L262.6851,449.8733 L260.1775,453.4524 L260.371,453.6044 L257.2342,456.7451 L254.6624,460.3296 L252.1595,463.9683 L249.2555,467.2919 L246.5625,470.7812 L246.5867,470.7995 L243.9587,474.2142 L241.4409,477.7119 L238.8699,481.1696 L236.4004,484.7038 L233.6,487.9887 L233.8417,488.1634 L232.6309,489.8445 L231.2641,491.4129 L230.1256,493.1463 L228.9977,494.8874 L227.531,496.3835 L227.2682,496.2 L226.6373,498.1899 L225.1411,499.5755 L224.3027,501.4205 L222.7868,502.7923 L221.8263,504.552 L221.8008,504.5354 L220.0925,507.8115 L217.7886,510.6988 L215.8362,513.8156 L213.9133,516.9516 L211.7775,519.9487 L211.9383,520.04 L210.2185,522.6893 L208.7735,525.4946 L206.8838,528.0473 L205.6574,530.9769 L203.99,533.6559 L204.2135,533.7529 L203.1732,536.0336 L202.2439,538.3625 L200.7991,540.4676 L199.7321,542.7367 L199,545.1512 L198.7367,545.0678 L198.2253,547.5106 L197.4173,549.8596 L197.0395,552.3448 L195.9271,554.5973 L195.2513,556.9881 L195.1047,556.9465 L194.6694,559.4125 L193.607,561.7006 L192.9906,564.1153 L192.8104,566.6536 L191.8534,568.9716 L192.0411,569.019 L191.5579,571.4737 L190.4908,573.7808 L190.1551,576.2728 L189.66,578.7244 L188.7937,581.0823 L188.5888,581.0365 L188.2053,583.5167 L187.7548,585.9819 L187.436,588.4766 L186.6048,590.8567 L186.0598,593.3008 L186.2615,593.3405 L185.3342,595.7147 L184.7963,598.1655 L184.8272,600.7282 L183.8108,603.0849 L183.6394,605.6077 L183.8624,605.6459 L183.306,608.0984 L182.6743,610.538 L182.2128,613.0068 L182.1449,615.5429 L181.52,617.9837 L181.3884,617.9643 L181.4141,620.5072 L180.5447,622.9182 L180.6931,625.4791 L180.2684,627.9556 L179.6893,630.4094 L179.7973,630.4228 L179.3992,632.9032 L179.388,635.4317 L179.0272,637.9167 L178.5203,640.3834 L178.1348,642.8653 L178.2534,642.8776 L177.8191,645.3527 L177.9353,647.8848 L177.4289,650.3525 L177.1785,652.8467 L176.8441,655.3321 L176.5747,655.3097 L176.4568,657.8088 L176.6635,660.3351 L176.4109,662.823 L175.9937,665.2972 L175.8049,667.7905 L175.662,667.7813 L175.5477,670.2704 L175.1804,672.7431 L175.5086,675.2607 L175.4927,677.756 L175.0046,680.221 L175.2383,680.2318 L175.1984,682.712 L174.7144,685.1715 L174.6991,687.6528 L174.3736,690.1197 L174.4309,692.6043 L174.5571,692.608 L174.4687,695.0708 L174.5325,697.5381 L174.1132,699.9913 L174.0836,702.4559 L174.0715,704.921 L174.2685,704.9235 L174.292,707.3703 L173.7806,709.8103 L173.8907,712.2582 L174.0116,714.7063 L173.9138,717.1516 L173.6423,717.1509 L174.0772,719.5771 L174.0411,722.002 L173.888,724.4267 L174.0023,726.852 L173.9455,729.2769 L174.2693,729.2825 L173.8482,731.6746 L174.1689,734.0795 L174.1976,736.4794 L174.1638,738.8782 L174.1541,741.2774 L174.2167,741.2794 L174.2792,743.6503 L174.0261,746.0112 L174.2,748.3856 L174.2477,750.7561 L174.5273,753.1338 L174.5557,753.1351 L174.6715,755.4741 L174.8093,757.8142 L174.7134,760.1437 L174.9176,762.4867 L175.0527,764.8266 L174.9994,764.8232 L175.6001,769.4065 L175.8249,773.9658 L175.7119,778.5035 L176.1864,783.0787 L176.5103,787.6443 L176.2547,787.6219 L177.0214,792.0416 L177.5466,796.4402 L177.9017,800.8239 L177.8512,805.1722 L178.4275,809.5752 L178.6325,809.5976 L178.5549,813.7173 L179.4271,817.9406 L179.6619,822.0944 L180.2925,826.2913 L180.7053,830.4645 L180.8112,830.4782 L181.4212,834.4299 L181.4035,838.3006 L182.4383,842.3071 L182.815,846.2287 L183.2442,850.157 L183.4005,850.18 L184.1132,853.8736 L184.327,857.4937 L184.9418,861.1728 L185.4988,864.8434 L185.9451,868.4978 L186.0316,868.512 L186.4975,871.8645 L187.3623,875.2825 L187.3359,878.5542 L188.4039,882.0056 L188.7087,885.3317 L188.4358,885.2826 L189.0178,888.3236 L189.817,891.4036 L190.3573,894.4371 L190.6747,897.4305 L191.4357,900.5037 " fill="none" style="stroke:#181818;stroke-width:4.0;"/><polygon fill="#181818" points="192.54,906.4012,192.6082,906.4173,192.8607,904.4528,193.5128,902.5831,194.0348,900.6825,194.1288,898.6803,194.8152,896.8187,194.7939,896.8041,194.0588,897.672,193.4316,898.6136,192.8792,899.6066,192.0687,900.4228,191.6198,901.4866,191.724,901.6389,190.5675,900.6741,189.7154,900.154,188.9004,899.6881,187.8693,898.9066,186.9519,898.2911,186.9706,898.304,188.0608,899.9071,189.2361,901.5689,190.3704,903.2024,191.5831,904.8899,192.54,906.4012" style="stroke:#181818;stroke-width:4.0;"/><text fill="#000000" font-family="Chalkduster" font-size="24" lengthAdjust="spacing" textLength="122" x="243" y="569.992">Publish /</text><text fill="#000000" font-family="Chalkduster" font-size="24" lengthAdjust="spacing" textLength="208" x="200" y="600.6219">Archive Results</text></g><!--link an to comp--><g id="link_an_comp"><path d="M382.44,387.6112 L382.4708,387.6993 L384.2209,388.0813 L386.1518,388.9801 L388.0238,389.7106 L389.7022,389.8875 L391.6486,390.8307 L391.6366,390.7983 L393.5092,391.3638 L395.442,392.0927 L397.4168,392.935 L399.2471,393.3861 L401.2797,394.3853 L401.3692,394.6145 L403.1745,394.9036 L405.2411,395.8619 L407.3395,396.9019 L409.2525,397.4668 L411.263,398.2816 L411.2746,398.3097 L413.3105,399.1175 L415.3992,400.053 L417.4625,400.9268 L419.5743,401.9182 L421.5278,402.5266 L421.6477,402.7997 L423.7444,403.7231 L425.7637,404.4704 L427.8962,405.4756 L430.034,406.4928 L432.0037,407.1271 L431.868,406.8367 L434.2547,408.3929 L436.1945,408.9929 L438.474,410.3197 L440.4037,410.8981 L442.6201,412.0899 L442.6065,412.0627 L444.9046,413.4513 L446.885,414.2033 L449.0529,415.331 L451.2365,416.4902 L453.3066,417.4219 L453.3937,417.5851 L455.4429,418.562 L457.6411,419.8177 L459.5983,420.6223 L461.9149,422.0998 L463.9925,423.1299 L464.1138,423.3412 L466.2138,424.5194 L468.3741,425.8026 L470.2546,426.5982 L472.3402,427.7512 L474.6074,429.2208 L474.4621,428.9859 L476.6883,430.4946 L478.7508,431.7387 L481.0508,433.3666 L482.9453,434.3392 L485.0808,435.7013 L484.9959,435.5746 L487.1896,437.161 L489.0204,438.2059 L491.1092,439.6359 L493.4505,441.4425 L495.3422,442.5784 L495.4563,442.7348 L497.5303,444.2982 L499.2494,445.375 L501.413,447.0612 L503.4798,448.6147 L505.3209,449.8588 L505.1899,449.6948 L507.2195,451.3637 L509.2062,452.9788 L511.2772,454.6995 L513.0203,456.0099 L514.9466,457.5495 L515.0825,457.7037 L516.6243,458.9863 L518.4285,460.5667 L520.6158,462.5821 L522.0976,463.7966 L524.1487,465.6572 L524.307,465.8188 L525.9546,467.4291 L527.5486,468.9848 L529.2635,470.6639 L531.2578,472.6281 L532.8567,474.1888 L532.7582,474.0993 L534.68,476.1582 L535.9322,477.6085 L537.9458,479.7508 L539.5306,481.5034 L541,483.1512 L541.0895,483.2131 L543.2689,486.4163 L545.7689,489.8414 L547.9793,493.066 L550.0686,496.2068 L552.2584,499.4172 L552.3688,499.4621 L553.4675,502.5052 L555.0789,505.7565 L556.1103,508.7724 L557.3804,511.8851 L558.572,514.966 L558.3068,514.9136 L558.9919,517.9508 L559.9966,521.0511 L560.5492,524.0621 L560.9397,527.0411 L561.555,530.0645 L561.4123,530.0524 L561.7113,533.0394 L561.7576,536.0049 L562.4984,539.0294 L562.8955,542.0246 L562.8213,544.9799 L563.0545,544.998 L563.3619,548.0037 L563.2261,550.9749 L563.5581,553.9825 L563.5804,556.966 L563.9849,559.9792 L564.1092,560.0009 L564.6279,563.0681 L565.2967,566.1614 L565.4893,569.1718 L566.066,572.2491 L566.6598,575.3294 L566.8451,575.3967 L568.0569,578.6092 L568.7659,581.639 L570.0591,584.881 L571.3625,588.1267 L572.4602,591.2977 L572.23,591.1538 L574.7013,594.7517 L576.7733,598.0999 L578.7461,601.386 L580.9456,604.814 L583,608.1512 L583.2514,608.3553 L585.0847,610.7645 L587.494,613.6414 L589.6765,616.3341 L591.8105,618.9875 L593.9632,621.6561 L594.0092,621.6986 L596.0242,623.8741 L597.8078,625.835 L599.9046,628.0862 L601.9088,630.2516 L604.0833,632.5748 L604.1022,632.5959 L606.0752,634.3646 L608.0627,636.1497 L609.8942,637.7605 L611.9262,639.5952 L613.912,641.3782 L613.8811,641.3346 L616.0782,643.0191 L618.0574,644.3965 L619.8407,645.4977 L621.9646,647.0791 L624.0013,648.5374 L623.8778,648.3125 L626.2433,649.8469 L628.492,651.1688 L630.6587,652.3411 L632.6293,653.1565 L634.9028,654.5233 L634.9844,654.7127 L637.2254,655.2768 L639.8443,656.7185 L642.2097,657.5713 L644.7324,658.7897 L647.1686,659.8069 L647.2044,659.9076 L650.0754,661.0151 L652.7339,661.5264 L655.7486,663.0374 L658.5406,663.9234 L661.3504,664.8592 L661.3982,665.0097 L664.781,666.2344 L668.011,666.9783 L671.3637,668.1086 L674.6988,669.1832 L678,670.1512 L678.0111,670.2381 L679.5903,670.354 L681.2208,670.8709 L682.7368,670.492 L684.3934,671.2133 L685.952,671.1673 L685.9409,670.8901 L688.9561,671.0474 L691.9801,671.4252 L694.9936,671.54 L697.998,671.4287 L701.0205,671.7676 L701.0227,671.9515 L705.253,671.8678 L709.4883,672.1941 L713.7199,672.2195 L717.9458,671.7756 L722.1802,672.0266 L722.1801,671.8497 L727.4252,671.9676 L732.6704,672.1814 L737.9155,672.2008 L743.1606,672.154 L748.4056,672.0185 L748.4019,671.5626 L759.0037,672.7803 L769.5948,672.6902 L780.1785,671.6955 L790.7675,671.3531 L801.3568,671.05 L811.9523,671.4985 L811.9496,671.2124 L822.1691,671.5823 L832.3815,671.2085 L842.592,670.6432 L852.8188,671.7506 L863.0215,670.3894 L873.249,671.5717 L883.4575,670.8024 L883.4587,670.9923 L890.6932,670.922 L897.9288,671.0189 L905.1609,670.5562 L912.3955,670.4862 L919.631,670.5742 L919.6313,670.8048 L926.648,670.299 L933.6657,670.4505 L940.6833,670.5959 L947.7006,670.5653 L954.718,670.5249 L954.717,670.3656 L961.3129,670.5466 L967.91,670.9374 L974.5048,670.9355 L981.0963,670.4231 L987.693,670.729 L987.6936,670.7638 L993.6564,670.6069 L999.6278,670.93 L1005.5979,671.1782 L1011.5664,671.3409 L1017.5306,671.2607 L1017.5216,670.9654 L1020.2205,671.521 L1022.8995,671.4292 L1025.5762,671.2612 L1028.2617,671.381 L1030.9525,671.6727 L1030.9587,671.8177 L1033.4078,671.888 L1035.8534,671.8741 L1038.2916,671.6873 L1040.7674,672.3823 L1043.2055,672.1944 L1043.1975,672.0561 L1045.383,672.0883 L1047.5862,672.4209 L1049.7945,672.8406 L1051.9863,672.9802 L1054.1615,672.8353 L1054.1628,672.8509 L1056.0623,672.9222 L1057.9799,673.2182 L1059.8867,673.3793 L1061.768,673.2257 L1063.6923,673.6045 L1063.7174,673.7868 L1066.5808,674.2427 L1069.3886,674.2939 L1072.2304,674.592 L1075.1518,675.4702 L1077.9656,675.5653 L1077.9688,675.5741 L1079.3725,676.0824 L1080.8252,676.7244 L1082.0872,676.8475 L1083.6744,677.8551 L1085,678.1512 L1084.995,678.1464 L1086.7511,679.96 L1088.0037,681.2912 L1089.7407,683.0865 L1091.0035,684.4274 L1092.6824,686.1672 L1092.7675,686.2351 L1094.1803,687.9847 L1095.3009,689.5012 L1096.9068,691.4049 L1097.9482,692.8583 L1099.5129,694.729 L1099.3387,694.6133 L1100.9692,696.7083 L1102.1734,698.5199 L1103.3341,700.3027 L1104.1938,701.8855 L1105.5308,703.7854 L1105.6803,703.868 L1106.3961,705.5839 L1107.6514,707.5977 L1108.6773,709.4849 L1109.6247,711.3287 L1110.7757,713.285 L1111.0248,713.3986 L1111.8573,715.345 L1112.4506,717.1823 L1113.6955,719.3169 L1114.422,721.215 L1115.2871,723.1763 L1115.0441,723.0856 L1115.9534,725.1864 L1116.5953,727.1874 L1117.5196,729.2937 L1118.079,731.264 L1119.1044,733.408 L1118.849,733.3312 L1119.7669,735.5212 L1120.3183,737.6009 L1120.9771,739.713 L1121.5736,741.8063 L1122.2671,743.9288 L1122.3395,743.9459 L1122.5366,746.0236 L1123.3554,748.2486 L1123.4743,750.3078 L1124.4332,752.5659 L1124.8147,754.6873 L1125.074,754.734 L1125.4374,756.9174 L1125.7615,759.0936 L1126.0819,761.2693 L1126.4385,763.4514 L1126.7866,765.632 L1126.5045,765.5955 L1127.2706,767.8735 L1127.5062,770.0827 L1127.5804,772.2711 L1127.9326,774.4955 L1128.2223,776.7117 L1128.13,776.704 L1128.5066,778.9525 L1128.8994,781.2024 L1128.629,783.3965 L1129.1812,785.6599 L1129.1614,787.875 L1129.1218,787.8733 L1129.0893,790.1069 L1129.1623,792.345 L1129.1642,794.58 L1129.351,796.823 L1129.6432,799.0706 L1129.6593,799.0706 L1129.7773,801.3065 L1129.9249,803.5426 L1129.8683,805.7774 L1129.3782,808.0098 L1129.7072,810.2469 L1129.9822,810.2547 L1129.8603,812.4742 L1129.8217,814.696 L1129.7505,816.917 L1129.163,819.1233 L1129.393,821.3528 L1129.2786,821.346 L1129.4025,823.5579 L1128.9181,825.7336 L1128.9555,827.9404 L1128.9002,830.1417 L1128.7399,832.3367 L1128.8843,832.3494 L1128.5697,834.5006 L1128.6887,836.69 L1128.3506,838.8392 L1128.0913,840.9953 L1127.7875,843.1474 L1127.5491,843.1201 L1127.6946,845.2818 L1127.0489,847.3528 L1127.1951,849.5145 L1126.8211,851.6167 L1126.5752,853.7335 L1126.7071,853.7518 L1126.2502,855.7902 L1125.9159,857.8455 L1125.3895,859.8742 L1125.3347,861.9685 L1125.1426,864.0436 L1124.8338,863.9905 L1124.3611,867.9424 L1123.987,871.9113 L1123.1918,875.8078 L1122.25,879.679 L1121.774,883.6304 L1121.8809,883.653 L1121.0473,887.2097 L1120.4997,890.8269 L1119.7538,894.4021 L1118.7936,897.9321 L1117.9976,901.4968 L1117.9203,901.4778 L1117.1313,904.6211 L1116.4474,907.7902 L1115.9653,911.0089 L1114.612,914.0134 L1114.1291,917.2319 L1114.0587,917.213 L1113.8695,918.6508 L1113.695,920.0925 L1113.0979,921.4204 L1112.5479,922.761 L1112.259,924.1719 L1111.943,924.0838 L1112.3541,923.1294 L1112.7171,922.1616 L1113.2342,921.2367 L1113.5235,920.2484 L1113.6419,919.2124 " fill="none" style="stroke:#181818;stroke-width:4.0;"/><polygon fill="#181818" points="1112.0311,924.9921,1112.0851,925.0367,1113.1784,923.3851,1114.5885,921.9948,1115.8954,920.5195,1116.8632,918.7641,1118.3004,917.3964,1118.2877,917.3738,1117.2452,917.8284,1116.2668,918.3968,1115.3331,919.0442,1114.2456,919.4191,1113.3734,920.1757,1113.5342,920.2663,1112.6346,919.087,1112.2043,918.1725,1111.8312,917.2902,1111.1251,916.22,1110.5941,915.2487,1110.6166,915.252,1110.871,917.1958,1111.2278,919.1547,1111.5352,921.1064,1111.9368,923.0719,1112.0311,924.9921" style="stroke:#181818;stroke-width:4.0;"/><text fill="#000000" font-family="Chalkduster" font-size="24" lengthAdjust="spacing" textLength="51" x="605" y="569.992">Use,</text><text fill="#000000" font-family="Chalkduster" font-size="24" lengthAdjust="spacing" textLength="93" x="584" y="600.6219">extend</text></g><!--reverse link cur to comp--><g id="link_cur_comp"><path d="M252.7966,254.9874 L252.8406,255.0698 L255.1503,256.1318 L257.7185,257.6766 L260.2025,259.0643 L262.4097,259.9349 L265,261.5212 L264.9864,261.4894 L268.3682,262.8214 L271.8185,264.3134 L275.3165,265.9167 L278.6503,267.1366 L282.214,268.8935 L282.2926,269.1267 L285.6445,269.8148 L289.226,271.1838 L292.8354,272.6358 L296.2819,273.6045 L299.8141,274.8275 L299.8216,274.8568 L303.3955,275.7365 L307.0038,276.7498 L310.5955,277.6986 L314.2189,278.7706 L317.739,279.4412 L317.794,279.7344 L321.4324,280.4203 L325.0354,280.9172 L328.6902,281.6908 L332.3475,282.4774 L335.9277,282.8531 L335.8874,282.5351 L339.6438,283.6178 L343.2676,283.6536 L346.9922,284.4853 L350.6131,284.4973 L354.3189,285.1811 L354.3167,285.1508 L358.0496,285.7824 L361.7304,285.7046 L365.442,286.0453 L369.1561,286.4213 L372.8516,286.5437 L372.8567,286.7286 L376.5741,286.645 L380.3003,286.8774 L384.0123,286.5985 L387.7454,287.0822 L391.4645,287.0589 L391.4673,287.3026 L395.1932,287.2137 L398.9205,287.2458 L402.6413,286.7159 L406.3668,286.598 L410.0966,286.8451 L410.0843,286.5692 L413.8134,286.654 L417.5287,286.4279 L421.264,286.6528 L424.9651,286.1077 L428.6866,286.0203 L428.6757,285.8682 L432.3911,285.858 L436.0602,285.1977 L439.7622,284.9997 L443.4965,285.2541 L447.1734,284.7029 L447.1912,284.8957 L450.8679,284.6896 L454.4892,283.8838 L458.1799,283.8291 L461.8555,283.6107 L465.4958,283.011 L465.4733,282.8023 L469.1107,282.5791 L472.7406,282.2875 L476.385,282.1302 L479.9732,281.4507 L483.5928,281.0629 L483.617,281.2671 L490.6183,279.9801 L497.6664,279.0872 L504.7829,278.77 L511.7734,277.3929 L518.8656,276.8709 L518.892,277.0955 L522.287,276.5606 L525.6731,275.9496 L529.0793,275.5102 L532.5322,275.4673 L535.9191,274.8633 L535.9048,274.7311 L539.264,274.7667 L542.5261,273.9027 L545.8986,274.0616 L549.2089,273.6446 L552.5025,273.0724 L552.5123,273.1808 L555.7148,272.8021 L558.9525,272.8116 L562.1584,272.4703 L565.351,271.9825 L568.5546,271.6163 L568.5624,271.7353 L571.6428,271.3579 L574.7591,271.5329 L577.8349,271.0832 L580.9274,270.8904 L584.0144,270.6133 L584.0065,270.343 L586.9703,270.3469 L589.9437,270.6764 L592.9036,270.5452 L595.8587,270.2488 L598.8205,270.1815 L598.8179,270.0384 L601.637,270.1358 L604.4515,269.9797 L607.2787,270.5204 L610.0996,270.7163 L612.9119,270.4392 L612.9306,270.6724 L615.5997,270.9602 L618.2333,270.8048 L620.9043,271.1171 L623.5506,271.1198 L626.2274,271.5046 L626.2473,271.6293 L628.7404,272.0112 L631.2575,272.5436 L633.6985,272.5986 L636.2008,273.0387 L638.7059,273.4959 L638.7559,273.6866 L641.0859,274.3469 L643.2803,274.4898 L645.6323,275.2338 L647.987,275.9884 L650.2862,276.5314 L650.1864,276.2789 L652.4682,277.517 L654.5768,278.3171 L656.6423,279.0084 L658.8062,279.9484 L660.9072,280.7291 L661.0677,281.0104 L662.7584,281.704 L664.8168,283.042 L666.7304,284.1264 L668.6131,285.1565 L670.5076,286.2074 L670.547,286.2562 L672.2431,287.6221 L673.7409,288.7424 L675.507,290.1951 L677.1938,291.5495 L679.0265,293.0845 L679.0478,293.1033 L680.5311,294.7892 L682.0309,296.4896 L683.3549,298.0356 L684.9047,299.78 L686.4025,301.4786 L686.3569,301.4506 L687.8552,303.6188 L689.0327,305.5897 L689.9219,307.3831 L691.3125,309.485 L692.5745,311.5079 L692.3377,311.4092 L693.6742,313.9137 L694.7869,316.3249 L695.7421,318.6705 L696.3213,320.8596 L697.4814,323.2905 L697.6809,323.3428 L697.8782,325.9376 L698.9997,328.7748 L699.5011,331.4494 L700.3875,334.2249 L701.0621,336.9448 L701.1679,336.9597 L701.7085,340.1028 L701.6225,343.1581 L702.5873,346.3607 L702.8951,349.4711 L703.2553,352.589 L703.4131,352.5956 L703.7363,356.1533 L703.5556,359.6899 L703.78,363.2435 L703.9458,366.7947 L704,370.3412 L704.263,370.3412 L703.9989,380.2971 L704.9476,390.253 L703.187,400.2089 L704.7537,410.1649 L703.168,420.1208 L703.2796,430.0767 L704.0533,440.0326 L704.0377,449.9886 L703.3429,459.9445 L704.5516,469.9004 L704.1451,479.8563 L704.9689,489.8123 L704.8895,499.7682 L703.4023,509.7241 L703.4694,519.68 L703.8278,529.636 L704.474,539.5919 L704.5373,549.5478 L704.4015,559.5038 L703.5441,569.4597 L704.8485,579.4156 L704.8451,589.3715 L703.937,599.3275 L703.6813,609.2834 L703.4648,619.2393 L703.7139,629.1952 L704,639.1512 L704.0591,639.1667 L704.6963,641.9018 L705.2718,644.6207 L706.3865,647.4814 L706.7055,650.1328 L707.6284,652.943 L707.7823,653.1048 L709.8222,655.0429 L711.8681,656.9875 L714.0293,659.053 L715.8047,660.7132 L717.943,662.7547 L717.894,662.6304 L721.2564,664.2413 L724.3036,665.0519 L727.5916,666.4739 L730.8775,667.8905 L734.0876,669.1147 L734.0937,669.1446 L736.0538,669.3688 L738.0802,669.9163 L740.1488,670.6693 L742.1384,671.0376 L744.0787,671.1655 L744.0459,670.9025 L746.3085,671.4773 L748.5015,671.4932 L750.7538,671.9855 L752.9968,672.4035 L755.2063,672.5515 L755.2183,672.7377 L757.6186,672.4141 L760.0806,673.0441 L762.5007,673.0276 L764.916,672.935 L767.3633,673.3388 L767.3592,673.1295 L769.9821,673.5349 L772.5973,673.5517 L775.2109,673.4843 L777.8211,673.2439 L780.4429,673.5935 L780.4473,673.886 L783.2198,673.4126 L785.9973,673.2741 L788.7794,673.4365 L791.5629,673.6861 L794.3379,673.3817 L794.3494,673.655 L797.2593,673.2748 L800.1765,673.0696 L803.1032,673.0897 L806.0242,672.9745 L808.9414,672.7693 L808.9274,672.5441 L811.9938,672.7636 L815.0388,672.6385 L818.0584,672.1055 L821.0935,671.8215 L824.1464,671.8225 L824.1695,672.1215 L827.287,671.5888 L830.4261,671.3364 L833.5763,671.2259 L836.6838,670.5643 L839.8458,670.6074 L839.8673,670.8419 L846.336,670.0063 L852.8546,669.7149 L859.3096,668.7291 L865.8257,668.4114 L872.3,667.6362 L872.2807,667.4398 L878.9402,667.0941 L885.5756,666.5031 L892.1746,665.5402 L898.8341,665.1951 L905.4479,664.3842 L905.4249,664.1312 L912.0261,663.5751 L918.6697,663.4847 L925.2669,662.8845 L931.8594,662.2324 L938.4336,661.3799 L938.4213,661.2202 L941.6796,661.3013 L944.8833,660.673 L948.1342,660.6592 L951.3651,660.384 L954.598,660.1358 L954.5908,660.0194 L957.7756,660.2122 L960.9314,659.9388 L964.0709,659.4031 L967.2549,659.5822 L970.4009,659.1518 L970.4026,659.1926 L973.4566,658.7611 L976.5301,658.785 L979.5914,658.5238 L982.6656,658.5638 L985.7351,658.4939 L985.7301,658.2144 L988.682,658.1741 L991.6391,658.4189 L994.5893,658.2811 L997.5416,658.2554 L1000.4938,658.2283 L1000.4929,658.1647 L1003.31,658.3412 L1006.1208,658.0587 L1008.9403,658.4151 L1011.75,658.0522 L1014.5698,658.421 L1014.5769,658.5524 L1017.2412,658.8275 L1019.8968,658.9396 L1022.5503,659.0116 L1025.2035,659.08 L1027.8562,659.1381 L1027.8611,659.1848 L1030.3043,659.1167 L1032.8329,659.8584 L1035.3054,660.0683 L1037.7608,660.1163 L1040.2459,660.4455 L1040.2455,660.443 L1042.5074,660.747 L1044.8168,661.3265 L1047.129,661.922 L1049.3281,661.8617 L1051.632,662.4095 L1051.6847,662.6111 L1053.6771,662.9084 L1055.6996,663.321 L1057.7488,663.8357 L1059.7799,664.2814 L1061.9075,665.0959 L1061.8373,664.913 L1063.7249,665.806 L1065.5741,666.5992 L1067.4339,667.4201 L1069.2206,668.0503 L1070.9653,668.571 L1070.7871,668.3099 L1073.9274,670.7143 L1076.701,672.5815 L1079.5216,674.5176 L1082.3238,676.4267 L1085,678.1512 L1084.7808,677.9569 L1086.3896,679.74 L1088.0558,681.574 L1089.2659,683.0038 L1090.8672,684.7802 L1092.3768,686.4754 L1092.4007,686.4932 L1093.8057,688.3282 L1095.0183,690.0202 L1096.5803,691.9718 L1097.774,693.6498 L1098.9398,695.307 L1099.0364,695.3672 L1099.8935,697.0381 L1101.3823,699.1024 L1102.1952,700.7457 L1103.6846,702.8105 L1104.7267,704.5965 L1104.7297,704.5981 L1105.8544,706.5976 L1106.7115,708.4577 L1107.6783,710.375 L1108.4732,712.2028 L1109.775,714.2944 L1109.6875,714.2566 L1110.3569,716.1814 L1111.4135,718.2737 L1112.562,720.4056 L1113.3184,722.3681 L1114.1223,724.3511 L1113.9333,724.2839 L1114.9621,726.4609 L1115.6235,728.5073 L1116.5603,730.6516 L1117.3062,732.7281 L1117.8065,734.7172 L1117.8465,734.7287 L1118.3417,736.8204 L1118.9382,738.9412 L1119.6388,741.092 L1120.539,743.3002 L1120.8649,745.3431 L1120.573,745.2766 L1121.288,747.4942 L1121.9687,749.704 L1122.6642,751.9172 L1122.9331,754.0331 L1123.3353,756.1794 L1123.2485,756.1643 L1123.3962,758.3225 L1123.9178,760.5459 L1124.3902,762.7608 L1125.0201,765.0031 L1125.2553,767.1766 L1125.4182,767.1972 L1125.5596,769.4012 L1125.7596,771.6126 L1125.7824,773.8015 L1126.438,776.0706 L1126.6626,778.2851 L1126.8554,778.3012 L1127.1514,780.5444 L1127.079,782.7569 L1127.2572,784.9903 L1127.3107,787.2133 L1127.5947,789.4555 L1127.7051,789.4604 L1127.4849,791.6828 L1128.0216,793.9387 L1127.7557,796.1591 L1127.7549,798.3912 L1128.0893,800.6382 L1128.2034,800.6391 L1128.3179,802.8691 L1128.1526,805.0966 L1128.0922,807.325 L1128.2352,809.5552 L1128.184,811.7837 L1128.173,811.7835 L1128.0882,813.9945 L1128.1111,816.2081 L1127.8759,818.4155 L1128.143,820.635 L1127.9164,822.8426 L1128.2215,822.8592 L1127.641,825.0187 L1127.5755,827.2061 L1127.3531,829.385 L1127.5478,831.5865 L1127.3242,833.7653 L1127.2826,833.7619 L1127.3926,835.9328 L1126.8395,838.0493 L1126.6377,840.1946 L1126.7523,842.3658 L1126.445,844.5024 L1126.3458,844.4917 L1126.3372,846.6155 L1126.1171,848.7165 L1125.9605,850.8242 L1125.3279,852.8809 L1125.3164,855.0043 L1125.3552,855.0094 L1125.2841,857.0787 L1124.541,859.0598 L1124.7345,861.1638 L1124.0945,863.1585 L1123.9761,865.2215 L1124.0449,865.2328 L1123.6294,869.1448 L1122.4334,872.9294 L1122.3936,876.9027 L1121.4094,880.7219 L1120.8107,884.604 L1120.6688,884.5753 L1120.4172,888.1982 L1119.0868,891.6034 L1118.9381,895.2471 L1117.7873,898.6885 L1117.2499,902.2537 L1117.3754,902.2833 L1116.8347,905.4323 L1115.7236,908.447 L1114.872,911.5228 L1114.1642,914.6325 L1113.5947,917.7748 L1113.5162,917.7547 L1113.5435,918.5075 L1112.9983,919.1142 L1113.279,919.9317 L1113.1231,920.6378 L1112.7014,921.276 L1112.3995,921.1973 L1112.5519,921.5979 L1112.3263,921.8999 L1112.5112,922.309 L1112.0431,922.5478 L1112.2611,922.9655 L1112.3194,922.9808 L1112.3716,923.1719 L1112.1528,923.2916 L1112.1971,923.4806 L1112.0925,923.6304 L1112.0427,923.7946 " fill="none" style="stroke:#181818;stroke-width:4.0;"/><polygon fill="#181818" points="247.77,251.7112,247.8288,251.7493,248.7252,253.2891,249.9663,255.0524,251.0952,256.7428,251.855,258.1942,253.1257,259.9766,253.1003,259.9712,252.7532,258.8402,252.5338,257.7361,252.4033,256.6508,251.9667,255.5009,251.9588,254.4414,251.9969,254.6219,253.0225,254.0024,254.1593,253.9101,255.3096,253.8821,256.3811,253.4799,257.494,253.2745,257.4976,253.2969,255.5475,252.9513,253.6138,252.7079,251.6722,252.4152,249.7458,252.2166,247.77,251.7112" style="stroke:#181818;stroke-width:4.0;"/><text fill="#000000" font-family="Chalkduster" font-size="24" lengthAdjust="spacing" textLength="115" x="705" y="507.992">Preserve</text></g><!--SRC=[RP7BQiCm44Nt_egfLotK3dHfGY1rDjs5GkacK1HvQel8af56UL3oxnqfSScZri9evfwvqjM3CbA71hzwOGvGbfD6a2YqM1UU3XfBsbFsSANfROEw49BKLf52NmwXrrb6YZHMCF-hWpBmPhwTyEI2fE0GQci8zmIFBqzP_1nA4gRL2FbPUHBc829-nVvSoUTIelSWJ0CYK8U6b1Iah06FRgkucKS2uctMmaV2oKvjXOPt7AnNP9sA8ZPoN83fr8trmsoMs2C0yEzYHctx8L3oIQJaFPCxwpP-418Jo1HSdBIsMlEE4RyosC8Er-p2rhV2JvwYJ9lixfglQgsLRPqOElKFM_ERt1KNw3TaXtJAGEZkiTuwBCioFz_ro2jBQHH568fYngZMK75amMCcW-D6OtU6EqbMmU8KMYOCt7IMWK_iEvYip2bwv34-QF9HF0vA7XnY1HyUdpcWFQ5fajLqb8oAfSFukFWB]--></g></svg>