<svg xmlns="http://www.w3.org/2000/svg" xmlns:xlink="http://www.w3.org/1999/xlink" contentStyleType="text/css" data-diagram-type="DESCRIPTION" height="441px" preserveAspectRatio="none" style="width:604px;height:441px;background:#FFFFFF;" version="1.1" viewBox="0 0 604 441" width="604px" zoomAndPan="magnify"><title>Research Data Activities</title><defs/><g><text fill="#000000" font-family="Chalkduster" font-size="42" font-weight="bold" lengthAdjust="spacing" textLength="576.4905" x="10" y="51.7215">Research Data Activities</text><!--cluster activities--><g class="cluster" data-entity="activities" data-source-line="7" data-uid="ent0002" id="cluster_activities"><polygon fill="#FFC7D8" points="27.7453,83.8912,27.7453,84.1013,37.6738,83.4768,47.6024,84.0844,57.531,84.2908,67.4596,83.1778,77.3881,83.8134,87.3167,83.4647,97.2453,83.5077,107.1738,83.823,117.1024,83.1998,127.031,84.4448,136.9596,83.2609,146.8881,83.6934,156.8167,84.3231,166.7453,83.8054,176.6738,83.9594,186.6024,83.8592,196.531,84.0697,206.4596,84.1303,216.3881,84.4769,226.3167,84.5622,236.2453,84.5704,246.1738,84.1458,256.1024,84.3547,266.031,84.5934,275.9596,83.17,285.8881,84.5697,295.8167,83.5947,305.7453,84.425,315.6738,83.3961,325.6024,83.8227,335.531,84.6328,345.4596,83.8424,355.3881,83.9965,365.3167,84.2298,375.2453,84.3074,385.1738,83.8873,395.1024,84.1784,405.031,83.3187,414.9596,84.1755,424.8881,84.4394,434.8167,84.3357,444.7453,84.5042,454.6738,83.4081,464.6024,83.239,474.531,83.2698,484.4596,83.8323,494.3881,83.6946,504.3167,84.5726,514.2453,83.7165,524.1738,83.5481,534.1024,84.1194,544.031,83.2243,553.9596,83.372,563.8881,84.5401,573.8167,84.3268,583.7453,83.8912,583.839,84.1174,584.0578,83.9385,584.4931,84.2824,584.8812,84.5123,585.0992,84.3315,585.513,84.6234,585.4835,84.6112,585.6983,84.993,586.0066,85.4136,585.9511,85.6835,586.2413,86.0966,586.2453,86.3912,585.6915,86.3912,585.568,96.2843,586.7489,106.1774,585.5283,116.0706,586.7542,125.9637,586.4519,135.8569,585.9774,145.75,585.8915,155.6432,586.704,165.5363,585.9459,175.4294,586.8371,185.3226,585.6925,195.2157,586.8627,205.1089,586.7296,215.002,586.4902,224.8952,586.2925,234.7883,586.9719,244.6814,586.8588,254.5746,586.4145,264.4677,586.5135,274.3609,586.115,284.254,586.9617,294.1472,586.4001,304.0403,586.4178,313.9334,585.6369,323.8266,585.84,333.7197,586.776,343.6129,586.675,353.506,586.2023,363.3992,585.9231,373.2923,586.0263,383.1854,585.5591,393.0786,586.66,402.9717,586.9848,412.8649,586.7717,422.758,586.2453,432.6512,586.4593,432.7398,586.0567,432.9873,585.9792,433.3694,585.6866,433.6624,585.747,434.1016,585.513,434.4189,585.5445,434.4949,585.2299,434.7355,584.7766,434.6411,584.4352,434.8169,584.1554,435.1413,583.7453,435.1512,583.7453,435.7185,573.8167,434.6386,563.8881,434.9573,553.9596,435.3004,544.031,434.5403,534.1024,435.5046,524.1738,435.4092,514.2453,435.0504,504.3167,435.2934,494.3881,435.8798,484.4596,434.8383,474.531,435.4661,464.6024,435.4368,454.6738,435.2669,444.7453,435.2921,434.8167,435.2646,424.8881,434.527,414.9596,434.7503,405.031,434.6896,395.1024,435.215,385.1738,435.2393,375.2453,435.3129,365.3167,434.8602,355.3881,435.0836,345.4596,435.0309,335.531,435.728,325.6024,435.5777,315.6738,434.6656,305.7453,435.0782,295.8167,434.5739,285.8881,435.4395,275.9596,435.7596,266.031,435.6957,256.1024,434.7156,246.1738,435.6151,236.2453,434.4084,226.3167,435.3513,216.3881,434.8518,206.4596,435.2479,196.531,435.3915,186.6024,435.6233,176.6738,434.4312,166.7453,435.6266,156.8167,435.3293,146.8881,435.5065,136.9596,435.899,127.031,435.1566,117.1024,435.3264,107.1738,435.3646,97.2453,435.3484,87.3167,435.1503,77.3881,435.8619,67.4596,434.5414,57.531,435.7164,47.6024,434.5272,37.6738,434.6108,27.7453,435.1512,27.7504,435.1635,27.3953,435.0134,26.9753,434.7065,26.7374,434.8392,26.3449,434.5989,25.9775,434.4189,26.2013,434.5116,26.0365,434.1505,25.5466,433.6546,25.4156,433.3075,25.3519,432.9882,25.2453,432.6512,25.6008,432.6512,25.6483,422.758,25.5464,412.8649,24.9033,402.9717,25.8816,393.0786,25.8791,383.1854,25.198,373.2923,25.0062,363.3992,24.8439,353.506,25.0307,343.6129,25.3827,333.7197,25.1769,323.8266,24.8275,313.9334,25.7327,304.0403,24.7863,294.1472,25.7476,284.254,25.6725,274.3609,25.6171,264.4677,25.9378,254.5746,24.9994,244.6814,24.9446,234.7883,25.7642,224.8952,24.6484,215.002,25.0113,205.1089,25.3608,195.2157,25.314,185.3226,24.8868,175.4294,25.2023,165.5363,25.9899,155.6432,25.8938,145.75,24.649,135.8569,25.3238,125.9637,24.7314,116.0706,25.219,106.1774,25.5383,96.2843,25.2453,86.3912,25.3746,86.4447,25.187,85.9528,25.6615,85.7351,25.6872,85.3316,25.66,84.9061,25.9775,84.6234,25.9174,84.4783,26.3727,84.5775,26.7165,84.4074,27.0361,84.179,27.306,83.8306,27.7453,83.8912" style="stroke:#181818;stroke-width:4;"/><text fill="#000000" font-family="Chalkduster" font-size="24" font-style="italic" lengthAdjust="spacing" textLength="174.126" x="218.6823" y="109.732">&#171;workspace&#187;</text><text fill="#000000" font-family="Chalkduster" font-size="24" font-weight="bold" lengthAdjust="spacing" textLength="545.1314" x="33.1796" y="140.3619">Research &amp; Data Management Activities</text></g><!--entity coll--><g class="entity" data-entity="coll" data-source-line="9" data-uid="ent0003" id="entity_coll"><polygon fill="none" points="247.2912,177.8371,246.1186,179.4394,244.7315,181.7862,242.7478,183.3678,240.6633,184.2327,239.0012,184.3078,236.865,183.2261,234.8493,182.5195,233.3194,181.0847,232.5169,179.4423,232.041,178.1345,231.5747,176.4262,230.8179,174.9562,231.3995,173.521,231.909,171.9488,233.8211,170.7053,235.1663,169.092,236.8313,168.5562,238.8108,168.0948,241.3491,168.369,242.7395,169.0246,244.3559,169.3218,246.3213,171.3355,247.0065,173.4613,247.3042,174.9118,246.967,177.302" style="stroke:#8B0000;stroke-width:4;"/><path d="M239.247,183.8912 L239.4339,183.8912 L238.8787,189.2912 L239.4188,194.6912 L239.6023,200.0912 L238.6129,205.4912 L239.247,210.8912 M226.247,191.8912 L226.247,191.8221 L231.447,191.5121 L236.647,191.5503 L241.847,191.8306 L247.047,191.2766 L252.247,191.8912 M239.247,210.8912 L239.6189,211.2135 L236.2237,213.5242 L233.9142,216.776 L231.7372,220.1426 L228.7894,222.8412 L226.247,225.8912 M239.247,210.8912 L239.2929,210.9309 L241.8256,213.8726 L244.567,216.9951 L247.2077,220.0304 L250.0405,223.2321 L252.247,225.8912" fill="none" style="stroke:#8B0000;stroke-width:4;"/><text fill="#000000" font-family="Chalkduster" font-size="24" lengthAdjust="spacing" textLength="100.1635" x="189.1653" y="254.732">Collect</text></g><!--entity cur--><g class="entity" data-entity="cur" data-source-line="10" data-uid="ent0004" id="entity_cur"><polygon fill="none" points="378.2934,177.8371,377.1207,179.4394,375.7337,181.7862,373.75,183.3678,371.6655,184.2327,370.0034,184.3078,367.8672,183.2261,365.8515,182.5195,364.3216,181.0847,363.5191,179.4423,363.0431,178.1345,362.5769,176.4262,361.8201,174.9562,362.4016,173.521,362.9112,171.9488,364.8232,170.7053,366.1684,169.092,367.8335,168.5562,369.8129,168.0948,372.3513,168.369,373.7416,169.0246,375.3581,169.3218,377.3235,171.3355,378.0087,173.4613,378.3063,174.9118,377.9692,177.302" style="stroke:#8B0000;stroke-width:4;"/><path d="M370.2492,183.8912 L370.436,183.8912 L369.8809,189.2912 L370.421,194.6912 L370.6045,200.0912 L369.6151,205.4912 L370.2492,210.8912 M357.2492,191.8912 L357.2492,191.8221 L362.4492,191.5121 L367.6492,191.5503 L372.8492,191.8306 L378.0492,191.2766 L383.2492,191.8912 M370.2492,210.8912 L370.6211,211.2135 L367.2258,213.5242 L364.9163,216.776 L362.7393,220.1426 L359.7916,222.8412 L357.2492,225.8912 M370.2492,210.8912 L370.295,210.9309 L372.8277,213.8726 L375.5691,216.9951 L378.2098,220.0304 L381.0426,223.2321 L383.2492,225.8912" fill="none" style="stroke:#8B0000;stroke-width:4;"/><text fill="#000000" font-family="Chalkduster" font-size="24" lengthAdjust="spacing" textLength="90.9878" x="324.7553" y="254.732">Curate</text></g><!--entity int--><g class="entity" data-entity="int" data-source-line="11" data-uid="ent0005" id="entity_int"><polygon fill="none" points="244.2908,335.4671,243.1181,337.0694,241.7311,339.4162,239.7474,340.9978,237.6629,341.8627,236.0008,341.9378,233.8646,340.8561,231.8489,340.1495,230.319,338.7147,229.5165,337.0723,229.0405,335.7645,228.5743,334.0562,227.8175,332.5862,228.399,331.151,228.9086,329.5788,230.8206,328.3353,232.1658,326.722,233.8309,326.1862,235.8103,325.7248,238.3487,325.999,239.739,326.6546,241.3555,326.9518,243.3209,328.9655,244.0061,331.0913,244.3037,332.5418,243.9666,334.932" style="stroke:#8B0000;stroke-width:4;"/><path d="M236.2466,341.5212 L236.4334,341.5212 L235.8783,346.9212 L236.4184,352.3212 L236.6019,357.7212 L235.6125,363.1212 L236.2466,368.5212 M223.2466,349.5212 L223.2466,349.4521 L228.4466,349.1421 L233.6466,349.1803 L238.8466,349.4606 L244.0466,348.9066 L249.2466,349.5212 M236.2466,368.5212 L236.6185,368.8435 L233.2232,371.1542 L230.9138,374.406 L228.7367,377.7726 L225.789,380.4712 L223.2466,383.5212 M236.2466,368.5212 L236.2924,368.5609 L238.8251,371.5026 L241.5665,374.6251 L244.2072,377.6604 L247.04,380.8621 L249.2466,383.5212" fill="none" style="stroke:#8B0000;stroke-width:4;"/><text fill="#000000" font-family="Chalkduster" font-size="24" lengthAdjust="spacing" textLength="129.1227" x="171.6853" y="412.362">Integrate</text></g><!--entity an--><g class="entity" data-entity="an" data-source-line="12" data-uid="ent0006" id="entity_an"><polygon fill="none" points="396.2884,335.4671,395.1158,337.0694,393.7287,339.4162,391.745,340.9978,389.6605,341.8627,387.9984,341.9378,385.8622,340.8561,383.8465,340.1495,382.3166,338.7147,381.5141,337.0723,381.0382,335.7645,380.5719,334.0562,379.8151,332.5862,380.3967,331.151,380.9062,329.5788,382.8183,328.3353,384.1635,326.722,385.8285,326.1862,387.8079,325.7248,390.3463,325.999,391.7366,326.6546,393.3531,326.9518,395.3185,328.9655,396.0037,331.0913,396.3014,332.5418,395.9642,334.932" style="stroke:#8B0000;stroke-width:4;"/><path d="M388.2442,341.5212 L388.431,341.5212 L387.8759,346.9212 L388.416,352.3212 L388.5995,357.7212 L387.6101,363.1212 L388.2442,368.5212 M375.2442,349.5212 L375.2442,349.4521 L380.4442,349.1421 L385.6442,349.1803 L390.8442,349.4606 L396.0442,348.9066 L401.2442,349.5212 M388.2442,368.5212 L388.6161,368.8435 L385.2208,371.1542 L382.9114,374.406 L380.7344,377.7726 L377.7866,380.4712 L375.2442,383.5212 M388.2442,368.5212 L388.2901,368.5609 L390.8228,371.5026 L393.5641,374.6251 L396.2049,377.6604 L399.0376,380.8621 L401.2442,383.5212" fill="none" style="stroke:#8B0000;stroke-width:4;"/><text fill="#000000" font-family="Chalkduster" font-size="24" lengthAdjust="spacing" textLength="104.7779" x="335.8553" y="412.362">Analyse</text></g><!--link coll to cur--><g class="link" data-entity-1="coll" data-entity-2="cur" data-source-line="17" data-uid="lnk7" id="link_coll_cur"><path d="M289.6453,212.7112 L289.6453,212.8046 L295.3733,212.527 L301.1013,212.7971 L306.8293,212.8888 L312.5573,212.3941 L318.2853,212.7112" fill="none" style="stroke:#181818;stroke-width:4;"/><polygon fill="#181818" points="324.2853,212.7112,324.3137,212.7752,322.4292,211.785,320.7114,211.17,318.9394,210.4329,316.9887,209.2939,315.2853,208.7112,315.267,208.6928,315.9847,209.4106,316.7949,210.2208,317.6692,211.0951,318.3223,211.7482,319.2853,212.7112,319.4158,212.8417,318.3367,213.3626,317.6387,214.2645,316.9871,215.213,316.0651,215.8909,315.2853,216.7112,315.2945,216.7319,317.0809,215.9014,318.9094,215.1655,320.7176,214.384,322.5646,213.6896,324.2853,212.7112" style="stroke:#181818;stroke-width:4;"/></g><!--link cur to int--><g class="link" data-entity-1="cur" data-entity-2="int" data-source-line="18" data-uid="lnk8" id="link_cur_int"><path d="M325.0302,266.2179 L325.2426,266.4007 L318.4002,273.0712 L312.8028,280.8137 L306.7999,288.2071 L299.4639,294.4525 L293.8948,302.2194 L287.331,309.1297 L281.5505,316.7146" fill="none" style="stroke:#181818;stroke-width:4;"/><polygon fill="#181818" points="328.9453,261.6712,328.9752,261.7345,327.1055,262.3883,325.4113,263.4134,323.66,264.3176,321.7207,264.8242,320.0416,265.8812,320.0397,265.8554,321.1592,265.6552,322.2885,265.5853,323.4246,265.6059,324.5374,265.3145,325.6827,265.4601,325.8668,265.4738,325.5575,266.5727,325.7855,267.7116,326.079,268.8555,325.9911,269.9709,326.1039,271.1012,326.1257,271.1078,326.662,269.2122,327.2974,267.3464,327.885,265.4662,328.5639,263.6135,328.9453,261.6712" style="stroke:#181818;stroke-width:4;"/><polygon fill="#181818" points="277.6353,321.2612,277.6652,321.3245,279.357,320.2944,281.2244,319.6355,283.0345,318.8558,284.6567,317.6784,286.5391,317.0515,286.5372,317.0257,285.4003,316.9939,284.2731,317.0924,283.1527,317.2814,282.009,317.1584,280.8979,317.4724,281.082,317.4861,280.6043,316.3285,280.6639,315.211,280.789,314.0984,280.5327,312.9573,280.4771,311.8312,280.4988,311.8378,279.8985,313.7141,279.3973,315.6204,278.8483,317.5122,278.3906,319.4315,277.6353,321.2612" style="stroke:#181818;stroke-width:4;"/></g><!--link cur to an--><g class="link" data-entity-1="cur" data-entity-2="an" data-source-line="19" data-uid="lnk9" id="link_cur_an"><path d="M376.4848,267.6314 L376.7632,267.6636 L377.0383,277.1019 L378.9453,286.7288 L380.321,296.2943 L379.9489,305.6577 L381.9961,315.3009" fill="none" style="stroke:#181818;stroke-width:4;"/><polygon fill="#181818" points="375.7953,261.6712,375.8621,261.6921,375.0756,263.51,374.6811,265.4504,374.1589,267.351,373.217,269.1202,372.8561,271.0712,372.8358,271.0551,373.4474,270.0963,374.1614,269.2185,374.9466,268.3972,375.4865,267.3815,376.3699,266.638,376.4845,266.7827,377.126,267.1761,378.1022,267.9919,379.1192,268.8592,379.8987,269.4267,380.8031,270.1518,380.8227,270.1634,379.7923,268.4503,378.8512,266.7898,377.867,265.104,376.9649,263.4666,375.7953,261.6712" style="stroke:#181818;stroke-width:4;"/><polygon fill="#181818" points="382.6853,321.2612,382.7521,321.2821,383.1414,319.34,383.9227,317.5204,384.5763,315.661,384.8101,313.6703,385.625,311.8613,385.6047,311.8452,384.8108,312.6596,384.1192,313.5551,383.4988,314.507,382.6332,315.2645,382.111,316.2943,382.2256,316.4389,381.0938,315.4268,380.2968,314.837,379.5406,314.2986,378.5468,313.4606,377.678,312.7802,377.6976,312.7917,378.6703,314.471,379.7321,316.2028,380.751,317.9093,381.8519,319.6642,382.6853,321.2612" style="stroke:#181818;stroke-width:4;"/></g><!--link int to an--><g class="link" data-entity-1="int" data-entity-2="an" data-source-line="20" data-uid="lnk10" id="link_int_an"><path d="M307.2653,370.3412 L307.2653,370.4346 L311.7273,370.157 L316.1893,370.4271 L320.6513,370.5188 L325.1133,370.0241 L329.5753,370.3412" fill="none" style="stroke:#181818;stroke-width:4;"/><polygon fill="#181818" points="301.2653,370.3412,301.2937,370.4052,303.0092,371.015,304.8914,372,306.7194,372.8629,308.3687,373.3239,310.2653,374.3412,310.247,374.3228,309.3647,373.4406,308.5749,372.6508,307.8492,371.9251,306.9023,370.9782,306.2653,370.3412,306.3958,370.4717,306.9167,369.3926,307.8187,368.6945,308.7671,368.043,309.4451,367.1209,310.2653,366.3412,310.2745,366.3619,308.4609,367.1314,306.6894,367.9955,304.8976,368.814,303.1446,369.7196,301.2653,370.3412" style="stroke:#181818;stroke-width:4;"/><polygon fill="#181818" points="335.5753,370.3412,335.6037,370.4052,333.7192,369.415,332.0014,368.8,330.2294,368.0629,328.2787,366.9239,326.5753,366.3412,326.557,366.3228,327.2747,367.0406,328.0849,367.8508,328.9592,368.7251,329.6123,369.3782,330.5753,370.3412,330.7058,370.4717,329.6267,370.9926,328.9287,371.8945,328.2771,372.843,327.3551,373.5209,326.5753,374.3412,326.5845,374.3619,328.3709,373.5314,330.1994,372.7955,332.0076,372.014,333.8546,371.3196,335.5753,370.3412" style="stroke:#181818;stroke-width:4;"/></g><!--SRC=[LOunRiCm34LtdeBra4tk7XW6WdRfqAKtO6J24QfGWKGt2OhUFLGCE-b6lF__arw2-3WDZ6txEf2IYxHtHQ-HMxqeQD38M_pYmfJz0T-jWZkluITeu888eEc4cd2VLDCHXv3PuYG0zI0P8sEpxZUpuPE4HZwow9EiGIf83tVNdLF-BYVotFVu2s1PojYyfHXDVQzxkrS-PLAUyPHnmH-YFAv945s2dL2y5iFtT-t3Vm1GXUXo60_g-kg1wkhSaCvYeCvdi5HiQF0_W1i0]--></g></svg>