<svg xmlns="http://www.w3.org/2000/svg" xmlns:xlink="http://www.w3.org/1999/xlink" contentStyleType="text/css" data-diagram-type="DESCRIPTION" height="1375px" preserveAspectRatio="none" style="width:972px;height:1375px;background:#FFFFFF;" version="1.1" viewBox="0 0 972 1375" width="972px" zoomAndPan="magnify"><title>Activities in Infrastructure Context (1)</title><defs/><g><text fill="#000000" font-family="Chalkduster" font-size="42" font-weight="bold" lengthAdjust="spacing" textLength="944.0022" x="10" y="51.7215">Activities in Infrastructure Context (1)</text><!--cluster activities--><g class="cluster" data-entity="activities" data-source-line="6" data-uid="ent0002" id="cluster_activities"><polygon fill="#FFC7D8" points="203.6861,83.8912,203.6861,84.1013,213.6147,83.4768,223.5432,84.0844,233.4718,84.2908,243.4004,83.1778,253.329,83.8134,263.2575,83.4647,273.1861,83.5077,283.1147,83.823,293.0432,83.1998,302.9718,84.4448,312.9004,83.2609,322.829,83.6934,332.7575,84.3231,342.6861,83.8054,352.6147,83.9594,362.5432,83.8592,372.4718,84.0697,382.4004,84.1303,392.329,84.4769,402.2575,84.5622,412.1861,84.5704,422.1147,84.1458,432.0432,84.3547,441.9718,84.5934,451.9004,83.17,461.829,84.5697,471.7575,83.5947,481.6861,84.425,491.6147,83.3961,501.5432,83.8227,511.4718,84.6328,521.4004,83.8424,531.329,83.9965,541.2575,84.2298,551.1861,84.3074,561.1147,83.8873,571.0432,84.1784,580.9718,83.3187,590.9004,84.1755,600.829,84.4394,610.7575,84.3357,620.6861,84.5042,630.6147,83.4081,640.5432,83.239,650.4718,83.2698,660.4004,83.8323,670.329,83.6946,680.2575,84.5726,690.1861,83.7165,700.1147,83.5481,710.0432,84.1194,719.9718,83.2243,729.9004,83.372,739.829,84.5401,749.7575,84.3268,759.6861,83.8912,759.7798,84.1174,759.9986,83.9385,760.4339,84.2824,760.8221,84.5123,761.0401,84.3315,761.4539,84.6234,761.4243,84.6112,761.6391,84.993,761.9475,85.4136,761.8919,85.6835,762.1821,86.0966,762.1861,86.3912,761.6323,86.3912,761.5088,96.3334,762.6897,106.2755,761.4692,116.2177,762.6951,126.1599,762.3927,136.1021,761.9182,146.0443,761.8323,155.9865,762.6449,165.9287,761.8868,175.8709,762.778,185.8131,761.6334,195.7553,762.8035,205.6975,762.6704,215.6397,762.4311,225.5818,762.2333,235.524,762.9127,245.4662,762.7997,255.4084,762.3554,265.3506,762.4543,275.2928,762.0558,285.235,762.9025,295.1772,762.341,305.1194,762.3587,315.0616,761.5777,325.0038,761.7809,334.946,762.7168,344.8881,762.6159,354.8303,762.1432,364.7725,761.8639,374.7147,761.9672,384.6569,761.4999,394.5991,762.6008,404.5413,762.9257,414.4835,762.7125,424.4257,762.881,434.3679,762.0494,444.3101,762.2733,454.2523,761.7985,464.1944,762.4701,474.1366,762.4329,484.0788,762.7385,494.021,761.9564,503.9632,762.0517,513.9054,762.6296,523.8476,762.7534,533.7898,761.6736,543.732,761.9922,553.6742,762.3354,563.6164,761.5753,573.5586,762.5395,583.5008,762.4441,593.4429,762.0853,603.3851,762.3283,613.3273,762.9148,623.2695,761.8732,633.2117,762.5011,643.1539,762.4717,653.0961,762.3019,663.0383,762.327,672.9805,762.2996,682.9227,761.5619,692.8649,761.7853,702.8071,761.7246,712.7492,762.2499,722.6914,762.2742,732.6336,762.3478,742.5758,761.8951,752.518,762.1186,762.4602,762.0659,772.4024,762.763,782.3446,762.6127,792.2868,761.7006,802.229,762.1861,812.1712,762.1636,812.1619,761.8619,812.4511,761.982,812.9151,761.9341,813.3094,761.768,813.6548,761.4539,813.9389,761.3983,813.8048,761.1595,814.2283,760.652,814.0031,760.4187,814.4399,760.0015,814.4325,759.6861,814.6712,759.6861,814.7679,749.7575,814.9115,739.829,815.1433,729.9004,813.9512,719.9718,815.1466,710.0432,814.8493,700.1147,815.0265,690.1861,815.419,680.2575,814.6766,670.329,814.8464,660.4004,814.8846,650.4718,814.8684,640.5432,814.6703,630.6147,815.3819,620.6861,814.0614,610.7575,815.2364,600.829,814.0472,590.9004,814.1308,580.9718,814.7112,571.0432,814.6994,561.1147,814.1783,551.1861,815.0849,541.2575,814.78,531.329,815.3978,521.4004,815.3383,511.4718,814.2229,501.5432,814.2732,491.6147,814.542,481.6861,815.0267,471.7575,815.0741,461.829,814.9723,451.9004,814.3292,441.9718,815.3075,432.0432,815.3049,422.1147,814.6239,412.1861,814.4321,402.2575,814.2698,392.329,814.4566,382.4004,814.8086,372.4718,814.6028,362.5432,814.2534,352.6147,815.1585,342.6861,814.2122,332.7575,815.1735,322.829,815.0984,312.9004,815.043,302.9718,815.3637,293.0432,814.4253,283.1147,814.3705,273.1861,815.19,263.2575,814.0743,253.329,814.4372,243.4004,814.7867,233.4718,814.7398,223.5432,814.3127,213.6147,814.6282,203.6861,814.6712,203.7811,814.9005,203.4153,814.7244,202.9029,814.1946,202.6355,814.256,202.2063,813.9271,201.9183,813.9389,201.9102,813.9356,201.8621,813.6227,201.7547,813.2854,201.2743,812.7935,201.4559,812.5758,201.1861,812.1712,201.1945,812.1712,200.6308,802.229,200.715,792.2868,201.5127,782.3446,201.436,772.4024,201.1697,762.4602,200.514,752.518,201.8442,742.5758,200.8743,732.6336,200.658,722.6914,201.1188,712.7492,201.7758,702.8071,201.8015,692.8649,201.2212,682.9227,201.0349,672.9805,201.3559,663.0383,201.3723,653.0961,200.6783,643.1539,201.6,633.2117,201.7449,623.2695,200.9703,613.3273,200.7569,603.3851,201.8607,593.4429,201.2071,583.5008,201.1859,573.5586,201.4851,563.6164,200.5404,553.6742,201.7161,543.732,201.1706,533.7898,201.8549,523.8476,200.9702,513.9054,201.5951,503.9632,200.7421,494.021,201.4311,484.0788,201.5654,474.1366,200.8588,464.1944,201.5491,454.2523,200.6147,444.3101,200.7156,434.3679,201.8689,424.4257,201.8705,414.4835,201.7546,404.5413,200.8257,394.5991,201.5703,384.6569,200.714,374.7147,201.2442,364.7725,201.1848,354.8303,200.9237,344.8881,201.802,334.946,201.6294,325.0038,200.8653,315.0616,201.7127,305.1194,201.278,295.1772,200.6025,285.235,200.9528,275.2928,200.6608,265.3506,201.047,255.4084,200.5571,245.4662,200.5859,235.524,201.2564,225.5818,201.0657,215.6397,201.1275,205.6975,201.0429,195.7553,201.3534,185.8131,200.631,175.8709,201.3461,165.9287,200.443,155.9865,201.4821,146.0443,201.7789,136.1021,201.7082,126.1599,201.5474,116.2177,201.3783,106.2755,201.2918,96.3334,201.1861,86.3912,200.989,86.3095,201.4701,86.0946,201.5805,85.7261,201.5782,85.3109,201.7701,84.9762,201.9183,84.6234,201.8917,84.5592,202.2997,84.544,202.7122,84.5401,202.9338,84.0751,203.3924,84.182,203.6861,83.8912" style="stroke:#181818;stroke-width:4;"/><text fill="#000000" font-family="Chalkduster" font-size="24" font-style="italic" lengthAdjust="spacing" textLength="174.126" x="394.6231" y="109.732">&#171;workspace&#187;</text><text fill="#000000" font-family="Chalkduster" font-size="24" font-weight="bold" lengthAdjust="spacing" textLength="545.1314" x="209.1204" y="140.3619">Research &amp; Data Management Activities</text></g><!--cluster infrastructure--><g class="cluster" data-entity="infrastructure" data-source-line="25" data-uid="ent0018" id="cluster_infrastructure"><polygon fill="none" points="111.6861,1002.6712,111.6861,1002.8813,121.7251,1002.2568,131.764,1002.8644,141.803,1003.0708,151.8419,1001.9578,161.8809,1002.5934,171.9199,1002.2447,181.9588,1002.2877,191.9978,1002.603,202.0367,1001.9798,212.0757,1003.2248,222.1147,1002.0409,232.1536,1002.4734,242.1926,1003.1031,252.2316,1002.5854,262.2705,1002.7394,272.3095,1002.6392,282.3484,1002.8497,292.3874,1002.9103,302.4264,1003.2569,312.4653,1003.3422,322.5043,1003.3504,332.5432,1002.9258,342.5822,1003.1347,352.6212,1003.3734,362.6601,1001.95,372.6991,1003.3497,382.738,1002.3747,392.777,1003.205,402.816,1002.1761,412.8549,1002.6027,422.8939,1003.4128,432.9329,1002.6224,442.9718,1002.7765,453.0108,1003.0098,463.0497,1003.0874,473.0887,1002.6673,483.1277,1002.9584,493.1666,1002.0987,503.2056,1002.9555,513.2445,1003.2194,523.2835,1003.1157,533.3225,1003.2842,543.3614,1002.1881,553.4004,1002.019,563.4393,1002.0498,573.4783,1002.6123,583.5173,1002.4746,593.5562,1003.3526,603.5952,1002.4965,613.6342,1002.3281,623.6731,1002.8994,633.7121,1002.0043,643.751,1002.152,653.79,1003.3201,663.829,1003.1068,673.8679,1003.4057,683.9069,1002.3494,693.9458,1002.9904,703.9848,1003.2616,714.0238,1002.1988,724.0627,1002.5753,734.1017,1002.7971,744.1406,1003.3229,754.1796,1002.667,764.2186,1003.1337,774.2575,1002.1174,784.2965,1001.9939,794.3354,1003.1748,804.3744,1001.9542,814.4134,1003.1801,824.4523,1002.8778,834.4913,1002.4032,844.5303,1002.3174,854.5692,1003.1299,864.6082,1002.3718,874.6471,1003.263,884.6861,1002.6712,884.6156,1002.5009,885.1184,1003.0077,885.455,1003.1132,885.778,1003.1859,886.1063,1003.2715,886.4539,1003.4034,886.6776,1003.4961,886.7893,1003.8352,886.7989,1004.1321,886.9758,1004.4983,886.9995,1004.801,887.1861,1005.1712,887.9025,1005.1712,887.341,1015.2607,887.3587,1025.3503,886.5777,1035.4399,886.7809,1045.5295,887.7168,1055.6191,887.6159,1065.7087,887.1432,1075.7982,886.8639,1085.8878,886.9672,1095.9774,886.4999,1106.067,887.6008,1116.1566,887.9257,1126.2462,887.7125,1136.3357,887.881,1146.4253,887.0494,1156.5149,887.2733,1166.6045,886.7985,1176.6941,887.4701,1186.7837,887.4329,1196.8732,887.7385,1206.9628,886.9564,1217.0524,887.0517,1227.142,887.6296,1237.2316,887.1861,1247.3212,887.3608,1247.3935,886.8818,1247.6093,886.8335,1248.0035,886.7927,1248.4009,886.4122,1248.6575,886.4539,1249.0889,886.4989,1249.1978,886.1332,1249.3148,885.7339,1249.3508,885.4114,1249.5721,885.1326,1249.8991,884.6861,1249.8212,884.6861,1249.5083,874.6471,1250.1361,864.6082,1250.1068,854.5692,1249.9369,844.5303,1249.9621,834.4913,1249.9346,824.4523,1249.197,814.4134,1249.4203,804.3744,1249.3596,794.3354,1249.885,784.2965,1249.9093,774.2575,1249.9829,764.2186,1249.5302,754.1796,1249.7536,744.1406,1249.7009,734.1017,1250.398,724.0627,1250.2477,714.0238,1249.3356,703.9848,1249.7482,693.9458,1249.2439,683.9069,1250.1095,673.8679,1250.4296,663.829,1250.3657,653.79,1249.3856,643.751,1250.2851,633.7121,1249.0784,623.6731,1250.0213,613.6342,1249.5218,603.5952,1249.9179,593.5562,1250.0615,583.5173,1250.2933,573.4783,1249.1012,563.4393,1250.2966,553.4004,1249.9993,543.3614,1250.1765,533.3225,1250.569,523.2835,1249.8266,513.2445,1249.9964,503.2056,1250.0346,493.1666,1250.0184,483.1277,1249.8203,473.0887,1250.5319,463.0497,1249.2114,453.0108,1250.3864,442.9718,1249.1972,432.9329,1249.2808,422.8939,1249.8612,412.8549,1249.8494,402.816,1249.3283,392.777,1250.2349,382.738,1249.93,372.6991,1250.5478,362.6601,1250.4883,352.6212,1249.3729,342.5822,1249.4232,332.5432,1249.692,322.5043,1250.1767,312.4653,1250.2241,302.4264,1250.1223,292.3874,1249.4792,282.3484,1250.4575,272.3095,1250.4549,262.2705,1249.7739,252.2316,1249.5821,242.1926,1249.4198,232.1536,1249.6066,222.1147,1249.9586,212.0757,1249.7528,202.0367,1249.4034,191.9978,1250.3085,181.9588,1249.3622,171.9199,1250.3235,161.8809,1250.2484,151.8419,1250.193,141.803,1250.5137,131.764,1249.5753,121.7251,1249.5205,111.6861,1249.8212,111.7523,1249.981,111.2564,1249.4909,110.9491,1249.4562,110.6402,1249.4174,110.2806,1249.2565,109.9183,1249.0889,109.8079,1249.0432,109.7586,1248.7299,109.8547,1248.4768,109.6787,1248.111,109.1489,1247.5987,109.1861,1247.3212,109.2646,1247.3212,108.6722,1237.2316,109.1598,1227.142,109.4791,1217.0524,109.606,1206.9628,108.5214,1196.8732,109.5866,1186.7837,109.1945,1176.6941,108.6308,1166.6045,108.715,1156.5149,109.5127,1146.4253,109.436,1136.3357,109.1697,1126.2462,108.514,1116.1566,109.8442,1106.067,108.8743,1095.9774,108.658,1085.8878,109.1188,1075.7982,109.7758,1065.7087,109.8015,1055.6191,109.2212,1045.5295,109.0349,1035.4399,109.3559,1025.3503,109.3723,1015.2607,109.1861,1005.1712,109.0297,1005.1064,109.46,1004.8704,109.6511,1004.5353,109.559,1004.083,109.6397,1003.7022,109.9183,1003.4034,110.0044,1003.6112,110.2746,1003.2634,110.6254,1003.1105,111.0171,1003.0561,111.2502,1002.6188,111.6861,1002.6712" style="stroke:#181818;stroke-width:4;"/><text fill="#000000" font-family="Chalkduster" font-size="24" font-weight="bold" lengthAdjust="spacing" textLength="295.9823" x="350.1949" y="1028.512">Storage Infrastucture</text></g><!--entity coll--><g class="entity" data-entity="coll" data-source-line="8" data-uid="ent0003" id="entity_coll"><polygon fill="none" points="356.2321,684.3571,355.0594,685.9594,353.6724,688.3062,351.6887,689.8878,349.6041,690.7527,347.942,690.8278,345.8058,689.7461,343.7902,689.0395,342.2603,687.6047,341.4577,685.9623,340.9818,684.6545,340.5156,682.9462,339.7588,681.4762,340.3403,680.041,340.8498,678.4688,342.7619,677.2253,344.1071,675.612,345.7721,675.0762,347.7516,674.6148,350.29,674.889,351.6803,675.5446,353.2967,675.8418,355.2622,677.8555,355.9473,679.9813,356.245,681.4318,355.9078,683.822" style="stroke:#8B0000;stroke-width:4;"/><path d="M348.1879,690.4112 L348.3747,690.4112 L347.8196,695.8112 L348.3597,701.2112 L348.5431,706.6112 L347.5537,712.0112 L348.1879,717.4112 M335.1879,698.4112 L335.1879,698.3421 L340.3879,698.0321 L345.5879,698.0703 L350.7879,698.3506 L355.9879,697.7966 L361.1879,698.4112 M348.1879,717.4112 L348.5598,717.7335 L345.1645,720.0442 L342.855,723.296 L340.678,726.6626 L337.7302,729.3612 L335.1879,732.4112 M348.1879,717.4112 L348.2337,717.4509 L350.7664,720.3926 L353.5078,723.5151 L356.1485,726.5504 L358.9813,729.7521 L361.1879,732.4112" fill="none" style="stroke:#8B0000;stroke-width:4;"/><text fill="#000000" font-family="Chalkduster" font-size="24" lengthAdjust="spacing" textLength="100.1635" x="298.1061" y="761.252">Collect</text><text fill="#000000" font-family="Chalkduster" font-size="24" lengthAdjust="spacing" textLength="74.6519" x="298.1061" y="791.8819">(new)</text></g><!--entity colr--><g class="entity" data-entity="colr" data-source-line="9" data-uid="ent0004" id="entity_colr"><polygon fill="none" points="537.2321,495.0971,536.0594,496.6994,534.6724,499.0462,532.6887,500.6278,530.6041,501.4927,528.942,501.5678,526.8058,500.4861,524.7902,499.7795,523.2603,498.3447,522.4577,496.7023,521.9818,495.3945,521.5156,493.6862,520.7588,492.2162,521.3403,490.781,521.8498,489.2088,523.7619,487.9653,525.1071,486.352,526.7721,485.8162,528.7516,485.3548,531.29,485.629,532.6803,486.2846,534.2967,486.5818,536.2622,488.5955,536.9473,490.7213,537.245,492.1718,536.9078,494.562" style="stroke:#8B0000;stroke-width:4;"/><path d="M529.1879,501.1512 L529.3747,501.1512 L528.8196,506.5512 L529.3597,511.9512 L529.5431,517.3512 L528.5537,522.7512 L529.1879,528.1512 M516.1879,509.1512 L516.1879,509.0821 L521.3879,508.7721 L526.5879,508.8103 L531.7879,509.0906 L536.9879,508.5366 L542.1879,509.1512 M529.1879,528.1512 L529.5598,528.4735 L526.1645,530.7842 L523.855,534.036 L521.678,537.4026 L518.7302,540.1012 L516.1879,543.1512 M529.1879,528.1512 L529.2337,528.1909 L531.7664,531.1326 L534.5078,534.2551 L537.1485,537.2904 L539.9813,540.4921 L542.1879,543.1512" fill="none" style="stroke:#8B0000;stroke-width:4;"/><text fill="#000000" font-family="Chalkduster" font-size="24" lengthAdjust="spacing" textLength="100.1635" x="479.1061" y="571.992">Collect</text><text fill="#000000" font-family="Chalkduster" font-size="24" lengthAdjust="spacing" textLength="93.5867" x="479.1061" y="602.6219">(reuse)</text></g><!--entity cur--><g class="entity" data-entity="cur" data-source-line="10" data-uid="ent0005" id="entity_cur"><polygon fill="none" points="453.2342,177.8371,452.0616,179.4394,450.6745,181.7862,448.6908,183.3678,446.6063,184.2327,444.9442,184.3078,442.808,183.2261,440.7923,182.5195,439.2624,181.0847,438.4599,179.4423,437.984,178.1345,437.5177,176.4262,436.7609,174.9562,437.3425,173.521,437.852,171.9488,439.7641,170.7053,441.1093,169.092,442.7743,168.5562,444.7537,168.0948,447.2921,168.369,448.6824,169.0246,450.2989,169.3218,452.2643,171.3355,452.9495,173.4613,453.2472,174.9118,452.91,177.302" style="stroke:#8B0000;stroke-width:4;"/><path d="M445.19,183.8912 L445.3769,183.8912 L444.8217,189.2912 L445.3618,194.6912 L445.5453,200.0912 L444.5559,205.4912 L445.19,210.8912 M432.19,191.8912 L432.19,191.8221 L437.39,191.5121 L442.59,191.5503 L447.79,191.8306 L452.99,191.2766 L458.19,191.8912 M445.19,210.8912 L445.5619,211.2135 L442.1666,213.5242 L439.8572,216.776 L437.6802,220.1426 L434.7324,222.8412 L432.19,225.8912 M445.19,210.8912 L445.2359,210.9309 L447.7686,213.8726 L450.5099,216.9951 L453.1507,220.0304 L455.9834,223.2321 L458.19,225.8912" fill="none" style="stroke:#8B0000;stroke-width:4;"/><text fill="#000000" font-family="Chalkduster" font-size="24" lengthAdjust="spacing" textLength="90.9878" x="399.6961" y="254.732">Curate</text></g><!--entity int--><g class="entity" data-entity="int" data-source-line="11" data-uid="ent0006" id="entity_int"><polygon fill="none" points="547.2316,336.4671,546.059,338.0694,544.6719,340.4162,542.6882,341.9978,540.6037,342.8627,538.9416,342.9378,536.8054,341.8561,534.7897,341.1495,533.2598,339.7147,532.4573,338.0723,531.9814,336.7645,531.5151,335.0562,530.7583,333.5862,531.3399,332.151,531.8494,330.5788,533.7615,329.3353,535.1067,327.722,536.7717,327.1862,538.7511,326.7248,541.2895,326.999,542.6798,327.6546,544.2963,327.9518,546.2617,329.9655,546.9469,332.0913,547.2446,333.5418,546.9074,335.932" style="stroke:#8B0000;stroke-width:4;"/><path d="M539.1874,342.5212 L539.3743,342.5212 L538.8191,347.9212 L539.3592,353.3212 L539.5427,358.7212 L538.5533,364.1212 L539.1874,369.5212 M526.1874,350.5212 L526.1874,350.4521 L531.3874,350.1421 L536.5874,350.1803 L541.7874,350.4606 L546.9874,349.9066 L552.1874,350.5212 M539.1874,369.5212 L539.5593,369.8435 L536.164,372.1542 L533.8546,375.406 L531.6776,378.7726 L528.7298,381.4712 L526.1874,384.5212 M539.1874,369.5212 L539.2333,369.5609 L541.766,372.5026 L544.5073,375.6251 L547.1481,378.6604 L549.9808,381.8621 L552.1874,384.5212" fill="none" style="stroke:#8B0000;stroke-width:4;"/><text fill="#000000" font-family="Chalkduster" font-size="24" lengthAdjust="spacing" textLength="129.1227" x="474.6261" y="413.362">Integrate</text></g><!--entity an--><g class="entity" data-entity="an" data-source-line="12" data-uid="ent0007" id="entity_an"><polygon fill="none" points="395.2292,336.4671,394.0566,338.0694,392.6696,340.4162,390.6859,341.9978,388.6013,342.8627,386.9392,342.9378,384.803,341.8561,382.7873,341.1495,381.2574,339.7147,380.4549,338.0723,379.979,336.7645,379.5127,335.0562,378.7559,333.5862,379.3375,332.151,379.847,330.5788,381.7591,329.3353,383.1043,327.722,384.7693,327.1862,386.7488,326.7248,389.2872,326.999,390.6775,327.6546,392.2939,327.9518,394.2594,329.9655,394.9445,332.0913,395.2422,333.5418,394.905,335.932" style="stroke:#8B0000;stroke-width:4;"/><path d="M387.185,342.5212 L387.3719,342.5212 L386.8168,347.9212 L387.3569,353.3212 L387.5403,358.7212 L386.5509,364.1212 L387.185,369.5212 M374.185,350.5212 L374.185,350.4521 L379.385,350.1421 L384.585,350.1803 L389.785,350.4606 L394.985,349.9066 L400.185,350.5212 M387.185,369.5212 L387.5569,369.8435 L384.1617,372.1542 L381.8522,375.406 L379.6752,378.7726 L376.7274,381.4712 L374.185,384.5212 M387.185,369.5212 L387.2309,369.5609 L389.7636,372.5026 L392.505,375.6251 L395.1457,378.6604 L397.9785,381.8621 L400.185,384.5212" fill="none" style="stroke:#8B0000;stroke-width:4;"/><text fill="#000000" font-family="Chalkduster" font-size="24" lengthAdjust="spacing" textLength="104.7779" x="334.7961" y="413.362">Analyse</text></g><!--entity new--><g class="entity" data-entity="new" data-source-line="26" data-uid="ent0019" id="entity_new"><path d="M142.5946,1091.958 L142.5946,1091.958 L142.6011,1092.0512 L145.1257,1091.5984 L147.688,1091.6919 L150.2381,1091.6075 L152.7477,1090.9381 L155.3133,1091.0785 L155.3133,1091.0785 L155.3109,1091.044 L158.107,1090.6902 L160.9155,1090.5102 L163.7325,1090.4508 L166.52,1089.9754 L169.3489,1090.0827 L169.3489,1090.0827 L169.4073,1090.3218 L171.8674,1089.1787 L174.4981,1088.7335 L177.1496,1088.3734 L179.68,1087.5179 L182.2741,1086.923 L182.2741,1086.923 L182.2763,1086.9533 L185.0405,1086.7034 L187.8149,1086.5912 L190.5844,1086.4126 L193.3633,1086.3607 L196.1115,1085.8956 L196.1115,1085.8956 L196.1138,1086.1938 L199.1346,1086.1744 L202.1539,1085.9627 L205.1754,1086.0325 L208.197,1086.1155 L211.2154,1085.7804 L211.2154,1085.7804 L211.2064,1085.46 L213.6422,1086.0136 L216.0483,1085.5122 L218.477,1085.8129 L220.8824,1085.2877 L223.307,1085.4394 L223.307,1085.4394 L223.3064,1085.4089 L226.4388,1085.8222 L229.5591,1085.5243 L232.6865,1085.646 L235.8145,1085.8029 L238.9382,1085.7057 L238.9382,1085.7057 L238.9523,1085.8901 L241.6755,1085.9139 L244.4228,1086.2528 L247.1309,1086.0818 L249.8975,1086.6715 L252.6252,1086.7554 L252.6252,1086.7554 L252.6272,1086.999 L255.4091,1086.9761 L258.1921,1087.0741 L260.9703,1086.6102 L263.752,1086.5582 L266.5367,1086.8712 L266.5367,1086.8712 L266.468,1086.6037 L269.0163,1087.4838 L271.4872,1088.0625 L274.0703,1089.0784 L276.4619,1089.3478 L278.9673,1090.0609 L278.9673,1090.0609 L278.9617,1089.9086 L281.5991,1090.2588 L284.2126,1089.9578 L286.8431,1090.1199 L289.4902,1090.7352 L292.1077,1090.5435 L292.1077,1090.5435 L292.1637,1090.7288 L294.6929,1090.1043 L297.0482,1088.9033 L299.6214,1088.4244 L302.1472,1087.7881 L304.5623,1086.7853 L304.4006,1086.6513 L306.1898,1088.7613 L307.9261,1090.8274 L309.7664,1092.9797 L311.2024,1094.7968 L312.8642,1096.8012 L312.8642,1096.8012 L313.0674,1096.8321 L312.6929,1097.2378 L312.7107,1097.7033 L313.3016,1098.2559 L312.8374,1098.648 L313.2245,1099.1697 L313.2245,1099.1697 L313.4482,1099.2028 L313.7478,1102.1014 L313.9716,1104.9889 L314.3663,1107.9016 L315.156,1110.8728 L315.3868,1113.7613 L315.3868,1113.7613 L315.2539,1113.7543 L315.4861,1116.9057 L314.8148,1120.0099 L315.1708,1123.1676 L314.9484,1126.2953 L314.5701,1129.4147 L314.5701,1129.4147 L314.6774,1129.4332 L315.0523,1132.0954 L315.8113,1134.8238 L316.2233,1137.4924 L316.4901,1140.136 L316.8775,1142.8003 L316.8775,1142.8003 L316.9965,1142.8058 L316.6725,1145.9539 L316.9012,1149.1278 L316.5047,1152.2724 L316.3654,1155.4291 L316.1416,1158.5819 L316.1416,1158.5819 L315.8712,1158.5775 L315.9105,1161.7354 L316.2755,1164.8985 L316.1797,1168.0541 L315.9186,1171.2071 L315.8868,1174.3638 L315.8868,1174.3638 L315.745,1174.344 L316.181,1177.1376 L316.366,1179.8961 L317.2412,1182.7513 L317.7748,1185.5586 L317.84,1188.3002 L317.9628,1188.4993 L315.607,1190.0412 L313.0177,1191.2047 L310.6748,1192.7675 L308.1689,1194.066 L305.8642,1195.6907 L305.8642,1195.6907 L305.9872,1195.719 L306.0638,1196.1177 L306.289,1196.5507 L306.0432,1196.875 L306.1772,1197.2869 L306.3282,1197.7027 L306.3282,1197.7027 L306.3433,1197.8992 L303.9309,1197.7695 L301.4777,1197.1063 L299.0719,1197.0629 L296.667,1197.0303 L294.2453,1196.7795 L294.2453,1196.7795 L294.2057,1196.511 L291.2875,1197.3744 L288.3005,1197.7719 L285.2965,1198.0536 L282.3315,1198.5999 L279.3416,1198.9768 L279.3416,1198.9768 L279.3503,1199.3006 L276.4742,1198.7608 L273.618,1198.9628 L270.754,1198.8728 L267.8883,1198.7203 L265.0233,1198.5919 L265.0233,1198.5919 L265.0245,1198.6545 L262.5918,1198.5925 L260.1526,1198.2149 L257.7222,1198.2644 L255.2891,1198.1876 L252.8608,1198.3429 L252.8608,1198.3429 L252.8657,1198.3708 L250.1681,1198.85 L247.4742,1199.3508 L244.7403,1199.621 L242.0578,1200.1874 L239.3635,1200.6855 L239.3635,1200.6855 L239.362,1200.6321 L236.6235,1200.8626 L233.8743,1200.7167 L231.1153,1200.2323 L228.3732,1200.3365 L225.6268,1200.2897 L225.6268,1200.2897 L225.6112,1200.0337 L222.6231,1200.2344 L219.6202,1200.1931 L216.607,1199.9815 L213.569,1199.3634 L210.5693,1199.3734 L210.5693,1199.3734 L210.5754,1199.5795 L207.8608,1199.1233 L205.1745,1199.622 L202.4692,1199.48 L199.7757,1199.7358 L197.0757,1199.7727 L197.0757,1199.7727 L197.0759,1199.8796 L194.1725,1199.9862 L191.2684,1199.4601 L188.3655,1199.9951 L185.4619,1199.8666 L182.5583,1199.7911 L182.5583,1199.7911 L182.589,1199.946 L180.2022,1199.6362 L177.7171,1198.8316 L175.311,1198.4247 L172.8935,1197.9604 L170.4541,1197.3864 L170.4541,1197.3864 L170.4566,1197.474 L167.6709,1197.3066 L164.8966,1197.5432 L162.0966,1196.8771 L159.3282,1197.3196 L156.5378,1196.989 L156.5378,1196.989 L156.4808,1196.7176 L153.674,1197.3452 L150.9127,1198.1888 L148.0972,1198.775 L145.2352,1199.1396 L142.4658,1199.9452 L142.6097,1200.0596 L140.7137,1197.7244 L139.1387,1195.6444 L137.328,1193.377 L135.1501,1190.8176 L133.5161,1188.6907 L133.5161,1188.6907 L133.3969,1188.56 L133.8909,1189.0256 L134.4497,1189.5621 L134.8774,1189.955 L135.2604,1190.2989 L135.5837,1190.5774 L135.5837,1190.5774 L135.4382,1190.5336 L134.9203,1187.553 L133.985,1184.4467 L132.7609,1181.2536 L131.745,1178.1232 L130.9125,1175.0479 L130.9125,1175.0479 L130.7373,1175.0141 L130.2005,1171.8173 L129.7357,1168.6343 L129.0275,1165.4044 L128.2567,1162.1625 L127.8207,1158.985 L127.8207,1158.985 L128.0311,1159.0365 L126.8781,1155.8897 L126.5488,1152.9442 L125.772,1149.8893 L125.0038,1146.8366 L124.0988,1143.7504 L124.0988,1143.7504 L124.3974,1143.825 L124.7124,1140.844 L125.4083,1137.9582 L126.4812,1135.1666 L126.7197,1132.1665 L127.6966,1129.3509 L127.6966,1129.3509 L127.5942,1129.3323 L128.3496,1126.046 L128.9317,1122.7282 L129.3475,1119.3802 L130.088,1116.0912 L130.7094,1112.7805 L130.7094,1112.7805 L131.0349,1112.8399 L130.456,1109.8866 L129.3748,1106.8418 L129.1329,1103.95 L128.3369,1100.9572 L128.0246,1098.0525 L128.0182,1098.0428 L130.5947,1096.5109 L133.1241,1094.9077 L135.3567,1092.8552 L138.1159,1091.6 L140.5161,1089.8012 L140.5161,1089.8012 L140.5188,1089.8038 L140.7541,1090.0613 L141.1968,1090.5186 L141.8677,1091.196 L142.2589,1091.6037 L142.5946,1091.958" fill="none" style="stroke:#181818;stroke-width:4;"/><text fill="#000000" font-family="Chalkduster" font-size="24" lengthAdjust="spacing" textLength="103.6111" x="140.5161" y="1120.642">Novel /</text><text fill="#000000" font-family="Chalkduster" font-size="24" lengthAdjust="spacing" textLength="165.3481" x="140.5161" y="1151.2719">non-archive</text><text fill="#000000" font-family="Chalkduster" font-size="24" lengthAdjust="spacing" textLength="62.7978" x="140.5161" y="1181.9017">data</text></g><!--entity keep--><g class="entity" data-entity="keep" data-source-line="31" data-uid="ent0021" id="entity_keep"><polygon fill="none" points="394.2328,1107.8771,393.0601,1109.4794,391.6731,1111.8262,389.6894,1113.4078,387.6049,1114.2727,385.9428,1114.3478,383.8065,1113.2661,381.7909,1112.5595,380.261,1111.1247,379.4584,1109.4823,378.9825,1108.1745,378.5163,1106.4662,377.7595,1104.9962,378.341,1103.561,378.8505,1101.9888,380.7626,1100.7453,382.1078,1099.132,383.7729,1098.5962,385.7523,1098.1348,388.2907,1098.409,389.681,1099.0646,391.2975,1099.3618,393.2629,1101.3755,393.948,1103.5013,394.2457,1104.9518,393.9086,1107.342" style="stroke:#8B0000;stroke-width:4;"/><path d="M386.1886,1113.9312 L386.3754,1113.9312 L385.8203,1119.3312 L386.3604,1124.7312 L386.5439,1130.1312 L385.5545,1135.5312 L386.1886,1140.9312 M373.1886,1121.9312 L373.1886,1121.8621 L378.3886,1121.5521 L383.5886,1121.5903 L388.7886,1121.8706 L393.9886,1121.3166 L399.1886,1121.9312 M386.1886,1140.9312 L386.5605,1141.2535 L383.1652,1143.5642 L380.8557,1146.816 L378.6787,1150.1826 L375.731,1152.8812 L373.1886,1155.9312 M386.1886,1140.9312 L386.2344,1140.9709 L388.7671,1143.9126 L391.5085,1147.0351 L394.1492,1150.0704 L396.982,1153.2721 L399.1886,1155.9312" fill="none" style="stroke:#8B0000;stroke-width:4;"/><text fill="#000000" font-family="Chalkduster" font-size="24" lengthAdjust="spacing" textLength="60.305" x="356.0361" y="1184.772">Keep</text></g><!--entity repo--><g class="entity" data-entity="repo" data-source-line="28" data-uid="ent0020" id="entity_repo"><path d="M450.8861,1061.6712 L450.8861,1061.6712 L450.9181,1061.7589 L452.6302,1060.838 L454.5301,1060.4315 L456.3689,1059.8575 L458.0064,1058.7327 L459.9225,1058.3704 L459.918,1058.3361 L461.9725,1057.9153 L464.0492,1057.6672 L466.1413,1057.5391 L468.1802,1056.9973 L470.2937,1057.0349 L470.3146,1057.2801 L472.9603,1056.5268 L475.667,1056.4893 L478.3811,1056.5392 L481.052,1056.0809 L483.7456,1055.8899 L483.7474,1055.9202 L486.928,1055.6819 L490.1169,1055.5814 L493.3018,1055.4145 L496.4944,1055.3743 L499.6619,1054.9207 L499.6754,1055.2186 L503.2285,1055.0606 L506.7729,1054.7105 L510.33,1054.6416 L513.8878,1054.586 L517.4265,1054.1126 L517.4154,1053.7922 L521.2364,1054.2816 L525.0207,1053.7162 L528.8329,1053.9527 L532.6164,1053.3634 L536.4234,1053.4509 L536.4226,1053.4205 L540.3549,1053.6745 L544.268,1053.2174 L548.1924,1053.1799 L552.1178,1053.1776 L556.0364,1052.9212 L556.0398,1053.1061 L563.7583,1052.7749 L571.4827,1052.7597 L579.1975,1052.2332 L586.9266,1052.4694 L594.6462,1052.1985 L594.6489,1052.4421 L601.3846,1052.3218 L608.1216,1052.3225 L614.8524,1051.7612 L621.5878,1051.6118 L628.3272,1051.8274 L628.3259,1051.5512 L634.899,1051.77 L641.4706,1051.6776 L648.0443,1052.0365 L654.6144,1051.6248 L661.1867,1051.6712 L661.1867,1051.6712 L661.1859,1051.5187 L667.759,1051.8039 L674.329,1051.4373 L680.9012,1051.5342 L687.4756,1052.0846 L694.0461,1051.8274 L694.0482,1052.021 L700.7859,1052.2281 L707.5169,1051.8328 L714.2562,1052.1919 L720.9938,1052.3867 L727.7271,1052.1985 L727.7231,1051.9886 L735.4482,1052.3004 L743.1721,1052.5436 L750.8984,1052.9217 L758.6149,1052.7748 L766.3369,1052.9212 L766.3425,1053.1267 L770.2529,1052.7811 L774.174,1052.8322 L778.1108,1053.4628 L782.0187,1053.0265 L785.9499,1053.4509 L785.9578,1053.677 L789.7525,1053.675 L793.5445,1053.5966 L797.3426,1053.6908 L801.1545,1054.184 L804.9468,1054.1126 L804.9407,1053.9797 L808.5117,1054.537 L812.0415,1054.1904 L815.6181,1054.8716 L819.1683,1054.9741 L822.7114,1054.9207 L822.7181,1055.0293 L825.896,1055.1355 L829.0976,1055.6307 L832.2778,1055.7744 L835.4491,1055.7711 L838.6277,1055.8899 L838.6379,1056.0087 L841.3132,1056.0612 L844.0355,1056.6652 L846.7047,1056.6455 L849.3957,1056.8823 L852.0796,1057.0349 L852.0451,1056.7668 L854.1308,1057.1234 L856.2582,1057.8031 L858.3267,1058.0256 L860.3742,1058.0844 L862.4509,1058.3704 L862.4017,1058.2359 L864.2247,1058.9391 L865.9608,1059.4042 L867.9359,1060.524 L869.7927,1061.3197 L871.4872,1061.6712 L872.8909,1061.6712 L873.3404,1071.8055 L871.1226,1081.9398 L871.7198,1092.0741 L870.4536,1102.2085 L872.2446,1112.3428 L872.1452,1122.4771 L872.9602,1132.6114 L870.8748,1142.7457 L871.1288,1152.8801 L872.6698,1163.0144 L873.0001,1173.1487 L870.1205,1183.283 L870.9702,1193.4174 L871.8852,1203.5517 L869.8583,1213.686 L871.4872,1223.8203 L871.4872,1223.8203 L871.5411,1223.9679 L869.7193,1224.5882 L867.8573,1225.0986 L866.0871,1225.8602 L864.3692,1226.7651 L862.4509,1227.1211 L862.4331,1226.9832 L860.3945,1227.527 L858.3186,1227.7812 L856.2347,1227.9734 L854.1618,1228.2516 L852.0796,1228.4566 L852.0839,1228.5068 L849.3657,1228.4092 L846.6837,1228.7371 L843.9911,1228.9392 L841.3205,1229.4008 L838.6277,1229.6016 L838.6301,1229.6407 L835.4489,1229.8672 L832.2534,1229.8602 L829.0761,1230.1532 L825.8915,1230.3236 L822.7114,1230.5708 L822.7231,1230.8269 L819.1671,1230.9218 L815.5958,1230.6785 L812.0512,1231.0233 L808.4881,1230.961 L804.9468,1231.3789 L804.9513,1231.507 L801.1568,1231.7815 L797.3565,1231.8855 L793.5419,1231.5824 L789.7565,1232.1143 L785.9499,1232.0405 L785.941,1231.7105 L782.0297,1232.2354 L778.1011,1232.1195 L774.1833,1232.4014 L770.2624,1232.5711 L766.3369,1232.5703 L766.3409,1232.7801 L758.609,1232.395 L750.8969,1233.0707 L743.1725,1233.0831 L735.452,1233.3063 L727.7271,1233.293 L727.7307,1233.6253 L720.9909,1233.3696 L714.2555,1233.5193 L707.5195,1233.6105 L700.7833,1233.6775 L694.0461,1233.6641 L694.0461,1233.6637 L687.4757,1234.0112 L680.901,1233.4556 L674.3316,1234.0091 L667.7572,1233.5117 L661.1867,1233.8203 L661.1867,1233.8203 L661.1855,1233.5802 L654.6148,1233.8069 L648.0429,1233.7704 L641.4699,1233.5075 L634.9,1233.8792 L628.3272,1233.6641 L628.3277,1233.7125 L621.5946,1233.9128 L614.8581,1233.8121 L608.1164,1233.2422 L601.3805,1233.1904 L594.6462,1233.293 L594.6452,1233.2356 L586.9272,1233.3064 L579.2056,1233.183 L571.4828,1232.9932 L563.7555,1232.5629 L556.0364,1232.5703 L556.044,1232.853 L552.1214,1232.746 L548.1906,1232.3374 L544.2657,1232.1462 L540.3412,1231.9682 L536.4234,1232.0405 L536.4201,1231.9452 L532.6261,1231.9693 L528.8236,1231.7455 L525.0188,1231.458 L521.2334,1231.7277 L517.4265,1231.3789 L517.4172,1231.1752 L513.8837,1231.4403 L510.3293,1231.2454 L506.7752,1231.0592 L503.2288,1231.0399 L499.6619,1230.5708 L499.6552,1230.4617 L496.4705,1230.2436 L493.3094,1230.4133 L490.096,1229.7245 L486.9225,1229.6916 L483.7456,1229.6016 L483.7499,1229.6527 L481.0578,1229.403 L478.3513,1228.9848 L475.6728,1228.8955 L473.0122,1229.0153 L470.2937,1228.4566 L470.3305,1228.7424 L468.1856,1227.9266 L466.1497,1227.957 L464.0418,1227.4288 L461.9952,1227.3766 L459.9225,1227.1211 L459.9671,1227.2434 L458.1792,1226.6362 L456.2065,1225.5233 L454.5617,1225.3079 L452.6947,1224.484 L450.8861,1223.8203 L449.4052,1223.8203 L449.63,1213.686 L451.757,1203.5517 L451.5524,1193.4174 L450.8422,1183.283 L449.0938,1173.1487 L452.6411,1163.0144 L450.0545,1152.8801 L449.4779,1142.7457 L450.7066,1132.6114 L452.4587,1122.4771 L452.5272,1112.3428 L450.9798,1102.2085 L450.483,1092.0741 L451.3389,1081.9398 L451.3827,1071.8055 L450.8861,1061.6712" fill="#00FF7F" style="stroke:#181818;stroke-width:4;"/><path d="M450.8861,1061.6712 L450.8861,1061.6712 L450.9181,1061.7589 L452.6302,1062.1584 L454.5301,1063.0722 L456.3689,1063.8185 L458.0064,1064.014 L459.9225,1064.9719 L459.918,1064.9377 L461.9725,1065.051 L464.0492,1065.3371 L466.1413,1065.7432 L468.1802,1065.7355 L470.2937,1066.3074 L470.3146,1066.5526 L472.9603,1066.2573 L475.667,1066.6778 L478.3811,1067.1857 L481.052,1067.1854 L483.7456,1067.4524 L483.7474,1067.4827 L486.928,1067.6321 L490.1169,1067.9193 L493.3018,1068.14 L496.4944,1068.4876 L499.6619,1068.4216 L499.6754,1068.7196 L503.2285,1068.8849 L506.7729,1068.8579 L510.33,1069.1123 L513.8878,1069.3799 L517.4265,1069.2298 L517.4154,1068.9094 L521.2364,1069.6635 L525.0207,1069.3627 L528.8329,1069.8638 L532.6164,1069.5392 L536.4234,1069.8914 L536.4226,1069.8609 L540.3549,1070.3268 L544.268,1070.0816 L548.1924,1070.256 L552.1178,1070.4657 L556.0364,1070.4212 L556.0398,1070.6061 L563.7583,1070.564 L571.4827,1070.8379 L579.1975,1070.6004 L586.9266,1071.1257 L594.6462,1071.1438 L594.6489,1071.3874 L601.3846,1071.4156 L608.1216,1071.5647 L614.8524,1071.1518 L621.5878,1071.1509 L628.3272,1071.5149 L628.3259,1071.2387 L634.899,1071.52 L641.4706,1071.4901 L648.0443,1071.9115 L654.6144,1071.5623 L661.1867,1071.6712 L661.1867,1071.6712 L661.1859,1071.5187 L667.759,1071.7414 L674.329,1071.3123 L680.9012,1071.3467 L687.4756,1071.8346 L694.0461,1071.5149 L694.0482,1071.7085 L700.7859,1071.7671 L707.5169,1071.2235 L714.2562,1071.4341 L720.9938,1071.4804 L727.7271,1071.1438 L727.7231,1070.9339 L735.4482,1070.9567 L743.1721,1070.9107 L750.8984,1070.9998 L758.6149,1070.5638 L766.3369,1070.4212 L766.3425,1070.6267 L770.2529,1070.0692 L774.174,1069.9084 L778.1108,1070.327 L782.0187,1069.6788 L785.9499,1069.8914 L785.9578,1070.1174 L789.7525,1069.8508 L793.5445,1069.5077 L797.3426,1069.3373 L801.1545,1069.5658 L804.9468,1069.2298 L804.9407,1069.0969 L808.5117,1069.3309 L812.0415,1068.6611 L815.6181,1069.019 L819.1683,1068.7983 L822.7114,1068.4216 L822.7181,1068.5303 L825.896,1068.2487 L829.0976,1068.3563 L832.2778,1068.1123 L835.4491,1067.7213 L838.6277,1067.4524 L838.6379,1067.5712 L841.3132,1067.1657 L844.0355,1067.3117 L846.7047,1066.834 L849.3957,1066.6128 L852.0796,1066.3074 L852.0451,1066.0392 L854.1308,1065.8617 L856.2582,1066.0072 L858.3267,1065.6956 L860.3742,1065.2201 L862.4509,1064.9719 L862.4017,1064.8374 L864.2247,1064.2204 L865.9608,1063.3652 L867.9359,1063.1646 L869.7927,1062.6401 L871.4872,1061.6712" fill="none" style="stroke:#181818;stroke-width:4;"/><text fill="#000000" font-family="Chalkduster" font-size="24" font-style="italic" lengthAdjust="spacing" textLength="169.1404" x="576.6165" y="1099.512">&#171;repository&#187;</text><text fill="#000000" font-family="Chalkduster" font-size="24" lengthAdjust="spacing" textLength="288.9547" x="460.8861" y="1130.1419">Archival Repositories</text><text fill="#000000" font-family="Chalkduster" font-size="24" lengthAdjust="spacing" textLength="343.2398" x="460.8861" y="1160.7717">(Institutional, Discipline,</text><text fill="#000000" font-family="Chalkduster" font-size="24" lengthAdjust="spacing" textLength="273.1757" x="460.8861" y="1191.4015">Public (eg Zenodo),</text><text fill="#000000" font-family="Chalkduster" font-size="24" lengthAdjust="spacing" textLength="400.6011" x="460.8861" y="1222.0314">Publisers, Government et al)</text></g><g class="entity" data-entity="GMN27" data-source-line="38" data-uid="ent0028" id="entity_GMN27"><path d="M562.2961,1296.8212 L562.8566,1296.8212 L561.1912,1307.0011 L562.8115,1317.1811 L563.3619,1327.361 L560.3937,1337.541 L562.0889,1347.7209 L561.1588,1357.9009 L562.2961,1368.0808 L562.2961,1368.0808 L562.2961,1367.0582 L572.185,1367.8991 L582.0739,1366.2372 L591.9628,1369.5572 L601.8517,1366.4001 L611.7406,1367.5534 L621.6295,1369.2327 L631.5184,1367.8521 L641.4073,1368.2628 L651.2962,1367.9956 L661.1851,1368.5569 L671.0739,1368.7185 L680.9628,1369.6427 L690.8517,1369.8703 L700.7406,1369.8922 L710.6295,1368.7598 L720.5184,1369.3171 L730.4073,1369.9534 L740.2962,1366.1577 L750.1851,1369.8902 L760.074,1368.0808 L760.074,1368.0808 L759.2833,1368.0808 L761.4975,1357.8709 L758.7539,1347.6609 L759.8913,1337.451 L762.0516,1327.241 L759.944,1317.0311 L760.074,1306.8212 L760.1402,1306.8873 L758.2868,1305.034 L756.3356,1303.0828 L754.0716,1300.8187 L752.2545,1299.0017 L750.074,1296.8212 L750.074,1295.2947 L739.463,1297.5795 L728.852,1298.283 L718.241,1298.0066 L707.6301,1298.4559 L697.0191,1295.5329 L686.4081,1295.082 L675.7971,1295.1641 L665.1861,1296.8212 L665.0294,1296.8111 L663.9964,1286.3677 L665.6662,1276.0972 L662.7212,1265.5314 L661.6065,1255.0828 L662.4602,1244.76 L661.1861,1234.3012 L659.4115,1234.1876 L659.1379,1244.6328 L661.5798,1255.2517 L660.3455,1265.6353 L660.4741,1276.1062 L656.9964,1286.3464 L657.1861,1296.8212 L657.1861,1297.6724 L646.6428,1298.3956 L636.0994,1295.5614 L625.5561,1296.5655 L615.0128,1297.1571 L604.4694,1298.5592 L593.9261,1296.81 L583.3828,1298.0547 L572.8394,1295.3444 L562.2961,1296.8212 L562.2961,1296.8212" fill="none" style="stroke:#181818;stroke-width:4;"/><path d="M750.074,1296.8212 L750.2608,1296.8212 L749.7057,1298.8212 L750.2458,1300.8212 L750.4293,1302.8212 L749.4399,1304.8212 L750.074,1306.8212 L750.074,1306.7521 L752.074,1306.4421 L754.074,1306.4803 L756.074,1306.7606 L758.074,1306.2066 L760.074,1306.8212 L760.422,1307.1691 L757.6779,1304.425 L755.9497,1302.6969 L754.3455,1301.0927 L752.0201,1298.7672 L750.074,1296.8212" fill="none" style="stroke:#181818;stroke-width:4;"/><text fill="#000000" font-family="Chalkduster" font-size="24" lengthAdjust="spacing" textLength="137.1845" x="568.2961" y="1325.662">Managed/</text><text fill="#000000" font-family="Chalkduster" font-size="24" lengthAdjust="spacing" textLength="176.7779" x="568.2961" y="1356.2919">secure assets</text></g><g class="entity" data-entity="GMN30" data-source-line="39" data-uid="ent0031" id="entity_GMN30"><path d="M90.8161,1296.8212 L91.3766,1296.8212 L89.7112,1307.0011 L91.3315,1317.1811 L91.8819,1327.361 L88.9137,1337.541 L90.6089,1347.7209 L89.6788,1357.9009 L90.8161,1368.0808 L90.8161,1368.0808 L90.8161,1367.0582 L100.9984,1367.8991 L111.1807,1366.2372 L121.3629,1369.5572 L131.5452,1366.4001 L141.7275,1367.5534 L151.9098,1369.2327 L162.092,1367.8521 L172.2743,1368.2628 L182.4566,1367.9956 L192.6389,1368.5569 L202.8212,1368.7185 L213.0034,1369.6427 L223.1857,1369.8703 L233.368,1369.8922 L243.5503,1368.7598 L253.7325,1369.3171 L263.9148,1369.9534 L274.0971,1366.1577 L284.2794,1369.8902 L294.4617,1367.2902 L304.6439,1369.5043 L314.8262,1366.7608 L325.0085,1367.8982 L335.1908,1370.0584 L345.373,1367.9509 L355.5553,1368.0808 L355.5553,1368.0808 L355.8361,1368.0808 L356.4583,1357.8709 L356.6653,1347.6609 L355.5449,1337.451 L356.3212,1327.241 L354.0289,1317.0311 L355.5553,1306.8212 L355.7341,1306.9999 L353.8999,1305.1657 L351.8347,1303.1006 L349.9406,1301.2065 L347.2517,1298.5175 L345.5553,1296.8212 L345.5553,1295.082 L335.6912,1295.1641 L325.8271,1296.6641 L315.963,1296.2971 L306.0989,1298.6383 L296.2348,1296.3554 L286.3707,1295.9064 L276.5066,1297.4299 L266.6425,1295.0429 L256.7784,1295.4368 L246.9143,1298.5517 L237.0502,1297.9829 L227.1861,1296.8212 L229.1429,1296.9056 L225.8843,1286.4897 L227.1476,1276.269 L227.4258,1266.0057 L224.1497,1255.589 L224.7085,1245.3379 L224.8551,1235.069 L225.8114,1224.835 L223.6194,1214.4651 L223.1861,1204.1712 L224.4185,1204.2244 L221.2663,1214.4019 L220.4929,1224.6822 L223.1945,1235.1124 L219.4983,1245.2665 L222.3198,1255.7019 L221.0699,1265.9616 L219.3612,1276.2015 L218.688,1286.486 L219.1861,1296.8212 L219.1861,1298.0445 L209.3115,1296.0229 L199.4369,1298.3995 L189.5623,1295.3472 L179.6876,1298.4676 L169.813,1298.1126 L159.9384,1297.4744 L150.0638,1296.9471 L140.1892,1298.7588 L130.3146,1298.4574 L120.4399,1297.2725 L110.5653,1297.5363 L100.6907,1296.4738 L90.8161,1296.8212 L90.8161,1296.8212" fill="none" style="stroke:#181818;stroke-width:4;"/><path d="M345.5553,1296.8212 L345.7422,1296.8212 L345.187,1298.8212 L345.7271,1300.8212 L345.9106,1302.8212 L344.9212,1304.8212 L345.5553,1306.8212 L345.5553,1306.7521 L347.5553,1306.4421 L349.5553,1306.4803 L351.5553,1306.7606 L353.5553,1306.2066 L355.5553,1306.8212 L355.9033,1307.1691 L353.1592,1304.425 L351.431,1302.6969 L349.8268,1301.0927 L347.5014,1298.7672 L345.5553,1296.8212" fill="none" style="stroke:#181818;stroke-width:4;"/><text fill="#000000" font-family="Chalkduster" font-size="24" lengthAdjust="spacing" textLength="176.0088" x="96.8161" y="1325.662">Unmanaged/</text><text fill="#000000" font-family="Chalkduster" font-size="24" lengthAdjust="spacing" textLength="243.7392" x="96.8161" y="1356.2919">non-secure assets</text></g><!--link an to colr--><g class="link" data-entity-1="an" data-entity-2="colr" data-source-line="14" data-uid="lnk9" id="link_an_colr"><path d="M430.5571,424.8572 L430.7732,425.0356 L436.4581,432.1665 L443.4097,440.3434 L449.9488,448.1797 L455.1315,454.8957 L462.1119,463.0965 L468.0803,470.4615 L474.8457,478.4846" fill="none" style="stroke:#181818;stroke-width:4;"/><polygon fill="#181818" points="426.7361,420.2312,426.8036,420.25,427.1326,422.0913,427.8571,424.043,428.4529,425.9588,428.625,427.7563,429.3836,429.7175,429.3578,429.7151,429.3494,428.5778,429.471,427.4529,429.683,426.3366,429.5835,425.1906,429.9203,424.0862,429.9378,424.2699,431.0266,423.9844,432.1665,424.2352,433.3127,424.5515,434.4226,424.4871,435.5516,424.6229,435.5617,424.6432,433.7837,423.735,432.0519,422.9195,430.2978,422.0592,428.5863,421.2842,426.7361,420.2312" style="stroke:#181818;stroke-width:4;"/><polygon fill="#181818" points="478.6661,483.1112,478.7336,483.13,478.0038,481.1767,477.6697,479.3338,477.2067,477.4549,476.3201,475.4579,476.0199,473.6244,475.9941,473.622,475.7709,474.7372,475.6777,475.8648,475.6748,477.0011,475.3605,478.1076,475.4825,479.2557,475.5,479.4394,474.3362,478.9391,473.2237,478.9751,472.1174,479.0766,470.9747,478.7973,469.8512,478.7183,469.8613,478.7386,471.6094,479.5873,473.4037,480.5287,475.1757,481.4253,476.9902,482.4073,478.6661,483.1112" style="stroke:#181818;stroke-width:4;"/></g><!--link int to colr--><g class="link" data-entity-1="int" data-entity-2="colr" data-source-line="15" data-uid="lnk11" id="link_int_colr"><path d="M536.0484,426.2211 L536.3282,426.2373 L534.9317,435.9251 L535.1753,445.7081 L534.8849,455.46 L532.8381,465.11 L533.2225,474.9012" fill="none" style="stroke:#181818;stroke-width:4;"/><polygon fill="#181818" points="536.3961,420.2312,536.4584,420.2633,535.3704,421.9185,534.6475,423.7619,533.8056,425.5441,532.5729,427.1246,531.8813,428.9843,531.8641,428.9649,532.6318,428.1258,533.4864,427.3842,534.4013,426.7104,535.1081,425.8029,536.1064,425.2228,536.2442,425.3455,536.7018,425.9281,537.5618,426.8689,538.4708,427.8535,539.0942,428.5838,539.8679,429.4478,539.8892,429.4558,539.1636,427.6007,538.5349,425.7821,537.8594,423.9459,537.2732,422.1433,536.3961,420.2312" style="stroke:#181818;stroke-width:4;"/><polygon fill="#181818" points="532.8761,480.8912,532.9384,480.9233,533.6559,479.0771,534.7385,477.4191,535.7023,475.6998,536.2751,473.7789,537.389,472.1371,537.3718,472.1177,536.4496,472.7834,535.6143,473.5466,534.8393,474.3776,533.8563,474.9749,533.1647,475.8995,533.3026,476.0222,532.2554,474.9149,531.6106,474.166,531.0148,473.4607,530.1335,472.5011,529.4023,471.6753,529.4236,471.6833,530.0871,473.5147,530.8475,475.3826,531.5612,477.2329,532.364,479.1168,532.8761,480.8912" style="stroke:#181818;stroke-width:4;"/></g><!--reverse link cur to coll--><g class="link" data-entity-1="cur" data-entity-2="coll" data-source-line="16" data-uid="lnk13" id="link_cur_coll"><path d="M394.3734,241.6912 L394.425,241.769 L392.054,243.0094 L389.9857,244.706 L387.8189,246.2541 L385.3277,247.3135 L383.2855,249.0494 L383.2651,249.0214 L380.9669,250.5051 L378.7713,252.1295 L376.647,253.8517 L374.277,255.2368 L372.2511,257.094 L372.4063,257.2849 L369.914,258.6326 L367.8749,260.5378 L365.891,262.511 L363.5855,264.0885 L361.4492,265.8741 L361.4697,265.8964 L359.3614,267.7766 L357.3466,269.7583 L355.2867,271.691 L353.3129,273.7173 L351.0585,275.4387 L351.2755,275.6432 L349.3181,277.7253 L347.2206,279.6755 L345.3281,281.8188 L343.4452,283.9711 L341.2579,285.8367 L341.0077,285.6364 L339.6871,288.2812 L337.5425,290.2665 L336.0243,292.7532 L333.861,294.7235 L332.2265,297.1171 L332.2011,297.1003 L330.8846,299.7414 L328.975,301.9899 L327.4153,304.47 L325.8851,306.9696 L324.1429,309.3289 L324.3065,309.4152 L322.75,311.9666 L321.4731,314.6654 L319.7438,317.1256 L318.6893,319.9417 L317.1861,322.5212 L317.4095,322.6183 L316.4332,324.749 L315.5677,326.928 L314.1868,328.8829 L313.1838,331.002 L312.5155,333.2667 L312.2575,333.168 L311.6544,335.4455 L310.7606,337.6118 L310.2884,339.9393 L309.0964,341.9916 L308.3322,344.2075 L308.1876,344.1592 L307.6859,346.4631 L306.566,348.5606 L305.8857,350.8048 L305.6355,353.1928 L304.6194,355.3249 L304.8054,355.3786 L304.281,357.6705 L303.1781,359.7952 L302.7999,362.1293 L302.2638,364.4178 L301.3598,366.5999 L301.156,366.5495 L300.7537,368.8725 L300.2848,371.1789 L299.947,373.5178 L299.0993,375.7306 L298.5364,378.0139 L298.7377,378.0558 L297.8147,380.2704 L297.2801,382.566 L297.3131,384.9799 L296.3012,387.176 L296.1323,389.5478 L296.3553,389.5862 L295.8225,391.8905 L295.2142,394.1817 L294.7762,396.5023 L294.7317,398.8906 L294.1304,401.1831 L293.9986,401.1649 L294.0676,403.5625 L293.2403,405.8365 L293.4322,408.2511 L293.0502,410.5866 L292.5136,412.9007 L292.6219,412.9122 L292.2847,415.2591 L292.3352,417.6472 L292.0355,419.9982 L291.5894,422.3336 L291.2649,424.6819 L291.3837,424.6909 L291.0276,427.0427 L291.2233,429.4364 L290.7949,431.7827 L290.6232,434.1485 L290.3672,436.5079 L290.0971,436.495 L290.0746,438.8697 L290.3774,441.2599 L290.2198,443.6281 L289.8972,445.9885 L289.8035,448.3598 L289.6604,448.3568 L289.6569,450.7296 L289.3999,453.0971 L289.8398,455.4791 L289.9348,457.8539 L289.5568,460.2189 L289.7908,460.2199 L289.8763,462.5897 L289.5173,464.9575 L289.6275,467.3275 L289.4271,469.696 L289.61,472.0662 L289.7362,472.0698 L289.7868,474.4327 L289.9898,476.7999 L289.7096,479.1534 L289.8191,481.518 L289.946,483.8831 L290.1429,483.8931 L290.3182,486.2495 L289.9593,488.5784 L290.2211,490.9392 L290.4938,493.3005 L290.5479,495.6506 L290.2772,495.6309 L290.8747,498.0018 L291.0026,500.3386 L291.0137,502.6669 L291.2915,505.0146 L291.3986,507.3499 L291.7211,507.38 L291.4766,509.6595 L291.971,512.0078 L292.1744,514.3291 L292.3158,516.6446 L292.481,518.9623 L292.5432,518.9693 L292.7905,521.2692 L292.7242,523.5338 L293.0822,525.8462 L293.3148,528.1445 L293.7781,530.4688 L293.8062,530.4725 L294.1159,532.7503 L294.4473,535.031 L294.5467,537.2811 L294.9441,539.5705 L295.2729,541.8507 L295.22,541.8429 L295.8615,544.1362 L296.1305,546.3741 L296.0646,548.562 L296.5811,550.8368 L296.9482,553.0892 L296.6951,553.0472 L297.4424,555.3255 L297.9506,557.564 L298.2903,559.7746 L298.2284,561.9185 L298.7871,564.1654 L298.99,564.2024 L298.8594,566.2853 L299.6688,568.5394 L299.8475,570.6787 L300.4178,572.8892 L300.7726,575.0606 L300.8774,575.0813 L301.4014,577.2403 L301.3047,579.2766 L302.2488,581.5187 L302.5422,583.6321 L302.8875,585.7558 L303.042,585.7886 L303.6581,587.9202 L303.7808,589.9469 L304.3001,592.0579 L304.7622,594.1567 L305.1148,596.2323 L305.2002,596.2522 L306.0593,600.2765 L307.312,604.3927 L307.6853,608.3035 L309.1386,612.4666 L309.8387,616.4537 L309.5703,616.384 L310.6001,620.2175 L311.8435,624.1065 L312.8323,627.9293 L313.6019,631.6952 L314.8077,635.5744 L314.9846,635.6247 L315.8699,639.1615 L317.1496,642.8104 L318.1397,646.3771 L318.6784,649.8154 L319.8857,653.4438 L319.7166,653.3919 L320.8409,656.7204 L322.0569,660.077 L323.0872,663.3767 L324.054,666.6569 L324.9361,669.9112" fill="none" style="stroke:#181818;stroke-width:4;"/><polygon fill="#181818" points="399.4361,238.4712,399.4464,238.5405,397.4675,238.6255,395.5493,239.1168,393.6113,239.4759,391.6083,239.3999,389.6953,239.926,389.6897,239.9008,390.7688,240.033,391.8763,240.2927,393.0035,240.641,394.0627,240.6839,395.2171,241.1545,395.3973,241.1946,394.7664,242.2133,394.6614,243.3489,394.6206,244.4989,394.2065,245.5658,393.9887,246.6764,394.0076,246.689,395.0693,245.0294,396.2172,243.4272,397.3235,241.7973,398.5093,240.2202,399.4361,238.4712" style="stroke:#181818;stroke-width:4;"/></g><!--link cur to an--><g class="link" data-entity-1="cur" data-entity-2="an" data-source-line="17" data-uid="lnk14" id="link_cur_an"><path d="M425.2219,267.6075 L425.4847,267.7048 L421.0772,277.2131 L418.2103,287.2917 L414.8417,297.1845 L409.8233,306.4666 L407.0886,316.5942" fill="none" style="stroke:#181818;stroke-width:4;"/><polygon fill="#181818" points="427.3061,261.9812,427.3563,262.0301,425.8318,263.2948,424.6013,264.8462,423.2752,266.3043,421.6341,267.4552,420.4289,269.0313,420.4181,269.0078,421.3976,268.4298,422.4317,267.9705,423.5037,267.5938,424.445,266.9327,425.5693,266.6698,425.737,266.7469,425.8507,267.6102,426.454,268.6984,427.117,269.8141,427.4325,270.7702,427.9308,271.8102,427.9535,271.8116,427.7952,269.8437,427.7403,267.8824,427.6355,265.9178,427.6259,263.9593,427.3061,261.9812" style="stroke:#181818;stroke-width:4;"/><polygon fill="#181818" points="405.0061,322.2212,405.0563,322.2701,406.2822,320.7143,407.8023,319.4453,409.2266,318.0829,410.3359,316.4135,411.8812,315.169,411.8704,315.1455,410.7939,315.5125,409.772,315.9981,408.7879,316.5662,407.6732,316.85,406.7416,317.532,406.9092,317.6091,406.0781,316.4163,405.7365,315.4486,405.4546,314.5083,404.8252,313.4083,404.3786,312.3923,404.4013,312.3938,404.4935,314.3574,404.689,316.3276,404.8346,318.2947,405.0754,320.2678,405.0061,322.2212" style="stroke:#181818;stroke-width:4;"/></g><!--link an to int--><g class="link" data-entity-1="an" data-entity-2="int" data-source-line="18" data-uid="lnk15" id="link_an_int"><path d="M446.0261,371.3412 L446.0261,371.4346 L450.5221,371.157 L455.0181,371.4271 L459.5141,371.5188 L464.0101,371.0241 L468.5061,371.3412" fill="none" style="stroke:#181818;stroke-width:4;"/><polygon fill="#181818" points="440.0261,371.3412,440.0546,371.4052,441.77,372.015,443.6523,373,445.4802,373.8629,447.1295,374.3239,449.0261,375.3412,449.0078,375.3228,448.1256,374.4406,447.3357,373.6508,446.61,372.9251,445.6631,371.9782,445.0261,371.3412,445.1566,371.4717,445.6775,370.3926,446.5795,369.6945,447.5279,369.043,448.2059,368.1209,449.0261,367.3412,449.0353,367.3619,447.2218,368.1314,445.4503,368.9955,443.6585,369.814,441.9054,370.7196,440.0261,371.3412" style="stroke:#181818;stroke-width:4;"/><polygon fill="#181818" points="474.5061,371.3412,474.5346,371.4052,472.65,370.415,470.9323,369.8,469.1602,369.0629,467.2095,367.9239,465.5061,367.3412,465.4878,367.3228,466.2056,368.0406,467.0157,368.8508,467.89,369.7251,468.5431,370.3782,469.5061,371.3412,469.6366,371.4717,468.5575,371.9926,467.8595,372.8945,467.2079,373.843,466.2859,374.5209,465.5061,375.3412,465.5153,375.3619,467.3018,374.5314,469.1303,373.7955,470.9385,373.014,472.7854,372.3196,474.5061,371.3412" style="stroke:#181818;stroke-width:4;"/></g><!--reverse link cur to int--><g class="link" data-entity-1="cur" data-entity-2="int" data-source-line="19" data-uid="lnk17" id="link_cur_int"><path d="M477.2443,267.1254 L477.4845,267.2696 L482.2826,276.0237 L488.4892,285.6233 L494.2371,294.9475 L498.4766,303.3664 L504.7153,312.9852 L510.3161,322.2212" fill="none" style="stroke:#181818;stroke-width:4;"/><polygon fill="#181818" points="474.1561,261.9812,474.2256,261.9897,474.2596,263.9193,474.7011,265.8991,475.01,267.8625,474.8823,269.7722,475.3588,271.7563,475.3337,271.75,475.4951,270.6242,475.7831,269.53,476.1592,268.4578,476.2318,267.3098,476.7296,266.268,476.7743,266.4471,477.7763,266.3383,478.9089,266.7524,480.0574,267.2302,481.1133,267.3369,482.2178,267.6388,482.2309,267.6574,480.5994,266.4985,479.0273,265.4244,477.4266,264.3094,475.8806,263.2725,474.1561,261.9812" style="stroke:#181818;stroke-width:4;"/></g><!--reverse link coll to new--><g class="link" data-entity-1="coll" data-entity-2="new" data-source-line="34" data-uid="lnk22" id="link_coll_new"><path d="M326.8914,804.7458 L327.1592,804.8282 L323.428,814.1221 L321.267,823.8992 L318.5946,833.5189 L314.2408,842.6212 L312.1156,852.4093 L308.7357,861.8114 L305.8552,871.367 L303.3217,881.0295 L299.5921,890.3239 L298.2434,900.351 L293.7993,909.4255 L291.4151,919.1339 L289.2822,928.9196 L285.6871,938.2554 L282.948,947.8546 L279.885,957.3541 L277.2179,966.9755 L274.3597,976.5381 L271.866,986.2128 L269.0395,995.7851 L266.1146,1005.3271 L262.6381,1014.6994 L259.969,1024.3201 L257.3378,1033.9525 L252.5885,1042.9331 L251.4368,1053.0208 L247.259,1062.1773 L245.3817,1072.0417 L241.7661,1081.3712" fill="none" style="stroke:#181818;stroke-width:4;"/><polygon fill="#181818" points="328.6561,799.0112,328.7089,799.0572,327.2579,800.4055,326.1166,802.0237,324.8744,803.5539,323.3007,804.7953,322.1859,806.4366,322.1738,806.4137,323.1193,805.7816,324.126,805.265,325.175,804.8286,326.0778,804.1156,327.1855,803.79,327.3486,803.8763,327.5291,804.6916,328.1859,805.759,328.9007,806.8571,329.2775,807.7763,329.8321,808.7896,329.8547,808.7923,329.5863,806.8326,329.4208,804.8853,329.2056,802.932,329.0851,800.9902,328.6561,799.0112" style="stroke:#181818;stroke-width:4;"/></g><!--reverse link colr to repo--><g class="link" data-entity-1="colr" data-entity-2="repo" data-source-line="35" data-uid="lnk24" id="link_colr_repo"><path d="M529.1861,615.5612 L529.4663,615.5612 L528.6337,625.3928 L529.4438,635.2245 L529.719,645.0562 L528.2349,654.8878 L529.0825,664.7195 L528.6174,674.5512 L528.6748,684.3828 L529.0952,694.2145 L528.2643,704.0462 L529.9243,713.8778 L528.3457,723.7095 L529.1861,733.5412 L528.9224,733.5412 L529.762,743.638 L529.0717,753.7348 L529.2771,763.8316 L529.1435,773.9284 L529.4241,784.0253 L529.5049,794.1221 L529.967,804.2189 L530.0808,814.3157 L530.0918,824.4125 L529.5256,834.5093 L529.8042,844.6062 L530.1224,854.703 L528.2245,864.7998 L530.0908,874.8966 L528.7908,884.9934 L529.8978,895.0903 L528.5261,905.1871 L529.0948,915.2839 L530.1749,925.3807 L529.1211,935.4775 L529.3265,945.5743 L529.1861,955.6712 L529.3364,955.6794 L529.5129,958.2761 L529.4685,960.8608 L529.7397,963.4627 L529.5003,966.0367 L529.8964,968.6455 L530.0212,968.6655 L530.5464,971.2353 L530.9103,973.7793 L531.3936,976.3424 L531.322,978.8165 L531.9434,981.4018 L531.6629,981.3287 L532.3278,983.8334 L533.2213,986.3976 L533.8138,988.8834 L534.843,991.4829 L535.2015,993.9078 L535.1284,993.8818 L535.9265,996.3014 L537.0344,998.8311 L537.5282,1001.1426 L538.4588,1003.6092 L539.5448,1006.1312 L539.8083,1006.2485 L540.7823,1008.5916 L541.9642,1011.0273 L542.5959,1013.218 L543.9167,1015.7156 L544.8477,1018.0395 L545.0795,1018.1626 L545.8896,1020.2533 L547.2648,1022.644 L548.5792,1025.0024 L550.0129,1027.4241 L550.9844,1029.6005 L550.9828,1029.5996 L552.5287,1031.9441 L553.5123,1033.9446 L554.8345,1036.1522 L556.651,1038.6625 L557.8291,1040.7819 L557.5668,1040.601 L559.5007,1043.0641 L560.8755,1045.1417 L562.1873,1047.1758 L563.6413,1049.308 L565.2561,1051.5512" fill="none" style="stroke:#181818;stroke-width:4;"/><polygon fill="#181818" points="529.1861,609.5612,529.2501,609.5896,528.2599,611.3051,527.645,613.1873,526.9078,615.0153,525.7688,616.6646,525.1861,618.5612,525.1678,618.5428,525.8856,617.6606,526.6957,616.8708,527.57,616.1451,528.2231,615.1982,529.1861,614.5612,529.3166,614.6917,529.8375,615.2126,530.7395,616.1145,531.6879,617.063,532.3659,617.7409,533.1861,618.5612,533.2069,618.5704,532.3764,616.7568,531.6405,614.9853,530.8589,613.1935,530.1645,611.4405,529.1861,609.5612" style="stroke:#181818;stroke-width:4;"/><text fill="#000000" font-family="Chalkduster" font-size="24" lengthAdjust="spacing" textLength="77.0387" x="530.1861" y="886.512">Reuse</text></g><!--link cur to repo--><g class="link" data-entity-1="cur" data-entity-2="repo" data-source-line="36" data-uid="lnk25" id="link_cur_repo"><path d="M490.9961,224.8812 L491.0234,224.9705 L493.4142,225.4589 L495.9649,226.4711 L498.4635,227.3128 L500.7911,227.5935 L503.3554,228.6507 L503.3445,228.6179 L505.9268,229.3465 L508.5641,230.2402 L511.2396,231.2488 L513.7834,231.8616 L516.5117,233.0288 L516.596,233.2599 L519.1624,233.7673 L521.9749,234.9495 L524.8174,236.2141 L527.4852,236.9996 L530.2449,238.037 L530.2562,238.0652 L533.0577,239.1559 L535.9106,240.3747 L538.7387,241.5317 L541.6141,242.8066 L544.3352,243.6971 L544.4565,243.9696 L547.3034,245.2396 L550.0721,246.3339 L552.9553,247.6855 L555.8439,249.0491 L558.5624,250.0306 L558.4197,249.7436 L561.5254,251.7064 L564.1614,252.7241 L567.1545,254.4603 L569.7799,255.4566 L572.7066,257.0593 L572.6917,257.0328 L575.6358,258.896 L578.2325,260.1386 L581.0342,261.7474 L583.8531,263.387 L586.5478,264.8048 L586.6472,264.9608 L589.2106,266.5001 L591.9437,268.306 L594.4021,269.6805 L597.2704,271.6985 L599.8661,273.2887 L600.0104,273.485 L602.4982,275.2966 L605.0576,277.2058 L607.2841,278.662 L609.7547,280.4503 L612.4414,282.5326 L612.2609,282.3236 L614.7468,284.518 L617.0292,286.4768 L619.6067,288.7773 L621.6805,290.4944 L624.0537,292.5583 L623.9439,292.4525 L626.2127,294.7945 L628.012,296.6843 L630.1452,298.8957 L632.605,301.4216 L634.4831,303.3874 L634.6362,303.5059 L636.5465,305.9181 L637.9806,307.9614 L640.0111,310.4667 L641.9117,312.8713 L643.5095,315.0415 L643.3289,314.9345 L644.9536,317.5199 L646.5191,320.0703 L648.2009,322.6895 L649.4307,325.0411 L650.913,327.5422 L651.1029,327.6212 L651.7979,330.1215 L652.8594,332.7743 L654.4561,335.6497 L655.0673,338.1152 L656.4736,340.9114 L656.6933,340.9652 L657.2624,343.7851 L657.7571,346.5866 L658.4195,349.4294 L659.4698,352.3672 L659.9713,355.1704 L659.8387,355.1598 L660.4765,358.2256 L660.2124,361.2191 L660.9737,364.2948 L661.1577,367.3242 L661.1861,370.3412 L661.5127,370.3412 L661.2491,380.262 L662.1549,390.1829 L662.0042,400.1037 L661.4118,410.0246 L661.5437,419.9454 L661.0124,429.8662 L662.1414,439.7871 L661.3926,449.7079 L661.4162,459.6288 L660.375,469.5496 L660.6458,479.4705 L661.8938,489.3913 L661.7591,499.3122 L661.1289,509.233 L660.7565,519.1539 L660.8942,529.0747 L660.2712,538.9956 L661.7391,548.9164 L662.1722,558.8373 L661.888,568.7581 L662.1127,578.679 L661.0038,588.5998 L661.3024,598.5207 L660.6693,608.4415 L661.5648,618.3623 L661.5151,628.2832 L661.9226,638.204 L660.8799,648.1249 L661.0069,658.0457 L661.7774,667.9666 L661.9425,677.8874 L660.5027,687.8083 L660.9276,697.7291 L661.3851,707.65 L660.3716,717.5708 L661.6573,727.4917 L661.5301,737.4125 L661.0518,747.3334 L661.3758,757.2542 L662.1577,767.1751 L660.7689,777.0959 L661.6061,787.0168 L661.567,796.9376 L661.3405,806.8584 L661.374,816.7793 L661.3374,826.7001 L660.3539,836.621 L660.6517,846.5418 L660.5707,856.4627 L661.2712,866.3835 L661.3036,876.3044 L661.4018,886.2252 L660.7981,896.1461 L661.0961,906.0669 L661.0258,915.9878 L661.9552,925.9086 L661.7549,935.8295 L660.5387,945.7503 L661.1861,955.6712 L661.0889,955.6712 L660.4165,965.6367 L661.5706,975.6023 L661.9974,985.5678 L661.9122,995.5334 L660.6054,1005.4989 L661.8047,1015.4645 L660.1957,1025.43 L661.453,1035.3956 L661.1861,1045.3612" fill="none" style="stroke:#181818;stroke-width:4;"/><polygon fill="#181818" points="661.1861,1051.3612,661.2501,1051.3896,661.8599,1049.5051,662.845,1047.7873,663.7078,1046.0153,664.1688,1044.0646,665.1861,1042.3612,665.1678,1042.3428,664.2856,1043.0606,663.4957,1043.8708,662.77,1044.7451,661.8231,1045.3982,661.1861,1046.3612,661.3166,1046.4917,660.2375,1045.4126,659.5395,1044.7145,658.8879,1044.063,657.9659,1043.1409,657.1861,1042.3612,657.2069,1042.3704,657.9764,1044.1568,658.8405,1045.9853,659.6589,1047.7935,660.5645,1049.6405,661.1861,1051.3612" style="stroke:#181818;stroke-width:4;"/><text fill="#000000" font-family="Chalkduster" font-size="24" lengthAdjust="spacing" textLength="112.5746" x="662.1861" y="727.882">Deposit/</text><text fill="#000000" font-family="Chalkduster" font-size="24" lengthAdjust="spacing" textLength="95.1779" x="670.8844" y="758.5119">Publish</text></g><!--link keep to repo--><g class="link" data-entity-1="keep" data-entity-2="repo" data-source-line="37" data-uid="lnk26" id="link_keep_repo"><path d="M416.7961,1142.7512 L416.7961,1142.8446 L422.3741,1142.567 L427.9521,1142.8371 L433.5301,1142.9288 L439.1081,1142.4341 L444.6861,1142.7512" fill="none" style="stroke:#181818;stroke-width:4;"/><polygon fill="#181818" points="450.6861,1142.7512,450.7146,1142.8152,448.83,1141.825,447.1123,1141.21,445.3402,1140.4729,443.3895,1139.3339,441.6861,1138.7512,441.6678,1138.7328,442.3856,1139.4506,443.1957,1140.2608,444.07,1141.1351,444.7231,1141.7882,445.6861,1142.7512,445.8166,1142.8817,444.7375,1143.4026,444.0395,1144.3045,443.3879,1145.253,442.4659,1145.9309,441.6861,1146.7512,441.6953,1146.7719,443.4818,1145.9414,445.3103,1145.2055,447.1185,1144.424,448.9654,1143.7296,450.6861,1142.7512" style="stroke:#181818;stroke-width:4;"/></g><!--SRC=[PP9HYzim3CVV_IcqFemMwfQzXb8eLnXbR8mRUnc5uJgwr9mh1rjfhnpttISxJNRT0WcHhB-a_FxvuCZwhiRV9qDNM2oMjM6ZlJden5UF2tvXfTYnnmesbjtPiSC4Zc17Jz4aZftbBY8y169yOPX-cYcb8besr7Y4oICcDD4UuIDifJTyDMGQF27nkuOJC0dCt_whrIN4vzGQY-irl2ebPo72v25uBwttD2Myp8hAIkh_uuXTmh4WZWLTD8nzkeimf7UoUpEUEEBXO4F6NvEaotwaL6u6AzsrUftZzs6MvML0vrWICa7bAIjTXmlr0aCIwkYQ8-kRHcxeEsI1UbFt_7x88W9iuDtZlkrvvy2h0hci3rqDas_XZ1wMUw90EkDtPznJDhT8XHue1Ja-c2HJDgN4U7Z4DYGdCyK6uRYZ9Evtx8AGcCFM9UjQxmZdU_hU7RopCCK6VY65Eio6PCAOvl1PTeXKd4O6utixeWmGV-CmvreC1b3m1la9D_HV4DiYU9QNJAMm5NW5fku_eJGRUMSpAla2iRw0rmFuKbR1jf-v7BOygjmRXW95WH4EWJcS83oLP7NxNsiH9RIPiqa9EVrRBEjKy9DEOtK6VwVu0m00]--></g></svg>