<?xml version="1.0" encoding="us-ascii" standalone="no"?><svg xmlns="http://www.w3.org/2000/svg" xmlns:xlink="http://www.w3.org/1999/xlink" contentStyleType="text/css" height="831px" preserveAspectRatio="none" style="width:1750px;height:831px;background:#FFFFFF;" version="1.1" viewBox="0 0 1750 831" width="1750px" zoomAndPan="magnify"><defs/><g><text fill="#000000" font-family="Chalkduster" font-size="42" font-weight="bold" lengthAdjust="spacing" textLength="614" x="561.4943" y="51.7215">Use of research data and</text><text fill="#000000" font-family="Chalkduster" font-size="42" font-weight="bold" lengthAdjust="spacing" textLength="592" x="572.4943" y="105.3238">outputs Research Impact</text><text fill="#000000" font-family="Chalkduster" font-size="42" font-weight="bold" lengthAdjust="spacing" textLength="669" x="533.9943" y="158.926">(Beyond the research cycle)</text><!--cluster repo--><g id="cluster_repo"><polygon fill="#00FF7F" points="9.5,191.0956,9.5,191.3058,19.5,190.6813,29.5,191.2889,39.5,191.4953,49.5,190.3822,59.5,191.0179,69.5,190.6691,79.5,190.7121,89.5,191.0274,99.5,190.4042,109.5,191.6492,119.5,190.4653,129.5,190.8978,139.5,191.5275,149.5,191.0098,159.5,191.1638,169.5,191.0636,179.5,191.2741,189.5,191.3347,199.5,191.6813,209.5,191.7666,219.5,191.7748,229.5,191.3502,239.5,191.5592,249.5,191.7978,259.5,190.3744,269.5,191.7741,279.5,190.7991,289.5,191.6294,299.5,190.6006,309.5,191.0271,319.5,191.8372,329.5,191.0468,339.5,191.2009,349.5,191.4342,359.5,191.5118,369.5,191.0917,379.5,191.3828,389.5,190.5232,399.5,191.38,409.5,191.6438,419.5,191.5401,429.5,191.7086,439.5,190.6125,449.5,190.4434,459.5,190.4742,469.5,191.0367,479.5,190.8991,489.5,191.777,499.5,190.9209,509.5,190.7525,519.5,191.3239,529.5,190.4287,539.5,190.5765,549.5,191.7445,559.5,191.5313,569.5,191.8301,579.5,190.7738,589.5,191.4148,599.5,191.686,609.5,190.6232,619.5,190.9997,629.5,191.2216,639.5,191.7473,649.5,191.0914,659.5,191.5582,669.5,190.5418,679.5,190.4183,689.5,191.5992,699.5,190.3786,709.5,191.6045,719.5,191.3022,729.5,190.8277,739.5,190.7418,749.5,191.5543,759.5,190.7963,769.5,191.6874,779.5,190.5428,789.5,191.713,799.5,191.5799,809.5,191.3406,819.5,191.1428,829.5,191.8222,839.5,191.7092,849.5,191.2648,859.5,191.3638,869.5,190.9653,879.5,191.812,889.5,191.2504,899.5,191.2682,909.5,190.4872,919.5,190.6904,929.5,191.6263,939.5,191.5253,949.5,191.0527,959.5,190.7734,969.5,190.8767,979.5,190.4094,989.5,191.5103,999.5,191.8351,1009.5,191.622,1019.5,191.7905,1029.5,190.9589,1039.5,191.1828,1049.5,190.708,1059.5,191.3796,1069.5,191.3423,1079.5,191.648,1089.5,190.8659,1099.5,190.9612,1109.5,191.539,1119.5,191.6629,1129.5,190.5831,1139.5,191.0956,1139.4753,191.0359,1139.8726,191.288,1140.1292,191.2004,1140.6057,191.6438,1140.9471,191.7608,1141.2678,191.8278,1141.2367,191.815,1141.458,192.1995,1141.7851,192.6279,1141.6108,192.8486,1141.9506,193.2822,1142,193.5956,1142.2856,193.5956,1142.1158,203.5586,1142.1409,213.5216,1142.1135,223.4846,1141.3758,233.4476,1141.5992,243.4106,1141.5385,253.3736,1142.0638,263.3366,1142.0881,273.2996,1142.1617,283.2626,1141.709,293.2256,1141.9325,303.1886,1141.8798,313.1516,1142.5769,323.1146,1142.4266,333.0776,1141.5145,343.0406,1141.9271,353.0036,1141.4228,362.9666,1142.2884,372.9296,1142.6085,382.8926,1142.5446,392.8556,1141.5644,402.8186,1142.464,412.7816,1141.2572,422.7446,1142.2002,432.7076,1141.7007,442.6706,1142.0967,452.6336,1142.2403,462.5966,1142.4721,472.5596,1141.2801,482.5226,1142,492.4856,1142.1464,492.5462,1141.9084,492.8619,1141.8165,493.238,1141.791,493.6416,1141.4159,493.9005,1141.2678,494.2533,1141.2901,494.3073,1140.9414,494.4655,1140.5858,494.607,1140.207,494.6924,1139.9442,495.058,1139.5,494.9856,1139.5,494.3758,1129.5,495.5509,1119.5,494.3616,1109.5,494.4453,1099.5,495.0256,1089.5,495.0139,1079.5,494.4928,1069.5,495.3993,1059.5,495.0944,1049.5,495.7122,1039.5,495.6527,1029.5,494.5373,1019.5,494.5877,1009.5,494.8564,999.5,495.3411,989.5,495.3886,979.5,495.2867,969.5,494.6436,959.5,495.6219,949.5,495.6194,939.5,494.9383,929.5,494.7465,919.5,494.5842,909.5,494.771,899.5,495.123,889.5,494.9172,879.5,494.5678,869.5,495.473,859.5,494.5266,849.5,495.488,839.5,495.4128,829.5,495.3574,819.5,495.6781,809.5,494.7397,799.5,494.6849,789.5,495.5045,779.5,494.3887,769.5,494.7516,759.5,495.1011,749.5,495.0543,739.5,494.6271,729.5,494.9426,719.5,495.7302,709.5,495.6341,699.5,494.3893,689.5,495.0641,679.5,494.4717,669.5,494.9593,659.5,495.2786,649.5,495.4055,639.5,494.3209,629.5,495.3861,619.5,494.994,609.5,494.4302,599.5,494.5145,589.5,495.3122,579.5,495.2354,569.5,494.9691,559.5,494.3135,549.5,495.6437,539.5,494.6738,529.5,494.4575,519.5,494.9183,509.5,495.5753,499.5,495.601,489.5,495.0207,479.5,494.8344,469.5,495.1554,459.5,495.1718,449.5,494.4778,439.5,495.3995,429.5,495.5444,419.5,494.7698,409.5,494.5564,399.5,495.6602,389.5,495.0066,379.5,494.9854,369.5,495.2846,359.5,494.3399,349.5,495.5156,339.5,494.9701,329.5,495.6544,319.5,494.7697,309.5,495.3946,299.5,494.5416,289.5,495.2306,279.5,495.3649,269.5,494.6582,259.5,495.3486,249.5,494.4141,239.5,494.5151,229.5,495.6684,219.5,495.67,209.5,495.5541,199.5,494.6252,189.5,495.3698,179.5,494.5135,169.5,495.0437,159.5,494.9843,149.5,494.7232,139.5,495.6015,129.5,495.4289,119.5,494.6648,109.5,495.5122,99.5,495.0774,89.5,494.402,79.5,494.7523,69.5,494.4603,59.5,494.8465,49.5,494.3566,39.5,494.3854,29.5,495.0559,19.5,494.8652,9.5,494.9856,9.4925,494.9675,9.1282,494.795,8.8142,494.7442,8.3685,494.3753,8.1062,494.4491,7.7322,494.2533,7.5034,494.1586,7.6769,493.9376,7.6219,493.6219,7.4537,493.2593,7.2577,492.8852,7,492.4856,7.1922,492.4856,7.1057,482.5226,6.36,472.5596,7.4465,462.5966,7.3296,452.6336,6.8466,442.6706,6.9942,432.7076,6.7914,422.7446,7.2177,412.7816,7.6805,402.8186,6.6461,392.8556,7.4689,382.8926,6.9108,372.9296,6.6207,362.9666,6.5681,353.0036,6.3553,343.0406,6.5591,333.0776,7.0363,323.1146,7.273,313.1516,7.5762,303.1886,7.4201,293.2256,6.2886,283.2626,7.619,273.2996,7.4861,263.3366,7.5407,253.3736,7.5219,243.4106,6.3409,233.4476,6.7423,223.4846,7.316,213.5216,6.5185,203.5586,7,193.5956,6.9683,193.5825,7.1671,193.2506,7.3933,192.9301,7.4534,192.5408,7.8151,192.2764,7.7322,191.8278,7.7847,191.9545,8.1185,191.7602,8.3705,191.3686,8.8361,191.4928,9.0732,191.0651,9.5,191.0956" style="stroke:#181818;stroke-width:4.0;"/><text fill="#000000" font-family="Chalkduster" font-size="24" font-style="italic" lengthAdjust="spacing" textLength="169" x="490" y="216.9365">&#171;repository&#187;</text><text fill="#000000" font-family="Chalkduster" font-size="24" font-weight="bold" lengthAdjust="spacing" textLength="623" x="263" y="247.5663">Repositories / Publishers / GLAM institutions</text></g><!--cluster Research Impact--><g id="cluster_Research Impact"><path d="M959.2229,687.7406 L959.2229,687.7406 L959.291,687.8046 L961.4707,685.0823 L964.0494,682.7352 L966.4981,680.2659 L968.5197,677.3948 L971.1325,675.0799 L971.1208,675.0474 L973.6306,673.98 L976.1993,673.0765 L978.809,672.2868 L981.2775,671.1046 L983.9437,670.4722 L984.0141,670.708 L986.4483,670.9759 L989.0881,671.9322 L991.7529,672.9725 L994.2719,673.5241 L996.8675,674.3328 L996.8894,674.3538 L999.3068,676.8718 L1001.8237,679.4854 L1004.2926,682.0529 L1006.8532,684.7085 L1009.115,687.077 L1009.115,687.077 L1009.3572,687.251 L1010.6674,685.434 L1011.8214,683.5048 L1013.2041,681.7399 L1014.5975,679.9827 L1015.6513,677.9814 L1015.4257,677.7537 L1017.2301,676.8415 L1018.2916,675.1796 L1019.9179,674.0876 L1020.9625,672.4087 L1022.4839,671.2109 L1022.4715,671.1831 L1025.521,670.2126 L1028.2799,668.593 L1031.2103,667.3564 L1034.155,666.152 L1036.9959,664.7156 L1037.0311,664.8972 L1040.1096,665.3173 L1043.2482,666.0478 L1046.2896,666.2761 L1049.476,667.2534 L1052.566,667.7328 L1052.6956,667.9391 L1054.3021,668.9241 L1055.973,670.0115 L1057.345,670.6229 L1058.9361,671.5832 L1060.7213,672.8527 L1060.5365,672.6474 L1062.3813,674.3435 L1064.018,675.8082 L1065.9566,677.6084 L1067.3796,678.8359 L1069.1092,680.4038 L1069.1092,680.4038 L1069.0016,680.2957 L1071.9516,677.7166 L1074.4417,674.6756 L1077.2588,671.963 L1080.3959,669.5718 L1082.9632,666.6083 L1083.0385,666.7867 L1085.9496,665.7022 L1088.6265,664.0628 L1091.5967,663.1184 L1094.503,662.0226 L1097.2604,660.5739 L1097.2046,660.3715 L1100.1009,661.3197 L1102.9789,662.2017 L1105.8929,663.2138 L1108.6671,663.7196 L1111.5194,664.5083 L1111.6584,664.6597 L1112.7459,665.6061 L1114.1017,666.8448 L1115.8496,668.5104 L1116.8756,669.3899 L1118.4841,670.9037 L1118.6696,671.0331 L1119.9144,672.8993 L1121.0963,674.7218 L1122.4199,676.6431 L1124.0711,678.7927 L1125.2587,680.6192 L1125.2587,680.6192 L1125.1548,680.5361 L1127.6923,677.9972 L1129.5232,674.8932 L1132.1575,672.4317 L1134.3394,669.6085 L1136.3995,666.6878 L1136.4381,666.7896 L1138.6815,665.8436 L1141.0633,665.2622 L1143.32,664.3514 L1145.5245,663.3031 L1147.7723,662.369 L1147.8134,662.4809 L1150.1004,663.177 L1152.5781,664.3926 L1154.8401,665.0207 L1157.1908,665.8904 L1159.5124,666.6808 L1159.3234,666.4874 L1161.835,668.944 L1164.5741,671.6336 L1166.9912,673.9935 L1169.2929,676.2353 L1171.7547,678.641 L1171.7547,678.641 L1171.6462,678.5475 L1173.0876,676.9463 L1174.3369,675.1795 L1176.1141,673.8678 L1177.63,672.3309 L1178.7877,670.485 L1178.9358,670.6661 L1180.5141,669.4719 L1181.811,667.9336 L1183.4049,666.7584 L1184.8022,665.3428 L1186.4422,664.2239 L1186.4848,664.3428 L1189.7231,663.1642 L1193.0129,662.1292 L1196.1395,660.6391 L1199.3977,659.516 L1202.6618,658.4093 L1202.7193,658.5978 L1205.904,659.6173 L1208.9326,660.125 L1212.1425,661.2273 L1215.3557,662.34 L1218.505,663.2434 L1218.3148,663.0496 L1220.0518,664.7654 L1221.4589,666.1451 L1222.7841,667.4412 L1224.2966,668.9283 L1225.6891,670.2931 L1225.9658,670.4614 L1226.8452,672.3167 L1228.3585,674.5575 L1229.6222,676.6466 L1230.8326,678.7032 L1232.0635,680.7723 L1232.0635,680.7723 L1232.1103,680.814 L1234.6381,677.9629 L1236.9304,674.9016 L1239.5415,672.1247 L1242.0583,669.2638 L1244.7483,666.5574 L1244.7583,666.5839 L1247.6286,665.5158 L1250.5067,664.4683 L1253.3024,663.2017 L1256.2039,662.2165 L1259.0811,661.1663 L1259.0688,661.1144 L1262.1198,662.1193 L1265.0842,662.7578 L1267.9709,663.0668 L1270.9928,663.9487 L1273.98,664.6837 L1273.8117,664.4902 L1276.9408,667.2825 L1279.9108,669.8919 L1282.7689,672.3726 L1285.3596,674.5459 L1288.3634,677.1941 L1288.3634,677.1941 L1288.515,677.3338 L1290.4371,674.4576 L1293.0618,672.2289 L1295.2151,669.5657 L1297.661,667.1723 L1299.9459,664.6304 L1299.9722,664.7339 L1302.5478,664.1863 L1304.9677,663.0254 L1307.6486,662.8929 L1310.1663,662.1173 L1312.6971,661.3931 L1312.7586,661.5386 L1315.2961,662.7442 L1317.6369,663.4853 L1320.1358,664.5997 L1322.6119,665.6603 L1325.0443,666.6178 L1325.1125,666.673 L1327.1182,669.182 L1329.4383,671.9453 L1331.0561,674.1407 L1333.5364,677.0335 L1335.4152,679.44 L1335.4152,679.44 L1335.1915,679.2761 L1336.6209,677.3882 L1338.2283,675.6308 L1339.6235,673.7179 L1340.8361,671.6712 L1342.4122,669.8908 L1342.5361,670.0267 L1343.8606,668.6352 L1345.4615,667.5467 L1346.8594,666.2357 L1347.9412,664.5781 L1349.4913,663.4339 L1349.4388,663.265 L1352.3504,662.4845 L1355.2905,661.7956 L1358.1728,660.9212 L1361.0355,659.9834 L1363.8719,658.9611 L1363.8194,658.8185 L1366.8971,660.3044 L1369.8242,661.3812 L1372.6471,662.1751 L1375.5451,663.173 L1378.5093,664.3506 L1378.3984,664.2109 L1379.93,665.4501 L1381.5072,666.7469 L1382.9304,667.8494 L1384.3139,668.902 L1385.9093,670.2217 L1386.0651,670.3721 L1387.2518,671.622 L1389.0484,673.4608 L1390.5136,674.9796 L1391.9852,676.5045 L1393.3555,677.9317 L1393.3555,677.9317 L1393.5762,678.1463 L1396.0281,675.027 L1398.7615,672.1815 L1401.7735,669.6068 L1404.1689,666.4326 L1407.11,663.789 L1407.0786,663.6898 L1409.9848,662.9321 L1412.8379,662.0064 L1415.6399,660.9196 L1418.5415,660.1475 L1421.4066,659.2599 L1421.5301,659.5669 L1424.2655,660.6334 L1426.8105,661.2262 L1429.6738,662.6105 L1432.327,663.4723 L1435.1635,664.7903 L1435.155,664.7822 L1436.5256,666.2153 L1437.8341,667.5894 L1438.7521,668.5929 L1440.363,670.2542 L1441.5015,671.467 L1441.5047,671.469 L1442.4512,673.2088 L1443.6425,675.1003 L1445.1034,677.1587 L1446.2338,679.0125 L1447.2989,680.8258 L1447.2989,680.8258 L1447.293,680.8215 L1448.5572,678.6275 L1450.5304,676.9593 L1451.6823,674.6822 L1453.1034,672.6046 L1454.7901,670.724 L1454.7705,670.7015 L1456.5696,669.5176 L1458.1842,668.1224 L1459.6216,666.5243 L1461.1742,665.0582 L1462.8255,663.705 L1462.8466,663.7774 L1466.1885,662.8083 L1469.4419,661.5361 L1472.8966,660.9532 L1476.2545,660.0388 L1479.5247,658.8243 L1479.4852,658.737 L1482.619,660.0861 L1485.9942,661.9686 L1489.0473,663.1394 L1492.2164,664.5664 L1495.3893,666.002 L1495.4897,666.0891 L1496.571,667.4246 L1498.364,669.3779 L1499.5794,670.8298 L1501.2074,672.6399 L1502.3814,674.0558 L1502.2972,674.0097 L1503.7469,676.3432 L1504.6206,678.361 L1506.0952,680.7082 L1507.3537,682.9369 L1508.412,685.0559 L1508.412,685.0559 L1508.3084,684.9538 L1510.7977,682.8679 L1512.7729,680.2748 L1515.0757,678.0049 L1517.7114,676.0635 L1519.7662,673.549 L1519.8503,673.8413 L1522.3274,673.0753 L1524.7046,671.962 L1527.2874,671.5636 L1529.6735,670.4813 L1532.2228,669.9665 L1532.2307,669.9911 L1534.7119,670.7617 L1537.1657,671.447 L1539.7738,672.6146 L1542.2396,673.3373 L1544.6688,673.9455 L1544.5687,673.844 L1547.0977,676.3475 L1549.2264,678.4455 L1551.28,680.4674 L1553.6538,682.8136 L1555.9912,685.1229 L1555.9912,685.1229 L1555.798,684.9917 L1557.3759,682.9747 L1558.6317,680.7389 L1560.0782,678.6326 L1561.7606,676.6865 L1563.1707,674.5555 L1563.1315,674.519 L1564.5842,672.9993 L1565.9892,671.4353 L1567.5227,669.9909 L1568.7202,668.2337 L1570.3333,666.8635 L1570.3632,666.928 L1573.1012,665.2166 L1576.2022,664.2884 L1579.1644,663.0608 L1582.058,661.6851 L1584.8672,660.1274 L1584.9157,660.2805 L1587.942,661.175 L1590.9793,662.1045 L1593.9281,662.7547 L1597.1229,664.1812 L1600.1119,664.9581 L1600.2062,665.0703 L1601.6783,666.2593 L1603.3307,667.6628 L1604.883,668.9471 L1606.6151,670.4454 L1608.1631,671.7246 L1608.3912,671.9232 L1609.7291,673.5562 L1611.6896,675.7313 L1613.1873,677.5033 L1614.7747,679.3535 L1616.5866,681.3991 L1616.5866,681.3991 L1616.4518,681.2624 L1619.1908,678.4305 L1622.0598,675.7306 L1625.014,673.1172 L1627.8932,670.4276 L1630.6134,667.5767 L1630.6652,667.8275 L1633.6376,667.1428 L1636.5224,666.0336 L1639.6284,665.996 L1642.6029,665.3214 L1645.5456,664.4931 L1645.6448,664.712 L1648.4807,665.9906 L1651.1035,666.7988 L1654.0165,668.2476 L1656.9611,669.7661 L1659.7425,670.9245 L1659.5757,670.7905 L1662.0711,673.8404 L1664.4942,676.8323 L1666.9482,679.8489 L1669.2153,682.7155 L1671.5637,685.6473 L1671.5637,685.6473 L1671.8023,685.8767 L1674.1395,683.232 L1676.5338,680.6421 L1678.7229,677.8549 L1681.4484,675.5836 L1683.784,672.9373 L1683.7069,672.6938 L1686.6827,672.1617 L1689.5004,671.1304 L1692.3973,670.3488 L1695.2031,669.2798 L1698.0725,668.4117 L1698.0496,668.3277 L1700.8645,668.8794 L1703.8047,669.8905 L1706.626,670.4656 L1709.5583,671.4477 L1712.4657,672.3386 L1712.6039,672.4755 L1715.0233,674.9182 L1717.3369,677.2561 L1720.0639,680.0037 L1722.5139,682.4767 L1725,684.9856 L1725,684.9856 L1725.1685,685.1585 L1725.9243,685.8953 L1726.5273,686.4751 L1727.1919,687.1182 L1727.93,687.8367 L1728.7456,688.6349 L1728.7456,688.6349 L1728.7437,688.6328 L1730.8818,690.6581 L1732.4076,692.0278 L1734.4955,693.9993 L1736.5593,695.945 L1738.4116,697.6642 L1738.7001,697.8144 L1737.2736,700.0542 L1735.8903,702.3166 L1734.4559,704.5523 L1733.3582,706.9633 L1732.3036,709.3968 L1732.3036,709.3968 L1732.2053,709.3893 L1732.7548,713.3398 L1733.0684,717.2724 L1733.2282,721.1931 L1733.4469,725.1184 L1733.8063,729.0544 L1733.8063,729.0544 L1733.5242,728.9039 L1735.2315,731.6585 L1736.7263,734.2998 L1738.198,736.9287 L1739.3433,739.3836 L1740.6794,741.9402 L1740.7038,741.966 L1738.4868,743.8723 L1736.5042,746.0273 L1734.1596,747.7982 L1732.3346,750.1205 L1730.0518,751.9569 L1730.0518,751.9569 L1729.9184,751.9315 L1730.4777,755.3534 L1731.4787,758.8598 L1732.2298,762.3184 L1732.7062,765.7245 L1733.3385,769.1604 L1733.3125,769.1132 L1730.3047,770.9129 L1727.1978,772.5329 L1724.115,774.1965 L1721.0842,775.9545 L1718,777.6156 L1718,777.6156 L1717.8525,777.6124 L1718.209,779.3094 L1718.3773,781.0024 L1717.9506,782.6827 L1718.0394,784.374 L1718.1795,786.0663 L1718.1795,786.0663 L1718.0176,785.9353 L1715.8539,789.1061 L1713.3323,791.9871 L1711.1477,795.141 L1708.4461,797.8763 L1706.1424,800.9338 L1706.0827,800.7859 L1703.3862,802.1897 L1700.4938,803.1085 L1697.77,804.4446 L1694.9665,805.5835 L1692.1144,806.6019 L1692.1651,806.7888 L1689.1581,805.6065 L1686.3249,805.0647 L1683.4772,804.469 L1680.4518,803.2191 L1677.6152,802.6646 L1677.7765,802.8202 L1674.8165,799.77 L1672.2852,797.1333 L1669.7538,794.4966 L1666.6531,791.3109 L1664.1648,788.7156 L1664.1648,788.7156 L1664.3755,788.9576 L1661.1548,791.2908 L1658.0954,793.8093 L1655.4169,796.7652 L1652.0156,798.891 L1649.2293,801.723 L1649.2753,801.9882 L1646.1633,802.074 L1643.1803,802.9036 L1640.1783,803.623 L1637.0761,803.765 L1634.0519,804.3568 L1633.9663,804.1873 L1631.1973,802.8062 L1628.4557,801.4796 L1625.7716,800.2669 L1622.8213,798.5266 L1620.1526,797.3445 L1620.3391,797.4744 L1618.1381,794.3017 L1615.456,790.7936 L1613.4397,787.7495 L1611.1028,784.482 L1609.0513,781.4133 L1609.0513,781.4133 L1609.1089,781.4637 L1606.3725,783.998 L1604.2152,787.0384 L1601.8491,789.8964 L1599.272,792.5699 L1596.8477,795.3769 L1596.8749,795.4406 L1593.9988,796.5997 L1591.1882,797.912 L1588.4191,799.3215 L1585.5573,800.514 L1582.5912,801.4621 L1582.6192,801.5787 L1579.6827,800.7833 L1576.7893,800.1678 L1573.8663,799.4288 L1570.9569,798.7462 L1568.0233,797.9631 L1568.1754,798.0983 L1565.1527,794.7895 L1562.9117,792.1751 L1560.3085,789.239 L1557.2852,785.9296 L1554.8851,783.1739 L1554.8851,783.1739 L1555.1216,783.3247 L1552.7915,786.5691 L1550.5469,789.8681 L1548.2113,793.1091 L1546.1848,796.5471 L1544.1644,799.989 L1544.2769,800.2425 L1541.2582,800.9941 L1538.6618,802.6971 L1535.7219,803.6261 L1533.0196,805.0906 L1530.1622,806.2056 L1530.1116,805.9926 L1527.0937,805.3814 L1524.143,805.0534 L1521.0546,804.1452 L1517.9644,803.2297 L1514.9401,802.5916 L1515.0062,802.6666 L1512.2256,800.2396 L1509.2477,797.5887 L1506.4939,795.1922 L1503.5828,792.6172 L1500.5598,789.9152 L1500.5598,789.9152 L1500.6254,789.959 L1498.5524,792.8193 L1496.5365,795.7177 L1494.5464,798.6334 L1492.825,801.7283 L1490.763,804.5959 L1490.7691,804.6105 L1488.4783,805.855 L1485.9225,806.4696 L1483.5644,807.554 L1481.0772,808.3316 L1478.8077,809.6266 L1478.8477,809.7733 L1476.1511,808.6409 L1473.565,807.9138 L1471.0333,807.3856 L1468.4479,806.6609 L1465.9088,806.1057 L1465.9834,806.1915 L1463.2659,803.7759 L1461.0706,801.9611 L1458.2741,799.4545 L1455.8633,797.3917 L1453.2813,795.1319 L1453.2813,795.1319 L1453.4609,795.2642 L1451.7743,796.9635 L1450.5121,798.9751 L1449.11,800.8839 L1447.8531,802.8995 L1446.2613,804.6686 L1446.0437,804.4274 L1444.7532,805.9229 L1443.3707,807.3163 L1442.0834,808.8154 L1440.283,809.7456 L1438.9848,811.2326 L1439.0017,811.2866 L1436.0227,812.2754 L1433.0759,813.3668 L1429.9019,813.7336 L1426.9393,814.7747 L1424.0121,815.9287 L1423.9136,815.6718 L1421.0869,814.9495 L1417.9754,813.485 L1415.0659,812.5469 L1411.951,811.0737 L1409.0635,810.1928 L1408.9285,810.0418 L1407.6579,808.9465 L1405.9716,807.3861 L1404.5258,806.0948 L1403.4712,805.2412 L1401.817,803.7167 L1401.8469,803.7407 L1400.6034,802.1185 L1399.1765,800.3496 L1397.8753,798.6812 L1396.3091,796.8008 L1394.8391,794.9973 L1394.8391,794.9973 L1394.7592,794.9118 L1391.7685,797.4156 L1389.3394,800.5216 L1386.1458,802.8079 L1383.3099,805.4777 L1380.5984,808.2809 L1380.5065,807.9931 L1377.8377,809.3477 L1374.9536,810.028 L1372.0899,810.7721 L1369.3287,811.8374 L1366.5271,812.776 L1366.5372,812.7998 L1363.7922,811.4301 L1361.3547,810.7887 L1358.6154,809.4326 L1355.9084,808.1528 L1353.3439,807.2106 L1353.2826,807.1574 L1352.3679,806.0203 L1350.7031,804.2323 L1349.7893,803.096 L1348.4882,801.6236 L1347.3099,800.2577 L1347.0844,800.132 L1346.2783,798.3115 L1345.3453,796.4203 L1344.1435,794.3793 L1343.0124,792.3777 L1341.7674,790.3126 L1341.7674,790.3126 L1341.4877,790.1342 L1340.6281,792.236 L1339.1598,793.9495 L1338.3097,796.0574 L1337.1131,797.9442 L1335.7595,799.7309 L1335.5838,799.5663 L1334.4289,801.0516 L1333.2942,802.5557 L1331.9241,803.8394 L1330.7277,805.2858 L1329.3565,806.5684 L1329.4696,806.827 L1326.6145,807.769 L1323.8657,808.9543 L1321.235,810.4092 L1318.347,811.2762 L1315.6453,812.5689 L1315.6263,812.5025 L1312.7753,811.8157 L1309.8251,810.7809 L1307.009,810.2166 L1304.0093,809.0081 L1301.1947,808.4493 L1301.1082,808.3402 L1299.5356,807.0427 L1298.2676,806.1291 L1296.8227,804.9925 L1295.4063,803.8919 L1293.8675,802.6369 L1294.0303,802.7803 L1292.2085,800.8036 L1290.9825,799.3517 L1289.3315,797.5255 L1287.7866,795.7928 L1286.5658,794.3454 L1286.5658,794.3454 L1286.4058,794.1976 L1283.6484,797.0417 L1281.0197,800.0047 L1278.6918,803.2453 L1275.971,806.1232 L1273.1331,808.893 L1273.1853,809.0876 L1269.9775,809.4249 L1266.9863,810.5691 L1263.8178,811.0527 L1260.7592,811.9456 L1257.7497,813.0215 L1257.743,813.0053 L1254.7481,811.7018 L1251.7481,810.3857 L1248.8489,809.3167 L1245.8189,807.9272 L1242.9728,806.9881 L1242.9047,806.9385 L1240.5272,803.711 L1238.2414,800.5502 L1235.8711,797.3279 L1233.4286,794.053 L1231.3597,791.0502 L1231.3597,791.0502 L1231.225,790.9598 L1230.2024,793.2055 L1228.3735,794.9096 L1227.557,797.2937 L1226.2064,799.3191 L1224.5737,801.1551 L1224.5499,801.1304 L1222.9627,802.3391 L1221.6563,803.8387 L1220.1703,805.1522 L1218.7416,806.5252 L1217.4463,808.0362 L1217.4629,808.0879 L1214.5427,809.1862 L1211.5213,809.9704 L1208.4599,810.63 L1205.6184,811.9729 L1202.614,812.8097 L1202.5447,812.6402 L1199.6037,811.5 L1196.6354,810.2929 L1193.6646,809.0795 L1190.6375,807.7285 L1187.757,806.7363 L1187.8455,806.8312 L1186.3122,805.3866 L1184.6737,803.8293 L1183.5514,802.8254 L1182.1647,801.538 L1180.5988,800.0586 L1180.5701,800.0365 L1179.0591,798.1494 L1177.7186,796.3933 L1176.4111,794.6628 L1175.0074,792.8581 L1173.7697,791.1812 L1173.7697,791.1812 L1173.9372,791.3417 L1172.1892,792.7268 L1170.6621,794.3237 L1169.2262,796.008 L1167.7463,797.6501 L1166.1246,799.1562 L1166.2405,799.3275 L1164.438,800.0377 L1163.1719,801.5404 L1161.5616,802.5346 L1159.6823,803.1313 L1158.2951,804.455 L1158.2438,804.1729 L1155.2089,805.1183 L1152.1206,805.7701 L1148.9705,806.0815 L1145.8497,806.5546 L1142.7741,807.2757 L1142.6273,806.9838 L1140.071,806.1163 L1137.2358,804.6941 L1134.1924,802.8576 L1131.4422,801.6045 L1128.5894,800.1471 L1128.7288,800.2674 L1127.5279,798.8666 L1125.9306,797.1236 L1124.6784,795.6785 L1123.789,794.5464 L1122.4302,793.0093 L1122.4728,793.0333 L1121.3378,791.1046 L1120.1738,789.1596 L1119.3728,787.4188 L1117.906,785.3035 L1117.1236,783.5731 L1117.1236,783.5731 L1117.2335,783.6824 L1114.5783,786.0467 L1112.0354,788.5228 L1109.796,791.3006 L1107.0913,793.6159 L1104.613,796.1561 L1104.5862,796.0721 L1101.9555,796.8919 L1099.4524,798.1121 L1096.8285,798.9535 L1094.0837,799.4155 L1091.4867,800.3411 L1091.487,800.342 L1088.9142,799.4396 L1086.2737,798.3456 L1083.8195,797.7785 L1081.1212,796.521 L1078.6077,795.7864 L1078.4721,795.6693 L1076.3346,793.1287 L1074.1105,790.5133 L1071.5067,787.5702 L1069.0654,784.7674 L1066.8391,782.1501 L1066.8391,782.1501 L1066.7458,782.0774 L1065.1768,783.8979 L1063.8284,785.8901 L1062.6557,788.0192 L1060.7114,789.5473 L1059.4643,791.6184 L1059.4528,791.606 L1057.8845,792.841 L1056.571,794.3503 L1054.9404,795.5182 L1053.4286,796.8139 L1052.1755,798.3882 L1052.147,798.3131 L1049.2489,799.419 L1046.4756,800.8532 L1043.5627,801.9198 L1040.6771,803.0584 L1037.677,803.8956 L1037.7418,804.0825 L1034.8278,803.1331 L1031.8606,802.0304 L1028.8648,800.8452 L1026.0148,800.0807 L1022.9856,798.799 L1022.9369,798.7426 L1021.4362,797.4516 L1020.1407,796.399 L1018.3702,794.7948 L1016.9267,793.5703 L1015.4556,792.3138 L1015.4551,792.3134 L1014.0612,790.6217 L1012.3127,788.6291 L1010.5837,786.6531 L1009.2831,785.0406 L1007.7433,783.2251 L1007.7433,783.2251 L1007.7556,783.2373 L1006.2232,785.2008 L1004.3959,786.8725 L1002.3666,788.3444 L1000.9254,790.3982 L999.0438,792.0161 L999.0506,792.0271 L997.3665,793.4245 L995.2192,794.0725 L993.3894,795.2342 L991.7752,796.7448 L989.8256,797.7127 L989.8036,797.5405 L986.0993,798.0393 L982.4103,798.6582 L978.6731,798.9004 L974.9931,799.589 L971.2887,800.0875 L971.1449,799.8338 L968.1607,798.4593 L964.9324,796.6543 L961.5543,794.5849 L958.2618,792.6665 L955.0433,790.8788 L955.143,790.9509 L953.7619,789.1145 L952.2669,787.1957 L951.4997,785.8034 L949.8363,783.7629 L948.6895,782.0959 L948.4376,781.993 L947.501,779.6975 L946.6497,777.4368 L945.9914,775.255 L945.0383,772.9527 L944,770.6156 L944,770.6156 L943.9653,770.5307 L944.8305,770.9527 L945.5682,771.063 L946.4111,771.4303 L947.2979,771.905 L948.1593,772.3176 L948.1593,772.3176 L948.0843,772.2462 L946.403,770.4776 L944.6227,768.6148 L942.8539,766.763 L941.4196,765.2294 L939.6451,763.3721 L939.5167,763.3144 L940.6982,761.1375 L941.7208,758.8892 L942.4148,756.4931 L943.8389,754.4254 L944.7099,752.1089 L944.7099,752.1089 L944.5731,752.0329 L943.6496,750.0381 L942.1011,747.696 L941.2695,745.7523 L940.2085,743.6812 L938.7566,741.3928 L938.6282,741.2985 L940.0141,739.2744 L941.5859,737.3869 L943.1066,735.4618 L944.3781,733.3537 L946.0131,731.5126 L946.0131,731.5126 L945.9489,731.4668 L944.2323,729.1473 L942.8035,727.0332 L941.3498,724.9012 L939.4143,722.4256 L938.0609,720.3652 L938.2744,720.5501 L939.8017,718.25 L941.8906,716.4361 L943.6363,714.3251 L945.3692,712.2029 L947.0228,710.0122 L947.0228,710.0122 L946.9704,709.9848 L944.9801,706.418 L943.2124,702.9676 L941.4191,699.5039 L939.5913,696.0221 L937.9182,692.6213 L937.9073,692.6115 L940.3498,689.529 L943.0209,686.6508 L945.6934,683.7738 L948.6045,681.1101 L951,677.9856 L951,677.9856 L950.8469,677.8566 L952.6605,679.95 L954.336,681.927 L955.8069,683.7316 L957.7497,685.934 L959.2229,687.7406 " fill="none" style="stroke:#181818;stroke-width:4.0;"/><text fill="#000000" font-family="Chalkduster" font-size="24" font-weight="bold" lengthAdjust="spacing" textLength="229" x="1220" y="706.8265">Research Impact</text></g><!--entity ja--><g id="elem_ja"><polygon fill="none" points="33,279.0956,33,279.3058,43.0769,278.6813,53.1538,279.2889,63.2308,279.4953,73.3077,278.3822,83.3846,279.0179,93.4615,278.6691,103.5385,278.7121,113.6154,279.0274,123.6923,278.4042,133.7692,279.6492,143.8462,278.4653,153.9231,278.8978,164,279.5275,174.0769,279.0098,184.1538,279.1638,194.2308,279.0636,204.3077,279.2741,214.3846,279.3347,224.4615,279.6813,234.5385,279.7666,244.6154,279.7748,254.6923,279.3502,264.7692,279.5592,274.8462,279.7978,284.9231,278.3744,295,279.7741,305.0769,278.7991,315.1538,279.6294,325.2308,278.6006,335.3077,279.0271,345.3846,279.8372,355.4615,279.0468,365.5385,279.2009,375.6154,279.4342,385.6923,279.5118,395.7692,279.0917,405.8462,279.3828,415.9231,278.5232,426,279.38,436.0769,279.6438,446.1538,279.5401,456.2308,279.7086,466.3077,278.6125,476.3846,278.4434,486.4615,278.4742,496.5385,279.0367,506.6154,278.8991,516.6923,279.777,526.7692,278.9209,536.8462,278.7525,546.9231,279.3239,557,279.0956,556.9149,278.8902,557.2873,279.0822,557.7899,279.5883,558.1162,279.6691,558.5079,279.9076,558.7678,279.8278,558.6687,279.7868,559.0125,280.2221,559.2425,280.6102,559.0616,280.8282,559.324,281.2298,559.5,281.5956,559.626,281.5956,560.1518,290.7215,559.4958,299.8475,559.9626,308.9735,558.9462,318.0994,559.5,327.2254,559.2914,327.139,559.5086,327.6432,558.9863,327.8411,559.2174,328.351,558.9778,328.666,558.7678,328.9932,558.7336,328.9107,558.3691,329.0307,558.1192,329.4274,557.6689,329.3403,557.4291,329.7612,557,329.7254,557,329.1727,546.9231,330.3428,536.8462,330.2097,526.7692,329.9704,516.6923,329.7726,506.6154,330.452,496.5385,330.339,486.4615,329.8947,476.3846,329.9936,466.3077,329.5952,456.2308,330.4419,446.1538,329.8803,436.0769,329.898,426,329.1171,415.9231,329.3202,405.8462,330.2562,395.7692,330.1552,385.6923,329.6825,375.6154,329.4032,365.5385,329.5065,355.4615,329.0392,345.3846,330.1402,335.3077,330.465,325.2308,330.2518,315.1538,330.4203,305.0769,329.5887,295,329.8126,284.9231,329.3378,274.8462,330.0095,264.7692,329.9722,254.6923,330.2778,244.6154,329.4958,234.5385,329.591,224.4615,330.1689,214.3846,330.2928,204.3077,329.2129,194.2308,329.5315,184.1538,329.8747,174.0769,329.1146,164,330.0788,153.9231,329.9834,143.8462,329.6247,133.7692,329.8677,123.6923,330.4541,113.6154,329.4125,103.5385,330.0404,93.4615,330.0111,83.3846,329.8412,73.3077,329.8663,63.2308,329.8389,53.1538,329.1013,43.0769,329.3246,33,329.7254,32.9411,329.5833,32.6546,329.5986,32.3041,329.4597,31.96,329.3359,31.5487,329.05,31.2322,328.9932,31.2114,328.9846,31.0488,328.6243,31.117,328.3597,30.9243,327.9869,30.4969,327.517,30.5,327.2254,30.4271,327.2254,29.9228,318.0994,30.7884,308.9735,31.1085,299.8475,31.0446,290.7215,30.5,281.5956,30.3659,281.54,30.7893,281.3012,30.5641,280.7937,31.001,280.5605,30.9936,280.1432,31.2322,279.8278,31.2446,279.8576,31.6164,279.7554,31.9996,279.6803,32.2011,279.1668,32.7071,279.3885,33,279.0956" style="stroke:#181818;stroke-width:4.0;"/><text fill="#000000" font-family="Chalkduster" font-size="24" lengthAdjust="spacing" textLength="509" x="40.5" y="312.9365">Journals, books &amp; other publications</text></g><!--entity glam--><g id="elem_glam"><polygon fill="none" points="597,279.0956,597,279.3058,606.9048,278.6813,616.8095,279.2889,626.7143,279.4953,636.619,278.3822,646.5238,279.0179,656.4286,278.6691,666.3333,278.7121,676.2381,279.0274,686.1429,278.4042,696.0476,279.6492,705.9524,278.4653,715.8571,278.8978,725.7619,279.5275,735.6667,279.0098,745.5714,279.1638,755.4762,279.0636,765.381,279.2741,775.2857,279.3347,785.1905,279.6813,795.0952,279.7666,805,279.0956,805.0866,279.3048,805.386,279.3204,805.7662,279.5312,806.1502,279.7512,806.3222,279.4593,806.7678,279.8278,806.9767,279.9144,806.8229,280.1435,807.2251,280.603,807.0547,280.8253,807.3325,281.2333,807.5,281.5956,808.2416,281.5956,807.4513,290.7215,807.6053,299.8475,807.8386,308.9735,807.9162,318.0994,807.5,327.2254,807.4988,327.2249,807.442,327.6156,807.0308,327.8595,807.1482,328.3224,807.083,328.7096,806.7678,328.9932,806.8245,329.1301,806.4924,329.3284,805.999,329.1373,805.6239,329.2317,805.2743,329.3876,805,329.7254,805,329.6665,795.0952,329.5289,785.1905,330.4068,775.2857,329.5507,765.381,329.3824,755.4762,329.9537,745.5714,329.0586,735.6667,329.2063,725.7619,330.3744,715.8571,330.1611,705.9524,330.4599,696.0476,329.4036,686.1429,330.0446,676.2381,330.3158,666.3333,329.253,656.4286,329.6296,646.5238,329.8514,636.619,330.3772,626.7143,329.7212,616.8095,330.188,606.9048,329.1716,597,329.7254,596.9136,329.5168,596.7107,329.7341,596.2014,329.2117,596.0043,329.4428,595.6121,329.2033,595.2322,328.9932,595.1497,328.959,594.9768,328.5945,595.0806,328.3446,594.7007,327.8943,594.8287,327.6545,594.5,327.2254,593.9473,327.2254,595.1174,318.0994,594.9843,308.9735,594.745,299.8475,594.5472,290.7215,594.5,281.5956,594.7238,281.6883,594.8354,281.3203,594.845,280.9101,595.0219,280.5691,595.0457,280.1648,595.2322,279.8278,595.3236,280.0485,595.6055,279.7291,595.9614,279.5881,596.2153,279.2011,596.5948,279.1172,597,279.0956" style="stroke:#181818;stroke-width:4.0;"/><text fill="#000000" font-family="Chalkduster" font-size="24" lengthAdjust="spacing" textLength="193" x="604.5" y="312.9365">GLAM systems</text></g><!--entity cd--><g id="elem_cd"><polygon fill="none" points="845.5,279.0956,845.5,279.3058,855.54,278.6813,865.58,279.2889,875.62,279.4953,885.66,278.3822,895.7,279.0179,905.74,278.6691,915.78,278.7121,925.82,279.0274,935.86,278.4042,945.9,279.6492,955.94,278.4653,965.98,278.8978,976.02,279.5275,986.06,279.0098,996.1,279.1638,1006.14,279.0636,1016.18,279.2741,1026.22,279.3347,1036.26,279.6813,1046.3,279.7666,1056.34,279.7748,1066.38,279.3502,1076.42,279.5592,1086.46,279.7978,1096.5,279.0956,1096.408,278.8735,1096.9401,279.451,1097.1693,279.2972,1097.6288,279.6993,1097.8511,279.5289,1098.2678,279.8278,1098.2467,279.8191,1098.6426,280.276,1098.5457,280.5287,1098.7395,280.9019,1098.9578,281.2852,1099,281.5956,1099.4162,281.5956,1098.9961,290.7215,1099.2872,299.8475,1098.4276,308.9735,1099.2844,318.0994,1099,327.2254,1099.1688,327.2953,1098.9905,327.6357,1098.8959,328.0107,1098.4119,328.2245,1098.2134,328.5564,1098.2678,328.9932,1098.1885,328.8018,1097.9067,329.1215,1097.5356,329.2256,1097.294,329.6424,1096.8313,329.5252,1096.5,329.7254,1096.5,329.3824,1086.46,329.9537,1076.42,329.0586,1066.38,329.2063,1056.34,330.3744,1046.3,330.1611,1036.26,330.4599,1026.22,329.4036,1016.18,330.0446,1006.14,330.3158,996.1,329.253,986.06,329.6296,976.02,329.8514,965.98,330.3772,955.94,329.7212,945.9,330.188,935.86,329.1716,925.82,329.0482,915.78,330.229,905.74,329.0085,895.7,330.2344,885.66,329.932,875.62,329.4575,865.58,329.3716,855.54,330.1842,845.5,329.7254,845.4618,329.6332,845.2219,329.7612,844.7224,329.2623,844.5181,329.4762,844.1476,329.2888,843.7322,328.9932,843.8077,329.0244,843.6003,328.6457,843.6631,328.3788,843.4819,328.0108,843.1986,327.6006,843,327.2254,843.2682,327.2254,842.8697,318.0994,843.7165,308.9735,843.1549,299.8475,843.1726,290.7215,843,281.5956,842.8127,281.518,843.0217,281.1903,843.4563,280.9562,843.5717,280.5897,843.5726,280.1759,843.7322,279.8278,843.6911,279.7286,844.0579,279.6139,844.3518,279.3236,844.8458,279.5162,845.2408,279.4698,845.5,279.0956" style="stroke:#181818;stroke-width:4.0;"/><text fill="#000000" font-family="Chalkduster" font-size="24" lengthAdjust="spacing" textLength="236" x="853" y="312.9365">Curated datasets</text></g><!--entity irs--><g id="elem_irs"><polygon fill="none" points="134,389.7256,134,389.9358,144.0625,389.3113,154.125,389.9189,164.1875,390.1253,174.25,389.0122,184.3125,389.6479,194.375,389.2991,204.4375,389.3421,214.5,389.6574,224.5625,389.0342,234.625,390.2792,244.6875,389.0953,254.75,389.5278,264.8125,390.1575,274.875,389.6398,284.9375,389.7938,295,389.6936,305.0625,389.9041,315.125,389.9647,325.1875,390.3113,335.25,390.3966,345.3125,390.4048,355.375,389.9802,365.4375,390.1892,375.5,390.4278,385.5625,389.0044,395.625,390.4041,405.6875,389.4291,415.75,390.2594,425.8125,389.2306,435.875,389.6571,445.9375,390.4672,456,389.7256,455.9938,389.7106,456.367,389.9045,456.7503,390.1228,457.1138,390.2931,457.4137,390.3102,457.7678,390.4578,457.8562,390.4945,457.7379,390.7384,458.1482,391.2012,458.3759,391.5884,458.4905,391.9287,458.5,392.2256,459.113,392.2256,458.0169,401.758,457.8478,411.2905,457.8786,420.823,458.4411,430.3554,458.3035,439.8879,459.1814,449.4203,458.3253,458.9528,458.5,468.4852,458.3944,468.4415,458.4239,468.8679,458.0017,469.1073,457.9008,469.4797,458.1141,469.9822,457.7678,470.253,457.8233,470.3872,457.5079,470.6257,457.0196,470.4468,456.7478,470.7907,456.4289,471.0206,456,470.9852,456,470.5128,445.9375,470.8894,435.875,471.1112,425.8125,471.637,415.75,470.9811,405.6875,471.4478,395.625,470.4315,385.5625,470.308,375.5,471.4889,365.4375,470.2683,355.375,471.4942,345.3125,471.1919,335.25,470.7173,325.1875,470.6315,315.125,471.444,305.0625,470.6859,295,471.5771,284.9375,470.4325,274.875,471.6027,264.8125,471.4696,254.75,471.2302,244.6875,471.0325,234.625,471.7119,224.5625,471.5988,214.5,471.1545,204.4375,471.2534,194.375,470.855,184.3125,471.7017,174.25,471.1401,164.1875,471.1578,154.125,470.3769,144.0625,470.58,134,470.9852,134.0677,471.1487,133.7013,470.9712,133.2874,470.6791,132.8982,470.4467,132.5579,470.332,132.2322,470.253,132.0209,470.1655,132.2135,469.9524,132.1671,469.6402,131.955,469.2595,131.8605,468.9274,131.5,468.4852,131.3633,468.4852,131.5872,458.9528,131.1124,449.4203,131.784,439.8879,131.7468,430.3554,132.0524,420.823,131.2703,411.2905,131.3656,401.758,131.5,392.2256,131.6366,392.2822,131.8212,391.9444,131.6351,391.4531,131.8796,391.1402,132.1318,390.8304,132.2322,390.4578,132.1543,390.2697,132.6309,390.4202,132.9722,390.2444,133.28,389.9874,133.6646,389.9158,134,389.7256" style="stroke:#181818;stroke-width:4.0;"/><text fill="#000000" font-family="Chalkduster" font-size="24" lengthAdjust="spacing" textLength="307" x="141.5" y="423.5665">Institutional Research</text><text fill="#000000" font-family="Chalkduster" font-size="24" lengthAdjust="spacing" textLength="164" x="141.5" y="454.1963">Repositories</text></g><!--entity Domain Repositories--><g id="elem_Domain Repositories"><polygon fill="none" points="496.5,405.0456,496.5,405.2558,506.6034,404.6313,516.7069,405.2389,526.8103,405.4453,536.9138,404.3322,547.0172,404.9679,557.1207,404.6191,567.2241,404.6621,577.3276,404.9774,587.431,404.3542,597.5345,405.5992,607.6379,404.4153,617.7414,404.8478,627.8448,405.4775,637.9483,404.9598,648.0517,405.1138,658.1552,405.0136,668.2586,405.2241,678.3621,405.2847,688.4655,405.6313,698.569,405.7166,708.6724,405.7248,718.7759,405.3002,728.8793,405.5092,738.9828,405.7478,749.0862,404.3244,759.1897,405.7241,769.2931,404.7491,779.3966,405.5794,789.5,405.0456,789.4369,404.8931,789.8448,405.1709,790.3017,405.5669,790.5544,405.4699,790.9276,405.6638,791.2678,405.7778,791.3721,405.821,791.5424,406.1845,791.5595,406.4844,791.7956,406.8751,791.6773,407.119,792,407.5456,792.2844,407.5456,792.5482,416.6715,792.4445,425.7975,792.613,434.9235,791.5169,444.0494,792,453.1754,791.7992,453.0922,791.6622,453.4497,791.689,453.875,791.5001,454.211,791.6241,454.6766,791.2678,454.9432,791.2455,454.8894,790.8705,454.984,790.5898,455.3064,790.122,455.1772,789.7873,455.3691,789.5,455.6754,789.5,456.3244,779.3966,456.1111,769.2931,456.4099,759.1897,455.3536,749.0862,455.9946,738.9828,456.2658,728.8793,455.203,718.7759,455.5796,708.6724,455.8014,698.569,456.3272,688.4655,455.6712,678.3621,456.138,668.2586,455.1216,658.1552,454.9982,648.0517,456.179,637.9483,454.9585,627.8448,456.1844,617.7414,455.882,607.6379,455.4075,597.5345,455.3216,587.431,456.1342,577.3276,455.3761,567.2241,456.2673,557.1207,455.1227,547.0172,456.2928,536.9138,456.1597,526.8103,455.9204,516.7069,455.7226,506.6034,456.402,496.5,455.6754,496.5783,455.8644,496.168,455.5811,495.8271,455.4651,495.4227,455.196,495.1772,455.3103,494.7322,454.9432,494.7799,454.9629,494.6389,454.6116,494.252,454.1585,494.1681,453.8308,494.3099,453.5967,494,453.1754,494.4298,453.1754,493.9571,444.0494,493.6778,434.9235,493.7811,425.7975,493.3138,416.6715,494,407.5456,494.1277,407.5985,494.3742,407.2864,494.455,406.9056,494.6534,406.5736,494.5437,406.1139,494.7322,405.7778,494.7434,405.8047,495.0363,405.512,495.4756,405.5724,495.8244,405.4145,496.2169,405.3621,496.5,405.0456" style="stroke:#181818;stroke-width:4.0;"/><text fill="#000000" font-family="Chalkduster" font-size="24" lengthAdjust="spacing" textLength="278" x="504" y="438.8865">Domain Repositories</text></g><!--entity pol--><g id="elem_pol"><polygon fill="none" points="954.5,718.9856,954.5,719.1958,964.4,718.5713,974.3,719.1789,984.2,719.3853,994.1,718.2722,1004,718.9079,1013.9,718.5591,1023.8,718.6021,1033.7,718.9174,1043.6,718.2942,1053.5,718.9856,1053.5706,719.1561,1053.7732,718.9379,1054.1819,719.2176,1054.6158,719.5579,1054.9033,719.545,1055.2678,719.7178,1055.2888,719.7265,1055.4044,720.0673,1055.6156,720.4477,1055.7808,720.809,1056.0339,721.2067,1056,721.4856,1056.6711,721.4856,1056.6793,730.6115,1056.2546,739.7375,1056.4636,748.8635,1056.7022,757.9894,1056,767.1154,1055.7779,767.0234,1056.0625,767.5555,1055.6158,767.7847,1055.7251,768.2442,1055.2618,768.4665,1055.2678,768.8832,1055.259,768.8621,1055.0088,769.258,1054.5544,769.1611,1054.2205,769.355,1053.8967,769.5733,1053.5,769.6154,1053.5,770.0316,1043.6,769.6115,1033.7,769.9026,1023.8,769.043,1013.9,769.8998,1004,770.1636,994.1,770.0599,984.2,770.2284,974.3,769.1323,964.4,768.9632,954.5,769.6154,954.4207,769.424,954.1389,769.4508,953.7678,769.262,953.5263,769.3859,953.0635,768.9758,952.7322,768.8832,952.6266,768.8394,952.6561,768.5587,952.234,768.091,952.133,767.7563,952.3463,767.5518,952,767.1154,952.4357,767.1154,952.7345,757.9894,951.6782,748.8635,952.3192,739.7375,952.5904,730.6115,952,721.4856,951.8545,721.4253,952.1169,721.1198,952.3317,720.7945,952.6401,720.5081,952.5845,720.0708,952.7322,719.7178,952.7912,719.8603,953.0151,719.4008,953.3529,719.2164,953.8571,719.4336,954.055,718.9112,954.5,718.9856" style="stroke:#181818;stroke-width:4.0;"/><text fill="#000000" font-family="Chalkduster" font-size="24" lengthAdjust="spacing" textLength="84" x="962" y="752.8265">Policy</text></g><!--entity ed--><g id="elem_ed"><polygon fill="none" points="1093.5,718.9856,1093.5,719.1958,1103.1875,718.5713,1112.875,719.1789,1122.5625,719.3853,1132.25,718.2722,1141.9375,718.9079,1151.625,718.5591,1161.3125,718.6021,1171,718.9174,1180.6875,718.2942,1190.375,719.5392,1200.0625,718.3553,1209.75,718.7878,1219.4375,719.4175,1229.125,718.8998,1238.8125,719.0538,1248.5,718.9856,1248.4959,718.9757,1248.8763,719.187,1249.2376,719.3521,1249.6354,719.6053,1249.9998,719.778,1250.2678,719.7178,1250.477,719.8045,1250.4926,720.1038,1250.7034,720.4841,1250.9234,720.8681,1250.6315,721.04,1251,721.4856,1251.6785,721.4856,1250.7035,730.6115,1251.5338,739.7375,1250.505,748.8635,1250.9315,757.9894,1251,767.1154,1251.2284,767.21,1250.8385,767.4628,1250.7395,767.836,1250.6649,768.2193,1250.5424,768.5827,1250.2678,768.8832,1250.2673,768.882,1249.9509,769.1181,1249.4876,768.9998,1249.2434,769.4101,1248.9235,769.6378,1248.5,769.6154,1248.5,770.0599,1238.8125,770.2284,1229.125,769.1323,1219.4375,768.9632,1209.75,768.994,1200.0625,769.5565,1190.375,769.4189,1180.6875,770.2968,1171,769.4407,1161.3125,769.2724,1151.625,769.8437,1141.9375,768.9486,1132.25,769.0963,1122.5625,770.2644,1112.875,770.0511,1103.1875,770.3499,1093.5,769.6154,1093.459,769.5163,1093.1872,769.5673,1092.8682,769.5043,1092.3791,769.0306,1092.0736,769.0001,1091.7322,768.8832,1091.771,768.8993,1091.7865,768.6128,1091.438,768.1755,1091.4353,767.8815,1090.9759,767.3983,1091,767.1154,1090.3227,767.1154,1091.5036,757.9894,1090.2831,748.8635,1091.509,739.7375,1091.2066,730.6115,1091,721.4856,1090.9175,721.4514,1091.0375,721.0869,1091.4342,720.837,1091.3472,720.3867,1091.7681,720.1469,1091.7322,719.7178,1091.6617,719.5476,1092.1645,719.7615,1092.5011,719.5741,1092.8241,719.3539,1093.1525,719.1466,1093.5,718.9856" style="stroke:#181818;stroke-width:4.0;"/><text fill="#000000" font-family="Chalkduster" font-size="24" lengthAdjust="spacing" textLength="140" x="1101" y="752.8265">Education</text></g><!--entity dec--><g id="elem_dec"><polygon fill="none" points="1288,718.9856,1288,719.1958,1297.9167,718.5713,1307.8333,719.1789,1317.75,719.3853,1327.6667,718.2722,1337.5833,718.9079,1347.5,718.5591,1357.4167,718.6021,1367.3333,718.9174,1377.25,718.2942,1387.1667,719.5392,1397.0833,718.3553,1407,718.7878,1416.9167,719.4175,1426.8333,718.8998,1436.75,719.0538,1446.6667,718.9536,1456.5833,719.1641,1466.5,719.2247,1476.4167,719.5713,1486.3333,719.6566,1496.25,719.6648,1506.1667,719.2402,1516.0833,719.4492,1526,718.9856,1526.0896,719.2018,1526.2616,718.9099,1526.7937,719.4874,1527.0228,719.3336,1527.4823,719.7358,1527.7678,719.7178,1527.6153,719.6547,1527.8931,720.0626,1528.289,720.5195,1528.1921,720.7723,1528.386,721.1455,1528.5,721.4856,1528.8386,721.4856,1528.9162,730.6115,1528.4961,739.7375,1528.7872,748.8635,1527.9276,757.9894,1528.5,767.1154,1528.5876,767.1517,1528.5224,767.5389,1528.344,767.8792,1528.2494,768.2543,1527.7654,768.468,1527.7678,768.8832,1527.6846,768.6823,1527.3349,768.8383,1527.0531,769.1579,1526.682,769.262,1526.4405,769.6788,1526,769.6154,1526,769.4407,1516.0833,769.2724,1506.1667,769.8437,1496.25,768.9486,1486.3333,769.0963,1476.4167,770.2644,1466.5,770.0511,1456.5833,770.3499,1446.6667,769.2936,1436.75,769.9346,1426.8333,770.2058,1416.9167,769.143,1407,769.5196,1397.0833,769.7414,1387.1667,770.2672,1377.25,769.6112,1367.3333,770.078,1357.4167,769.0616,1347.5,768.9382,1337.5833,770.119,1327.6667,768.8985,1317.75,770.1244,1307.8333,769.822,1297.9167,769.3475,1288,769.6154,1287.9549,769.5065,1287.705,769.6102,1287.2547,769.2303,1287.0148,769.3583,1286.5153,768.8594,1286.2322,768.8832,1286.4224,768.9619,1286.2349,768.5914,1286.0148,768.2073,1285.8074,767.8285,1285.8702,767.5617,1285.5,767.1154,1286.1136,767.1154,1285.6693,757.9894,1285.7682,748.8635,1285.3697,739.7375,1286.2165,730.6115,1285.5,721.4856,1285.5477,721.5053,1285.6996,721.154,1285.6055,720.7009,1285.8145,720.3732,1286.2492,720.1391,1286.2322,719.7178,1286.2871,719.8502,1286.5803,719.5581,1286.8982,719.3257,1287.265,719.2111,1287.5589,718.9207,1288,718.9856" style="stroke:#181818;stroke-width:4.0;"/><text fill="#000000" font-family="Chalkduster" font-size="24" lengthAdjust="spacing" textLength="223" x="1295.5" y="752.8265">Decision Support</text></g><!--entity rep--><g id="elem_rep"><polygon fill="none" points="1566,718.9856,1566,719.1958,1575.8667,718.5713,1585.7333,719.1789,1595.6,719.3853,1605.4667,718.2722,1615.3333,718.9079,1625.2,718.5591,1635.0667,718.6021,1644.9333,718.9174,1654.8,718.2942,1664.6667,719.5392,1674.5333,718.3553,1684.4,718.7878,1694.2667,719.4175,1704.1333,718.8998,1714,718.9856,1714.0087,719.0066,1714.3495,719.1222,1714.7299,719.3335,1715.0912,719.4986,1715.4889,719.7517,1715.7678,719.7178,1715.9744,719.8034,1716.1234,720.158,1716.1391,720.4574,1716.3499,720.8376,1716.5698,721.2216,1716.5,721.4856,1715.7788,721.4856,1717.1785,730.6115,1716.2035,739.7375,1717.0338,748.8635,1716.005,757.9894,1716.5,767.1154,1716.4789,767.1067,1716.5819,767.5636,1716.1921,767.8163,1716.0931,768.1895,1716.0185,768.5728,1715.7678,768.8832,1715.8209,769.0114,1715.4137,769.0284,1715.0973,769.2645,1714.6341,769.1462,1714.3898,769.5565,1714,769.6154,1714,770.1636,1704.1333,770.0599,1694.2667,770.2284,1684.4,769.1323,1674.5333,768.9632,1664.6667,768.994,1654.8,769.5565,1644.9333,769.4189,1635.0667,770.2968,1625.2,769.4407,1615.3333,769.2724,1605.4667,769.8437,1595.6,768.9486,1585.7333,769.0963,1575.8667,770.2644,1566,769.6154,1566.0556,769.7496,1565.7401,769.6952,1565.2518,769.2234,1564.9801,769.2744,1564.6611,769.2115,1564.2322,768.8832,1564.0868,768.8229,1564.0563,768.5174,1563.9781,768.1921,1563.9936,767.9057,1563.6452,767.4684,1563.5,767.1154,1563.9626,767.1154,1562.9462,757.9894,1562.8227,748.8635,1564.0036,739.7375,1562.7831,730.6115,1563.5,721.4856,1563.6567,721.5505,1563.7101,721.1584,1563.7104,720.7443,1563.8304,720.3798,1564.2271,720.1299,1564.2322,719.7178,1564.194,719.6256,1564.6613,719.7536,1564.8688,719.2547,1565.3717,719.4686,1565.7082,719.2812,1566,718.9856" style="stroke:#181818;stroke-width:4.0;"/><text fill="#000000" font-family="Chalkduster" font-size="24" lengthAdjust="spacing" textLength="133" x="1573.5" y="752.8265">Reporting</text></g><!--link repo to pol--><g id="link_repo_pol"><path d="M1140.7422,495.5063 L1140.8356,495.5076 L1140.5644,495.9838 L1140.8408,496.4673 L1140.939,496.9484 L1140.4507,497.4218 L1140.7741,497.9059 L1140.7396,497.9055 L1140.5962,498.8615 L1140.6269,499.8196 L1140.7787,500.7791 L1140.5134,501.7336 L1140.8322,502.6952 L1141.0783,502.6976 L1140.5704,504.5982 L1140.781,506.5056 L1141.0791,508.4139 L1140.8674,510.3174 L1140.9238,512.2233 L1140.9541,512.2235 L1140.9248,515.9757 L1141.0336,519.7286 L1141.0758,523.4811 L1141.2451,527.2342 L1141,530.9856 L1141.8947,530.9856 L1141.9057,541.3189 L1141.3395,551.6522 L1141.6181,561.9856 L1141.9363,572.3189 L1140.0384,582.6522 L1141,592.9856 L1141.2994,593.022 L1140.5301,595.7587 L1140.5573,598.5923 L1139.7642,601.3261 L1139.6133,604.138 L1139.3044,606.9307 L1139.6048,607.0665 L1138.3414,609.009 L1137.4606,611.1244 L1136.6119,613.2543 L1135.7001,615.3557 L1134.5883,617.3667 L1134.587,617.3655 L1133.2467,619.0367 L1131.5276,620.3644 L1130.3736,622.2044 L1129.0243,623.8674 L1127.4077,625.288 L1127.5215,625.4496 L1125.7468,626.791 L1123.6485,627.673 L1121.7874,628.8918 L1119.9775,630.1833 L1118.3188,631.6893 L1118.3059,631.6665 L1116.1877,632.7884 L1114.2908,634.3036 L1112.0159,635.1472 L1109.8909,636.2571 L1107.8774,637.5652 L1107.9273,637.6535 L1105.4842,638.5761 L1103.269,639.9022 L1101.2767,641.6233 L1098.9826,642.8097 L1096.6398,643.9101 L1096.8235,644.18 L1094.2638,645.3536 L1092.1285,647.1509 L1089.9007,648.8122 L1087.3395,649.9834 L1085.162,651.7187 L1085.1332,651.6874 L1082.9675,653.8133 L1080.8933,656.0387 L1078.4635,657.8775 L1076.3716,660.0835 L1074,661.9856 L1073.8173,661.8207 L1071.2936,664.5344 L1069.2001,667.6366 L1066.3144,670.0236 L1064.2359,673.1392 L1061.5849,675.7381 L1061.6538,675.7989 L1059.1609,678.3087 L1056.7976,680.9328 L1054.7339,683.8208 L1052.1464,686.2473 L1049.9116,688.9845 L1050.1113,689.1557 L1045.4068,693.866 L1041.4836,699.2456 L1037.1205,704.2484 L1032.7215,709.2205 L1028.3206,714.191 " fill="none" style="stroke:#181818;stroke-width:4.0;"/><polygon fill="#181818" points="1024.45,718.7756,1024.4806,718.8386,1026.1622,717.792,1028.023,717.115,1029.8255,716.3176,1031.4361,715.1244,1033.3123,714.4791,1033.3101,714.4533,1032.173,714.4327,1031.0468,714.5421,1029.9283,714.7421,1028.7835,714.6303,1027.6755,714.9551,1027.8594,714.9706,1027.371,713.8101,1027.4194,712.6948,1027.5334,711.5851,1027.2662,710.4433,1027.1995,709.3183,1027.2214,709.3247,1026.6394,711.2068,1026.1569,713.1178,1025.6264,715.0149,1025.1874,716.9386,1024.45,718.7756" style="stroke:#181818;stroke-width:4.0;"/></g><!--link repo to ed--><g id="link_repo_ed"><path d="M1142.1291,318.7122 L1142.21,318.7588 L1142.9904,320.3948 L1144.2454,322.3039 L1145.3458,324.124 L1145.938,325.6517 L1147.2337,327.5842 L1147.2035,327.5675 L1148.2575,329.6518 L1149.464,331.8202 L1150.7766,334.0469 L1151.7238,336.0724 L1153.1827,338.3798 L1153.4006,338.4941 L1154.2496,340.7564 L1155.7349,343.3524 L1157.2978,345.9892 L1158.409,348.389 L1159.7578,350.9134 L1159.785,350.9269 L1161.1418,353.7243 L1162.6223,356.583 L1164.0431,359.4122 L1165.5778,362.2978 L1166.7413,364.9993 L1167.0118,365.1249 L1168.4498,368.2169 L1169.7134,371.228 L1171.2324,374.3576 L1172.7633,377.4928 L1173.915,380.4518 L1173.6205,380.3253 L1175.6213,383.8976 L1176.6524,387.0532 L1178.4206,390.5255 L1179.4297,393.6717 L1181.0611,397.0852 L1181.0327,397.0741 L1182.7481,400.7311 L1183.8011,404.1288 L1185.245,407.6795 L1186.7216,411.243 L1187.9616,414.7138 L1188.1362,414.7748 L1189.2473,418.4009 L1190.6568,422.1312 L1191.5835,425.6929 L1193.2304,429.506 L1194.3984,433.152 L1194.6317,433.2224 L1195.7386,437.0214 L1196.9614,440.8555 L1197.6461,444.527 L1198.7252,448.3177 L1200.1538,452.2139 L1199.8867,452.1436 L1200.6392,454.1486 L1201.0909,456.0744 L1201.979,458.115 L1202.1218,459.9596 L1202.7077,461.9207 L1202.5593,461.8858 L1203.2668,463.9026 L1203.3399,465.7702 L1203.8642,467.7438 L1204.8299,469.8212 L1205.0095,471.7139 L1205.1992,471.7528 L1205.7338,473.7508 L1205.6784,475.6276 L1206.362,477.6562 L1206.8845,479.6516 L1207.032,481.5701 L1206.8251,481.5343 L1207.3332,483.5421 L1207.7735,485.5382 L1208.3469,487.5573 L1208.4028,489.4868 L1208.7478,491.4663 L1208.9519,491.491 L1208.984,495.4005 L1209.4101,499.3577 L1210.4117,503.3847 L1210.3537,507.2833 L1211.1506,511.2854 L1211.3766,511.2952 L1211.4122,515.2294 L1211.3714,519.1604 L1211.5032,523.0988 L1212.0338,527.0543 L1212,530.9856 L1211.6009,530.9856 L1212.7891,541.3189 L1211.263,551.6522 L1212.8232,561.9856 L1212.6457,572.3189 L1212.3266,582.6522 L1212,592.9856 L1212.021,592.9864 L1212.185,596.4071 L1211.9972,599.8136 L1211.6622,603.2141 L1211.5685,606.6244 L1211.3118,610.0281 L1211.2542,610.0216 L1211.2446,613.4287 L1210.613,616.7649 L1210.2372,620.1302 L1209.5088,623.4554 L1209.3939,626.8504 L1209.2166,626.8188 L1209.0406,630.1762 L1208.4109,633.4526 L1207.6186,636.7001 L1206.911,639.9626 L1206.4665,643.272 L1206.3717,643.2498 L1205.4262,646.3704 L1205.1593,649.6503 L1204.5565,652.8513 L1203.7209,655.9978 L1202.7498,659.1124 L1203.0469,659.1968 L1201.8342,662.1115 L1201.0728,665.1545 L1200.0127,668.1125 L1199.4427,671.2098 L1198.4641,674.191 L1198.5683,674.2252 L1197.7705,677.0948 L1196.5133,679.8138 L1195.6266,682.6543 L1194.9438,685.5616 L1193.8296,688.3275 L1194.0663,688.4141 L1192.663,690.8519 L1191.8434,693.5033 L1191.0339,696.1585 L1189.764,698.6451 L1189.0663,701.3412 L1189.2122,701.3994 L1188.2385,703.7258 L1187.1561,706.0088 L1186.3221,708.3909 L1185.6298,710.8296 L1184.3947,713.0517 " fill="none" style="stroke:#181818;stroke-width:4.0;"/><polygon fill="#181818" points="1182.1,718.5956,1182.1483,718.6464,1183.4324,717.1383,1184.9996,715.9279,1186.4745,714.6205,1187.6465,712.9944,1189.2379,711.8096,1189.228,711.7856,1188.1383,712.1115,1187.0987,712.5579,1186.0938,713.0882,1184.9691,713.3296,1184.0122,713.9757,1184.1827,714.0464,1183.3849,712.8501,1183.0849,711.8602,1182.8455,710.8954,1182.2529,709.7842,1181.8461,708.75,1181.8688,708.7506,1181.8862,710.7188,1182.0071,712.6898,1182.0781,714.6594,1182.2444,716.6315,1182.1,718.5956" style="stroke:#181818;stroke-width:4.0;"/></g><!--link repo to dec--><g id="link_repo_dec"><path d="M1142.0116,308.4618 L1142.0459,308.5486 L1142.0513,308.3329 L1142.2579,308.6265 L1142.399,308.7543 L1142.3246,308.3366 L1142.5485,308.6739 L1142.5357,308.6418 L1142.7027,308.5869 L1142.9339,308.6937 L1143.2099,308.9131 L1143.3318,308.7448 L1143.6694,309.1194 L1143.7612,309.3477 L1144.0501,309.0547 L1144.607,309.4282 L1145.1966,309.883 L1145.596,309.8646 L1146.0954,310.0951 L1146.1071,310.1231 L1148.4844,311.0865 L1150.9151,312.1773 L1153.32,313.2066 L1155.774,314.3531 L1158.0678,315.1175 L1158.1901,315.3896 L1161.2152,316.7514 L1164.1615,317.9377 L1167.2232,319.3809 L1170.2903,320.8362 L1173.1861,321.91 L1173.0464,321.6215 L1176.8413,323.8881 L1180.1761,325.2048 L1183.8606,327.2436 L1187.185,328.5388 L1190.8046,330.4436 L1190.7907,330.4165 L1192.8644,331.7188 L1194.6127,332.3886 L1196.5531,333.4316 L1198.5096,334.506 L1200.3497,335.3543 L1200.4373,335.5172 L1202.3345,336.4198 L1204.3814,337.6008 L1206.1862,338.3313 L1208.352,339.7338 L1210.2778,340.6895 L1210.3973,340.9018 L1212.4208,342.0129 L1214.5036,343.2294 L1216.3108,343.956 L1218.32,345.0417 L1220.5082,346.4456 L1220.3678,346.2078 L1222.5853,347.6577 L1224.6446,348.8397 L1226.9334,350.4104 L1228.8303,351.3174 L1230.9602,352.6189 L1230.8797,352.4895 L1233.1324,354.0225 L1235.0409,355.0021 L1237.1941,356.3752 L1239.5869,358.1335 L1241.5531,359.206 L1241.6594,359.3678 L1243.863,360.8782 L1245.7359,361.8853 L1248.0229,363.5228 L1250.2197,365.023 L1252.2063,366.2031 L1252.0863,366.0308 L1254.3084,367.6488 L1256.4913,369.2105 L1258.7514,370.8829 L1260.7113,372.1244 L1262.8389,373.6067 L1262.9613,373.7718 L1264.7986,374.9702 L1266.8722,376.4874 L1269.2911,378.4703 L1271.0743,379.5958 L1273.3704,381.4131 L1273.5109,381.5903 L1275.4973,383.1262 L1277.4362,384.6021 L1279.4824,386.2133 L1281.7767,388.1374 L1283.72,389.6188 L1283.6336,389.5175 L1285.9081,391.5392 L1287.5954,392.8724 L1289.9502,394.9884 L1291.9293,396.6636 L1293.807,398.2201 L1293.8809,398.3001 L1295.77,400.0342 L1297.9236,402.0548 L1299.8382,403.8165 L1301.6531,405.4701 L1303.5508,407.2135 L1303.6354,407.2975 L1305.3737,409.0491 L1307.5047,411.1907 L1309.1916,412.8911 L1311.0611,414.773 L1312.8707,416.5953 L1312.67,416.4142 L1314.5,418.428 L1316.5719,420.6601 L1318.3016,422.5833 L1319.9087,424.3959 L1321.6859,426.362 L1321.5747,426.2718 L1323.2563,428.3303 L1324.741,430.2291 L1326.767,432.5669 L1328.5251,434.6874 L1329.9158,436.51 L1330.1058,436.6465 L1331.6794,438.7953 L1332.892,440.6847 L1334.4856,442.8479 L1335.827,444.8299 L1337.4797,447.0355 L1337.5867,447.1025 L1338.9361,449.2736 L1340.4147,451.5255 L1341.4834,453.5212 L1342.8827,455.7235 L1344.2968,457.9351 L1344.4709,458.0276 L1345.7174,460.3075 L1346.4916,462.3362 L1347.8146,464.6567 L1349.1472,466.9823 L1350.2866,469.2051 L1350.0378,469.0965 L1351.4468,471.5954 L1352.4243,473.9058 L1353.2945,476.1693 L1354.4098,478.5399 L1355.3682,480.842 L1355.6747,480.9465 L1356.0552,483.1971 L1357.1379,485.6872 L1357.9441,488.083 L1358.6912,490.4587 L1359.4611,492.8421 L1359.5219,492.8569 L1360.1148,495.326 L1360.401,497.72 L1361.1021,500.2155 L1361.6805,502.6811 L1362.4845,505.2018 L1362.5125,505.2059 L1362.8979,507.7506 L1363.3049,510.2985 L1363.4804,512.8123 L1363.9533,515.3699 L1364.3577,517.9175 L1364.3043,517.9148 L1364.7422,520.5437 L1364.804,523.154 L1364.5275,525.7477 L1364.8392,528.3704 L1365,530.9856 L1364.2304,530.9856 L1365.3845,541.3189 L1365.8113,551.6522 L1365.7261,561.9856 L1364.4193,572.3189 L1365.6186,582.6522 L1365,592.9856 L1364.6701,592.9719 L1365.23,596.403 L1365.1493,599.8075 L1365.4663,603.2285 L1365.6712,606.6448 L1365.7057,610.0541 L1365.9141,610.0784 L1365.7811,613.3851 L1366.7021,616.8149 L1366.9641,620.1677 L1367.4355,623.545 L1367.6719,626.8948 L1367.9989,626.9545 L1368.2745,630.182 L1368.9489,633.4822 L1369.5658,636.772 L1370.1589,640.0574 L1370.6729,643.3283 L1370.6725,643.3282 L1371.7419,646.5715 L1371.9332,649.6036 L1373.2029,652.895 L1373.4509,655.9408 L1374.4825,659.1749 L1374.2519,659.1078 L1375.378,662.196 L1376.2514,665.2105 L1376.9075,668.1618 L1378.1728,671.2905 L1378.8747,674.2552 L1378.9206,674.2706 L1380.1306,677.1849 L1381.0553,680.0033 L1381.5352,682.6723 L1382.5062,685.5062 L1383.6236,688.3894 L1383.5699,688.3692 L1384.7475,691.0466 L1385.7431,693.6558 L1386.6767,696.2417 L1387.385,698.743 L1388.5032,701.3981 L1388.765,701.5052 L1389.7208,703.8455 L1390.3974,706.0716 L1391.2754,708.3801 L1392.1654,710.6936 L1393.2874,713.1018 " fill="none" style="stroke:#181818;stroke-width:4.0;"/><polygon fill="#181818" points="1395.63,718.6256,1395.7001,718.6268,1395.5256,716.6537,1395.7619,714.6877,1395.8644,712.7194,1395.5272,710.7436,1395.7987,708.7782,1395.7747,708.7685,1395.2427,709.7737,1394.8318,710.8279,1394.5051,711.9162,1393.8884,712.8872,1393.6779,714.0224,1393.747,714.1935,1392.5502,713.4035,1391.5554,713.113,1390.5853,712.8834,1389.4717,712.2993,1388.4336,711.9016,1388.4491,711.9182,1389.8656,713.2386,1391.3528,714.6347,1392.8059,715.9942,1394.324,717.4234,1395.63,718.6256" style="stroke:#181818;stroke-width:4.0;"/></g><!--link repo to rep--><g id="link_repo_rep"><path d="M1142.7491,305.4545 L1142.7504,305.5479 L1142.9119,305.2727 L1143.0809,305.545 L1143.2475,305.6389 L1143.4061,305.1466 L1143.5757,305.4659 L1143.5751,305.4313 L1144.3027,305.2885 L1145.0331,305.3197 L1145.7656,305.472 L1146.4911,305.2072 L1147.2263,305.5265 L1147.2322,305.7725 L1148.9969,305.289 L1150.7788,305.5237 L1152.5628,305.846 L1154.3345,305.6585 L1156.1127,305.7391 L1156.1139,305.7694 L1160.8184,305.9127 L1165.5284,306.194 L1170.2357,306.4087 L1174.9481,306.7504 L1179.644,306.678 L1179.6609,306.9758 L1182.5235,307.1417 L1185.3753,307.1156 L1188.243,307.3706 L1191.1114,307.6388 L1193.9562,307.4895 L1193.934,307.1698 L1197.1347,308.0096 L1200.2623,307.7965 L1203.4455,308.3839 L1206.5715,308.147 L1209.7444,308.5857 L1209.7418,308.5554 L1213.1913,309.1989 L1216.5817,309.1336 L1220.0069,309.4865 L1223.4351,309.8746 L1226.8422,310.0093 L1226.8603,310.1934 L1230.4902,310.3662 L1234.1511,310.8537 L1237.7619,310.8322 L1241.4474,311.5698 L1245.0833,311.8027 L1245.1111,312.0448 L1248.9494,312.4402 L1252.8016,312.9557 L1256.5896,312.9129 L1260.4247,313.2794 L1264.3013,314.0086 L1264.265,313.7348 L1268.3036,314.5148 L1272.3013,314.9864 L1276.3585,315.9053 L1280.3141,316.0603 L1284.3301,316.6695 L1284.3071,316.5188 L1288.48,317.4014 L1292.5545,317.6399 L1296.6991,318.3365 L1300.9121,319.4813 L1305.0031,319.8279 L1305.0365,320.0187 L1309.2896,320.8892 L1313.4389,321.1665 L1317.7182,322.1868 L1321.9692,323.0453 L1326.1542,323.5265 L1326.1131,323.3206 L1330.4384,324.341 L1334.7502,325.2939 L1339.0885,326.3794 L1343.324,326.9497 L1347.6169,327.8078 L1347.661,328.0086 L1349.7233,328.0419 L1351.8708,328.4628 L1354.1427,329.4499 L1356.1855,329.3945 L1358.4132,330.1802 L1358.4648,330.4005 L1360.5965,330.7765 L1362.7107,331.0779 L1364.8644,331.5476 L1367.1092,332.406 L1369.225,332.7143 L1369.1927,332.5853 L1371.4501,333.5097 L1373.4881,333.5564 L1375.7755,334.6012 L1377.9224,335.084 L1380.0316,335.4154 L1380.0596,335.5206 L1382.1931,336.0103 L1384.427,336.8767 L1386.5701,337.4029 L1388.6754,337.7867 L1390.8121,338.2887 L1390.8447,338.4034 L1392.943,338.8432 L1395.1926,339.8154 L1397.2711,340.1855 L1399.42,340.8032 L1401.5458,341.3396 L1401.4674,341.0809 L1403.6268,341.814 L1405.8807,342.8589 L1408.0009,343.4627 L1410.0731,343.9084 L1412.2119,344.5734 L1412.1678,344.4372 L1414.2975,345.1653 L1416.3491,345.6521 L1418.6153,346.8021 L1420.7752,347.6238 L1422.7896,347.9955 L1422.866,348.2167 L1424.9841,349.0106 L1426.9571,349.3843 L1429.0833,350.2015 L1431.1081,350.7252 L1433.2581,351.6111 L1433.3018,351.7296 L1435.3637,352.4769 L1437.4785,353.3673 L1439.4258,353.8041 L1441.5082,354.6067 L1443.5966,355.4256 L1443.6689,355.609 L1445.7266,356.4639 L1447.5881,356.8212 L1449.6776,357.7567 L1451.7711,358.7023 L1453.7843,359.4444 L1453.6787,359.1942 L1455.8486,360.4347 L1457.8354,361.2413 L1459.7766,361.94 L1461.8218,362.8852 L1463.8004,363.6726 L1463.9339,363.9677 L1465.7079,364.4345 L1467.7877,365.5774 L1469.747,366.4541 L1471.6807,367.2739 L1473.6242,368.1156 L1473.6516,368.172 L1475.5684,369.0937 L1477.3474,369.7313 L1479.3129,370.7533 L1481.2232,371.6617 L1483.2349,372.7789 L1483.248,372.804 L1485.1283,373.7913 L1487.0188,374.7981 L1488.8011,375.5974 L1490.7224,376.6632 L1492.6116,377.6676 L1492.5854,377.621 L1494.5614,378.915 L1496.3531,379.8807 L1497.9791,380.5511 L1499.8933,381.7349 L1501.7335,382.7871 L1501.6007,382.5676 L1503.5692,383.9678 L1505.4122,385.1606 L1507.1667,386.2075 L1508.7104,386.9059 L1510.58,388.1427 L1510.6929,388.3152 L1512.1092,388.9859 L1514.0487,390.4559 L1515.6372,391.3896 L1517.4436,392.6563 L1519.1301,393.7397 L1519.1919,393.8268 L1520.8982,395.0796 L1522.2381,395.8163 L1524.1922,397.4183 L1525.7624,398.4794 L1527.3631,399.5836 L1527.4623,399.7065 L1530.6581,402.3321 L1533.5373,404.5651 L1536.671,407.1137 L1539.7679,409.6167 L1542.7947,412.0328 L1542.8557,412.0957 L1545.5772,414.7325 L1548.5801,417.6595 L1550.9542,419.9383 L1554.1006,423.0131 L1556.7083,425.5329 L1556.4958,425.3547 L1558.9702,428.2973 L1561.6137,431.3817 L1564.0556,434.297 L1566.324,437.067 L1568.9378,440.1264 L1569.0912,440.2277 L1571.0539,443.299 L1573.3589,446.5961 L1575.4126,449.7274 L1577.0746,452.6003 L1579.3166,455.856 L1579.1581,455.7776 L1580.9376,459.2121 L1582.8031,462.6893 L1584.4944,466.0802 L1586.1262,469.4418 L1587.6786,472.7641 L1587.5348,472.7151 L1589.1821,476.4812 L1590.4168,480.1067 L1591.366,483.6349 L1592.5211,487.2332 L1593.8574,490.8934 L1593.6824,490.8588 L1594.5297,494.7535 L1595.449,498.6624 L1596.1251,502.5233 L1596.7386,506.3718 L1597.6866,510.2863 L1597.9022,510.3071 L1597.6799,512.3035 L1598.3015,514.3812 L1598.4646,516.4148 L1598.6364,518.4491 L1598.6682,520.47 L1598.9758,520.4797 L1598.6253,522.5697 L1598.6674,524.672 L1599.0978,526.7866 L1598.6685,528.8741 L1599,530.9856 L1598.688,530.9856 L1599.154,541.3189 L1599.0916,551.6522 L1598.5221,561.9856 L1598.9427,572.3189 L1599.9928,582.6522 L1599,592.9856 L1599.288,592.9972 L1598.8729,596.3834 L1599.3102,599.804 L1599.1847,603.2019 L1599.5389,606.6191 L1599.6882,610.0281 L1599.8176,610.0429 L1600.2572,613.4137 L1600.1619,616.7236 L1601.0159,620.1417 L1601.2263,623.4864 L1601.6061,626.8504 L1601.3632,626.8071 L1601.9855,630.098 L1602.92,633.4446 L1603.4719,636.7229 L1603.9409,639.9864 L1604.5335,643.272 L1604.2427,643.2038 L1605.5616,646.5069 L1605.8853,649.5765 L1606.535,652.7226 L1607.4777,655.9375 L1608.2502,659.1124 L1608.5023,659.1841 L1609.3704,662.2029 L1609.9795,665.1481 L1610.757,668.1412 L1611.7513,671.1959 L1612.5359,674.191 L1612.6145,674.2168 L1613.2483,676.948 L1614.5645,679.9029 L1615.5526,682.7503 L1616.1524,685.4703 L1617.1704,688.3275 L1616.9913,688.2619 L1618.4047,691.0333 L1619.0845,693.5362 L1620.0283,696.1357 L1621.1058,698.7841 L1621.9337,701.3412 L1621.6671,701.2349 L1623.0868,703.7706 L1623.796,706.0229 L1625.0128,708.4776 L1625.5819,710.6741 L1626.6053,713.0517 " fill="none" style="stroke:#181818;stroke-width:4.0;"/><polygon fill="#181818" points="1628.9,718.5956,1628.97,718.5974,1628.8127,716.6229,1629.066,714.659,1629.1855,712.6917,1628.8654,710.713,1629.1539,708.75,1629.13,708.7401,1628.5894,709.7407,1628.1694,710.7913,1627.8332,711.8767,1627.2081,712.8423,1626.9878,713.9757,1627.0584,714.1462,1625.8622,713.3484,1624.8723,713.0483,1623.9075,712.809,1622.7963,712.2164,1621.7621,711.8096,1621.7778,711.826,1623.1823,713.159,1624.6583,714.5671,1626.0998,715.9389,1627.6069,717.3799,1628.9,718.5956" style="stroke:#181818;stroke-width:4.0;"/></g><!--SRC=[NL9DImCn4BtdLunx40MttgKK_48K1QbuAqYQZ6qqcmcP2Rg8_ztijhNRpILavirxCszov8BnsU9ReqCBaycvrQ9hhvSrI-jn8j-YX288mP94g07h4Xfn59GI9nulu9KHw1qICkfarj1HW0vs4IXBpC8mtwNkcwYDBCB95ROKBCWQztMcDHvFrUPq8ZgiF48rnqZiX993XdDupallU8sfUzmzNZw12rnQoLrJN87cGXa9fjEqAsndC_XHKCw0ze5o2jhpMPcCFXcEWKex2MB7R_IUxKEFItjLRbcmsK1MNZTZq7LEMj3sTZ3A1cZi67Q_RrxxVwSMOJXrN-eIZsjlgD4km05KAVWjA6KyPTkPTs1zLNmOUljCPTQsWauWaX-cRctUkD2hentcRj0uBYbuoJ5IaXvYqS1uRqbSMErs0kfNzQkfwzhILoZNRAiw2lPgezYMVXGjWUsF-GC0]--></g></svg>