<?xml version="1.0" encoding="us-ascii" standalone="no"?><svg xmlns="http://www.w3.org/2000/svg" xmlns:xlink="http://www.w3.org/1999/xlink" contentStyleType="text/css" height="1314px" preserveAspectRatio="none" style="width:971px;height:1314px;background:#FFFFFF;" version="1.1" viewBox="0 0 971 1314" width="971px" zoomAndPan="magnify"><defs/><g><text fill="#000000" font-family="Chalkduster" font-size="42" font-weight="bold" lengthAdjust="spacing" textLength="943" x="10" y="51.7215">Activities in Infrastructure Context (1)</text><!--cluster activities--><g id="cluster_activities"><polygon fill="#FFC7D8" points="233,83.8912,233,84.1013,242.9821,83.4768,252.9643,84.0844,262.9464,84.2908,272.9286,83.1778,282.9107,83.8134,292.8929,83.4647,302.875,83.5077,312.8571,83.823,322.8393,83.1998,332.8214,84.4448,342.8036,83.2609,352.7857,83.6934,362.7679,84.3231,372.75,83.8054,382.7321,83.9594,392.7143,83.8592,402.6964,84.0697,412.6786,84.1303,422.6607,84.4769,432.6429,84.5622,442.625,84.5704,452.6071,84.1458,462.5893,84.3547,472.5714,84.5934,482.5536,83.17,492.5357,84.5697,502.5179,83.5947,512.5,84.425,522.4821,83.3961,532.4643,83.8227,542.4464,84.6328,552.4286,83.8424,562.4107,83.9965,572.3929,84.2298,582.375,84.3074,592.3571,83.8873,602.3393,84.1784,612.3214,83.3187,622.3036,84.1755,632.2857,84.4394,642.2679,84.3357,652.25,84.5042,662.2321,83.4081,672.2143,83.239,682.1964,83.2698,692.1786,83.8323,702.1607,83.6946,712.1429,84.5726,722.125,83.7165,732.1071,83.5481,742.0893,84.1194,752.0714,83.2243,762.0536,83.372,772.0357,84.5401,782.0179,84.3268,792,83.8912,792.0937,84.1174,792.3125,83.9385,792.7478,84.2824,793.136,84.5123,793.354,84.3315,793.7678,84.6234,793.7382,84.6112,793.953,84.993,794.2614,85.4136,794.2058,85.6835,794.496,86.0966,794.5,86.3912,793.9462,86.3912,793.8227,96.3334,795.0036,106.2755,793.7831,116.2177,795.009,126.1599,794.7066,136.1021,794.2321,146.0443,794.1462,155.9865,794.9588,165.9287,794.2007,175.8709,795.0919,185.8131,793.9473,195.7553,795.1174,205.6975,794.9843,215.6397,794.745,225.5818,794.5472,235.524,795.2266,245.4662,795.1136,255.4084,794.6693,265.3506,794.7682,275.2928,794.3697,285.235,795.2165,295.1772,794.6549,305.1194,794.6726,315.0616,793.8916,325.0038,794.0948,334.946,795.0307,344.8881,794.9298,354.8303,794.4571,364.7725,794.1778,374.7147,794.2811,384.6569,793.8138,394.5991,794.9147,404.5413,795.2396,414.4835,795.0264,424.4257,795.1949,434.3679,794.3633,444.3101,794.5872,454.2523,794.1124,464.1944,794.784,474.1366,794.7468,484.0788,795.0524,494.021,794.2703,503.9632,794.3656,513.9054,794.9435,523.8476,795.0673,533.7898,793.9875,543.732,794.3061,553.6742,794.6493,563.6164,793.8892,573.5586,794.8534,583.5008,794.758,593.4429,794.3992,603.3851,794.6422,613.3273,795.2287,623.2695,794.1871,633.2117,794.815,643.1539,794.7856,653.0961,794.6158,663.0383,794.6409,672.9805,794.6135,682.9227,793.8758,692.8649,794.0992,702.8071,794.0385,712.7492,794.5638,722.6914,794.5881,732.6336,794.6617,742.5758,794.209,752.518,794.4325,762.4602,794.3798,772.4024,795.0769,782.3446,794.9266,792.2868,794.0145,802.229,794.5,812.1712,794.4775,812.1619,794.1758,812.4511,794.2959,812.9151,794.248,813.3094,794.0819,813.6548,793.7678,813.9389,793.7122,813.8048,793.4734,814.2283,792.9659,814.0031,792.7326,814.4399,792.3154,814.4325,792,814.6712,792,814.7679,782.0179,814.9115,772.0357,815.1433,762.0536,813.9512,752.0714,815.1466,742.0893,814.8493,732.1071,815.0265,722.125,815.419,712.1429,814.6766,702.1607,814.8464,692.1786,814.8846,682.1964,814.8684,672.2143,814.6703,662.2321,815.3819,652.25,814.0614,642.2679,815.2364,632.2857,814.0472,622.3036,814.1308,612.3214,814.7112,602.3393,814.6994,592.3571,814.1783,582.375,815.0849,572.3929,814.78,562.4107,815.3978,552.4286,815.3383,542.4464,814.2229,532.4643,814.2732,522.4821,814.542,512.5,815.0267,502.5179,815.0741,492.5357,814.9723,482.5536,814.3292,472.5714,815.3075,462.5893,815.3049,452.6071,814.6239,442.625,814.4321,432.6429,814.2698,422.6607,814.4566,412.6786,814.8086,402.6964,814.6028,392.7143,814.2534,382.7321,815.1585,372.75,814.2122,362.7679,815.1735,352.7857,815.0984,342.8036,815.043,332.8214,815.3637,322.8393,814.4253,312.8571,814.3705,302.875,815.19,292.8929,814.0743,282.9107,814.4372,272.9286,814.7867,262.9464,814.7398,252.9643,814.3127,242.9821,814.6282,233,814.6712,233.095,814.9005,232.7292,814.7244,232.2168,814.1946,231.9494,814.256,231.5202,813.9271,231.2322,813.9389,231.2241,813.9356,231.176,813.6227,231.0686,813.2854,230.5882,812.7935,230.7698,812.5758,230.5,812.1712,230.5084,812.1712,229.9447,802.229,230.0289,792.2868,230.8266,782.3446,230.7499,772.4024,230.4836,762.4602,229.8279,752.518,231.1581,742.5758,230.1882,732.6336,229.9719,722.6914,230.4327,712.7492,231.0897,702.8071,231.1154,692.8649,230.5351,682.9227,230.3488,672.9805,230.6698,663.0383,230.6862,653.0961,229.9922,643.1539,230.914,633.2117,231.0588,623.2695,230.2842,613.3273,230.0708,603.3851,231.1746,593.4429,230.521,583.5008,230.4998,573.5586,230.799,563.6164,229.8543,553.6742,231.03,543.732,230.4846,533.7898,231.1688,523.8476,230.2841,513.9054,230.909,503.9632,230.056,494.021,230.745,484.0788,230.8793,474.1366,230.1727,464.1944,230.863,454.2523,229.9286,444.3101,230.0295,434.3679,231.1828,424.4257,231.1844,414.4835,231.0685,404.5413,230.1396,394.5991,230.8842,384.6569,230.0279,374.7147,230.5582,364.7725,230.4987,354.8303,230.2376,344.8881,231.1159,334.946,230.9433,325.0038,230.1792,315.0616,231.0266,305.1194,230.5919,295.1772,229.9164,285.235,230.2667,275.2928,229.9747,265.3506,230.3609,255.4084,229.871,245.4662,229.8998,235.524,230.5703,225.5818,230.3796,215.6397,230.4414,205.6975,230.3568,195.7553,230.6673,185.8131,229.9449,175.8709,230.6601,165.9287,229.7569,155.9865,230.796,146.0443,231.0928,136.1021,231.0221,126.1599,230.8613,116.2177,230.6922,106.2755,230.6057,96.3334,230.5,86.3912,230.3029,86.3095,230.784,86.0946,230.8944,85.7261,230.8921,85.3109,231.084,84.9762,231.2322,84.6234,231.2056,84.5592,231.6136,84.544,232.0262,84.5401,232.2477,84.0751,232.7063,84.182,233,83.8912" style="stroke:#181818;stroke-width:4.0;"/><text fill="#000000" font-family="Chalkduster" font-size="24" font-style="italic" lengthAdjust="spacing" textLength="175" x="425" y="109.732">&#171;workspace&#187;</text><text fill="#000000" font-family="Chalkduster" font-size="24" font-weight="bold" lengthAdjust="spacing" textLength="548" x="238.5" y="140.3619">Research &amp; Data Management Activities</text></g><!--cluster infrastructure--><g id="cluster_infrastructure"><polygon fill="none" points="204,1002.6712,204,1002.8813,213.9649,1002.2568,223.9298,1002.8644,233.8947,1003.0708,243.8596,1001.9578,253.8246,1002.5934,263.7895,1002.2447,273.7544,1002.2877,283.7193,1002.603,293.6842,1001.9798,303.6491,1003.2248,313.614,1002.0409,323.5789,1002.4734,333.5439,1003.1031,343.5088,1002.5854,353.4737,1002.7394,363.4386,1002.6392,373.4035,1002.8497,383.3684,1002.9103,393.3333,1003.2569,403.2982,1003.3422,413.2632,1003.3504,423.2281,1002.9258,433.193,1003.1347,443.1579,1003.3734,453.1228,1001.95,463.0877,1003.3497,473.0526,1002.3747,483.0175,1003.205,492.9825,1002.1761,502.9474,1002.6027,512.9123,1003.4128,522.8772,1002.6224,532.8421,1002.7765,542.807,1003.0098,552.7719,1003.0874,562.7368,1002.6673,572.7018,1002.9584,582.6667,1002.0987,592.6316,1002.9555,602.5965,1003.2194,612.5614,1003.1157,622.5263,1003.2842,632.4912,1002.1881,642.4561,1002.019,652.4211,1002.0498,662.386,1002.6123,672.3509,1002.4746,682.3158,1003.3526,692.2807,1002.4965,702.2456,1002.3281,712.2105,1002.8994,722.1754,1002.0043,732.1404,1002.152,742.1053,1003.3201,752.0702,1003.1068,762.0351,1003.4057,772,1002.6712,771.959,1002.5721,772.3943,1002.9159,772.7824,1003.1459,773.0004,1002.965,773.402,1003.2274,773.7678,1003.4034,773.8066,1003.4195,774.1149,1003.8401,774.0594,1004.11,774.3496,1004.5231,774.183,1004.747,774.5,1005.1712,773.8227,1005.1712,775.0036,1015.2762,773.7831,1025.3812,775.009,1035.4862,774.7066,1045.5912,774.2321,1055.6962,774.1462,1065.8012,774.9588,1075.9062,774.2007,1086.0112,775.0919,1096.1162,773.9473,1106.2212,775.1174,1116.3262,774.9843,1126.4312,774.745,1136.5362,774.5472,1146.6412,775.2266,1156.7462,775.1136,1166.8512,774.6693,1176.9562,774.5,1187.0612,774.5826,1187.0954,774.3134,1187.3981,774.4277,1187.8597,774.1084,1188.1416,773.9674,1188.4974,773.7678,1188.8289,773.6902,1188.6416,773.3625,1188.8506,773.1284,1189.2853,772.7619,1189.4006,772.3481,1189.4015,772,1189.5612,772,1189.239,762.0351,1189.3422,752.0702,1188.875,742.1053,1189.9759,732.1404,1190.3007,722.1754,1190.0876,712.2105,1190.2561,702.2456,1189.4244,692.2807,1189.6484,682.3158,1189.1736,672.3509,1189.8452,662.386,1189.8079,652.4211,1190.1135,642.4561,1189.3315,632.4912,1189.4268,622.5263,1190.0046,612.5614,1190.1285,602.5965,1189.0486,592.6316,1189.3673,582.6667,1189.7104,572.7018,1188.9503,562.7368,1189.9146,552.7719,1189.8192,542.807,1189.4604,532.8421,1189.7034,522.8772,1190.2898,512.9123,1189.2483,502.9474,1189.8761,492.9825,1189.8468,483.0175,1189.6769,473.0526,1189.7021,463.0877,1189.6746,453.1228,1188.937,443.1579,1189.1603,433.193,1189.0996,423.2281,1189.625,413.2632,1189.6493,403.2982,1189.7229,393.3333,1189.2702,383.3684,1189.4936,373.4035,1189.4409,363.4386,1190.138,353.4737,1189.9877,343.5088,1189.0756,333.5439,1189.4882,323.5789,1188.9839,313.614,1189.8495,303.6491,1190.1696,293.6842,1190.1057,283.7193,1189.1256,273.7544,1190.0251,263.7895,1188.8184,253.8246,1189.7613,243.8596,1189.2618,233.8947,1189.6579,223.9298,1189.8015,213.9649,1190.0333,204,1189.5612,203.9082,1189.3395,203.7071,1189.5611,203.3156,1189.3231,202.9847,1189.2312,202.6812,1189.2057,202.2322,1188.8289,202.2339,1188.8296,202.1398,1188.4977,202.0051,1188.149,201.8536,1187.7934,201.6462,1187.4146,201.5,1187.0612,202.2107,1187.0612,200.8903,1176.9562,202.0653,1166.8512,200.876,1156.7462,200.9597,1146.6412,201.54,1136.5362,201.5283,1126.4312,201.0072,1116.3262,201.9137,1106.2212,201.6089,1096.1162,202.2267,1086.0112,202.1671,1075.9062,201.0517,1065.8012,201.1021,1055.6962,201.3708,1045.5912,201.8555,1035.4862,201.903,1025.3812,201.8012,1015.2762,201.5,1005.1712,201.3947,1005.1275,201.8424,1004.8988,201.9881,1004.5449,201.9248,1004.1045,202.0122,1003.7265,202.2322,1003.4034,202.181,1003.2798,202.5584,1003.1909,202.9569,1003.1528,203.2842,1002.943,203.5932,1002.6889,204,1002.6712" style="stroke:#181818;stroke-width:4.0;"/><text fill="#000000" font-family="Chalkduster" font-size="24" font-weight="bold" lengthAdjust="spacing" textLength="184" x="396" y="1028.512">Infrastucture</text></g><!--entity coll--><g id="elem_coll"><polygon fill="none" points="323.5442,684.3571,322.3715,685.9594,320.9845,688.3062,319.0008,689.8878,316.9163,690.7527,315.2542,690.8278,313.118,689.7461,311.1023,689.0395,309.5724,687.6047,308.7699,685.9623,308.2939,684.6545,307.8277,682.9462,307.0709,681.4762,307.6525,680.041,308.162,678.4688,310.074,677.2253,311.4192,675.612,313.0843,675.0762,315.0637,674.6148,317.6021,674.889,318.9924,675.5446,320.6089,675.8418,322.5743,677.8555,323.2595,679.9813,323.5571,681.4318,323.22,683.822" style="stroke:#8B0000;stroke-width:4.0;"/><path d="M315.5,690.4112 L315.6868,690.4112 L315.1317,695.8112 L315.6718,701.2112 L315.8553,706.6112 L314.8659,712.0112 L315.5,717.4112 M302.5,698.4112 L302.5,698.3421 L307.7,698.0321 L312.9,698.0703 L318.1,698.3506 L323.3,697.7966 L328.5,698.4112 M315.5,717.4112 L315.8719,717.7335 L312.4766,720.0442 L310.1672,723.296 L307.9901,726.6626 L305.0424,729.3612 L302.5,732.4112 M315.5,717.4112 L315.5458,717.4509 L318.0785,720.3926 L320.8199,723.5151 L323.4606,726.5504 L326.2934,729.7521 L328.5,732.4112 " fill="none" style="stroke:#8B0000;stroke-width:4.0;"/><text fill="#000000" font-family="Chalkduster" font-size="24" lengthAdjust="spacing" textLength="99" x="266" y="761.252">Collect</text><text fill="#000000" font-family="Chalkduster" font-size="24" lengthAdjust="spacing" textLength="76" x="266" y="791.8819">(new)</text></g><!--entity colr--><g id="elem_colr"><polygon fill="none" points="502.5442,495.0971,501.3715,496.6994,499.9845,499.0462,498.0008,500.6278,495.9163,501.4927,494.2542,501.5678,492.118,500.4861,490.1023,499.7795,488.5724,498.3447,487.7699,496.7023,487.2939,495.3945,486.8277,493.6862,486.0709,492.2162,486.6525,490.781,487.162,489.2088,489.074,487.9653,490.4192,486.352,492.0843,485.8162,494.0637,485.3548,496.6021,485.629,497.9924,486.2846,499.6089,486.5818,501.5743,488.5955,502.2595,490.7213,502.5571,492.1718,502.22,494.562" style="stroke:#8B0000;stroke-width:4.0;"/><path d="M494.5,501.1512 L494.6868,501.1512 L494.1317,506.5512 L494.6718,511.9512 L494.8553,517.3512 L493.8659,522.7512 L494.5,528.1512 M481.5,509.1512 L481.5,509.0821 L486.7,508.7721 L491.9,508.8103 L497.1,509.0906 L502.3,508.5366 L507.5,509.1512 M494.5,528.1512 L494.8719,528.4735 L491.4766,530.7842 L489.1672,534.036 L486.9901,537.4026 L484.0424,540.1012 L481.5,543.1512 M494.5,528.1512 L494.5458,528.1909 L497.0785,531.1326 L499.8199,534.2551 L502.4606,537.2904 L505.2934,540.4921 L507.5,543.1512 " fill="none" style="stroke:#8B0000;stroke-width:4.0;"/><text fill="#000000" font-family="Chalkduster" font-size="24" lengthAdjust="spacing" textLength="99" x="445" y="571.992">Collect</text><text fill="#000000" font-family="Chalkduster" font-size="24" lengthAdjust="spacing" textLength="94" x="445" y="602.6219">(reuse)</text></g><!--entity cur--><g id="elem_cur"><polygon fill="none" points="421.5442,177.8371,420.3715,179.4394,418.9845,181.7862,417.0008,183.3678,414.9163,184.2327,413.2542,184.3078,411.118,183.2261,409.1023,182.5195,407.5724,181.0847,406.7699,179.4423,406.2939,178.1345,405.8277,176.4262,405.0709,174.9562,405.6525,173.521,406.162,171.9488,408.074,170.7053,409.4192,169.092,411.0843,168.5562,413.0637,168.0948,415.6021,168.369,416.9924,169.0246,418.6089,169.3218,420.5743,171.3355,421.2595,173.4613,421.5571,174.9118,421.22,177.302" style="stroke:#8B0000;stroke-width:4.0;"/><path d="M413.5,183.8912 L413.6868,183.8912 L413.1317,189.2912 L413.6718,194.6912 L413.8553,200.0912 L412.8659,205.4912 L413.5,210.8912 M400.5,191.8912 L400.5,191.8221 L405.7,191.5121 L410.9,191.5503 L416.1,191.8306 L421.3,191.2766 L426.5,191.8912 M413.5,210.8912 L413.8719,211.2135 L410.4766,213.5242 L408.1672,216.776 L405.9901,220.1426 L403.0424,222.8412 L400.5,225.8912 M413.5,210.8912 L413.5458,210.9309 L416.0785,213.8726 L418.8199,216.9951 L421.4606,220.0304 L424.2934,223.2321 L426.5,225.8912 " fill="none" style="stroke:#8B0000;stroke-width:4.0;"/><text fill="#000000" font-family="Chalkduster" font-size="24" lengthAdjust="spacing" textLength="91" x="368" y="254.732">Curate</text></g><!--entity int--><g id="elem_int"><polygon fill="none" points="516.5442,336.4671,515.3715,338.0694,513.9845,340.4162,512.0008,341.9978,509.9163,342.8627,508.2542,342.9378,506.118,341.8561,504.1023,341.1495,502.5724,339.7147,501.7699,338.0723,501.2939,336.7645,500.8277,335.0562,500.0709,333.5862,500.6525,332.151,501.162,330.5788,503.074,329.3353,504.4192,327.722,506.0843,327.1862,508.0637,326.7248,510.6021,326.999,511.9924,327.6546,513.6089,327.9518,515.5743,329.9655,516.2595,332.0913,516.5571,333.5418,516.22,335.932" style="stroke:#8B0000;stroke-width:4.0;"/><path d="M508.5,342.5212 L508.6868,342.5212 L508.1317,347.9212 L508.6718,353.3212 L508.8553,358.7212 L507.8659,364.1212 L508.5,369.5212 M495.5,350.5212 L495.5,350.4521 L500.7,350.1421 L505.9,350.1803 L511.1,350.4606 L516.3,349.9066 L521.5,350.5212 M508.5,369.5212 L508.8719,369.8435 L505.4766,372.1542 L503.1672,375.406 L500.9901,378.7726 L498.0424,381.4712 L495.5,384.5212 M508.5,369.5212 L508.5458,369.5609 L511.0785,372.5026 L513.8199,375.6251 L516.4606,378.6604 L519.2934,381.8621 L521.5,384.5212 " fill="none" style="stroke:#8B0000;stroke-width:4.0;"/><text fill="#000000" font-family="Chalkduster" font-size="24" lengthAdjust="spacing" textLength="130" x="443.5" y="413.362">Integrate</text></g><!--entity an--><g id="elem_an"><polygon fill="none" points="363.5442,336.4671,362.3715,338.0694,360.9845,340.4162,359.0008,341.9978,356.9163,342.8627,355.2542,342.9378,353.118,341.8561,351.1023,341.1495,349.5724,339.7147,348.7699,338.0723,348.2939,336.7645,347.8277,335.0562,347.0709,333.5862,347.6525,332.151,348.162,330.5788,350.074,329.3353,351.4192,327.722,353.0843,327.1862,355.0637,326.7248,357.6021,326.999,358.9924,327.6546,360.6089,327.9518,362.5743,329.9655,363.2595,332.0913,363.5571,333.5418,363.22,335.932" style="stroke:#8B0000;stroke-width:4.0;"/><path d="M355.5,342.5212 L355.6868,342.5212 L355.1317,347.9212 L355.6718,353.3212 L355.8553,358.7212 L354.8659,364.1212 L355.5,369.5212 M342.5,350.5212 L342.5,350.4521 L347.7,350.1421 L352.9,350.1803 L358.1,350.4606 L363.3,349.9066 L368.5,350.5212 M355.5,369.5212 L355.8719,369.8435 L352.4766,372.1542 L350.1672,375.406 L347.9901,378.7726 L345.0424,381.4712 L342.5,384.5212 M355.5,369.5212 L355.5458,369.5609 L358.0785,372.5026 L360.8199,375.6251 L363.4606,378.6604 L366.2934,381.8621 L368.5,384.5212 " fill="none" style="stroke:#8B0000;stroke-width:4.0;"/><text fill="#000000" font-family="Chalkduster" font-size="24" lengthAdjust="spacing" textLength="106" x="302.5" y="413.362">Analyse</text></g><!--entity new--><g id="elem_new"><path d="M234.1386,1060.4224 L234.1386,1060.4224 L234.1492,1060.5152 L236.5278,1059.9637 L238.9686,1059.9563 L241.3892,1059.7718 L243.7431,1059.0046 L246.1892,1059.0439 L246.1892,1059.0439 L246.1883,1059.0094 L249.1887,1058.7771 L252.1935,1058.7189 L255.2015,1058.7817 L258.1987,1058.4274 L261.2109,1058.6573 L261.2109,1058.6573 L261.2255,1058.9029 L264.1466,1058.2023 L267.1103,1058.2188 L270.0793,1058.3228 L273.0179,1057.9178 L275.9725,1057.7805 L275.9725,1057.7805 L275.9731,1057.8108 L278.3954,1057.7197 L280.8204,1057.7666 L283.2442,1057.747 L285.6703,1057.8544 L288.0885,1057.5475 L288.0885,1057.5475 L288.1362,1057.842 L290.8606,1057.4048 L293.5544,1056.7778 L296.2931,1056.4288 L299.034,1056.0928 L301.708,1055.344 L301.708,1055.344 L301.6784,1055.0248 L304.9608,1055.3448 L308.1457,1054.6138 L311.4048,1054.6818 L314.5875,1053.927 L317.8328,1053.8466 L317.8328,1053.8466 L317.827,1053.8167 L320.5281,1054.6752 L323.0953,1054.8351 L325.7415,1055.4072 L328.3943,1056.014 L330.9992,1056.3711 L330.9992,1056.3711 L331.0023,1056.5561 L333.938,1056.3206 L336.8789,1056.4012 L339.8114,1055.9704 L342.7565,1056.3024 L345.6932,1056.1272 L345.6932,1056.1272 L345.7173,1056.3697 L348.0259,1056.554 L350.3465,1056.8587 L352.6114,1056.6042 L354.9171,1056.7596 L357.259,1057.2782 L357.259,1057.2782 L357.2292,1057.0036 L360.1257,1057.5638 L362.9887,1057.8146 L365.9004,1058.5141 L368.7289,1058.4475 L371.6068,1058.8362 L371.6068,1058.8362 L371.6018,1058.6839 L374.6744,1059.0382 L377.7256,1058.7411 L380.792,1058.9072 L383.8733,1059.5266 L386.9281,1059.3388 L386.9281,1059.3388 L386.976,1059.5264 L389.4364,1059.0349 L391.7478,1057.9598 L394.2458,1057.6156 L396.7032,1057.1121 L399.0658,1056.2376 L398.8909,1056.1214 L400.4172,1058.3008 L401.8861,1060.442 L403.4676,1062.6581 L404.6116,1064.5834 L406,1066.6712 L406,1066.6712 L406.1423,1066.8196 L406.262,1066.9078 L406.6563,1067.2825 L407.4517,1068.0757 L407.5086,1068.0984 L408.1614,1068.7428 L408.1614,1068.7428 L408.3849,1068.7778 L408.6978,1071.6051 L408.9351,1074.4205 L409.343,1077.2626 L410.1455,1080.1665 L410.3897,1082.983 L410.3897,1082.983 L410.2625,1082.944 L411.6094,1086.2127 L412.0913,1089.2158 L413.5567,1092.5209 L414.4683,1095.656 L415.2308,1098.7452 L415.2308,1098.7452 L415.3382,1098.7628 L415.7148,1101.5864 L416.4761,1104.4728 L416.8898,1107.3025 L417.1581,1110.1084 L417.5472,1112.9341 L417.5472,1112.9341 L417.6617,1112.967 L416.568,1116.1286 L416.006,1119.4432 L414.8426,1122.5848 L413.9266,1125.7975 L412.9293,1128.9869 L412.9293,1128.9869 L412.6624,1128.9434 L412.2238,1132.1971 L412.1067,1135.5032 L411.5347,1138.7352 L410.7996,1141.9407 L410.2907,1145.183 L410.2907,1145.183 L410.1478,1145.1743 L410.3605,1147.9329 L410.3202,1150.6762 L410.9755,1153.4617 L411.2866,1156.2263 L411.1254,1158.9622 L411.2373,1159.1677 L408.848,1160.5532 L406.2462,1161.5482 L403.8687,1162.9553 L401.3427,1164.0897 L399,1165.5607 L399,1165.5607 L399.1093,1165.6239 L399.2621,1165.9046 L399.5469,1166.2616 L399.4133,1166.3765 L399.6172,1166.6866 L399.8361,1167.0055 L399.8361,1167.0055 L399.8608,1167.2011 L396.961,1167.6229 L393.9942,1167.5139 L391.1053,1168.0216 L388.2177,1168.5401 L385.3027,1168.8415 L385.3027,1168.8415 L385.2874,1168.5705 L382.7701,1168.8541 L380.2262,1168.6675 L377.6756,1168.3641 L375.1402,1168.3277 L372.5951,1168.1204 L372.5951,1168.1204 L372.6198,1168.4433 L369.519,1168.2166 L366.4749,1168.7297 L363.4085,1168.9516 L360.3373,1169.1112 L357.2679,1169.2948 L357.2679,1169.2948 L357.277,1169.3568 L354.7968,1169.708 L352.2708,1169.7468 L349.8067,1170.2083 L347.3243,1170.5448 L344.8756,1171.111 L344.8756,1171.111 L344.8802,1171.139 L342.2556,1171.5851 L339.6345,1172.0529 L336.9751,1172.2899 L334.3649,1172.8233 L331.7434,1173.2884 L331.7434,1173.2884 L331.74,1173.2351 L328.5499,1173.746 L325.3361,1173.881 L322.1012,1173.6781 L318.9031,1174.0628 L315.6956,1174.2969 L315.6956,1174.2969 L315.6835,1174.0406 L312.9029,1174.293 L310.1109,1174.3032 L307.3108,1174.143 L304.4915,1173.576 L301.7019,1173.6375 L301.7019,1173.6375 L301.7274,1173.8421 L299.0818,1172.9886 L296.5542,1173.0832 L293.9474,1172.5417 L291.3898,1172.3951 L288.8052,1172.0312 L288.8052,1172.0312 L288.8158,1172.1375 L286.2019,1171.9771 L283.5249,1171.1871 L280.9536,1171.4528 L278.3163,1171.0585 L275.6842,1170.7168 L275.6842,1170.7168 L275.7164,1170.8714 L273.0259,1170.4737 L270.2325,1169.5823 L267.5217,1169.0877 L264.7991,1168.5358 L262.0536,1167.8745 L262.0536,1167.8745 L262.0544,1167.9621 L259.0337,1167.9008 L256.0166,1168.2438 L252.9914,1167.6837 L249.9761,1168.2327 L246.954,1168.0082 L246.954,1168.0082 L246.8944,1167.7374 L244.0285,1168.4056 L241.21,1169.2895 L238.335,1169.9163 L235.4113,1170.322 L232.5845,1171.1679 L232.742,1171.2627 L231.109,1168.6714 L229.8274,1166.2915 L228.2878,1163.7564 L226.3462,1160.9794 L225,1158.5607 L225,1158.5607 L224.986,1158.3844 L225.2196,1158.5212 L225.4608,1158.7537 L225.6866,1158.7924 L225.9072,1158.7651 L226.1208,1158.6494 L226.1208,1158.6494 L225.9719,1158.619 L225.7703,1155.6284 L225.1416,1152.5507 L224.2174,1149.4127 L223.5063,1146.3182 L222.9828,1143.2619 L222.9828,1143.2619 L222.806,1143.2381 L222.4956,1140.3298 L222.2579,1137.4312 L221.7746,1134.4995 L221.2279,1131.5594 L221.0193,1128.6647 L221.0193,1128.6647 L221.2257,1128.7302 L219.8626,1125.5684 L219.3077,1122.6629 L218.3137,1119.6182 L217.328,1116.5761 L216.2083,1113.4916 L216.2083,1113.4916 L216.5085,1113.5596 L216.8047,1110.3667 L217.4839,1107.2607 L218.5421,1104.2406 L218.7615,1101.0303 L219.7232,1097.9883 L219.7232,1097.9883 L219.6222,1097.9635 L220.5176,1094.967 L221.242,1091.9286 L221.8023,1088.8499 L222.683,1085.8499 L223.4462,1082.8209 L223.4462,1082.8209 L223.7644,1082.9118 L222.8834,1079.9587 L221.5114,1076.8654 L220.9598,1074.0063 L219.8667,1070.9926 L219.2463,1068.1139 L219.2399,1068.1041 L221.8689,1066.5339 L224.4508,1064.8924 L226.7354,1062.8019 L229.5475,1061.5081 L232,1059.6712 L232,1059.6712 L232.0012,1059.6747 L232.3459,1059.5885 L232.7861,1059.7741 L233.3313,1060.2588 L233.7477,1060.3769 L234.1386,1060.4224 " fill="none" style="stroke:#181818;stroke-width:4.0;"/><text fill="#000000" font-family="Chalkduster" font-size="24" lengthAdjust="spacing" textLength="103" x="232" y="1090.512">Novel /</text><text fill="#000000" font-family="Chalkduster" font-size="24" lengthAdjust="spacing" textLength="167" x="232" y="1121.1419">non-archive</text><text fill="#000000" font-family="Chalkduster" font-size="24" lengthAdjust="spacing" textLength="64" x="232" y="1151.7717">data</text></g><!--entity repo--><g id="elem_repo"><path d="M449,1077.4912 L449,1077.4912 L449.0416,1077.5748 L450.2458,1076.6661 L451.6937,1076.2478 L453.0623,1075.6698 L454.1698,1074.5666 L455.6387,1074.1904 L455.6338,1074.1562 L459.1125,1073.5066 L462.6155,1073.0294 L466.1356,1072.6721 L469.5971,1071.9018 L473.1406,1071.7099 L473.161,1071.9551 L475.4561,1071.2369 L477.8106,1071.2346 L480.1724,1071.3197 L482.492,1070.8965 L484.8337,1070.7407 L484.8356,1070.7709 L487.4431,1070.5649 L490.0591,1070.4966 L492.6709,1070.3619 L495.2906,1070.354 L497.8848,1069.9326 L497.8989,1070.2305 L500.6903,1070.1018 L503.4726,1069.781 L506.2683,1069.7414 L509.0646,1069.715 L511.8411,1069.2709 L511.8293,1068.9506 L514.7339,1069.4663 L517.5998,1068.9273 L520.4951,1069.1902 L523.3601,1068.6273 L526.25,1068.7412 L526.2492,1068.7107 L531.9314,1068.9261 L537.5955,1068.4304 L543.2703,1068.3544 L548.946,1068.3135 L554.6152,1068.0185 L554.618,1068.2035 L559.564,1067.9426 L564.5148,1067.9977 L569.4579,1067.5415 L574.4124,1067.848 L579.3594,1067.6474 L579.361,1067.891 L584.1888,1067.8137 L589.0174,1067.8574 L593.8424,1067.339 L598.67,1067.2326 L603.5,1067.4912 L603.5,1067.4912 L603.4982,1067.215 L608.328,1067.4962 L613.1557,1067.4663 L617.9863,1067.8878 L622.812,1067.5385 L627.6406,1067.6474 L627.6383,1067.495 L632.591,1067.8231 L637.5338,1067.4995 L642.4836,1067.6394 L647.4403,1068.2327 L652.3848,1068.0185 L652.3897,1068.2121 L658.0661,1068.4894 L663.7272,1068.1646 L669.4075,1068.5939 L675.0836,1068.859 L680.75,1068.7412 L680.7423,1068.5313 L683.6302,1068.8045 L686.5156,1069.009 L689.406,1069.3485 L692.2771,1069.1631 L695.1589,1069.2709 L695.1687,1069.4763 L697.9385,1069.1574 L700.7272,1069.2349 L703.5433,1069.8915 L706.3089,1069.482 L709.1152,1069.9326 L709.1292,1070.1583 L711.7311,1070.1858 L714.3283,1070.137 L716.9361,1070.2605 L719.5687,1070.7826 L722.1663,1070.7407 L722.1553,1070.6081 L724.5266,1071.1967 L726.8232,1070.8835 L729.2048,1071.5957 L731.5385,1071.7306 L733.8594,1071.7099 L733.8747,1071.8177 L737.3627,1072.2268 L740.9055,1073.0218 L744.3988,1073.4682 L747.8715,1073.7688 L751.3613,1074.1904 L751.4144,1074.2971 L752.6633,1074.7987 L754.1586,1075.7958 L755.3752,1076.2325 L756.7064,1076.8997 L758,1077.4912 L756.3777,1077.4912 L756.9194,1087.5283 L759.4153,1097.5654 L759.146,1107.6024 L757.8855,1117.6395 L757.1409,1127.6766 L757.4162,1137.7137 L758,1147.7508 L758,1147.7508 L757.8642,1147.4778 L756.7543,1148.576 L755.4909,1149.3655 L754.121,1149.9408 L752.8266,1150.668 L751.3613,1151.0516 L751.3528,1150.9914 L747.8664,1151.5861 L744.3364,1151.8732 L740.8779,1152.6649 L737.3752,1153.1446 L733.8594,1153.5321 L733.8797,1153.7767 L731.5123,1153.6242 L729.1772,1153.8602 L726.8598,1154.31 L724.5257,1154.5588 L722.1663,1154.5013 L722.1522,1154.274 L719.5507,1154.5769 L716.9499,1154.8908 L714.3189,1154.7152 L711.7351,1155.3046 L709.1152,1155.3094 L709.1207,1155.424 L706.3219,1155.397 L703.5357,1155.6372 L700.7568,1156.0299 L697.9436,1155.6998 L695.1589,1155.971 L695.1641,1156.1109 L692.2818,1156.2039 L689.3973,1156.2344 L686.5159,1156.3515 L683.6336,1156.4453 L680.75,1156.5008 L680.7429,1156.2235 L675.0724,1156.4673 L669.3987,1156.5848 L663.7316,1156.9628 L658.0588,1157.1181 L652.3848,1157.2235 L652.3858,1157.2954 L647.434,1157.1684 L642.4867,1157.3419 L637.5375,1157.3927 L632.5933,1157.7767 L627.6406,1157.5946 L627.6419,1157.7842 L622.8111,1157.41 L617.9842,1157.6247 L613.1546,1157.4318 L608.329,1157.8477 L603.5,1157.7508 L603.5,1157.7508 L603.5018,1158.0213 L598.6734,1157.9616 L593.8425,1157.4948 L589.017,1157.8633 L584.1854,1157.2957 L579.3594,1157.5946 L579.3607,1157.6835 L574.4086,1157.3873 L569.4624,1157.4891 L564.5145,1157.4787 L559.5672,1157.5075 L554.6152,1157.2235 L554.6071,1156.9036 L548.9476,1157.2902 L543.2712,1157.0136 L537.6001,1156.9478 L531.9315,1156.9776 L526.25,1156.5008 L526.2501,1156.5033 L523.3711,1156.4727 L520.4899,1156.3837 L517.6079,1156.2706 L514.7228,1156.0766 L511.8411,1155.971 L511.856,1156.2866 L509.037,1155.568 L506.2704,1155.9573 L503.4542,1155.297 L500.6647,1155.2019 L497.8848,1155.3094 L497.8859,1155.3272 L495.2753,1155.1603 L492.6508,1154.7676 L490.0655,1155.0081 L487.4469,1154.7112 L484.8337,1154.5013 L484.8604,1154.8232 L482.5196,1154.6029 L480.14,1153.9151 L477.8033,1153.7435 L475.4745,1153.6687 L473.1406,1153.5321 L473.1628,1153.6885 L469.6654,1153.2133 L466.1586,1152.6724 L462.6181,1151.8933 L459.1787,1151.8277 L455.6387,1151.0516 L455.7641,1151.3038 L454.3016,1150.3726 L452.9359,1149.6362 L451.576,1148.9114 L450.2853,1148.3256 L449,1147.7508 L449.3664,1147.7508 L448.8176,1137.7137 L447.8859,1127.6766 L450.2997,1117.6395 L447.7762,1107.6024 L450.3397,1097.5654 L450.1393,1087.5283 L449,1077.4912 " fill="#00FF7F" style="stroke:#181818;stroke-width:4.0;"/><path d="M449,1077.4912 L449,1077.4912 L449.0416,1077.5748 L450.2458,1077.9864 L451.6937,1078.8884 L453.0623,1079.6307 L454.1698,1079.8479 L455.6387,1080.7919 L455.6338,1080.7577 L459.1125,1081.1004 L462.6155,1081.6154 L466.1356,1082.2502 L469.5971,1082.4721 L473.1406,1083.2724 L473.161,1083.5176 L475.4561,1083.1871 L477.8106,1083.5725 L480.1724,1084.0453 L482.492,1084.0098 L484.8337,1084.2416 L484.8356,1084.2719 L487.4431,1084.3891 L490.0591,1084.6441 L492.6709,1084.8326 L495.2906,1085.1479 L497.8848,1085.0498 L497.8989,1085.3477 L500.6903,1085.4836 L503.4726,1085.4274 L506.2683,1085.6525 L509.0646,1085.8908 L511.8411,1085.7114 L511.8293,1085.3911 L514.7339,1086.1187 L517.5998,1085.7916 L520.4951,1086.2663 L523.3601,1085.9153 L526.25,1086.2412 L526.2492,1086.2107 L531.9314,1086.7152 L537.5955,1086.5086 L543.2703,1086.7215 L548.946,1086.9697 L554.6152,1086.9638 L554.618,1087.1488 L559.564,1087.0363 L564.5148,1087.2399 L569.4579,1086.9321 L574.4124,1087.3871 L579.3594,1087.3349 L579.361,1087.5785 L584.1888,1087.5637 L589.0174,1087.6699 L593.8424,1087.214 L598.67,1087.1701 L603.5,1087.4912 L603.5,1087.4912 L603.4982,1087.215 L608.328,1087.4337 L613.1557,1087.3413 L617.9863,1087.7003 L622.812,1087.2885 L627.6406,1087.3349 L627.6383,1087.1825 L632.591,1087.3621 L637.5338,1086.8901 L642.4836,1086.8816 L647.4403,1087.3264 L652.3848,1086.9638 L652.3897,1087.1574 L658.0661,1087.1456 L663.7272,1086.5318 L669.4075,1086.672 L675.0836,1086.648 L680.75,1086.2412 L680.7423,1086.0313 L683.6302,1086.0926 L686.5156,1086.0852 L689.406,1086.2128 L692.2771,1085.8155 L695.1589,1085.7114 L695.1687,1085.9167 L697.9385,1085.3332 L700.7272,1085.1461 L703.5433,1085.538 L706.3089,1084.8638 L709.1152,1085.0498 L709.1292,1085.2755 L711.7311,1084.9798 L714.3283,1084.6077 L716.9361,1084.408 L719.5687,1084.6068 L722.1663,1084.2416 L722.1553,1084.1091 L724.5266,1084.31 L726.8232,1083.6091 L729.2048,1083.9336 L731.5385,1083.6808 L733.8594,1083.2724 L733.8747,1083.3802 L737.3627,1082.7971 L740.9055,1082.6 L744.3988,1082.0541 L747.8715,1081.3625 L751.3613,1080.7919 L751.4144,1080.8987 L752.6633,1080.0799 L754.1586,1079.7568 L755.3752,1078.8731 L756.7064,1078.22 L758,1077.4912 " fill="none" style="stroke:#181818;stroke-width:4.0;"/><text fill="#000000" font-family="Chalkduster" font-size="24" font-style="italic" lengthAdjust="spacing" textLength="169" x="519" y="1115.332">&#171;repository&#187;</text><text fill="#000000" font-family="Chalkduster" font-size="24" lengthAdjust="spacing" textLength="289" x="459" y="1145.9619">Archival Repositories</text></g><g id="elem_GMN25"><path d="M504.5,1236.5612 L505.0605,1236.5612 L503.3951,1246.7411 L505.0154,1256.9211 L505.5658,1267.101 L502.5976,1277.281 L504.2928,1287.4609 L503.3627,1297.6409 L504.5,1307.8208 L504.5,1307.8208 L504.5,1306.7982 L514.4,1307.6391 L524.3,1305.9772 L534.2,1309.2972 L544.1,1306.1401 L554,1307.2934 L563.9,1308.9727 L573.8,1307.5921 L583.7,1308.0028 L593.6,1307.7356 L603.5,1308.2969 L613.4,1308.4585 L623.3,1309.3827 L633.2,1309.6103 L643.1,1309.6322 L653,1308.4998 L662.9,1309.0571 L672.8,1309.6934 L682.7,1305.8977 L692.6,1309.6302 L702.5,1307.8208 L702.5,1307.8208 L701.7093,1307.8208 L703.9235,1297.6109 L701.1799,1287.4009 L702.3173,1277.191 L704.4776,1266.981 L702.37,1256.7711 L702.5,1246.5612 L702.5662,1246.6273 L700.7128,1244.774 L698.7616,1242.8228 L696.4975,1240.5587 L694.6805,1238.7417 L692.5,1236.5612 L692.5,1235.0347 L683.0556,1237.3195 L673.6111,1238.023 L664.1667,1237.7466 L654.7222,1238.1959 L645.2778,1235.2729 L635.8333,1234.822 L626.3889,1234.9041 L616.9444,1236.4041 L607.5,1236.5612 L606.9766,1236.5345 L608.8148,1226.8247 L606.0348,1216.88 L605.0864,1207.0284 L606.1079,1197.2771 L603.2241,1187.3271 L603.1175,1177.5183 L605.7283,1167.8478 L603.5,1157.9312 L604.6603,1157.9902 L604.9561,1167.8594 L601.643,1177.5451 L602.8501,1187.4607 L603.0724,1197.3262 L599.7419,1207.0109 L600.2447,1216.8907 L600.3355,1226.7495 L599.5,1236.5612 L599.5,1238.2992 L590,1236.55 L580.5,1237.7947 L571,1235.0844 L561.5,1234.7551 L552,1237.9041 L542.5,1234.6493 L533,1237.9184 L523.5,1237.1122 L514,1235.8467 L504.5,1236.5612 L504.5,1236.5612 " fill="none" style="stroke:#181818;stroke-width:4.0;"/><path d="M692.5,1236.5612 L692.6868,1236.5612 L692.1317,1238.5612 L692.6718,1240.5612 L692.8553,1242.5612 L691.8659,1244.5612 L692.5,1246.5612 L692.5,1246.4921 L694.5,1246.1821 L696.5,1246.2203 L698.5,1246.5006 L700.5,1245.9466 L702.5,1246.5612 L702.848,1246.9091 L700.1038,1244.165 L698.3757,1242.4369 L696.7715,1240.8327 L694.4461,1238.5072 L692.5,1236.5612 " fill="none" style="stroke:#181818;stroke-width:4.0;"/><text fill="#000000" font-family="Chalkduster" font-size="24" lengthAdjust="spacing" textLength="138" x="510.5" y="1265.402">Managed/</text><text fill="#000000" font-family="Chalkduster" font-size="24" lengthAdjust="spacing" textLength="177" x="510.5" y="1296.0319">secure assets</text></g><g id="elem_GMN28"><path d="M182.5,1236.5612 L183.0605,1236.5612 L181.3951,1246.7411 L183.0154,1256.9211 L183.5658,1267.101 L180.5976,1277.281 L182.2928,1287.4609 L181.3627,1297.6409 L182.5,1307.8208 L182.5,1307.8208 L182.5,1306.7982 L192.3519,1307.6391 L202.2037,1305.9772 L212.0556,1309.2972 L221.9074,1306.1401 L231.7593,1307.2934 L241.6111,1308.9727 L251.463,1307.5921 L261.3148,1308.0028 L271.1667,1307.7356 L281.0185,1308.2969 L290.8704,1308.4585 L300.7222,1309.3827 L310.5741,1309.6103 L320.4259,1309.6322 L330.2778,1308.4998 L340.1296,1309.0571 L349.9815,1309.6934 L359.8333,1305.8977 L369.6852,1309.6302 L379.537,1307.0302 L389.3889,1309.2443 L399.2407,1306.5008 L409.0926,1307.6382 L418.9444,1309.7984 L428.7963,1307.6909 L438.6481,1308.1016 L448.5,1307.8208 L448.5,1307.8208 L449.403,1307.8208 L449.61,1297.6109 L448.4896,1287.4009 L449.2659,1277.191 L446.9736,1266.981 L449.2584,1256.7711 L448.5,1246.5612 L448.8446,1246.9057 L446.7794,1244.8406 L444.8853,1242.9465 L442.1964,1240.2575 L440.0901,1238.1512 L438.5,1236.5612 L438.5,1234.9041 L428.5833,1236.4041 L418.6667,1236.0371 L408.75,1238.3783 L398.8333,1236.0954 L388.9167,1235.6464 L379,1237.1699 L369.0833,1234.7829 L359.1667,1235.1768 L349.25,1238.2917 L339.3333,1237.7229 L329.4167,1238.5198 L319.5,1236.5612 L318.6436,1236.5067 L319.6828,1226.1285 L319.7379,1215.6877 L316.2428,1205.0212 L316.5782,1194.5983 L316.5019,1184.1491 L315.5,1173.6412 L317.2345,1173.7514 L314.8222,1184.1271 L315.3977,1194.6928 L312.0262,1205.0075 L311.031,1215.4732 L313.5069,1226.1597 L311.5,1236.5612 L311.5,1234.6493 L301.5769,1237.9184 L291.6538,1237.1122 L281.7308,1235.8467 L271.8077,1235.6178 L261.8846,1237.7845 L251.9615,1235.7629 L242.0385,1238.1395 L232.1154,1235.0872 L222.1923,1238.2076 L212.2692,1237.8526 L202.3462,1237.2144 L192.4231,1236.6871 L182.5,1236.5612 L182.5,1236.5612 " fill="none" style="stroke:#181818;stroke-width:4.0;"/><path d="M438.5,1236.5612 L438.6868,1236.5612 L438.1317,1238.5612 L438.6718,1240.5612 L438.8553,1242.5612 L437.8659,1244.5612 L438.5,1246.5612 L438.5,1246.4921 L440.5,1246.1821 L442.5,1246.2203 L444.5,1246.5006 L446.5,1245.9466 L448.5,1246.5612 L448.848,1246.9091 L446.1038,1244.165 L444.3757,1242.4369 L442.7715,1240.8327 L440.4461,1238.5072 L438.5,1236.5612 " fill="none" style="stroke:#181818;stroke-width:4.0;"/><text fill="#000000" font-family="Chalkduster" font-size="24" lengthAdjust="spacing" textLength="177" x="188.5" y="1265.402">Unmanaged/</text><text fill="#000000" font-family="Chalkduster" font-size="24" lengthAdjust="spacing" textLength="245" x="188.5" y="1296.0319">non-secure assets</text></g><!--link an to colr--><g id="link_an_colr"><path d="M397.9911,424.8979 L398.2091,425.0741 L403.6723,432.109 L410.413,440.1767 L416.7377,447.9081 L421.6943,454.5335 L428.4641,462.6247 L434.2131,469.8908 L440.7661,477.8067 " fill="none" style="stroke:#181818;stroke-width:4.0;"/><polygon fill="#181818" points="394.22,420.2312,394.2877,420.2493,394.5957,422.0983,395.3005,424.0535,395.876,425.9741,396.0267,427.7811,396.7656,429.7454,396.7398,429.7426,396.7436,428.6053,396.8773,427.4818,397.1012,426.3678,397.014,425.2208,397.3626,424.1201,397.3821,424.3036,398.4655,424.0306,399.6058,424.2934,400.753,424.6215,401.8598,424.5693,402.9879,424.7172,402.9982,424.7374,401.2295,423.8105,399.5078,422.9757,397.7635,422.0965,396.0625,421.3022,394.22,420.2312" style="stroke:#181818;stroke-width:4.0;"/><polygon fill="#181818" points="444.54,482.4712,444.6077,482.4893,443.8964,480.5328,443.5817,478.6828,443.1379,476.7981,442.2693,474.7994,441.9887,472.9585,441.963,472.9558,441.7286,474.0687,441.6241,475.1953,441.6099,476.3315,441.2846,477.4348,441.395,478.5841,441.4144,478.7676,440.2479,478.2564,439.1379,478.2811,438.0348,478.3711,436.8916,478.0807,435.7694,477.9904,435.7798,478.0107,437.5187,478.8771,439.3047,479.8357,441.068,480.7498,442.8747,481.7489,444.54,482.4712" style="stroke:#181818;stroke-width:4.0;"/></g><!--link int to colr--><g id="link_int_colr"><path d="M504.1128,426.2113 L504.3921,426.2341 L502.7688,435.9064 L502.7829,445.7121 L502.2638,455.4743 L499.9913,465.0937 L500.1459,474.9109 " fill="none" style="stroke:#181818;stroke-width:4.0;"/><polygon fill="#181818" points="504.6,420.2312,504.6615,420.2647,503.5352,421.8941,502.7695,423.7202,501.8864,425.4823,500.6172,427.0336,499.8824,428.8766,499.8656,428.8569,500.6527,428.0359,501.5243,427.3144,502.4547,426.6621,503.1825,425.7714,504.194,425.2146,504.3347,425.3341,504.7663,425.941,505.6085,426.8966,506.5009,427.8948,507.1018,428.6454,507.856,429.5262,507.8775,429.5338,507.1947,427.6637,506.6098,425.8279,505.9776,423.9755,505.4354,422.1547,504.6,420.2312" style="stroke:#181818;stroke-width:4.0;"/><polygon fill="#181818" points="499.66,480.8912,499.7215,480.9247,500.4819,479.0957,501.6029,477.4634,502.6064,475.7671,503.2238,473.8601,504.3758,472.2447,504.359,472.2249,503.4215,472.8689,502.5687,473.6124,501.7746,474.4251,500.7779,474.9994,500.0649,475.9076,500.2056,476.0271,499.1723,474.9094,498.5495,474.1406,497.9769,473.4143,497.1128,472.4404,496.402,471.5968,496.4235,471.6043,497.0436,473.4521,497.7614,475.3342,498.432,477.1998,499.1926,479.0969,499.66,480.8912" style="stroke:#181818;stroke-width:4.0;"/></g><!--reverse link cur to coll--><g id="link_cur_coll"><path d="M362.688,241.6824 L362.7397,241.7602 L360.3686,243.0013 L358.3004,244.6985 L356.1335,246.2472 L353.6423,247.3074 L351.6001,249.0438 L351.5798,249.0159 L349.2815,250.5001 L347.0859,252.1249 L344.9616,253.8475 L342.5915,255.2331 L340.5657,257.0908 L340.7209,257.2817 L338.2286,258.6298 L336.1894,260.5353 L334.2055,262.5088 L331.9,264.0866 L329.7636,265.8725 L329.7841,265.8948 L327.6758,267.7752 L325.661,269.7571 L323.6011,271.69 L321.6272,273.7164 L319.3728,275.438 L319.5898,275.6426 L317.6323,277.7248 L315.5348,279.6751 L313.6423,281.8185 L311.7593,283.9709 L309.5721,285.8365 L309.3219,285.6362 L308.0012,288.2811 L305.8566,290.2664 L304.3383,292.7532 L302.1751,294.7235 L300.5405,297.1171 L300.5151,297.1003 L299.1986,299.7414 L297.2889,301.9899 L295.7293,304.4701 L294.199,306.9697 L292.4568,309.329 L292.6204,309.4153 L291.0639,311.9666 L289.787,314.6654 L288.0577,317.1256 L287.0032,319.9417 L285.5,322.5212 L285.7234,322.6183 L284.7456,324.7517 L283.8787,326.9334 L282.4964,328.891 L281.4919,331.0128 L280.8221,333.2802 L280.5642,333.1815 L279.9594,335.4619 L279.0639,337.631 L278.5899,339.9615 L277.3962,342.0165 L276.6304,344.2353 L276.4858,344.1869 L275.9821,346.4939 L274.8602,348.5942 L274.178,350.8415 L273.9258,353.2326 L272.9077,355.3675 L273.0937,355.4214 L272.5672,357.7165 L271.4621,359.844 L271.0816,362.1813 L270.5433,364.473 L269.6371,366.6581 L269.4334,366.6075 L269.0287,368.9338 L268.5573,371.2435 L268.217,373.5857 L267.367,375.8015 L266.8017,378.0879 L267.0029,378.13 L266.0773,380.3475 L265.5401,382.6464 L265.5703,385.0639 L264.5559,387.2629 L264.3843,389.6382 L264.6072,389.6768 L264.0716,391.9842 L263.4605,394.2786 L263.0196,396.6025 L262.9722,398.9944 L262.3681,401.29 L262.2363,401.2717 L262.3022,403.6731 L261.4719,405.9499 L261.6606,408.3685 L261.2756,410.7072 L260.7359,413.0244 L260.8442,413.036 L260.5038,415.3863 L260.551,417.7781 L260.2481,420.1324 L259.7987,422.471 L259.4709,424.8226 L259.5898,424.8318 L259.2302,427.1867 L259.4224,429.5843 L258.9906,431.9336 L258.8155,434.3028 L258.556,436.6655 L258.286,436.6523 L258.2598,439.0305 L258.5589,441.4246 L258.3977,443.7962 L258.0716,446.1596 L257.9743,448.5343 L257.8311,448.5311 L257.8239,450.9073 L257.5631,453.2778 L257.9992,455.6639 L258.0904,458.0423 L257.7086,460.4101 L257.9426,460.4108 L258.0242,462.7838 L257.6613,465.1555 L257.7675,467.5286 L257.5632,469.9007 L257.7421,472.274 L257.8683,472.2774 L257.9149,474.6435 L258.1138,477.0137 L257.8295,479.3711 L257.9349,481.7388 L258.0578,484.107 L258.2546,484.1167 L258.4258,486.4761 L258.0626,488.8091 L258.3202,491.1727 L258.5887,493.5369 L258.6386,495.8903 L258.3678,495.8711 L258.961,498.2443 L259.0845,500.5842 L259.0913,502.9159 L259.3648,505.2665 L259.4675,507.6049 L259.79,507.6343 L259.541,509.9177 L260.031,512.2684 L260.23,514.5927 L260.3668,516.9112 L260.5276,519.232 L260.5898,519.2388 L260.8326,521.5416 L260.7616,523.8097 L261.1151,526.1247 L261.3431,528.4259 L261.8018,530.7525 L261.83,530.7562 L262.135,533.0366 L262.4617,535.3198 L262.5564,537.5731 L262.9492,539.8648 L263.2732,542.1477 L263.2204,542.14 L263.8572,544.4351 L264.1214,546.6756 L264.0507,548.8669 L264.5624,551.1437 L264.9248,553.3986 L264.6716,553.3572 L265.4142,555.6368 L265.9176,557.8774 L266.2525,560.0903 L266.1856,562.2375 L266.7395,564.4863 L266.9425,564.5228 L266.8068,566.609 L267.6115,568.8643 L267.7852,571.0061 L268.3506,573.2183 L268.7005,575.3919 L268.8053,575.4123 L269.3244,577.573 L269.2225,579.6124 L270.1619,581.8551 L270.4502,583.9707 L270.7905,586.0964 L270.9451,586.1289 L271.5563,588.2616 L271.6738,590.2907 L272.1881,592.4032 L272.6452,594.5036 L272.9928,596.581 L273.0782,596.6007 L273.9271,600.6277 L275.1698,604.7456 L275.5326,608.6603 L276.9761,612.8246 L277.6659,616.8148 L277.3973,616.7457 L278.4169,620.5804 L279.6503,624.4701 L280.6288,628.2942 L281.3881,632.062 L282.5838,635.9419 L282.7608,635.9917 L283.6357,639.5289 L284.9054,643.1771 L285.8852,646.7437 L286.4134,650.1833 L287.6105,653.8111 L287.4413,653.7597 L288.5554,657.0865 L289.7615,660.4411 L290.7816,663.7392 L291.7382,667.0181 L292.61,670.2712 " fill="none" style="stroke:#181818;stroke-width:4.0;"/><polygon fill="#181818" points="367.75,238.4612,367.7604,238.5305,365.7815,238.616,363.8634,239.1078,361.9254,239.4673,359.9225,239.3918,358.0095,239.9184,358.0039,239.8931,359.0831,240.025,360.1907,240.2845,361.3179,240.6325,362.3773,240.6751,363.5317,241.1455,363.7118,241.1856,363.0812,242.2044,362.9765,243.3401,362.936,244.4901,362.5221,245.5571,362.3045,246.6677,362.3235,246.6803,363.3848,245.0205,364.5323,243.418,365.6382,241.7878,366.8236,240.2104,367.75,238.4612" style="stroke:#181818;stroke-width:4.0;"/></g><!--link cur to an--><g id="link_cur_an"><path d="M393.5384,267.6085 L393.8012,267.7058 L389.3932,277.2138 L386.5257,287.2922 L383.1566,297.1849 L378.1377,306.4668 L375.4025,316.5942 " fill="none" style="stroke:#181818;stroke-width:4.0;"/><polygon fill="#181818" points="395.62,261.9812,395.6702,262.0301,394.1463,263.2954,392.9166,264.8474,391.591,266.3061,389.9505,267.4578,388.7461,269.0345,388.7352,269.0109,389.7145,268.4325,390.7484,267.9728,391.8201,267.5955,392.7612,266.934,393.8853,266.6706,394.053,266.7477,394.1672,267.6107,394.771,268.6988,395.4345,269.8144,395.7504,270.7701,396.2492,271.8099,396.2719,271.8114,396.1127,269.8435,396.0569,267.8822,395.9512,265.9177,395.9407,263.9594,395.62,261.9812" style="stroke:#181818;stroke-width:4.0;"/><polygon fill="#181818" points="373.32,322.2212,373.3702,322.2701,374.5961,320.7143,376.1162,319.4453,377.5405,318.0829,378.6498,316.4135,380.1951,315.169,380.1843,315.1455,379.1078,315.5125,378.0859,315.9981,377.1018,316.5662,375.9871,316.85,375.0555,317.532,375.2231,317.6091,374.392,316.4163,374.0504,315.4486,373.7685,314.5083,373.1391,313.4083,372.6925,312.3923,372.7152,312.3938,372.8074,314.3574,373.0029,316.3276,373.1485,318.2947,373.3893,320.2678,373.32,322.2212" style="stroke:#181818;stroke-width:4.0;"/></g><!--link an to int--><g id="link_an_int"><path d="M414.99,371.3412 L414.99,371.4346 L419.432,371.157 L423.874,371.4271 L428.316,371.5188 L432.758,371.0241 L437.2,371.3412 " fill="none" style="stroke:#181818;stroke-width:4.0;"/><polygon fill="#181818" points="408.99,371.3412,409.0185,371.4052,410.7339,372.015,412.6162,373,414.4441,373.8629,416.0934,374.3239,417.99,375.3412,417.9717,375.3228,417.0895,374.4406,416.2996,373.6508,415.5739,372.9251,414.627,371.9782,413.99,371.3412,414.1205,371.4717,414.6414,370.3926,415.5434,369.6945,416.4918,369.043,417.1698,368.1209,417.99,367.3412,417.9992,367.3619,416.1857,368.1314,414.4142,368.9955,412.6224,369.814,410.8693,370.7196,408.99,371.3412" style="stroke:#181818;stroke-width:4.0;"/><polygon fill="#181818" points="443.2,371.3412,443.2285,371.4052,441.3439,370.415,439.6262,369.8,437.8541,369.0629,435.9034,367.9239,434.2,367.3412,434.1817,367.3228,434.8995,368.0406,435.7096,368.8508,436.5839,369.7251,437.237,370.3782,438.2,371.3412,438.3305,371.4717,437.2514,371.9926,436.5534,372.8945,435.9018,373.843,434.9798,374.5209,434.2,375.3412,434.2092,375.3619,435.9957,374.5314,437.8242,373.7955,439.6324,373.014,441.4793,372.3196,443.2,371.3412" style="stroke:#181818;stroke-width:4.0;"/></g><!--reverse link cur to int--><g id="link_cur_int"><path d="M445.8918,267.1112 L446.1314,267.2565 L450.9908,276.0097 L457.2549,285.6148 L463.0615,294.9425 L467.364,303.3579 L473.66,312.9824 L479.32,322.2212 " fill="none" style="stroke:#181818;stroke-width:4.0;"/><polygon fill="#181818" points="442.78,261.9812,442.8495,261.99,442.8925,263.9176,443.343,265.8971,443.6607,267.8597,443.5422,269.7666,444.0277,271.7507,444.0025,271.7445,444.1587,270.618,444.4417,269.5225,444.8129,268.4486,444.8802,267.3002,445.3731,266.2562,445.417,266.4354,446.4221,266.3212,447.5553,266.7303,448.7041,267.2033,449.762,267.3048,450.8677,267.6016,450.8806,267.6203,449.244,266.4688,447.6666,265.4023,446.0606,264.2948,444.5089,263.2656,442.78,261.9812" style="stroke:#181818;stroke-width:4.0;"/></g><!--reverse link coll to new--><g id="link_coll_new"><path d="M315.5,804.9112 L315.7802,804.9112 L314.9476,814.7712 L315.7577,824.6312 L316.0329,834.4912 L314.5488,844.3512 L315.3964,854.2112 L314.9313,864.0712 L314.9887,873.9312 L315.4091,883.7912 L314.5782,893.6512 L316.2382,903.5112 L314.6596,913.3712 L315.2363,923.2312 L316.0759,933.0912 L315.3856,942.9512 L315.591,952.8112 L315.4574,962.6712 L315.738,972.5312 L315.8188,982.3912 L316.2809,992.2512 L316.3947,1002.1112 L316.4057,1011.9712 L315.8395,1021.8312 L316.1181,1031.6912 L316.4363,1041.5512 L315.5,1051.4112 " fill="none" style="stroke:#181818;stroke-width:4.0;"/><polygon fill="#181818" points="315.5,798.9112,315.564,798.9396,314.5738,800.6551,313.9589,802.5373,313.2217,804.3653,312.0827,806.0146,311.5,807.9112,311.4817,807.8928,312.1995,807.0106,313.0096,806.2208,313.8839,805.4951,314.537,804.5482,315.5,803.9112,315.6305,804.0417,316.1514,804.5626,317.0534,805.4645,318.0018,806.413,318.6798,807.0909,319.5,807.9112,319.5208,807.9204,318.6903,806.1068,317.9544,804.3353,317.1728,802.5435,316.4784,800.7905,315.5,798.9112" style="stroke:#181818;stroke-width:4.0;"/></g><!--reverse link colr to repo--><g id="link_colr_repo"><path d="M494.5,615.5612 L494.7802,615.5612 L493.9476,625.3928 L494.7577,635.2245 L495.0329,645.0562 L493.5488,654.8878 L494.3964,664.7195 L493.9313,674.5512 L493.9887,684.3828 L494.4091,694.2145 L493.5782,704.0462 L495.2382,713.8778 L493.6596,723.7095 L494.5,733.5412 L494.2363,733.5412 L495.0759,743.638 L494.3856,753.7348 L494.591,763.8316 L494.4574,773.9284 L494.738,784.0253 L494.8188,794.1221 L495.2809,804.2189 L495.3947,814.3157 L495.4057,824.4125 L494.8395,834.5093 L495.1181,844.6062 L495.4363,854.703 L493.5384,864.7998 L495.4047,874.8966 L494.1047,884.9934 L495.2117,895.0903 L493.84,905.1871 L494.4087,915.2839 L495.4888,925.3807 L494.435,935.4775 L494.6404,945.5743 L494.5,955.6712 L494.65,955.6831 L494.9386,958.8839 L495.0067,962.0672 L495.3899,965.2755 L495.2633,968.4433 L495.7711,971.6616 L495.8943,971.69 L496.7261,974.832 L497.3988,977.9374 L498.1894,981.0699 L498.4323,984.0763 L499.3591,987.2402 L499.0871,987.1398 L500.2133,990.1599 L501.5611,993.2618 L502.617,996.2559 L504.0964,999.4064 L504.9256,1002.3168 L504.8561,1002.2822 L506.2305,1005.1458 L507.8992,1008.1558 L508.9844,1010.8754 L510.4846,1013.8015 L512.1325,1016.8012 L512.378,1016.9525 L513.9991,1019.6631 L515.814,1022.4932 L517.1162,1025.0072 L519.0605,1027.9171 L520.6416,1030.603 L520.8538,1030.7573 L522.3664,1033.0853 L524.3964,1035.7896 L526.3707,1038.4534 L528.4544,1041.1966 L530.1147,1043.6321 L530.1133,1043.6309 L532.2926,1046.1966 L533.9649,1048.3413 L535.9424,1050.7395 L538.366,1053.508 L540.2136,1055.7982 L539.9798,1055.5817 L542.4568,1058.1945 L544.4355,1060.3458 L546.3581,1062.4451 L548.4074,1064.6617 L550.6,1067.0112 " fill="none" style="stroke:#181818;stroke-width:4.0;"/><polygon fill="#181818" points="494.5,609.5612,494.564,609.5896,493.5738,611.3051,492.9589,613.1873,492.2217,615.0153,491.0827,616.6646,490.5,618.5612,490.4817,618.5428,491.1995,617.6606,492.0096,616.8708,492.8839,616.1451,493.537,615.1982,494.5,614.5612,494.6305,614.6917,495.1514,615.2126,496.0534,616.1145,497.0018,617.063,497.6798,617.7409,498.5,618.5612,498.5208,618.5704,497.6903,616.7568,496.9544,614.9853,496.1728,613.1935,495.4784,611.4405,494.5,609.5612" style="stroke:#181818;stroke-width:4.0;"/><text fill="#000000" font-family="Chalkduster" font-size="24" lengthAdjust="spacing" textLength="77" x="495.5" y="886.512">Reuse</text></g><!--link cur to repo--><g id="link_cur_repo"><path d="M459.46,225.3112 L459.4881,225.4003 L461.8434,225.9034 L464.3633,226.9289 L466.8296,227.7842 L469.1198,228.0803 L471.6537,229.1506 L471.6425,229.1179 L474.1842,229.8601 L476.7823,230.7669 L479.4197,231.7883 L481.9218,232.4151 L484.6134,233.5945 L484.6998,233.8249 L487.2173,234.3459 L489.9871,235.5395 L492.7877,236.8152 L495.4091,237.6134 L498.1248,238.6627 L498.1363,238.6908 L500.8891,239.792 L503.6946,241.0209 L506.4746,242.1883 L509.3031,243.4731 L511.9736,244.3749 L512.0974,244.6462 L514.8933,245.9247 L517.6094,247.0282 L520.4424,248.3879 L523.2808,249.7596 L525.9456,250.7509 L525.8003,250.4652 L528.8585,252.4315 L531.4383,253.4572 L534.3818,255.198 L536.9507,256.2023 L539.8267,257.8103 L539.8115,257.7839 L542.7054,259.649 L545.2462,260.8966 L547.9954,262.5085 L550.762,264.1511 L553.4024,265.573 L553.5033,265.7281 L556.0128,267.2687 L558.6945,269.0743 L561.0976,270.4511 L563.9164,272.4675 L566.4588,274.0587 L566.6048,274.2537 L569.0417,276.0625 L571.5511,277.9681 L573.7236,279.4239 L576.1431,281.2094 L578.7813,283.2871 L578.5991,283.0796 L581.039,285.2656 L583.2736,287.2178 L585.806,289.5091 L587.8298,291.2215 L590.156,293.278 L590.0453,293.1731 L592.2721,295.5024 L594.0259,297.3833 L596.116,299.5831 L598.5353,302.0949 L600.3685,304.0511 L600.5224,304.1686 L602.3952,306.5642 L603.7892,308.5943 L605.7829,311.0822 L607.6459,313.4704 L609.2045,315.6262 L609.0233,315.5202 L610.6168,318.084 L612.151,320.6131 L613.8019,323.2104 L614.9993,325.5427 L616.4499,328.023 L616.6401,328.1011 L617.3104,330.5771 L618.3478,333.2039 L619.9213,336.051 L620.5077,338.4925 L621.8905,341.2612 L622.1103,341.3146 L622.664,344.1028 L623.1433,346.873 L623.7905,349.6839 L624.8258,352.5889 L625.3119,355.3607 L625.1793,355.3502 L625.8118,358.3776 L625.5423,361.3335 L626.2983,364.3707 L626.477,367.3621 L626.5,370.3412 L626.8266,370.3412 L626.563,380.262 L627.4688,390.1829 L627.3181,400.1037 L626.7257,410.0246 L626.8576,419.9454 L626.3263,429.8662 L627.4553,439.7871 L626.7065,449.7079 L626.7301,459.6288 L625.6889,469.5496 L625.9597,479.4705 L627.2077,489.3913 L627.073,499.3122 L626.4428,509.233 L626.0704,519.1539 L626.2081,529.0747 L625.5851,538.9956 L627.053,548.9164 L627.4861,558.8373 L627.2019,568.7581 L627.4266,578.679 L626.3177,588.5998 L626.6163,598.5207 L625.9832,608.4415 L626.8787,618.3623 L626.829,628.2832 L627.2365,638.204 L626.1938,648.1249 L626.3208,658.0457 L627.0913,667.9666 L627.2564,677.8874 L625.8166,687.8083 L626.2415,697.7291 L626.699,707.65 L625.6855,717.5708 L626.9712,727.4917 L626.844,737.4125 L626.3657,747.3334 L626.6897,757.2542 L627.4716,767.1751 L626.0828,777.0959 L626.92,787.0168 L626.8809,796.9376 L626.6544,806.8584 L626.6879,816.7793 L626.6513,826.7001 L625.6678,836.621 L625.9656,846.5418 L625.8846,856.4627 L626.5851,866.3835 L626.6175,876.3044 L626.7157,886.2252 L626.112,896.1461 L626.41,906.0669 L626.3397,915.9878 L627.2691,925.9086 L627.0688,935.8295 L625.8526,945.7503 L626.5,955.6712 L626.4676,955.6706 L626.1933,958.4957 L626.5278,961.3317 L626.6198,964.1634 L626.5412,966.992 L626.2491,969.8168 L626.0557,969.8069 L626.3122,972.6229 L625.6337,975.3912 L625.9094,978.2082 L625.5448,980.9924 L625.5348,983.7948 L625.5777,983.7983 L625.4174,986.5553 L625.2961,989.3156 L624.5441,992.0245 L624.8497,994.8194 L624.4152,997.5541 L624.4939,997.5627 L624.2787,1000.2692 L624.1587,1002.986 L623.5372,1005.6482 L623.3188,1008.3543 L622.9479,1011.0438 L623.042,1011.0564 L622.6834,1013.6892 L622.2448,1016.3114 L622.2069,1018.987 L621.2738,1021.5433 L621.191,1024.2129 L621.4393,1024.2515 L620.5192,1026.7298 L620.1582,1029.295 L620.0154,1031.8941 L619.6125,1034.4528 L619.2023,1037.0104 L618.9865,1036.9727 L618.9509,1039.517 L618.3849,1041.9686 L618.2228,1044.4909 L617.7642,1046.9613 L617.0396,1049.3852 L616.8439,1049.3478 L616.4102,1051.7322 L616.0717,1054.1349 L615.8276,1056.5557 L615.3925,1058.9399 L614.7609,1061.2865 " fill="none" style="stroke:#181818;stroke-width:4.0;"/><polygon fill="#181818" points="613.59,1067.1712,613.6472,1067.2116,614.613,1065.4822,615.9144,1063.9898,617.1065,1062.4202,617.9392,1060.5969,619.2694,1059.1248,619.255,1059.1032,618.2497,1059.6351,617.3169,1060.2755,616.4346,1060.9914,615.3784,1061.4472,614.5657,1062.2673,614.7192,1062.3698,613.7625,1061.2098,613.2539,1060.3492,612.7999,1059.5251,612.0279,1058.4885,611.4232,1057.5636,611.4454,1057.5686,611.8462,1059.4828,612.348,1061.4197,612.801,1063.3457,613.3471,1065.2926,613.59,1067.1712" style="stroke:#181818;stroke-width:4.0;"/><text fill="#000000" font-family="Chalkduster" font-size="24" lengthAdjust="spacing" textLength="112" x="627.5" y="727.882">Deposit/</text><text fill="#000000" font-family="Chalkduster" font-size="24" lengthAdjust="spacing" textLength="94" x="636.5" y="758.5119">Publish</text></g><!--SRC=[PLB1QYCn3BtxAxGvBEt1ANiTGY2qbnvsAONU0elYKHDJHmwsd3IK_llAdiniinkOWvxUUvQUyisp2wMdttlaCypdTpqAse0Rc-KSQ2xlOenu2TJ1oea_Ul6KmJCyycl2BAauAOdWFhBGky3DZrjZJ28doDj0C7kcJ9ZS3hx3Wth3JsJSqfvOlXZE03FWN__5uXJJMpwWe-KIFepHNammkuyXgFMQRvXEjqtb5Fg_dQXacWXf8fI4GWDS4epmeyw-dJgUPMoi6CCvAzpcOsEg6IniETXbhR-MLLQ70Ljh1VG5KrzPs3wUU10WQscJt-x4NZJwmU1G1URJNETtoNc8-JBVLV8V1lJdGYmzp7x58mMuMpD7jZLsVwGrrwCsgQO6na2jDvZLVTKe6E2P3Z5xNNgyHb90xv16_DmE0P_wLfsnRQghjDNiODmaq_OrcavzzH0j1Zl6q6WTF0pEEkjJsGIVTyPm589D58bxYA-Ds5t-CBtoChcwCEPCalybwmGTlF1-OjS4hXH_0000]--></g></svg>