<?xml version="1.0" encoding="us-ascii" standalone="no"?><svg xmlns="http://www.w3.org/2000/svg" xmlns:xlink="http://www.w3.org/1999/xlink" contentStyleType="text/css" height="768px" preserveAspectRatio="none" style="width:859px;height:768px;background:#FFFFFF;" version="1.1" viewBox="0 0 859 768" width="859px" zoomAndPan="magnify"><defs/><g><text fill="#000000" font-family="Chalkduster" font-size="42" font-weight="bold" lengthAdjust="spacing" textLength="523" x="164" y="51.7215">An idealised  view of</text><text fill="#000000" font-family="Chalkduster" font-size="42" font-weight="bold" lengthAdjust="spacing" textLength="641" x="105" y="105.3238">a research data cycle with</text><text fill="#000000" font-family="Chalkduster" font-size="42" font-weight="bold" lengthAdjust="spacing" textLength="831" x="10" y="158.926">Archival Repository Infrastructure</text><!--cluster activities--><g id="cluster_activities"><polygon fill="#FFC7D8" points="129.135,191.0956,129.135,191.3058,139.1171,190.6813,149.0993,191.2889,159.0814,191.4953,169.0636,190.3822,179.0457,191.0179,189.0279,190.6691,199.01,190.7121,208.9921,191.0274,218.9743,190.4042,228.9564,191.6492,238.9386,190.4653,248.9207,190.8978,258.9029,191.5275,268.885,191.0098,278.8671,191.1638,288.8493,191.0636,298.8314,191.2741,308.8136,191.3347,318.7957,191.6813,328.7779,191.7666,338.76,191.7748,348.7421,191.3502,358.7243,191.5592,368.7064,191.7978,378.6886,190.3744,388.6707,191.7741,398.6529,190.7991,408.635,191.6294,418.6171,190.6006,428.5993,191.0271,438.5814,191.8372,448.5636,191.0468,458.5457,191.2009,468.5279,191.4342,478.51,191.5118,488.4921,191.0917,498.4743,191.3828,508.4564,190.5232,518.4386,191.38,528.4207,191.6438,538.4029,191.5401,548.385,191.7086,558.3671,190.6125,568.3493,190.4434,578.3314,190.4742,588.3136,191.0367,598.2957,190.8991,608.2779,191.777,618.26,190.9209,628.2421,190.7525,638.2243,191.3239,648.2064,190.4287,658.1886,190.5765,668.1707,191.7445,678.1529,191.5313,688.135,191.0956,688.2287,191.3218,688.4475,191.1429,688.8828,191.4868,689.271,191.7167,689.489,191.5359,689.9028,191.8278,689.8732,191.8156,690.088,192.1974,690.3964,192.6181,690.3408,192.8879,690.631,193.301,690.635,193.5956,690.0812,193.5956,689.9577,203.5173,691.1386,213.439,689.9181,223.3607,691.144,233.2824,690.8416,243.2042,690.3671,253.1259,690.2812,263.0476,691.0938,272.9693,690.3357,282.891,691.2269,292.8127,690.0823,302.7344,691.2524,312.6562,691.1193,322.5779,690.88,332.4996,690.6822,342.4213,691.3616,352.343,691.2486,362.2647,690.8043,372.1864,690.9032,382.1082,690.5047,392.0299,691.3515,401.9516,690.7899,411.8733,690.8076,421.795,690.0266,431.7167,690.2298,441.6384,691.1657,451.5602,691.0648,461.4819,690.5921,471.4036,690.3128,481.3253,690.4161,491.247,689.9488,501.1687,691.0497,511.0904,691.3746,521.0122,691.1614,530.9339,690.635,540.8556,690.849,540.9442,690.4464,541.1917,690.369,541.5738,690.0763,541.8668,690.1367,542.306,689.9028,542.6233,689.9342,542.6993,689.6197,542.9399,689.1664,542.8455,688.825,543.0213,688.5451,543.3457,688.135,543.3556,688.135,543.9229,678.1529,542.8431,668.1707,543.1617,658.1886,543.5048,648.2064,542.7447,638.2243,543.709,628.2421,543.6136,618.26,543.2548,608.2779,543.4978,598.2957,544.0843,588.3136,543.0427,578.3314,543.6706,568.3493,543.6412,558.3671,543.4714,548.385,543.4965,538.4029,543.4691,528.4207,542.7314,518.4386,542.9548,508.4564,542.894,498.4743,543.4194,488.4921,543.4437,478.51,543.5173,468.5279,543.0646,458.5457,543.2881,448.5636,543.2354,438.5814,543.9324,428.5993,543.7821,418.6171,542.87,408.635,543.2827,398.6529,542.7784,388.6707,543.644,378.6886,543.9641,368.7064,543.9001,358.7243,542.92,348.7421,543.8196,338.76,542.6128,328.7779,543.5557,318.7957,543.0563,308.8136,543.4523,298.8314,543.5959,288.8493,543.8277,278.8671,542.6357,268.885,543.8311,258.9029,543.5338,248.9207,543.7109,238.9386,544.1034,228.9564,543.3611,218.9743,543.5309,208.9921,543.569,199.01,543.5528,189.0279,543.3548,179.0457,544.0663,169.0636,542.7458,159.0814,543.9209,149.0993,542.7316,139.1171,542.8153,129.135,543.3556,129.1401,543.3679,128.7851,543.2178,128.365,542.9109,128.1271,543.0437,127.7347,542.8033,127.3672,542.6233,127.591,542.716,127.4262,542.3549,126.9363,541.8591,126.8053,541.5119,126.7417,541.1927,126.635,540.8556,126.9905,540.8556,127.038,530.9339,126.9362,521.0122,126.293,511.0904,127.2714,501.1687,127.2688,491.247,126.5877,481.3253,126.3959,471.4036,126.2336,461.4819,126.4204,451.5602,126.7724,441.6384,126.5666,431.7167,126.2172,421.795,127.1224,411.8733,126.1761,401.9516,127.1374,392.0299,127.0622,382.1082,127.0069,372.1864,127.3275,362.2647,126.3891,352.343,126.3344,342.4213,127.1539,332.4996,126.0381,322.5779,126.401,312.6562,126.7505,302.7344,126.7037,292.8127,126.2765,282.891,126.592,272.9693,127.3796,263.0476,127.2835,253.1259,126.0387,243.2042,126.7135,233.2824,126.1211,223.3607,126.6087,213.439,126.928,203.5173,126.635,193.5956,126.7643,193.6491,126.5767,193.1572,127.0512,192.9396,127.0769,192.536,127.0498,192.1105,127.3672,191.8278,127.3071,191.6828,127.7624,191.7819,128.1062,191.6119,128.4258,191.3834,128.6957,191.035,129.135,191.0956" style="stroke:#181818;stroke-width:4.0;"/><text fill="#000000" font-family="Chalkduster" font-size="24" font-style="italic" lengthAdjust="spacing" textLength="175" x="321.135" y="216.9365">&#171;workspace&#187;</text><text fill="#000000" font-family="Chalkduster" font-size="24" font-weight="bold" lengthAdjust="spacing" textLength="548" x="134.635" y="247.5663">Research &amp; Data Management Activities</text></g><!--cluster infrastructure--><g id="cluster_infrastructure"><polygon fill="none" points="214.135,607.3556,214.135,607.5658,224.0468,606.9413,233.9585,607.5489,243.8703,607.7553,253.7821,606.6422,263.6938,607.2779,273.6056,606.9291,283.5174,606.9721,293.4291,607.2874,303.3409,606.6642,313.2526,607.9092,323.1644,606.7253,333.0762,607.1578,342.9879,607.7875,352.8997,607.2698,362.8115,607.4238,372.7232,607.3236,382.635,607.5341,392.5468,607.5947,402.4585,607.9413,412.3703,608.0266,422.2821,608.0348,432.1938,607.6102,442.1056,607.8192,452.0174,608.0578,461.9291,606.6344,471.8409,608.0341,481.7526,607.0591,491.6644,607.8894,501.5762,606.8606,511.4879,607.2871,521.3997,608.0972,531.3115,607.3068,541.2232,607.4609,551.135,607.3556,551.1782,607.4599,551.5416,607.6302,551.8416,607.6473,552.2323,607.8834,552.4762,607.7651,552.9028,608.0878,552.9903,608.1241,553.218,608.5113,553.3326,608.8516,553.5309,609.2267,553.3398,609.4404,553.635,609.8556,552.9828,609.8556,553.0136,619.8729,553.5761,629.8902,553.4385,639.9076,554.3164,649.9249,553.4603,659.9422,553.2919,669.9596,553.8633,679.9769,552.9682,689.9942,553.1159,700.0116,554.284,710.0289,554.0707,720.0462,554.3695,730.0636,553.3132,740.0809,553.9542,750.0982,553.635,760.1156,553.8168,760.1909,553.3431,760.4089,553.3126,760.8105,553.2345,761.1923,553.2499,761.6129,552.9028,761.8833,552.9022,761.8821,552.6082,762.1722,552.125,762.0057,551.7557,762.1141,551.5528,762.6242,551.135,762.6156,551.135,761.8986,541.2232,763.1245,531.3115,762.8222,521.3997,762.3477,511.4879,762.2618,501.5762,763.0743,491.6644,762.3163,481.7526,763.2074,471.8409,762.0628,461.9291,763.233,452.0174,763.0999,442.1056,762.8606,432.1938,762.6628,422.2821,763.3422,412.3703,763.2292,402.4585,762.7848,392.5468,762.8838,382.635,762.4853,372.7232,763.332,362.8115,762.7704,352.8997,762.7882,342.9879,762.0072,333.0762,762.2104,323.1644,763.1463,313.2526,763.0453,303.3409,762.5727,293.4291,762.2934,283.5174,762.3967,273.6056,761.9294,263.6938,763.0303,253.7821,763.3551,243.8703,763.142,233.9585,763.3105,224.0468,762.4789,214.135,762.6156,214.1461,762.6424,213.732,762.3498,213.4641,762.4102,213.1058,762.2522,212.7912,762.1999,212.3672,761.8833,212.2965,761.8541,212.1794,761.5127,212.2109,761.2328,212.1026,760.8951,211.6236,760.4038,211.635,760.1156,211.4411,760.1156,211.7843,750.0982,211.0242,740.0809,211.9884,730.0636,211.893,720.0462,211.5342,710.0289,211.7772,700.0116,212.3637,689.9942,211.3221,679.9769,211.95,669.9596,211.9206,659.9422,211.7508,649.9249,211.7759,639.9076,211.7485,629.8902,211.0108,619.8729,211.635,609.8556,211.5116,609.8045,211.6393,609.4432,211.9475,609.1566,212.1015,608.8062,212.2706,608.462,212.3672,608.0878,212.3301,607.9982,212.7122,607.9206,213.059,607.7579,213.5015,607.8261,213.8359,607.6334,214.135,607.3556" style="stroke:#181818;stroke-width:4.0;"/><text fill="#000000" font-family="Chalkduster" font-size="24" font-weight="bold" lengthAdjust="spacing" textLength="184" x="290.635" y="633.1965">Infrastucture</text></g><!--entity coll--><g id="elem_coll"><polygon fill="none" points="566.6792,285.0415,565.5065,286.6438,564.1195,288.9906,562.1358,290.5722,560.0513,291.4371,558.3892,291.5122,556.253,290.4305,554.2373,289.7239,552.7074,288.2892,551.9049,286.6467,551.4289,285.3389,550.9627,283.6306,550.2059,282.1607,550.7875,280.7254,551.297,279.1532,553.209,277.9097,554.5542,276.2964,556.2193,275.7606,558.1987,275.2993,560.7371,275.5734,562.1274,276.2291,563.7439,276.5263,565.7093,278.5399,566.3945,280.6657,566.6921,282.1162,566.355,284.5064" style="stroke:#8B0000;stroke-width:4.0;"/><path d="M558.635,291.0956 L558.8218,291.0956 L558.2667,296.4956 L558.8068,301.8956 L558.9903,307.2956 L558.0009,312.6956 L558.635,318.0956 M545.635,299.0956 L545.635,299.0265 L550.835,298.7165 L556.035,298.7547 L561.235,299.035 L566.435,298.481 L571.635,299.0956 M558.635,318.0956 L559.0069,318.4179 L555.6116,320.7287 L553.3022,323.9805 L551.1251,327.347 L548.1774,330.0456 L545.635,333.0956 M558.635,318.0956 L558.6808,318.1353 L561.2135,321.077 L563.9549,324.1995 L566.5956,327.2348 L569.4284,330.4365 L571.635,333.0956 " fill="none" style="stroke:#8B0000;stroke-width:4.0;"/><text fill="#000000" font-family="Chalkduster" font-size="24" lengthAdjust="spacing" textLength="99" x="509.135" y="361.9365">Collect</text></g><!--entity cur--><g id="elem_cur"><polygon fill="none" points="348.6792,285.0415,347.5065,286.6438,346.1195,288.9906,344.1358,290.5722,342.0513,291.4371,340.3892,291.5122,338.253,290.4305,336.2373,289.7239,334.7074,288.2892,333.9049,286.6467,333.4289,285.3389,332.9627,283.6306,332.2059,282.1607,332.7875,280.7254,333.297,279.1532,335.209,277.9097,336.5542,276.2964,338.2193,275.7606,340.1987,275.2993,342.7371,275.5734,344.1274,276.2291,345.7439,276.5263,347.7093,278.5399,348.3945,280.6657,348.6921,282.1162,348.355,284.5064" style="stroke:#8B0000;stroke-width:4.0;"/><path d="M340.635,291.0956 L340.8218,291.0956 L340.2667,296.4956 L340.8068,301.8956 L340.9903,307.2956 L340.0009,312.6956 L340.635,318.0956 M327.635,299.0956 L327.635,299.0265 L332.835,298.7165 L338.035,298.7547 L343.235,299.035 L348.435,298.481 L353.635,299.0956 M340.635,318.0956 L341.0069,318.4179 L337.6116,320.7287 L335.3022,323.9805 L333.1251,327.347 L330.1774,330.0456 L327.635,333.0956 M340.635,318.0956 L340.6808,318.1353 L343.2135,321.077 L345.9549,324.1995 L348.5956,327.2348 L351.4284,330.4365 L353.635,333.0956 " fill="none" style="stroke:#8B0000;stroke-width:4.0;"/><text fill="#000000" font-family="Chalkduster" font-size="24" lengthAdjust="spacing" textLength="267" x="207.135" y="361.9365">Curate &amp; Integrate</text></g><!--entity int--><g id="elem_int"><polygon fill="none" points="421.6792,443.6715,420.5065,445.2738,419.1195,447.6206,417.1358,449.2022,415.0513,450.0671,413.3892,450.1422,411.253,449.0605,409.2373,448.3539,407.7074,446.9192,406.9049,445.2767,406.4289,443.9689,405.9627,442.2606,405.2059,440.7907,405.7875,439.3554,406.297,437.7832,408.209,436.5397,409.5542,434.9264,411.2193,434.3906,413.1987,433.9293,415.7371,434.2034,417.1274,434.8591,418.7439,435.1563,420.7093,437.1699,421.3945,439.2957,421.6921,440.7462,421.355,443.1364" style="stroke:#8B0000;stroke-width:4.0;"/><path d="M413.635,449.7256 L413.8218,449.7256 L413.2667,455.1256 L413.8068,460.5256 L413.9903,465.9256 L413.0009,471.3256 L413.635,476.7256 M400.635,457.7256 L400.635,457.6565 L405.835,457.3465 L411.035,457.3847 L416.235,457.665 L421.435,457.111 L426.635,457.7256 M413.635,476.7256 L414.0069,477.0479 L410.6116,479.3587 L408.3022,482.6105 L406.1251,485.977 L403.1774,488.6756 L400.635,491.7256 M413.635,476.7256 L413.6808,476.7653 L416.2135,479.707 L418.9549,482.8295 L421.5956,485.8648 L424.4284,489.0665 L426.635,491.7256 " fill="none" style="stroke:#8B0000;stroke-width:4.0;"/><text fill="#000000" font-family="Chalkduster" font-size="24" lengthAdjust="spacing" textLength="130" x="348.635" y="520.5665">Integrate</text></g><!--entity an--><g id="elem_an"><polygon fill="none" points="268.6792,443.6715,267.5065,445.2738,266.1195,447.6206,264.1358,449.2022,262.0513,450.0671,260.3892,450.1422,258.253,449.0605,256.2373,448.3539,254.7074,446.9192,253.9049,445.2767,253.4289,443.9689,252.9627,442.2606,252.2059,440.7907,252.7875,439.3554,253.297,437.7832,255.209,436.5397,256.5542,434.9264,258.2193,434.3906,260.1987,433.9293,262.7371,434.2034,264.1274,434.8591,265.7439,435.1563,267.7093,437.1699,268.3945,439.2957,268.6921,440.7462,268.355,443.1364" style="stroke:#8B0000;stroke-width:4.0;"/><path d="M260.635,449.7256 L260.8218,449.7256 L260.2667,455.1256 L260.8068,460.5256 L260.9903,465.9256 L260.0009,471.3256 L260.635,476.7256 M247.635,457.7256 L247.635,457.6565 L252.835,457.3465 L258.035,457.3847 L263.235,457.665 L268.435,457.111 L273.635,457.7256 M260.635,476.7256 L261.0069,477.0479 L257.6116,479.3587 L255.3022,482.6105 L253.1251,485.977 L250.1774,488.6756 L247.635,491.7256 M260.635,476.7256 L260.6808,476.7653 L263.2135,479.707 L265.9549,482.8295 L268.5956,485.8648 L271.4284,489.0665 L273.635,491.7256 " fill="none" style="stroke:#8B0000;stroke-width:4.0;"/><text fill="#000000" font-family="Chalkduster" font-size="24" lengthAdjust="spacing" textLength="106" x="207.635" y="520.5665">Analyse</text></g><!--entity repo--><g id="elem_repo"><path d="M228.135,666.3556 L228.135,666.3556 L228.1766,666.4392 L229.3808,665.5305 L230.8287,665.1122 L232.1973,664.5342 L233.3048,663.4311 L234.7737,663.0548 L234.7688,663.0206 L238.2475,662.371 L241.7505,661.8939 L245.2706,661.5365 L248.7321,660.7662 L252.2756,660.5743 L252.296,660.8196 L254.5911,660.1013 L256.9456,660.099 L259.3074,660.1841 L261.627,659.7609 L263.9687,659.6051 L263.9706,659.6354 L266.5781,659.4293 L269.1941,659.361 L271.8059,659.2263 L274.4256,659.2184 L277.0198,658.797 L277.0339,659.0949 L279.8253,658.9662 L282.6076,658.6454 L285.4033,658.6058 L288.1996,658.5794 L290.9761,658.1354 L290.9643,657.8151 L293.8689,658.3308 L296.7348,657.7918 L299.6301,658.0546 L302.4951,657.4917 L305.385,657.6056 L305.3842,657.5751 L311.0664,657.7905 L316.7305,657.2949 L322.4053,657.2188 L328.081,657.1779 L333.7502,656.8829 L333.753,657.0679 L338.699,656.807 L343.6498,656.8621 L348.5929,656.4059 L353.5474,656.7124 L358.4944,656.5118 L358.496,656.7555 L363.3238,656.6781 L368.1524,656.7218 L372.9774,656.2034 L377.805,656.097 L382.635,656.3556 L382.635,656.3556 L382.6332,656.0794 L387.463,656.3607 L392.2907,656.3307 L397.1213,656.7522 L401.947,656.403 L406.7756,656.5118 L406.7733,656.3594 L411.726,656.6875 L416.6688,656.3639 L421.6186,656.5038 L426.5753,657.0971 L431.5198,656.8829 L431.5247,657.0765 L437.2011,657.3538 L442.8622,657.029 L448.5425,657.4583 L454.2186,657.7234 L459.885,657.6056 L459.8773,657.3958 L462.7652,657.669 L465.6506,657.8735 L468.541,658.2129 L471.4121,658.0275 L474.2939,658.1354 L474.3037,658.3407 L477.0735,658.0218 L479.8622,658.0994 L482.6783,658.7559 L485.4439,658.3464 L488.2502,658.797 L488.2642,659.0228 L490.8661,659.0503 L493.4633,659.0014 L496.0711,659.1249 L498.7037,659.647 L501.3013,659.6051 L501.2903,659.4725 L503.6616,660.0611 L505.9582,659.748 L508.3398,660.4601 L510.6735,660.595 L512.9944,660.5743 L513.0097,660.6821 L516.4977,661.0912 L520.0405,661.8863 L523.5338,662.3326 L527.0065,662.6332 L530.4963,663.0548 L530.5494,663.1615 L531.7983,663.6631 L533.2936,664.6602 L534.5102,665.0969 L535.8414,665.7641 L537.135,666.3556 L535.5127,666.3556 L536.0544,676.3927 L538.5503,686.4298 L538.281,696.4669 L537.0205,706.504 L536.2759,716.5411 L536.5512,726.5782 L537.135,736.6152 L537.135,736.6152 L536.9992,736.3422 L535.8893,737.4405 L534.6259,738.2299 L533.256,738.8052 L531.9616,739.5324 L530.4963,739.916 L530.4878,739.8559 L527.0014,740.4505 L523.4714,740.7377 L520.0129,741.5293 L516.5102,742.009 L512.9944,742.3965 L513.0147,742.6412 L510.6473,742.4886 L508.3122,742.7247 L505.9948,743.1745 L503.6607,743.4232 L501.3013,743.3657 L501.2872,743.1384 L498.6857,743.4414 L496.0849,743.7552 L493.4539,743.5796 L490.8701,744.169 L488.2502,744.1738 L488.2557,744.2884 L485.4569,744.2614 L482.6707,744.5016 L479.8918,744.8943 L477.0786,744.5642 L474.2939,744.8355 L474.2991,744.9754 L471.4168,745.0683 L468.5323,745.0988 L465.6509,745.2159 L462.7686,745.3097 L459.885,745.3652 L459.8779,745.0879 L454.2074,745.3317 L448.5337,745.4493 L442.8666,745.8272 L437.1938,745.9825 L431.5198,746.0879 L431.5208,746.1598 L426.569,746.0328 L421.6217,746.2063 L416.6725,746.2571 L411.7283,746.6411 L406.7756,746.459 L406.7769,746.6486 L401.9461,746.2745 L397.1192,746.4891 L392.2896,746.2962 L387.464,746.7122 L382.635,746.6152 L382.635,746.6152 L382.6368,746.8857 L377.8084,746.826 L372.9775,746.3592 L368.152,746.7277 L363.3204,746.1601 L358.4944,746.459 L358.4957,746.5479 L353.5436,746.2518 L348.5974,746.3535 L343.6495,746.3431 L338.7022,746.3719 L333.7502,746.0879 L333.7421,745.768 L328.0826,746.1546 L322.4062,745.878 L316.7351,745.8122 L311.0665,745.842 L305.385,745.3652 L305.3851,745.3677 L302.5061,745.3371 L299.6249,745.2481 L296.7429,745.135 L293.8578,744.9411 L290.9761,744.8355 L290.991,745.151 L288.172,744.4324 L285.4054,744.8218 L282.5892,744.1615 L279.7997,744.0663 L277.0198,744.1738 L277.0209,744.1916 L274.4103,744.0248 L271.7858,743.632 L269.2005,743.8725 L266.5819,743.5756 L263.9687,743.3657 L263.9954,743.6876 L261.6546,743.4674 L259.275,742.7795 L256.9383,742.6079 L254.6095,742.5331 L252.2756,742.3965 L252.2978,742.5529 L248.8004,742.0777 L245.2936,741.5368 L241.7531,740.7577 L238.3137,740.6922 L234.7737,739.916 L234.8991,740.1683 L233.4366,739.2371 L232.0709,738.5006 L230.711,737.7758 L229.4203,737.19 L228.135,736.6152 L228.5014,736.6152 L227.9526,726.5782 L227.0209,716.5411 L229.4347,706.504 L226.9112,696.4669 L229.4747,686.4298 L229.2743,676.3927 L228.135,666.3556 " fill="#00FF7F" style="stroke:#181818;stroke-width:4.0;"/><path d="M228.135,666.3556 L228.135,666.3556 L228.1766,666.4392 L229.3808,666.8509 L230.8287,667.7528 L232.1973,668.4951 L233.3048,668.7123 L234.7737,669.6564 L234.7688,669.6222 L238.2475,669.9648 L241.7505,670.4798 L245.2706,671.1147 L248.7321,671.3365 L252.2756,672.1368 L252.296,672.3821 L254.5911,672.0515 L256.9456,672.4369 L259.3074,672.9097 L261.627,672.8742 L263.9687,673.1061 L263.9706,673.1363 L266.5781,673.2535 L269.1941,673.5085 L271.8059,673.697 L274.4256,674.0124 L277.0198,673.9142 L277.0339,674.2121 L279.8253,674.3481 L282.6076,674.2919 L285.4033,674.517 L288.1996,674.7552 L290.9761,674.5758 L290.9643,674.2555 L293.8689,674.9831 L296.7348,674.656 L299.6301,675.1308 L302.4951,674.7798 L305.385,675.1056 L305.3842,675.0751 L311.0664,675.5796 L316.7305,675.373 L322.4053,675.586 L328.081,675.8342 L333.7502,675.8282 L333.753,676.0132 L338.699,675.9007 L343.6498,676.1043 L348.5929,675.7965 L353.5474,676.2515 L358.4944,676.1993 L358.496,676.443 L363.3238,676.4281 L368.1524,676.5343 L372.9774,676.0784 L377.805,676.0345 L382.635,676.3556 L382.635,676.3556 L382.6332,676.0794 L387.463,676.2982 L392.2907,676.2057 L397.1213,676.5647 L401.947,676.153 L406.7756,676.1993 L406.7733,676.0469 L411.726,676.2266 L416.6688,675.7546 L421.6186,675.746 L426.5753,676.1908 L431.5198,675.8282 L431.5247,676.0218 L437.2011,676.01 L442.8622,675.3962 L448.5425,675.5365 L454.2186,675.5124 L459.885,675.1056 L459.8773,674.8958 L462.7652,674.9571 L465.6506,674.9496 L468.541,675.0772 L471.4121,674.6799 L474.2939,674.5758 L474.3037,674.7812 L477.0735,674.1976 L479.8622,674.0105 L482.6783,674.4024 L485.4439,673.7282 L488.2502,673.9142 L488.2642,674.1399 L490.8661,673.8442 L493.4633,673.4721 L496.0711,673.2724 L498.7037,673.4712 L501.3013,673.1061 L501.2903,672.9735 L503.6616,673.1744 L505.9582,672.4736 L508.3398,672.798 L510.6735,672.5452 L512.9944,672.1368 L513.0097,672.2446 L516.4977,671.6615 L520.0405,671.4644 L523.5338,670.9186 L527.0065,670.2269 L530.4963,669.6564 L530.5494,669.7631 L531.7983,668.9444 L533.2936,668.6212 L534.5102,667.7375 L535.8414,667.0844 L537.135,666.3556 " fill="none" style="stroke:#181818;stroke-width:4.0;"/><text fill="#000000" font-family="Chalkduster" font-size="24" font-style="italic" lengthAdjust="spacing" textLength="169" x="298.135" y="704.1965">&#171;repository&#187;</text><text fill="#000000" font-family="Chalkduster" font-size="24" lengthAdjust="spacing" textLength="289" x="238.135" y="734.8263">Archival Repositories</text></g><!--link coll to cur--><g id="link_coll_cur"><path d="M508.905,319.9156 L508.905,320.009 L503.191,319.7314 L497.477,320.0015 L491.763,320.0932 L486.049,319.5985 L480.335,319.9156 " fill="none" style="stroke:#181818;stroke-width:4.0;"/><polygon fill="#181818" points="474.335,319.9156,474.3635,319.9796,476.0789,320.5894,477.9612,321.5745,479.7891,322.4373,481.4384,322.8983,483.335,323.9156,483.3167,323.8973,482.4345,323.0151,481.6446,322.2252,480.9189,321.4995,479.972,320.5526,479.335,319.9156,479.4655,320.0461,479.9864,318.967,480.8884,318.269,481.8368,317.6174,482.5148,316.6954,483.335,315.9156,483.3442,315.9364,481.5307,316.7059,479.7592,317.57,477.9674,318.3884,476.2143,319.294,474.335,319.9156" style="stroke:#181818;stroke-width:4.0;"/></g><!--link cur to int--><g id="link_cur_int"><path d="M365.6695,374.624 L365.9235,374.7424 L369.7708,384.2633 L375.1071,394.4783 L379.9585,404.4674 L383.2153,413.7131 L388.6794,423.9877 " fill="none" style="stroke:#181818;stroke-width:4.0;"/><polygon fill="#181818" points="363.135,369.1856,363.205,369.1868,363.0321,371.1526,363.2699,373.1256,363.3739,375.0963,363.0382,377.0592,363.3112,379.0329,363.2868,379.024,363.5648,377.9212,363.9654,376.863,364.4514,375.8359,364.6434,374.7018,365.2471,373.7176,365.3103,373.891,366.2382,373.9074,367.3506,374.43,368.4855,375.0144,369.4895,375.2395,370.5624,375.6535,370.5773,375.6707,369.0699,374.3519,367.6305,373.1112,366.1583,371.8329,364.7487,370.6264,363.135,369.1856" style="stroke:#181818;stroke-width:4.0;"/><polygon fill="#181818" points="391.215,429.4256,391.285,429.4269,391.0413,427.4536,391.2082,425.4878,391.2413,423.5196,390.8347,421.5435,391.0369,419.5783,391.0125,419.5695,390.5163,420.5928,390.1428,421.6609,389.8546,422.76,389.2724,423.752,389.102,424.894,389.1651,425.0674,387.967,424.3096,386.9532,424.0581,385.9618,423.8684,384.8397,423.3192,383.7863,422.9591,383.8013,422.9763,385.2651,424.2444,386.7969,425.5906,388.2959,426.8991,389.8574,428.2795,391.215,429.4256" style="stroke:#181818;stroke-width:4.0;"/></g><!--link cur to an--><g id="link_cur_an"><path d="M313.2471,374.5296 L313.4967,374.6571 L308.5363,382.5371 L305.0389,391.1644 L301.0651,399.5483 L295.5246,407.1319 L292.0606,415.7762 L287.934,424.0821 " fill="none" style="stroke:#181818;stroke-width:4.0;"/><polygon fill="#181818" points="315.975,369.1856,316.0191,369.24,314.3572,370.3177,312.9537,371.7147,311.4661,373.0076,309.7018,373.9588,308.3205,375.3831,308.3125,375.3584,309.3529,374.899,310.4336,374.5638,311.5423,374.315,312.5545,373.7685,313.7018,373.639,313.8773,373.6958,313.8507,374.6504,314.3367,375.7711,314.8852,376.9121,315.0699,377.9351,315.4459,379.0202,315.4686,379.0214,315.5411,377.0527,315.717,375.0896,315.843,373.1237,316.0641,371.163,315.975,369.1856" style="stroke:#181818;stroke-width:4.0;"/><polygon fill="#181818" points="285.205,429.4256,285.2491,429.48,286.6493,428.0791,288.3079,426.9973,289.8823,425.8116,291.18,424.284,292.8608,423.2297,292.8528,423.2051,291.7407,423.4431,290.6688,423.8053,289.6248,424.2539,288.4845,424.4049,287.4792,424.9727,287.6547,425.0296,286.9307,423.8316,286.7193,422.7997,286.5704,421.7881,286.0576,420.6586,285.7362,419.5911,285.7589,419.5923,285.6193,421.5574,285.5831,423.5281,285.4971,425.4961,285.5062,427.4692,285.205,429.4256" style="stroke:#181818;stroke-width:4.0;"/></g><!--link int to an--><g id="link_int_an"><path d="M342.335,478.5456 L342.335,478.639 L337.893,478.3614 L333.451,478.6315 L329.009,478.7232 L324.567,478.2285 L320.125,478.5456 " fill="none" style="stroke:#181818;stroke-width:4.0;"/><polygon fill="#181818" points="348.335,478.5456,348.3635,478.6096,346.4789,477.6194,344.7612,477.0045,342.9891,476.2673,341.0384,475.1283,339.335,474.5456,339.3167,474.5273,340.0345,475.2451,340.8446,476.0552,341.7189,476.9295,342.372,477.5826,343.335,478.5456,343.4655,478.6761,342.3864,479.197,341.6884,480.099,341.0368,481.0474,340.1148,481.7254,339.335,482.5456,339.3442,482.5664,341.1307,481.7359,342.9592,481,344.7674,480.2184,346.6143,479.524,348.335,478.5456" style="stroke:#181818;stroke-width:4.0;"/><polygon fill="#181818" points="314.125,478.5456,314.1535,478.6096,315.8689,479.2194,317.7512,480.2045,319.5791,481.0673,321.2284,481.5283,323.125,482.5456,323.1067,482.5273,322.2245,481.6451,321.4346,480.8552,320.7089,480.1295,319.762,479.1826,319.125,478.5456,319.2555,478.6761,319.7764,477.597,320.6784,476.899,321.6268,476.2474,322.3048,475.3254,323.125,474.5456,323.1342,474.5664,321.3207,475.3359,319.5492,476.2,317.7574,477.0184,316.0043,477.924,314.125,478.5456" style="stroke:#181818;stroke-width:4.0;"/></g><!--link an to repo--><g id="link_an_repo"><path d="M207.575,497.1856 L207.6102,497.2721 L205.646,497.7719 L203.8883,498.7789 L202.0633,499.6207 L200.0173,499.9194 L198.2772,500.97 L198.2634,500.9383 L196.3138,501.6187 L194.4337,502.4587 L192.602,503.4097 L190.6036,503.9783 L188.8387,505.0825 L188.9433,505.3052 L186.8332,505.715 L185.0286,506.7751 L183.2613,507.9145 L181.2771,508.5923 L179.407,509.5129 L179.4208,509.5399 L177.5452,510.4479 L175.7323,511.4788 L173.8891,512.4503 L172.1038,513.5351 L170.13,514.2509 L170.2759,514.511 L168.4828,515.5212 L166.5955,516.3637 L164.846,517.4518 L163.103,518.5513 L161.1553,519.2862 L160.9856,519.0143 L159.6101,520.6065 L157.6757,521.3033 L156.1662,522.6808 L154.2191,523.3574 L152.6307,524.6085 L152.6123,524.5843 L149.8083,527.164 L146.5743,529.1771 L143.5941,531.5245 L140.6351,533.9001 L137.5225,536.0731 L137.6584,536.1986 L135.2141,538.5698 L133.0021,541.1554 L130.4144,543.394 L128.387,546.1502 L125.9871,548.5623 L126.2046,548.6721 L124.8073,551.3377 L123.518,554.0578 L121.7269,556.5246 L120.3037,559.1771 L119.2063,561.994 L118.9306,561.9777 L119.0112,564.8508 L118.7812,567.7056 L119.0018,570.587 L118.4531,573.4229 L118.3616,576.2859 L118.2209,576.2273 L119.71,579.3388 L120.5974,582.1998 L121.9127,585.239 L123.6466,588.4525 L124.635,591.3556 L124.7915,591.4697 L126.7874,594.1384 L128.2968,596.4524 L130.4156,599.2107 L132.4017,601.8723 L134.0783,604.3082 L133.9205,604.1697 L136.1015,606.6229 L138.2309,609.0307 L140.4618,611.5276 L142.2979,613.6782 L144.3545,616.0222 L144.4964,616.1709 L146.4015,617.959 L148.5806,620.0342 L151.1598,622.5288 L153.0023,624.2512 L155.4392,626.5966 L155.5809,626.773 L157.8705,628.575 L160.1122,630.3174 L162.4621,632.1945 L165.062,634.3828 L167.3081,636.1307 L167.2333,636.0207 L169.9818,638.0667 L172.2214,639.3647 L175.0397,641.5133 L177.5322,643.1829 L179.9369,644.7235 L179.9915,644.8177 L182.6202,646.2918 L185.4446,648.1031 L188.0922,649.6098 L190.666,650.9891 L193.3011,652.4742 L193.3542,652.5809 L196.0904,653.8239 L199.0732,655.5623 L201.777,656.7405 L204.5956,658.149 L207.3765,659.4819 L207.2695,659.2336 L210.2577,660.5893 L213.3748,662.2441 L216.3095,663.4757 L219.1787,664.5555 L222.1387,665.8458 " fill="none" style="stroke:#181818;stroke-width:4.0;"/><polygon fill="#181818" points="227.705,668.0856,227.7553,668.1344,226.2346,666.5753,225.0088,665.3022,223.6869,663.936,222.0493,662.2636,220.8488,661.0151,220.8249,661.0049,221.1615,662.0001,221.6182,663.0466,222.1585,664.1286,222.4109,665.0879,223.0664,666.2191,223.1388,666.3889,221.9433,666.4694,220.959,667.0455,220.0005,667.6822,218.892,667.9669,217.8624,668.4368,217.8632,668.4595,219.8305,668.3559,221.8016,668.3558,223.7708,668.3057,225.7434,668.3509,227.705,668.0856" style="stroke:#181818;stroke-width:4.0;"/><text fill="#000000" font-family="Chalkduster" font-size="24" lengthAdjust="spacing" textLength="540" x="125.635" y="584.1965">Deposit / Publish well described output</text></g><!--link repo to coll--><g id="link_repo_coll"><path d="M537.395,677.9056 L537.4234,677.9946 L539.2515,677.1189 L541.2463,676.7647 L543.1869,676.2408 L544.9488,675.1582 L546.9579,674.8489 L546.9466,674.8163 L548.8043,674.006 L550.7192,673.3601 L552.6739,672.8285 L554.4915,671.903 L556.5011,671.5292 L556.5882,671.7594 L558.3004,670.5485 L560.2669,670.0096 L562.2644,669.5526 L564.0814,668.6187 L565.9934,667.9356 L566.0049,667.9637 L567.87,667.1468 L569.7878,666.4577 L571.6801,665.7069 L573.6209,665.0736 L575.4038,664.0573 L575.5259,664.3294 L577.3869,663.4979 L579.1691,662.491 L581.0666,661.7409 L582.9695,661.0029 L584.7012,659.8834 L584.5602,659.5955 L586.6644,659.2581 L588.3046,657.9728 L590.2975,657.4082 L591.9271,656.1014 L593.8545,655.4029 L593.8402,655.3761 L595.8055,654.7341 L597.4356,653.4648 L599.2636,652.5656 L601.1081,651.6975 L602.8328,650.6052 L602.9262,650.7649 L604.5864,649.5785 L606.4061,648.6651 L607.9678,647.31 L609.9143,646.6136 L611.605,645.4793 L611.7364,645.6845 L613.4185,644.5527 L615.1659,643.5228 L616.6102,642.0196 L618.2767,640.8633 L620.14,640.0144 L619.9811,639.7885 L621.7783,638.8301 L623.3964,637.6171 L625.2743,636.7733 L626.7087,635.2991 L628.4067,634.1996 L628.3133,634.0791 L630.0624,633.0447 L631.4121,631.4952 L633.0458,630.312 L634.9574,629.4872 L636.3742,628.0241 L636.5002,628.1711 L638.114,626.9625 L639.3359,625.2967 L641.0487,624.2035 L642.6546,622.9856 L644.0113,621.477 L643.8664,621.325 L645.437,620.0602 L646.9601,618.7457 L648.5764,617.529 L649.8305,615.932 L651.2869,614.5474 L651.4367,614.6882 L652.4842,612.9143 L653.8209,611.4121 L655.58,610.307 L656.5613,608.4709 L658.1702,607.2246 L658.3437,607.3697 L659.5326,605.7381 L660.6627,604.0574 L661.9253,602.4875 L663.4944,601.1738 L664.6299,599.4976 L664.5228,599.4186 L666.0426,598.0253 L666.8342,596.095 L668.4538,594.7753 L669.6072,593.1117 L670.635,591.3556 L670.7289,591.4107 L672.2309,588.6757 L674.0692,586.1379 L675.6038,583.422 L677.0113,580.6315 L678.5242,577.903 L678.6349,577.947 L679.5726,575.1132 L681.0244,572.4841 L681.8946,569.6235 L683.0041,566.8581 L684.035,564.0615 L683.7718,563.9999 L684.5212,561.1902 L685.5879,558.4546 L686.2058,555.6141 L686.6628,552.736 L687.343,549.9101 L687.2003,549.8974 L687.5021,547.025 L687.5514,544.1301 L688.2949,541.297 L688.6948,538.4333 L688.6235,535.5277 L688.8572,535.5369 L688.8178,532.633 L688.3342,529.7116 L688.3193,526.8086 L687.9942,523.8935 L688.052,520.9934 L688.1768,521.0126 L687.7108,518.0886 L687.3955,515.1878 L686.6024,512.2134 L686.1946,509.2984 L685.8041,506.386 L685.995,506.435 L685.2985,503.5284 L684.0839,500.4887 L683.4712,497.6037 L682.8692,494.7213 L682.0551,491.7845 L681.7988,491.6949 L681.1885,488.933 L680.1336,486.0157 L678.9681,483.0598 L678.0552,480.1921 L676.9806,477.2679 L677.2777,477.3968 L675.6081,474.342 L674.6192,471.5825 L673.3623,468.7068 L672.0481,465.8062 L670.756,462.9151 L670.8118,462.9436 L669.3611,460.1161 L667.6292,457.1451 L666.2778,454.3682 L664.814,451.5339 L663.5568,448.8052 L663.5814,448.8194 L661.991,446.0672 L660.4197,443.3259 L658.646,440.4673 L657.1322,437.7595 L655.5585,435.0169 L655.5136,434.988 L654.0496,432.4782 L652.2691,429.7645 L650.2039,426.8675 L648.6336,424.2893 L646.9365,421.6294 L646.7266,421.4819 L645.2273,419.1215 L643.5297,416.6217 L641.6924,414.0238 L639.522,411.1917 L637.8663,408.7215 L638.0307,408.8459 L635.7344,406.0524 L634.2001,403.8354 L632.1545,401.2316 L630.4262,398.868 L628.5234,396.3722 L628.6065,396.4392 L626.7987,394.1615 L624.4982,391.4867 L623.0238,389.4778 L621.0329,387.0525 L619.0832,384.6604 L619.2034,384.7628 L617.4638,382.6769 L615.3403,380.2639 L613.5253,378.1138 L611.6658,375.9258 L609.7212,373.6652 " fill="none" style="stroke:#181818;stroke-width:4.0;"/><polygon fill="#181818" points="605.775,369.1456,605.8419,369.1663,606.2243,370.9869,606.999,372.9287,607.646,374.8311,607.8728,376.6037,608.6812,378.5559,608.6554,378.5541,608.6158,377.4175,608.7066,376.2897,608.8879,375.168,608.7571,374.0252,609.0635,372.912,609.076,373.0961,610.1781,372.7788,611.3166,372.9991,612.4596,373.285,613.5767,373.1893,614.7074,373.2943,614.717,373.3149,612.9165,372.4549,611.1595,371.6888,609.3816,370.8773,607.6437,370.1524,605.775,369.1456" style="stroke:#181818;stroke-width:4.0;"/><text fill="#000000" font-family="Chalkduster" font-size="24" lengthAdjust="spacing" textLength="77" x="688.635" y="487.3865">Reuse</text></g><!--SRC=[PL51Ri8m4Bpx5GE7tXBk2255vSAXKiKPgTeu2rXrxCXUaqOLVw-J52fKdrRhcPsPtOLnsgQ6Frfo0yforP1GOQakeWoMI_aIjNZ2jBvXMv0MSpLYE9PTQgrIOiJo6fM3QPYiYTm0LyCz_Ede284ZKz0NZ0BGWxQCtiZbwAhSDLUoE73den4V1kpTAL2KaBIam2g_m5h8dJDhURYFUi5k7FP6ZixSiXDK3rjBKCIVIsmslG-ViIFDsos-bSf_Fc3vwgtDeoUuplMZdm89Pucz4pwFzGn90NT8vSWECVSdAQVKxSdcRuOvmaGsJwb64zCsQeeP_dyDznGXDxB_y5ZF500t0ACaEHJ5TaQjWTqCmmhlgSvtkA1dQz5mrC7K-Ie-IPT4JVYHEAREn0Edo3y0]--></g></svg>