<?xml version="1.0" encoding="us-ascii" standalone="no"?><svg xmlns="http://www.w3.org/2000/svg" xmlns:xlink="http://www.w3.org/1999/xlink" contentStyleType="text/css" height="494px" preserveAspectRatio="none" style="width:694px;height:494px;background:#FFFFFF;" version="1.1" viewBox="0 0 694 494" width="694px" zoomAndPan="magnify"><defs/><g><text fill="#000000" font-family="Chalkduster" font-size="42" font-weight="bold" lengthAdjust="spacing" textLength="666" x="10" y="51.7215">A simple idealised  view of</text><text fill="#000000" font-family="Chalkduster" font-size="42" font-weight="bold" lengthAdjust="spacing" textLength="524" x="81" y="105.3238">a research data cycle</text><!--cluster activities--><g id="cluster_activities"><polygon fill="#FFC7D8" points="71,137.4934,71,137.7036,80.9821,137.0791,90.9643,137.6867,100.9464,137.8931,110.9286,136.78,120.9107,137.4157,130.8929,137.0669,140.875,137.1099,150.8571,137.4252,160.8393,136.802,170.8214,138.047,180.8036,136.8631,190.7857,137.2956,200.7679,137.9253,210.75,137.4076,220.7321,137.5616,230.7143,137.4614,240.6964,137.6719,250.6786,137.7325,260.6607,138.0791,270.6429,138.1644,280.625,138.1726,290.6071,137.748,300.5893,137.957,310.5714,138.1956,320.5536,136.7722,330.5357,138.1719,340.5179,137.1969,350.5,138.0272,360.4821,136.9983,370.4643,137.4249,380.4464,138.235,390.4286,137.4446,400.4107,137.5987,410.3929,137.832,420.375,137.9096,430.3571,137.4895,440.3393,137.7806,450.3214,136.921,460.3036,137.7778,470.2857,138.0416,480.2679,137.9379,490.25,138.1064,500.2321,137.0103,510.2143,136.8412,520.1964,136.872,530.1786,137.4345,540.1607,137.2968,550.1429,138.1748,560.125,137.3187,570.1071,137.1503,580.0893,137.7216,590.0714,136.8265,600.0536,136.9742,610.0357,138.1423,620.0179,137.929,630,137.4934,630.0937,137.7196,630.3125,137.5407,630.7478,137.8846,631.136,138.1145,631.354,137.9337,631.7678,138.2256,631.7382,138.2134,631.953,138.5952,632.2614,139.0159,632.2058,139.2857,632.496,139.6988,632.5,139.9934,631.9462,139.9934,631.8227,149.8865,633.0036,159.7797,631.7831,169.6728,633.009,179.5659,632.7066,189.4591,632.2321,199.3522,632.1462,209.2454,632.9588,219.1385,632.2007,229.0317,633.0919,238.9248,631.9473,248.8179,633.1174,258.7111,632.9843,268.6042,632.745,278.4974,632.5472,288.3905,633.2266,298.2837,633.1136,308.1768,632.6693,318.0699,632.7682,327.9631,632.3697,337.8562,633.2165,347.7494,632.6549,357.6425,632.6726,367.5357,631.8916,377.4288,632.0948,387.3219,633.0307,397.2151,632.9298,407.1082,632.4571,417.0014,632.1778,426.8945,632.2811,436.7877,631.8138,446.6808,632.9147,456.5739,633.2396,466.4671,633.0264,476.3602,632.5,486.2534,632.714,486.342,632.3114,486.5895,632.234,486.9716,631.9413,487.2646,632.0017,487.7038,631.7678,488.0211,631.7992,488.0971,631.4847,488.3377,631.0314,488.2433,630.69,488.4191,630.4101,488.7435,630,488.7534,630,489.3207,620.0179,488.2408,610.0357,488.5595,600.0536,488.9026,590.0714,488.1425,580.0893,489.1068,570.1071,489.0114,560.125,488.6526,550.1429,488.8956,540.1607,489.482,530.1786,488.4405,520.1964,489.0684,510.2143,489.039,500.2321,488.8691,490.25,488.8943,480.2679,488.8668,470.2857,488.1292,460.3036,488.3526,450.3214,488.2918,440.3393,488.8172,430.3571,488.8415,420.375,488.9151,410.3929,488.4624,400.4107,488.6859,390.4286,488.6332,380.4464,489.3302,370.4643,489.1799,360.4821,488.2678,350.5,488.6804,340.5179,488.1761,330.5357,489.0418,320.5536,489.3619,310.5714,489.2979,300.5893,488.3178,290.6071,489.2173,280.625,488.0106,270.6429,488.9535,260.6607,488.4541,250.6786,488.8501,240.6964,488.9937,230.7143,489.2255,220.7321,488.0335,210.75,489.2288,200.7679,488.9315,190.7857,489.1087,180.8036,489.5012,170.8214,488.7589,160.8393,488.9286,150.8571,488.9668,140.875,488.9506,130.8929,488.7526,120.9107,489.4641,110.9286,488.1436,100.9464,489.3187,90.9643,488.1294,80.9821,488.2131,71,488.7534,71.0051,488.7657,70.6501,488.6156,70.23,488.3087,69.9921,488.4414,69.5997,488.2011,69.2322,488.0211,69.456,488.1138,69.2912,487.7527,68.8013,487.2569,68.6703,486.9097,68.6067,486.5904,68.5,486.2534,68.8555,486.2534,68.903,476.3602,68.8012,466.4671,68.158,456.5739,69.1364,446.6808,69.1338,436.7877,68.4527,426.8945,68.2609,417.0014,68.0986,407.1082,68.2854,397.2151,68.6374,387.3219,68.4316,377.4288,68.0822,367.5357,68.9874,357.6425,68.0411,347.7494,69.0024,337.8562,68.9272,327.9631,68.8719,318.0699,69.1925,308.1768,68.2541,298.2837,68.1994,288.3905,69.0189,278.4974,67.9031,268.6042,68.266,258.7111,68.6155,248.8179,68.5687,238.9248,68.1415,229.0317,68.457,219.1385,69.2446,209.2454,69.1485,199.3522,67.9037,189.4591,68.5785,179.5659,67.9861,169.6728,68.4737,159.7797,68.793,149.8865,68.5,139.9934,68.6293,140.0469,68.4417,139.555,68.9162,139.3374,68.9419,138.9338,68.9148,138.5083,69.2322,138.2256,69.1721,138.0805,69.6274,138.1797,69.9712,138.0097,70.2908,137.7812,70.5607,137.4328,71,137.4934" style="stroke:#181818;stroke-width:4.0;"/><text fill="#000000" font-family="Chalkduster" font-size="24" font-style="italic" lengthAdjust="spacing" textLength="175" x="263" y="163.3343">&#171;workspace&#187;</text><text fill="#000000" font-family="Chalkduster" font-size="24" font-weight="bold" lengthAdjust="spacing" textLength="548" x="76.5" y="193.9641">Research &amp; Data Management Activities</text></g><!--entity coll--><g id="elem_coll"><polygon fill="none" points="291.5442,231.4393,290.3715,233.0416,288.9845,235.3884,287.0008,236.97,284.9163,237.8349,283.2542,237.91,281.118,236.8283,279.1023,236.1217,277.5724,234.687,276.7699,233.0445,276.2939,231.7367,275.8277,230.0284,275.0709,228.5584,275.6525,227.1232,276.162,225.551,278.074,224.3075,279.4192,222.6942,281.0843,222.1584,283.0637,221.697,285.6021,221.9712,286.9924,222.6268,288.6089,222.9241,290.5743,224.9377,291.2595,227.0635,291.5571,228.514,291.22,230.9042" style="stroke:#8B0000;stroke-width:4.0;"/><path d="M283.5,237.4934 L283.6868,237.4934 L283.1317,242.8934 L283.6718,248.2934 L283.8553,253.6934 L282.8659,259.0934 L283.5,264.4934 M270.5,245.4934 L270.5,245.4243 L275.7,245.1143 L280.9,245.1525 L286.1,245.4328 L291.3,244.8788 L296.5,245.4934 M283.5,264.4934 L283.8719,264.8157 L280.4766,267.1264 L278.1672,270.3782 L275.9901,273.7448 L273.0424,276.4434 L270.5,279.4934 M283.5,264.4934 L283.5458,264.5331 L286.0785,267.4748 L288.8199,270.5973 L291.4606,273.6326 L294.2934,276.8343 L296.5,279.4934 " fill="none" style="stroke:#8B0000;stroke-width:4.0;"/><text fill="#000000" font-family="Chalkduster" font-size="24" lengthAdjust="spacing" textLength="99" x="234" y="308.3343">Collect</text></g><!--entity cur--><g id="elem_cur"><polygon fill="none" points="421.5442,231.4393,420.3715,233.0416,418.9845,235.3884,417.0008,236.97,414.9163,237.8349,413.2542,237.91,411.118,236.8283,409.1023,236.1217,407.5724,234.687,406.7699,233.0445,406.2939,231.7367,405.8277,230.0284,405.0709,228.5584,405.6525,227.1232,406.162,225.551,408.074,224.3075,409.4192,222.6942,411.0843,222.1584,413.0637,221.697,415.6021,221.9712,416.9924,222.6268,418.6089,222.9241,420.5743,224.9377,421.2595,227.0635,421.5571,228.514,421.22,230.9042" style="stroke:#8B0000;stroke-width:4.0;"/><path d="M413.5,237.4934 L413.6868,237.4934 L413.1317,242.8934 L413.6718,248.2934 L413.8553,253.6934 L412.8659,259.0934 L413.5,264.4934 M400.5,245.4934 L400.5,245.4243 L405.7,245.1143 L410.9,245.1525 L416.1,245.4328 L421.3,244.8788 L426.5,245.4934 M413.5,264.4934 L413.8719,264.8157 L410.4766,267.1264 L408.1672,270.3782 L405.9901,273.7448 L403.0424,276.4434 L400.5,279.4934 M413.5,264.4934 L413.5458,264.5331 L416.0785,267.4748 L418.8199,270.5973 L421.4606,273.6326 L424.2934,276.8343 L426.5,279.4934 " fill="none" style="stroke:#8B0000;stroke-width:4.0;"/><text fill="#000000" font-family="Chalkduster" font-size="24" lengthAdjust="spacing" textLength="91" x="368" y="308.3343">Curate</text></g><!--entity int--><g id="elem_int"><polygon fill="none" points="287.5442,389.0693,286.3715,390.6716,284.9845,393.0184,283.0008,394.6,280.9163,395.4649,279.2542,395.54,277.118,394.4583,275.1023,393.7517,273.5724,392.317,272.7699,390.6745,272.2939,389.3667,271.8277,387.6584,271.0709,386.1884,271.6525,384.7532,272.162,383.181,274.074,381.9375,275.4192,380.3242,277.0843,379.7884,279.0637,379.327,281.6021,379.6012,282.9924,380.2568,284.6089,380.5541,286.5743,382.5677,287.2595,384.6935,287.5571,386.144,287.22,388.5342" style="stroke:#8B0000;stroke-width:4.0;"/><path d="M279.5,395.1234 L279.6868,395.1234 L279.1317,400.5234 L279.6718,405.9234 L279.8553,411.3234 L278.8659,416.7234 L279.5,422.1234 M266.5,403.1234 L266.5,403.0543 L271.7,402.7443 L276.9,402.7825 L282.1,403.0628 L287.3,402.5088 L292.5,403.1234 M279.5,422.1234 L279.8719,422.4457 L276.4766,424.7564 L274.1672,428.0082 L271.9901,431.3748 L269.0424,434.0734 L266.5,437.1234 M279.5,422.1234 L279.5458,422.1631 L282.0785,425.1048 L284.8199,428.2273 L287.4606,431.2626 L290.2934,434.4643 L292.5,437.1234 " fill="none" style="stroke:#8B0000;stroke-width:4.0;"/><text fill="#000000" font-family="Chalkduster" font-size="24" lengthAdjust="spacing" textLength="130" x="214.5" y="465.9643">Integrate</text></g><!--entity an--><g id="elem_an"><polygon fill="none" points="440.5442,389.0693,439.3715,390.6716,437.9845,393.0184,436.0008,394.6,433.9163,395.4649,432.2542,395.54,430.118,394.4583,428.1023,393.7517,426.5724,392.317,425.7699,390.6745,425.2939,389.3667,424.8277,387.6584,424.0709,386.1884,424.6525,384.7532,425.162,383.181,427.074,381.9375,428.4192,380.3242,430.0843,379.7884,432.0637,379.327,434.6021,379.6012,435.9924,380.2568,437.6089,380.5541,439.5743,382.5677,440.2595,384.6935,440.5571,386.144,440.22,388.5342" style="stroke:#8B0000;stroke-width:4.0;"/><path d="M432.5,395.1234 L432.6868,395.1234 L432.1317,400.5234 L432.6718,405.9234 L432.8553,411.3234 L431.8659,416.7234 L432.5,422.1234 M419.5,403.1234 L419.5,403.0543 L424.7,402.7443 L429.9,402.7825 L435.1,403.0628 L440.3,402.5088 L445.5,403.1234 M432.5,422.1234 L432.8719,422.4457 L429.4766,424.7564 L427.1672,428.0082 L424.9901,431.3748 L422.0424,434.0734 L419.5,437.1234 M432.5,422.1234 L432.5458,422.1631 L435.0785,425.1048 L437.8199,428.2273 L440.4606,431.2626 L443.2934,434.4643 L445.5,437.1234 " fill="none" style="stroke:#8B0000;stroke-width:4.0;"/><text fill="#000000" font-family="Chalkduster" font-size="24" lengthAdjust="spacing" textLength="106" x="379.5" y="465.9643">Analyse</text></g><!--link coll to cur--><g id="link_coll_cur"><path d="M333.27,266.3134 L333.27,266.4068 L338.964,266.1292 L344.658,266.3993 L350.352,266.491 L356.046,265.9963 L361.74,266.3134 " fill="none" style="stroke:#181818;stroke-width:4.0;"/><polygon fill="#181818" points="367.74,266.3134,367.7685,266.3774,365.8839,265.3872,364.1662,264.7722,362.3941,264.0351,360.4434,262.8961,358.74,262.3134,358.7217,262.2951,359.4395,263.0128,360.2496,263.823,361.1239,264.6973,361.777,265.3504,362.74,266.3134,362.8705,266.4439,361.7914,266.9648,361.0934,267.8668,360.4418,268.8152,359.5198,269.4932,358.74,270.3134,358.7492,270.3342,360.5357,269.5036,362.3642,268.7678,364.1724,267.9862,366.0193,267.2918,367.74,266.3134" style="stroke:#181818;stroke-width:4.0;"/></g><!--link cur to int--><g id="link_cur_int"><path d="M368.285,319.8201 L368.4973,320.0029 L361.655,326.6734 L356.0575,334.4159 L350.0546,341.8093 L342.7186,348.0547 L337.1495,355.8216 L330.5857,362.732 L324.8052,370.3168 " fill="none" style="stroke:#181818;stroke-width:4.0;"/><polygon fill="#181818" points="372.2,315.2734,372.2299,315.3367,370.3602,315.9905,368.6661,317.0156,366.9147,317.9198,364.9754,318.4264,363.2963,319.4834,363.2944,319.4576,364.414,319.2574,365.5433,319.1875,366.6793,319.2081,367.7921,318.9167,368.9375,319.0623,369.1215,319.076,368.8122,320.1749,369.0402,321.3139,369.3337,322.4577,369.2459,323.5731,369.3586,324.7035,369.3804,324.71,369.9167,322.8144,370.5521,320.9486,371.1398,319.0684,371.8186,317.2157,372.2,315.2734" style="stroke:#181818;stroke-width:4.0;"/><polygon fill="#181818" points="320.89,374.8634,320.9199,374.9267,322.6117,373.8966,324.4791,373.2377,326.2893,372.458,327.9114,371.2806,329.7939,370.6537,329.7919,370.6279,328.655,370.5961,327.5279,370.6946,326.4075,370.8836,325.2638,370.7606,324.1527,371.0746,324.3367,371.0883,323.859,369.9307,323.9186,368.8132,324.0437,367.7006,323.7875,366.5595,323.7318,365.4334,323.7536,365.44,323.1532,367.3163,322.6521,369.2226,322.103,371.1144,321.6453,373.0337,320.89,374.8634" style="stroke:#181818;stroke-width:4.0;"/></g><!--link cur to an--><g id="link_cur_an"><path d="M420.0868,321.2292 L420.365,321.2631 L420.7018,330.698 L422.6693,340.3317 L424.1059,349.9007 L423.796,359.2567 L425.9036,368.9075 " fill="none" style="stroke:#181818;stroke-width:4.0;"/><polygon fill="#181818" points="419.36,315.2734,419.427,315.2939,418.6519,317.1166,418.2695,319.0595,417.7592,320.9633,416.8283,322.7384,416.4796,324.6916,416.4592,324.6757,417.0649,323.713,417.7734,322.8308,418.5533,322.0046,419.0869,320.9856,419.9656,320.2366,420.0794,320.3819,420.7272,320.7683,421.7071,321.579,422.7274,322.4416,423.5121,323.0029,424.4207,323.7226,424.4402,323.7343,423.3994,322.0273,422.4475,320.3735,421.4527,318.694,420.5396,317.0635,419.36,315.2734" style="stroke:#181818;stroke-width:4.0;"/><polygon fill="#181818" points="426.63,374.8634,426.697,374.8839,427.0741,372.9394,427.844,371.115,428.486,369.2515,428.7074,367.2594,429.511,365.4453,429.4906,365.4293,428.7018,366.2487,428.0158,367.1485,427.4013,368.1042,426.5404,368.8672,426.0247,369.9002,426.1384,370.0455,425.0042,369.0374,424.2021,368.4537,423.4405,367.9218,422.4432,367.0886,421.5698,366.4138,421.5893,366.4255,422.5727,368.0983,423.6449,369.8242,424.6743,371.5245,425.7855,373.2738,426.63,374.8634" style="stroke:#181818;stroke-width:4.0;"/></g><!--link int to an--><g id="link_int_an"><path d="M350.94,423.9434 L350.94,424.0368 L355.382,423.7592 L359.824,424.0293 L364.266,424.121 L368.708,423.6263 L373.15,423.9434 " fill="none" style="stroke:#181818;stroke-width:4.0;"/><polygon fill="#181818" points="344.94,423.9434,344.9685,424.0074,346.6839,424.6172,348.5662,425.6022,350.3941,426.4651,352.0434,426.9261,353.94,427.9434,353.9217,427.9251,353.0395,427.0428,352.2496,426.253,351.5239,425.5273,350.577,424.5804,349.94,423.9434,350.0705,424.0739,350.5914,422.9948,351.4934,422.2968,352.4418,421.6452,353.1198,420.7232,353.94,419.9434,353.9492,419.9642,352.1357,420.7336,350.3642,421.5978,348.5724,422.4162,346.8193,423.3218,344.94,423.9434" style="stroke:#181818;stroke-width:4.0;"/><polygon fill="#181818" points="379.15,423.9434,379.1785,424.0074,377.2939,423.0172,375.5762,422.4022,373.8041,421.6651,371.8534,420.5261,370.15,419.9434,370.1317,419.9251,370.8495,420.6428,371.6596,421.453,372.5339,422.3273,373.187,422.9804,374.15,423.9434,374.2805,424.0739,373.2014,424.5948,372.5034,425.4968,371.8518,426.4452,370.9298,427.1232,370.15,427.9434,370.1592,427.9642,371.9457,427.1336,373.7742,426.3978,375.5824,425.6162,377.4293,424.9218,379.15,423.9434" style="stroke:#181818;stroke-width:4.0;"/></g><!--SRC=[LO-nJiGm38RtF8Nfm9QoewfI1Gl3BSmiliJqBDAaIjmh5UBTSUxKIcpEv___aZnmT67n16txv57G1ZpR8bkWLhx524kWPnYWy3G70lQ4WGjvW2lJ2kdp8o9aAeJPNQ0Qm6qka356qWoIu9n4qWIUCpdX58sf0yPHTStxtdo4rzezOSIH9ee2WwQlB4ob0Io0nn6wRatvgypegE_XnnZTfGpDImf1rRUuq_dWIqQXEruoxFWj2et7XgFiYo5Ys8hYsxtwu5_zJHM2pJnUnFRLOwghipwjKK6jty4UqQB2_y3y0G00]--></g></svg>