<?xml version="1.0" encoding="us-ascii" standalone="no"?><svg xmlns="http://www.w3.org/2000/svg" xmlns:xlink="http://www.w3.org/1999/xlink" contentStyleType="text/css" height="1368px" preserveAspectRatio="none" style="width:948px;height:1368px;background:#FFFFFF;" version="1.1" viewBox="0 0 948 1368" width="948px" zoomAndPan="magnify"><defs/><g><text fill="#000000" font-family="Chalkduster" font-size="42" font-weight="bold" lengthAdjust="spacing" textLength="717" x="108.5" y="51.7215">Making Reusable Data Objects</text><!--cluster activities--><g id="cluster_activities"><polygon fill="#FFC7D8" points="9.5,83.8912,9.5,84.1013,19.5349,83.4768,29.5698,84.0844,39.6047,84.2908,49.6395,83.1778,59.6744,83.8134,69.7093,83.4647,79.7442,83.5077,89.7791,83.823,99.814,83.1998,109.8488,84.4448,119.8837,83.2609,129.9186,83.6934,139.9535,84.3231,149.9884,83.8054,160.0233,83.9594,170.0581,83.8592,180.093,84.0697,190.1279,84.1303,200.1628,84.4769,210.1977,84.5622,220.2326,84.5704,230.2674,84.1458,240.3023,84.3547,250.3372,84.5934,260.3721,83.17,270.407,84.5697,280.4419,83.5947,290.4767,84.425,300.5116,83.3961,310.5465,83.8227,320.5814,84.6328,330.6163,83.8424,340.6512,83.9965,350.686,84.2298,360.7209,84.3074,370.7558,83.8873,380.7907,84.1784,390.8256,83.3187,400.8605,84.1755,410.8953,84.4394,420.9302,84.3357,430.9651,84.5042,441,83.4081,451.0349,83.239,461.0698,83.2698,471.1047,83.8323,481.1395,83.6946,491.1744,84.5726,501.2093,83.7165,511.2442,83.5481,521.2791,84.1194,531.314,83.2243,541.3488,83.372,551.3837,84.5401,561.4186,84.3268,571.4535,84.6257,581.4884,83.5694,591.5233,84.2104,601.5581,84.4816,611.593,83.4188,621.6279,83.7953,631.6628,84.0171,641.6977,84.5429,651.7326,83.887,661.7674,84.3537,671.8023,83.3374,681.8372,83.2139,691.8721,84.3948,701.907,83.1742,711.9419,84.4001,721.9767,84.0978,732.0116,83.6232,742.0465,83.5374,752.0814,84.3499,762.1163,83.5918,772.1512,84.483,782.186,83.3384,792.2209,84.5086,802.2558,84.3755,812.2907,84.1361,822.3256,83.9384,832.3605,84.6178,842.3953,84.5047,852.4302,84.0604,862.4651,84.1593,872.5,83.8912,872.4834,83.851,872.9449,84.2582,873.2269,84.2317,873.5827,84.3836,873.8366,84.2896,874.2678,84.6234,874.143,84.5717,874.5777,85.0447,874.693,85.3853,874.6939,85.6786,874.7543,85.9965,875,86.3912,874.7811,86.3912,874.3138,96.4021,875.4147,106.4131,875.7396,116.4241,875.5264,126.4351,875.6949,136.4461,874.8633,146.4571,875.0872,156.4681,874.6124,166.4791,875.284,176.49,875.2468,186.501,875.5524,196.512,874.7703,206.523,874.8656,216.534,875.4435,226.545,875.5673,236.556,874.4875,246.567,874.8061,256.578,875.1493,266.5889,874.3892,276.5999,875.3534,286.6109,875.258,296.6219,874.8992,306.6329,875.1422,316.6439,875.7287,326.6549,874.6871,336.6659,875.315,346.6768,875.2856,356.6878,875.1158,366.6988,875.1409,376.7098,875.1135,386.7208,874.3758,396.7318,874.5992,406.7428,874.5385,416.7538,875.0638,426.7647,875.0881,436.7757,875.1617,446.7867,874.709,456.7977,874.9325,466.8087,874.8798,476.8197,875.5769,486.8307,875.4266,496.8417,874.5145,506.8526,874.9271,516.8636,874.4228,526.8746,875.2884,536.8856,875.6085,546.8966,875.5446,556.9076,874.5644,566.9186,875.464,576.9296,874.2572,586.9405,875.2002,596.9515,874.7007,606.9625,875.0967,616.9735,875.2403,626.9845,875.4721,636.9955,874.2801,647.0065,875.4755,657.0175,875.1782,667.0284,875.3553,677.0394,875.7478,687.0504,875.0055,697.0614,875.1753,707.0724,875.2134,717.0834,875.1972,727.0944,874.9992,737.1054,875.7107,747.1163,874.3903,757.1273,875.5653,767.1383,874.376,777.1493,874.4597,787.1603,875.04,797.1713,875.0283,807.1823,874.5072,817.1933,875.4137,827.2042,875.1089,837.2152,875.7267,847.2262,875.6671,857.2372,874.5517,867.2482,874.6021,877.2592,874.8708,887.2702,875,897.2812,875.1095,897.3265,874.9777,897.6861,874.7999,898.0267,874.4554,898.2982,874.6102,898.7765,874.2678,899.0489,874.3486,899.2441,873.9082,899.1808,873.5302,899.2682,873.1559,899.3647,872.8262,899.5686,872.5,899.7812,872.5,899.9186,862.4651,899.7128,852.4302,899.3634,842.3953,900.2685,832.3605,899.3222,822.3256,900.2835,812.2907,900.2084,802.2558,900.153,792.2209,900.4737,782.186,899.5353,772.1512,899.4805,762.1163,900.3,752.0814,899.1843,742.0465,899.5472,732.0116,899.8967,721.9767,899.8498,711.9419,899.4227,701.907,899.7382,691.8721,900.5258,681.8372,900.4296,671.8023,899.1849,661.7674,899.8597,651.7326,899.2673,641.6977,899.7548,631.6628,900.0742,621.6279,900.201,611.593,899.1164,601.5581,900.1817,591.5233,899.7896,581.4884,899.2258,571.4535,899.3101,561.4186,900.1078,551.3837,900.031,541.3488,899.7647,531.314,899.1091,521.2791,900.4393,511.2442,899.4693,501.2093,899.2531,491.1744,899.7138,481.1395,900.3709,471.1047,900.3966,461.0698,899.8163,451.0349,899.63,441,899.9509,430.9651,899.9674,420.9302,899.2734,410.8953,900.1951,400.8605,900.34,390.8256,899.5654,380.7907,899.352,370.7558,900.4558,360.7209,899.8022,350.686,899.781,340.6512,900.0802,330.6163,899.1355,320.5814,900.3111,310.5465,899.7657,300.5116,900.45,290.4767,899.5653,280.4419,900.1902,270.407,899.3372,260.3721,900.0262,250.3372,900.1605,240.3023,899.4538,230.2674,900.1442,220.2326,899.2097,210.1977,899.3107,200.1628,900.464,190.1279,900.4655,180.093,900.3497,170.0581,899.4208,160.0233,900.1654,149.9884,899.3091,139.9535,899.8393,129.9186,899.7799,119.8837,899.5187,109.8488,900.3971,99.814,900.2244,89.7791,899.4604,79.7442,900.3078,69.7093,899.873,59.6744,899.1976,49.6395,899.5478,39.6047,899.2559,29.5698,899.6421,19.5349,899.1522,9.5,899.7812,9.4234,899.5963,9.1554,899.6564,8.7775,899.4512,8.4319,899.3238,8.0675,899.1513,7.7322,899.0489,7.7838,899.0703,7.4148,898.6246,7.4886,898.3622,7.064,897.8935,7.2376,897.6725,7,897.2812,7.5928,897.2812,7.5221,887.2702,7.3613,877.2592,7.1922,867.2482,7.1057,857.2372,6.36,847.2262,7.4465,837.2152,7.3296,827.2042,6.8466,817.1933,6.9942,807.1823,6.7914,797.1713,7.2177,787.1603,7.6805,777.1493,6.6461,767.1383,7.4689,757.1273,6.9108,747.1163,6.6207,737.1054,6.5681,727.0944,6.3553,717.0834,6.5591,707.0724,7.0363,697.0614,7.273,687.0504,7.5762,677.0394,7.4201,667.0284,6.2886,657.0175,7.619,647.0065,7.4861,636.9955,7.5407,626.9845,7.5219,616.9735,6.3409,606.9625,6.7423,596.9515,7.316,586.9405,6.5185,576.9296,6.8971,566.9186,7.067,556.9076,7.3261,546.8966,7.0458,536.8856,7.7447,526.8746,7.4114,516.8636,7.2561,506.8526,6.4601,496.8417,7.3388,486.8307,6.4255,476.8197,7.3057,466.8087,7.0078,456.7977,7.2995,446.7867,6.9126,436.7757,6.8039,426.7647,6.2591,416.7538,6.7856,406.7428,6.2951,396.7318,6.7539,386.7208,7.4379,376.7098,7.1607,366.6988,6.5485,356.6878,7.2458,346.6768,7.0656,336.6659,7.5433,326.6549,7.5649,316.6439,7.0937,306.6329,6.821,296.6219,6.7855,286.6109,6.9936,276.5999,7.6691,266.5889,6.3263,256.578,6.8361,246.567,7.2668,236.556,7.7317,226.545,7.2119,216.534,6.8018,206.523,6.2621,196.512,6.5762,186.501,6.7781,176.49,7.3398,166.4791,7.3695,156.4681,7.0518,146.4571,6.867,136.4461,6.2804,126.4351,7.129,116.4241,7.4354,106.4131,7.6829,96.4021,7,86.3912,7.0303,86.4037,7.1711,86.0478,7.2251,85.656,7.5159,85.3622,7.4411,84.917,7.7322,84.6234,7.7981,84.7823,8.0468,84.3828,8.3717,84.1672,8.8257,84.2632,9.2066,84.1829,9.5,83.8912" style="stroke:#181818;stroke-width:4.0;"/><text fill="#000000" font-family="Chalkduster" font-size="24" font-style="italic" lengthAdjust="spacing" textLength="175" x="353.5" y="109.732">&#171;workspace&#187;</text><text fill="#000000" font-family="Chalkduster" font-size="24" font-weight="bold" lengthAdjust="spacing" textLength="548" x="167" y="140.3619">Research &amp; Data Management Activities</text></g><!--cluster obj--><g id="cluster_obj"><polygon fill="none" points="195.5,736.1512,195.5,736.3613,205.4091,735.7368,215.3182,736.3444,225.2273,736.5508,235.1364,735.4378,245.0455,736.0734,254.9545,735.7247,264.8636,735.7677,274.7727,736.083,284.6818,735.4598,294.5909,736.7048,304.5,735.5209,314.4091,735.9534,324.3182,736.5831,334.2273,736.0654,344.1364,736.2194,354.0455,736.1192,363.9545,736.3297,373.8636,736.3903,383.7727,736.7369,393.6818,736.8222,403.5909,736.8304,413.5,736.4058,423.4091,736.6147,433.3182,736.8534,443.2273,735.43,453.1364,736.8297,463.0455,735.8547,472.9545,736.685,482.8636,735.6561,492.7727,736.0827,502.6818,736.8928,512.5909,736.1024,522.5,736.1512,522.5134,736.1836,522.8967,736.4019,523.2602,736.5722,523.5602,736.5893,523.9509,736.8254,524.2678,736.8834,524.0915,736.8104,524.5018,737.2732,524.7295,737.6604,524.844,738.0008,525.0423,738.3758,525,738.6512,524.5169,738.6512,524.3478,748.3919,524.3786,758.1327,524.9411,767.8735,524.8035,777.6142,525.6814,787.355,524.8253,797.0958,524.6569,806.8365,525.2283,816.5773,524.3332,826.3181,524.4809,836.0589,525.649,845.7996,525.4357,855.5404,525,865.2812,525.2262,865.3749,524.7545,865.5937,524.8054,866.029,524.7425,866.4171,524.2687,866.6351,524.2678,867.0489,524.2555,867.0194,523.9303,867.2342,523.6438,867.5425,523.2066,867.487,522.9126,867.7772,522.5,867.7812,522.5,867.2274,512.5909,867.1039,502.6818,868.2848,492.7727,867.0642,482.8636,868.2901,472.9545,867.9878,463.0455,867.5132,453.1364,867.4274,443.2273,868.2399,433.3182,867.4818,423.4091,868.373,413.5,867.2284,403.5909,868.3986,393.6818,868.2655,383.7727,868.0261,373.8636,867.8284,363.9545,868.5078,354.0455,868.3947,344.1364,867.9504,334.2273,868.0493,324.3182,867.6509,314.4091,868.4976,304.5,867.936,294.5909,867.9537,284.6818,867.1728,274.7727,867.3759,264.8636,868.3119,254.9545,868.2109,245.0455,867.7382,235.1364,867.459,225.2273,867.5622,215.3182,867.095,205.4091,868.1959,195.5,867.7812,195.5943,868.0089,195.2136,867.7968,194.8815,867.7023,194.4219,867.2997,194.0969,867.2222,193.7322,867.0489,193.6129,866.9995,193.6733,866.7316,193.5153,866.3733,193.463,866.0587,193.0757,865.6054,193,865.2812,192.8656,865.2812,193.4435,855.5404,193.5673,845.7996,192.4875,836.0589,192.8061,826.3181,193.1493,816.5773,192.3892,806.8365,193.3534,797.0958,193.258,787.355,192.8992,777.6142,193.1422,767.8735,193.7287,758.1327,192.6871,748.3919,193,738.6512,193.097,738.6913,193.2344,738.334,193.3285,737.9588,193.4827,737.6085,193.6207,737.2514,193.7322,736.8834,193.6526,736.6912,194.0347,736.6135,194.3805,736.4484,194.801,736.4637,195.1577,736.3247,195.5,736.1512" style="stroke:#181818;stroke-width:4.0;"/><text fill="#000000" font-family="Chalkduster" font-size="24" font-weight="bold" lengthAdjust="spacing" textLength="288" x="215" y="761.992">Reusable Data Object</text></g><!--cluster std--><g id="cluster_std"><polygon fill="#ADD8E6" points="41.5,179.8912,41.5,180.1013,51.4875,179.4768,61.475,180.0844,71.4625,180.2908,81.45,179.1778,91.4375,179.8134,101.425,179.4647,111.4125,179.5077,121.4,179.823,131.3875,179.1998,141.375,180.4448,151.3625,179.2609,161.35,179.6934,171.3375,180.3231,181.325,179.8054,191.3125,179.9594,201.3,179.8592,211.2875,180.0697,221.275,180.1303,231.2625,180.4769,241.25,180.5622,251.2375,180.5704,261.225,180.1458,271.2125,180.3547,281.2,180.5934,291.1875,179.17,301.175,180.5697,311.1625,179.5947,321.15,180.425,331.1375,179.3961,341.125,179.8227,351.1125,180.6328,361.1,179.8424,371.0875,179.9965,381.075,180.2298,391.0625,180.3074,401.05,179.8873,411.0375,180.1784,421.025,179.3187,431.0125,180.1755,441,180.4394,450.9875,180.3357,460.975,180.5042,470.9625,179.4081,480.95,179.239,490.9375,179.2698,500.925,179.8323,510.9125,179.6946,520.9,180.5726,530.8875,179.7165,540.875,179.5481,550.8625,180.1194,560.85,179.2243,570.8375,179.372,580.825,180.5401,590.8125,180.3268,600.8,180.6257,610.7875,179.5694,620.775,180.2104,630.7625,180.4816,640.75,179.4188,650.7375,179.7953,660.725,180.0171,670.7125,180.5429,680.7,179.887,690.6875,180.3537,700.675,179.3374,710.6625,179.2139,720.65,180.3948,730.6375,179.1742,740.625,180.4001,750.6125,180.0978,760.6,179.6232,770.5875,179.5374,780.575,180.3499,790.5625,179.5918,800.55,180.483,810.5375,179.3384,820.525,180.5086,830.5125,180.3755,840.5,179.8912,840.5312,179.9666,840.8596,180.0521,841.2998,180.4078,841.6389,180.5195,841.9358,180.5291,842.2678,180.6234,842.3504,180.6576,842.3741,180.9603,842.7813,181.4219,842.7548,181.7038,842.9067,182.0596,843,182.3912,842.3916,182.3912,842.5948,192.243,843.5307,202.0949,843.4298,211.9468,842.9571,221.7987,842.6778,231.6505,842.7811,241.5024,842.3138,251.3543,843.4147,261.2062,843.7396,271.058,843.5264,280.9099,843.6949,290.7618,842.8633,300.6137,843.0872,310.4655,842.6124,320.3174,843.284,330.1693,843,340.0212,843.076,340.0526,843.0237,340.4452,842.6364,340.699,842.5193,341.0647,842.5508,341.4919,842.2678,341.7889,842.3401,341.9636,841.8488,341.7775,841.5359,342.0221,841.2261,342.2742,840.7756,342.1866,840.5,342.5212,840.5,342.8746,830.5125,342.7792,820.525,342.4204,810.5375,342.6634,800.55,343.2498,790.5625,342.2083,780.575,342.8361,770.5875,342.8068,760.6,342.6369,750.6125,342.6621,740.625,342.6346,730.6375,341.897,720.65,342.1203,710.6625,342.0596,700.675,342.585,690.6875,342.6093,680.7,342.6829,670.7125,342.2302,660.725,342.4536,650.7375,342.4009,640.75,343.098,630.7625,342.9477,620.775,342.0356,610.7875,342.4482,600.8,341.9439,590.8125,342.8095,580.825,343.1296,570.8375,343.0657,560.85,342.0856,550.8625,342.9851,540.875,341.7784,530.8875,342.7213,520.9,342.2218,510.9125,342.6179,500.925,342.7615,490.9375,342.9933,480.95,341.8012,470.9625,342.9966,460.975,342.6993,450.9875,342.8765,441,343.269,431.0125,342.5266,421.025,342.6964,411.0375,342.7346,401.05,342.7184,391.0625,342.5203,381.075,343.2319,371.0875,341.9114,361.1,343.0864,351.1125,341.8972,341.125,341.9808,331.1375,342.5612,321.15,342.5494,311.1625,342.0283,301.175,342.9349,291.1875,342.63,281.2,343.2478,271.2125,343.1883,261.225,342.0729,251.2375,342.1232,241.25,342.392,231.2625,342.8767,221.275,342.9241,211.2875,342.8223,201.3,342.1792,191.3125,343.1575,181.325,343.1549,171.3375,342.4739,161.35,342.2821,151.3625,342.1198,141.375,342.3066,131.3875,342.6586,121.4,342.4528,111.4125,342.1034,101.425,343.0085,91.4375,342.0622,81.45,343.0235,71.4625,342.9484,61.475,342.893,51.4875,343.2137,41.5,342.5212,41.4686,342.4454,41.1081,342.2821,40.8591,342.3881,40.3632,341.898,40.0559,341.8633,39.7322,341.7889,39.7678,341.8037,39.6069,341.4441,39.329,341.0361,39.2797,340.7228,39.3758,340.4697,39,340.0212,39.6485,340.0212,38.4037,330.1693,39.0785,320.3174,38.4861,310.4655,38.9737,300.6137,39.293,290.7618,39.4199,280.9099,38.3353,271.058,39.4005,261.2062,39.0084,251.3543,38.4447,241.5024,38.5289,231.6505,39.3266,221.7987,39.2499,211.9468,38.9836,202.0949,38.3279,192.243,39,182.3912,39.2027,182.4751,39.0504,181.9978,39.1303,181.6167,39.4186,181.3219,39.7674,181.0522,39.7322,180.6234,39.8107,180.8129,40.0903,180.4878,40.4201,180.2839,40.8146,180.2363,41.1702,180.095,41.5,179.8912" style="stroke:#181818;stroke-width:4.0;"/><text fill="#000000" font-family="Chalkduster" font-size="24" font-style="italic" lengthAdjust="spacing" textLength="170" x="356" y="205.732">&#171;standards&#187;</text><text fill="#000000" font-family="Chalkduster" font-size="24" font-weight="bold" lengthAdjust="spacing" textLength="138" x="372" y="236.3619">Standards</text></g><!--cluster infrastructure--><g id="cluster_infrastructure"><polygon fill="none" points="351.5,1056.7812,351.5,1056.9913,361.4649,1056.3668,371.4298,1056.9744,381.3947,1057.1808,391.3596,1056.0678,401.3246,1056.7034,411.2895,1056.3547,421.2544,1056.3977,431.2193,1056.713,441.1842,1056.0898,451.1491,1057.3348,461.114,1056.1509,471.0789,1056.5834,481.0439,1057.2131,491.0088,1056.6954,500.9737,1056.8494,510.9386,1056.7492,520.9035,1056.9597,530.8684,1057.0203,540.8333,1057.3669,550.7982,1057.4522,560.7632,1057.4604,570.7281,1057.0358,580.693,1057.2447,590.6579,1057.4834,600.6228,1056.06,610.5877,1057.4597,620.5526,1056.4847,630.5175,1057.315,640.4825,1056.2861,650.4474,1056.7127,660.4123,1057.5228,670.3772,1056.7324,680.3421,1056.8865,690.307,1057.1198,700.2719,1057.1974,710.2368,1056.7773,720.2018,1057.0684,730.1667,1056.2087,740.1316,1057.0655,750.0965,1057.3294,760.0614,1057.2257,770.0263,1057.3942,779.9912,1056.2981,789.9561,1056.129,799.9211,1056.1598,809.886,1056.7223,819.8509,1056.5846,829.8158,1057.4626,839.7807,1056.6065,849.7456,1056.4381,859.7105,1057.0094,869.6754,1056.1143,879.6404,1056.262,889.6053,1057.4301,899.5702,1057.2168,909.5351,1057.5157,919.5,1056.7812,919.459,1056.6821,919.8943,1057.0259,920.2824,1057.2559,920.5004,1057.075,920.902,1057.3374,921.2678,1057.5134,921.3066,1057.5295,921.6149,1057.9501,921.5594,1058.22,921.8496,1058.6331,921.683,1058.857,922,1059.2812,921.3227,1059.2812,922.5036,1069.3862,921.2831,1079.4912,922.509,1089.5962,922.2066,1099.7012,921.7321,1109.8062,921.6462,1119.9112,922.4588,1130.0162,921.7007,1140.1212,922.5919,1150.2262,921.4473,1160.3312,922.6174,1170.4362,922.4843,1180.5412,922.245,1190.6462,922.0472,1200.7512,922.7266,1210.8562,922.6136,1220.9612,922.1693,1231.0662,922,1241.1712,922.0826,1241.2054,921.8134,1241.5081,921.9277,1241.9697,921.6084,1242.2516,921.4674,1242.6074,921.2678,1242.9389,921.1902,1242.7516,920.8625,1242.9606,920.6284,1243.3953,920.2619,1243.5106,919.8481,1243.5115,919.5,1243.6712,919.5,1243.349,909.5351,1243.4522,899.5702,1242.985,889.6053,1244.0859,879.6404,1244.4107,869.6754,1244.1976,859.7105,1244.3661,849.7456,1243.5344,839.7807,1243.7584,829.8158,1243.2836,819.8509,1243.9552,809.886,1243.9179,799.9211,1244.2235,789.9561,1243.4415,779.9912,1243.5368,770.0263,1244.1146,760.0614,1244.2385,750.0965,1243.1586,740.1316,1243.4773,730.1667,1243.8204,720.2018,1243.0603,710.2368,1244.0246,700.2719,1243.9292,690.307,1243.5704,680.3421,1243.8134,670.3772,1244.3998,660.4123,1243.3583,650.4474,1243.9861,640.4825,1243.9568,630.5175,1243.7869,620.5526,1243.8121,610.5877,1243.7846,600.6228,1243.047,590.6579,1243.2703,580.693,1243.2096,570.7281,1243.735,560.7632,1243.7593,550.7982,1243.8329,540.8333,1243.3802,530.8684,1243.6036,520.9035,1243.5509,510.9386,1244.248,500.9737,1244.0977,491.0088,1243.1856,481.0439,1243.5982,471.0789,1243.0939,461.114,1243.9595,451.1491,1244.2796,441.1842,1244.2157,431.2193,1243.2356,421.2544,1244.1351,411.2895,1242.9284,401.3246,1243.8713,391.3596,1243.3718,381.3947,1243.7679,371.4298,1243.9115,361.4649,1244.1433,351.5,1243.6712,351.4082,1243.4495,351.2071,1243.6711,350.8156,1243.4331,350.4847,1243.3412,350.1812,1243.3157,349.7322,1242.9389,349.7339,1242.9396,349.6398,1242.6077,349.5051,1242.259,349.3536,1241.9034,349.1462,1241.5246,349,1241.1712,349.7107,1241.1712,348.3903,1231.0662,349.5653,1220.9612,348.376,1210.8562,348.4597,1200.7512,349.04,1190.6462,349.0283,1180.5412,348.5072,1170.4362,349.4137,1160.3312,349.1089,1150.2262,349.7267,1140.1212,349.6671,1130.0162,348.5517,1119.9112,348.6021,1109.8062,348.8708,1099.7012,349.3555,1089.5962,349.403,1079.4912,349.3012,1069.3862,349,1059.2812,348.8947,1059.2375,349.3424,1059.0088,349.4881,1058.6549,349.4248,1058.2145,349.5122,1057.8365,349.7322,1057.5134,349.681,1057.3898,350.0584,1057.3009,350.4569,1057.2628,350.7842,1057.053,351.0932,1056.7989,351.5,1056.7812" style="stroke:#181818;stroke-width:4.0;"/><text fill="#000000" font-family="Chalkduster" font-size="24" font-weight="bold" lengthAdjust="spacing" textLength="184" x="543.5" y="1082.622">Infrastucture</text></g><!--entity cur--><g id="elem_cur"><polygon fill="none" points="414.0442,566.4671,412.8715,568.0694,411.4845,570.4162,409.5008,571.9978,407.4163,572.8627,405.7542,572.9378,403.618,571.8561,401.6023,571.1495,400.0724,569.7147,399.2699,568.0723,398.7939,566.7645,398.3277,565.0562,397.5709,563.5862,398.1525,562.151,398.662,560.5788,400.574,559.3353,401.9192,557.722,403.5843,557.1862,405.5637,556.7248,408.1021,556.999,409.4924,557.6546,411.1089,557.9518,413.0743,559.9655,413.7595,562.0913,414.0571,563.5418,413.72,565.932" style="stroke:#8B0000;stroke-width:4.0;"/><path d="M406,572.5212 L406.1868,572.5212 L405.6317,577.9212 L406.1718,583.3212 L406.3553,588.7212 L405.3659,594.1212 L406,599.5212 M393,580.5212 L393,580.4521 L398.2,580.1421 L403.4,580.1803 L408.6,580.4606 L413.8,579.9066 L419,580.5212 M406,599.5212 L406.3719,599.8435 L402.9766,602.1542 L400.6672,605.406 L398.4901,608.7726 L395.5424,611.4712 L393,614.5212 M406,599.5212 L406.0458,599.5609 L408.5785,602.5026 L411.3199,605.6251 L413.9606,608.6604 L416.7934,611.8621 L419,614.5212 " fill="none" style="stroke:#8B0000;stroke-width:4.0;"/><text fill="#000000" font-family="Chalkduster" font-size="24" lengthAdjust="spacing" textLength="267" x="272.5" y="643.362">Curate &amp; Integrate</text></g><!--entity coll--><g id="elem_coll"><polygon fill="none" points="817.0442,566.4671,815.8715,568.0694,814.4845,570.4162,812.5008,571.9978,810.4163,572.8627,808.7542,572.9378,806.618,571.8561,804.6023,571.1495,803.0724,569.7147,802.2699,568.0723,801.7939,566.7645,801.3277,565.0562,800.5709,563.5862,801.1525,562.151,801.662,560.5788,803.574,559.3353,804.9192,557.722,806.5843,557.1862,808.5637,556.7248,811.1021,556.999,812.4924,557.6546,814.1089,557.9518,816.0743,559.9655,816.7595,562.0913,817.0571,563.5418,816.72,565.932" style="stroke:#8B0000;stroke-width:4.0;"/><path d="M809,572.5212 L809.1868,572.5212 L808.6317,577.9212 L809.1718,583.3212 L809.3553,588.7212 L808.3659,594.1212 L809,599.5212 M796,580.5212 L796,580.4521 L801.2,580.1421 L806.4,580.1803 L811.6,580.4606 L816.8,579.9066 L822,580.5212 M809,599.5212 L809.3719,599.8435 L805.9766,602.1542 L803.6672,605.406 L801.4901,608.7726 L798.5424,611.4712 L796,614.5212 M809,599.5212 L809.0458,599.5609 L811.5785,602.5026 L814.3199,605.6251 L816.9606,608.6604 L819.7934,611.8621 L822,614.5212 " fill="none" style="stroke:#8B0000;stroke-width:4.0;"/><text fill="#000000" font-family="Chalkduster" font-size="24" lengthAdjust="spacing" textLength="99" x="759.5" y="643.362">Collect</text></g><!--entity objdata--><g id="elem_objdata"><polygon fill="none" points="219.5,793.1512,219.5,793.3613,229.125,792.7368,238.75,793.3444,248.375,793.5508,258,792.4378,267.625,793.0734,277.25,792.7247,286.875,792.7677,296.5,793.1512,296.4913,793.1302,296.7654,793.0847,297.2777,793.6146,297.4803,793.3964,297.889,793.676,298.2678,793.8834,298.4008,793.9385,298.3878,794.226,298.5817,794.5992,298.6973,794.94,298.9085,795.3204,299,795.6512,299.2391,795.6512,299.5857,804.7771,299.6711,813.9031,299.6793,823.0291,299.2546,832.155,299,841.281,299.1428,841.3401,299.0698,841.7241,298.485,841.8961,298.7696,842.4282,298.3229,842.6574,298.2678,843.0488,298.3359,843.2132,297.8511,843.0428,297.5519,843.3206,297.3017,843.7165,296.8473,843.6195,296.5,843.781,296.5,843.8863,286.875,844.1196,277.25,844.1972,267.625,843.7771,258,844.0682,248.375,843.2086,238.75,844.0654,229.125,844.3292,219.5,843.781,219.5567,843.9179,219.2246,843.8233,218.7313,843.3393,218.3561,843.1408,218.0065,843.0038,217.7322,843.0488,217.7141,843.0413,217.5253,842.6701,217.6492,842.4286,217.2391,841.9658,217.0408,841.5908,217,841.281,217.2283,841.281,216.3332,832.155,216.4809,823.0291,217.649,813.9031,217.4357,804.7771,217,795.6512,217.2262,795.7449,217.0473,795.2566,217.3912,794.9848,217.6212,794.6658,217.4403,794.1767,217.7322,793.8834,217.72,793.8539,218.1019,793.7757,218.5225,793.7912,218.7924,793.4428,219.2055,793.4401,219.5,793.1512" style="stroke:#181818;stroke-width:4.0;"/><text fill="#000000" font-family="Chalkduster" font-size="24" lengthAdjust="spacing" textLength="62" x="227" y="826.992">Data</text></g><!--entity objmeta--><g id="elem_objmeta"><polygon fill="none" points="337,793.1512,337,793.3613,347.1429,792.7368,357.2857,793.3444,367.4286,793.5508,377.5714,792.4378,387.7143,793.0734,397.8571,792.7247,408,792.7677,418.1429,793.083,428.2857,792.4598,438.4286,793.7048,448.5714,792.5209,458.7143,792.9534,468.8571,793.5831,479,793.1512,478.9891,793.1247,479.3623,793.3186,479.703,793.4342,480.0834,793.6455,480.4447,793.8106,480.7678,793.8834,480.9481,793.9581,481.1209,794.3225,481.2698,794.6771,481.2855,794.9765,481.4963,795.3567,481.5,795.6512,482.2022,795.6512,480.7788,804.7771,482.1785,813.9031,481.2035,823.0291,482.0338,832.155,481.5,841.281,481.3476,841.2178,481.3325,841.6258,481.4355,842.0827,481.0457,842.3354,480.9466,842.7086,480.7678,843.0488,480.811,843.153,480.4673,843.3234,480.0602,843.3405,479.7437,843.5766,479.2805,843.4583,479,843.781,479,844.0654,468.8571,844.3292,458.7143,844.2255,448.5714,844.394,438.4286,843.2979,428.2857,843.1288,418.1429,843.1596,408,843.7221,397.8571,843.5845,387.7143,844.4624,377.5714,843.6063,367.4286,843.4379,357.2857,844.0093,347.1429,843.1142,337,843.781,336.9338,843.6211,336.7292,843.8344,336.3485,843.6223,336.033,843.5678,335.5447,843.0961,335.2322,843.0488,335.3305,843.0895,335.2676,842.7705,334.7939,842.2814,334.7634,841.9759,334.6852,841.6506,334.5,841.281,335.1518,841.281,334.4958,832.155,334.9626,823.0291,333.9462,813.9031,333.8227,804.7771,334.5,795.6512,334.6551,795.7154,334.4257,795.2062,334.9496,795.009,335.003,794.6169,335.0033,794.2028,335.2322,793.8834,335.1871,793.7744,335.6443,793.8782,335.9012,793.4983,336.3684,793.6263,336.5759,793.1274,337,793.1512" style="stroke:#181818;stroke-width:4.0;"/><text fill="#000000" font-family="Chalkduster" font-size="24" lengthAdjust="spacing" textLength="127" x="344.5" y="826.992">Metadata</text></g><!--entity meta--><g id="elem_meta"><polygon fill="none" points="65.5,267.8912,65.5,268.1013,75.5682,267.4768,85.6364,268.0844,95.7045,268.2908,105.7727,267.1778,115.8409,267.8134,125.9091,267.4647,135.9773,267.5077,146.0455,267.823,156.1136,267.1998,166.1818,268.4448,176.25,267.2609,186.3182,267.6934,196.3864,268.3231,206.4545,267.8054,216.5227,267.9594,226.5909,267.8592,236.6591,268.0697,246.7273,268.1303,256.7955,268.4769,266.8636,268.5622,276.9318,268.5704,287,268.1458,297.0682,268.3547,307.1364,268.5934,317.2045,267.17,327.2727,268.5697,337.3409,267.5947,347.4091,268.425,357.4773,267.3961,367.5455,267.8227,377.6136,268.6328,387.6818,267.8424,397.75,267.9965,407.8182,268.2298,417.8864,268.3074,427.9545,267.8873,438.0227,268.1784,448.0909,267.3187,458.1591,268.1755,468.2273,268.4394,478.2955,268.3357,488.3636,268.5042,498.4318,267.4081,508.5,267.8912,508.4168,267.6903,508.7743,267.8462,509.1996,268.1659,509.5356,268.27,510.0011,268.6868,510.2678,268.6234,510.214,268.6011,510.3086,268.9332,510.631,269.3596,510.5017,269.599,510.6937,269.9714,511,270.3912,511.649,270.3912,511.4357,279.5171,511.7345,288.6431,510.6782,297.7691,511.3192,306.895,511,316.021,511.1818,316.0963,510.7081,316.3143,510.6776,316.7159,510.5995,317.0977,510.6149,317.5183,510.2678,317.7888,510.2672,317.7875,509.9732,318.0777,509.49,317.9111,509.1207,318.0195,508.9178,318.5296,508.5,318.521,508.5,317.8041,498.4318,319.03,488.3636,318.7276,478.2955,318.2531,468.2273,318.1672,458.1591,318.9798,448.0909,318.2217,438.0227,319.1129,427.9545,317.9682,417.8864,319.1384,407.8182,319.0053,397.75,318.766,387.6818,318.5682,377.6136,319.2476,367.5455,319.1346,357.4773,318.6902,347.4091,318.7892,337.3409,318.3907,327.2727,319.2374,317.2045,318.6759,307.1364,318.6936,297.0682,317.9126,287,318.1158,276.9318,319.0517,266.8636,318.9508,256.7955,318.4781,246.7273,318.1988,236.6591,318.3021,226.5909,317.8348,216.5227,318.9357,206.4545,319.2606,196.3864,319.0474,186.3182,319.2159,176.25,318.3843,166.1818,318.6082,156.1136,318.1334,146.0455,318.805,135.9773,318.7678,125.9091,319.0734,115.8409,318.2913,105.7727,318.3866,95.7045,318.9645,85.6364,319.0883,75.5682,318.0085,65.5,318.521,65.4753,318.4613,65.1655,318.4205,64.715,318.04,64.4844,318.1905,64.1187,318.0147,63.7322,317.7888,63.7012,317.7759,63.6296,317.4534,63.6637,317.1746,63.1965,316.6882,63.2434,316.4147,63,316.021,63.2856,316.021,63.1158,306.895,63.1409,297.7691,63.1135,288.6431,62.3758,279.5171,63,270.3912,62.8766,270.34,63.0043,269.9787,63.3125,269.6922,63.4665,269.3417,63.6356,268.9976,63.7322,268.6234,63.6951,268.5338,64.0772,268.4562,64.424,268.2935,64.8665,268.3617,65.2009,268.169,65.5,267.8912" style="stroke:#181818;stroke-width:4.0;"/><text fill="#000000" font-family="Chalkduster" font-size="24" lengthAdjust="spacing" textLength="428" x="73" y="301.732">Packaging Standard: RO-Crate</text></g><!--entity data--><g id="elem_data"><polygon fill="none" points="548.5,267.8912,548.5,268.1013,558.46,267.4768,568.42,268.0844,578.38,268.2908,588.34,267.1778,598.3,267.8134,608.26,267.4647,618.22,267.5077,628.18,267.823,638.14,267.1998,648.1,268.4448,658.06,267.2609,668.02,267.6934,677.98,268.3231,687.94,267.8054,697.9,267.9594,707.86,267.8592,717.82,268.0697,727.78,268.1303,737.74,268.4769,747.7,268.5622,757.66,268.5704,767.62,268.1458,777.58,268.3547,787.54,268.5934,797.5,267.8912,797.408,267.6691,797.9401,268.2466,798.1693,268.0927,798.6288,268.4949,798.8511,268.3245,799.2678,268.6234,799.2467,268.6147,799.6426,269.0715,799.5457,269.3243,799.7395,269.6975,799.9578,270.0808,800,270.3912,800.4162,270.3912,799.9961,279.5171,800.2872,288.6431,799.4276,297.7691,800.2844,306.895,800,316.021,800.1688,316.0909,799.9905,316.4313,799.8959,316.8063,799.4119,317.02,799.2134,317.352,799.2678,317.7888,799.1885,317.5974,798.9067,317.9171,798.5356,318.0211,798.294,318.4379,797.8313,318.3208,797.5,318.521,797.5,318.1779,787.54,318.7493,777.58,317.8542,767.62,318.0019,757.66,319.1699,747.7,318.9567,737.74,319.2555,727.78,318.1992,717.82,318.8402,707.86,319.1114,697.9,318.0486,687.94,318.4251,677.98,318.647,668.02,319.1728,658.06,318.5168,648.1,318.9836,638.14,317.9672,628.18,317.8437,618.22,319.0246,608.26,317.8041,598.3,319.03,588.34,318.7276,578.38,318.2531,568.42,318.1672,558.46,318.9798,548.5,318.521,548.4618,318.4288,548.2219,318.5568,547.7224,318.0579,547.5181,318.2718,547.1476,318.0844,546.7322,317.7888,546.8077,317.82,546.6003,317.4412,546.6631,317.1743,546.4819,316.8064,546.1986,316.3961,546,316.021,546.2682,316.021,545.8697,306.895,546.7165,297.7691,546.1549,288.6431,546.1726,279.5171,546,270.3912,545.8127,270.3136,546.0217,269.9859,546.4563,269.7518,546.5717,269.3853,546.5726,268.9715,546.7322,268.6234,546.6911,268.5242,547.0579,268.4095,547.3518,268.1192,547.8458,268.3118,548.2408,268.2654,548.5,267.8912" style="stroke:#181818;stroke-width:4.0;"/><text fill="#000000" font-family="Chalkduster" font-size="24" lengthAdjust="spacing" textLength="234" x="556" y="301.732">Metadata Profile</text></g><!--entity new--><g id="elem_new"><path d="M726.6386,1114.5324 L726.6386,1114.5324 L726.6492,1114.6252 L729.0278,1114.0737 L731.4686,1114.0663 L733.8892,1113.8818 L736.2431,1113.1146 L738.6892,1113.1539 L738.6892,1113.1539 L738.6883,1113.1194 L741.6887,1112.8871 L744.6935,1112.8289 L747.7015,1112.8917 L750.6987,1112.5374 L753.7109,1112.7673 L753.7109,1112.7673 L753.7255,1113.0129 L756.6466,1112.3123 L759.6103,1112.3288 L762.5793,1112.4328 L765.5179,1112.0278 L768.4725,1111.8905 L768.4725,1111.8905 L768.4731,1111.9208 L770.8954,1111.8297 L773.3204,1111.8766 L775.7442,1111.857 L778.1703,1111.9644 L780.5885,1111.6575 L780.5885,1111.6575 L780.6362,1111.952 L783.3606,1111.5148 L786.0544,1110.8878 L788.7931,1110.5388 L791.534,1110.2028 L794.208,1109.454 L794.208,1109.454 L794.1784,1109.1348 L797.4608,1109.4548 L800.6457,1108.7238 L803.9048,1108.7918 L807.0875,1108.037 L810.3328,1107.9566 L810.3328,1107.9566 L810.327,1107.9267 L813.0281,1108.7852 L815.5953,1108.9451 L818.2415,1109.5172 L820.8943,1110.124 L823.4992,1110.4811 L823.4992,1110.4811 L823.5023,1110.6661 L826.438,1110.4306 L829.3789,1110.5112 L832.3114,1110.0804 L835.2565,1110.4124 L838.1932,1110.2372 L838.1932,1110.2372 L838.2173,1110.4797 L840.5259,1110.664 L842.8465,1110.9687 L845.1114,1110.7142 L847.4171,1110.8696 L849.759,1111.3882 L849.759,1111.3882 L849.7292,1111.1136 L852.6257,1111.6738 L855.4887,1111.9246 L858.4004,1112.6241 L861.2289,1112.5575 L864.1068,1112.9462 L864.1068,1112.9462 L864.1018,1112.7939 L867.1744,1113.1482 L870.2256,1112.8511 L873.292,1113.0172 L876.3733,1113.6366 L879.4281,1113.4488 L879.4281,1113.4488 L879.476,1113.6364 L881.9364,1113.1449 L884.2478,1112.0698 L886.7458,1111.7256 L889.2032,1111.2221 L891.5658,1110.3476 L891.3909,1110.2314 L892.9172,1112.4108 L894.3861,1114.552 L895.9676,1116.7681 L897.1116,1118.6934 L898.5,1120.7812 L898.5,1120.7812 L898.6423,1120.9296 L898.762,1121.0178 L899.1563,1121.3925 L899.9517,1122.1857 L900.0086,1122.2084 L900.6614,1122.8528 L900.6614,1122.8528 L900.8849,1122.8878 L901.1978,1125.7151 L901.4351,1128.5305 L901.843,1131.3726 L902.6455,1134.2765 L902.8897,1137.093 L902.8897,1137.093 L902.7625,1137.054 L904.1094,1140.3227 L904.5913,1143.3258 L906.0567,1146.6309 L906.9683,1149.766 L907.7308,1152.8552 L907.7308,1152.8552 L907.8382,1152.8728 L908.2148,1155.6964 L908.9761,1158.5828 L909.3898,1161.4125 L909.6581,1164.2184 L910.0472,1167.0441 L910.0472,1167.0441 L910.1617,1167.077 L909.068,1170.2386 L908.506,1173.5532 L907.3426,1176.6948 L906.4266,1179.9075 L905.4293,1183.0969 L905.4293,1183.0969 L905.1624,1183.0534 L904.7238,1186.3071 L904.6067,1189.6132 L904.0347,1192.8452 L903.2996,1196.0507 L902.7907,1199.293 L902.7907,1199.293 L902.6478,1199.2843 L902.8605,1202.0429 L902.8202,1204.7862 L903.4755,1207.5717 L903.7866,1210.3363 L903.6254,1213.0722 L903.7373,1213.2777 L901.348,1214.6632 L898.7462,1215.6582 L896.3687,1217.0653 L893.8427,1218.1997 L891.5,1219.6707 L891.5,1219.6707 L891.6093,1219.7339 L891.7621,1220.0146 L892.0469,1220.3716 L891.9133,1220.4865 L892.1172,1220.7966 L892.3361,1221.1155 L892.3361,1221.1155 L892.3608,1221.3111 L889.461,1221.7329 L886.4942,1221.6239 L883.6053,1222.1316 L880.7177,1222.6501 L877.8027,1222.9515 L877.8027,1222.9515 L877.7874,1222.6805 L875.2701,1222.9641 L872.7262,1222.7775 L870.1756,1222.4741 L867.6402,1222.4377 L865.0951,1222.2304 L865.0951,1222.2304 L865.1198,1222.5533 L862.019,1222.3266 L858.9749,1222.8397 L855.9085,1223.0616 L852.8373,1223.2212 L849.7679,1223.4048 L849.7679,1223.4048 L849.777,1223.4668 L847.2968,1223.818 L844.7708,1223.8568 L842.3067,1224.3183 L839.8243,1224.6548 L837.3756,1225.221 L837.3756,1225.221 L837.3802,1225.249 L834.7556,1225.6951 L832.1345,1226.1629 L829.4751,1226.3999 L826.8649,1226.9333 L824.2434,1227.3984 L824.2434,1227.3984 L824.24,1227.3451 L821.0499,1227.856 L817.8361,1227.991 L814.6012,1227.7881 L811.4031,1228.1728 L808.1956,1228.4069 L808.1956,1228.4069 L808.1835,1228.1506 L805.4029,1228.403 L802.6109,1228.4132 L799.8108,1228.253 L796.9915,1227.686 L794.2019,1227.7475 L794.2019,1227.7475 L794.2274,1227.9521 L791.5818,1227.0986 L789.0542,1227.1932 L786.4474,1226.6517 L783.8898,1226.5051 L781.3052,1226.1412 L781.3052,1226.1412 L781.3158,1226.2475 L778.7019,1226.0871 L776.0249,1225.2971 L773.4536,1225.5628 L770.8163,1225.1685 L768.1842,1224.8268 L768.1842,1224.8268 L768.2164,1224.9814 L765.5259,1224.5837 L762.7325,1223.6923 L760.0217,1223.1977 L757.2991,1222.6458 L754.5536,1221.9845 L754.5536,1221.9845 L754.5544,1222.0721 L751.5337,1222.0108 L748.5166,1222.3538 L745.4914,1221.7937 L742.4761,1222.3427 L739.454,1222.1182 L739.454,1222.1182 L739.3944,1221.8474 L736.5285,1222.5156 L733.71,1223.3995 L730.835,1224.0263 L727.9113,1224.432 L725.0845,1225.2779 L725.242,1225.3727 L723.609,1222.7814 L722.3274,1220.4015 L720.7878,1217.8664 L718.8462,1215.0894 L717.5,1212.6707 L717.5,1212.6707 L717.486,1212.4944 L717.7196,1212.6312 L717.9608,1212.8637 L718.1866,1212.9024 L718.4072,1212.8751 L718.6208,1212.7594 L718.6208,1212.7594 L718.4719,1212.729 L718.2703,1209.7384 L717.6416,1206.6607 L716.7174,1203.5227 L716.0063,1200.4282 L715.4828,1197.3719 L715.4828,1197.3719 L715.306,1197.3481 L714.9956,1194.4398 L714.7579,1191.5412 L714.2746,1188.6095 L713.7279,1185.6694 L713.5193,1182.7747 L713.5193,1182.7747 L713.7257,1182.8402 L712.3626,1179.6784 L711.8077,1176.7729 L710.8137,1173.7282 L709.828,1170.6861 L708.7083,1167.6016 L708.7083,1167.6016 L709.0085,1167.6696 L709.3047,1164.4767 L709.9839,1161.3707 L711.0421,1158.3506 L711.2615,1155.1403 L712.2232,1152.0983 L712.2232,1152.0983 L712.1222,1152.0735 L713.0176,1149.077 L713.742,1146.0386 L714.3023,1142.9599 L715.183,1139.9599 L715.9462,1136.9309 L715.9462,1136.9309 L716.2644,1137.0218 L715.3834,1134.0687 L714.0114,1130.9754 L713.4598,1128.1163 L712.3667,1125.1026 L711.7463,1122.2239 L711.7399,1122.2141 L714.3689,1120.6439 L716.9508,1119.0024 L719.2354,1116.9119 L722.0475,1115.6181 L724.5,1113.7812 L724.5,1113.7812 L724.5012,1113.7847 L724.8459,1113.6985 L725.2861,1113.8841 L725.8313,1114.3688 L726.2477,1114.4869 L726.6386,1114.5324 " fill="none" style="stroke:#181818;stroke-width:4.0;"/><text fill="#000000" font-family="Chalkduster" font-size="24" lengthAdjust="spacing" textLength="103" x="724.5" y="1144.622">Novel /</text><text fill="#000000" font-family="Chalkduster" font-size="24" lengthAdjust="spacing" textLength="167" x="724.5" y="1175.2519">non-archive</text><text fill="#000000" font-family="Chalkduster" font-size="24" lengthAdjust="spacing" textLength="64" x="724.5" y="1205.8817">data</text></g><!--entity repo--><g id="elem_repo"><path d="M365.5,1131.6012 L365.5,1131.6012 L365.5416,1131.6848 L366.7458,1130.7761 L368.1937,1130.3578 L369.5623,1129.7798 L370.6698,1128.6766 L372.1387,1128.3004 L372.1338,1128.2662 L375.6125,1127.6166 L379.1155,1127.1394 L382.6356,1126.7821 L386.0971,1126.0118 L389.6406,1125.8199 L389.661,1126.0651 L391.9561,1125.3469 L394.3106,1125.3446 L396.6724,1125.4297 L398.992,1125.0065 L401.3337,1124.8507 L401.3356,1124.8809 L403.9431,1124.6749 L406.5591,1124.6066 L409.1709,1124.4719 L411.7906,1124.464 L414.3848,1124.0426 L414.3989,1124.3405 L417.1903,1124.2118 L419.9726,1123.891 L422.7683,1123.8514 L425.5646,1123.825 L428.3411,1123.3809 L428.3293,1123.0606 L431.2339,1123.5763 L434.0998,1123.0373 L436.9951,1123.3002 L439.8601,1122.7373 L442.75,1122.8512 L442.7492,1122.8207 L448.4314,1123.0361 L454.0955,1122.5404 L459.7703,1122.4644 L465.446,1122.4235 L471.1152,1122.1285 L471.118,1122.3135 L476.064,1122.0526 L481.0148,1122.1077 L485.9579,1121.6515 L490.9124,1121.958 L495.8594,1121.7574 L495.861,1122.001 L500.6888,1121.9237 L505.5174,1121.9674 L510.3424,1121.449 L515.17,1121.3426 L520,1121.6012 L520,1121.6012 L519.9982,1121.325 L524.828,1121.6062 L529.6557,1121.5763 L534.4863,1121.9978 L539.312,1121.6485 L544.1406,1121.7574 L544.1383,1121.605 L549.091,1121.9331 L554.0338,1121.6095 L558.9836,1121.7494 L563.9403,1122.3427 L568.8848,1122.1285 L568.8897,1122.3221 L574.5661,1122.5994 L580.2272,1122.2746 L585.9075,1122.7039 L591.5836,1122.969 L597.25,1122.8512 L597.2423,1122.6413 L600.1302,1122.9145 L603.0156,1123.119 L605.906,1123.4585 L608.7771,1123.2731 L611.6589,1123.3809 L611.6687,1123.5863 L614.4385,1123.2674 L617.2272,1123.3449 L620.0433,1124.0015 L622.8089,1123.592 L625.6152,1124.0426 L625.6292,1124.2683 L628.2311,1124.2958 L630.8283,1124.247 L633.4361,1124.3705 L636.0687,1124.8926 L638.6663,1124.8507 L638.6553,1124.7181 L641.0266,1125.3067 L643.3232,1124.9935 L645.7048,1125.7057 L648.0385,1125.8406 L650.3594,1125.8199 L650.3747,1125.9277 L653.8627,1126.3368 L657.4055,1127.1318 L660.8988,1127.5782 L664.3715,1127.8788 L667.8613,1128.3004 L667.9144,1128.4071 L669.1633,1128.9087 L670.6586,1129.9058 L671.8752,1130.3425 L673.2064,1131.0097 L674.5,1131.6012 L672.8777,1131.6012 L673.4194,1141.6383 L675.9153,1151.6754 L675.646,1161.7124 L674.3855,1171.7495 L673.6409,1181.7866 L673.9162,1191.8237 L674.5,1201.8608 L674.5,1201.8608 L674.3642,1201.5878 L673.2543,1202.686 L671.9909,1203.4755 L670.621,1204.0508 L669.3266,1204.778 L667.8613,1205.1616 L667.8528,1205.1014 L664.3664,1205.6961 L660.8364,1205.9832 L657.3779,1206.7749 L653.8752,1207.2546 L650.3594,1207.6421 L650.3797,1207.8867 L648.0123,1207.7342 L645.6772,1207.9702 L643.3598,1208.42 L641.0257,1208.6688 L638.6663,1208.6113 L638.6522,1208.384 L636.0507,1208.6869 L633.4499,1209.0008 L630.8189,1208.8252 L628.2351,1209.4146 L625.6152,1209.4194 L625.6207,1209.534 L622.8219,1209.507 L620.0357,1209.7472 L617.2568,1210.1399 L614.4436,1209.8098 L611.6589,1210.081 L611.6641,1210.2209 L608.7818,1210.3139 L605.8973,1210.3444 L603.0159,1210.4615 L600.1336,1210.5553 L597.25,1210.6108 L597.2429,1210.3335 L591.5724,1210.5773 L585.8987,1210.6948 L580.2316,1211.0728 L574.5588,1211.2281 L568.8848,1211.3335 L568.8858,1211.4054 L563.934,1211.2784 L558.9867,1211.4519 L554.0375,1211.5027 L549.0933,1211.8867 L544.1406,1211.7046 L544.1419,1211.8942 L539.3111,1211.52 L534.4842,1211.7347 L529.6546,1211.5418 L524.829,1211.9577 L520,1211.8608 L520,1211.8608 L520.0018,1212.1313 L515.1734,1212.0716 L510.3425,1211.6048 L505.517,1211.9733 L500.6854,1211.4057 L495.8594,1211.7046 L495.8607,1211.7935 L490.9086,1211.4973 L485.9624,1211.5991 L481.0145,1211.5887 L476.0672,1211.6175 L471.1152,1211.3335 L471.1071,1211.0136 L465.4476,1211.4002 L459.7712,1211.1236 L454.1001,1211.0578 L448.4315,1211.0876 L442.75,1210.6108 L442.7501,1210.6133 L439.8711,1210.5827 L436.9899,1210.4937 L434.1079,1210.3806 L431.2228,1210.1866 L428.3411,1210.081 L428.356,1210.3966 L425.537,1209.678 L422.7704,1210.0673 L419.9542,1209.407 L417.1647,1209.3119 L414.3848,1209.4194 L414.3859,1209.4372 L411.7753,1209.2703 L409.1508,1208.8776 L406.5655,1209.1181 L403.9469,1208.8212 L401.3337,1208.6113 L401.3604,1208.9332 L399.0196,1208.7129 L396.64,1208.0251 L394.3033,1207.8535 L391.9745,1207.7787 L389.6406,1207.6421 L389.6628,1207.7985 L386.1654,1207.3233 L382.6586,1206.7824 L379.1181,1206.0033 L375.6787,1205.9377 L372.1387,1205.1616 L372.2641,1205.4138 L370.8016,1204.4826 L369.4359,1203.7462 L368.076,1203.0214 L366.7853,1202.4356 L365.5,1201.8608 L365.8664,1201.8608 L365.3176,1191.8237 L364.3859,1181.7866 L366.7997,1171.7495 L364.2762,1161.7124 L366.8397,1151.6754 L366.6393,1141.6383 L365.5,1131.6012 " fill="#00FF7F" style="stroke:#181818;stroke-width:4.0;"/><path d="M365.5,1131.6012 L365.5,1131.6012 L365.5416,1131.6848 L366.7458,1132.0964 L368.1937,1132.9984 L369.5623,1133.7407 L370.6698,1133.9579 L372.1387,1134.9019 L372.1338,1134.8677 L375.6125,1135.2104 L379.1155,1135.7254 L382.6356,1136.3602 L386.0971,1136.5821 L389.6406,1137.3824 L389.661,1137.6276 L391.9561,1137.2971 L394.3106,1137.6825 L396.6724,1138.1553 L398.992,1138.1198 L401.3337,1138.3516 L401.3356,1138.3819 L403.9431,1138.4991 L406.5591,1138.7541 L409.1709,1138.9426 L411.7906,1139.2579 L414.3848,1139.1598 L414.3989,1139.4577 L417.1903,1139.5936 L419.9726,1139.5374 L422.7683,1139.7625 L425.5646,1140.0008 L428.3411,1139.8214 L428.3293,1139.5011 L431.2339,1140.2287 L434.0998,1139.9016 L436.9951,1140.3763 L439.8601,1140.0253 L442.75,1140.3512 L442.7492,1140.3207 L448.4314,1140.8252 L454.0955,1140.6186 L459.7703,1140.8315 L465.446,1141.0797 L471.1152,1141.0738 L471.118,1141.2588 L476.064,1141.1463 L481.0148,1141.3499 L485.9579,1141.0421 L490.9124,1141.4971 L495.8594,1141.4449 L495.861,1141.6885 L500.6888,1141.6737 L505.5174,1141.7799 L510.3424,1141.324 L515.17,1141.2801 L520,1141.6012 L520,1141.6012 L519.9982,1141.325 L524.828,1141.5437 L529.6557,1141.4513 L534.4863,1141.8103 L539.312,1141.3985 L544.1406,1141.4449 L544.1383,1141.2925 L549.091,1141.4721 L554.0338,1141.0001 L558.9836,1140.9916 L563.9403,1141.4364 L568.8848,1141.0738 L568.8897,1141.2674 L574.5661,1141.2556 L580.2272,1140.6418 L585.9075,1140.782 L591.5836,1140.758 L597.25,1140.3512 L597.2423,1140.1413 L600.1302,1140.2026 L603.0156,1140.1952 L605.906,1140.3228 L608.7771,1139.9255 L611.6589,1139.8214 L611.6687,1140.0267 L614.4385,1139.4432 L617.2272,1139.2561 L620.0433,1139.648 L622.8089,1138.9738 L625.6152,1139.1598 L625.6292,1139.3855 L628.2311,1139.0898 L630.8283,1138.7177 L633.4361,1138.518 L636.0687,1138.7168 L638.6663,1138.3516 L638.6553,1138.2191 L641.0266,1138.42 L643.3232,1137.7191 L645.7048,1138.0436 L648.0385,1137.7908 L650.3594,1137.3824 L650.3747,1137.4902 L653.8627,1136.9071 L657.4055,1136.71 L660.8988,1136.1641 L664.3715,1135.4725 L667.8613,1134.9019 L667.9144,1135.0087 L669.1633,1134.1899 L670.6586,1133.8668 L671.8752,1132.9831 L673.2064,1132.33 L674.5,1131.6012 " fill="none" style="stroke:#181818;stroke-width:4.0;"/><text fill="#000000" font-family="Chalkduster" font-size="24" font-style="italic" lengthAdjust="spacing" textLength="169" x="435.5" y="1169.442">&#171;repository&#187;</text><text fill="#000000" font-family="Chalkduster" font-size="24" lengthAdjust="spacing" textLength="289" x="375.5" y="1200.0719">Archival Repositories</text></g><g id="elem_GMN20"><path d="M675,1290.6712 L675.5605,1290.6712 L673.8951,1300.8511 L675.5154,1311.0311 L676.0658,1321.211 L673.0976,1331.391 L674.7928,1341.5709 L673.8627,1351.7509 L675,1361.9308 L675,1361.9308 L675,1360.9082 L684.8519,1361.7491 L694.7037,1360.0872 L704.5556,1363.4072 L714.4074,1360.2501 L724.2593,1361.4034 L734.1111,1363.0827 L743.963,1361.7021 L753.8148,1362.1128 L763.6667,1361.8456 L773.5185,1362.4069 L783.3704,1362.5685 L793.2222,1363.4927 L803.0741,1363.7203 L812.9259,1363.7422 L822.7778,1362.6098 L832.6296,1363.1671 L842.4815,1363.8034 L852.3333,1360.0077 L862.1852,1363.7402 L872.037,1361.1402 L881.8889,1363.3543 L891.7407,1360.6108 L901.5926,1361.7482 L911.4444,1363.9084 L921.2963,1361.8009 L931.1481,1362.2116 L941,1361.9308 L941,1361.9308 L941.903,1361.9308 L942.11,1351.7209 L940.9896,1341.5109 L941.7659,1331.301 L939.4736,1321.091 L941.7584,1310.8811 L941,1300.6712 L941.3446,1301.0157 L939.2794,1298.9506 L937.3853,1297.0565 L934.6964,1294.3675 L932.5901,1292.2612 L931,1290.6712 L931,1289.0141 L921.0833,1290.5141 L911.1667,1290.1471 L901.25,1292.4883 L891.3333,1290.2054 L881.4167,1289.7564 L871.5,1291.2799 L861.5833,1288.8929 L851.6667,1289.2868 L841.75,1292.4017 L831.8333,1291.8329 L821.9167,1292.6298 L812,1290.6712 L811.1436,1290.6167 L812.1828,1280.2385 L812.2379,1269.7977 L808.7428,1259.1312 L809.0782,1248.7083 L809.0019,1238.2591 L808,1227.7512 L809.7345,1227.8614 L807.3222,1238.2371 L807.8977,1248.8028 L804.5262,1259.1175 L803.531,1269.5832 L806.0069,1280.2697 L804,1290.6712 L804,1288.7593 L794.0769,1292.0284 L784.1538,1291.2222 L774.2308,1289.9567 L764.3077,1289.7278 L754.3846,1291.8945 L744.4615,1289.8729 L734.5385,1292.2495 L724.6154,1289.1972 L714.6923,1292.3176 L704.7692,1291.9626 L694.8462,1291.3244 L684.9231,1290.7971 L675,1290.6712 L675,1290.6712 " fill="none" style="stroke:#181818;stroke-width:4.0;"/><path d="M931,1290.6712 L931.1868,1290.6712 L930.6317,1292.6712 L931.1718,1294.6712 L931.3553,1296.6712 L930.3659,1298.6712 L931,1300.6712 L931,1300.6021 L933,1300.2921 L935,1300.3303 L937,1300.6106 L939,1300.0566 L941,1300.6712 L941.348,1301.0191 L938.6038,1298.275 L936.8757,1296.5469 L935.2715,1294.9427 L932.9461,1292.6172 L931,1290.6712 " fill="none" style="stroke:#181818;stroke-width:4.0;"/><text fill="#000000" font-family="Chalkduster" font-size="24" lengthAdjust="spacing" textLength="177" x="681" y="1319.512">Unmanaged/</text><text fill="#000000" font-family="Chalkduster" font-size="24" lengthAdjust="spacing" textLength="245" x="681" y="1350.1419">non-secure assets</text></g><!--reverse link coll to new--><g id="link_coll_new"><path d="M808.8995,656.3712 L809.1797,656.3716 L808.3295,666.3548 L809.1221,676.3409 L809.3797,686.3261 L807.8781,696.3081 L808.7081,706.2943 L808.2256,716.2782 L808.2653,726.2629 L808.6682,736.2483 L807.8198,746.2315 L809.4622,756.2191 L807.8661,766.201 L808.4253,776.1867 L809.2473,786.1728 L808.5395,796.1563 L808.7273,806.1413 L808.5762,816.1257 L808.8393,826.1109 L808.9025,836.0957 L809.3471,846.0812 L809.4433,856.0661 L809.4367,866.0507 L808.853,876.0344 L809.1141,886.0196 L809.4147,896.0048 L807.4993,905.9861 L809.348,915.9741 L808.0305,925.9565 L809.12,935.9431 L807.7307,945.9253 L808.2818,955.911 L809.3444,965.8976 L808.2731,975.8804 L808.4609,985.8654 L808.7545,995.8506 L808.8404,1005.8355 L808.2627,1015.8191 L808.6333,1025.8045 L807.4696,1035.7872 L808.5944,1045.7738 L808.9286,1055.7591 L808.7729,1065.7435 L808.98,1075.7286 L807.501,1085.7107 L807.258,1095.695 L808.11,1105.6812 " fill="none" style="stroke:#181818;stroke-width:4.0;"/><polygon fill="#181818" points="808.91,650.3712,808.974,650.3997,807.9807,652.1134,807.3625,653.9946,806.6222,655.8213,805.4802,657.4686,804.8942,659.3641,804.8759,659.3458,805.5953,658.4648,806.4068,657.6764,807.2824,656.9523,807.9372,656.0065,808.9012,655.3712,809.0319,655.5014,809.551,656.0243,810.4517,656.9274,811.399,657.877,812.0754,658.5566,812.8942,659.3782,812.915,659.3874,812.0876,657.5725,811.3549,655.7994,810.5766,654.0062,809.8854,652.2515,808.91,650.3712" style="stroke:#181818;stroke-width:4.0;"/></g><!--link coll to cur--><g id="link_coll_cur"><path d="M759.33,601.3412 L759.33,601.6214 L749.1671,600.7887 L739.0043,601.5989 L728.8414,601.8741 L718.6786,600.39 L708.5157,601.2375 L698.3529,600.7725 L688.19,600.8298 L678.0271,601.2503 L667.8643,600.4193 L657.7014,602.0794 L647.5386,600.5008 L637.3757,601.0775 L627.2129,601.9171 L617.05,601.2268 L606.8871,601.4321 L596.7243,601.2986 L586.5614,601.5792 L576.3986,601.66 L566.2357,602.1221 L556.0729,602.2359 L545.91,601.3412 " fill="none" style="stroke:#181818;stroke-width:4.0;"/><polygon fill="#181818" points="539.91,601.3412,539.9385,601.4052,541.6539,602.015,543.5362,603,545.3641,603.8629,547.0134,604.3239,548.91,605.3412,548.8917,605.3228,548.0095,604.4406,547.2196,603.6508,546.4939,602.9251,545.547,601.9782,544.91,601.3412,545.0405,601.4717,545.5614,600.3926,546.4634,599.6945,547.4118,599.043,548.0898,598.1209,548.91,597.3412,548.9192,597.3619,547.1057,598.1314,545.3342,598.9955,543.5424,599.814,541.7893,600.7196,539.91,601.3412" style="stroke:#181818;stroke-width:4.0;"/><text fill="#000000" font-family="Chalkduster" font-size="24" lengthAdjust="spacing" textLength="184" x="557.5" y="591.182">Make reuable</text></g><!--reverse link std to cur--><g id="link_std_cur"><path d="M822.6914,348.2863 L822.7775,348.3225 L822.852,347.4282 L823.4314,346.7459 L823.8463,345.9946 L823.7205,345.0163 L824.3432,344.3522 L824.3122,344.337 L823.6869,345.264 L823.218,346.2674 L822.8579,347.3239 L822.123,348.1973 L821.913,349.3272 L822.12,349.4603 L820.4948,351.0145 L819.4739,352.9572 L818.5267,354.9474 L817.1505,356.6618 L816,358.5212 L816.0236,358.5401 L814.6336,360.2005 L813.3511,361.9473 L812.0168,363.6524 L810.7815,365.4371 L809.2231,366.9623 L809.4506,367.1553 L808.0485,368.814 L806.4996,370.3484 L805.1655,372.0648 L803.8415,373.7898 L802.1986,375.2444 L801.9596,375.0308 L800.9715,377.07 L799.1965,378.4059 L798.0197,380.2765 L796.2269,381.5964 L794.939,383.3677 L794.9168,383.3469 L793.6829,385.1864 L791.9305,386.5389 L790.484,388.1788 L789.0632,389.8429 L787.4571,391.3329 L787.5889,391.4627 L785.9176,392.8931 L784.4715,394.5454 L782.6611,395.8388 L781.3941,397.6675 L779.7658,399.1403 L779.9354,399.3152 L778.3257,400.8122 L776.8002,402.396 L774.8834,403.5764 L773.2534,405.0525 L771.8775,406.7906 L771.6896,406.5882 L770.2453,408.2702 L768.5892,409.7241 L767.2402,411.5087 L765.3669,412.7286 L763.8052,414.2842 L763.7039,414.1703 L762.224,415.8275 L760.3107,416.9978 L758.7056,418.5143 L757.4021,420.3696 L755.5616,421.6216 L755.6874,421.7688 L754.0932,423.3061 L752.1077,424.3856 L750.6123,426.0385 L749.0102,427.5665 L747.1592,428.8033 L747.0259,428.6411 L745.4225,430.1757 L743.7755,431.6572 L742.2142,433.243 L740.3195,434.4231 L738.611,435.8298 L738.7386,435.991 L736.722,437.0112 L734.9516,438.3425 L733.5411,440.1284 L731.4681,441.0774 L729.9296,442.7016 L730.0668,442.8815 L728.2249,444.1182 L726.3366,445.294 L724.5531,446.6072 L723.0118,448.2378 L721.1277,449.4192 L721.0488,449.3121 L719.5018,450.9438 L717.4181,451.847 L715.9447,453.5785 L714.1277,454.8436 L712.2181,455.9831 L712.2812,456.0718 L710.4293,457.2823 L708.8035,458.8104 L706.9734,460.0517 L705.058,461.1729 L703.2134,462.3938 L703.281,462.4919 L701.3632,463.5977 L699.7593,465.1592 L697.8003,466.2052 L695.9874,467.4633 L694.1265,468.6517 L693.9765,468.4267 L692.1953,469.723 L690.5948,471.2902 L688.7386,472.474 L686.7907,473.5204 L684.97,474.7574 L684.8923,474.6372 L683.0745,475.8665 L681.1191,476.8829 L679.542,478.4846 L677.7777,479.7967 L675.7567,480.7114 L675.8809,480.9096 L674.0692,482.1336 L672.0214,482.981 L670.2228,484.2259 L668.2592,485.2076 L666.4992,486.5141 L666.5642,486.6224 L662.8364,488.839 L659.187,491.1862 L655.289,493.1189 L651.5915,495.386 L647.9029,497.6679 L648.0001,497.8394 L644.3033,499.9983 L640.3426,501.6917 L636.6884,503.9259 L633.0396,506.1695 L629.2829,508.2228 L629.1544,507.9836 L625.6488,510.3531 L621.9204,512.3077 L618.1365,514.1592 L614.4792,516.2463 L610.7409,518.1826 L610.8881,518.471 L607.0053,519.9325 L603.4597,522.0548 L599.7814,523.9169 L596.0747,525.7234 L592.3789,527.5513 L592.4062,527.6077 L588.7848,529.3531 L585.0255,530.8145 L581.4528,532.6601 L577.8249,534.3922 L574.2985,536.3331 L574.3104,536.3588 L570.7756,538.0083 L567.2499,539.6777 L563.626,541.1349 L560.1284,542.8647 L556.6016,544.5317 L556.58,544.4828 L553.2631,546.29 L549.7937,547.7528 L546.1873,548.906 L542.8192,550.5976 L539.39,552.1512 " fill="none" style="stroke:#181818;stroke-width:4.0;"/><polygon fill="#181818" points="825.0359,342.7633,825.0837,342.8145,823.5019,344.0067,822.2004,345.499,820.8076,346.8936,819.1146,347.9668,817.8372,349.4849,817.8275,349.4609,818.8329,348.9293,819.8873,348.5187,820.9757,348.1924,821.9468,347.576,823.0822,347.3658,823.2533,347.435,823.3112,348.3361,823.8687,349.4391,824.4871,350.5667,824.7509,351.5511,825.2012,352.6108,825.2239,352.6112,825.1575,350.6411,825.1946,348.6728,825.1817,346.7037,825.2641,344.7361,825.0359,342.7633" style="stroke:#181818;stroke-width:4.0;"/><text fill="#000000" font-family="Chalkduster" font-size="24" lengthAdjust="spacing" textLength="44" x="747" y="453.362">Use</text></g><!--link cur to objmeta--><g id="link_cur_objmeta"><path d="M406.45,650.6212 L406.7302,650.6238 L405.9879,660.3375 L406.8883,670.0664 L407.2538,679.7905 L405.8601,689.4981 L406.798,699.2274 L406.4233,708.9446 L406.5709,718.6665 L407.0817,728.3919 L406.3411,738.1056 L408.0913,747.8425 L406.6032,757.5493 L407.2701,767.2761 L408.2,777.0053 L407.7144,786.7214 " fill="none" style="stroke:#181818;stroke-width:4.0;"/><polygon fill="#181818" points="407.77,792.7212,407.8343,792.749,408.4266,790.8589,409.3957,789.1321,410.2421,787.3522,410.685,785.3973,411.6865,783.6845,411.668,783.6664,410.7925,784.3923,410.0102,785.2097,409.2926,786.0907,408.3518,786.7526,407.7237,787.7214,407.853,787.8531,406.7692,786.7789,406.0628,786.0892,405.4025,785.4464,404.4742,784.5307,403.6868,783.7586,403.7075,783.768,404.4938,785.5467,405.3743,787.3683,406.2093,789.1692,407.131,791.0096,407.77,792.7212" style="stroke:#181818;stroke-width:4.0;"/><text fill="#000000" font-family="Chalkduster" font-size="24" lengthAdjust="spacing" textLength="184" x="408" y="704.992">Describe Data</text></g><!--link obj to repo--><g id="link_obj_repo"><path d="M517.4224,868.0834 L517.5158,868.0842 L517.2462,868.9947 L517.5241,869.9099 L517.6238,870.8236 L517.137,871.7322 L517.4619,872.6479 L517.4274,872.6476 L517.3065,876.585 L517.3597,880.5239 L517.534,884.4639 L517.2911,888.4003 L517.6325,892.3417 L517.8785,892.3438 L517.4299,901.2974 L517.6996,910.2572 L518.057,919.2178 L517.9044,928.1739 L518.02,937.1324 L518.111,937.1332 L518.0629,947.0192 L518.4289,956.9088 L518.5952,966.7967 L519.1427,976.6878 L519.342,986.576 L519.4384,996.4632 L518.9577,1006.3455 L519.3217,1016.2351 L519.7254,1026.125 L517.913,1035.9958 L519.8646,1045.899 L518.6501,1055.775 L519.8426,1065.6717 L518.5563,1075.547 L519.2105,1085.4391 L520.376,1095.3356 L519.4077,1105.2137 L519.5582,1115.1014 " fill="none" style="stroke:#181818;stroke-width:4.0;"/><polygon fill="#181818" points="519.61,1121.1012,519.6743,1121.1291,520.2677,1119.2393,521.2379,1117.5131,522.0855,1115.7337,522.5296,1113.7791,523.5321,1112.0669,523.5136,1112.0488,522.6377,1112.7742,521.8548,1113.5911,521.1367,1114.4717,520.1955,1115.1329,519.5668,1116.1013,519.6962,1116.233,518.6127,1115.1585,517.9068,1114.4682,517.2471,1113.8249,516.3192,1112.9087,515.5324,1112.136,515.5531,1112.1455,516.3382,1113.9247,517.2176,1115.7467,518.0515,1117.5481,518.9722,1119.389,519.61,1121.1012" style="stroke:#181818;stroke-width:4.0;"/><text fill="#000000" font-family="Chalkduster" font-size="24" lengthAdjust="spacing" textLength="112" x="519" y="971.622">Deposit/</text><text fill="#000000" font-family="Chalkduster" font-size="24" lengthAdjust="spacing" textLength="94" x="528" y="1002.2519">Publish</text></g><!--SRC=[TLB1RY8n3BtdAxmSzXPwHmYfQYyzq2AglLLQUJ9cICaaA75WqOf_NoV3q9PLvpB9yulzxESVrXkNM_hTep_1T7hN8gDssEZ49qTJ_iDAiML7CrZYpleErfGJDexWKQZmqhoJuQIKYl97tqbWigP46CqMVWwa9Nhig2VFS6_O7YnRIXF017Yzmdn-376NzcXeiO2_IaaiH9Wyv8XCakh9CtNbN5-Q7E634voJyaD0pkfMp_-IApSqxo2bGBvFzC8QmsKUj_4bCRQVEBtSrVbBnLSvj1XRwRAG4hVINnh1qX_SPbsXsM5N9Zm-di7wHJzSEwvblf42gnWsrWt4glbye-Z9Ro8cpePp76XsGE80NSPWNCWjJ9x3WHpSlNaVl2vMsWEz-MlJdeuo_5gemIJPxoi5dMp7FYGhfemEHm6azpZYfsekdALMKLZSWhdMRJXwhOV45TCwscxBMY-grNNzIBBbOgGgaDPvNy9bk3FubIvepRGOVP788oKJRJEuBuiX4Jsoghf2gUgatrLkd4rRfNoGfMi2S-WXR8emgU7xkidjPJ29J9aSfaIS_W40]--></g></svg>