<?xml version="1.0" encoding="us-ascii" standalone="no"?><svg xmlns="http://www.w3.org/2000/svg" xmlns:xlink="http://www.w3.org/1999/xlink" contentStyleType="text/css" height="1254px" preserveAspectRatio="none" style="width:1753px;height:1254px;background:#FFFFFF;" version="1.1" viewBox="0 0 1753 1254" width="1753px" zoomAndPan="magnify"><defs/><g><text fill="#000000" font-family="Chalkduster" font-size="42" font-weight="bold" lengthAdjust="spacing" textLength="618" x="560.75" y="51.7215">High level architecture of</text><text fill="#000000" font-family="Chalkduster" font-size="42" font-weight="bold" lengthAdjust="spacing" textLength="789" x="475.25" y="105.3238">the Trove Data Guide (WP-TDG)</text><!--cluster Public Git Service--><g id="cluster_Public Git Service"><polygon fill="#FFC7D8" points="9.5,419.1234,9.5,419.3336,19.4796,418.7091,29.4592,419.3167,39.4388,419.5231,49.4184,418.41,59.398,419.0457,69.3776,418.6969,79.3571,418.7399,89.3367,419.0552,99.3163,418.432,109.2959,419.677,119.2755,418.4931,129.2551,418.9256,139.2347,419.5553,149.2143,419.0376,159.1939,419.1916,169.1735,419.0914,179.1531,419.3019,189.1327,419.3625,199.1122,419.7091,209.0918,419.7944,219.0714,419.8026,229.051,419.378,239.0306,419.587,249.0102,419.8256,258.9898,418.4022,268.9694,419.8019,278.949,418.8269,288.9286,419.6572,298.9082,418.6283,308.8878,419.0549,318.8673,419.865,328.8469,419.0746,338.8265,419.2287,348.8061,419.462,358.7857,419.5396,368.7653,419.1195,378.7449,419.4106,388.7245,418.551,398.7041,419.4078,408.6837,419.6716,418.6633,419.5679,428.6429,419.7364,438.6224,418.6403,448.602,418.4712,458.5816,418.502,468.5612,419.0645,478.5408,418.9268,488.5204,419.8048,498.5,419.1234,498.4777,419.0696,498.8098,419.1642,499.2362,419.4866,499.4756,419.3574,499.848,419.5493,500.2678,419.8556,500.4676,419.9384,500.5484,420.2647,500.7869,420.6564,500.608,420.8752,500.9519,421.3105,501,421.6234,501.5904,421.6234,500.5276,431.7398,500.9041,441.8562,501.126,451.9727,501.6518,462.0891,500.9958,472.2055,501.4626,482.3219,500.4462,492.4384,500.3227,502.5548,501.5036,512.6712,500.2831,522.7877,501.509,532.9041,501.2066,543.0205,500.7321,553.1369,501,563.2534,500.8911,563.2082,500.9948,563.6654,500.6149,563.9223,500.7429,564.3895,500.244,564.5971,500.2678,565.0211,500.3465,565.2113,499.976,565.3167,499.5919,565.3895,499.2131,565.475,498.9462,565.8307,498.5,565.7534,498.5,566.3669,488.5204,565.9226,478.5408,566.0216,468.5612,565.6231,458.5816,566.4698,448.602,565.9082,438.6224,565.9259,428.6429,565.145,418.6633,565.3481,408.6837,566.2841,398.7041,566.1831,388.7245,565.7104,378.7449,565.4312,368.7653,565.5344,358.7857,565.0672,348.8061,566.1681,338.8265,566.4929,328.8469,566.2798,318.8673,566.4483,308.8878,565.6166,298.9082,565.8406,288.9286,565.3658,278.949,566.0374,268.9694,566.0001,258.9898,566.3058,249.0102,565.5237,239.0306,565.619,229.051,566.1968,219.0714,566.3207,209.0918,565.2408,199.1122,565.5595,189.1327,565.9026,179.1531,565.1425,169.1735,566.1068,159.1939,566.0114,149.2143,565.6526,139.2347,565.8956,129.2551,566.482,119.2755,565.4405,109.2959,566.0684,99.3163,566.039,89.3367,565.8691,79.3571,565.8943,69.3776,565.8668,59.398,565.1292,49.4184,565.3526,39.4388,565.2918,29.4592,565.8172,19.4796,565.8415,9.5,565.7534,9.5206,565.8032,9.1093,565.5173,8.7843,565.4397,8.424,565.277,8.1594,565.3452,7.7322,565.0211,7.8636,565.0756,7.4363,564.6057,7.4169,564.3047,7.1151,563.8868,7.2353,563.6437,7,563.2534,7.6085,563.2534,7.5446,553.1369,6.5644,543.0205,7.464,532.9041,6.2572,522.7877,7.2002,512.6712,6.7007,502.5548,7.0967,492.4384,7.2403,482.3219,7.4721,472.2055,6.2801,462.0891,7.4755,451.9727,7.1782,441.8562,7.3553,431.7398,7,421.6234,7.2303,421.7188,7.1481,421.2705,7.3469,420.9386,7.5051,420.5899,7.6465,420.2343,7.7322,419.8556,7.7321,419.8554,8.1764,419.928,8.3616,419.3749,8.865,419.5903,9.0668,419.0777,9.5,419.1234" style="stroke:#181818;stroke-width:4.0;"/><text fill="#000000" font-family="Chalkduster" font-size="24" font-style="italic" lengthAdjust="spacing" textLength="175" x="166.5" y="444.9643">&#171;workspace&#187;</text><text fill="#000000" font-family="Chalkduster" font-size="24" font-weight="bold" lengthAdjust="spacing" textLength="247" x="130.5" y="475.5941">Public Git Service</text></g><!--cluster tdg--><g id="cluster_tdg"><polygon fill="#FFFF00" points="392.5,137.4934,392.5,137.7036,402.381,137.0791,412.2619,137.6867,422.1429,137.8931,432.0238,136.78,441.9048,137.4157,451.7857,137.0669,461.6667,137.1099,471.5476,137.4252,481.4286,136.802,491.3095,138.047,501.1905,136.8631,511.0714,137.2956,520.9524,137.9253,530.8333,137.4076,540.7143,137.5616,550.5952,137.4614,560.4762,137.6719,570.3571,137.7325,580.2381,138.0791,590.119,138.1644,600,138.1726,609.881,137.748,619.7619,137.957,629.6429,138.1956,639.5238,136.7722,649.4048,138.1719,659.2857,137.1969,669.1667,138.0272,679.0476,136.9983,688.9286,137.4249,698.8095,138.235,708.6905,137.4446,718.5714,137.5987,728.4524,137.832,738.3333,137.9096,748.2143,137.4895,758.0952,137.7806,767.9762,136.921,777.8571,137.7778,787.7381,138.0416,797.619,137.9379,807.5,137.4934,807.5782,137.6822,807.7919,137.491,808.1239,137.5854,808.4814,137.7413,808.9067,138.061,809.2678,138.2256,809.2072,138.2005,809.6241,138.6661,809.5069,138.9104,809.6015,139.2425,809.9239,139.6689,810,139.9934,809.3332,139.9934,809.4809,149.8452,810.649,159.6971,810.4357,169.549,810.7345,179.4009,809.6782,189.2527,810.3192,199.1046,810.5904,208.9565,809.5276,218.8084,809.9041,228.6602,810.126,238.5121,810.6518,248.364,809.9958,258.2159,810.4626,268.0677,809.4462,277.9196,809.3227,287.7715,810,297.6234,810.1551,297.6876,809.6328,297.8855,809.8638,298.3954,809.6243,298.7104,809.3317,299.0034,809.2678,299.3911,809.2226,299.2822,808.9727,299.6789,808.5225,299.5918,808.2826,300.0127,807.783,299.8067,807.5,300.1234,807.5,300.7408,797.619,300.6077,787.7381,300.3683,777.8571,300.1706,767.9762,300.85,758.0952,300.7369,748.2143,300.2926,738.3333,300.3916,728.4524,299.9931,718.5714,300.8398,708.6905,300.2782,698.8095,300.2959,688.9286,299.515,679.0476,299.7181,669.1667,300.6541,659.2857,300.5531,649.4048,300.0804,639.5238,299.8012,629.6429,299.9044,619.7619,299.4372,609.881,300.5381,600,300.8629,590.119,300.6498,580.2381,300.8183,570.3571,299.9866,560.4762,300.2106,550.5952,299.7358,540.7143,300.4074,530.8333,300.3701,520.9524,300.6758,511.0714,299.8937,501.1905,299.989,491.3095,300.5668,481.4286,300.6907,471.5476,299.6108,461.6667,299.9295,451.7857,300.2726,441.9048,299.5125,432.0238,300.4768,422.1429,300.3814,412.2619,300.0226,402.381,300.2656,392.5,300.1234,392.593,300.3478,392.1065,299.8806,391.8331,299.9275,391.4758,299.772,391.1006,299.5732,390.7322,299.3911,390.7756,299.4091,390.6207,299.0521,390.2471,298.6044,390.1695,298.2793,390.0043,297.9181,390,297.6234,390.0638,297.6234,390.0881,287.7715,390.1617,277.9196,389.709,268.0677,389.9325,258.2159,389.8798,248.364,390.5769,238.5121,390.4266,228.6602,389.5145,218.8084,389.9271,208.9565,389.4228,199.1046,390.2884,189.2527,390.6085,179.4009,390.5446,169.549,389.5644,159.6971,390.464,149.8452,390,139.9934,389.7712,139.8986,390.2081,139.6654,390.2007,139.2481,390.4691,138.945,390.6598,138.6098,390.7322,138.2256,390.7925,138.371,390.994,137.8575,391.5,138.0791,391.8156,137.8411,392.1918,137.7492,392.5,137.4934" style="stroke:#181818;stroke-width:4.0;"/><text fill="#000000" font-family="Chalkduster" font-size="24" font-style="italic" lengthAdjust="spacing" textLength="157" x="521.5" y="163.3343">&#171;guidance&#187;</text><text fill="#000000" font-family="Chalkduster" font-size="24" font-weight="bold" lengthAdjust="spacing" textLength="250" x="475" y="193.9641">Trove Data Guide</text></g><!--cluster trove--><g id="cluster_trove"><polygon fill="#00FF7F" points="582.5,411.1234,582.5,411.3336,592.5,410.7091,602.5,411.3167,612.5,411.5231,622.5,410.41,632.5,411.0457,642.5,410.6969,652.5,410.7399,662.5,411.0552,672.5,410.432,682.5,411.677,692.5,410.4931,702.5,410.9256,712.5,411.5553,722.5,411.0376,732.5,411.1916,742.5,411.0914,752.5,411.3019,762.5,411.3625,772.5,411.7091,782.5,411.7944,792.5,411.8026,802.5,411.378,812.5,411.587,822.5,411.8256,832.5,410.4022,842.5,411.8019,852.5,410.8269,862.5,411.6572,872.5,410.6283,882.5,411.0549,892.5,411.865,902.5,411.0746,912.5,411.2287,922.5,411.462,932.5,411.5396,942.5,411.1234,942.4995,411.1222,942.8902,411.3583,943.1341,411.24,943.5969,411.6503,943.9841,411.878,944.2678,411.8556,944.4047,411.9123,944.603,412.2874,944.4119,412.5011,944.5063,412.8331,944.6622,413.1906,945,413.6234,944.9411,413.6234,944.8035,423.4752,945.6814,433.3271,944.8253,443.179,944.6569,453.0309,945.2283,462.8827,944.3332,472.7346,944.4809,482.5865,945.649,492.4384,945.4357,502.2902,945.7345,512.1421,944.6782,521.994,945.3192,531.8459,945.5904,541.6977,944.5276,551.5496,944.9041,561.4015,945,571.2534,945.0388,571.2694,945.0543,571.6901,944.7058,571.9599,944.7031,572.373,944.2437,572.5969,944.2678,573.0211,944.1814,572.8126,943.9785,573.3227,943.4692,573.0932,943.272,573.6172,942.8799,573.6706,942.5,573.7534,942.5,573.4855,932.5,573.3996,922.5,574.2121,912.5,573.454,902.5,574.3452,892.5,573.2006,882.5,574.3708,872.5,574.2377,862.5,573.9983,852.5,573.8006,842.5,574.48,832.5,574.3669,822.5,573.9226,812.5,574.0216,802.5,573.6231,792.5,574.4698,782.5,573.9082,772.5,573.9259,762.5,573.145,752.5,573.3481,742.5,574.2841,732.5,574.1831,722.5,573.7104,712.5,573.4312,702.5,573.5344,692.5,573.0672,682.5,574.1681,672.5,574.4929,662.5,574.2798,652.5,574.4483,642.5,573.6166,632.5,573.8406,622.5,573.3658,612.5,574.0374,602.5,574.0001,592.5,574.3058,582.5,573.7534,582.4707,573.6826,582.1293,573.5655,581.8495,573.597,581.5117,573.4887,581.0204,573.0097,580.7322,573.0211,580.6725,572.9964,580.6318,572.6866,580.2512,572.2361,580.4017,572.0056,580.2259,571.6398,580,571.2534,579.8992,571.2534,580.1422,561.4015,580.7287,551.5496,579.6871,541.6977,580.315,531.8459,580.2856,521.994,580.1158,512.1421,580.1409,502.2902,580.1135,492.4384,579.3758,482.5865,579.5992,472.7346,579.5385,462.8827,580.0638,453.0309,580.0881,443.179,580.1617,433.3271,579.709,423.4752,580,413.6234,579.9792,413.6148,580.1094,413.2545,580.4705,412.9898,580.5707,412.6171,580.4363,412.1472,580.7322,411.8556,580.7229,411.8331,581.0122,411.5314,581.4761,411.6515,581.8705,411.6037,582.2159,411.4375,582.5,411.1234" style="stroke:#181818;stroke-width:4.0;"/><text fill="#000000" font-family="Chalkduster" font-size="24" font-style="italic" lengthAdjust="spacing" textLength="169" x="678" y="436.9643">&#171;repository&#187;</text><text fill="#000000" font-family="Chalkduster" font-size="24" font-weight="bold" lengthAdjust="spacing" textLength="78" x="723.5" y="467.5941">Trove</text></g><!--cluster compute--><g id="cluster_compute"><polygon fill="#FFC7D8" points="866.5,847.2734,866.5,847.4836,876.4697,846.8591,886.4394,847.4667,896.4091,847.6731,906.3788,846.56,916.3485,847.1957,926.3182,846.8469,936.2879,846.8899,946.2576,847.2052,956.2273,846.582,966.197,847.827,976.1667,846.6431,986.1364,847.0756,996.1061,847.7053,1006.0758,847.1876,1016.0455,847.3416,1026.0152,847.2414,1035.9848,847.4519,1045.9545,847.5125,1055.9242,847.8591,1065.8939,847.9444,1075.8636,847.9526,1085.8333,847.528,1095.803,847.737,1105.7727,847.9756,1115.7424,846.5522,1125.7121,847.9519,1135.6818,846.9769,1145.6515,847.8072,1155.6212,846.7783,1165.5909,847.2049,1175.5606,848.015,1185.5303,847.2246,1195.5,847.2734,1195.5134,847.3058,1195.8967,847.5241,1196.2602,847.6944,1196.5602,847.7115,1196.9509,847.9476,1197.2678,848.0056,1197.0915,847.9326,1197.5018,848.3954,1197.7295,848.7826,1197.844,849.123,1198.0423,849.498,1198,849.7734,1197.5169,849.7734,1197.3478,859.7163,1197.3786,869.6592,1197.9411,879.6021,1197.8035,889.545,1198.6814,899.488,1197.8253,909.4309,1197.6569,919.3738,1198.2283,929.3167,1197.3332,939.2596,1197.4809,949.2025,1198.649,959.1455,1198.4357,969.0884,1198.7345,979.0313,1197.6782,988.9742,1198.3192,998.9171,1198.5904,1008.86,1197.5276,1018.803,1197.9041,1028.7459,1198.126,1038.6888,1198.6518,1048.6317,1197.9958,1058.5746,1198.4626,1068.5175,1197.4462,1078.4605,1198,1088.4034,1197.7914,1088.317,1198.0086,1088.8212,1197.4863,1089.019,1197.7174,1089.529,1197.4778,1089.8439,1197.2678,1090.1711,1197.2336,1090.0886,1196.8691,1090.2086,1196.6192,1090.6053,1196.1689,1090.5183,1195.9291,1090.9392,1195.5,1090.9034,1195.5,1090.3506,1185.5303,1091.5208,1175.5606,1091.3877,1165.5909,1091.1483,1155.6212,1090.9506,1145.6515,1091.63,1135.6818,1091.5169,1125.7121,1091.0726,1115.7424,1091.1716,1105.7727,1090.7731,1095.803,1091.6198,1085.8333,1091.0582,1075.8636,1091.0759,1065.8939,1090.295,1055.9242,1090.4981,1045.9545,1091.4341,1035.9848,1091.3331,1026.0152,1090.8604,1016.0455,1090.5812,1006.0758,1090.6844,996.1061,1090.2172,986.1364,1091.3181,976.1667,1091.6429,966.197,1091.4298,956.2273,1091.5983,946.2576,1090.7666,936.2879,1090.9906,926.3182,1090.5158,916.3485,1091.1874,906.3788,1091.1501,896.4091,1091.4558,886.4394,1090.6737,876.4697,1090.769,866.5,1090.9034,866.5566,1091.0399,866.2188,1090.9316,865.7275,1090.4526,865.4146,1090.4043,865.1048,1090.3636,864.7322,1090.1711,864.5441,1090.0932,864.6946,1089.8627,864.5188,1089.4969,864.2619,1089.0976,864.1903,1088.7751,864,1088.4034,864.7287,1088.4034,863.6871,1078.4605,864.315,1068.5175,864.2856,1058.5746,864.1158,1048.6317,864.1409,1038.6888,864.1135,1028.7459,863.3758,1018.803,863.5992,1008.86,863.5385,998.9171,864.0638,988.9742,864.0881,979.0313,864.1617,969.0884,863.709,959.1455,863.9325,949.2025,863.8798,939.2596,864.5769,929.3167,864.4266,919.3738,863.5145,909.4309,863.9271,899.488,863.4228,889.545,864.2884,879.6021,864.6085,869.6592,864.5446,859.7163,864,849.7734,863.8659,849.7178,864.2893,849.479,864.0641,848.9715,864.501,848.7382,864.4936,848.321,864.7322,848.0056,864.7446,848.0354,865.1164,847.9332,865.4996,847.8581,865.7011,847.3446,866.2071,847.5662,866.5,847.2734" style="stroke:#181818;stroke-width:4.0;"/><text fill="#000000" font-family="Chalkduster" font-size="24" font-style="italic" lengthAdjust="spacing" textLength="175" x="943.5" y="873.1143">&#171;workspace&#187;</text><text fill="#000000" font-family="Chalkduster" font-size="24" font-weight="bold" lengthAdjust="spacing" textLength="113" x="974.5" y="903.7441">compute</text></g><!--cluster Binder Hub--><g id="cluster_Binder Hub"><polygon fill="none" points="898.5,943.2734,898.5,943.4836,908.3846,942.8591,918.2692,943.4667,928.1538,943.6731,938.0385,942.56,947.9231,943.1957,957.8077,942.8469,967.6923,942.8899,977.5769,943.2052,987.4615,942.582,997.3462,943.827,1007.2308,942.6431,1017.1154,943.0756,1027,943.7053,1036.8846,943.1876,1046.7692,943.3416,1056.6538,943.2414,1066.5385,943.4519,1076.4231,943.5125,1086.3077,943.8591,1096.1923,943.9444,1106.0769,943.9526,1115.9615,943.528,1125.8462,943.737,1135.7308,943.9756,1145.6154,942.5522,1155.5,943.2734,1155.5866,943.4823,1155.8157,943.3285,1156.2752,943.7307,1156.4975,943.5603,1156.9055,943.8381,1157.2678,944.0056,1157.4962,944.1002,1157.3992,944.3529,1157.5931,944.7261,1157.8114,945.1095,1157.9817,945.4729,1158,945.7734,1157.9961,945.7734,1158.2872,955.8306,1157.4276,965.8879,1158.2844,975.9452,1158.5482,986.0025,1158.4445,996.0597,1158.613,1006.117,1157.5169,1016.1743,1157.3478,1026.2316,1157.3786,1036.2888,1157.9411,1046.3461,1158,1056.4034,1157.9395,1056.3783,1158.0634,1056.8438,1157.6533,1057.0882,1157.455,1057.4203,1157.4845,1057.8467,1157.2678,1058.1711,1157.1827,1057.9658,1156.848,1058.1577,1156.6434,1058.6639,1156.2627,1058.7446,1155.9472,1058.9831,1155.5,1058.9034,1155.5,1058.5816,1145.6154,1059.2226,1135.7308,1059.4938,1125.8462,1058.431,1115.9615,1058.8075,1106.0769,1059.0294,1096.1923,1059.5551,1086.3077,1058.8992,1076.4231,1059.3659,1066.5385,1058.3496,1056.6538,1058.2261,1046.7692,1059.407,1036.8846,1058.1864,1027,1059.4123,1017.1154,1059.11,1007.2308,1058.6355,997.3462,1058.5496,987.4615,1059.3621,977.5769,1058.604,967.6923,1059.4952,957.8077,1058.3506,947.9231,1059.5208,938.0385,1059.3877,928.1538,1059.1483,918.2692,1058.9506,908.3846,1059.63,898.5,1058.9034,898.5783,1059.0923,898.168,1058.809,897.8271,1058.6931,897.4227,1058.4239,897.1772,1058.5382,896.7322,1058.1711,896.7799,1058.1909,896.6389,1057.8396,896.252,1057.3864,896.1681,1057.0588,896.3099,1056.8246,896,1056.4034,896.4298,1056.4034,895.9571,1046.3461,895.6778,1036.2888,895.7811,1026.2316,895.3138,1016.1743,896.4147,1006.117,896.7396,996.0597,896.5264,986.0025,896.6949,975.9452,895.8633,965.8879,896.0872,955.8306,896,945.7734,895.8806,945.7239,896.2339,945.4561,896.3689,945.0977,896.6095,944.7832,896.5151,944.3299,896.7322,944.0056,896.7151,943.9642,897.1424,943.9957,897.5117,943.8874,897.7275,943.4084,898.1217,943.3601,898.5,943.2734" style="stroke:#181818;stroke-width:4.0;"/><text fill="#000000" font-family="Chalkduster" font-size="24" font-weight="bold" lengthAdjust="spacing" textLength="147" x="953.5" y="969.1143">Binder Hub</text></g><!--entity guidesource--><g id="elem_guidesource"><polygon fill="none" points="25,499.1234,25,499.3336,35.1538,498.7091,45.3077,499.3167,55.4615,499.5231,65.6154,498.41,75.7692,499.0457,85.9231,498.6969,96.0769,498.7399,106.2308,499.0552,116.3846,498.432,126.5385,499.677,136.6923,498.4931,146.8462,498.9256,157,499.5553,167.1538,499.0376,177.3077,499.1916,187.4615,499.0914,197.6154,499.3019,207.7692,499.3625,217.9231,499.7091,228.0769,499.7944,238.2308,499.8026,248.3846,499.378,258.5385,499.587,268.6923,499.8256,278.8462,498.4022,289,499.1234,289.0866,499.3323,289.3157,499.1785,289.7752,499.5807,289.9975,499.4103,290.4055,499.6881,290.7678,499.8556,290.9962,499.9502,290.8992,500.2029,291.0931,500.5761,291.3114,500.9595,291.4817,501.3229,291.5,501.6234,291.4961,501.6234,291.7872,510.7493,290.9276,519.8753,291.7844,529.0013,292.0482,538.1272,291.5,547.2532,291.6369,547.3099,291.5423,547.685,291.0583,547.8987,290.8598,548.2307,290.7228,548.5882,290.7678,549.021,290.7603,549.0028,290.3891,549.1069,290.1476,549.5237,289.6848,549.4065,289.3098,549.5011,289,549.7532,289,549.9815,278.8462,549.0864,268.6923,549.2341,258.5385,550.4022,248.3846,550.1889,238.2308,550.4877,228.0769,549.4314,217.9231,550.0724,207.7692,550.3436,197.6154,549.2808,187.4615,549.6573,177.3077,549.8792,167.1538,550.405,157,549.749,146.8462,550.2158,136.6923,549.1994,126.5385,549.0759,116.3846,550.2568,106.2308,549.0363,96.0769,550.2622,85.9231,549.9598,75.7692,549.4853,65.6154,549.3994,55.4615,550.212,45.3077,549.4539,35.1538,550.3451,25,549.7532,24.9295,549.583,24.7252,549.7969,24.3547,549.6095,23.9706,549.3893,23.5918,549.182,23.2322,549.021,23.456,549.1137,23.2747,548.7457,22.9915,548.3355,22.8755,547.9945,22.6063,547.5901,22.5,547.2532,23.2165,547.2532,22.6549,538.1272,22.6726,529.0013,21.8916,519.8753,22.0948,510.7493,22.5,501.6234,22.6634,501.6911,22.7788,501.3246,22.7797,500.9108,22.8401,500.5216,23.0184,500.1812,23.2322,499.8556,23.1447,499.6443,23.6387,499.8369,24.0337,499.7905,24.36,499.5784,24.7351,499.4838,25,499.1234" style="stroke:#181818;stroke-width:4.0;"/><text fill="#000000" font-family="Chalkduster" font-size="24" lengthAdjust="spacing" textLength="249" x="32.5" y="532.9643">Data guide source</text></g><!--entity Notebooks--><g id="elem_Notebooks"><polygon fill="none" points="329,499.1234,329,499.3336,339.2667,498.7091,349.5333,499.3167,359.8,499.5231,370.0667,498.41,380.3333,499.0457,390.6,498.6969,400.8667,498.7399,411.1333,499.0552,421.4,498.432,431.6667,499.677,441.9333,498.4931,452.2,498.9256,462.4667,499.5553,472.7333,499.0376,483,499.1234,483.0087,499.1444,483.3495,499.26,483.7299,499.4712,484.0912,499.6364,484.4889,499.8895,484.7678,499.8556,484.9744,499.9412,485.1234,500.2958,485.1391,500.5952,485.3499,500.9754,485.5698,501.3594,485.5,501.6234,484.7788,501.6234,486.1785,510.7493,485.2035,519.8753,486.0338,529.0013,485.005,538.1272,485.5,547.2532,485.4789,547.2445,485.5819,547.7014,485.1921,547.9541,485.0931,548.3273,485.0185,548.7106,484.7678,549.021,484.8209,549.1492,484.4137,549.1662,484.0973,549.4023,483.6341,549.284,483.3898,549.6943,483,549.7532,483,550.3014,472.7333,550.1977,462.4667,550.3662,452.2,549.2701,441.9333,549.101,431.6667,549.1318,421.4,549.6943,411.1333,549.5567,400.8667,550.4346,390.6,549.5785,380.3333,549.4102,370.0667,549.9815,359.8,549.0864,349.5333,549.2341,339.2667,550.4022,329,549.7532,329.0556,549.8874,328.7401,549.833,328.2518,549.3612,327.9801,549.4122,327.6611,549.3492,327.2322,549.021,327.0868,548.9607,327.0563,548.6552,326.9781,548.3299,326.9936,548.0435,326.6452,547.6062,326.5,547.2532,326.9626,547.2532,325.9462,538.1272,325.8227,529.0013,327.0036,519.8753,325.7831,510.7493,326.5,501.6234,326.6567,501.6883,326.7101,501.2962,326.7104,500.8821,326.8304,500.5176,327.2271,500.2677,327.2322,499.8556,327.194,499.7634,327.6613,499.8914,327.8688,499.3925,328.3717,499.6064,328.7082,499.419,329,499.1234" style="stroke:#181818;stroke-width:4.0;"/><text fill="#000000" font-family="Chalkduster" font-size="24" lengthAdjust="spacing" textLength="139" x="336.5" y="532.9643">Notebooks</text></g><!--entity examples--><g id="elem_examples"><polygon fill="none" points="435.5,225.4934,435.5,225.7036,445.4286,225.0791,455.3571,225.6867,465.2857,225.8931,475.2143,224.78,485.1429,225.4157,495.0714,225.0669,505,225.1099,514.9286,225.4252,524.8571,224.802,534.7857,226.047,544.7143,224.8631,554.6429,225.2956,564.5714,225.9253,574.5,225.4934,574.4891,225.467,574.8623,225.6608,575.203,225.7764,575.5834,225.9877,575.9447,226.1528,576.2678,226.2256,576.4481,226.3003,576.6209,226.6648,576.7698,227.0194,576.7855,227.3187,576.9963,227.699,577,227.9934,577.7022,227.9934,576.2788,237.1193,577.6785,246.2453,576.7035,255.3713,577.5338,264.4972,577,273.6232,576.8476,273.5601,576.8325,273.968,576.9355,274.4249,576.5457,274.6776,576.4466,275.0509,576.2678,275.391,576.311,275.4953,575.9673,275.6656,575.5602,275.6827,575.2437,275.9188,574.7805,275.8005,574.5,276.1232,574.5,276.4076,564.5714,276.6714,554.6429,276.5677,544.7143,276.7362,534.7857,275.6401,524.8571,275.471,514.9286,275.5018,505,276.0643,495.0714,275.9267,485.1429,276.8046,475.2143,275.9485,465.2857,275.7802,455.3571,276.3515,445.4286,275.4564,435.5,276.1232,435.4338,275.9633,435.2292,276.1766,434.8485,275.9645,434.533,275.9101,434.0447,275.4383,433.7322,275.391,433.8305,275.4317,433.7676,275.1127,433.2939,274.6236,433.2634,274.3181,433.1852,273.9928,433,273.6232,433.6518,273.6232,432.9958,264.4972,433.4626,255.3713,432.4462,246.2453,432.3227,237.1193,433,227.9934,433.1551,228.0576,432.9257,227.5484,433.4496,227.3512,433.503,226.9591,433.5033,226.545,433.7322,226.2256,433.6871,226.1167,434.1443,226.2204,434.4012,225.8405,434.8684,225.9685,435.0759,225.4696,435.5,225.4934" style="stroke:#181818;stroke-width:4.0;"/><text fill="#000000" font-family="Chalkduster" font-size="24" lengthAdjust="spacing" textLength="124" x="443" y="259.3343">examples</text></g><!--entity description--><g id="elem_description"><polygon fill="none" points="615,225.4934,615,225.7036,624.8824,225.0791,634.7647,225.6867,644.6471,225.8931,654.5294,224.78,664.4118,225.4157,674.2941,225.0669,684.1765,225.1099,694.0588,225.4252,703.9412,224.802,713.8235,226.047,723.7059,224.8631,733.5882,225.2956,743.4706,225.9253,753.3529,225.4076,763.2353,225.5616,773.1176,225.4614,783,225.4934,783.0228,225.5484,783.3841,225.7135,783.7818,225.9666,784.1463,226.1394,784.5009,226.2883,784.7678,226.2256,784.8462,226.2581,785.057,226.6383,785.2769,227.0223,784.985,227.1943,785.5625,227.7264,785.5,227.9934,785.2035,227.9934,786.0338,237.1193,785.005,246.2453,785.4315,255.3713,786.2416,264.4972,785.5,273.6232,785.485,273.617,785.386,273.9902,785.3114,274.3735,785.1888,274.737,784.913,275.0369,784.7678,275.391,784.8044,275.4794,784.3412,275.3611,784.0969,275.7714,783.777,275.9991,783.4103,276.1137,783,276.1232,783,276.7362,773.1176,275.6401,763.2353,275.471,753.3529,275.5018,743.4706,276.0643,733.5882,275.9267,723.7059,276.8046,713.8235,275.9485,703.9412,275.7802,694.0588,276.3515,684.1765,275.4564,674.2941,275.6041,664.4118,276.7722,654.5294,276.5589,644.6471,276.8577,634.7647,275.8014,624.8824,276.4424,615,276.1232,615.0753,276.305,614.5862,275.8313,614.2807,275.8008,613.9554,275.7227,613.6689,275.7381,613.2322,275.391,613.2309,275.3904,613.2282,275.0964,612.7688,274.6132,612.5843,274.2439,612.8015,274.041,612.5,273.6232,611.7831,273.6232,613.009,264.4972,612.7066,255.3713,612.2321,246.2453,612.1462,237.1193,612.5,227.9934,612.6413,228.0519,612.5543,227.6016,612.9752,227.3618,612.7691,226.8622,613.2759,226.6579,613.2322,226.2256,613.294,226.3748,613.617,226.1546,613.9454,225.9473,614.3856,226.01,614.7247,225.8288,615,225.4934" style="stroke:#181818;stroke-width:4.0;"/><text fill="#000000" font-family="Chalkduster" font-size="24" lengthAdjust="spacing" textLength="153" x="622.5" y="259.3343">description</text></g><!--entity Newspapers--><g id="elem_Newspapers"><polygon fill="none" points="607,499.1234,607,499.3336,616.7647,498.7091,626.5294,499.3167,636.2941,499.5231,646.0588,498.41,655.8235,499.0457,665.5882,498.6969,675.3529,498.7399,685.1176,499.0552,694.8824,498.432,704.6471,499.677,714.4118,498.4931,724.1765,498.9256,733.9412,499.5553,743.7059,499.0376,753.4706,499.1916,763.2353,499.0914,773,499.1234,773.0228,499.1784,773.3841,499.3435,773.7818,499.5966,774.1463,499.7694,774.5009,499.9183,774.7678,499.8556,774.8462,499.8881,775.057,500.2683,775.2769,500.6523,774.985,500.8243,775.5625,501.3564,775.5,501.6234,775.2035,501.6234,776.0338,510.7493,775.005,519.8753,775.4315,529.0013,776.2416,538.1272,775.5,547.2532,775.485,547.247,775.386,547.6202,775.3114,548.0035,775.1888,548.367,774.913,548.6669,774.7678,549.021,774.8044,549.1094,774.3412,548.9911,774.0969,549.4014,773.777,549.6291,773.4103,549.7437,773,549.7532,773,550.3662,763.2353,549.2701,753.4706,549.101,743.7059,549.1318,733.9412,549.6943,724.1765,549.5567,714.4118,550.4346,704.6471,549.5785,694.8824,549.4102,685.1176,549.9815,675.3529,549.0864,665.5882,549.2341,655.8235,550.4022,646.0588,550.1889,636.2941,550.4877,626.5294,549.4314,616.7647,550.0724,607,549.7532,607.0753,549.935,606.5862,549.4613,606.2807,549.4308,605.9554,549.3527,605.6689,549.3681,605.2322,549.021,605.2309,549.0204,605.2282,548.7264,604.7688,548.2432,604.5843,547.8739,604.8015,547.671,604.5,547.2532,603.7831,547.2532,605.009,538.1272,604.7066,529.0013,604.2321,519.8753,604.1462,510.7493,604.5,501.6234,604.6413,501.6819,604.5543,501.2316,604.9752,500.9918,604.7691,500.4922,605.2759,500.2879,605.2322,499.8556,605.294,500.0048,605.617,499.7846,605.9454,499.5773,606.3856,499.64,606.7247,499.4588,607,499.1234" style="stroke:#181818;stroke-width:4.0;"/><text fill="#000000" font-family="Chalkduster" font-size="24" lengthAdjust="spacing" textLength="151" x="614.5" y="532.9643">Newspapers</text></g><!--entity Other--><g id="elem_Other"><polygon fill="none" points="813,499.1234,813,499.3336,822.5556,498.7091,832.1111,499.3167,841.6667,499.5231,851.2222,498.41,860.7778,499.0457,870.3333,498.6969,879.8889,498.7399,889.4444,499.0552,899,499.1234,898.9118,498.9105,899.4242,499.4403,899.6267,499.2222,900.0354,499.5018,900.4693,499.8422,900.7678,499.8556,900.7414,499.8447,900.9352,500.2179,901.0508,500.5586,901.2621,500.939,901.4272,501.3003,901.5,501.6234,902.0857,501.6234,902.1711,510.7493,902.1793,519.8753,901.7546,529.0013,901.9636,538.1272,901.5,547.2532,901.7163,547.3428,901.1315,547.5148,901.4161,548.0469,900.9693,548.276,901.0786,548.7355,900.7678,549.021,900.7046,548.8685,900.4055,549.1463,900.1553,549.5423,899.7009,549.4453,899.367,549.6392,899,549.7532,899,550.0918,889.4444,550.1694,879.8889,549.7493,870.3333,550.0404,860.7778,549.1808,851.2222,550.0376,841.6667,550.3014,832.1111,550.1977,822.5556,550.3662,813,549.7532,812.9384,549.6044,812.5633,549.4059,812.2136,549.2689,811.9318,549.2957,811.5607,549.1069,811.2322,549.021,811.4421,549.1079,811.032,548.6451,810.8337,548.2701,810.8632,547.9894,810.4411,547.5217,810.5,547.2532,809.9809,547.2532,811.149,538.1272,810.9357,529.0013,811.2345,519.8753,810.1782,510.7493,810.5,501.6234,810.5983,501.6641,810.8283,501.3451,810.6474,500.856,810.9098,500.5505,811.1246,500.2252,811.2322,499.8556,811.3154,500.0563,811.5853,499.7079,811.9983,499.7052,812.2223,499.2457,812.5601,499.0613,813,499.1234" style="stroke:#181818;stroke-width:4.0;"/><text fill="#000000" font-family="Chalkduster" font-size="24" lengthAdjust="spacing" textLength="71" x="820.5" y="532.9643">Other</text></g><!--entity cn--><g id="elem_cn"><polygon fill="none" points="915,992.2734,915,992.4836,925.1818,991.8591,935.3636,992.4667,945.5455,992.6731,955.7273,991.56,965.9091,992.1957,976.0909,991.8469,986.2727,991.8899,996.4545,992.2052,1006.6364,991.582,1016.8182,992.827,1027,991.6431,1037.1818,992.0756,1047.3636,992.7053,1057.5455,992.1876,1067.7273,992.3416,1077.9091,992.2414,1088.0909,992.4519,1098.2727,992.5125,1108.4545,992.8591,1118.6364,992.9444,1128.8182,992.9526,1139,992.2734,1139.0325,992.3518,1139.4127,992.5626,1139.7967,992.7825,1139.9687,992.4906,1140.5008,993.0681,1140.7678,993.0056,1140.6765,992.9678,1141.0786,993.4273,1140.9082,993.6496,1141.186,994.0575,1141.5819,994.5144,1141.5,994.7734,1141.4513,994.7734,1141.6053,1003.8993,1141.8386,1013.0253,1141.9162,1022.1513,1141.4961,1031.2772,1141.5,1040.4032,1141.5885,1040.4398,1141.1773,1040.6837,1141.2947,1041.1466,1141.2295,1041.5338,1141.0511,1041.8741,1140.7678,1042.171,1140.846,1042.3598,1140.3526,1042.1686,1139.9775,1042.263,1139.6278,1042.4189,1139.346,1042.7386,1139,1042.9032,1139,1042.7067,1128.8182,1043.5846,1118.6364,1042.7285,1108.4545,1042.5602,1098.2727,1043.1315,1088.0909,1042.2364,1077.9091,1042.3841,1067.7273,1043.5522,1057.5455,1043.3389,1047.3636,1043.6377,1037.1818,1042.5814,1027,1043.2224,1016.8182,1043.4936,1006.6364,1042.4308,996.4545,1042.8073,986.2727,1043.0292,976.0909,1043.555,965.9091,1042.899,955.7273,1043.3658,945.5455,1042.3494,935.3636,1042.2259,925.1818,1043.4068,915,1042.9032,914.9085,1042.6824,914.7114,1042.9135,914.3193,1042.6739,913.9052,1042.3814,913.5407,1042.2085,913.2322,1042.171,913.3735,1042.2295,912.9936,1041.7792,913.1216,1041.5394,912.6227,1041.0398,912.8366,1040.8355,912.5,1040.4032,912.9843,1040.4032,912.745,1031.2772,912.5472,1022.1513,913.2266,1013.0253,913.1136,1003.8993,912.5,994.7734,912.5521,994.795,912.729,994.454,912.7528,994.0496,913.16,993.8041,913.1335,993.3789,913.2322,993.0056,913.2542,993.0588,913.5082,992.6718,913.8876,992.5879,914.3606,992.7297,914.7013,992.5522,915,992.2734" style="stroke:#181818;stroke-width:4.0;"/><text fill="#000000" font-family="Chalkduster" font-size="24" lengthAdjust="spacing" textLength="209" x="922.5" y="1026.1143">Code Notebook</text></g><g id="elem_GMN18"><path d="M650,675.0734 L650.5605,675.0734 L648.8951,685.2623 L650.5154,695.4513 L651.0658,705.6402 L648.0976,715.8292 L649.7928,726.0181 L648.8627,736.2071 L648.9773,746.396 L649.8182,756.585 L648.1563,766.7739 L650,776.9629 L650,778.4392 L660.0889,775.2821 L670.1778,776.4355 L680.2667,778.1147 L690.3556,776.7341 L700.4444,777.1448 L710.5333,776.8777 L720.6222,777.4389 L730.7111,777.6006 L740.8,778.5247 L750.8889,778.7523 L760.9778,778.7742 L771.0667,777.6419 L781.1556,778.1991 L791.2444,778.8355 L801.3333,775.0397 L811.4222,778.7722 L821.5111,776.1722 L831.6,778.3864 L841.6889,775.6428 L851.7778,776.7802 L861.8667,778.9405 L871.9556,776.8329 L882.0444,777.2437 L892.1333,777.8659 L902.2222,778.0728 L912.3111,776.9525 L922.4,777.7288 L932.4889,775.4364 L942.5778,777.7212 L952.6667,778.4247 L962.7556,778.1483 L972.8444,778.5976 L982.9333,775.6747 L993.0222,775.2237 L1003.1111,775.3058 L1013.2,776.8059 L1023.2889,776.4388 L1033.3778,778.78 L1043.4667,776.4971 L1053.5556,776.0481 L1063.6444,777.5716 L1073.7333,775.1846 L1083.8222,775.5785 L1093.9111,778.6934 L1104,776.9629 L1105.1618,776.9629 L1105.9586,766.7529 L1103.1419,756.543 L1104.8512,746.333 L1105.5745,736.1231 L1102.7403,725.9131 L1103.7444,715.7032 L1104.336,705.4933 L1105.738,695.2833 L1104,685.0734 L1103.9974,685.0707 L1102.2907,683.3641 L1099.6519,680.7253 L1097.5743,678.6477 L1096.3165,677.3899 L1094,675.0734 L1094,673.1615 L1083.9091,676.4306 L1073.8182,675.6244 L1063.7273,674.3589 L1053.6364,674.13 L1043.5455,676.2967 L1033.4545,674.2752 L1023.3636,676.6517 L1013.2727,673.5994 L1003.1818,676.7198 L993.0909,676.3648 L983,675.7266 L972.9091,675.1993 L962.8182,677.011 L952.7273,676.7096 L942.6364,675.5247 L932.5455,675.7885 L922.4545,674.726 L912.3636,676.9839 L902.2727,675.4864 L892.1818,675.5336 L882.0909,673.4511 L872,673.9928 L861.9091,676.4887 L851.8182,676.2194 L841.7273,674.9589 L831.6364,674.2143 L821.5455,674.4896 L811.4545,673.2436 L801.3636,676.1793 L791.2727,677.0455 L781.1818,676.4771 L771.0909,676.9265 L761,674.7088 L750.9091,675.306 L740.8182,674.0398 L730.7273,675.8308 L720.6364,675.7314 L710.5455,676.5464 L700.4545,674.461 L690.3636,674.715 L680.2727,676.2559 L670.1818,676.5863 L660.0909,673.7066 L650,675.0734 " fill="none" style="stroke:#181818;stroke-width:4.0;"/><path d="M1094,675.0734 L1094.1868,675.0734 L1093.6317,677.0734 L1094.1718,679.0734 L1094.3553,681.0734 L1093.3659,683.0734 L1094,685.0734 L1094,685.0043 L1096,684.6943 L1098,684.7325 L1100,685.0128 L1102,684.4588 L1104,685.0734 L1104.348,685.4214 L1101.6038,682.6772 L1099.8757,680.9491 L1098.2715,679.3449 L1095.9461,677.0195 L1094,675.0734 " fill="none" style="stroke:#181818;stroke-width:1.0;"/><text fill="#000000" font-family="Chalkduster" font-size="24" lengthAdjust="spacing" textLength="433" x="656" y="703.9143">Trove contains *Curated* data</text><text fill="#000000" font-family="Chalkduster" font-size="24" lengthAdjust="spacing" textLength="255" x="656" y="734.5441">*Collected* by the</text><text fill="#000000" font-family="Chalkduster" font-size="24" lengthAdjust="spacing" textLength="390" x="656" y="765.1739">National Libary of Australia</text></g><g id="elem_GMN21"><path d="M751.5,1145.9034 L752.0605,1145.9034 L750.3951,1156.0923 L752.0154,1166.2813 L752.5658,1176.4702 L749.5976,1186.6592 L751.2928,1196.8481 L750.3627,1207.0371 L750.4773,1217.226 L751.3182,1227.415 L749.6563,1237.6039 L751.5,1247.7929 L751.5,1249.2692 L761.4659,1246.1121 L771.4318,1247.2655 L781.3977,1248.9447 L791.3636,1247.5641 L801.3295,1247.9748 L811.2955,1247.7077 L821.2614,1248.2689 L831.2273,1248.4306 L841.1932,1249.3547 L851.1591,1249.5823 L861.125,1249.6042 L871.0909,1248.4719 L881.0568,1249.0291 L891.0227,1249.6655 L900.9886,1245.8697 L910.9545,1249.6022 L920.9205,1247.0022 L930.8864,1249.2164 L940.8523,1246.4728 L950.8182,1247.6102 L960.7841,1249.7705 L970.75,1247.6629 L980.7159,1248.0737 L990.6818,1248.6959 L1000.6477,1248.9028 L1010.6136,1247.7825 L1020.5795,1248.5588 L1030.5455,1246.2664 L1040.5114,1248.5512 L1050.4773,1249.2547 L1060.4432,1248.9783 L1070.4091,1249.4276 L1080.375,1246.5047 L1090.3409,1246.0537 L1100.3068,1246.1358 L1110.2727,1247.6359 L1120.2386,1247.2688 L1130.2045,1249.61 L1140.1705,1247.3271 L1150.1364,1246.8781 L1160.1023,1248.4016 L1170.0682,1246.0146 L1180.0341,1246.4085 L1190,1249.5234 L1199.9659,1248.9547 L1209.9318,1249.7515 L1219.8977,1246.9348 L1229.8636,1248.6441 L1239.8295,1249.3673 L1249.7955,1246.5331 L1259.7614,1247.5372 L1269.7273,1248.1288 L1279.6932,1249.5309 L1289.6591,1247.7817 L1299.625,1249.0264 L1309.5909,1246.3161 L1319.5568,1245.9869 L1329.5227,1249.1358 L1339.4886,1245.881 L1349.4545,1249.1501 L1359.4205,1248.3439 L1369.3864,1247.0784 L1379.3523,1246.8495 L1389.3182,1249.0162 L1399.2841,1246.9947 L1409.25,1249.3712 L1419.2159,1246.3189 L1429.1818,1249.4393 L1439.1477,1249.0843 L1449.1136,1248.4461 L1459.0795,1247.9188 L1469.0455,1249.7305 L1479.0114,1249.4291 L1488.9773,1248.2442 L1498.9432,1248.508 L1508.9091,1247.4455 L1518.875,1249.7034 L1528.8409,1248.2058 L1538.8068,1248.2531 L1548.7727,1246.1706 L1558.7386,1246.7123 L1568.7045,1249.2082 L1578.6705,1248.9389 L1588.6364,1247.6784 L1598.6023,1246.9338 L1608.5682,1247.2091 L1618.5341,1245.9631 L1628.5,1247.7929 L1629.606,1247.7929 L1630.4722,1237.5829 L1629.9037,1227.373 L1630.3532,1217.163 L1628.1354,1206.9531 L1628.7326,1196.7431 L1627.4664,1186.5332 L1629.2574,1176.3233 L1629.158,1166.1133 L1628.5,1155.9034 L1628.8472,1156.2506 L1626.3557,1153.759 L1624.4155,1151.8189 L1622.7787,1150.1821 L1620.8566,1148.26 L1618.5,1145.9034 L1618.5,1144.5366 L1608.5345,1145.3864 L1598.569,1146.3014 L1588.6034,1144.2745 L1578.6379,1146.8458 L1568.6724,1146.5913 L1558.7069,1145.6347 L1548.7414,1146.2827 L1538.7759,1147.8465 L1528.8103,1145.069 L1518.8448,1146.7433 L1508.8793,1146.6651 L1498.9138,1146.2121 L1488.9483,1146.2792 L1478.9828,1146.206 L1469.0172,1144.239 L1459.0517,1144.8345 L1449.0862,1144.6726 L1439.1207,1146.0736 L1429.1552,1146.1384 L1419.1897,1146.3347 L1409.2241,1145.1274 L1399.2586,1145.7233 L1389.2931,1145.5828 L1379.3276,1147.4416 L1369.3621,1147.0409 L1359.3966,1144.6086 L1349.431,1145.7089 L1339.4655,1144.3641 L1329.5,1146.6724 L1319.5345,1147.526 L1309.569,1147.3555 L1299.6034,1144.7419 L1289.6379,1147.1406 L1279.6724,1143.9225 L1269.7069,1146.4371 L1259.7414,1145.1052 L1249.7759,1146.1613 L1239.8103,1146.5443 L1229.8448,1147.1623 L1219.8793,1143.9836 L1209.9138,1147.1713 L1199.9483,1146.3785 L1189.9828,1146.8509 L1180.0172,1147.8975 L1170.0517,1145.918 L1160.0862,1146.3708 L1150.1207,1146.4725 L1140.1552,1146.4293 L1130.1897,1145.9012 L1120.2241,1147.7986 L1110.2586,1144.2774 L1100.2931,1147.4108 L1090.3276,1144.2394 L1080.3621,1144.4625 L1070.3966,1146.0101 L1060.431,1145.9788 L1050.4655,1144.5892 L1040.5,1147.0066 L1030.5345,1146.1936 L1020.569,1147.8411 L1010.6034,1147.6823 L1000.6379,1144.708 L990.6724,1144.8422 L980.7069,1145.5589 L970.7414,1146.8514 L960.7759,1146.978 L950.8103,1146.7065 L940.8448,1144.9915 L930.8793,1147.6003 L920.9138,1147.5935 L910.9483,1145.7773 L900.9828,1145.2659 L891.0172,1144.833 L881.0517,1145.3312 L871.0862,1146.2698 L861.1207,1145.721 L851.1552,1144.7892 L841.1897,1147.2031 L831.2241,1144.6795 L821.2586,1147.2431 L811.2931,1147.0427 L801.3276,1146.895 L791.3621,1147.75 L781.3966,1145.2477 L771.431,1145.1017 L761.4655,1147.2871 L751.5,1145.9034 " fill="none" style="stroke:#181818;stroke-width:4.0;"/><path d="M1618.5,1145.9034 L1618.6868,1145.9034 L1618.1317,1147.9034 L1618.6718,1149.9034 L1618.8553,1151.9034 L1617.8659,1153.9034 L1618.5,1155.9034 L1618.5,1155.8343 L1620.5,1155.5243 L1622.5,1155.5625 L1624.5,1155.8428 L1626.5,1155.2888 L1628.5,1155.9034 L1628.848,1156.2514 L1626.1038,1153.5072 L1624.3757,1151.7791 L1622.7715,1150.1749 L1620.4461,1147.8495 L1618.5,1145.9034 " fill="none" style="stroke:#181818;stroke-width:1.0;"/><text fill="#000000" font-family="Chalkduster" font-size="24" lengthAdjust="spacing" textLength="588" x="757.5" y="1174.7443">*Analysis* takes place in code notebooks.</text><text fill="#000000" font-family="Chalkduster" font-size="24" lengthAdjust="spacing" textLength="761" x="757.5" y="1205.3741">Outputs from this process are *Collected* &amp; *Curated*</text><text fill="#000000" font-family="Chalkduster" font-size="24" lengthAdjust="spacing" textLength="856" x="757.5" y="1236.0039">and depostied into suitable archival repositories or published</text></g><g id="elem_GMN24"><path d="M1139.5,659.7534 L1140.0605,659.7534 L1138.3951,669.9472 L1140.0154,680.141 L1140.5658,690.3348 L1137.5976,700.5286 L1139.2928,710.7223 L1138.3627,720.9161 L1138.4773,731.1099 L1139.3182,741.3037 L1137.6563,751.4975 L1140.9764,761.6913 L1137.8193,771.8851 L1138.9726,782.0789 L1139.5,792.2727 L1139.5,793.4246 L1149.4508,792.044 L1159.4016,792.4547 L1169.3525,792.1875 L1179.3033,792.7488 L1189.2541,792.9104 L1199.2049,793.8345 L1209.1557,794.0622 L1219.1066,794.0841 L1229.0574,792.9517 L1239.0082,793.5089 L1248.959,794.1453 L1258.9098,790.3495 L1268.8607,794.0821 L1278.8115,791.482 L1288.7623,793.6962 L1298.7131,790.9526 L1308.6639,792.09 L1318.6148,794.2503 L1328.5656,792.1427 L1338.5164,792.5535 L1348.4672,793.1757 L1358.418,793.3827 L1368.3689,792.2623 L1378.3197,793.0386 L1388.2705,790.7463 L1398.2213,793.0311 L1408.1721,793.7346 L1418.123,793.4581 L1428.0738,793.9074 L1438.0246,790.9845 L1447.9754,790.5335 L1457.9262,790.6156 L1467.877,792.1157 L1477.8279,791.7486 L1487.7787,794.0898 L1497.7295,791.8069 L1507.6803,791.3579 L1517.6311,792.8814 L1527.582,790.4945 L1537.5328,790.8884 L1547.4836,794.0032 L1557.4344,793.4345 L1567.3852,794.2313 L1577.3361,791.4146 L1587.2869,793.1239 L1597.2377,793.8472 L1607.1885,791.013 L1617.1393,792.0171 L1627.0902,792.6087 L1637.041,794.0107 L1646.9918,792.2615 L1656.9426,793.5062 L1666.8934,790.7959 L1676.8443,790.4667 L1686.7951,793.6157 L1696.7459,790.3609 L1706.6967,793.6299 L1716.6475,792.8237 L1726.5984,791.5583 L1736.5492,791.3293 L1746.5,792.2727 L1747.7234,792.2727 L1745.7018,782.0628 L1748.0783,771.8528 L1745.026,761.6429 L1748.1465,751.4329 L1747.7915,741.223 L1747.1532,731.013 L1746.6259,720.8031 L1748.4376,710.5931 L1748.1362,700.3832 L1746.9513,690.1733 L1747.2152,679.9633 L1746.5,669.7534 L1746.4181,669.6715 L1744.9503,668.2037 L1742.5973,665.8507 L1740.6085,663.8618 L1738.1176,661.371 L1736.5,659.7534 L1736.5,658.6728 L1726.55,661.1687 L1716.6,660.8994 L1706.65,659.6389 L1696.7,658.8943 L1686.75,659.1696 L1676.8,657.9236 L1666.85,660.8593 L1656.9,661.7255 L1646.95,661.1571 L1637,661.6065 L1627.05,659.3888 L1617.1,659.986 L1607.15,658.7198 L1597.2,660.5108 L1587.25,660.4114 L1577.3,661.2264 L1567.35,659.141 L1557.4,659.395 L1547.45,660.9359 L1537.5,661.2663 L1527.55,658.3866 L1517.6,659.2364 L1507.65,660.1514 L1497.7,658.1245 L1487.75,660.6958 L1477.8,660.4413 L1467.85,659.4847 L1457.9,660.1327 L1447.95,661.6965 L1438,658.919 L1428.05,660.5933 L1418.1,660.5151 L1408.15,660.0621 L1398.2,660.1292 L1388.25,660.056 L1378.3,658.089 L1368.35,658.6845 L1358.4,658.5226 L1348.45,659.9236 L1338.5,659.9884 L1328.55,660.1847 L1318.6,658.9774 L1308.65,659.5733 L1298.7,659.4328 L1288.75,661.2916 L1278.8,660.8909 L1268.85,658.4586 L1258.9,659.5589 L1248.95,658.2141 L1239,660.5224 L1229.05,661.376 L1219.1,661.2055 L1209.15,658.5919 L1199.2,660.9906 L1189.25,657.7725 L1179.3,660.2871 L1169.35,658.9552 L1159.4,660.0113 L1149.45,660.3943 L1139.5,659.7534 " fill="none" style="stroke:#181818;stroke-width:4.0;"/><path d="M1736.5,659.7534 L1736.6868,659.7534 L1736.1317,661.7534 L1736.6718,663.7534 L1736.8553,665.7534 L1735.8659,667.7534 L1736.5,669.7534 L1736.5,669.6843 L1738.5,669.3743 L1740.5,669.4125 L1742.5,669.6928 L1744.5,669.1388 L1746.5,669.7534 L1746.848,670.1014 L1744.1038,667.3572 L1742.3757,665.6291 L1740.7715,664.0249 L1738.4461,661.6995 L1736.5,659.7534 " fill="none" style="stroke:#181818;stroke-width:1.0;"/><text fill="#000000" font-family="Chalkduster" font-size="24" lengthAdjust="spacing" textLength="586" x="1145.5" y="688.5943">In some cases data from multiple sources</text><text fill="#000000" font-family="Chalkduster" font-size="24" lengthAdjust="spacing" textLength="563" x="1145.5" y="719.2241">is *Integrated* via code with the results</text><text fill="#000000" font-family="Chalkduster" font-size="24" lengthAdjust="spacing" textLength="572" x="1145.5" y="749.8539">*Curated*and deposited into appropriate</text><text fill="#000000" font-family="Chalkduster" font-size="24" lengthAdjust="spacing" textLength="289" x="1145.5" y="780.4838">Archival Repositories</text></g><!--link examples to compute--><g id="link_examples_compute"><path d="M507.02,276.4534 L507.113,276.4618 L507.2179,280.6246 L507.868,284.8371 L508.3406,289.0333 L508.2292,293.1764 L508.9262,297.3931 L508.8918,297.3897 L509.2525,302.5956 L509.7863,307.8185 L510.4407,313.0533 L510.6799,318.2472 L511.5006,323.4984 L511.7453,323.5246 L511.8757,329.5659 L512.7205,335.6837 L513.6524,341.8109 L514.0772,347.8837 L514.7687,353.9852 L514.7988,353.9887 L515.5521,360.8003 L516.4425,367.628 L517.2667,374.448 L518.2172,381.2827 L518.7561,388.0693 L519.0519,388.1072 L520.002,395.4872 L520.7612,402.8427 L521.7998,410.234 L522.8514,417.627 L523.4882,424.9668 L523.1709,424.9219 L524.8873,432.7943 L525.5588,440.519 L527.0246,448.356 L527.6724,456.0774 L528.9907,463.8935 L528.9606,463.8889 L529.9262,467.9391 L530.1885,471.8819 L530.8658,475.8881 L531.578,479.8996 L532.0388,483.8728 L532.2214,483.9022 L532.6871,487.911 L533.4649,491.9701 L533.7378,495.9479 L534.7638,500.0469 L535.289,504.0654 L535.5292,504.1062 L536.1749,508.1601 L536.9399,512.2342 L537.1507,516.2141 L537.7678,520.263 L538.7446,524.3732 L538.4728,524.3242 L539.4517,528.4336 L540.1243,532.4878 L541.2411,536.6221 L541.5995,540.6196 L542.4088,544.6984 L542.259,544.6697 L543.2836,548.7663 L543.668,552.7404 L544.5077,556.8016 L545.7927,560.9481 L546.2846,564.9428 L546.4743,564.9814 L547.4226,569.0211 L547.7808,572.9404 L548.8781,577.0105 L549.8143,581.0477 L550.3754,585.0084 L550.1702,584.9637 L551.1955,588.9571 L552.1536,592.9359 L553.2437,596.9434 L553.8207,600.8391 L554.6842,604.7973 L554.8845,604.844 L555.3506,608.6242 L556.2032,612.4945 L557.6203,616.4966 L557.9981,620.2562 L559.2144,624.2114 L559.4338,624.2665 L560.2544,628.022 L561.0008,631.7589 L561.9147,635.5379 L563.2159,639.4141 L563.9691,643.1527 L563.8407,643.1179 L565.2195,646.8957 L565.725,650.4366 L567.2234,654.2469 L568.1627,657.9055 L568.9515,661.5232 L569.0559,661.554 L570.0143,665.0695 L571.3466,668.6952 L572.341,672.2213 L573.1942,675.7059 L574.1647,679.225 L574.2782,679.2615 L575.1991,682.5943 L576.6468,686.0965 L577.4986,689.407 L578.5956,692.7964 L579.612,696.1599 L579.3571,696.0698 L580.5792,699.3139 L582.1082,702.6666 L583.2028,705.8657 L584.1417,709.0097 L585.2966,712.2301 L585.1633,712.1778 L586.391,715.216 L587.3827,718.1616 L589.0232,721.3617 L590.3426,724.4359 L591.2216,727.3374 L591.4358,727.4314 L592.7382,730.2708 L593.6335,732.9315 L594.9583,735.7808 L595.9988,738.5053 L597.3903,741.3838 L597.5033,741.4401 L598.7716,744.0102 L600.1763,746.6483 L601.1482,749.0709 L602.4692,751.6673 L603.8058,754.2715 L603.9768,754.3695 L605.3577,756.723 L606.2744,758.8105 L607.7304,761.2071 L609.1958,763.6091 L610.4713,765.9022 L610.2461,765.7506 L611.9854,768.0451 L613.3339,770.0766 L614.5854,772.0428 L616.0588,774.1583 L617.3901,776.1782 L617.6413,776.3825 L618.7172,777.855 L620.3688,779.7957 L621.7937,781.5521 L623.1701,783.2691 L624.5652,785.0012 L624.609,785.046 L626.0875,786.4917 L627.3452,787.7118 L628.9015,789.2372 L630.3696,790.6723 L632,792.2734 L632.0166,792.2964 L633.8437,793.6226 L635.6836,794.9665 L637.3863,796.121 L639.2652,797.5189 L641.1035,798.8607 L641.0787,798.8134 L643.33,800.1942 L645.4063,801.2417 L647.3252,801.9894 L649.5177,803.2583 L651.6401,804.3936 L651.5483,804.154 L654.0607,805.4231 L656.4864,806.4658 L658.8509,807.3491 L661.0698,807.8522 L663.5138,808.9428 L663.5689,809.1415 L666.0486,809.352 L668.7835,810.4831 L671.3471,810.9965 L674.0171,811.8934 L676.6286,812.5793 L676.6491,812.6841 L679.5209,813.3441 L682.271,813.3831 L685.2252,814.4633 L688.0517,814.8925 L690.8885,815.3737 L690.9092,815.5303 L693.9938,816.1078 L697.0124,816.1854 L700.0841,816.6649 L703.1481,817.0863 L706.1974,817.397 L706.2045,817.4843 L709.4498,817.6612 L712.7279,818.2409 L715.9327,817.9206 L719.2275,818.7056 L722.4595,818.7198 L722.4483,818.4427 L725.8737,818.6185 L729.3079,819.0149 L732.7316,819.1483 L736.146,819.0556 L739.5788,819.4131 L739.5801,819.5969 L743.1552,819.4883 L746.7333,819.7898 L750.3092,819.7902 L753.8815,819.3214 L757.4591,819.5475 L757.4557,819.3707 L761.1671,819.4194 L764.8803,819.5641 L768.5898,819.5145 L772.298,819.3986 L776.0046,819.1941 L775.9985,819.0422 L779.8389,819.3225 L783.6618,819.1672 L787.4725,818.7107 L791.292,818.4714 L795.1192,818.4234 L795.1091,818.2453 L799.0314,818.1048 L802.9578,818.0376 L806.8702,817.7228 L810.7789,817.3444 L814.707,817.3064 L814.7221,817.5225 L818.6858,816.8244 L822.7086,816.9721 L826.6992,816.6603 L830.6905,816.3572 L834.672,815.9138 L834.6962,816.2206 L838.7126,815.4854 L842.7599,815.1417 L846.8378,815.1853 L850.8481,814.3715 L854.9181,814.3165 L854.9092,814.2129 L863.1129,813.6625 L871.3015,812.9367 L879.4756,812.0424 L887.678,811.477 L895.87,810.7909 L895.8982,811.1206 L904.0795,810.3791 L912.2173,809.1289 L920.4278,808.7287 L928.5903,807.7674 L936.7947,807.2959 L936.7938,807.2843 L940.8471,807.114 L944.8939,806.8584 L948.8992,806.066 L952.9781,806.2263 L957.0068,805.737 L957.0071,805.7407 L960.9738,805.223 L964.9597,804.9926 L968.967,805.0785 L972.9482,804.7767 L976.9242,804.3982 L976.9238,804.3909 L980.8135,803.8903 L984.7505,804.2711 L988.6328,803.631 L992.5329,803.3255 L996.4508,803.3502 L996.4498,803.3203 L1000.2683,803.4749 L1004.0766,803.3491 L1007.8753,802.9541 L1011.6803,802.7341 L1015.4907,802.664 L1015.4918,802.7395 L1019.1833,802.696 L1022.8705,802.3369 L1026.5675,802.6958 L1030.2598,802.7094 L1033.9479,802.4103 L1033.9465,802.3144 L1037.5009,802.2695 L1041.0634,802.81 L1044.615,802.5694 L1048.1706,802.6099 L1051.7263,802.6599 L1051.7327,802.7927 L1055.1131,802.538 L1058.5391,803.2247 L1061.9281,803.1473 L1065.3436,803.6158 L1068.7299,803.4837 L1068.7212,803.3881 L1071.973,803.9585 L1075.1652,803.8746 L1078.4196,804.4733 L1081.6516,804.8265 L1084.8629,804.9524 L1084.8421,804.8084 L1087.9191,805.5489 L1090.8932,805.5748 L1093.9328,806.0561 L1097.0391,807.0003 L1100.0291,807.1368 L1100.0918,807.4344 L1102.9019,807.9782 L1105.6375,808.1685 L1108.5264,809.0865 L1111.2687,809.3083 L1114.1327,810.1078 L1114.14,810.1326 L1116.7215,810.8729 L1119.2775,811.5273 L1121.9772,812.6673 L1124.5444,813.3594 L1127.0775,813.9361 L1127.0238,813.8041 L1129.5038,815.1042 L1131.769,815.8765 L1133.9939,816.5498 L1136.3906,817.6453 L1138.7677,818.6926 L1138.6541,818.4887 L1140.8055,819.7897 L1142.7675,820.7506 L1144.8416,821.9129 L1147.0545,823.3243 L1149.1072,824.4481 L1149.0746,824.4057 L1150.8699,825.7925 L1152.6256,827.1277 L1154.4881,828.6023 L1156.0712,829.7126 L1158,831.2734 L1158.052,831.3219 L1159.8407,833.2777 L1162.2603,835.8226 L1164.4388,838.1423 L1166.4979,840.3506 L1168.4103,842.4219 L1168.538,842.5193 L1168.9376,843.0763 L1169.3664,843.6556 L1169.5622,844.0573 L1170.4056,844.9527 L1170.7071,845.4349 L1170.8272,845.5188 L1170.1811,844.7223 L1169.7647,844.0862 L1169.2207,843.361 L1168.906,842.7959 L1168.3565,842.0669 " fill="none" style="stroke:#181818;stroke-width:4.0;"/><polygon fill="#181818" points="1171.8114,846.9723,1171.8802,846.9859,1171.2935,845.0132,1171.1098,843.1202,1170.7949,841.2013,1170.0485,839.197,1169.8993,837.3108,1169.8738,837.3064,1169.5659,838.4013,1169.3866,839.5184,1169.2967,840.6511,1168.8987,841.7303,1168.9323,842.8844,1168.9639,843.0663,1167.7817,842.484,1166.6916,842.4327,1165.6128,842.4461,1164.4686,842.0827,1163.3587,841.9174,1163.3704,841.9369,1165.0438,842.9193,1166.7704,843.9905,1168.4713,845.0188,1170.2211,846.1289,1171.8114,846.9723" style="stroke:#181818;stroke-width:4.0;"/><text fill="#000000" font-family="Chalkduster" font-size="24" lengthAdjust="spacing" textLength="92" x="562" y="622.5943">launch</text></g><!--link examples to Notebooks--><g id="link_examples_Notebooks"><path d="M496.04,276.3934 L496.3033,276.4893 L492.0873,285.6252 L489.4148,295.3236 L486.2396,304.8389 L481.4116,313.7516 L478.7742,323.4629 L474.9036,332.7246 L471.5238,342.1653 L468.4851,351.7303 L464.2708,360.8667 L462.3967,370.8562 L457.4799,379.7366 L454.588,389.3551 L451.9432,399.0636 L447.861,408.2482 L444.6202,417.7395 L441.061,427.1148 L437.891,436.6319 L434.5333,446.0805 L431.5337,455.6598 L428.207,465.1198 L424.7836,474.5445 L420.8179,483.7716 L417.0653,493.0764 " fill="none" style="stroke:#181818;stroke-width:4.0;"/><polygon fill="#181818" points="415.01,498.7134,415.0604,498.762,416.2788,497.2004,417.7927,495.924,419.2104,494.5547,420.3117,492.8799,421.8509,491.628,421.84,491.6046,420.7653,491.9767,419.7457,492.4673,418.7644,493.0401,417.6511,493.3294,416.7227,494.0159,416.89,494.0938,416.0547,492.9015,415.7078,491.9368,415.4206,490.9997,414.7865,489.9012,414.3349,488.8877,414.3576,488.8892,414.4593,490.8521,414.6643,492.822,414.8195,494.7886,415.0698,496.7616,415.01,498.7134" style="stroke:#181818;stroke-width:4.0;"/></g><!--link description to trove--><g id="link_description_trove"><path d="M763.69,276.5634 L763.7293,276.6481 L765.545,277.2919 L767.5909,278.4325 L769.5618,279.4113 L771.2862,279.8581 L773.3519,281.0413 L773.3368,281.0103 L775.267,281.8427 L777.2733,282.8317 L779.3326,283.9295 L781.2094,284.6523 L783.3417,285.9004 L783.4538,286.1195 L785.2635,286.6995 L787.4005,287.9191 L789.5774,289.2167 L791.5219,290.0603 L793.5887,291.1427 L793.6031,291.1694 L795.6686,292.2557 L797.7997,293.4635 L799.8992,294.6128 L802.0589,295.8738 L804.022,296.7702 L804.1698,297.0293 L806.2814,298.2355 L808.2977,299.2746 L810.4535,300.5582 L812.6158,301.8534 L814.571,302.7852 L814.4051,302.511 L816.8457,304.3242 L818.7403,305.2343 L821.05,306.831 L822.9322,307.7206 L825.1647,309.1898 L825.1483,309.1642 L827.4566,310.8262 L829.3802,311.89 L831.5308,313.3068 L833.7004,314.7533 L835.7326,315.986 L835.8373,316.1385 L837.8258,317.4225 L839.9933,318.9672 L841.8713,320.0902 L844.1811,321.8421 L846.2038,323.1759 L846.3482,323.3721 L848.3816,324.8521 L850.4868,326.4296 L852.2587,327.5544 L854.2749,329.0111 L856.5074,330.7617 L856.3358,330.5453 L858.5043,332.3379 L860.4794,333.8867 L862.7349,335.7892 L864.5116,337.0878 L866.5729,338.7454 L866.4735,338.6298 L868.5903,340.4991 L870.2823,341.8742 L872.2764,343.6007 L874.5661,345.6712 L876.3294,347.1292 L876.4618,347.2705 L878.4279,349.1246 L879.9823,350.5393 L882.0524,352.5044 L884.0102,354.3495 L885.7061,355.9152 L885.5555,355.769 L887.4608,357.7236 L889.3167,359.6304 L891.2696,361.6313 L892.8457,363.2662 L894.6323,365.1056 L894.7869,365.241 L896.1281,366.8627 L897.7678,368.7459 L899.8436,371.0111 L901.1165,372.573 L903.0372,374.7023 L903.2155,374.8415 L904.6721,376.7598 L906.0684,378.6311 L907.6009,380.6086 L909.4481,382.832 L910.85,384.7075 L910.7403,384.6322 L912.4969,386.9396 L913.5075,388.7348 L915.3662,391.1123 L916.7475,393.162 L918,395.1234 L918.0948,395.177 L919.0696,396.9919 L920.3838,398.9988 L921.3915,400.8322 L922.271,402.5932 L923.2569,404.4143 L923.3648,404.465 L923.6615,405.3622 L924.4592,406.4948 L924.6903,407.3612 L925.1545,408.3371 L925.5421,409.277 L925.2934,409.171 L925.0114,408.3503 L925.0291,407.6574 L924.6228,406.7837 L924.0646,405.8452 L923.7171,404.9966 " fill="none" style="stroke:#181818;stroke-width:4.0;"/><polygon fill="#181818" points="926.0793,410.512,926.1494,410.513,925.9679,408.5406,926.1972,406.5737,926.2927,404.6051,925.9485,402.6304,926.213,400.6641,926.1889,400.6545,925.6606,401.6616,925.2534,402.7173,924.9306,403.8067,924.3173,404.7798,924.1108,405.9158,924.1794,406.0872,922.9824,405.3003,921.9856,405.0138,921.0133,404.7882,919.8988,404.2075,918.8591,403.8137,918.8745,403.8303,920.2959,405.1455,921.7876,406.5366,923.2454,407.8911,924.768,409.3155,926.0793,410.512" style="stroke:#181818;stroke-width:4.0;"/><text fill="#000000" font-family="Chalkduster" font-size="24" lengthAdjust="spacing" textLength="382" x="911" y="348.9643">Introduction / background</text><text fill="#000000" font-family="Chalkduster" font-size="24" lengthAdjust="spacing" textLength="147" x="1028.5" y="379.5941">how to use</text></g><!--link guidesource to tdg--><g id="link_guidesource_tdg"><path d="M174.93,498.8034 L175.0049,498.8592 L177.1928,495.4576 L179.8199,492.3831 L182.304,489.2021 L184.3178,485.6708 L186.9826,482.6244 L186.955,482.6036 L189.7258,478.6912 L192.6354,474.8839 L195.6414,471.1498 L198.315,467.1637 L201.4542,463.5306 L201.6489,463.6811 L204.5355,459.0874 L207.9904,454.9331 L211.5146,450.8324 L214.6354,446.4198 L217.9685,442.1712 L217.9922,442.19 L221.5934,437.5673 L225.3028,433.0303 L228.96,428.452 L232.7168,423.9525 L236.1488,419.1959 L236.3801,419.384 L240.2769,414.598 L244.0245,409.6905 L247.9905,404.9607 L251.9668,400.2393 L255.6186,395.254 L255.3732,395.0478 L259.926,390.5961 L263.6708,385.4656 L268.0299,380.8512 L271.7564,375.7052 L276.0014,370.9949 L275.9784,370.975 L278.3339,368.8014 L280.1515,366.1626 L282.2865,363.7983 L284.4482,361.457 L286.4175,358.9495 L286.5561,359.072 L288.5169,356.5721 L290.7144,354.2815 L292.5288,351.6522 L294.9148,349.5282 L296.9207,347.0683 L297.1013,347.2319 L299.1758,344.8738 L301.3399,342.5969 L303.0875,339.9426 L305.1405,337.565 L307.4639,335.4325 L307.2618,335.2442 L309.552,333.1528 L311.6144,330.8493 L314.0071,328.8535 L315.836,326.3323 L318,324.1234 L317.8913,324.0165 L320.5681,321.6555 L322.7801,318.8376 L325.3227,316.3446 L328.1887,314.1695 L330.4787,311.4283 L330.6126,311.5682 L333.3182,309.1637 L335.6075,306.324 L338.4182,304.0294 L341.1154,301.616 L343.5478,298.9259 L343.4062,298.7709 L346.1206,296.5181 L348.7887,294.2145 L351.5478,292.0107 L353.9527,289.4191 L356.5555,287.0441 L356.6914,287.1983 L358.8517,284.6928 L361.2743,282.485 L364.0802,280.7121 L366.1804,278.1384 L368.85,276.2109 L368.9971,276.3827 L371.0956,274.4093 L373.1444,272.3778 L375.3054,270.4774 L377.7262,268.8804 L379.7795,266.8542 L379.6942,266.7522 L381.7308,265.5656 L383.187,263.6849 L385.3031,262.5935 L387.0477,261.0577 L388.6922,259.4021 L388.7615,259.4861 L388.8935,259.263 L389.2738,259.3406 L389.4297,259.1466 L389.4919,258.8391 L389.632,258.6258 L389.7078,258.7178 L388.715,259.3069 L388.0741,260.323 L387.0351,260.8561 L386.1599,261.5879 L385.2309,262.2544 " fill="none" style="stroke:#181818;stroke-width:4.0;"/><polygon fill="#181818" points="389.8603,258.4376,389.8791,258.5051,387.9256,258.8323,386.0821,259.5553,384.2028,260.1493,382.2056,260.3197,380.3716,261.0766,380.3691,261.0508,381.4842,261.0434,382.6117,261.166,383.7479,261.379,384.8542,261.2806,386.0025,261.6183,386.1862,261.636,385.685,262.7243,385.7202,263.8643,385.8208,265.0106,385.5407,266.1202,385.4608,267.2492,385.4811,267.2593,386.3312,265.4821,387.2738,263.7511,388.1718,261.9978,389.1551,260.2871,389.8603,258.4376" style="stroke:#181818;stroke-width:4.0;"/><text fill="#000000" font-family="Chalkduster" font-size="24" lengthAdjust="spacing" textLength="131" x="319" y="364.4643">Generate</text></g><!--link trove to GMN18--><g id="link_trove_GMN18"><path d="M922.6719,574.076 L922.7615,574.1026 L922.4753,574.0912 L922.7141,574.2356 L922.782,574.3293 L922.2877,574.2561 L922.5716,574.4139 L922.5385,574.404 L922.3498,574.4951 L922.328,574.6357 L922.4222,574.8107 L922.1165,574.867 L922.3709,575.0896 L922.6068,575.1597 L922.0221,575.2801 L922.1261,575.6051 L922.3141,575.9551 L922.0132,576.1598 L921.9695,576.441 L921.9985,576.4496 L921.7954,576.9767 L921.7245,577.5431 L921.5898,578.0906 L921.577,578.6743 L921.167,579.1399 L921.4527,579.2251 L920.8229,581.3489 L920.0086,583.4176 L919.4642,585.5669 L918.9325,587.7199 L918,589.7534 L917.0795,589.4754 L916.0183,599.4438 L911.926,608.4968 L910.138,618.2458 L905.977,627.2781 L903.6737,636.8714 L901.8599,646.6126 L898.0034,655.7368 L895.3522,665.2251 L892.37,674.6134 " fill="none" style="stroke:#181818;stroke-width:4.0;stroke-dasharray:7.0,7.0;"/></g><!--link compute to GMN21--><g id="link_compute_GMN21"><path d="M1190,1091.503 L1190.0934,1091.503 L1189.8159,1092.0223 L1190.0859,1092.5417 L1190.1776,1093.0611 L1189.6829,1093.5804 L1190,1094.0998 L1189.9655,1094.0998 L1189.8104,1096.1936 L1189.8296,1098.2875 L1189.9697,1100.3814 L1189.6927,1102.4753 L1190,1104.5692 L1190.2461,1104.5692 L1189.7199,1112.748 L1189.9121,1120.9268 L1190.192,1129.1057 L1189.9619,1137.2845 L1190,1145.4634 " fill="none" style="stroke:#181818;stroke-width:4.0;stroke-dasharray:7.0,7.0;"/></g><!--link GMN24 to compute--><g id="link_GMN24_compute"><path d="M1385.59,792.7234 L1385.801,792.9078 L1378.6516,799.8251 L1372.7393,807.8233 L1366.4242,815.4696 L1358.7842,821.9583 L1352.9001,829.9812 L1346.0276,837.1404 L1339.5484,844.6433 L1333.3426,852.3852 L1326.1945,859.3036 L1320.9222,867.861 L1313.2111,874.2876 L1307.123,882.1322 L1301.2329,890.1499 L1294.1907,897.1609 L1287.823,904.7612 L1281.2,912.1385 L1274.889,919.7883 L1268.4275,927.3067 L1261.665,934.5621 L1262.2531,935.0759 L1256.1127,942.277 L1249.8948,949.4103 L1243.2424,956.164 L1237.2261,963.4734 L1231.2396,970.8089 L1223.5843,976.6864 L1218.7636,985.0404 L1211.8562,991.5713 L1211.757,991.4846 L1210.304,993.7086 L1208.2287,995.3889 L1206.6405,997.4948 L1205.1807,999.7128 L1203.2015,1001.4771 L1203.1852,1001.4629 L1202.5173,1002.3313 L1201.876,1003.223 L1201.1826,1004.0691 L1200.3225,1004.7696 L1199.6044,1005.5942 L1199.7006,1005.6781 L1199.0922,1005.7938 L1199.0583,1006.4113 L1198.826,1006.8554 L1198.4706,1007.1921 L1198.0012,1007.4291 " fill="none" style="stroke:#181818;stroke-width:4.0;stroke-dasharray:7.0,7.0;"/></g><!--SRC=[RPHHQzj03CVV_IaqFumjuFGzX42NGbeORTaAU_7BsLPZaOlEtEcIXj7lFftjf4cwF0JZa_J_wQ-Jln3NDZO8q-bDOyGKrbH5a8F5gRn9bWc9nHdSqxe5YpkqO7pTac0jqIEurvAbHNZnReTmfmLW5KdBVVlpNBpShRvh1TU1EAYSYDj2GrvJoN6MfGV3QukGFyVAKWqh4lYDVaSrvZ2VxvtVXCxKk5Z0tom3_Ptbz6BhNYouw5CAc32y6LvSPpmwmSgvJSYFvTwpzmkEwpRoL56QjSAakeP7bgl2-6QsdSMGNnyeIUsfI_tcIUgJrY3Ggyxd7ZiNI9m__4_a4VTgHeV-iyoJZi3t0aSIA8h6xRae5b2xRHT5PsXDvBgzO5WEPpt56FV9zokj7yGDUhYFLJuUNWKidKxaQFLGcKUpq_ybPG-vE8M7xCmnIFI3DpDuO7rgOdzru0OgKs_MtaLkIcxTFbsm630x6pwaP9tS35R8w8rWbh7AmF4ckjUX-6oylBLZCSG19ikOmfi9f8KeUR9qrcf_wKrr0FMwv4UJG8o5drGPVqZ5RcCGRooPGUP3vJI0oQrc70A52OZPQFkTLPE1M4FKCpwQC2tvAOhc17ZrMaDQqbZlQWn1rm_XdEZh1s_9XXjeqYqImaOBgoqXafXA1zFlxKwHJzUC5C5vwDBoXHQR0Jpjwpdr0-j-RTKV4pG-MJ9GRQCLqYcEsnTALig9pWdNetqxCaDdUv8s-QRIGRD2ydHaFX7h9sKaDftssddIyv9lZzI_pgd_0G00]--></g></svg>