<?xml version="1.0" encoding="us-ascii" standalone="no"?><svg xmlns="http://www.w3.org/2000/svg" xmlns:xlink="http://www.w3.org/1999/xlink" contentStyleType="text/css" height="1076px" preserveAspectRatio="none" style="width:1576px;height:1076px;background:#FFFFFF;" version="1.1" viewBox="0 0 1576 1076" width="1576px" zoomAndPan="magnify"><defs/><g><text fill="#000000" font-family="Chalkduster" font-size="42" font-weight="bold" lengthAdjust="spacing" textLength="1012" x="275" y="51.7215">A Constellation of Annotation Workflows</text><!--cluster ann--><g id="cluster_ann"><polygon fill="#FFC7D8" points="9.5,156.2112,9.5,156.4213,19.5294,155.7968,29.5588,156.4044,39.5882,156.6108,49.6176,155.4978,59.6471,156.1334,69.6765,155.7847,79.7059,155.8277,89.7353,156.143,99.7647,155.5198,109.7941,156.7648,119.8235,155.5809,129.8529,156.0134,139.8824,156.6431,149.9118,156.1254,159.9412,156.2794,169.9706,156.1792,180,156.3897,190.0294,156.4503,200.0588,156.7969,210.0882,156.8822,220.1176,156.8904,230.1471,156.4658,240.1765,156.6747,250.2059,156.9134,260.2353,155.49,270.2647,156.8897,280.2941,155.9147,290.3235,156.745,300.3529,155.7161,310.3824,156.1427,320.4118,156.9528,330.4412,156.1624,340.4706,156.3165,350.5,156.5498,360.5294,156.6274,370.5588,156.2073,380.5882,156.4984,390.6176,155.6387,400.6471,156.4955,410.6765,156.7594,420.7059,156.6557,430.7353,156.8242,440.7647,155.7281,450.7941,155.559,460.8235,155.5898,470.8529,156.1523,480.8824,156.0146,490.9118,156.8926,500.9412,156.0365,510.9706,155.8681,521,156.4394,531.0294,155.5443,541.0588,155.692,551.0882,156.8601,561.1176,156.6468,571.1471,156.9457,581.1765,155.8894,591.2059,156.5304,601.2353,156.8016,611.2647,155.7388,621.2941,156.1153,631.3235,156.3371,641.3529,156.8629,651.3824,156.207,661.4118,156.6737,671.4412,155.6574,681.4706,155.5339,691.5,156.2112,691.5642,156.3663,691.7621,156.1368,692.272,156.6608,692.587,156.7141,692.88,156.7144,693.2678,156.9434,693.1588,156.8983,693.5555,157.3555,693.4685,157.6123,693.8894,158.0796,693.6833,158.2871,694,158.7112,694.6174,158.7112,694.4843,168.8276,694.245,178.944,694.0472,189.0604,694.7266,199.1769,694.6136,209.2933,694.1693,219.4097,694.2682,229.5262,693.8697,239.6426,694.7165,249.759,694.1549,259.8754,694.1726,269.9919,693.3916,280.1083,693.5948,290.2247,694,300.3412,694.1634,300.4089,693.9859,300.7495,693.6939,301.0428,693.4614,301.3607,693.3468,301.7274,693.2678,302.1089,693.1802,301.8976,692.9671,302.3831,692.655,302.6296,692.2743,302.7104,691.9422,302.9087,691.5,302.8412,691.5,302.7044,681.4706,302.9284,671.4412,302.4536,661.4118,303.1252,651.3824,303.0879,641.3529,303.3935,631.3235,302.6115,621.2941,302.7068,611.2647,303.2846,601.2353,303.4085,591.2059,302.3286,581.1765,302.6473,571.1471,302.9904,561.1176,302.2303,551.0882,303.1946,541.0588,303.0992,531.0294,302.7404,521,302.9834,510.9706,303.5698,500.9412,302.5283,490.9118,303.1561,480.8824,303.1268,470.8529,302.9569,460.8235,302.9821,450.7941,302.9546,440.7647,302.217,430.7353,302.4403,420.7059,302.3796,410.6765,302.905,400.6471,302.9293,390.6176,303.0029,380.5882,302.5502,370.5588,302.7736,360.5294,302.7209,350.5,303.418,340.4706,303.2677,330.4412,302.3556,320.4118,302.7682,310.3824,302.2639,300.3529,303.1295,290.3235,303.4496,280.2941,303.3857,270.2647,302.4056,260.2353,303.3051,250.2059,302.0984,240.1765,303.0413,230.1471,302.5418,220.1176,302.9379,210.0882,303.0815,200.0588,303.3133,190.0294,302.1212,180,303.3166,169.9706,303.0193,159.9412,303.1965,149.9118,303.589,139.8824,302.8466,129.8529,303.0164,119.8235,303.0546,109.7941,303.0384,99.7647,302.8403,89.7353,303.5519,79.7059,302.2314,69.6765,303.4064,59.6471,302.2172,49.6176,302.3008,39.5882,302.8812,29.5588,302.8694,19.5294,302.3483,9.5,302.8412,9.5528,302.9686,9.1603,302.7282,8.8856,302.7721,8.5244,302.6073,8.0286,302.1173,7.7322,302.1089,7.6097,302.0582,7.546,301.7389,7.5488,301.4472,7.417,301.0997,7.2392,300.7331,7,300.3412,6.658,300.3412,7.6364,290.2247,7.6338,280.1083,6.9527,269.9919,6.7609,259.8754,6.5986,249.759,6.7854,239.6426,7.1374,229.5262,6.9316,219.4097,6.5822,209.2933,7.4874,199.1769,6.5411,189.0604,7.5024,178.944,7.4272,168.8276,7,158.7112,7.1145,158.7586,7.3597,158.4459,7.2172,157.9727,7.3468,157.6122,7.7456,157.3631,7.7322,156.9434,7.6561,156.7596,8.0559,156.7249,8.4541,156.6861,8.8017,156.5252,9.1007,156.2472,9.5,156.2112" style="stroke:#181818;stroke-width:4.0;"/><text fill="#000000" font-family="Chalkduster" font-size="24" font-style="italic" lengthAdjust="spacing" textLength="175" x="263" y="182.052">&#171;workspace&#187;</text><text fill="#000000" font-family="Chalkduster" font-size="24" font-weight="bold" lengthAdjust="spacing" textLength="550" x="75.5" y="212.6819">Annotation / CMS / Website workspaces</text></g><!--cluster tdg--><g id="cluster_tdg"><polygon fill="#FFFF00" points="749.5,83.8912,749.5,84.1013,759.4643,83.4768,769.4286,84.0844,779.3929,84.2908,789.3571,83.1778,799.3214,83.8134,809.2857,83.4647,819.25,83.5077,829.2143,83.823,839.1786,83.1998,849.1429,84.4448,859.1071,83.2609,869.0714,83.6934,879.0357,84.3231,889,83.8054,898.9643,83.9594,908.9286,83.8592,918.8929,84.0697,928.8571,84.1303,938.8214,84.4769,948.7857,84.5622,958.75,84.5704,968.7143,84.1458,978.6786,84.3547,988.6429,84.5934,998.6071,83.17,1008.5714,84.5697,1018.5357,83.5947,1028.5,84.425,1038.4643,83.3961,1048.4286,83.8227,1058.3929,84.6328,1068.3571,83.8424,1078.3214,83.9965,1088.2857,84.2298,1098.25,84.3074,1108.2143,83.8873,1118.1786,84.1784,1128.1429,83.3187,1138.1071,84.1755,1148.0714,84.4394,1158.0357,84.3357,1168,84.5042,1177.9643,83.4081,1187.9286,83.239,1197.8929,83.2698,1207.8571,83.8323,1217.8214,83.6946,1227.7857,84.5726,1237.75,83.7165,1247.7143,83.5481,1257.6786,84.1194,1267.6429,83.2243,1277.6071,83.372,1287.5714,84.5401,1297.5357,84.3268,1307.5,83.8912,1307.5937,84.1174,1307.8125,83.9385,1308.2478,84.2824,1308.636,84.5123,1308.854,84.3315,1309.2678,84.6234,1309.2382,84.6112,1309.453,84.993,1309.7614,85.4136,1309.7058,85.6835,1309.996,86.0966,1310,86.3912,1309.4462,86.3912,1309.3227,96.5216,1310.5036,106.652,1309.2831,116.7824,1310.509,126.9128,1310.2066,137.0432,1309.7321,147.1736,1309.6462,157.304,1310.4588,167.4344,1309.7007,177.5648,1310.5919,187.6952,1309.4473,197.8256,1310.6174,207.956,1310.4843,218.0864,1310.245,228.2168,1310.0472,238.3472,1310.7266,248.4776,1310.6136,258.608,1310.1693,268.7384,1310.2682,278.8688,1309.8697,288.9992,1310.7165,299.1296,1310.1549,309.26,1310.1726,319.3904,1309.3916,329.5208,1310,339.6512,1309.8752,339.5995,1310.017,340.0724,1309.8395,340.4131,1309.5474,340.7063,1309.315,341.0243,1309.2678,341.4189,1309.2398,341.3515,1308.8267,341.3541,1308.6136,341.8395,1308.3014,342.086,1307.9207,342.1668,1307.5,342.1512,1307.5,342.8461,1297.5357,342.0144,1287.5714,342.2384,1277.6071,341.7636,1267.6429,342.4352,1257.6786,342.3979,1247.7143,342.7035,1237.75,341.9215,1227.7857,342.0168,1217.8214,342.5946,1207.8571,342.7185,1197.8929,341.6386,1187.9286,341.9573,1177.9643,342.3004,1168,341.5403,1158.0357,342.5046,1148.0714,342.4092,1138.1071,342.0504,1128.1429,342.2934,1118.1786,342.8798,1108.2143,341.8383,1098.25,342.4661,1088.2857,342.4368,1078.3214,342.2669,1068.3571,342.2921,1058.3929,342.2646,1048.4286,341.527,1038.4643,341.7503,1028.5,341.6896,1018.5357,342.215,1008.5714,342.2393,998.6071,342.3129,988.6429,341.8602,978.6786,342.0836,968.7143,342.0309,958.75,342.728,948.7857,342.5777,938.8214,341.6656,928.8571,342.0782,918.8929,341.5739,908.9286,342.4395,898.9643,342.7596,889,342.6957,879.0357,341.7156,869.0714,342.6151,859.1071,341.4084,849.1429,342.3513,839.1786,341.8518,829.2143,342.2479,819.25,342.3915,809.2857,342.6233,799.3214,341.4312,789.3571,342.6266,779.3929,342.3293,769.4286,342.5065,759.4643,342.899,749.5,342.1512,749.5007,342.1528,749.1688,342.0587,748.8201,341.924,748.4645,341.7726,748.0857,341.5651,747.7322,341.4189,747.9511,341.5096,747.398,340.9876,747.6134,340.7839,747.1007,340.2787,746.9801,339.9358,747,339.6512,747.04,339.6512,747.0283,329.5208,746.5072,319.3904,747.4137,309.26,747.1089,299.1296,747.7267,288.9992,747.6671,278.8688,746.5517,268.7384,746.6021,258.608,746.8708,248.4776,747.3555,238.3472,747.403,228.2168,747.3012,218.0864,746.658,207.956,747.6364,197.8256,747.6338,187.6952,746.9527,177.5648,746.7609,167.4344,746.5986,157.304,746.7854,147.1736,747.1374,137.0432,746.9316,126.9128,746.5822,116.7824,747.4874,106.652,746.5411,96.5216,747,86.3912,747.1547,86.4552,747.278,86.0921,747.4074,85.7315,747.6526,85.4188,747.5101,84.9456,747.7322,84.6234,747.6939,84.5308,748.152,84.6367,748.3632,84.1467,748.763,84.112,749.1612,84.0732,749.5,83.8912" style="stroke:#181818;stroke-width:4.0;"/><text fill="#000000" font-family="Chalkduster" font-size="24" font-style="italic" lengthAdjust="spacing" textLength="157" x="950" y="109.732">&#171;guidance&#187;</text><text fill="#000000" font-family="Chalkduster" font-size="24" font-weight="bold" lengthAdjust="spacing" textLength="250" x="903.5" y="140.3619">Trove Data Guide</text></g><!--cluster Export Newspaper Article Collection--><g id="cluster_Export Newspaper Article Collection"><polygon fill="none" points="773.5,171.8912,773.5,172.1013,783.5,171.4768,793.5,172.0844,803.5,172.2908,813.5,171.1778,823.5,171.8134,833.5,171.4647,843.5,171.5077,853.5,171.823,863.5,171.1998,873.5,172.4448,883.5,171.2609,893.5,171.6934,903.5,172.3231,913.5,171.8054,923.5,171.9594,933.5,171.8592,943.5,172.0697,953.5,172.1303,963.5,172.4769,973.5,172.5622,983.5,172.5704,993.5,172.1458,1003.5,172.3547,1013.5,172.5934,1023.5,171.17,1033.5,172.5697,1043.5,171.5947,1053.5,172.425,1063.5,171.3961,1073.5,171.8227,1083.5,172.6328,1093.5,171.8424,1103.5,171.9965,1113.5,172.2298,1123.5,172.3074,1133.5,171.8873,1143.5,172.1784,1153.5,171.3187,1163.5,172.1755,1173.5,172.4394,1183.5,172.3357,1193.5,172.5042,1203.5,171.4081,1213.5,171.239,1223.5,171.2698,1233.5,171.8323,1243.5,171.6946,1253.5,172.5726,1263.5,171.7165,1273.5,171.5481,1283.5,171.8912,1283.5291,171.9615,1283.7685,171.8322,1284.1409,172.0242,1284.6434,172.5304,1284.9698,172.6111,1285.2678,172.6234,1285.494,172.7171,1285.3151,172.9359,1285.659,173.3712,1285.8889,173.7594,1285.7081,173.9773,1286,174.3912,1285.9041,174.3912,1286.126,184.4812,1286.6518,194.5712,1285.9958,204.6612,1286.4626,214.7512,1285.4462,224.8412,1285.3227,234.9312,1286.5036,245.0212,1285.2831,255.1112,1286.509,265.2012,1286.2066,275.2912,1285.7321,285.3812,1285.6462,295.4712,1286.4588,305.5612,1286,315.6512,1285.9078,315.613,1286.0358,316.0802,1285.5369,316.2878,1285.7508,316.7906,1285.5634,317.1272,1285.2678,317.4189,1285.299,317.4944,1284.9202,317.5799,1284.6533,317.9356,1284.2854,318.0472,1283.8751,318.0568,1283.5,318.1512,1283.5,318.4193,1273.5,318.0209,1263.5,318.8676,1253.5,318.306,1243.5,318.3237,1233.5,317.5428,1223.5,317.7459,1213.5,318.6819,1203.5,318.5809,1193.5,318.1082,1183.5,317.829,1173.5,317.9322,1163.5,317.465,1153.5,318.5659,1143.5,318.8907,1133.5,318.6776,1123.5,318.8461,1113.5,318.0144,1103.5,318.2384,1093.5,317.7636,1083.5,318.4352,1073.5,318.3979,1063.5,318.7035,1053.5,317.9215,1043.5,318.0168,1033.5,318.5946,1023.5,318.7185,1013.5,317.6386,1003.5,317.9573,993.5,318.3004,983.5,317.5403,973.5,318.5046,963.5,318.4092,953.5,318.0504,943.5,318.2934,933.5,318.8798,923.5,317.8383,913.5,318.4661,903.5,318.4368,893.5,318.2669,883.5,318.2921,873.5,318.2646,863.5,317.527,853.5,317.7503,843.5,317.6896,833.5,318.215,823.5,318.2393,813.5,318.3129,803.5,317.8602,793.5,318.0836,783.5,318.0309,773.5,318.1512,773.5736,318.3288,773.2009,318.1361,772.731,317.7087,772.43,317.6894,772.0122,317.3876,771.7322,317.4189,771.821,317.4557,771.7732,317.143,771.607,316.7813,771.1588,316.3027,771.2893,316.0639,771,315.6512,770.2572,315.6512,771.2002,305.5612,770.7007,295.4712,771.0967,285.3812,771.2403,275.2912,771.4721,265.2012,770.2801,255.1112,771.4755,245.0212,771.1782,234.9312,771.3553,224.8412,771.7478,214.7512,771.0055,204.6612,771.1753,194.5712,771.2134,184.4812,771,174.3912,771.0607,174.4163,771.1462,174.0375,771.5118,173.7747,771.2516,173.2527,771.7599,173.0491,771.7322,172.6234,771.6526,172.4312,772.0169,172.3106,772.4444,172.3428,772.7965,172.1928,773.0836,171.8858,773.5,171.8912" style="stroke:#181818;stroke-width:4.0;"/><text fill="#000000" font-family="Chalkduster" font-size="24" font-weight="bold" lengthAdjust="spacing" textLength="499" x="779" y="197.732">Export Newspaper Article Collection</text></g><!--cluster Trove--><g id="cluster_Trove"><path d="M1011,424.1512 L1011,424.1512 L1011.0252,424.2411 L1013.305,423.3137 L1015.7326,422.9136 L1018.112,422.3417 L1020.3332,421.2052 L1022.7734,420.8504 L1022.77,420.816 L1025.4573,420.3947 L1028.1618,420.1466 L1030.8781,420.019 L1033.5534,419.4762 L1036.2861,419.5149 L1036.3022,419.7605 L1039.7731,419.0064 L1043.2909,418.9692 L1046.8145,419.0195 L1050.3047,418.5609 L1053.8125,418.3699 L1053.8139,418.4002 L1057.9593,418.1619 L1062.1111,418.0615 L1066.2598,417.8945 L1070.4145,417.8545 L1074.5498,417.4007 L1074.5602,417.6987 L1079.1894,417.5408 L1083.812,417.1905 L1088.4443,417.1217 L1093.0771,417.0661 L1097.6953,416.5926 L1097.6867,416.2722 L1102.6536,416.7617 L1107.5922,416.1962 L1112.5522,416.4328 L1117.4902,415.8433 L1122.4463,415.9309 L1122.4457,415.9005 L1127.5639,416.1545 L1132.6673,415.6974 L1137.7795,415.6599 L1142.8924,415.6576 L1148,415.4012 L1148.008,415.9561 L1158.0609,415.2514 L1168.1274,415.495 L1178.1718,414.2044 L1188.2492,415.2022 L1198.3047,414.6785 L1198.3067,414.9221 L1207.0829,414.8018 L1215.8601,414.8025 L1224.6326,414.2412 L1233.4085,414.0918 L1242.1875,414.3074 L1242.1865,414.0312 L1250.7499,414.25 L1259.3122,414.1576 L1267.8761,414.5165 L1276.4372,414.1048 L1285,414.1512 L1285,414.1512 L1284.9994,413.9987 L1293.5629,414.2839 L1302.1239,413.9173 L1310.6867,414.0142 L1319.2511,414.5646 L1327.8125,414.3074 L1327.8141,414.501 L1336.5918,414.7081 L1345.3644,414.3128 L1354.1434,414.6719 L1362.921,414.8667 L1371.6953,414.6785 L1371.6863,414.0487 L1381.7544,414.6952 L1391.8196,415.1355 L1401.8906,415.981 L1411.939,415.251 L1422,415.4012 L1422.0043,415.6067 L1427.1056,415.261 L1432.2152,415.3121 L1437.3369,415.9428 L1442.4364,415.5064 L1447.5537,415.9309 L1447.5598,416.1571 L1452.5064,416.1551 L1457.4509,416.0766 L1462.4001,416.1707 L1467.3599,416.6641 L1472.3047,416.5926 L1472.3,416.4596 L1476.943,417.0171 L1481.5543,416.6703 L1486.2016,417.3517 L1490.8286,417.4542 L1495.4502,417.4007 L1495.4553,417.5094 L1499.5986,417.6155 L1503.7602,418.111 L1507.9053,418.2546 L1512.0436,418.2512 L1516.1875,418.3699 L1516.1953,418.4889 L1519.689,418.5411 L1523.2188,419.1457 L1526.7078,419.1256 L1530.2136,419.3625 L1533.7139,419.5149 L1533.6873,419.2459 L1536.3987,419.6028 L1539.1421,420.2839 L1541.8403,420.5063 L1544.5221,420.5643 L1547.2266,420.8504 L1547.1879,420.7125 L1549.555,421.4168 L1551.8536,421.877 L1554.3404,423.0083 L1556.734,423.8075 L1559,424.1512 L1560.4037,424.1512 L1560.8532,433.839 L1558.6354,443.5269 L1559.2326,453.2147 L1557.9664,462.9026 L1559.7574,472.5904 L1559.658,482.2783 L1560.473,491.9662 L1558.3876,501.654 L1558.6416,511.3419 L1560.1826,521.0297 L1560.5129,530.7176 L1557.6332,540.4054 L1558.483,550.0933 L1559,559.7812 L1559,559.7812 L1559.0179,559.845 L1556.572,560.1799 L1554.333,561.2527 L1551.9669,561.872 L1549.5692,562.3787 L1547.2266,563.0819 L1547.2328,563.1449 L1544.5559,563.6713 L1541.8078,563.4777 L1539.1327,564.0225 L1536.4289,564.2766 L1533.7139,564.4174 L1533.7172,564.4687 L1530.2127,564.7089 L1526.7066,564.9257 L1523.18,564.8276 L1519.6812,565.1556 L1516.1875,565.5624 L1516.1779,565.3575 L1512.0414,565.7846 L1507.8944,565.9892 L1503.7485,566.2158 L1499.5916,566.2086 L1495.4502,566.5316 L1495.4491,566.5017 L1490.8192,566.6399 L1486.2009,567.1111 L1481.5695,567.206 L1476.9263,566.9625 L1472.3047,567.3398 L1472.3038,567.3074 L1467.3476,567.2156 L1462.4077,567.7325 L1457.4613,568.0071 L1452.5104,568.111 L1447.5537,568.0014 L1447.5497,567.8078 L1442.4472,568.3135 L1437.3254,567.8832 L1432.2233,568.4082 L1427.108,568.2922 L1422,568.5312 L1422.0019,568.6601 L1411.9437,568.9961 L1401.8872,569.4496 L1391.8034,568.005 L1381.7654,569.7432 L1371.6953,569.2538 L1371.696,569.333 L1362.9201,569.486 L1354.145,569.7346 L1345.3656,569.4789 L1336.5897,569.6286 L1327.8125,569.6249 L1327.8128,569.7198 L1319.2503,569.7438 L1310.6875,569.687 L1302.1262,570.0345 L1293.5615,569.4789 L1285,569.7812 L1285,569.7812 L1285.0009,570.0324 L1276.4365,569.4726 L1267.8741,569.4785 L1259.3126,569.7052 L1250.75,569.6687 L1242.1875,569.6249 L1242.1856,569.4059 L1233.4125,569.7346 L1224.6348,569.5249 L1215.8605,569.7252 L1207.0838,569.6245 L1198.3047,569.2538 L1198.2961,568.6562 L1188.2361,568.5788 L1178.1803,568.7925 L1168.1287,569.2942 L1158.0687,569.2129 L1148,568.5312 L1148.0028,568.665 L1142.8861,568.2733 L1137.7844,568.602 L1132.6736,568.4949 L1127.5566,568.0863 L1122.4463,568.0014 L1122.4434,567.8952 L1117.4913,567.6907 L1112.5434,567.6414 L1107.5973,567.6655 L1102.6447,567.4417 L1097.6953,567.3398 L1097.6888,567.1542 L1093.0738,567.3946 L1088.43,566.8127 L1083.8158,567.078 L1079.1855,566.883 L1074.5498,566.5316 L1074.5575,566.6967 L1070.4167,566.6452 L1066.2498,566.0348 L1062.1012,565.8166 L1057.9707,565.9866 L1053.8125,565.5624 L1053.7952,565.2977 L1050.3004,565.2296 L1046.8053,565.1556 L1043.2987,564.9059 L1039.781,564.4874 L1036.2861,564.4174 L1036.2843,564.3984 L1033.6161,564.4796 L1030.9094,564.17 L1028.1525,563.3524 L1025.4794,563.3838 L1022.7734,563.0819 L1022.7118,562.862 L1020.4156,562.4105 L1018.0992,561.887 L1015.7598,561.2812 L1013.2749,560.1569 L1011,559.7812 L1012.0681,559.7812 L1011.0224,550.0933 L1009.5191,540.4054 L1009.7439,530.7176 L1011.8709,521.0297 L1011.6663,511.3419 L1010.9561,501.654 L1009.2077,491.9662 L1012.755,482.2783 L1010.1684,472.5904 L1009.5918,462.9026 L1010.8205,453.2147 L1012.5726,443.5269 L1012.6411,433.839 L1011,424.1512 " fill="none" style="stroke:#181818;stroke-width:4.0;"/><path d="M1011,424.1512 L1011,424.1512 L1011.0252,424.2411 L1013.305,424.634 L1015.7326,425.5542 L1018.112,426.3027 L1020.3332,426.4865 L1022.7734,427.4519 L1022.77,427.4176 L1025.4573,427.5304 L1028.1618,427.8165 L1030.8781,428.2231 L1033.5534,428.2145 L1036.2861,428.7874 L1036.3022,429.0329 L1039.7731,428.7369 L1043.2909,429.1577 L1046.8145,429.666 L1050.3047,429.6654 L1053.8125,429.9324 L1053.8139,429.9627 L1057.9593,430.1121 L1062.1111,430.3994 L1066.2598,430.6201 L1070.4145,430.9678 L1074.5498,430.9016 L1074.5602,431.1997 L1079.1894,431.365 L1083.812,431.338 L1088.4443,431.5924 L1093.0771,431.86 L1097.6953,431.7098 L1097.6867,431.3893 L1102.6536,432.1435 L1107.5922,431.8427 L1112.5522,432.3439 L1117.4902,432.0191 L1122.4463,432.3714 L1122.4457,432.3409 L1127.5639,432.8069 L1132.6673,432.5616 L1137.7795,432.736 L1142.8924,432.9457 L1148,432.9012 L1148.008,433.4561 L1158.0609,433.0405 L1168.1274,433.5731 L1178.1718,432.5716 L1188.2492,433.8584 L1198.3047,433.6238 L1198.3067,433.8675 L1207.0829,433.8956 L1215.8601,434.0447 L1224.6326,433.6318 L1233.4085,433.6308 L1242.1875,433.9949 L1242.1865,433.7187 L1250.7499,434 L1259.3122,433.9701 L1267.8761,434.3915 L1276.4372,434.0423 L1285,434.1512 L1285,434.1512 L1284.9994,433.9987 L1293.5629,434.2214 L1302.1239,433.7923 L1310.6867,433.8267 L1319.2511,434.3146 L1327.8125,433.9949 L1327.8141,434.1885 L1336.5918,434.2471 L1345.3644,433.7035 L1354.1434,433.9141 L1362.921,433.9604 L1371.6953,433.6238 L1371.6863,432.994 L1381.7544,433.3515 L1391.8196,433.5027 L1401.8906,434.0591 L1411.939,433.0401 L1422,432.9012 L1422.0043,433.1067 L1427.1056,432.5491 L1432.2152,432.3883 L1437.3369,432.8071 L1442.4364,432.1588 L1447.5537,432.3714 L1447.5598,432.5975 L1452.5064,432.3309 L1457.4509,431.9877 L1462.4001,431.8172 L1467.3599,432.0459 L1472.3047,431.7098 L1472.3,431.5768 L1476.943,431.811 L1481.5543,431.141 L1486.2016,431.4991 L1490.8286,431.2784 L1495.4502,430.9016 L1495.4553,431.0104 L1499.5986,430.7288 L1503.7602,430.8365 L1507.9053,430.5925 L1512.0436,430.2014 L1516.1875,429.9324 L1516.1953,430.0514 L1519.689,429.6456 L1523.2188,429.7921 L1526.7078,429.3141 L1530.2136,429.0929 L1533.7139,428.7874 L1533.6873,428.5183 L1536.3987,428.3411 L1539.1421,428.488 L1541.8403,428.1762 L1544.5221,427.7 L1547.2266,427.4519 L1547.1879,427.3141 L1549.555,426.6981 L1551.8536,425.838 L1554.3404,425.649 L1556.734,425.1278 L1559,424.1512 " fill="none" style="stroke:#181818;stroke-width:4.0;"/><text fill="#000000" font-family="Chalkduster" font-size="24" font-weight="bold" lengthAdjust="spacing" textLength="78" x="1246" y="459.992">Trove</text></g><!--cluster ar--><g id="cluster_ar"><polygon fill="#00FF7F" points="204.5,765.7812,204.5,765.9913,214.5375,765.3668,224.575,765.9744,234.6125,766.1808,244.65,765.0678,254.6875,765.7034,264.725,765.3547,274.7625,765.3977,284.8,765.713,294.8375,765.0898,304.875,766.3348,314.9125,765.1509,324.95,765.5834,334.9875,766.2131,345.025,765.6954,355.0625,765.8494,365.1,765.7492,375.1375,765.9597,385.175,766.0203,395.2125,766.3669,405.25,766.4522,415.2875,766.4604,425.325,766.0358,435.3625,766.2447,445.4,766.4834,455.4375,765.06,465.475,766.4597,475.5125,765.4847,485.55,766.315,495.5875,765.2861,505.625,765.7127,515.6625,766.5228,525.7,765.7324,535.7375,765.8865,545.775,766.1198,555.8125,766.1974,565.85,765.7773,575.8875,766.0684,585.925,765.2087,595.9625,766.0655,606,766.3294,616.0375,766.2257,626.075,766.3942,636.1125,765.2981,646.15,765.129,656.1875,765.1598,666.225,765.7223,676.2625,765.5846,686.3,766.4626,696.3375,765.6065,706.375,765.4381,716.4125,766.0094,726.45,765.1143,736.4875,765.262,746.525,766.4301,756.5625,766.2168,766.6,766.5157,776.6375,765.4594,786.675,766.1004,796.7125,766.3716,806.75,765.3088,816.7875,765.6853,826.825,765.9071,836.8625,766.4329,846.9,765.777,856.9375,766.2437,866.975,765.2274,877.0125,765.1039,887.05,766.2848,897.0875,765.0642,907.125,766.2901,917.1625,765.9878,927.2,765.5132,937.2375,765.4274,947.275,766.2399,957.3125,765.4818,967.35,766.373,977.3875,765.2284,987.425,766.3986,997.4625,766.2655,1007.5,765.7812,1007.5312,765.8566,1007.8596,765.9421,1008.2998,766.2978,1008.6389,766.4095,1008.9358,766.4191,1009.2678,766.5134,1009.3504,766.5476,1009.3741,766.8503,1009.7813,767.3119,1009.7548,767.5938,1009.9067,767.9496,1010,768.2812,1009.3916,768.2812,1009.5948,778.2565,1010.5307,788.2318,1010.4298,798.2072,1009.9571,808.1825,1009.6778,818.1578,1009.7811,828.1332,1009.3138,838.1085,1010.4147,848.0838,1010.7396,858.0592,1010.5264,868.0345,1010.6949,878.0098,1009.8633,887.9852,1010.0872,897.9605,1009.6124,907.9358,1010.284,917.9112,1010.2468,927.8865,1010.5524,937.8618,1009.7703,947.8372,1009.8656,957.8125,1010.4435,967.7878,1010.5673,977.7632,1009.4875,987.7385,1009.8061,997.7138,1010.1493,1007.6892,1009.3892,1017.6645,1010.3534,1027.6398,1010.258,1037.6152,1009.8992,1047.5905,1010.1422,1057.5658,1010,1067.5412,1010.2244,1067.6341,1009.7572,1067.8548,1009.8041,1068.2884,1009.6486,1068.6383,1009.4499,1068.9701,1009.2678,1069.3089,1009.2857,1069.3523,1008.9287,1069.4903,1008.481,1069.4096,1008.156,1069.6248,1007.7947,1069.7526,1007.5,1070.0412,1007.5,1070.105,997.4625,1070.1293,987.425,1070.2029,977.3875,1069.7502,967.35,1069.9736,957.3125,1069.9209,947.275,1070.618,937.2375,1070.4677,927.2,1069.5556,917.1625,1069.9682,907.125,1069.4639,897.0875,1070.3295,887.05,1070.6496,877.0125,1070.5857,866.975,1069.6056,856.9375,1070.5051,846.9,1069.2984,836.8625,1070.2413,826.825,1069.7418,816.7875,1070.1379,806.75,1070.2815,796.7125,1070.5133,786.675,1069.3212,776.6375,1070.5166,766.6,1070.2193,756.5625,1070.3965,746.525,1070.789,736.4875,1070.0466,726.45,1070.2164,716.4125,1070.2546,706.375,1070.2384,696.3375,1070.0403,686.3,1070.7519,676.2625,1069.4314,666.225,1070.6064,656.1875,1069.4172,646.15,1069.5008,636.1125,1070.0812,626.075,1070.0694,616.0375,1069.5483,606,1070.4549,595.9625,1070.15,585.925,1070.7678,575.8875,1070.7083,565.85,1069.5929,555.8125,1069.6432,545.775,1069.912,535.7375,1070.3967,525.7,1070.4441,515.6625,1070.3423,505.625,1069.6992,495.5875,1070.6775,485.55,1070.6749,475.5125,1069.9939,465.475,1069.8021,455.4375,1069.6398,445.4,1069.8266,435.3625,1070.1786,425.325,1069.9728,415.2875,1069.6234,405.25,1070.5285,395.2125,1069.5822,385.175,1070.5435,375.1375,1070.4684,365.1,1070.413,355.0625,1070.7337,345.025,1069.7953,334.9875,1069.7405,324.95,1070.56,314.9125,1069.4443,304.875,1069.8072,294.8375,1070.1567,284.8,1070.1098,274.7625,1069.6827,264.725,1069.9982,254.6875,1070.7858,244.65,1070.6896,234.6125,1069.4449,224.575,1070.1197,214.5375,1069.5273,204.5,1070.0412,204.4966,1070.0331,204.1838,1069.9849,203.8465,1069.8776,203.3545,1069.3971,203.1369,1069.5787,202.7322,1069.3089,202.7348,1069.31,202.4148,1068.8845,202.2943,1068.5417,202.3935,1068.2899,202.2234,1067.9266,202,1067.5412,201.9836,1067.5412,201.3279,1057.5658,202.6581,1047.5905,201.6882,1037.6152,201.4719,1027.6398,201.9327,1017.6645,202.5897,1007.6892,202.6154,997.7138,202.0351,987.7385,201.8488,977.7632,202.1698,967.7878,202.1862,957.8125,201.4922,947.8372,202.414,937.8618,202.5588,927.8865,201.7842,917.9112,201.5708,907.9358,202.6746,897.9605,202.021,887.9852,201.9998,878.0098,202.299,868.0345,201.3543,858.0592,202.53,848.0838,201.9846,838.1085,202.6688,828.1332,201.7841,818.1578,202.409,808.1825,201.556,798.2072,202.245,788.2318,202.3793,778.2565,202,768.2812,201.8992,768.2394,202.2582,767.9739,202.1169,767.5012,202.2944,767.1605,202.7961,766.9541,202.7322,766.5134,202.8195,766.7242,203.1583,766.542,203.3934,766.1095,203.8419,766.1924,204.0862,765.7822,204.5,765.7812" style="stroke:#181818;stroke-width:4.0;"/><text fill="#000000" font-family="Chalkduster" font-size="24" font-style="italic" lengthAdjust="spacing" textLength="169" x="521.5" y="791.622">&#171;repository&#187;</text><text fill="#000000" font-family="Chalkduster" font-size="24" font-weight="bold" lengthAdjust="spacing" textLength="289" x="461.5" y="822.2519">Archival Repositories</text></g><!--cluster z--><g id="cluster_z"><path d="M226,863.7812 L226,863.7812 L226.0185,863.8727 L229.2291,862.9405 L232.5483,862.5451 L235.8321,861.9748 L238.9997,860.8298 L242.3281,860.4804 L242.3257,860.4459 L246.0627,860.0242 L249.8121,859.7762 L253.5701,859.6489 L257.2985,859.1055 L261.0684,859.1449 L261.0799,859.3907 L265.9165,858.6361 L270.7869,858.5991 L275.6614,858.6497 L280.5119,858.1908 L285.375,857.9999 L285.376,858.0302 L291.1265,857.7919 L296.8816,857.6915 L302.6344,857.5246 L308.3916,857.4847 L314.1348,857.0307 L314.1423,857.3288 L320.5623,857.1708 L326.9775,856.8206 L333.3997,856.7518 L339.8223,856.6962 L346.2344,856.2226 L346.2282,855.9021 L353.1054,856.3917 L359.9623,855.8262 L366.8347,856.0628 L373.6911,855.4733 L380.5605,855.5609 L380.5601,855.5305 L387.6534,855.7846 L394.736,855.3274 L401.8249,855.2899 L408.9144,855.2876 L416,855.0312 L416.0057,855.5861 L425.9665,854.9227 L435.937,855.2076 L445.8916,853.9583 L455.87,854.9974 L465.8402,855.2459 L475.8052,855.0044 L485.7656,854.3085 L485.7706,855.1259 L495.9049,853.6026 L506.0468,853.3152 L516.1903,853.2944 L526.3381,853.9826 L536.4802,853.7372 L546.625,853.9374 L546.6274,854.846 L556.5202,853.6785 L566.4155,853.4279 L576.3133,854.1636 L586.206,852.9441 L596.1023,853.115 L606,853.7812 L606,853.7812 L606.0023,854.6464 L615.8974,854.3881 L625.7942,854.8126 L635.6864,853.4302 L645.5845,854.3109 L655.4812,854.6986 L665.375,853.9374 L665.3712,853.3075 L675.5174,853.8714 L685.6625,854.2291 L695.81,854.992 L705.9479,854.1792 L716.0949,854.8634 L726.2344,854.3085 L726.2267,853.5702 L736.1915,853.5088 L746.1744,855.1864 L756.124,853.6623 L766.1075,855.4 L776.0698,855.1002 L786.0298,854.5707 L796,855.0312 L795.9976,854.8739 L803.0909,855.341 L810.1738,855.1101 L817.2676,855.6121 L824.3479,855.2094 L831.4395,855.5609 L831.4447,855.8353 L838.3088,855.9085 L845.172,855.9344 L852.0356,855.9789 L858.9066,856.4131 L865.7656,856.2226 L865.7725,856.4952 L872.1874,856.4594 L878.6085,856.665 L885.0239,856.6496 L891.4533,857.1874 L897.8652,857.0307 L897.8676,857.0995 L903.6198,857.3012 L909.36,857.1481 L915.115,857.4322 L920.881,858.0418 L926.625,857.9999 L926.634,858.1907 L931.4854,858.2099 L936.3409,858.3149 L941.2044,858.5897 L946.056,858.6113 L950.9316,859.1449 L950.9447,859.3288 L954.7031,859.7399 L958.4444,859.9125 L962.1977,860.2543 L965.9195,860.1527 L969.6719,860.4804 L969.6796,860.5184 L972.9034,860.9717 L976.2281,861.9244 L979.4905,862.5683 L982.783,863.3616 L986,863.7812 L985.3876,863.7812 L985.6416,873.9141 L987.1826,884.047 L987.5129,894.18 L984.6332,904.3129 L985.483,914.4459 L986.398,924.5788 L984.3711,934.7117 L986.9424,944.8447 L986.688,954.9776 L985.7313,965.1106 L986.3793,975.2435 L987.9431,985.3765 L985.1657,995.5094 L986.84,1005.6423 L986.7617,1015.7753 L986.3087,1025.9082 L986,1036.0412 L986,1036.0412 L986.0124,1036.1026 L982.7444,1036.7508 L979.4138,1037.0896 L976.1678,1037.847 L972.8969,1038.4807 L969.6719,1039.3419 L969.6739,1039.3702 L965.9266,1039.6481 L962.1809,1039.9478 L958.4185,1040.0142 L954.6776,1040.3804 L950.9316,1040.6774 L950.9291,1040.624 L946.0824,1041.1625 L941.2179,1041.3248 L936.3375,1041.1488 L931.4848,1041.561 L926.625,1041.8224 L926.6164,1041.566 L920.8774,1042.1444 L915.1302,1042.4804 L909.3773,1042.6458 L903.6107,1042.4043 L897.8652,1042.7916 L897.8704,1042.9978 L891.437,1042.6232 L885.0276,1043.2038 L878.6021,1043.1435 L872.1866,1043.4811 L865.7656,1043.5998 L865.7677,1043.7066 L858.9044,1043.9419 L852.029,1043.5445 L845.174,1044.208 L838.3062,1044.2082 L831.4395,1044.2614 L831.4418,1044.4193 L824.3565,1044.6997 L817.2637,1044.4757 L810.1769,1044.6571 L803.0893,1044.7801 L796,1044.7912 L796.0027,1045.0541 L786.0335,1044.8933 L776.0768,1045.9452 L766.092,1044.2879 L756.1417,1045.9578 L746.1588,1044.4754 L736.1934,1044.6902 L726.2344,1045.5138 L726.2347,1045.5672 L716.0914,1045.6134 L705.9439,1044.9804 L695.8081,1046.251 L685.6623,1045.9063 L675.5241,1046.7919 L665.375,1045.8849 L665.3773,1046.7744 L655.4776,1045.3133 L645.5819,1045.4064 L635.687,1045.7908 L625.7929,1046.4631 L615.8972,1046.5524 L606,1046.0412 L606,1046.0412 L606.0011,1046.4427 L596.103,1045.5592 L586.2106,1046.8375 L576.3147,1046.8081 L566.4165,1045.874 L556.52,1045.5922 L546.625,1045.8849 L546.6217,1045.3497 L536.48,1045.537 L526.3397,1045.9444 L516.1948,1045.6082 L506.0487,1045.0805 L495.9128,1046.2255 L485.7656,1045.5138 L485.7593,1044.9019 L475.806,1046.0804 L465.8385,1045.877 L455.8712,1045.6999 L445.9091,1046.0242 L435.9296,1044.6698 L425.9624,1044.4936 L416,1044.7912 L416.0034,1045.0218 L408.9081,1044.4199 L401.8227,1044.4753 L394.7371,1044.5246 L387.6489,1044.3979 L380.5605,1044.2614 L380.5575,1044.1021 L373.6949,1044.11 L366.8365,1044.3276 L359.9704,1044.1526 L353.0945,1043.4671 L346.2344,1043.5998 L346.2353,1043.6346 L339.8087,1043.2098 L333.3942,1043.2648 L326.9779,1043.2451 L320.5594,1043.1398 L314.1348,1042.7916 L314.1248,1042.4964 L308.3888,1042.7757 L302.631,1042.4077 L296.8706,1041.9634 L291.1199,1041.807 L285.375,1041.8224 L285.3818,1041.9674 L280.5189,1041.7043 L275.652,1041.3571 L270.777,1040.837 L265.9435,1041.1986 L261.0684,1040.6774 L261.0585,1040.5391 L257.3036,1040.1762 L253.5701,1040.1134 L249.8428,1040.1376 L246.0956,1039.8819 L242.3281,1039.3419 L242.3312,1039.3572 L239.0492,1038.6159 L235.8118,1038.0956 L232.5476,1037.4426 L229.2209,1036.4801 L226,1036.0412 L227.1039,1036.0412 L227.4901,1025.9082 L225.4246,1015.7753 L224.8555,1005.6423 L227.7991,995.5094 L226.056,985.3765 L225.9996,975.2435 L226.7974,965.1106 L224.2782,954.9776 L227.4133,944.8447 L225.9588,934.7117 L227.7835,924.5788 L225.4244,914.4459 L227.0907,904.3129 L224.816,894.18 L226.6534,884.047 L227.0114,873.9141 L226,863.7812 " fill="none" style="stroke:#181818;stroke-width:4.0;"/><path d="M226,863.7812 L226,863.7812 L226.0185,863.8727 L229.2291,864.2608 L232.5483,865.1857 L235.8321,865.9357 L238.9997,866.111 L242.3281,867.0819 L242.3257,867.0475 L246.0627,867.16 L249.8121,867.4461 L253.5701,867.853 L257.2985,867.8438 L261.0684,868.4174 L261.0799,868.6632 L265.9165,868.3666 L270.7869,868.7876 L275.6614,869.2962 L280.5119,869.2953 L285.375,869.5624 L285.376,869.5927 L291.1265,869.7421 L296.8816,870.0294 L302.6344,870.2502 L308.3916,870.598 L314.1348,870.5316 L314.1423,870.8298 L320.5623,870.9951 L326.9775,870.968 L333.3997,871.2225 L339.8223,871.4901 L346.2344,871.3398 L346.2282,871.0193 L353.1054,871.7736 L359.9623,871.4726 L366.8347,871.9739 L373.6911,871.6491 L380.5605,872.0014 L380.5601,871.9709 L387.6534,872.4369 L394.736,872.1916 L401.8249,872.366 L408.9144,872.5757 L416,872.5312 L416.0057,873.0861 L425.9665,872.6292 L435.937,873.1206 L445.8916,872.0777 L455.87,873.3233 L465.8402,873.7782 L475.8052,873.7433 L485.7656,873.2538 L485.7706,874.0712 L495.9049,872.6716 L506.0468,872.508 L516.1903,872.6108 L526.3381,873.4227 L536.4802,873.301 L546.625,873.6249 L546.6274,874.5335 L556.5202,873.4181 L566.4155,873.2196 L576.3133,874.0074 L586.206,872.84 L596.1023,873.063 L606,873.7812 L606,873.7812 L606.0023,874.6464 L615.8974,874.336 L625.7942,874.7084 L635.6864,873.274 L645.5845,874.1026 L655.4812,874.4382 L665.375,873.6249 L665.3712,872.995 L675.5174,873.4353 L685.6625,873.6692 L695.81,874.3084 L705.9479,873.3719 L716.0949,873.9324 L726.2344,873.2538 L726.2267,872.5155 L736.1915,872.2476 L746.1744,873.7188 L756.124,871.9882 L766.1075,873.5195 L776.0698,873.0131 L786.0298,872.2772 L796,872.5312 L795.9976,872.3739 L803.0909,872.6291 L810.1738,872.1862 L817.2676,872.4763 L824.3479,871.8617 L831.4395,872.0014 L831.4447,872.2757 L838.3088,872.0843 L845.172,871.8456 L852.0356,871.6254 L858.9066,871.795 L865.7656,871.3398 L865.7725,871.6124 L872.1874,871.2533 L878.6085,871.1357 L885.0239,870.797 L891.4533,871.0116 L897.8652,870.5316 L897.8676,870.6004 L903.6198,870.4145 L909.36,869.8737 L915.115,869.7701 L920.881,869.992 L926.625,869.5624 L926.634,869.7532 L931.4854,869.3143 L936.3409,868.9614 L941.2044,868.7782 L946.056,868.3418 L950.9316,868.4174 L950.9447,868.6013 L954.7031,868.4782 L958.4444,868.1166 L962.1977,867.9242 L965.9195,867.2884 L969.6719,867.0819 L969.6796,867.1199 L972.9034,866.2529 L976.2281,865.8854 L979.4905,865.209 L982.783,864.682 L986,863.7812 " fill="none" style="stroke:#181818;stroke-width:4.0;"/><text fill="#000000" font-family="Chalkduster" font-size="24" font-weight="bold" lengthAdjust="spacing" textLength="105" x="553.5" y="899.622">Zenodo</text><text fill="#000000" font-family="Chalkduster" font-size="24" font-weight="bold" lengthAdjust="spacing" textLength="190" x="511" y="930.2519">(for example)</text></g><!--entity om--><g id="elem_om"><polygon fill="none" points="25.5,236.2112,25.5,236.4213,35.2273,235.7968,44.9545,236.4044,54.6818,236.6108,64.4091,235.4978,74.1364,236.1334,83.8636,235.7847,93.5909,235.8277,103.3182,236.143,113.0455,235.5198,122.7727,236.7648,132.5,236.2112,132.4196,236.0171,132.8283,236.2967,133.2622,236.6371,133.5497,236.6241,133.9229,236.818,134.2678,236.9434,134.2579,236.9393,134.4692,237.3197,134.6343,237.681,134.8875,238.0788,135.0602,238.4432,135,238.7112,135.6793,238.7112,135.2546,247.8371,135.4636,256.9631,135.7022,266.0891,134.2788,275.215,135,284.341,135.209,284.4275,134.7622,284.6567,134.8715,285.1162,134.4082,285.3385,134.3931,285.7465,134.2678,286.1088,134.3624,286.3371,133.908,286.2402,133.5741,286.4341,133.2503,286.6524,132.9066,286.8227,132.5,286.841,132.5,286.8371,122.7727,287.1282,113.0455,286.2686,103.3182,287.1254,93.5909,287.3892,83.8636,287.2855,74.1364,287.454,64.4091,286.3579,54.6818,286.1888,44.9545,286.2196,35.2273,286.7821,25.5,286.841,25.4749,286.7805,25.2334,286.9044,24.7706,286.4943,24.3956,286.296,24.1149,286.3255,23.7322,286.1088,23.5269,286.0237,23.4259,285.689,23.6392,285.4844,23.4271,285.1037,23.3726,284.7882,23,284.341,22.6782,284.341,23.3192,275.215,23.5904,266.0891,22.5276,256.9631,22.9041,247.8371,23,238.7112,23.0388,238.7272,23.3472,238.4407,23.2916,238.0035,23.5818,237.7095,23.4152,237.2263,23.7322,236.9434,23.6458,236.7348,24.15,236.952,24.3479,236.4297,24.8578,236.6608,25.1728,236.4212,25.5,236.2112" style="stroke:#181818;stroke-width:4.0;"/><text fill="#000000" font-family="Chalkduster" font-size="24" lengthAdjust="spacing" textLength="92" x="33" y="270.052">Omeka</text></g><!--entity he--><g id="elem_he"><polygon fill="none" points="173,236.2112,173,236.4213,182.6364,235.7968,192.2727,236.4044,201.9091,236.6108,211.5455,235.4978,221.1818,236.1334,230.8182,235.7847,240.4545,235.8277,250.0909,236.143,259.7273,235.5198,269.3636,236.7648,279,236.2112,278.9196,236.0171,279.3283,236.2967,279.7622,236.6371,280.0497,236.6241,280.4229,236.818,280.7678,236.9434,280.7579,236.9393,280.9692,237.3197,281.1343,237.681,281.3875,238.0788,281.5602,238.4432,281.5,238.7112,282.1793,238.7112,281.7546,247.8371,281.9636,256.9631,282.2022,266.0891,280.7788,275.215,281.5,284.341,281.709,284.4275,281.2622,284.6567,281.3715,285.1162,280.9082,285.3385,280.8931,285.7465,280.7678,286.1088,280.8624,286.3371,280.408,286.2402,280.0741,286.4341,279.7503,286.6524,279.4066,286.8227,279,286.841,279,286.8371,269.3636,287.1282,259.7273,286.2686,250.0909,287.1254,240.4545,287.3892,230.8182,287.2855,221.1818,287.454,211.5455,286.3579,201.9091,286.1888,192.2727,286.2196,182.6364,286.7821,173,286.841,172.9749,286.7805,172.7334,286.9044,172.2706,286.4943,171.8956,286.296,171.6149,286.3255,171.2322,286.1088,171.0269,286.0237,170.9259,285.689,171.1392,285.4844,170.9271,285.1037,170.8726,284.7882,170.5,284.341,170.1782,284.341,170.8192,275.215,171.0904,266.0891,170.0276,256.9631,170.4041,247.8371,170.5,238.7112,170.5388,238.7272,170.8472,238.4407,170.7916,238.0035,171.0818,237.7095,170.9152,237.2263,171.2322,236.9434,171.1458,236.7348,171.65,236.952,171.8479,236.4297,172.3578,236.6608,172.6728,236.4212,173,236.2112" style="stroke:#181818;stroke-width:4.0;"/><text fill="#000000" font-family="Chalkduster" font-size="24" lengthAdjust="spacing" textLength="91" x="180.5" y="270.052">Heurist</text></g><!--entity ng--><g id="elem_ng"><polygon fill="none" points="319,236.2112,319,236.4213,329.2105,235.7968,339.4211,236.4044,349.6316,236.6108,359.8421,235.4978,370.0526,236.1334,380.2632,235.7847,390.4737,235.8277,400.6842,236.143,410.8947,235.5198,421.1053,236.7648,431.3158,235.5809,441.5263,236.0134,451.7368,236.6431,461.9474,236.1254,472.1579,236.2794,482.3684,236.1792,492.5789,236.3897,502.7895,236.4503,513,236.2112,513.0747,236.3915,513.4392,236.5643,513.7938,236.7132,514.0931,236.7289,514.4733,236.9397,514.7678,236.9434,514.984,237.033,514.6921,237.205,515.2696,237.7371,515.1158,237.9662,515.5179,238.4257,515.5,238.7112,515.005,238.7112,515.4315,247.8371,516.2416,256.9631,515.4513,266.0891,515.6053,275.215,515.5,284.341,515.6043,284.3842,515.4817,284.7476,515.2059,285.0476,515.1491,285.4383,514.7379,285.6822,514.7678,286.1088,514.804,286.1963,514.4841,286.424,514.1174,286.5386,513.7853,286.7369,513.2919,286.5458,513,286.841,513,286.1888,502.7895,286.2196,492.5789,286.7821,482.3684,286.6445,472.1579,287.5224,461.9474,286.6663,451.7368,286.4979,441.5263,287.0693,431.3158,286.1742,421.1053,286.3219,410.8947,287.4899,400.6842,287.2767,390.4737,287.5755,380.2632,286.5192,370.0526,287.1602,359.8421,287.4314,349.6316,286.3686,339.4211,286.7451,329.2105,286.967,319,286.841,319.0831,287.0417,318.6459,286.6933,318.3519,286.6906,317.8687,286.2311,317.4994,286.0466,317.2322,286.1088,317.3873,286.173,316.865,285.6638,317.0961,285.4666,316.8565,285.0745,316.5639,284.6604,316.5,284.341,316.1462,284.341,316.9588,275.215,316.2007,266.0891,317.0919,256.9631,315.9473,247.8371,316.5,238.7112,316.6901,238.7899,316.7956,238.4194,316.8683,238.0353,316.9539,237.6565,317.3096,237.3896,317.2322,236.9434,317.3105,237.1324,317.6074,236.8491,317.9736,236.7331,318.2763,236.4639,318.7378,236.5782,319,236.2112" style="stroke:#181818;stroke-width:4.0;"/><text fill="#000000" font-family="Chalkduster" font-size="24" lengthAdjust="spacing" textLength="179" x="326.5" y="270.052">Node Graphs</text></g><!--entity co--><g id="elem_co"><polygon fill="none" points="553,236.2112,553,236.4213,563.1667,235.7968,573.3333,236.4044,583.5,236.6108,593.6667,235.4978,603.8333,236.1334,614,235.7847,624.1667,235.8277,634.3333,236.143,644.5,235.5198,654.6667,236.7648,664.8333,235.5809,675,236.2112,674.9748,236.1503,675.4087,236.4906,675.6962,236.4776,676.0694,236.6715,676.4101,236.7871,676.7678,236.9434,676.8227,236.9662,676.9879,237.3275,677.241,237.7252,677.4138,238.0897,677.5627,238.4443,677.5,238.7112,677.7546,238.7112,677.9636,247.8371,678.2022,256.9631,676.7788,266.0891,678.1785,275.215,677.5,284.341,677.4087,284.3032,677.5179,284.7626,677.0547,284.985,677.0396,285.3929,677.1426,285.8498,676.7678,286.1088,676.7616,286.0938,676.4276,286.2876,676.1039,286.5059,675.7602,286.6763,675.3531,286.6933,675,286.841,675,287.1282,664.8333,286.2686,654.6667,287.1254,644.5,287.3892,634.3333,287.2855,624.1667,287.454,614,286.3579,603.8333,286.1888,593.6667,286.2196,583.5,286.7821,573.3333,286.6445,563.1667,287.5224,553,286.841,552.9777,286.7872,552.6027,286.5889,552.322,286.6184,551.8543,286.1963,551.5196,286.0953,551.2322,286.1088,551.4321,286.1915,551.22,285.8108,551.1655,285.4953,550.6938,285.0071,550.7447,284.7353,550.5,284.341,551.0904,284.341,550.0276,275.215,550.4041,266.0891,550.626,256.9631,551.1518,247.8371,550.5,238.7112,550.4987,238.7106,550.7889,238.4166,550.6223,237.9334,550.7308,237.5641,551.2409,237.3612,551.2322,236.9434,551.1408,236.7226,551.6507,236.9537,551.9657,236.7141,552.2587,236.4215,552.6013,236.2487,553,236.2112" style="stroke:#181818;stroke-width:4.0;"/><text fill="#000000" font-family="Chalkduster" font-size="24" lengthAdjust="spacing" textLength="107" x="560.5" y="270.052">Crate-O</text></g><!--entity nb--><g id="elem_nb"><polygon fill="#FFC7D8" points="803,220.8912,803,221.1013,813,220.4768,823,221.0844,833,221.2908,843,220.1778,853,220.8134,863,220.4647,873,220.5077,883,220.823,893,220.1998,903,221.4448,913,220.2609,923,220.6934,933,221.3231,943,220.8054,953,220.9594,963,220.8592,973,221.0697,983,221.1303,993,220.8912,993.0747,221.0715,993.4392,221.2443,993.7938,221.3932,994.0931,221.4089,994.4733,221.6197,994.7678,221.6234,994.984,221.713,994.6921,221.885,995.2696,222.4171,995.1158,222.6462,995.5179,223.1057,995.5,223.3912,995.005,223.3912,995.4315,232.9236,996.2416,242.4561,995.4513,251.9885,995.6053,261.521,995.8386,271.0535,995.9162,280.5859,995.4961,290.1184,995.5,299.6508,995.5885,299.6875,995.1773,299.9314,995.2947,300.3942,995.2295,300.7814,995.0511,301.1217,994.7678,301.4186,994.846,301.6074,994.3526,301.4163,993.9775,301.5106,993.6278,301.6666,993.346,301.9862,993,302.1508,993,301.9543,983,302.8322,973,301.9761,963,301.8078,953,302.3791,943,301.484,933,301.6317,923,302.7998,913,302.5865,903,302.8853,893,301.829,883,302.47,873,302.7412,863,301.6784,853,302.055,843,302.2768,833,302.8026,823,302.1466,813,302.6134,803,302.1508,802.9294,301.9803,802.5601,301.7958,802.3571,302.013,801.8479,301.4907,801.6507,301.7218,801.2322,301.4186,801.2959,301.445,801.0033,301.0309,800.8304,300.6664,800.9342,300.4165,800.5543,299.9662,800.5,299.6508,801.0919,299.6508,799.9473,290.1184,801.1174,280.5859,800.9843,271.0535,800.745,261.521,800.5472,251.9885,801.2266,242.4561,801.1136,232.9236,800.5,223.3912,800.5521,223.4128,800.729,223.0718,800.7528,222.6674,801.16,222.4219,801.1335,221.9967,801.2322,221.6234,801.2542,221.6765,801.5082,221.2896,801.8876,221.2057,802.3606,221.3475,802.7013,221.17,803,220.8912" style="stroke:#181818;stroke-width:4.0;"/><text fill="#000000" font-family="Chalkduster" font-size="24" font-style="italic" lengthAdjust="spacing" textLength="175" x="810.5" y="254.732">&#171;workspace&#187;</text><text fill="#000000" font-family="Chalkduster" font-size="24" lengthAdjust="spacing" textLength="127" x="834.5" y="285.3619">Notebook</text></g><!--entity ro--><g id="elem_ro"><polygon fill="none" points="241,490.6512,241,490.8613,251,490.2368,261,490.8444,271,491.0508,281,489.9378,291,490.5734,301,490.2247,311,490.2677,321,490.583,331,489.9598,341,491.2048,351,490.0209,361,490.4534,371,491.0831,381,490.5654,391,490.7194,401,490.6192,411,490.8297,421,490.8903,431,491.2369,441,491.3222,451,491.3304,461,490.9058,471,491.1147,481,491.3534,491,489.93,501,491.3297,511,490.3547,521,491.185,531,490.1561,541,490.5827,551,491.3928,561,490.6512,560.9938,490.6362,561.367,490.83,561.7503,491.0483,562.1138,491.2187,562.4137,491.2357,562.7678,491.3834,562.8562,491.42,562.7379,491.6639,563.1482,492.1268,563.3759,492.514,563.4905,492.8543,563.5,493.1512,564.113,493.1512,563.0169,502.2771,562.8478,511.4031,562.8786,520.5291,563.4411,529.655,563.5,538.781,563.4395,538.7559,563.5634,539.2215,563.1533,539.4658,562.955,539.7979,562.9845,540.2243,562.7678,540.5488,562.6827,540.3434,562.348,540.5353,562.1434,541.0415,561.7627,541.1223,561.4472,541.3607,561,541.281,561,540.9592,551,541.6002,541,541.8714,531,540.8086,521,541.1851,511,541.407,501,541.9328,491,541.2768,481,541.7436,471,540.7272,461,540.6037,451,541.7846,441,540.5641,431,541.79,421,541.4876,411,541.0131,401,540.9272,391,541.7398,381,540.9817,371,541.8729,361,540.7282,351,541.8984,341,541.7653,331,541.526,321,541.3282,311,542.0076,301,541.8946,291,541.4502,281,541.5492,271,541.1507,261,541.9974,251,541.4359,241,541.281,241.022,541.3341,240.5688,540.9472,240.2412,540.8633,240.007,541.0051,239.6406,540.8276,239.2322,540.5488,239.219,540.5433,238.9866,540.1541,238.8719,539.8137,238.5816,539.4006,238.7742,539.1875,238.5,538.781,239.2396,538.781,239.0264,529.655,239.1949,520.5291,238.3633,511.4031,238.5872,502.2771,238.5,493.1512,238.3806,493.1017,238.7339,492.8338,238.8689,492.4755,239.1095,492.161,239.0151,491.7077,239.2322,491.3834,239.2151,491.342,239.6424,491.3735,240.0117,491.2652,240.2275,490.7862,240.6217,490.7379,241,490.6512" style="stroke:#181818;stroke-width:4.0;"/><text fill="#000000" font-family="Chalkduster" font-size="24" lengthAdjust="spacing" textLength="305" x="248.5" y="524.492">RO-Crate Interchange</text></g><!--entity news--><g id="elem_news"><path d="M1363.5,496.1512 L1363.5,496.1512 L1363.5371,496.2369 L1366.0987,494.8259 L1368.8779,493.9175 L1371.5862,492.8454 L1374.0616,491.2352 L1376.8594,490.3699 L1376.8549,490.3357 L1379.5736,489.8265 L1382.3148,489.4899 L1385.0715,489.2735 L1387.7745,488.6433 L1390.5527,488.5926 L1390.5714,488.8379 L1393.671,488.075 L1396.825,488.0284 L1399.9856,488.0691 L1403.1077,487.6014 L1406.25,487.4012 L1406.2514,487.4315 L1409.3888,487.2424 L1412.5326,487.1914 L1415.6732,487.0737 L1418.8198,487.0831 L1421.9473,486.6785 L1421.9553,486.9766 L1424.6941,486.9061 L1427.4277,486.6432 L1430.1689,486.6618 L1432.9104,486.6936 L1435.6406,486.3074 L1435.6369,485.9869 L1438.316,486.5777 L1440.9828,486.1131 L1443.659,486.4509 L1446.3256,485.9624 L1449,486.1512 L1449,486.1512 L1448.9996,486.1207 L1451.6757,486.512 L1454.3435,486.192 L1457.0162,486.2917 L1459.6893,486.4267 L1462.3594,486.3074 L1462.3644,486.4923 L1465.098,486.3799 L1467.8402,486.5835 L1470.5685,486.2758 L1473.3175,486.7306 L1476.0527,486.6785 L1476.0639,486.9219 L1479.2013,487.0204 L1482.3442,487.2397 L1485.4612,486.8976 L1488.5972,486.9671 L1491.75,487.4012 L1491.7291,487.1258 L1494.8875,487.6133 L1498.0223,487.7906 L1501.1913,488.418 L1504.3019,488.2769 L1507.4473,488.5926 L1507.4276,488.4414 L1510.199,489.0486 L1512.8865,489.0096 L1515.6336,489.4302 L1518.4391,490.3005 L1521.1406,490.3699 L1521.2175,490.5476 L1523.9421,491.8258 L1526.4276,492.5512 L1529.2126,493.9689 L1531.9323,495.2357 L1534.5,496.1512 L1534.0801,496.1512 L1534.4148,504.0771 L1534.612,512.0031 L1535.0793,519.9291 L1534.4963,527.855 L1534.5,535.781 L1534.5,535.781 L1534.5816,535.9697 L1531.7304,536.7114 L1529.0367,537.8172 L1526.5733,539.4552 L1523.686,540.1136 L1521.1406,541.5622 L1521.1697,541.7866 L1518.4138,542.0088 L1515.648,542.1551 L1512.9044,542.4727 L1510.2122,543.1863 L1507.4473,543.3396 L1507.4372,543.2069 L1504.3277,543.8402 L1501.1498,543.5712 L1498.0497,544.3281 L1494.9057,544.5073 L1491.75,544.531 L1491.755,544.6398 L1488.6115,544.6965 L1485.4859,545.1427 L1482.3442,545.237 L1479.1956,545.1843 L1476.0527,545.2537 L1476.056,545.3728 L1473.3125,545.27 L1470.584,545.7204 L1467.8386,545.5451 L1465.1001,545.6272 L1462.3594,545.6247 L1462.3562,545.3544 L1459.6854,545.4759 L1457.0184,545.9231 L1454.346,545.9095 L1451.6717,545.7307 L1449,545.781 L1449,545.781 L1448.9983,545.6378 L1446.327,545.6524 L1443.6527,545.4135 L1440.9865,545.8716 L1438.3163,545.9847 L1435.6406,545.6247 L1435.647,545.8586 L1432.9103,545.8593 L1430.1616,545.4156 L1427.4257,545.4408 L1424.6813,545.1557 L1421.9473,545.2537 L1421.9531,545.3798 L1418.8129,545.2187 L1415.6796,545.2098 L1412.5242,544.7181 L1409.3867,544.6159 L1406.25,544.531 L1406.2649,544.7275 L1403.1296,544.5441 L1399.9539,543.8273 L1396.8251,543.7302 L1393.6972,543.644 L1390.5527,543.3396 L1390.5178,543.0704 L1387.8343,543.1399 L1385.0901,542.7424 L1382.331,542.2288 L1379.6062,541.9804 L1376.8594,541.5622 L1376.988,541.8595 L1374.1323,540.2784 L1371.5712,539.3782 L1368.8942,538.21 L1366.1923,536.9845 L1363.5,535.781 L1363.6253,535.781 L1363.6009,527.855 L1362.9452,519.9291 L1363.1437,512.0031 L1363.0897,504.0771 L1363.5,496.1512 " fill="none" style="stroke:#181818;stroke-width:4.0;"/><path d="M1363.5,496.1512 L1363.5,496.1512 L1363.5371,496.2369 L1366.0987,497.1384 L1368.8779,498.5425 L1371.5862,499.7829 L1374.0616,500.4852 L1376.8594,501.9324 L1376.8549,501.8982 L1379.5736,502.0999 L1382.3148,502.4743 L1385.0715,502.9688 L1387.7745,503.0496 L1390.5527,503.7098 L1390.5714,503.9551 L1393.671,503.6687 L1396.825,504.0987 L1399.9856,504.616 L1403.1077,504.6249 L1406.25,504.9012 L1406.2514,504.9315 L1409.3888,505.0315 L1412.5326,505.2695 L1415.6732,505.4409 L1418.8198,505.7393 L1421.9473,505.6238 L1421.9553,505.922 L1424.6941,505.9998 L1427.4277,505.8854 L1430.1689,506.0524 L1432.9104,506.2327 L1435.6406,505.9949 L1435.6369,505.6744 L1438.316,506.3277 L1440.9828,505.9256 L1443.659,506.3259 L1446.3256,505.8999 L1449,506.1512 L1449,506.1512 L1448.9996,506.1207 L1451.6757,506.4495 L1454.3435,506.067 L1457.0162,506.1042 L1459.6893,506.1767 L1462.3594,505.9949 L1462.3644,506.1798 L1465.098,505.919 L1467.8402,505.9741 L1470.5685,505.5179 L1473.3175,505.8244 L1476.0527,505.6238 L1476.0639,505.8672 L1479.2013,505.6766 L1482.3442,505.6069 L1485.4612,504.9757 L1488.5972,504.7561 L1491.75,504.9012 L1491.7291,504.6258 L1494.8875,504.6368 L1498.0223,504.3375 L1501.1913,504.4883 L1504.3019,503.8706 L1507.4473,503.7098 L1507.4276,503.5586 L1510.199,503.4549 L1512.8865,502.7049 L1515.6336,502.4145 L1518.4391,502.5739 L1521.1406,501.9324 L1521.2175,502.1101 L1523.9421,501.0758 L1526.4276,499.4887 L1529.2126,498.5939 L1531.9323,497.5482 L1534.5,496.1512 " fill="none" style="stroke:#181818;stroke-width:4.0;"/><text fill="#000000" font-family="Chalkduster" font-size="24" lengthAdjust="spacing" textLength="151" x="1373.5" y="533.992">Newspapers</text></g><!--entity harv--><g id="elem_harv"><polygon fill="none" points="1056.5,490.6512,1056.5,490.8613,1066.463,490.2368,1076.4259,490.8444,1086.3889,491.0508,1096.3519,489.9378,1106.3148,490.5734,1116.2778,490.2247,1126.2407,490.2677,1136.2037,490.583,1146.1667,489.9598,1156.1296,491.2048,1166.0926,490.0209,1176.0556,490.4534,1186.0185,491.0831,1195.9815,490.5654,1205.9444,490.7194,1215.9074,490.6192,1225.8704,490.8297,1235.8333,490.8903,1245.7963,491.2369,1255.7593,491.3222,1265.7222,491.3304,1275.6852,490.9058,1285.6481,491.1147,1295.6111,491.3534,1305.5741,489.93,1315.537,491.3297,1325.5,490.6512,1325.4622,490.5598,1325.9216,490.962,1326.144,490.7916,1326.5519,491.0694,1327.0088,491.4653,1327.2678,491.3834,1327.2528,491.3772,1327.4466,491.7504,1327.6649,492.1337,1327.8353,492.4971,1327.8524,492.7971,1328,493.1512,1328.2872,493.1512,1327.4276,502.2771,1328.2844,511.4031,1328.5482,520.5291,1328.4445,529.655,1328,538.781,1328.1888,538.8592,1327.7048,539.0729,1327.5063,539.4049,1327.3693,539.7624,1327.3961,540.1877,1327.2678,540.5488,1327.2427,540.4882,1327.0011,540.9051,1326.5384,540.7879,1326.1633,540.8825,1325.8827,541.2048,1325.5,541.281,1325.5,540.6142,1315.537,540.7619,1305.5741,541.9299,1295.6111,541.7167,1285.6481,542.0155,1275.6852,540.9592,1265.7222,541.6002,1255.7593,541.8714,1245.7963,540.8086,1235.8333,541.1851,1225.8704,541.407,1215.9074,541.9328,1205.9444,541.2768,1195.9815,541.7436,1186.0185,540.7272,1176.0556,540.6037,1166.0926,541.7846,1156.1296,540.5641,1146.1667,541.79,1136.2037,541.4876,1126.2407,541.0131,1116.2778,540.9272,1106.3148,541.7398,1096.3519,540.9817,1086.3889,541.8729,1076.4259,540.7282,1066.463,541.8984,1056.5,541.281,1056.5618,541.4301,1056.1777,541.21,1055.7989,541.0026,1055.532,541.0654,1055.1641,540.8842,1054.7322,540.5488,1054.7844,540.5704,1054.6684,540.2294,1054.3992,539.825,1054.5135,539.5795,1054.1941,539.1543,1054,538.781,1054.1726,538.781,1053.3916,529.655,1053.5948,520.5291,1054.5307,511.4031,1054.4298,502.2771,1054,493.1512,1053.9868,493.1457,1054.0472,492.7565,1054.2255,492.4161,1054.228,492.003,1054.7135,491.7899,1054.7322,491.3834,1054.8266,491.6112,1055.1529,491.3991,1055.528,491.3045,1055.7755,490.9019,1056.1576,490.8245,1056.5,490.6512" style="stroke:#181818;stroke-width:4.0;"/><text fill="#000000" font-family="Chalkduster" font-size="24" lengthAdjust="spacing" textLength="254" x="1064" y="524.492">Harvested Records</text></g><!--entity code--><g id="elem_code"><polygon fill="none" points="598,964.1012,598,964.3113,608,963.6868,618,964.2944,628,964.5008,638,963.3878,648,964.0234,658,963.6747,668,963.7177,678,964.033,688,963.4098,698,964.6548,708,963.4709,718,963.9034,728,964.5331,738,964.0154,748,964.1694,758,964.0692,768,964.2797,778,964.3403,788,964.6869,798,964.7722,808,964.7804,818,964.3558,828,964.5647,838,964.8034,848,963.38,858,964.7797,868,963.8047,878,964.635,888,963.6061,898,964.0327,908,964.8428,918,964.0524,928,964.2065,938,964.4398,948,964.5174,958,964.0973,968,964.1012,968.0366,964.1896,968.2805,964.0713,968.7434,964.4816,969.1306,964.7093,969.4709,964.8238,969.7678,964.8334,969.9566,964.9116,969.7654,965.1253,969.8598,965.4573,970.0157,965.8148,970.3354,966.2401,970.5,966.6012,970.3035,966.6012,971.1814,975.7271,970.3253,984.8531,970.1569,993.9791,970.7283,1003.105,970.5,1012.231,970.2946,1012.1459,970.1937,1012.5183,970.407,1013.0209,970.1948,1013.3472,970.1404,1013.7389,969.7678,1013.9988,969.7267,1013.8997,969.4549,1014.2435,969.136,1014.4735,968.6468,1014.2926,968.3413,1014.555,968,1014.731,968,1014.857,958,1015.3828,948,1014.7268,938,1015.1936,928,1014.1772,918,1014.0537,908,1015.2346,898,1014.0141,888,1015.24,878,1014.9376,868,1014.4631,858,1014.3772,848,1015.1898,838,1014.4317,828,1015.3229,818,1014.1782,808,1015.3484,798,1015.2153,788,1014.976,778,1014.7782,768,1015.4576,758,1015.3446,748,1014.9002,738,1014.9992,728,1014.6007,718,1015.4474,708,1014.8859,698,1014.9036,688,1014.1226,678,1014.3258,668,1015.2617,658,1015.1608,648,1014.6881,638,1014.4088,628,1014.5121,618,1014.0448,608,1015.1457,598,1014.731,598.0943,1014.9588,597.7136,1014.7467,597.3815,1014.6521,596.9219,1014.2495,596.5969,1014.1721,596.2322,1013.9988,596.1129,1013.9493,596.1733,1013.6814,596.0153,1013.3231,595.963,1013.0086,595.5757,1012.5553,595.5,1012.231,595.3656,1012.231,595.9435,1003.105,596.0673,993.9791,594.9875,984.8531,595.3061,975.7271,595.5,966.6012,595.546,966.6202,595.4583,966.1697,595.9017,965.9391,596.0188,965.5734,596.0548,965.1741,596.2322,964.8334,596.2504,964.8772,596.6787,964.9114,596.8994,964.4441,597.3331,964.4911,597.6829,964.3356,598,964.1012" style="stroke:#181818;stroke-width:4.0;"/><text fill="#000000" font-family="Chalkduster" font-size="24" lengthAdjust="spacing" textLength="355" x="605.5" y="997.942">Archived, Packaged Code</text></g><!--entity res--><g id="elem_res"><polygon fill="none" points="244.5,948.7812,244.5,948.9913,254.5968,948.3668,264.6935,948.9744,274.7903,949.1808,284.8871,948.0678,294.9839,948.7034,305.0806,948.3547,315.1774,948.3977,325.2742,948.713,335.371,948.0898,345.4677,949.3348,355.5645,948.1509,365.6613,948.5834,375.7581,949.2131,385.8548,948.6954,395.9516,948.8494,406.0484,948.7492,416.1452,948.9597,426.2419,949.0203,436.3387,949.3669,446.4355,949.4522,456.5323,949.4604,466.629,949.0358,476.7258,949.2447,486.8226,949.4834,496.9194,948.06,507.0161,949.4597,517.1129,948.4847,527.2097,949.315,537.3065,948.2861,547.4032,948.7127,557.5,948.7812,557.5946,949.0095,557.8473,948.9126,558.2205,949.1065,558.6039,949.3248,558.9673,949.4951,559.2678,949.5134,559.2666,949.5129,559.5027,949.9036,559.3844,950.1475,559.7947,950.6103,560.0224,950.9975,560,951.2812,560.4445,951.2812,560.613,960.8136,559.5169,970.3461,559.3478,979.8785,559.3786,989.411,559.9411,998.9435,559.8035,1008.4759,560.6814,1018.0084,560,1027.5408,559.9462,1027.5185,559.7479,1027.8506,559.7774,1028.2771,559.3553,1028.5164,559.2543,1028.8888,559.2678,1029.3086,559.3505,1029.5084,558.9698,1029.5892,558.6544,1029.8277,558.1661,1029.6488,557.8943,1029.9927,557.5,1030.0408,557.5,1030.6312,547.4032,1029.5684,537.3065,1029.945,527.2097,1030.1668,517.1129,1030.6926,507.0161,1030.0366,496.9194,1030.5034,486.8226,1029.487,476.7258,1029.3636,466.629,1030.5444,456.5323,1029.3239,446.4355,1030.5498,436.3387,1030.2475,426.2419,1029.7729,416.1452,1029.6871,406.0484,1030.4996,395.9516,1029.7415,385.8548,1030.6327,375.7581,1029.4881,365.6613,1030.6583,355.5645,1030.5251,345.4677,1030.2858,335.371,1030.088,325.2742,1030.7674,315.1774,1030.6544,305.0806,1030.2101,294.9839,1030.309,284.8871,1029.9106,274.7903,1030.7573,264.6935,1030.1957,254.5968,1030.2134,244.5,1030.0408,244.4224,1029.8535,244.0948,1029.7696,243.8606,1029.9114,243.4942,1029.7338,243.0803,1029.4418,242.7322,1029.3086,242.633,1029.2675,242.5184,1028.9271,242.228,1028.514,242.4206,1028.3008,242.3742,1027.9887,242,1027.5408,242.5264,1027.5408,242.6949,1018.0084,241.8633,1008.4759,242.0872,998.9435,241.6124,989.411,242.284,979.8785,242.2468,970.3461,242.5524,960.8136,242,951.2812,241.9293,951.2519,242.1051,950.9105,242.4295,950.6306,242.6141,950.2929,242.4279,949.8016,242.7322,949.5134,242.7075,949.4537,243.1048,949.4129,243.3614,949.0324,243.838,949.1829,244.1794,949.0071,244.5,948.7812" style="stroke:#181818;stroke-width:4.0;"/><text fill="#000000" font-family="Chalkduster" font-size="24" lengthAdjust="spacing" textLength="298" x="252" y="982.622">Archived Node Graph</text><text fill="#000000" font-family="Chalkduster" font-size="24" lengthAdjust="spacing" textLength="244" x="252" y="1013.2519">Annotations, sites</text></g><g id="elem_GMN10"><path d="M812.5,480.3412 L813.0605,480.3412 L811.3951,490.5211 L813.0154,500.7011 L813.5658,510.881 L810.5976,521.061 L812.2928,531.2409 L811.3627,541.4209 L812.5,551.6008 L812.5,551.6008 L812.5,550.5782 L822.5588,551.4191 L832.6176,549.7572 L842.6765,553.0772 L852.7353,549.9201 L862.7941,551.0734 L872.8529,552.7527 L882.9118,551.3721 L892.9706,551.7828 L903.0294,551.5156 L913.0882,552.0769 L923.1471,552.2385 L933.2059,553.1627 L943.2647,553.3903 L953.3235,553.4122 L963.3824,552.2798 L973.4412,552.8371 L983.5,551.6008 L983.5,551.6008 L985.3726,551.6008 L981.5768,541.3909 L985.3094,531.1809 L982.7093,520.971 L984.9235,510.761 L982.1799,500.5511 L983.5,490.3412 L983.4569,490.2981 L981.9661,488.8073 L979.4694,486.3105 L977.5662,484.4073 L975.7128,482.554 L973.5,480.3412 L973.5,481.4511 L963.2857,480.3307 L953.0714,481.1071 L942.8571,478.8147 L932.6429,481.0995 L922.4286,481.803 L912.2143,481.5266 L902,480.3412 L903.6343,480.3779 L900.4899,470.4333 L899.8168,460.5443 L899.6767,450.6672 L900.9541,440.8221 L900.3649,430.9349 L902.4833,421.1087 L899.9788,411.1785 L899.3076,401.2895 L900.6086,391.4449 L898,381.5123 L898.1716,371.6423 L901.0634,361.8334 L900.2726,351.9417 L900.847,342.0808 L897.8088,332.1385 L899.2954,322.2981 L899.7963,312.4355 L898,302.5212 L896.7406,302.4928 L897.5222,312.3943 L897.8914,322.2865 L899.0709,332.1969 L897.0999,342.0365 L898.1221,351.9433 L895.1903,361.7613 L894.6389,371.6328 L897.5648,381.5825 L894.0886,391.3882 L897.1347,401.3406 L896.1064,411.2013 L894.6191,421.0518 L894.168,430.9255 L896.1119,440.8531 L893.8686,450.6865 L896.0223,460.6189 L892.7486,470.4291 L894,480.3412 L894,481.9876 L883.8125,481.6326 L873.625,480.9944 L863.4375,480.4671 L853.25,482.2788 L843.0625,481.9774 L832.875,480.7925 L822.6875,481.0563 L812.5,480.3412 L812.5,480.3412 " fill="none" style="stroke:#181818;stroke-width:4.0;"/><path d="M973.5,480.3412 L973.6868,480.3412 L973.1317,482.3412 L973.6718,484.3412 L973.8553,486.3412 L972.8659,488.3412 L973.5,490.3412 L973.5,490.2721 L975.5,489.9621 L977.5,490.0003 L979.5,490.2806 L981.5,489.7266 L983.5,490.3412 L983.848,490.6891 L981.1038,487.945 L979.3757,486.2169 L977.7715,484.6127 L975.4461,482.2872 L973.5,480.3412 " fill="none" style="stroke:#181818;stroke-width:4.0;"/><text fill="#000000" font-family="Chalkduster" font-size="24" lengthAdjust="spacing" textLength="148" x="818.5" y="509.182">Excuted in</text><text fill="#000000" font-family="Chalkduster" font-size="24" lengthAdjust="spacing" textLength="150" x="818.5" y="539.8119">Binder env</text></g><!--link nb to Trove--><g id="link_nb_Trove"><path d="M936.87,302.4512 L936.9407,302.5122 L938.4432,304.317 L940.3604,306.4795 L942.1426,308.5255 L943.4806,310.1886 L945.4334,312.3817 L945.4067,312.3599 L947.0418,314.4029 L948.8116,316.5563 L950.675,318.7865 L952.2158,320.7522 L954.2084,323.0883 L954.4031,323.2389 L955.7474,325.194 L957.66,327.5885 L959.6419,330.0367 L961.2204,332.1729 L963.0111,334.4732 L963.0357,334.491 L964.7289,336.858 L966.534,339.3059 L968.2851,341.7147 L970.1392,344.198 L971.6575,346.4387 L971.9056,346.6042 L973.5698,349.0959 L975.0741,351.4808 L976.8125,354.022 L978.562,356.5705 L979.9636,358.8869 L979.6895,358.7207 L981.7778,361.6099 L982.9636,363.9519 L984.8355,366.7099 L986.0008,369.0395 L987.7453,371.7202 L987.7185,371.7058 L989.4501,374.5008 L990.5556,376.9582 L992.0306,379.6148 L993.5366,382.2882 L994.8188,384.8409 L994.9866,384.9188 L996.0535,387.5022 L997.407,390.2188 L998.2968,392.7199 L999.8784,395.5423 L1001,398.1512 L1001.2297,398.2323 L1002.5009,401.9366 L1003.8861,405.6812 L1004.7414,409.2385 L1005.9851,412.9331 L1007.573,416.7493 L1007.3063,416.6778 L1008.066,418.6775 L1008.5252,420.5965 L1009.4204,422.6324 L1009.5712,424.4689 L1010.1644,426.4239 L1010.0161,426.3885 L1010.3794,426.9348 L1010.1088,427.3298 L1010.2889,427.8324 L1010.9102,428.4403 L1010.7459,428.8607 L1010.9346,428.9044 L1011.0922,429.0564 L1010.6631,429.0723 L1010.9689,429.2586 L1011.1147,429.4078 L1010.8873,429.4705 " fill="none" style="stroke:#181818;stroke-width:4.0;"/><polygon fill="#181818" points="1010.8873,429.4705,1010.9561,429.4839,1011.127,427.5105,1011.7011,425.6154,1012.1439,423.6948,1012.1549,421.6904,1012.7636,419.802,1012.7416,419.7883,1012.0432,420.6859,1011.4555,421.6527,1010.9447,422.6677,1010.1687,423.5168,1009.7643,424.5983,1009.8621,424.7547,1008.6936,423.8203,1007.8108,423.3426,1006.9629,422.9207,1005.9121,422.1745,1004.968,421.5989,1004.9862,421.6126,1006.1434,423.1668,1007.3833,424.7833,1008.5833,426.3698,1009.8595,428.0135,1010.8873,429.4705" style="stroke:#181818;stroke-width:4.0;"/><text fill="#000000" font-family="Chalkduster" font-size="24" lengthAdjust="spacing" textLength="150" x="998" y="382.992">Fetch data</text></g><!--link nb to ro--><g id="link_nb_ro"><path d="M822.72,302.6112 L822.7596,302.6958 L819.7416,303.8014 L816.9557,305.4031 L814.0942,306.8433 L810.9841,307.7523 L808.2181,309.3965 L808.2041,309.365 L805.095,310.5824 L802.0569,311.9589 L799.0682,313.4459 L795.9094,314.552 L792.9888,316.1916 L793.0845,316.4183 L789.7158,317.2695 L786.6266,318.7825 L783.5714,320.3762 L780.3179,321.5001 L777.1687,322.8712 L777.1799,322.8994 L773.9088,324.1457 L770.6884,325.5205 L767.4436,326.8332 L764.2455,328.2642 L760.895,329.3099 L760.9975,329.59 L757.6806,330.8079 L754.2976,331.8452 L751.0114,333.147 L747.7298,334.4611 L744.3044,335.3825 L744.2032,335.0784 L741.0455,336.7849 L737.5545,337.49 L734.3169,338.9564 L730.8184,339.6388 L727.5338,340.9638 L727.5251,340.9346 L724.2643,342.2729 L720.8021,342.9289 L717.4588,343.9875 L714.1254,345.0799 L710.72,345.9284 L710.7653,346.1078 L707.3756,346.7713 L704.0633,347.7413 L700.6257,348.2154 L697.3749,349.4292 L694,350.1512 L694.0239,350.3936 L691.5103,350.5947 L689.0086,350.9162 L686.4519,350.6783 L683.9355,350.8504 L681.4548,351.3858 L681.4449,351.1098 L679.518,351.4292 L677.5799,351.4377 L675.6581,351.8972 L673.7086,351.5866 L671.7755,351.7338 L671.7726,351.5814 L669.4839,351.879 L667.1828,351.5249 L664.8905,351.6343 L662.6068,352.1971 L660.3078,351.9524 L660.3092,352.146 L654.9398,352.3187 L649.5659,351.8891 L644.1976,352.2138 L638.828,352.3741 L633.4557,352.1516 L633.4547,351.9416 L627.5233,352.1354 L621.5916,352.2604 L615.6606,352.5205 L609.7271,352.2554 L603.795,352.2837 L603.7975,352.4892 L597.8775,352.1107 L591.9623,352.1289 L586.0542,352.7268 L580.133,352.2575 L574.2225,352.6492 L574.2284,352.8753 L571.4553,352.8139 L568.6801,352.6759 L565.9095,352.7106 L563.1494,353.1444 L560.3744,353.0134 L560.3689,352.8805 L557.8375,353.3833 L555.2682,352.9821 L552.7421,353.6087 L550.1917,353.6567 L547.6347,353.5487 L547.6419,353.6573 L545.3822,353.7184 L543.1482,354.1684 L540.891,354.2671 L538.6241,354.2188 L536.3653,354.2925 L536.3777,354.411 L534.4719,354.4329 L532.6237,355.0052 L530.7103,354.9549 L528.8237,355.1608 L526.9283,355.2825 L526.8651,355.0196 L524.5005,355.6811 L522.2121,356.6593 L519.816,357.1894 L517.3812,357.5589 L515,358.1512 L514.9272,358.0279 L513.068,359.1792 L511.0798,360.1122 L509.446,361.6454 L507.6369,362.8815 L505.5872,363.7103 L505.7209,363.9023 L503.9621,365.2192 L501.9491,366.1714 L500.2043,367.5085 L498.282,368.5909 L496.5788,369.9877 L496.6578,370.0861 L494.9267,371.455 L493.291,372.9427 L491.3526,374.0536 L489.6584,375.4684 L487.975,376.8968 L488.1076,377.0426 L486.5048,378.5743 L484.5421,379.7101 L482.9976,381.3058 L481.4604,382.9095 L479.7759,384.3513 L479.5825,384.1608 L478.329,386.0442 L476.74,387.5972 L475.0675,389.068 L473.5856,390.7265 L471.9818,392.2648 L472.2235,392.4803 L470.4002,393.8295 L469.1306,395.6724 L467.643,397.3209 L466.1088,398.9279 L464.5926,400.5508 L464.6412,400.5904 L463.2349,402.2971 L461.584,403.8045 L460.2641,405.5816 L458.8464,407.279 L457.6086,409.123 L457.6313,409.14 L456.3243,410.9009 L455.0347,412.6749 L453.558,414.3086 L452.3217,416.1225 L451.03,417.8949 L450.9861,417.8644 L450.0059,419.8182 L448.7164,421.5572 L447.1489,423.1029 L446.0648,424.9846 L444.8568,426.7801 L444.6414,426.6408 L443.8109,428.6322 L442.7768,430.4919 L441.5995,432.2589 L440.0803,433.8047 L439.0893,435.6923 L439.2656,435.7991 L437.7345,437.2918 L437.0206,439.2794 L435.7584,440.9349 L434.8366,442.7967 L433.7275,444.5449 L433.8203,444.5977 L432.9186,446.39 L431.467,447.8693 L430.9376,449.8735 L429.8316,451.5495 L428.7716,453.2516 L428.9115,453.3248 L427.3274,456.7316 L425.2963,459.9048 L423.6245,463.2658 L421.9008,466.5996 L420.0781,469.8817 L420.1574,469.919 L418.6641,472.8834 L417.5366,476.02 L415.5921,478.7719 L414.6509,481.9963 L413.01,484.8912 " fill="none" style="stroke:#181818;stroke-width:4.0;"/><polygon fill="#181818" points="410.67,489.2012,410.7171,489.253,412.035,487.7743,413.6291,486.5996,415.1332,485.3259,416.3416,483.7267,417.9594,482.5781,417.95,482.5539,416.8533,482.8551,415.8038,483.2779,414.7872,483.7854,413.6573,484.0013,412.6861,484.6256,412.8581,484.6924,412.0807,483.4949,411.8056,482.4925,411.5918,481.5138,411.0214,480.3967,410.6385,479.3524,410.6613,479.3524,410.6342,481.3221,410.7106,483.2921,410.7371,485.2619,410.8589,487.232,410.67,489.2012" style="stroke:#181818;stroke-width:4.0;"/><text fill="#000000" font-family="Chalkduster" font-size="24" lengthAdjust="spacing" textLength="373" x="516" y="382.992">Export in RO-Crate format</text></g><!--link om to ro--><g id="link_om_ro"><path d="M100.22,291.6712 L100.2931,291.7293 L102.3415,294.4064 L104.8184,297.4243 L107.1558,300.3312 L109.0342,302.8732 L111.548,305.9204 L111.5217,305.898 L113.9772,308.825 L116.5654,311.8648 L119.2459,314.983 L121.6085,317.831 L124.4162,321.0574 L124.5988,321.2224 L125.5831,322.3898 L127.1003,324.0389 L128.6826,325.7469 L129.8865,327.1128 L131.2894,328.6586 L131.3114,328.6795 L132.6975,330.1413 L134.1837,331.6983 L135.6217,333.2094 L137.1517,334.8081 L138.3814,336.1213 L138.5916,336.333 L140.0452,337.7764 L141.3633,339.0833 L142.8798,340.5901 L144.4056,342.1062 L145.6367,343.3256 L145.4188,343.0905 L147.3144,344.9118 L148.4925,345.9592 L150.216,347.5949 L151.3778,348.6247 L153,350.1512 L152.98,350.1282 L155.6095,352.4816 L157.7722,354.2984 L160.2104,356.4318 L162.6717,358.5918 L164.9661,360.56 L165.0844,360.7023 L167.4383,362.6143 L169.9943,364.7693 L172.2233,366.5311 L174.94,368.8795 L177.3325,370.8379 L177.4844,371.0283 L179.9941,373.0168 L182.5792,375.0998 L184.8138,376.7435 L187.3054,378.7092 L190.0245,380.9603 L189.8563,380.7413 L192.5972,382.928 L195.1486,384.868 L197.975,387.166 L200.3319,388.8528 L202.9678,390.9029 L202.8769,390.7805 L205.6523,392.932 L208.0392,394.5603 L210.7024,396.5607 L213.6358,398.9252 L216.088,400.6413 L216.201,400.7985 L218.9231,402.8083 L221.2935,404.3291 L224.1043,406.4623 L226.8192,408.4622 L229.3105,410.1511 L229.1903,409.979 L231.9362,411.9675 L234.6428,413.8997 L237.4267,415.9427 L239.9098,417.555 L242.561,419.4079 L242.6766,419.5779 L245.0634,421.0003 L247.6733,422.7508 L250.6093,424.9807 L252.945,426.328 L255.765,428.3874 L255.89,428.5759 L258.4324,430.1995 L260.9324,431.7593 L263.5279,433.463 L266.3441,435.4995 L268.8481,437.0651 L268.7757,436.9535 L271.5687,438.9562 L273.8695,440.1996 L276.7299,442.3063 L279.2753,443.927 L281.7357,445.4167 L281.7936,445.5089 L286.7252,448.5599 L291.864,451.941 L296.8156,455.0239 L301.6889,457.9821 L306.6272,461.0438 L306.6888,461.1458 L311.2406,463.8002 L316.0785,466.9283 L320.5927,469.5206 L325.2401,472.3334 L329.8438,475.0737 L329.7074,474.8402 L333.9422,477.3657 L338.3413,480.1723 L342.5079,482.5811 L346.5911,484.8472 L350.79,487.3112 " fill="none" style="stroke:#181818;stroke-width:4.0;"/><polygon fill="#181818" points="96.81,288.2112,96.8781,288.2275,97.1354,290.0943,97.7921,292.0569,98.3187,293.9884,98.4176,295.8172,99.1086,297.788,99.0829,297.7846,99.1161,296.6478,99.2788,295.5281,99.5315,294.4203,99.474,293.2715,99.851,292.1801,99.8752,292.3631,100.945,292.1203,102.0855,292.4117,103.2346,292.7683,104.3335,292.7457,105.4589,292.9225,105.4698,292.9425,103.724,291.9709,102.0278,291.0902,100.3077,290.1657,98.6332,289.3249,96.81,288.2112" style="stroke:#181818;stroke-width:4.0;"/><polygon fill="#181818" points="354.75,490.1512,354.8066,490.1925,353.476,488.4795,352.4769,487.0089,351.3699,485.4594,349.9079,483.6503,348.9373,482.2005,348.9123,482.1938,349.0954,483.2556,349.4046,484.3514,349.8014,485.471,349.8963,486.5089,350.4141,487.6612,350.4623,487.8394,349.2671,487.7538,348.2126,488.1883,347.1753,488.6863,346.0381,488.8151,344.9534,489.138,344.9557,489.1606,346.9116,489.3301,348.8782,489.6025,350.8396,489.8252,352.8108,490.1427,354.75,490.1512" style="stroke:#181818;stroke-width:4.0;"/></g><!--link he to ro--><g id="link_he_ro"><path d="M246.35,291.8812 L246.5803,292.0408 L251.4847,299.6281 L257.7393,308.1513 L263.5542,316.3698 L267.9233,323.5859 L274.2086,332.1305 L279.4152,339.9272 L285.051,348.0215 L290.9853,356.3227 L295.8912,363.911 L302.8442,372.9184 L307.1356,380.0807 L313.1983,388.4709 L319.4771,397.011 L324.4985,404.6793 L330.256,412.858 L335.735,420.8436 L341.5544,429.0651 L347.2095,437.1728 L353.178,445.4977 L358.8603,453.6243 L364.4581,461.6922 L369.5815,469.4313 L375.3992,477.6517 L380.48,485.3612 " fill="none" style="stroke:#181818;stroke-width:4.0;"/><polygon fill="#181818" points="243.1,288.1912,243.1688,288.2041,243.3294,290.1012,243.8935,292.0744,244.3261,294.0228,244.3266,295.8897,244.9254,297.8694,244.8999,297.8647,244.9889,296.7309,245.2064,295.6205,245.5132,294.5265,245.5122,293.3762,245.9423,292.3047,245.9755,292.4862,247.0175,292.3014,248.1564,292.6466,249.307,293.0565,250.3889,293.0901,251.507,293.3216,251.5189,293.3411,249.8201,292.2865,248.1752,291.3202,246.5043,290.3114,244.8831,289.3839,243.1,288.1912" style="stroke:#181818;stroke-width:4.0;"/><polygon fill="#181818" points="383.83,489.2012,383.8988,489.2144,383.3216,487.2408,383.1477,485.345,382.8425,483.4238,382.1054,481.4194,381.9661,479.5303,381.9406,479.5257,381.6272,480.619,381.4424,481.7353,381.3469,482.8675,380.9434,483.9447,380.9713,485.099,381.0038,485.2806,379.8206,484.6932,378.7323,484.6361,377.6554,484.6438,376.5113,484.275,375.4026,484.1041,375.4144,484.1236,377.0826,485.1144,378.8044,486.1939,380.5003,487.2306,382.2456,488.3488,383.83,489.2012" style="stroke:#181818;stroke-width:4.0;"/></g><!--link ng to ro--><g id="link_ng_ro"><path d="M414.18,293.1012 L414.4597,293.1178 L413.0312,303.1274 L413.2425,313.2343 L412.9199,323.3096 L410.841,333.2806 L411.0897,343.3898 L410.0281,353.4211 L409.488,363.4835 L409.3103,373.5674 L407.8835,383.577 L408.9432,393.7344 L406.7701,403.6998 L406.7484,413.7929 L406.9891,423.9016 L405.7027,433.9196 L405.3103,443.9908 L404.5796,454.0418 L404.2624,464.1174 L403.7457,474.1811 L402.83,484.2212 " fill="none" style="stroke:#181818;stroke-width:4.0;"/><polygon fill="#181818" points="414.53,288.1912,414.5922,288.2234,413.5007,289.8763,412.7739,291.7182,411.9283,293.4986,410.6922,295.0765,409.9967,296.9347,409.9795,296.9153,410.749,296.0778,411.6051,295.338,412.5214,294.6661,413.2302,293.7602,414.2297,293.1821,414.3678,293.3046,414.823,293.8894,415.6814,294.8316,416.5889,295.8175,417.2103,296.5496,417.9822,297.4152,418.0035,297.4231,417.2818,295.5666,416.6571,293.7464,415.9855,291.9087,415.4033,290.1044,414.53,288.1912" style="stroke:#181818;stroke-width:4.0;"/><polygon fill="#181818" points="402.47,489.2012,402.5323,489.2332,403.2486,487.3865,404.3301,485.7278,405.2926,484.0078,405.8641,482.0866,406.9769,480.444,406.9597,480.4247,406.038,481.091,405.2032,481.8547,404.4288,482.6862,403.4462,483.2843,402.7552,484.2093,402.893,484.3321,401.8454,483.2251,401.1999,482.4768,400.6035,481.7721,399.7217,480.8129,398.99,479.9876,399.0112,479.9957,399.676,481.8266,400.4376,483.6941,401.1526,485.5439,401.9566,487.4274,402.47,489.2012" style="stroke:#181818;stroke-width:4.0;"/></g><!--link co to ro--><g id="link_co_ro"><path d="M595.33,291.7912 L595.4038,291.8484 L592.7485,294.8174 L590.5257,298.1221 L588.1621,301.3175 L585.3353,304.1534 L583.1497,307.4869 L583.1237,307.4642 L581.5991,308.9772 L580.2058,310.6045 L578.9037,312.3114 L577.2872,313.7441 L576.1111,315.5608 L576.2889,315.731 L574.3851,316.9584 L573.0002,318.6827 L571.6786,320.4675 L569.9887,321.8997 L568.4925,323.5174 L568.5132,323.5396 L566.8509,325.0347 L565.2829,326.6307 L563.6694,328.178 L562.1427,329.8181 L560.3329,331.1557 L560.5223,331.3861 L558.7923,332.8127 L556.9402,334.0908 L555.2669,335.5863 L553.602,337.0921 L551.6716,338.2748 L551.4875,338.0123 L550.0199,339.8014 L547.9463,340.7264 L546.3334,342.3083 L544.246,343.2137 L542.5475,344.6736 L542.5324,344.6472 L540.8021,346.055 L538.7177,346.8458 L536.8423,348.0007 L534.9844,349.1862 L533,350.1512 L533.0429,350.3311 L529.2115,351.0523 L525.4535,352.0809 L521.5768,352.612 L517.8771,353.8852 L514.0597,354.6651 L514.0929,354.9064 L510.7512,354.4018 L507.426,354.0169 L504.0241,353.0753 L500.6784,352.5418 L497.3825,352.3699 L497.3585,352.0948 L494.1565,352.0629 L490.9275,351.7211 L487.7377,351.8289 L484.481,351.1689 L481.2641,350.9654 L481.2055,350.8246 L477.8502,352.4962 L474.2446,353.5661 L470.817,355.0638 L467.5636,356.9803 L464,358.1512 L464.131,358.2937 L461.4621,360.9267 L458.3857,363.1162 L455.8197,365.8611 L453.1426,368.4851 L450.2063,370.827 L450.0411,370.6973 L447.8479,373.761 L445.6005,376.7823 L443.4594,379.8869 L440.9053,382.6672 L438.5819,385.6287 L438.7589,385.7333 L436.442,388.7656 L434.4669,391.9999 L432.9908,395.5292 L430.5958,398.5154 L428.9422,401.9397 L429.148,402.0335 L427.4578,405.4186 L425.698,408.7719 L424.0953,412.1969 L422.856,415.7874 L421.1025,419.1437 L420.9772,419.099 L420.1054,422.728 L418.3813,426.0535 L417.6264,429.724 L416.3258,433.2003 L414.8781,436.6242 L414.983,436.6535 L413.9396,440.058 L413.2716,443.5675 L412.2645,446.9821 L411.1156,450.357 L410.0844,453.7649 L410.2008,453.7904 L409.3183,456.9894 L408.9763,460.3069 L408.0229,463.4903 L407.321,466.7289 L406.5366,469.9494 L406.27,469.904 L405.8617,472.8415 L405.7745,475.8337 L405.2329,478.7485 L404.5285,481.6356 L404.05,484.5612 " fill="none" style="stroke:#181818;stroke-width:4.0;"/><polygon fill="#181818" points="598.66,288.1012,598.6956,288.1615,596.8939,288.9842,595.301,290.1606,593.6401,291.2218,591.7555,291.9044,590.1806,293.1111,590.1763,293.0855,591.2727,292.7834,592.3908,292.6101,593.524,292.5262,594.6053,292.1339,595.7592,292.1737,595.9412,292.2043,595.7395,293.2546,596.0692,294.3942,596.4636,295.5447,596.4809,296.6319,596.6966,297.7523,596.7189,297.7569,597.0789,295.82,597.5403,293.9037,597.9528,291.9775,598.4586,290.0703,598.66,288.1012" style="stroke:#181818;stroke-width:4.0;"/><polygon fill="#181818" points="403.26,489.1812,403.3195,489.2181,404.1818,487.4349,405.3929,485.8683,406.4905,484.2312,407.2144,482.3621,408.4555,480.8141,408.4399,480.7935,407.4676,481.3836,406.5742,482.0779,405.7356,482.8445,404.7081,483.3617,403.9451,484.2283,404.0923,484.3397,403.0948,483.1994,402.5269,482.3844,402.0114,481.609,401.191,480.6028,400.5309,479.718,400.5528,479.7243,401.0665,481.6076,401.6797,483.5197,402.245,485.418,402.9018,487.3426,403.26,489.1812" style="stroke:#181818;stroke-width:4.0;"/></g><!--link ro to res--><g id="link_ro_res"><path d="M401,541.6512 L401.2802,541.6512 L400.4476,551.6709 L401.2577,561.6907 L401.5329,571.7104 L400.0488,581.7302 L400.8964,591.7499 L400.4313,601.7697 L400.4887,611.7894 L400.9091,621.8092 L400.0782,631.8289 L401.7382,641.8487 L400.1596,651.8684 L400.7363,661.8882 L401.5759,671.9079 L400.8856,681.9277 L401.091,691.9474 L400.9574,701.9672 L401.238,711.9869 L401.3188,722.0067 L401.7809,732.0264 L401.8947,742.0462 L401.9057,752.0659 L401.3395,762.0857 L401.6181,772.1054 L401.9363,782.1252 L400.0384,792.1449 L401.9047,802.1647 L400.6047,812.1844 L401.7117,822.2042 L400.34,832.2239 L400.9087,842.2437 L401.9888,852.2634 L400.935,862.2832 L401.1404,872.3029 L401.4515,882.3227 L401.555,892.3424 L400.9948,902.3622 L401.383,912.3819 L400.2368,922.4017 L401.3792,932.4214 L401,942.4412 " fill="none" style="stroke:#181818;stroke-width:4.0;"/><polygon fill="#181818" points="401,947.4312,401.064,947.4596,401.6738,945.5751,402.6589,943.8573,403.5217,942.0853,403.9827,940.1346,405,938.4312,404.9817,938.4128,404.0995,939.1306,403.3096,939.9408,402.5839,940.8151,401.637,941.4682,401,942.4312,401.1305,942.5617,400.0514,941.4826,399.3534,940.7845,398.7018,940.133,397.7798,939.2109,397,938.4312,397.0208,938.4404,397.7903,940.2268,398.6544,942.0553,399.4728,943.8635,400.3784,945.7105,401,947.4312" style="stroke:#181818;stroke-width:4.0;"/><text fill="#000000" font-family="Chalkduster" font-size="24" lengthAdjust="spacing" textLength="96" x="402" y="680.622">Deposit</text></g><!--SRC=[RLBBRXin3BphArYVMY2Rt0t3WEkaQG-D2xT0WC8NhKJl2jQA2qb-f4N-lPIK-BNTWs6A77B8cG_6ARlL2BTtMaPPMLbN8RvOlEsq4D54YsEOmPnSY6YjZ8OSq1fcpb4iqJFvpThIFWZ-FAeeNMCHHcSbTp3__fD_dx4E9YBi6H9wgJ2C06G0wHnC9iVNwHJ-2k3lhDkYmuqSfMBghdDVSUjDY3dRudNsYNYzHv8bxvhh_DpBYDKYPnM9Lt6rnozFEuHxlWuyRet64LDj-8zqcIcZecw6X1yEFVa8JxZddNhqCFFHACxCoLekuxkCtb03mX5heatXMrzU9WEOOwR91qQeAKRgaYXSEuQ7Wzf6r63SodqsJlDaTBlpXPQBAkyCtrn4hrf-nZpB4nFYnjodqhHtrHJAycFuWb6ra2nodcL06fWNDGwEZTVaEncl_S2Zp4vQM69FR0Fo9ka_cVZt-AMSKtgc8TAiMWO6_aP7cbRk8xS5FCYkj_Wf4_wJ3ZWOWVe6VaYraGsVOKuQtwJL-DzYA0RniczNxcJQS0F9gw5S1eCOUYf1IZxPIa0HvKGy7o-9d4KxlHyzKS2Em_UYru6tfTzXI88kKP7N1TBowmd2SzDaDi7af8neyI9qpKMew28KB6LLulI0WOMzBxe8yGy0]--></g></svg>