<?xml version="1.0" encoding="us-ascii" standalone="no"?><svg xmlns="http://www.w3.org/2000/svg" xmlns:xlink="http://www.w3.org/1999/xlink" contentStyleType="text/css" height="346px" preserveAspectRatio="none" style="width:1283px;height:346px;background:#FFFFFF;" version="1.1" viewBox="0 0 1283 346" width="1283px" zoomAndPan="magnify"><defs/><g><polygon fill="#F1F1F1" points="821.5,15.2889,821.5,15.4991,831.3696,14.8746,841.2391,15.4822,851.1087,15.6886,860.9783,14.5756,870.8478,15.2112,880.7174,14.8625,890.587,14.9055,900.4565,15.2208,910.3261,14.5976,920.1957,15.8426,930.0652,14.6587,939.9348,15.0912,949.8043,15.7209,959.6739,15.2032,969.5435,15.3572,979.413,15.257,989.2826,15.4675,999.1522,15.5281,1009.0217,15.8746,1018.8913,15.96,1028.7609,15.9682,1038.6304,15.5436,1048.5,15.2889,1048.6439,15.3453,1051.1179,21.5003,1053.0762,27.4532,1055.9106,33.7494,1058.008,39.7568,1060.5,45.9188,1060.6657,45.9837,1057.9464,51.9846,1055.6787,58.1624,1053.5302,64.3869,1050.8849,70.4167,1048.5,76.5486,1048.5,76.6539,1038.6304,76.8872,1028.7609,76.9648,1018.8913,76.5447,1009.0217,76.8358,999.1522,75.9762,989.2826,76.833,979.413,77.0968,969.5435,76.9931,959.6739,77.1616,949.8043,76.0655,939.9348,75.8964,930.0652,75.9272,920.1957,76.4897,910.3261,76.3521,900.4565,77.23,890.587,76.3739,880.7174,76.2056,870.8478,76.7769,860.9783,75.8818,851.1087,76.0295,841.2391,77.1976,831.3696,76.9843,821.5,76.5486,821.728,76.6379,819.0001,70.3835,816.7991,64.3355,814.4832,58.2425,811.7534,51.9873,809.5,45.9188,809.4702,45.9071,811.9391,39.8081,814.5023,33.7461,816.6987,27.5404,819.2436,21.4712,821.5,15.2889" style="stroke:#181818;stroke-width:0.5;"/><text fill="#000000" font-family="Chalkduster" font-size="24" lengthAdjust="spacing" textLength="227" x="821.5" y="39.1298">API is versioned</text><text fill="#000000" font-family="Chalkduster" font-size="24" lengthAdjust="spacing" textLength="156" x="821.5" y="69.7597">data stable</text><text fill="#000000" font-family="Chalkduster" font-size="24" lengthAdjust="spacing" textLength="35" x="774.5" y="39.1298">no</text><text fill="#000000" font-family="Chalkduster" font-size="24" lengthAdjust="spacing" textLength="42" x="1060.5" y="39.1298">yes</text><polygon fill="#F1F1F1" points="558.5,86.5486,558.5,86.7588,568.5,86.1343,578.5,86.7419,588.5,86.9483,598.5,85.8352,608.5,86.4709,618.5,86.1221,628.5,86.1651,638.5,86.4805,648.5,85.8572,658.5,87.1023,668.5,85.9183,678.5,86.3508,688.5,86.9806,698.5,86.4628,708.5,86.6169,718.5,86.5167,728.5,86.7271,738.5,86.7878,748.5,87.1343,758.5,87.2197,768.5,87.2279,778.5,86.8032,788.5,87.0122,798.5,87.2508,808.5,85.8274,818.5,87.2271,828.5,86.2521,838.5,87.0824,848.5,86.0536,858.5,86.4801,868.5,87.2902,878.5,86.4999,888.5,86.6539,898.5,86.8872,908.5,86.9648,918.5,86.5447,928.5,86.8358,938.5,86.5486,938.427,86.3723,940.304,87.3684,942.1055,88.1819,943.86,88.8822,945.6493,89.6663,947.3388,90.2098,947.1901,90.1482,947.8702,91.8944,948.6119,93.666,949.5174,95.5056,950.2072,97.2558,951,99.0486,951.2271,99.0486,950.9418,104.1746,950.8856,109.3005,951.0761,114.4265,950.7777,119.5525,951,124.6784,950.8401,124.6122,950.4676,126.529,949.6697,128.2696,949.0295,130.0754,947.972,131.7085,947.3388,133.5173,947.3796,133.6156,945.6464,134.4313,943.743,134.8363,942.0233,135.6845,940.2838,136.485,938.5,137.1784,938.5,137.8302,928.5,137.1743,918.5,137.641,908.5,136.6247,898.5,136.5012,888.5,137.6821,878.5,136.4615,868.5,137.6874,858.5,137.3851,848.5,136.9105,838.5,136.8247,828.5,137.6372,818.5,136.8791,808.5,137.7703,798.5,136.6257,788.5,137.7959,778.5,137.6628,768.5,137.4234,758.5,137.2257,748.5,137.9051,738.5,137.792,728.5,137.3477,718.5,137.4466,708.5,137.0482,698.5,137.8949,688.5,137.3333,678.5,137.351,668.5,136.5701,658.5,136.7732,648.5,137.7092,638.5,137.6082,628.5,137.1355,618.5,136.8563,608.5,136.9595,598.5,136.4923,588.5,137.5932,578.5,137.918,568.5,137.7048,558.5,137.1784,558.5886,137.3925,556.7148,136.4041,554.9756,135.7408,553.1473,134.8624,551.4652,134.337,549.6612,133.5173,549.7372,133.5488,549.099,131.82,548.126,129.9525,547.4231,128.1968,546.8688,126.5028,546,124.6784,546.1891,124.6784,545.8292,119.5525,545.9354,114.4265,546.0498,109.3005,545.7964,104.1746,546,99.0486,546.1088,99.0937,546.8117,97.3138,547.4334,95.5002,548.2405,93.7635,549.1533,92.0705,549.6612,90.2098,549.6213,90.1134,551.4691,89.5746,553.2331,88.8333,554.9792,88.0487,556.7502,87.3242,558.5,86.5486" style="stroke:#181818;stroke-width:0.5;"/><text fill="#000000" font-family="Chalkduster" font-size="24" lengthAdjust="spacing" textLength="385" x="556" y="120.3895">download a reference copy</text><path d="M10,172.1784 L10.5605,172.1784 L8.8951,182.3722 L10.5154,192.566 L11.0658,202.7598 L8.0976,212.9536 L9.7928,223.1474 L8.8627,233.3412 L8.9773,243.535 L9.8182,253.7288 L8.1563,263.9226 L11.4764,274.1164 L8.3193,284.3102 L9.4726,294.504 L10,304.6978 L10,304.6978 L10,305.8496 L19.9138,304.469 L29.8276,304.8798 L39.7414,304.6126 L49.6552,305.1739 L59.569,305.3355 L69.4828,306.2596 L79.3966,306.4873 L89.3103,306.5091 L99.2241,305.3768 L109.1379,305.934 L119.0517,306.5704 L128.9655,302.7746 L138.8793,306.5071 L148.7931,303.9071 L158.7069,306.1213 L168.6207,303.3777 L178.5345,304.5151 L188.4483,306.6754 L198.3621,304.5678 L208.2759,304.9786 L218.1897,305.6008 L228.1034,305.8077 L238.0172,304.6874 L247.931,305.4637 L257.8448,303.1713 L267.7586,305.4561 L277.6724,306.1596 L287.5862,305.8832 L297.5,306.3325 L307.4138,303.4096 L317.3276,302.9586 L327.2414,303.0407 L337.1552,304.5408 L347.069,304.1737 L356.9828,306.5149 L366.8966,304.232 L376.8103,303.783 L386.7241,305.3065 L396.6379,302.9195 L406.5517,303.3134 L416.4655,306.4283 L426.3793,305.8596 L436.2931,306.6564 L446.2069,303.8397 L456.1207,305.549 L466.0345,306.2722 L475.9483,303.438 L485.8621,304.4422 L495.7759,305.0337 L505.6897,306.4358 L515.6034,304.6866 L525.5172,305.9313 L535.431,303.221 L545.3448,302.8918 L555.2586,306.0407 L565.1724,302.7859 L575.0862,306.055 L585,304.6978 L585,304.6978 L585.551,304.6978 L584.2856,294.3212 L584.0566,283.9446 L586.2234,273.5679 L584.2018,263.1913 L586.5783,252.8147 L585,242.4381 L584.9036,241.9563 L589.1076,242.1763 L593.0844,241.2602 L597.0427,240.2516 L601.0082,239.2793 L605,238.4381 L605.1267,239.0714 L601.107,238.1729 L597.0295,236.9856 L593.0468,236.2719 L588.9773,235.1246 L585,234.4381 L586.9105,234.4381 L585.413,223.9862 L585.4602,213.5342 L583.3777,203.0823 L583.9194,192.6304 L585,182.1784 L585.3336,182.512 L583.2701,180.4486 L580.973,178.1515 L578.7975,175.976 L576.8624,174.0408 L575,172.1784 L575,170.3486 L565.0877,173.2844 L555.1754,174.1506 L545.2632,173.5822 L535.3509,174.0316 L525.4386,171.8138 L515.5263,172.411 L505.614,171.1449 L495.7018,172.9359 L485.7895,172.8365 L475.8772,173.6515 L465.9649,171.566 L456.0526,171.82 L446.1404,173.361 L436.2281,173.6913 L426.3158,170.8117 L416.4035,171.6614 L406.4912,172.5765 L396.5789,170.5495 L386.6667,173.1208 L376.7544,172.8664 L366.8421,171.9098 L356.9298,172.5578 L347.0175,174.1216 L337.1053,171.3441 L327.193,173.0184 L317.2807,172.9402 L307.3684,172.4872 L297.4561,172.5542 L287.5439,172.4811 L277.6316,170.514 L267.7193,171.1096 L257.807,170.9477 L247.8947,172.3486 L237.9825,172.4135 L228.0702,172.6098 L218.1579,171.4025 L208.2456,171.9984 L198.3333,171.8579 L188.4211,173.7167 L178.5088,173.316 L168.5965,170.8837 L158.6842,171.984 L148.7719,170.6392 L138.8596,172.9475 L128.9474,173.8011 L119.0351,173.6306 L109.1228,171.017 L99.2105,173.4157 L89.2982,170.1976 L79.386,172.7122 L69.4737,171.3803 L59.5614,172.4364 L49.6491,172.8193 L39.7368,173.4374 L29.8246,170.2587 L19.9123,173.4464 L10,172.1784 L10,172.1784 " fill="none" style="stroke:#181818;stroke-width:4.0;"/><path d="M575,172.1784 L575.1868,172.1784 L574.6317,174.1784 L575.1718,176.1784 L575.3553,178.1784 L574.3659,180.1784 L575,182.1784 L575,182.1094 L577,181.7993 L579,181.8376 L581,182.1179 L583,181.5639 L585,182.1784 L585.348,182.5264 L582.6038,179.7823 L580.8757,178.0541 L579.2715,176.4499 L576.9461,174.1245 L575,172.1784 " fill="none" style="stroke:#181818;stroke-width:4.0;"/><text fill="#000000" font-family="Chalkduster" font-size="24" lengthAdjust="spacing" textLength="554" x="16" y="201.0193">See guide to choosing a data repository</text><text fill="#000000" font-family="Chalkduster" font-size="24" lengthAdjust="spacing" textLength="264" x="16" y="231.6492">consider copyright.</text><text fill="#000000" font-family="Chalkduster" font-size="24" lengthAdjust="spacing" textLength="328" x="16" y="262.279">NOTE: Even if you can't</text><text fill="#000000" font-family="Chalkduster" font-size="24" lengthAdjust="spacing" textLength="399" x="16" y="292.9088">redistribute you need a copy</text><polygon fill="#F1F1F1" points="617.5,213.1232,617.5,213.3334,627.5769,212.7089,637.6538,213.3165,647.7308,213.5229,657.8077,212.4098,667.8846,213.0455,677.9615,212.6967,688.0385,212.7397,698.1154,213.055,708.1923,212.4318,718.2692,213.6768,728.3462,212.4929,738.4231,212.9254,748.5,213.5551,758.5769,213.0374,768.6538,213.1914,778.7308,213.0913,788.8077,213.3017,798.8846,213.3623,808.9615,213.7089,819.0385,213.7943,829.1154,213.8025,839.1923,213.3778,849.2692,213.5868,859.3462,213.8254,869.4231,212.402,879.5,213.1232,879.5866,213.3322,881.2299,213.7641,883.1036,214.7521,884.7402,215.1675,886.5623,216.031,888.3388,216.7844,888.5672,216.879,889.0561,218.5459,889.8357,220.3333,890.6398,222.1309,891.3959,223.9085,892,225.6232,891.9987,225.6232,892.0957,230.7492,891.8092,235.8751,892.0948,241.0011,892.1827,246.1271,892,251.253,892.1369,251.3097,891.4566,253.099,890.3868,254.7269,889.6025,256.4731,888.8797,258.2448,888.3388,260.0919,888.3313,260.0737,886.546,260.7636,884.8902,261.7662,883.0133,262.2348,881.224,262.9152,879.5,263.753,879.5,263.9813,869.4231,263.0862,859.3462,263.2339,849.2692,264.402,839.1923,264.1887,829.1154,264.4875,819.0385,263.4312,808.9615,264.0722,798.8846,264.3435,788.8077,263.2806,778.7308,263.6572,768.6538,263.879,758.5769,264.4048,748.5,263.7488,738.4231,264.2156,728.3462,263.1992,718.2692,263.0758,708.1923,264.2566,698.1154,263.0361,688.0385,264.262,677.9615,263.9597,667.8846,263.4851,657.8077,263.3993,647.7308,264.2118,637.6538,263.4537,627.5769,264.3449,617.5,263.753,617.4295,263.5828,615.811,263.2109,614.0262,262.4377,612.2279,261.6318,610.435,260.8386,608.6612,260.0919,608.8849,260.1846,608.1179,258.4024,607.2488,256.5779,606.5471,254.8228,605.6921,253.0042,605,251.253,605.2388,251.253,605.0516,246.1271,605.0575,241.0011,604.7972,235.8751,604.8649,230.7492,605,225.6232,605.1634,225.6909,605.8646,223.9103,606.4512,222.0822,607.0975,220.2788,607.8615,218.5242,608.6612,216.7844,608.5736,216.5731,610.4818,216.1799,612.291,215.5477,614.0316,214.7498,615.8209,214.0694,617.5,213.1232" style="stroke:#181818;stroke-width:0.5;"/><text fill="#000000" font-family="Chalkduster" font-size="24" lengthAdjust="spacing" textLength="267" x="615" y="246.9641">Archive the dataset</text><polygon fill="#F1F1F1" points="983.5,86.5486,983.5,86.7588,993.3571,86.1343,1003.2143,86.7419,1013.0714,86.9483,1022.9286,85.8352,1032.7857,86.4709,1042.6429,86.1221,1052.5,86.1651,1062.3571,86.4805,1072.2143,85.8572,1082.0714,87.1023,1091.9286,85.9183,1101.7857,86.3508,1111.6429,86.9806,1121.5,86.4628,1131.3571,86.6169,1141.2143,86.5167,1151.0714,86.7271,1160.9286,86.7878,1170.7857,87.1343,1180.6429,87.2197,1190.5,87.2279,1200.3571,86.8032,1210.2143,87.0122,1220.0714,87.2508,1229.9286,85.8274,1239.7857,87.2271,1249.6429,86.2521,1259.5,86.5486,1259.5681,86.713,1261.2046,87.1284,1263.0268,87.992,1264.8979,88.9737,1266.5649,89.4625,1268.3388,90.2098,1268.3713,90.2232,1269.1754,92.0207,1269.9315,93.7984,1270.5343,95.5126,1271.3562,97.3175,1272,99.0486,1271.4276,99.0486,1272.2844,108.4252,1272.5482,117.8018,1272.4445,127.1784,1272.613,136.5551,1271.5169,145.9317,1272,155.3083,1271.7992,155.2251,1271.0764,156.9968,1270.5174,158.8363,1269.7428,160.5865,1269.2809,162.4663,1268.3388,164.1471,1268.3166,164.0933,1266.5273,164.7737,1264.8324,165.6819,1262.9505,166.1385,1261.2015,166.9162,1259.5,167.8083,1259.5,168.4572,1249.6429,168.244,1239.7857,168.5428,1229.9286,167.4865,1220.0714,168.1275,1210.2143,168.3987,1200.3571,167.3359,1190.5,167.7124,1180.6429,167.9343,1170.7857,168.46,1160.9286,167.8041,1151.0714,168.2709,1141.2143,167.2545,1131.3571,167.131,1121.5,168.3119,1111.6429,167.0913,1101.7857,168.3172,1091.9286,168.0149,1082.0714,167.5404,1072.2143,167.4545,1062.3571,168.267,1052.5,167.509,1042.6429,168.4001,1032.7857,167.2555,1022.9286,168.4257,1013.0714,168.2926,1003.2143,168.0533,993.3571,167.8555,983.5,167.8083,983.5927,168.032,981.8105,167.265,979.9861,166.3959,978.2309,165.6942,976.4123,164.8392,974.6612,164.1471,974.8818,164.2385,973.9766,162.3991,973.2498,160.6336,972.2771,158.7662,971.6074,157.0244,971,155.3083,971.5307,155.3083,971.4298,145.9317,970.9571,136.5551,970.6778,127.1784,970.7811,117.8018,970.3138,108.4252,971,99.0486,971.1277,99.1015,971.96,97.3752,972.6266,95.5802,973.4107,93.834,973.8868,91.9601,974.6612,90.2098,974.6723,90.2366,976.3795,89.3582,978.2329,88.8328,979.9959,88.0891,981.8027,87.451,983.5,86.5486" style="stroke:#181818;stroke-width:0.5;"/><text fill="#000000" font-family="Chalkduster" font-size="24" lengthAdjust="spacing" textLength="281" x="981" y="120.3895">Archive a list of IDs</text><text fill="#000000" font-family="Chalkduster" font-size="24" lengthAdjust="spacing" textLength="131" x="981" y="151.0193">metadata</text><polygon fill="#F1F1F1" points="935,310.6978,935.0495,310.7473,937.3023,313.0001,939.8456,315.5433,942.2942,317.992,944.4319,320.1296,947,322.6978,946.9817,322.6795,944.4995,324.9973,942.1096,327.4074,939.7839,329.8817,937.237,332.1348,935,334.6978,935.1305,334.8283,932.4514,332.1492,930.1534,329.8512,927.9018,327.5996,925.3798,325.0776,923,322.6978,923.0161,322.7139,925.3925,320.2903,927.8421,317.9399,930.2564,315.5541,932.738,313.2358,935,310.6978" style="stroke:#181818;stroke-width:0.5;"/><path d="M748.5,137.1784 L748.7802,137.1784 L747.9476,146.6715 L748.7577,156.1646 L749.0329,165.6577 L747.5488,175.1508 L748.3964,184.6439 L747.9313,194.137 L747.9887,203.6301 L748.5,213.1232 " fill="#181818" style="stroke:#181818;stroke-width:4.0;"/><polygon fill="#181818" points="744.5,203.1232,744.565,203.1492,745.1718,205.0719,746.1598,207.1471,747.0237,209.1727,747.4792,211.0349,748.5,213.1232,748.4759,213.1136,749.168,211.0704,749.9813,209.0757,750.8789,207.1148,751.486,205.0376,752.5,203.1232,752.6305,203.2537,751.5514,203.7746,750.8534,204.6766,750.2018,205.625,749.2798,206.303,748.5,207.1232,748.5161,207.1393,747.6925,206.3157,746.9421,205.5653,746.1564,204.7796,745.438,204.0612,744.5,203.1232" style="stroke:#181818;stroke-width:1.0;"/><path d="M809.5,45.9188 L809.5,46.199 L799.3333,45.3664 L789.1667,46.1765 L779,46.4517 L768.8333,44.9676 L758.6667,45.8152 L748.5,45.9188 " fill="#181818" style="stroke:#181818;stroke-width:4.0;"/><path d="M748.5,45.9188 L748.5934,45.9188 L748.3159,54.0447 L748.5859,62.1707 L748.6776,70.2967 L748.1829,78.4226 L748.5,86.5486 " fill="#181818" style="stroke:#181818;stroke-width:4.0;"/><polygon fill="#181818" points="744.5,76.5486,744.565,76.5746,745.1718,78.4973,746.1598,80.5725,747.0237,82.5981,747.4792,84.4603,748.5,86.5486,748.4759,86.539,749.168,84.4958,749.9813,82.5011,750.8789,80.5402,751.486,78.463,752.5,76.5486,752.6305,76.6791,751.5514,77.2001,750.8534,78.102,750.2018,79.0504,749.2798,79.7284,748.5,80.5486,748.5161,80.5647,747.6925,79.7411,746.9421,78.9907,746.1564,78.205,745.438,77.4867,744.5,76.5486" style="stroke:#181818;stroke-width:1.0;"/><path d="M1060.5,45.9188 L1060.5,46.199 L1070.6667,45.3664 L1080.8333,46.1765 L1091,46.4517 L1101.1667,44.9676 L1111.3333,45.8152 L1121.5,45.9188 " fill="#181818" style="stroke:#181818;stroke-width:4.0;"/><path d="M1121.5,45.9188 L1121.5934,45.9188 L1121.3159,54.0447 L1121.5859,62.1707 L1121.6776,70.2967 L1121.1829,78.4226 L1121.5,86.5486 " fill="#181818" style="stroke:#181818;stroke-width:4.0;"/><polygon fill="#181818" points="1117.5,76.5486,1117.565,76.5746,1118.1718,78.4973,1119.1598,80.5725,1120.0237,82.5981,1120.4792,84.4603,1121.5,86.5486,1121.4759,86.539,1122.168,84.4958,1122.9813,82.5011,1123.8789,80.5402,1124.486,78.463,1125.5,76.5486,1125.6305,76.6791,1124.5514,77.2001,1123.8534,78.102,1123.2018,79.0504,1122.2798,79.7284,1121.5,80.5486,1121.5161,80.5647,1120.6925,79.7411,1119.9421,78.9907,1119.1564,78.205,1118.438,77.4867,1117.5,76.5486" style="stroke:#181818;stroke-width:1.0;"/><path d="M748.5,263.753 L748.7802,263.753 L747.9476,273.5772 L748.7577,283.4013 L749.0329,293.2254 L747.5488,303.0495 L748.3964,312.8737 L748.5,322.6978 " fill="#181818" style="stroke:#181818;stroke-width:4.0;"/><path d="M748.5,322.6978 L748.5,322.978 L758.7647,322.1454 L769.0294,322.9555 L779.2941,323.2307 L789.5588,321.7466 L799.8235,322.5942 L810.0882,322.1291 L820.3529,322.1865 L830.6176,322.6069 L840.8824,321.776 L851.1471,323.436 L861.4118,321.8574 L871.6765,322.4341 L881.9412,323.2737 L892.2059,322.5834 L902.4706,322.7888 L912.7353,322.6552 L923,322.6978 " fill="#181818" style="stroke:#181818;stroke-width:4.0;"/><polygon fill="#181818" points="913,318.6978,913.026,318.7628,914.9487,319.3696,917.0239,320.3576,919.0495,321.2215,920.9117,321.677,923,322.6978,922.9904,322.6737,920.9472,323.3658,918.9525,324.1791,916.9916,325.0767,914.9144,325.6838,913,326.6978,913.1305,326.8283,913.6514,325.7492,914.5534,325.0512,915.5018,324.3996,916.1798,323.4776,917,322.6978,917.0161,322.7139,916.1925,321.8903,915.4421,321.1399,914.6564,320.3541,913.938,319.6358,913,318.6978" style="stroke:#181818;stroke-width:1.0;"/><path d="M1121.5,167.8083 L1121.7802,167.8083 L1120.9476,178.1342 L1121.7577,188.4602 L1122.0329,198.7862 L1120.5488,209.1121 L1121.3964,219.4381 L1120.9313,229.7641 L1120.9887,240.09 L1121.4091,250.416 L1120.5782,260.742 L1122.2382,271.0679 L1120.6596,281.3939 L1121.2363,291.7199 L1122.0759,302.0458 L1121.3856,312.3718 L1121.5,322.6978 " fill="#181818" style="stroke:#181818;stroke-width:4.0;"/><path d="M1121.5,322.6978 L1121.5,322.978 L1111.2353,322.1454 L1100.9706,322.9555 L1090.7059,323.2307 L1080.4412,321.7466 L1070.1765,322.5942 L1059.9118,322.1291 L1049.6471,322.1865 L1039.3824,322.6069 L1029.1176,321.776 L1018.8529,323.436 L1008.5882,321.8574 L998.3235,322.4341 L988.0588,323.2737 L977.7941,322.5834 L967.5294,322.7888 L957.2647,322.6552 L947,322.6978 " fill="#181818" style="stroke:#181818;stroke-width:4.0;"/><polygon fill="#181818" points="957,318.6978,957.026,318.7628,954.9487,319.3696,953.0239,320.3576,951.0495,321.2215,948.9117,321.677,947,322.6978,946.9904,322.6737,948.9472,323.3658,950.9525,324.1791,952.9916,325.0767,954.9144,325.6838,957,326.6978,957.1305,326.8283,956.0514,325.7492,955.3534,325.0512,954.7018,324.3996,953.7798,323.4776,953,322.6978,953.0161,322.7139,953.7925,321.8903,954.6421,321.1399,955.4564,320.3541,956.338,319.6358,957,318.6978" style="stroke:#181818;stroke-width:1.0;"/><!--SRC=[HOwnRiCm44DtVGKxDHdYxiuKe1cof0NQCK2XIBGjGBuB9Dc5_xvIbevtU2JVIn0N5y-VsSg6xitROW_HtW-vR97Tx8q90tQdpmj2nigKWmhzJHg8NEmzSeyoKR0JtSFqNdybglMmI1oOA8vm-jYEfZybDuMLZKSho2n76D52H0x5V94Ob-0heN2JQWuorgBdMEAZtaNJPfnAhbHwzgOmJgM3kNvydtkSrwfIbJTTuAoy5fX47t99uRxKdVONikcriA5uD073c8dTnhp_zxI8DGaTS7dFDvbPR5CvjbGOp1y0]--></g></svg>