<?xml version="1.0" encoding="us-ascii" standalone="no"?><svg xmlns="http://www.w3.org/2000/svg" xmlns:xlink="http://www.w3.org/1999/xlink" contentStyleType="text/css" height="831px" preserveAspectRatio="none" style="width:1620px;height:831px;background:#FFFFFF;" version="1.1" viewBox="0 0 1620 831" width="1620px" zoomAndPan="magnify"><defs/><g><text fill="#000000" font-family="Chalkduster" font-size="42" font-weight="bold" lengthAdjust="spacing" textLength="1104" x="256.5" y="61.7215">Digital (Humantities &amp; other) Research Phases</text><path d="M980,84.8912 L980.5605,84.8912 L978.8951,95.2122 L980.5154,105.5333 L981.0658,115.8543 L978.0976,126.1754 L979.7928,136.4964 L978.8627,146.8175 L978.9773,157.1385 L979.8182,167.4596 L980,177.7807 L979.8795,177.178 L976.0965,179.0632 L971.8901,178.8313 L967.9655,180.0083 L964.0753,181.3572 L960,181.7807 L959.985,181.7059 L964.0119,182.6401 L967.9944,183.3528 L972.0311,184.3363 L976.0417,185.1891 L980,185.7807 L981.5618,185.7807 L981.7895,196.1017 L981.8114,206.4228 L980.679,216.7438 L981.2362,227.0649 L981.8726,237.3859 L978.0768,247.707 L981.8094,258.028 L979.2093,268.3491 L980,278.6702 L980,278.6702 L980,280.0937 L989.9583,277.3501 L999.9167,278.4875 L1009.875,280.6478 L1019.8333,278.5402 L1029.7917,278.951 L1039.75,279.5732 L1049.7083,279.7801 L1059.6667,278.6597 L1069.625,279.4361 L1079.5833,277.1437 L1089.5417,279.4285 L1099.5,280.132 L1109.4583,279.8556 L1119.4167,280.3049 L1129.375,277.3819 L1139.3333,276.931 L1149.2917,277.0131 L1159.25,278.5131 L1169.2083,278.1461 L1179.1667,280.4873 L1189.125,278.2044 L1199.0833,277.7554 L1209.0417,279.2789 L1219,276.8919 L1228.9583,277.2858 L1238.9167,280.4007 L1248.875,279.8319 L1258.8333,280.6288 L1268.7917,277.812 L1278.75,279.5214 L1288.7083,280.2446 L1298.6667,277.4104 L1308.625,278.4145 L1318.5833,279.0061 L1328.5417,280.4082 L1338.5,278.659 L1348.4583,279.9037 L1358.4167,277.1934 L1368.375,276.8641 L1378.3333,280.0131 L1388.2917,276.7583 L1398.25,280.0274 L1408.2083,279.2212 L1418.1667,277.9557 L1428.125,277.7268 L1438.0833,279.8935 L1448.0417,277.8719 L1458,278.6702 L1458,278.6702 L1459.5783,278.6702 L1456.526,268.4602 L1459.6465,258.2503 L1459.2915,248.0403 L1458.6532,237.8304 L1458.1259,227.6204 L1459.9376,217.4105 L1459.6362,207.2005 L1458.4513,196.9906 L1458.7152,186.7807 L1457.6526,176.5707 L1459.9105,166.3608 L1458.413,156.1508 L1458.4602,145.9409 L1456.3777,135.7309 L1456.9194,125.521 L1459.4153,115.311 L1459.146,105.1011 L1458,94.8912 L1457.973,94.8642 L1455.7975,92.6887 L1453.8624,90.7536 L1451.5687,88.4599 L1450.2607,87.1518 L1448,84.8912 L1448,86.8633 L1438.0426,86.2949 L1428.0851,86.7443 L1418.1277,84.5266 L1408.1702,85.1237 L1398.2128,83.8576 L1388.2553,85.6486 L1378.2979,85.5492 L1368.3404,86.3642 L1358.383,84.2787 L1348.4255,84.5327 L1338.4681,86.0737 L1328.5106,86.4041 L1318.5532,83.5244 L1308.5957,84.3741 L1298.6383,85.2892 L1288.6809,83.2622 L1278.7234,85.8335 L1268.766,85.5791 L1258.8085,84.6225 L1248.8511,85.2705 L1238.8936,86.8343 L1228.9362,84.0568 L1218.9787,85.7311 L1209.0213,85.6529 L1199.0638,85.1999 L1189.1064,85.267 L1179.1489,85.1938 L1169.1915,83.2267 L1159.234,83.8223 L1149.2766,83.6604 L1139.3191,85.0614 L1129.3617,85.1262 L1119.4043,85.3225 L1109.4468,84.1152 L1099.4894,84.7111 L1089.5319,84.5706 L1079.5745,86.4294 L1069.617,86.0287 L1059.6596,83.5964 L1049.7021,84.6967 L1039.7447,83.3519 L1029.7872,85.6602 L1019.8298,86.5138 L1009.8723,86.3433 L999.9149,83.7297 L989.9574,86.1284 L980,84.8912 L980,84.8912 " fill="none" style="stroke:#181818;stroke-width:4.0;"/><path d="M1448,84.8912 L1448.1868,84.8912 L1447.6317,86.8912 L1448.1718,88.8912 L1448.3553,90.8912 L1447.3659,92.8912 L1448,94.8912 L1448,94.8221 L1450,94.5121 L1452,94.5503 L1454,94.8306 L1456,94.2766 L1458,94.8912 L1458.348,95.2391 L1455.6038,92.495 L1453.8757,90.7669 L1452.2715,89.1627 L1449.9461,86.8372 L1448,84.8912 " fill="none" style="stroke:#181818;stroke-width:4.0;"/><text fill="#000000" font-family="Chalkduster" font-size="24" lengthAdjust="spacing" textLength="373" x="986" y="113.732">Desired end-state is that a</text><text fill="#000000" font-family="Chalkduster" font-size="24" lengthAdjust="spacing" textLength="419" x="986" y="144.3619">stable reference-copy of data</text><text fill="#000000" font-family="Chalkduster" font-size="24" lengthAdjust="spacing" textLength="412" x="986" y="174.9917">used for analysis, annotation</text><text fill="#000000" font-family="Chalkduster" font-size="24" lengthAdjust="spacing" textLength="411" x="986" y="205.6215">and outreach is available for</text><text fill="#000000" font-family="Chalkduster" font-size="24" lengthAdjust="spacing" textLength="457" x="986" y="236.2514">re-use by other parties inlcuding</text><text fill="#000000" font-family="Chalkduster" font-size="24" lengthAdjust="spacing" textLength="223" x="986" y="266.8812">your future-self</text><polygon fill="#F1F1F1" points="661.5,156.4657,661.5,156.6759,671.3621,156.0514,681.2241,156.659,691.0862,156.8654,700.9483,155.7523,710.8103,156.388,720.6724,156.0393,730.5345,156.0822,740.3966,156.3976,750.2586,155.7744,760.1207,157.0194,769.9828,155.8355,779.8448,156.268,789.7069,156.8977,799.569,156.38,809.431,156.534,819.2931,156.4338,829.1552,156.6443,839.0172,156.7049,848.8793,157.0514,858.7414,157.1368,868.6034,157.145,878.4655,156.7204,888.3276,156.9293,898.1897,157.168,908.0517,155.7446,917.9138,157.1443,927.7759,156.1692,937.6379,156.9996,947.5,156.4657,947.4369,156.3133,949.259,157.1769,951.1301,158.1586,952.7971,158.6474,954.5845,159.4271,956.3388,160.1269,956.4431,160.1701,957.1993,161.9478,957.8021,163.6619,958.624,165.4668,959.0915,167.125,960,168.9657,960.0948,168.9657,960.1827,174.0917,960.1482,179.2177,960.2043,184.3436,959.839,189.4696,960,194.5956,959.7992,194.5124,959.0764,196.2841,958.5174,198.1236,957.7428,199.8738,957.2809,201.7536,956.3388,203.4344,956.3166,203.3806,954.5273,204.061,952.8324,204.9692,950.9505,205.4258,949.2015,206.2035,947.5,207.0956,947.5,207.7445,937.6379,207.5312,927.7759,207.8301,917.9138,206.7738,908.0517,207.4148,898.1897,207.686,888.3276,206.6232,878.4655,206.9997,868.6034,207.2216,858.7414,207.7473,848.8793,207.0914,839.0172,207.5581,829.1552,206.5418,819.2931,206.4183,809.431,207.5992,799.569,206.3786,789.7069,207.6045,779.8448,207.3022,769.9828,206.8277,760.1207,206.7418,750.2586,207.5543,740.3966,206.7962,730.5345,207.6874,720.6724,206.5428,710.8103,207.713,700.9483,207.5799,691.0862,207.3405,681.2241,207.1428,671.3621,207.8222,661.5,207.0956,661.5783,207.2845,659.7538,206.4155,657.9987,205.7137,656.1801,204.8588,654.5203,204.3873,652.6612,203.4344,652.7089,203.4542,651.9821,201.6887,651.0094,199.8213,650.3397,198.0794,649.8957,196.431,649,194.5956,649.1433,194.5956,648.9857,189.4696,648.8926,184.3436,648.927,179.2177,648.7713,174.0917,649,168.9657,649.1277,169.0186,649.96,167.2923,650.6266,165.4974,651.4107,163.7511,651.8868,161.8772,652.6612,160.1269,652.6723,160.1538,654.3795,159.2753,656.2329,158.7499,657.9959,158.0062,659.8027,157.3681,661.5,156.4657" style="stroke:#181818;stroke-width:0.5;"/><text fill="#000000" font-family="Chalkduster" font-size="24" lengthAdjust="spacing" textLength="291" x="659" y="190.3066">Prepare To Get Data</text><path d="M915.5,303.6702 L915.6868,303.6702 L915.1317,306.9331 L915.6718,310.1961 L915.8553,313.4591 L914.8659,316.7221 L915.5,319.9851 L915.4865,319.9173 L911.4257,320.4133 L907.4331,321.2508 L903.4881,322.3257 L899.3795,322.5825 L895.5,323.9851 L895.5965,324.4676 L899.3901,324.2357 L903.4655,325.4127 L907.5753,326.7616 L911.485,327.1103 L915.5,327.9851 L915.5607,327.9851 L915.4716,331.2481 L915.6587,334.511 L915.7126,337.774 L916.0206,341.037 L915.5,344.3 L915.5,344.3 L915.5,346.0895 L925.7105,346.1113 L935.9211,344.979 L946.1316,345.5362 L956.3421,346.1726 L966.5526,342.3768 L976.7632,346.1094 L986.9737,343.5093 L997.1842,345.7235 L1007.3947,342.9799 L1017.6053,344.1173 L1027.8158,346.2776 L1038.0263,344.17 L1048.2368,344.5808 L1058.4474,345.203 L1068.6579,345.4099 L1078.8684,344.2896 L1089.0789,345.0659 L1099.2895,342.7735 L1109.5,344.3 L1109.5,344.3 L1109.7528,344.3 L1109.9873,338.174 L1109.8951,332.0481 L1110.0449,325.9221 L1109.0706,319.7961 L1109.5,313.6702 L1109.0901,313.2602 L1107.1094,311.2796 L1105.463,309.6332 L1103.3765,307.5466 L1101.9283,306.0985 L1099.5,303.6702 L1099.5,303.2044 L1089.2778,302.7554 L1079.0556,304.2789 L1068.8333,301.8919 L1058.6111,302.2858 L1048.3889,305.4007 L1038.1667,304.8319 L1027.9444,305.6288 L1017.7222,302.812 L1007.5,304.5214 L997.2778,305.2446 L987.0556,302.4104 L976.8333,303.4145 L966.6111,304.0061 L956.3889,305.4082 L946.1667,303.659 L935.9444,304.9037 L925.7222,302.1934 L915.5,303.6702 L915.5,303.6702 " fill="none" style="stroke:#181818;stroke-width:4.0;"/><path d="M1099.5,303.6702 L1099.6868,303.6702 L1099.1317,305.6702 L1099.6718,307.6702 L1099.8553,309.6702 L1098.8659,311.6702 L1099.5,313.6702 L1099.5,313.6011 L1101.5,313.2911 L1103.5,313.3293 L1105.5,313.6096 L1107.5,313.0556 L1109.5,313.6702 L1109.848,314.0181 L1107.1038,311.274 L1105.3757,309.5459 L1103.7715,307.9417 L1101.4461,305.6162 L1099.5,303.6702 " fill="none" style="stroke:#181818;stroke-width:4.0;"/><text fill="#000000" font-family="Chalkduster" font-size="24" lengthAdjust="spacing" textLength="173" x="921.5" y="332.511">One or more</text><polygon fill="#F1F1F1" points="726,298.6702,726,298.8803,735.8125,298.2558,745.625,298.8634,755.4375,299.0698,765.25,297.9568,775.0625,298.5924,784.875,298.2437,794.6875,298.2867,804.5,298.602,814.3125,297.9788,824.125,299.2238,833.9375,298.0399,843.75,298.4724,853.5625,299.1021,863.375,298.5844,873.1875,298.7384,883,298.6702,882.9959,298.6603,884.7905,299.4574,886.566,300.2083,888.378,301.0472,890.1567,301.8058,891.8388,302.3313,892.048,302.418,892.6495,304.1316,893.4461,305.926,894.2518,307.7242,894.5457,309.3104,895.5,311.1702,895.7262,311.1702,895.4012,316.2961,895.6779,321.4221,895.335,326.5481,895.4772,331.674,895.5,336.8,895.7284,336.8946,894.7528,338.5615,894.068,340.349,893.4076,342.1465,892.6993,343.9242,891.8388,345.6388,891.8383,345.6376,890.1077,346.4595,888.2303,346.927,886.5718,347.9231,884.8377,348.7366,883,349.3,883,349.7445,873.1875,349.913,863.375,348.8169,853.5625,348.6478,843.75,348.6786,833.9375,349.2411,824.125,349.1035,814.3125,349.9814,804.5,349.1253,794.6875,348.9569,784.875,349.5283,775.0625,348.6332,765.25,348.7809,755.4375,349.9489,745.625,349.7357,735.8125,350.0345,726,349.3,725.959,349.2009,724.273,348.6661,722.5398,348.0174,720.6364,346.9578,718.9167,346.3415,717.1612,345.6388,717.2,345.6549,716.6296,343.9542,715.6954,342.1028,715.1069,340.3945,714.0617,338.4971,713.5,336.8,713.2742,336.8,713.6679,331.674,713.261,326.5481,713.6697,321.4221,713.5689,316.2961,713.5,311.1702,713.4175,311.136,714.1233,309.3573,715.1057,307.6931,715.6045,305.8287,716.6112,304.1746,717.1612,302.3313,717.0907,302.1611,719.0077,301.7892,720.7585,301.016,722.4957,300.2101,724.2383,299.4169,726,298.6702" style="stroke:#181818;stroke-width:0.5;"/><text fill="#000000" font-family="Chalkduster" font-size="24" lengthAdjust="spacing" textLength="162" x="723.5" y="332.511">Source Data</text><polygon fill="#222222" points="814.5552,381.7324,813.0894,383.7353,811.3556,386.6688,808.876,388.6458,806.2703,389.7269,804.1927,389.8207,801.5224,388.4687,799.0029,387.5854,797.0905,385.792,796.0873,383.7389,795.4924,382.1041,794.9096,379.9688,793.9636,378.1313,794.6906,376.3373,795.3275,374.372,797.7175,372.8177,799.3991,370.801,801.4804,370.1313,803.9547,369.5546,807.1276,369.8972,808.8655,370.7168,810.8861,371.0883,813.3429,373.6054,814.1993,376.2627,814.5714,378.0758,814.15,381.0635" style="stroke:#222222;stroke-width:1.0;"/><polygon fill="#F1F1F1" points="804.5,409.3,804.5495,409.3495,806.8023,411.6023,809.3456,414.1456,811.7942,416.5942,813.9319,418.7318,816.5,421.3,816.4817,421.2817,813.9995,423.5995,811.6096,426.0096,809.2839,428.4839,806.737,430.737,804.5,433.3,804.6305,433.4305,801.9514,430.7514,799.6534,428.4534,797.4018,426.2018,794.8798,423.6798,792.5,421.3,792.5161,421.3161,794.8925,418.8925,797.3421,416.5421,799.7564,414.1564,802.238,411.838,804.5,409.3" style="stroke:#181818;stroke-width:0.5;"/><polygon fill="#F1F1F1" points="23.5,556.4784,23.5,556.6886,33.4189,556.0641,43.3378,556.6717,53.2568,556.8781,63.1757,555.765,73.0946,556.4007,83.0135,556.0519,92.9324,556.0949,102.8514,556.4103,112.7703,555.7871,122.6892,557.0321,132.6081,555.8482,142.527,556.2807,152.4459,556.9104,162.3649,556.3927,172.2838,556.5467,182.2027,556.4465,192.1216,556.657,202.0405,556.7176,211.9595,557.0641,221.8784,557.1495,231.7973,557.1577,241.7162,556.7331,251.6351,556.942,261.5541,557.1807,271.473,555.7573,281.3919,557.157,291.3108,556.1819,301.2297,557.0123,311.1486,555.9834,321.0676,556.4099,330.9865,557.22,340.9054,556.4297,350.8243,556.5837,360.7432,556.8171,370.6622,556.8947,380.5811,556.4745,390.5,556.4784,390.5366,556.5669,392.1947,557.0344,394.0718,558.0305,395.8732,558.844,397.6278,559.5443,399.3388,560.1396,399.5276,560.2178,399.9223,561.8458,400.6025,563.5919,401.3442,565.3636,402.2496,567.2032,403,568.9784,402.9345,568.9784,403.2271,574.1044,402.9418,579.2304,402.8856,584.3563,403.0761,589.4823,403,594.6083,402.7946,594.5232,402.1079,596.3098,401.7354,598.2266,400.9375,599.9672,400.2973,601.773,399.3388,603.4471,399.2978,603.348,397.6118,604.2776,395.8786,605.0934,393.9753,605.4983,392.2555,606.3465,390.5,607.1083,390.5,607.2343,380.5811,607.76,370.6622,607.1041,360.7432,607.5708,350.8243,606.5545,340.9054,606.431,330.9865,607.6119,321.0676,606.3913,311.1486,607.6172,301.2297,607.3149,291.3108,606.8404,281.3919,606.7545,271.473,607.567,261.5541,606.8089,251.6351,607.7001,241.7162,606.5555,231.7973,607.7257,221.8784,607.5926,211.9595,607.3532,202.0405,607.1555,192.1216,607.8349,182.2027,607.7219,172.2838,607.2775,162.3649,607.3765,152.4459,606.978,142.527,607.8247,132.6081,607.2631,122.6892,607.2808,112.7703,606.4999,102.8514,606.7031,92.9324,607.639,83.0135,607.538,73.0946,607.0653,63.1757,606.7861,53.2568,606.8893,43.3378,606.4221,33.4189,607.523,23.5,607.1083,23.5943,607.336,21.7994,606.5382,20.0531,605.8578,18.1793,604.8695,16.4401,604.2062,14.6612,603.4471,14.5418,603.3977,14.0164,601.7156,13.2727,599.9431,12.6346,598.2143,11.6615,596.3467,11,594.6083,10.9552,594.6083,11.1478,589.4823,11.1891,584.3563,10.8292,579.2304,10.9354,574.1044,11,568.9784,11.046,568.9975,11.5441,567.1328,12.5733,565.488,13.2761,563.7081,13.8979,561.8945,14.6612,560.1396,14.6793,560.1834,16.5219,559.6318,18.1568,558.5788,20.0046,558.0399,21.7687,557.2986,23.5,556.4784" style="stroke:#181818;stroke-width:0.5;"/><text fill="#000000" font-family="Chalkduster" font-size="24" lengthAdjust="spacing" textLength="372" x="21" y="590.3193">Get list of IDs / Metadata</text><polygon fill="#F1F1F1" points="108,691.053,108,691.2632,117.9,690.6387,127.8,691.2463,137.7,691.4527,147.6,690.3396,157.5,690.9753,167.4,690.6265,177.3,690.6695,187.2,690.9849,197.1,690.3617,207,691.6067,216.9,690.4227,226.8,690.8553,236.7,691.485,246.6,690.9672,256.5,691.1213,266.4,691.0211,276.3,691.2316,286.2,691.2922,296.1,691.6387,306,691.053,306.0856,691.2597,307.8544,691.9944,309.568,692.5959,311.3624,693.3925,313.1606,694.1982,314.8388,694.7142,314.6167,694.6222,315.78,696.5685,316.212,698.2119,317.1999,700.0856,317.6153,701.7221,318.5,703.553,318.4772,703.553,318.7472,708.679,318.4838,713.805,318.5351,718.9309,318.6129,724.0569,318.5,729.1829,318.6282,729.236,317.7666,730.9501,317.124,732.755,316.127,734.4131,315.6586,736.2902,314.8388,738.0217,314.9088,738.1905,313.1278,738.8908,311.3815,739.6749,309.4739,740.0696,307.6846,740.7498,306,741.6829,306,741.0615,296.1,741.624,286.2,741.4863,276.3,742.3643,266.4,741.5082,256.5,741.3398,246.6,741.9111,236.7,741.016,226.8,741.1637,216.9,742.3318,207,742.1185,197.1,742.4173,187.2,741.3611,177.3,742.0021,167.4,742.2733,157.5,741.2105,147.6,741.587,137.7,741.8088,127.8,742.3346,117.9,741.6787,108,741.6829,108.059,741.8253,106.1616,740.7801,104.3781,740.0098,102.7609,739.6413,100.8375,738.5331,99.1612,738.0217,99.3179,738.0866,98.4926,736.2803,97.6142,734.452,96.8555,732.6733,96.3735,731.0091,95.5,729.1829,95.4002,729.1829,95.6973,724.0569,95.3158,718.9309,95.7058,713.805,95.6614,708.679,95.5,703.553,95.5754,703.5843,96.2468,701.7913,97.1882,700.1102,97.8857,698.328,98.4811,696.5035,99.1612,694.7142,99.1954,694.7968,100.9123,693.9418,102.7881,693.4704,104.4842,692.5652,106.2542,691.8384,108,691.053" style="stroke:#181818;stroke-width:0.5;"/><text fill="#000000" font-family="Chalkduster" font-size="24" lengthAdjust="spacing" textLength="203" x="105.5" y="724.8939">Archive a copy</text><polygon fill="#F1F1F1" points="138,627.1083,138,627.3185,147.8571,626.694,157.7143,627.3016,167.5714,627.508,177.4286,626.3949,187.2857,627.0306,197.1429,626.6818,207,626.7248,216.8571,627.0401,226.7143,626.4169,236.5714,627.6619,246.4286,626.478,256.2857,626.9105,266.1429,627.5402,276,627.1083,275.9775,627.0906,278.4179,630.1853,280.7916,633.2277,283.2468,636.3339,285.6627,639.4094,288,642.4232,288.1537,642.5436,285.7761,645.6241,283.3782,648.6888,280.8668,651.6645,278.5216,654.7704,276,657.7381,276,658.4403,266.1429,657.0169,256.2857,658.4166,246.4286,657.4416,236.5714,658.2719,226.7143,657.2431,216.8571,657.6696,207,658.4797,197.1429,657.6894,187.2857,657.8434,177.4286,658.0767,167.5714,658.1543,157.7143,657.7342,147.8571,658.0253,138,657.7381,137.8498,657.6204,135.6746,654.7336,133.3438,651.7248,130.9166,648.6406,128.5608,645.6122,126,642.4232,125.8732,642.3239,128.2289,639.2261,130.637,636.1695,133.1846,633.2221,135.5484,630.1309,138,627.1083" style="stroke:#181818;stroke-width:0.5;"/><text fill="#000000" font-family="Chalkduster" font-size="24" lengthAdjust="spacing" textLength="42" x="211" y="681.579">yes</text><text fill="#000000" font-family="Chalkduster" font-size="24" lengthAdjust="spacing" textLength="138" x="138" y="650.9492">(c) allows</text><polygon fill="#F1F1F1" points="207,761.6829,207.0495,761.7324,209.3023,763.9852,211.8456,766.5284,214.2942,768.9771,216.4319,771.1147,219,773.6829,218.9817,773.6645,216.4995,775.9823,214.1096,778.3925,211.7839,780.8668,209.237,783.1199,207,785.6829,207.1305,785.8134,204.4514,783.1343,202.1534,780.8362,199.9018,778.5847,197.3798,776.0626,195,773.6829,195.0161,773.6989,197.3925,771.2753,199.8421,768.9249,202.2564,766.5392,204.738,764.2209,207,761.6829" style="stroke:#181818;stroke-width:0.5;"/><polygon fill="#F1F1F1" points="504.5,525.8486,504.5,526.0588,514.375,525.4343,524.25,526.0419,534.125,526.2483,544,525.1352,553.875,525.7709,563.75,525.4221,573.625,525.4651,583.5,525.8486,583.4913,525.8276,585.1796,526.3679,587.1062,527.4836,588.7229,527.8512,590.5458,528.7166,592.3388,529.5098,592.4719,529.5649,593.0447,531.2666,593.8243,533.054,594.5257,534.809,595.3227,536.6036,596,538.3486,596.0797,538.3486,596.1952,543.4746,596.2237,548.6005,596.2264,553.7265,596.0849,558.8525,596,563.9784,596.1428,564.0376,595.484,565.8358,594.3134,567.422,594.0123,569.3683,592.9798,571.0117,592.3388,572.8173,592.4069,572.9817,590.5079,573.3971,588.7946,574.2606,587.1301,575.2424,585.2616,575.7312,583.5,576.4784,583.5,576.5837,573.625,576.8171,563.75,576.8947,553.875,576.4745,544,576.7657,534.125,575.906,524.25,576.7628,514.375,577.0266,504.5,576.4784,504.5567,576.6153,502.8104,575.935,500.9028,574.8652,499.1135,574.0809,497.3497,573.3581,495.6612,572.8173,495.643,572.8098,494.8684,571.0244,494.4065,569.3687,493.4107,567.4917,492.6266,565.7024,492,563.9784,492.0761,563.9784,491.7777,558.8525,491.827,553.7265,492.2163,548.6005,492.1452,543.4746,492,538.3486,492.2262,538.4423,492.6331,536.5398,493.5628,534.8538,494.3785,533.1206,494.7835,531.2173,495.6612,529.5098,495.6489,529.4803,497.445,528.8163,499.2798,528.246,500.9639,527.3118,502.7912,526.7233,504.5,525.8486" style="stroke:#181818;stroke-width:0.5;"/><text fill="#000000" font-family="Chalkduster" font-size="24" lengthAdjust="spacing" textLength="84" x="502" y="559.6895">Text 2</text><polygon fill="#F1F1F1" points="738.5,525.8486,738.5,526.0588,748.75,525.4343,759,526.0419,769.25,526.2483,779.5,525.1352,789.75,525.7709,800,525.4221,810.25,525.4651,820.5,525.8486,820.4913,525.8276,822.1796,526.3679,824.1062,527.4836,825.7229,527.8512,827.5458,528.7166,829.3388,529.5098,829.4719,529.5649,830.0447,531.2666,830.8243,533.054,831.5257,534.809,832.3227,536.6036,833,538.3486,833.0797,538.3486,833.1952,543.4746,833.2237,548.6005,833.2264,553.7265,833.0849,558.8525,833,563.9784,833.1428,564.0376,832.484,565.8358,831.3134,567.422,831.0123,569.3683,829.9798,571.0117,829.3388,572.8173,829.4069,572.9817,827.5079,573.3971,825.7946,574.2606,824.1301,575.2424,822.2616,575.7312,820.5,576.4784,820.5,576.5837,810.25,576.8171,800,576.8947,789.75,576.4745,779.5,576.7657,769.25,575.906,759,576.7628,748.75,577.0266,738.5,576.4784,738.5567,576.6153,736.8104,575.935,734.9028,574.8652,733.1135,574.0809,731.3497,573.3581,729.6612,572.8173,729.643,572.8098,728.8684,571.0244,728.4065,569.3687,727.4107,567.4917,726.6266,565.7024,726,563.9784,726.0761,563.9784,725.7777,558.8525,725.827,553.7265,726.2163,548.6005,726.1452,543.4746,726,538.3486,726.2262,538.4423,726.6331,536.5398,727.5628,534.8538,728.3785,533.1206,728.7835,531.2173,729.6612,529.5098,729.6489,529.4803,731.445,528.8163,733.2798,528.246,734.9639,527.3118,736.7912,526.7233,738.5,525.8486" style="stroke:#181818;stroke-width:0.5;"/><text fill="#000000" font-family="Chalkduster" font-size="24" lengthAdjust="spacing" textLength="87" x="736" y="559.6895">Text 3</text><polygon fill="#F1F1F1" points="1118,525.8486,1118,526.0588,1127.7778,525.4343,1137.5556,526.0419,1147.3333,526.2483,1157.1111,525.1352,1166.8889,525.7709,1176.6667,525.4221,1186.4444,525.4651,1196.2222,525.7805,1206,525.8486,1205.9118,525.6357,1207.8384,526.7513,1209.4551,527.119,1211.2781,527.9844,1213.1262,528.9106,1214.8388,529.5098,1214.8124,529.4988,1215.5921,531.2862,1216.2935,533.0412,1217.0905,534.8358,1217.8414,536.6113,1218.5,538.3486,1218.6952,538.3486,1218.7237,543.4746,1218.7264,548.6005,1218.5849,553.7265,1218.6545,558.8525,1218.5,563.9784,1218.7163,564.068,1217.5457,565.6542,1217.2445,567.6005,1216.212,569.2439,1215.7355,571.1176,1214.8388,572.8173,1214.7757,572.6648,1213.0623,573.5284,1211.3979,574.5101,1209.5293,574.999,1207.7812,575.7786,1206,576.4784,1206,576.8171,1196.2222,576.8947,1186.4444,576.4745,1176.6667,576.7657,1166.8889,575.906,1157.1111,576.7628,1147.3333,577.0266,1137.5556,576.923,1127.7778,577.0915,1118,576.4784,1117.9384,576.3297,1116.149,575.5454,1114.3852,574.8226,1112.6892,574.2636,1110.9039,573.489,1109.1612,572.8173,1109.371,572.9042,1108.3751,571.0272,1107.5911,569.238,1107.0348,567.5431,1106.0269,565.6611,1105.5,563.9784,1105.327,563.9784,1105.7163,558.8525,1105.6452,553.7265,1105.7448,548.6005,1105.3927,543.4746,1105.5,538.3486,1105.5983,538.3893,1106.4141,536.6562,1106.819,534.7528,1107.6672,533.0331,1108.4677,531.2936,1109.1612,529.5098,1109.2443,529.7105,1110.9284,528.7763,1112.7557,528.1878,1114.3938,527.1425,1116.1458,526.3723,1118,525.8486" style="stroke:#181818;stroke-width:0.5;"/><text fill="#000000" font-family="Chalkduster" font-size="24" lengthAdjust="spacing" textLength="93" x="1115.5" y="559.6895">Text 4</text><polygon fill="#F1F1F1" points="1380.5,525.8486,1380.5,526.0588,1390.625,525.4343,1400.75,526.0419,1410.875,526.2483,1421,525.1352,1431.125,525.7709,1441.25,525.4221,1451.375,525.4651,1461.5,525.8486,1461.4913,525.8276,1463.1796,526.3679,1465.1062,527.4836,1466.7229,527.8512,1468.5458,528.7166,1470.3388,529.5098,1470.4719,529.5649,1471.0447,531.2666,1471.8243,533.054,1472.5257,534.809,1473.3227,536.6036,1474,538.3486,1474.0797,538.3486,1474.1952,543.4746,1474.2237,548.6005,1474.2264,553.7265,1474.0849,558.8525,1474,563.9784,1474.1428,564.0376,1473.484,565.8358,1472.3134,567.422,1472.0123,569.3683,1470.9798,571.0117,1470.3388,572.8173,1470.4069,572.9817,1468.5079,573.3971,1466.7946,574.2606,1465.1301,575.2424,1463.2616,575.7312,1461.5,576.4784,1461.5,576.5837,1451.375,576.8171,1441.25,576.8947,1431.125,576.4745,1421,576.7657,1410.875,575.906,1400.75,576.7628,1390.625,577.0266,1380.5,576.4784,1380.5567,576.6153,1378.8104,575.935,1376.9028,574.8652,1375.1135,574.0809,1373.3497,573.3581,1371.6612,572.8173,1371.643,572.8098,1370.8684,571.0244,1370.4065,569.3687,1369.4107,567.4917,1368.6266,565.7024,1368,563.9784,1368.0761,563.9784,1367.7777,558.8525,1367.827,553.7265,1368.2163,548.6005,1368.1452,543.4746,1368,538.3486,1368.2262,538.4423,1368.6331,536.5398,1369.5628,534.8538,1370.3785,533.1206,1370.7835,531.2173,1371.6612,529.5098,1371.6489,529.4803,1373.445,528.8163,1375.2798,528.246,1376.9639,527.3118,1378.7912,526.7233,1380.5,525.8486" style="stroke:#181818;stroke-width:0.5;"/><text fill="#000000" font-family="Chalkduster" font-size="24" lengthAdjust="spacing" textLength="86" x="1378" y="559.6895">Text 5</text><polygon fill="#F1F1F1" points="804.5,795.6829,804.5495,795.7324,806.8023,797.9852,809.3456,800.5284,811.7942,802.9771,813.9319,805.1147,816.5,807.6829,816.4817,807.6645,813.9995,809.9823,811.6096,812.3925,809.2839,814.8668,806.737,817.1199,804.5,819.6829,804.6305,819.8134,801.9514,817.1343,799.6534,814.8362,797.4018,812.5847,794.8798,810.0626,792.5,807.6829,792.5161,807.6989,794.8925,805.2753,797.3421,802.9249,799.7564,800.5392,802.238,798.2209,804.5,795.6829" style="stroke:#181818;stroke-width:0.5;"/><path d="M804.5,207.0956 L804.7802,207.0956 L803.9476,217.2705 L804.7577,227.4455 L805.0329,237.6204 L803.5488,247.7954 L804.3964,257.9703 L803.9313,268.1453 L803.9887,278.3203 L804.4091,288.4952 L804.5,298.6702 " fill="#181818" style="stroke:#181818;stroke-width:4.0;"/><polygon fill="#181818" points="800.5,288.6702,800.565,288.6962,801.1718,290.6189,802.1598,292.6941,803.0237,294.7196,803.4792,296.5818,804.5,298.6702,804.4759,298.6605,805.168,296.6174,805.9813,294.6227,806.8789,292.6617,807.486,290.5846,808.5,288.6702,808.6305,288.8007,807.5514,289.3216,806.8534,290.2235,806.2018,291.172,805.2798,291.8499,804.5,292.6702,804.5161,292.6862,803.6925,291.8626,802.9421,291.1122,802.1564,290.3265,801.438,289.6082,800.5,288.6702" style="stroke:#181818;stroke-width:1.0;"/><path d="M804.5,349.3 L804.5934,349.3 L804.3159,353.3 L804.5859,357.3 L804.6776,361.3 L804.1829,365.3 L804.5,369.3 " fill="#181818" style="stroke:#181818;stroke-width:4.0;"/><polygon fill="#181818" points="800.5,359.3,800.565,359.326,801.1718,361.2487,802.1598,363.3239,803.0237,365.3495,803.4792,367.2117,804.5,369.3,804.4759,369.2904,805.168,367.2472,805.9813,365.2525,806.8789,363.2916,807.486,361.2144,808.5,359.3,808.6305,359.4305,807.5514,359.9514,806.8534,360.8534,806.2018,361.8018,805.2798,362.4798,804.5,363.3,804.5161,363.3161,803.6925,362.4925,802.9421,361.7421,802.1564,360.9564,801.438,360.238,800.5,359.3" style="stroke:#181818;stroke-width:1.0;"/><path d="M207,657.7381 L207.0934,657.7381 L206.8159,664.4011 L207.0859,671.0641 L207.1776,677.7271 L206.6829,684.39 L207,691.053 " fill="#181818" style="stroke:#181818;stroke-width:4.0;"/><polygon fill="#181818" points="203,681.053,203.065,681.079,203.6718,683.0017,204.6598,685.077,205.5237,687.1025,205.9792,688.9647,207,691.053,206.9759,691.0434,207.668,689.0002,208.4813,687.0056,209.3789,685.0446,209.986,682.9674,211,681.053,211.1305,681.1835,210.0514,681.7045,209.3534,682.6064,208.7018,683.5548,207.7798,684.2328,207,685.053,207.0161,685.0691,206.1925,684.2455,205.4421,683.4951,204.6564,682.7094,203.938,681.9911,203,681.053" style="stroke:#181818;stroke-width:1.0;"/><path d="M288,642.4232 L288,642.5166 L296.1,642.2391 L304.2,642.5091 L312.3,642.6008 L320.4,642.1061 L328.5,642.4232 " fill="#181818" style="stroke:#181818;stroke-width:4.0;"/><polygon fill="#181818" points="324.5,704.7105,324.565,704.7365,325.1718,706.6592,326.1598,708.7344,327.0237,710.76,327.4792,712.6222,328.5,714.7105,328.4759,714.7009,329.168,712.6577,329.9813,710.663,330.8789,708.702,331.486,706.6249,332.5,704.7105,332.6305,704.841,331.5514,705.3619,330.8534,706.2639,330.2018,707.2123,329.2798,707.8903,328.5,708.7105,328.5161,708.7266,327.6925,707.903,326.9421,707.1526,326.1564,706.3668,325.438,705.6485,324.5,704.7105" style="stroke:#181818;stroke-width:4.0;"/><path d="M328.5,642.4232 L328.7802,642.4232 L327.9476,652.5201 L328.7577,662.617 L329.0329,672.7139 L327.5488,682.8108 L328.3964,692.9077 L327.9313,703.0046 L327.9887,713.1015 L328.4091,723.1984 L327.5782,733.2953 L329.2382,743.3922 L327.6596,753.4891 L328.2363,763.586 L328.5,773.6829 " fill="#181818" style="stroke:#181818;stroke-width:4.0;"/><path d="M328.5,773.6829 L328.5,773.9631 L318.5455,773.1304 L308.5909,773.9406 L298.6364,774.2158 L288.6818,772.7317 L278.7273,773.5792 L268.7727,773.1142 L258.8182,773.1715 L248.8636,773.592 L238.9091,772.761 L228.9545,774.421 L219,773.6829 " fill="#181818" style="stroke:#181818;stroke-width:4.0;"/><polygon fill="#181818" points="229,769.6829,229.026,769.7479,226.9487,770.3546,225.0239,771.3427,223.0495,772.2066,220.9117,772.6621,219,773.6829,218.9904,773.6588,220.9472,774.3509,222.9525,775.1642,224.9916,776.0618,226.9144,776.6689,229,777.6829,229.1305,777.8134,228.0514,776.7343,227.3534,776.0362,226.7018,775.3847,225.7798,774.4626,225,773.6829,225.0161,773.6989,225.7925,772.8753,226.6421,772.1249,227.4564,771.3392,228.338,770.6209,229,769.6829" style="stroke:#181818;stroke-width:1.0;"/><path d="M207,741.6829 L207.0934,741.6829 L206.8159,745.6829 L207.0859,749.6829 L207.1776,753.6829 L206.6829,757.6829 L207,761.6829 " fill="#181818" style="stroke:#181818;stroke-width:4.0;"/><polygon fill="#181818" points="203,751.6829,203.065,751.7089,203.6718,753.6316,204.6598,755.7068,205.5237,757.7323,205.9792,759.5945,207,761.6829,206.9759,761.6732,207.668,759.6301,208.4813,757.6354,209.3789,755.6744,209.986,753.5973,211,751.6829,211.1305,751.8134,210.0514,752.3343,209.3534,753.2362,208.7018,754.1847,207.7798,754.8626,207,755.6829,207.0161,755.6989,206.1925,754.8753,205.4421,754.1249,204.6564,753.3392,203.938,752.6209,203,751.6829" style="stroke:#181818;stroke-width:1.0;"/><path d="M207,607.1083 L207.0934,607.1083 L206.8159,611.1083 L207.0859,615.1083 L207.1776,619.1083 L206.6829,623.1083 L207,627.1083 " fill="#181818" style="stroke:#181818;stroke-width:4.0;"/><polygon fill="#181818" points="203,617.1083,203.065,617.1343,203.6718,619.057,204.6598,621.1322,205.5237,623.1578,205.9792,625.02,207,627.1083,206.9759,627.0987,207.668,625.0555,208.4813,623.0608,209.3789,621.0998,209.986,619.0227,211,617.1083,211.1305,617.2388,210.0514,617.7597,209.3534,618.6617,208.7018,619.6101,207.7798,620.2881,207,621.1083,207.0161,621.1244,206.1925,620.3007,205.4421,619.5504,204.6564,618.7646,203.938,618.0463,203,617.1083" style="stroke:#181818;stroke-width:1.0;"/><path d="M792.5,421.3 L792.5,421.5802 L782.5763,420.7476 L772.6525,421.5577 L762.7288,421.8329 L752.8051,420.3488 L742.8814,421.1964 L732.9576,420.7313 L723.0339,420.7887 L713.1102,421.2091 L703.1864,420.3782 L693.2627,422.0382 L683.339,420.4596 L673.4153,421.0363 L663.4915,421.8759 L653.5678,421.1856 L643.6441,421.391 L633.7203,421.2574 L623.7966,421.538 L613.8729,421.6188 L603.9492,422.0809 L594.0254,422.1947 L584.1017,422.2057 L574.178,421.6395 L564.2542,421.9181 L554.3305,422.2363 L544.4068,420.3384 L534.4831,422.2047 L524.5593,420.9047 L514.6356,422.0117 L504.7119,420.64 L494.7881,421.2087 L484.8644,422.2888 L474.9407,421.235 L465.0169,421.4404 L455.0932,421.7515 L445.1695,421.855 L435.2458,421.2948 L425.322,421.6829 L415.3983,420.5368 L405.4746,421.6792 L395.5508,422.0309 L385.6271,421.8927 L375.7034,422.1174 L365.7797,420.6559 L355.8559,420.4304 L345.9322,420.4715 L336.0085,421.2215 L326.0847,421.038 L316.161,422.2085 L306.2373,421.0671 L296.3136,420.8426 L286.3898,421.6044 L276.4661,420.4109 L266.5424,420.6078 L256.6186,422.1653 L246.6949,421.8809 L236.7712,422.2793 L226.8475,420.8709 L216.9237,421.7256 L207,421.3 " fill="#181818" style="stroke:#181818;stroke-width:4.0;"/><path d="M207,421.3 L207.2802,421.3 L206.4476,430.9556 L207.2577,440.6112 L207.5329,450.2668 L206.0488,459.9224 L206.8964,469.578 L206.4313,479.2336 L206.4887,488.8892 L206.9091,498.5448 L206.0782,508.2004 L207.7382,517.856 L206.1596,527.5116 L206.7363,537.1672 L207.5759,546.8228 L207,556.4784 " fill="#181818" style="stroke:#181818;stroke-width:4.0;"/><polygon fill="#181818" points="203,546.4784,203.065,546.5045,203.6718,548.4272,204.6598,550.5024,205.5237,552.5279,205.9792,554.3901,207,556.4784,206.9759,556.4688,207.668,554.4256,208.4813,552.431,209.3789,550.47,209.986,548.3929,211,546.4784,211.1305,546.6089,210.0514,547.1299,209.3534,548.0318,208.7018,548.9803,207.7798,549.6582,207,550.4784,207.0161,550.4945,206.1925,549.6709,205.4421,548.9205,204.6564,548.1348,203.938,547.4165,203,546.4784" style="stroke:#181818;stroke-width:1.0;"/><text fill="#000000" font-family="Chalkduster" font-size="24" lengthAdjust="spacing" textLength="194" x="219" y="477.4298">Trove Data or</text><text fill="#000000" font-family="Chalkduster" font-size="24" lengthAdjust="spacing" textLength="263" x="207" y="508.0597">other GLAM Source</text><path d="M816.5,421.3 L816.5,421.5802 L826.575,420.7476 L836.65,421.5577 L846.725,421.8329 L856.8,420.3488 L866.875,421.1964 L876.95,420.7313 L887.025,420.7887 L897.1,421.2091 L907.175,420.3782 L917.25,422.0382 L927.325,420.4596 L937.4,421.0363 L947.475,421.8759 L957.55,421.1856 L967.625,421.391 L977.7,421.2574 L987.775,421.538 L997.85,421.6188 L1007.925,422.0809 L1018,422.1947 L1028.075,422.2057 L1038.15,421.6395 L1048.225,421.9181 L1058.3,422.2363 L1068.375,420.3384 L1078.45,422.2047 L1088.525,420.9047 L1098.6,422.0117 L1108.675,420.64 L1118.75,421.2087 L1128.825,422.2888 L1138.9,421.235 L1148.975,421.4404 L1159.05,421.7515 L1169.125,421.855 L1179.2,421.2948 L1189.275,421.6829 L1199.35,420.5368 L1209.425,421.6792 L1219.5,422.0309 L1229.575,421.8927 L1239.65,422.1174 L1249.725,420.6559 L1259.8,420.4304 L1269.875,420.4715 L1279.95,421.2215 L1290.025,421.038 L1300.1,422.2085 L1310.175,421.0671 L1320.25,420.8426 L1330.325,421.6044 L1340.4,420.4109 L1350.475,420.6078 L1360.55,422.1653 L1370.625,421.8809 L1380.7,422.2793 L1390.775,420.8709 L1400.85,421.7256 L1410.925,422.0872 L1421,421.3 " fill="#181818" style="stroke:#181818;stroke-width:4.0;"/><path d="M1421,421.3 L1421.2802,421.3 L1420.4476,431.7549 L1421.2577,442.2097 L1421.5329,452.6646 L1420.0488,463.1194 L1420.8964,473.5743 L1420.4313,484.0292 L1420.4887,494.484 L1420.9091,504.9389 L1420.0782,515.3937 L1421,525.8486 " fill="#181818" style="stroke:#181818;stroke-width:4.0;"/><polygon fill="#181818" points="1417,515.8486,1417.065,515.8746,1417.6718,517.7973,1418.6598,519.8725,1419.5237,521.8981,1419.9792,523.7603,1421,525.8486,1420.9759,525.839,1421.668,523.7958,1422.4813,521.8011,1423.3789,519.8402,1423.986,517.763,1425,515.8486,1425.1305,515.9791,1424.0514,516.5001,1423.3534,517.402,1422.7018,518.3504,1421.7798,519.0284,1421,519.8486,1421.0161,519.8647,1420.1925,519.0411,1419.4421,518.2907,1418.6564,517.505,1417.938,516.7867,1417,515.8486" style="stroke:#181818;stroke-width:1.0;"/><text fill="#000000" font-family="Chalkduster" font-size="24" lengthAdjust="spacing" textLength="163" x="1433" y="477.4298">condition E</text><path d="M544,421.3 L544.2802,421.3 L543.4476,431.7549 L544.2577,442.2097 L544.5329,452.6646 L543.0488,463.1194 L543.8964,473.5743 L543.4313,484.0292 L543.4887,494.484 L543.9091,504.9389 L543.0782,515.3937 L544,525.8486 " fill="#181818" style="stroke:#181818;stroke-width:4.0;"/><polygon fill="#181818" points="540,515.8486,540.065,515.8746,540.6718,517.7973,541.6598,519.8725,542.5237,521.8981,542.9792,523.7603,544,525.8486,543.9759,525.839,544.668,523.7958,545.4813,521.8011,546.3789,519.8402,546.986,517.763,548,515.8486,548.1305,515.9791,547.0514,516.5001,546.3534,517.402,545.7018,518.3504,544.7798,519.0284,544,519.8486,544.0161,519.8647,543.1925,519.0411,542.4421,518.2907,541.6564,517.505,540.938,516.7867,540,515.8486" style="stroke:#181818;stroke-width:1.0;"/><text fill="#000000" font-family="Chalkduster" font-size="24" lengthAdjust="spacing" textLength="138" x="556" y="472.4298">DIY Scans</text><path d="M779.5,421.3 L779.7802,421.3 L778.9476,431.7549 L779.7577,442.2097 L780.0329,452.6646 L778.5488,463.1194 L779.3964,473.5743 L778.9313,484.0292 L778.9887,494.484 L779.4091,504.9389 L778.5782,515.3937 L779.5,525.8486 " fill="#181818" style="stroke:#181818;stroke-width:4.0;"/><polygon fill="#181818" points="775.5,515.8486,775.565,515.8746,776.1718,517.7973,777.1598,519.8725,778.0237,521.8981,778.4792,523.7603,779.5,525.8486,779.4759,525.839,780.168,523.7958,780.9813,521.8011,781.8789,519.8402,782.486,517.763,783.5,515.8486,783.6305,515.9791,782.5514,516.5001,781.8534,517.402,781.2018,518.3504,780.2798,519.0284,779.5,519.8486,779.5161,519.8647,778.6925,519.0411,777.9421,518.2907,777.1564,517.505,776.438,516.7867,775.5,515.8486" style="stroke:#181818;stroke-width:1.0;"/><text fill="#000000" font-family="Chalkduster" font-size="24" lengthAdjust="spacing" textLength="282" x="791.5" y="472.4298">Hand-gathered Files</text><path d="M1162,421.3 L1162.2802,421.3 L1161.4476,431.7549 L1162.2577,442.2097 L1162.5329,452.6646 L1161.0488,463.1194 L1161.8964,473.5743 L1161.4313,484.0292 L1161.4887,494.484 L1161.9091,504.9389 L1161.0782,515.3937 L1162,525.8486 " fill="#181818" style="stroke:#181818;stroke-width:4.0;"/><polygon fill="#181818" points="1158,515.8486,1158.065,515.8746,1158.6718,517.7973,1159.6598,519.8725,1160.5237,521.8981,1160.9792,523.7603,1162,525.8486,1161.9759,525.839,1162.668,523.7958,1163.4813,521.8011,1164.3789,519.8402,1164.986,517.763,1166,515.8486,1166.1305,515.9791,1165.0514,516.5001,1164.3534,517.402,1163.7018,518.3504,1162.7798,519.0284,1162,519.8486,1162.0161,519.8647,1161.1925,519.0411,1160.4421,518.2907,1159.6564,517.505,1158.938,516.7867,1158,515.8486" style="stroke:#181818;stroke-width:1.0;"/><text fill="#000000" font-family="Chalkduster" font-size="24" lengthAdjust="spacing" textLength="162" x="1174" y="472.4298">condition D</text><path d="M207,785.6829 L207.0934,785.6829 L206.8159,790.0829 L207.0859,794.4829 L207.1776,798.8829 L206.6829,803.2829 L207,807.6829 " fill="#181818" style="stroke:#181818;stroke-width:4.0;"/><path d="M207,807.6829 L207,807.9631 L216.9237,807.1304 L226.8475,807.9406 L236.7712,808.2158 L246.6949,806.7317 L256.6186,807.5792 L266.5424,807.1142 L276.4661,807.1715 L286.3898,807.592 L296.3136,806.761 L306.2373,808.421 L316.161,806.8425 L326.0847,807.4192 L336.0085,808.2588 L345.9322,807.5685 L355.8559,807.7738 L365.7797,807.6403 L375.7034,807.9209 L385.6271,808.0017 L395.5508,808.4638 L405.4746,808.5776 L415.3983,808.5885 L425.322,808.0224 L435.2458,808.301 L445.1695,808.6192 L455.0932,806.7213 L465.0169,808.5875 L474.9407,807.2875 L484.8644,808.3946 L494.7881,807.0228 L504.7119,807.5915 L514.6356,808.6717 L524.5593,807.6179 L534.4831,807.8233 L544.4068,808.1344 L554.3305,808.2378 L564.2542,807.6777 L574.178,808.0658 L584.1017,806.9196 L594.0254,808.062 L603.9492,808.4138 L613.8729,808.2756 L623.7966,808.5002 L633.7203,807.0388 L643.6441,806.8133 L653.5678,806.8543 L663.4915,807.6044 L673.4153,807.4208 L683.339,808.5914 L693.2627,807.45 L703.1864,807.2255 L713.1102,807.9872 L723.0339,806.7937 L732.9576,806.9907 L742.8814,808.5481 L752.8051,808.2637 L762.7288,808.6622 L772.6525,807.2538 L782.5763,808.1085 L792.5,807.6829 " fill="#181818" style="stroke:#181818;stroke-width:4.0;"/><polygon fill="#181818" points="782.5,803.6829,782.526,803.7479,784.4487,804.3546,786.5239,805.3427,788.5495,806.2066,790.4117,806.6621,792.5,807.6829,792.4904,807.6588,790.4472,808.3509,788.4525,809.1642,786.4916,810.0618,784.4144,810.6689,782.5,811.6829,782.6305,811.8134,783.1514,810.7343,784.0534,810.0362,785.0018,809.3847,785.6798,808.4626,786.5,807.6829,786.5161,807.6989,785.6925,806.8753,784.9421,806.1249,784.1564,805.3392,783.438,804.6209,782.5,803.6829" style="stroke:#181818;stroke-width:1.0;"/><path d="M1421,576.4784 L1421.2802,576.4784 L1420.4476,586.5308 L1421.2577,596.5832 L1421.5329,606.6355 L1420.0488,616.6879 L1420.8964,626.7403 L1420.4313,636.7926 L1420.4887,646.845 L1420.9091,656.8974 L1420.0782,666.9497 L1421.7382,677.0021 L1420.1596,687.0545 L1420.7363,697.1068 L1421.5759,707.1592 L1420.8856,717.2116 L1421.091,727.2639 L1420.9574,737.3163 L1421.238,747.3687 L1421.3188,757.421 L1421.7809,767.4734 L1421.8947,777.5258 L1421.9057,787.5781 L1421.3395,797.6305 L1421,807.6829 " fill="#181818" style="stroke:#181818;stroke-width:4.0;"/><path d="M1421,807.6829 L1421,807.9631 L1410.925,807.1304 L1400.85,807.9406 L1390.775,808.2158 L1380.7,806.7317 L1370.625,807.5792 L1360.55,807.1142 L1350.475,807.1715 L1340.4,807.592 L1330.325,806.761 L1320.25,808.421 L1310.175,806.8425 L1300.1,807.4192 L1290.025,808.2588 L1279.95,807.5685 L1269.875,807.7738 L1259.8,807.6403 L1249.725,807.9209 L1239.65,808.0017 L1229.575,808.4638 L1219.5,808.5776 L1209.425,808.5885 L1199.35,808.0224 L1189.275,808.301 L1179.2,808.6192 L1169.125,806.7213 L1159.05,808.5875 L1148.975,807.2875 L1138.9,808.3946 L1128.825,807.0228 L1118.75,807.5915 L1108.675,808.6717 L1098.6,807.6179 L1088.525,807.8233 L1078.45,808.1344 L1068.375,808.2378 L1058.3,807.6777 L1048.225,808.0658 L1038.15,806.9196 L1028.075,808.062 L1018,808.4138 L1007.925,808.2756 L997.85,808.5002 L987.775,807.0388 L977.7,806.8133 L967.625,806.8543 L957.55,807.6044 L947.475,807.4208 L937.4,808.5914 L927.325,807.45 L917.25,807.2255 L907.175,807.9872 L897.1,806.7937 L887.025,806.9907 L876.95,808.5481 L866.875,808.2637 L856.8,808.6622 L846.725,807.2538 L836.65,808.1085 L826.575,808.4701 L816.5,807.6829 " fill="#181818" style="stroke:#181818;stroke-width:4.0;"/><polygon fill="#181818" points="826.5,803.6829,826.526,803.7479,824.4487,804.3546,822.5239,805.3427,820.5495,806.2066,818.4117,806.6621,816.5,807.6829,816.4904,807.6588,818.4472,808.3509,820.4525,809.1642,822.4916,810.0618,824.4144,810.6689,826.5,811.6829,826.6305,811.8134,825.5514,810.7343,824.8534,810.0362,824.2018,809.3847,823.2798,808.4626,822.5,807.6829,822.5161,807.6989,823.2925,806.8753,824.1421,806.1249,824.9564,805.3392,825.838,804.6209,826.5,803.6829" style="stroke:#181818;stroke-width:1.0;"/><path d="M544,576.4784 L544.2802,576.4784 L543.4476,586.5308 L544.2577,596.5832 L544.5329,606.6355 L543.0488,616.6879 L543.8964,626.7403 L543.4313,636.7926 L543.4887,646.845 L543.9091,656.8974 L543.0782,666.9497 L544.7382,677.0021 L543.1596,687.0545 L543.7363,697.1068 L544.5759,707.1592 L543.8856,717.2116 L544.091,727.2639 L543.9574,737.3163 L544.238,747.3687 L544.3188,757.421 L544.7809,767.4734 L544.8947,777.5258 L544.9057,787.5781 L544.3395,797.6305 L544,807.6829 " fill="#181818" style="stroke:#181818;stroke-width:4.0;"/><polygon fill="#181818" points="540,797.6829,540.065,797.7089,540.6718,799.6316,541.6598,801.7068,542.5237,803.7323,542.9792,805.5945,544,807.6829,543.9759,807.6732,544.668,805.6301,545.4813,803.6354,546.3789,801.6744,546.986,799.5973,548,797.6829,548.1305,797.8134,547.0514,798.3343,546.3534,799.2362,545.7018,800.1847,544.7798,800.8626,544,801.6829,544.0161,801.6989,543.1925,800.8753,542.4421,800.1249,541.6564,799.3392,540.938,798.6209,540,797.6829" style="stroke:#181818;stroke-width:1.0;"/><path d="M779.5,576.4784 L779.7802,576.4784 L778.9476,586.5308 L779.7577,596.5832 L780.0329,606.6355 L778.5488,616.6879 L779.3964,626.7403 L778.9313,636.7926 L778.9887,646.845 L779.4091,656.8974 L778.5782,666.9497 L780.2382,677.0021 L778.6596,687.0545 L779.2363,697.1068 L780.0759,707.1592 L779.3856,717.2116 L779.591,727.2639 L779.4574,737.3163 L779.738,747.3687 L779.8188,757.421 L780.2809,767.4734 L780.3947,777.5258 L780.4057,787.5781 L779.8395,797.6305 L779.5,807.6829 " fill="#181818" style="stroke:#181818;stroke-width:4.0;"/><polygon fill="#181818" points="775.5,797.6829,775.565,797.7089,776.1718,799.6316,777.1598,801.7068,778.0237,803.7323,778.4792,805.5945,779.5,807.6829,779.4759,807.6732,780.168,805.6301,780.9813,803.6354,781.8789,801.6744,782.486,799.5973,783.5,797.6829,783.6305,797.8134,782.5514,798.3343,781.8534,799.2362,781.2018,800.1847,780.2798,800.8626,779.5,801.6829,779.5161,801.6989,778.6925,800.8753,777.9421,800.1249,777.1564,799.3392,776.438,798.6209,775.5,797.6829" style="stroke:#181818;stroke-width:1.0;"/><path d="M1162,576.4784 L1162.2802,576.4784 L1161.4476,586.5308 L1162.2577,596.5832 L1162.5329,606.6355 L1161.0488,616.6879 L1161.8964,626.7403 L1161.4313,636.7926 L1161.4887,646.845 L1161.9091,656.8974 L1161.0782,666.9497 L1162.7382,677.0021 L1161.1596,687.0545 L1161.7363,697.1068 L1162.5759,707.1592 L1161.8856,717.2116 L1162.091,727.2639 L1161.9574,737.3163 L1162.238,747.3687 L1162.3188,757.421 L1162.7809,767.4734 L1162.8947,777.5258 L1162.9057,787.5781 L1162.3395,797.6305 L1162,807.6829 " fill="#181818" style="stroke:#181818;stroke-width:4.0;"/><polygon fill="#181818" points="1158,797.6829,1158.065,797.7089,1158.6718,799.6316,1159.6598,801.7068,1160.5237,803.7323,1160.9792,805.5945,1162,807.6829,1161.9759,807.6732,1162.668,805.6301,1163.4813,803.6354,1164.3789,801.6744,1164.986,799.5973,1166,797.6829,1166.1305,797.8134,1165.0514,798.3343,1164.3534,799.2362,1163.7018,800.1847,1162.7798,800.8626,1162,801.6829,1162.0161,801.6989,1161.1925,800.8753,1160.4421,800.1249,1159.6564,799.3392,1158.938,798.6209,1158,797.6829" style="stroke:#181818;stroke-width:1.0;"/><path d="M804.5,389.3 L804.5934,389.3 L804.3159,393.3 L804.5859,397.3 L804.6776,401.3 L804.1829,405.3 L804.5,409.3 " fill="#181818" style="stroke:#181818;stroke-width:4.0;"/><polygon fill="#181818" points="800.5,399.3,800.565,399.326,801.1718,401.2487,802.1598,403.3239,803.0237,405.3495,803.4792,407.2117,804.5,409.3,804.4759,409.2904,805.168,407.2472,805.9813,405.2525,806.8789,403.2916,807.486,401.2144,808.5,399.3,808.6305,399.4305,807.5514,399.9514,806.8534,400.8534,806.2018,401.8018,805.2798,402.4798,804.5,403.3,804.5161,403.3161,803.6925,402.4925,802.9421,401.7421,802.1564,400.9564,801.438,400.238,800.5,399.3" style="stroke:#181818;stroke-width:1.0;"/><!--SRC=[RP5BQzn048Jlyoigbo11reOyBhidWnBR41CJxoKG2BsZrgfXTiRCjEpetwT7Yiq6ejFGZ-glIcya-Z3r_Ej4SSR5PKzAcq27JT4vyCMfTqv50s_HoL6K0fgRoMQjA5pm5ab7pYs-Ss7AViJzI8MBSsvxd_cHCcEVSCsApfHtpiMaZ2p7KLt7HJBtuDZRERAw5EX82eApmY7O90-SENhU-FGu8mseX71JiSKXPL2aC1Sfx-nbsgII8Xp57cdIp6H8fafF964Hh3ikyyO4S9XNV1ZdOaTYy5ClyUZcD6KCaqusMZWCpY1HsStOW_KyhuRmZwDlaM7wfvJvRC6iP7NbMTHWcjPvImWDzZazhIgsypEk9DTVh-xmzq3hW6sDBaZHQlssAxZ47IlrIvWoe6by2meXFPVMikE8PkPYczih-njY1mWrkLtbaU7bTdVx0m-UOa6BUcNFlnNlTo_j6yjlSwHAP35_aM3PjAzp7rxdV3BH9V7khF_nF_tFP_rF2yoQXwlV7m00]--></g></svg>