<?xml version="1.0" encoding="us-ascii" standalone="no"?><svg xmlns="http://www.w3.org/2000/svg" xmlns:xlink="http://www.w3.org/1999/xlink" contentStyleType="text/css" height="1667px" preserveAspectRatio="none" style="width:1890px;height:1667px;background:#FFFFFF;" version="1.1" viewBox="0 0 1890 1667" width="1890px" zoomAndPan="magnify"><defs/><g><!--cluster data--><g id="cluster_data"><polygon fill="#00FF7F" points="54.5,9.2889,54.5,9.4991,64.4726,8.8746,74.4452,9.4822,84.4178,9.6886,94.3904,8.5756,104.363,9.2112,114.3356,8.8625,124.3082,8.9055,134.2808,9.2208,144.2534,8.5976,154.226,9.8426,164.1986,8.6587,174.1712,9.0912,184.1438,9.7209,194.1164,9.2032,204.089,9.3572,214.0616,9.257,224.0342,9.4675,234.0068,9.5281,243.9795,9.8746,253.9521,9.96,263.9247,9.9682,273.8973,9.5436,283.8699,9.7525,293.8425,9.9912,303.8151,8.5678,313.7877,9.9675,323.7603,8.9924,333.7329,9.8228,343.7055,8.7939,353.6781,9.2205,363.6507,10.0306,373.6233,9.2402,383.5959,9.3943,393.5685,9.6276,403.5411,9.7052,413.5137,9.285,423.4863,9.5762,433.4589,8.7165,443.4315,9.5733,453.4041,9.8371,463.3767,9.7335,473.3493,9.902,483.3219,8.8059,493.2945,8.6368,503.2671,8.6675,513.2397,9.2301,523.2123,9.0924,533.1849,9.9704,543.1575,9.1143,553.1301,8.9459,563.1027,9.5172,573.0753,8.6221,583.0479,8.7698,593.0205,9.9379,602.9932,9.7246,612.9658,10.0234,622.9384,8.9672,632.911,9.6081,642.8836,9.8794,652.8562,8.8165,662.8288,9.1931,672.8014,9.4149,682.774,9.9407,692.7466,9.2848,702.7192,9.7515,712.6918,8.7352,722.6644,8.6117,732.637,9.7926,742.6096,8.572,752.5822,9.7979,762.5548,9.4956,772.5274,9.021,782.5,9.2889,782.4549,9.18,782.9121,9.5767,783.1689,9.4897,783.6362,9.9106,783.8437,9.7045,784.2678,10.0212,784.4579,10.0999,784.5634,10.4365,784.6361,10.7595,784.7216,11.0879,785.0773,11.5281,785,11.7889,785.6136,11.7889,785.1693,21.6204,785.2682,31.4519,784.8697,41.2834,785.7165,51.1149,785.1549,60.9464,785.1726,70.7779,784.3916,80.6094,784.5948,90.4409,785.5307,100.2724,785.4298,110.1039,784.9571,119.9354,784.6778,129.7669,784.7811,139.5984,784.3138,149.4299,785.4147,159.2614,785.7396,169.0929,785.5264,178.9244,785.6949,188.7559,784.8633,198.5874,785,208.4189,785.0269,208.4301,784.7342,208.7231,784.7946,209.1623,784.6367,209.5111,784.5843,209.9036,784.2678,210.1867,784.2385,210.116,783.8971,210.2918,783.6172,210.6162,783.2795,210.8008,782.7882,210.6147,782.5,210.9189,782.5,210.7251,772.5274,211.0682,762.5548,210.3081,752.5822,211.2723,742.6096,211.1769,732.637,210.8182,722.6644,211.0612,712.6918,211.6476,702.7192,210.6061,692.7466,211.2339,682.774,211.2046,672.8014,211.0347,662.8288,211.0599,652.8562,211.0324,642.8836,210.2948,632.911,210.5181,622.9384,210.4574,612.9658,210.9828,602.9932,211.0071,593.0205,211.0807,583.0479,210.628,573.0753,210.8514,563.1027,210.7987,553.1301,211.4958,543.1575,211.3455,533.1849,210.4334,523.2123,210.846,513.2397,210.3417,503.2671,211.2073,493.2945,211.5274,483.3219,211.4635,473.3493,210.4834,463.3767,211.3829,453.4041,210.1761,443.4315,211.1191,433.4589,210.6196,423.4863,211.0157,413.5137,211.1593,403.5411,211.3911,393.5685,210.199,383.5959,211.3944,373.6233,211.0971,363.6507,211.2743,353.6781,211.6668,343.7055,210.9244,333.7329,211.0942,323.7603,211.1324,313.7877,211.1162,303.8151,210.9181,293.8425,211.6297,283.8699,210.3092,273.8973,211.4842,263.9247,210.2949,253.9521,210.3786,243.9795,210.959,234.0068,210.9472,224.0342,210.4261,214.0616,211.3327,204.089,211.0278,194.1164,211.6456,184.1438,211.5861,174.1712,210.4707,164.1986,210.521,154.226,210.7898,144.2534,211.2745,134.2808,211.3219,124.3082,211.2201,114.3356,210.577,104.363,211.5553,94.3904,211.5527,84.4178,210.8717,74.4452,210.6799,64.4726,210.5176,54.5,210.9189,54.4726,210.8529,54.164,210.8148,53.7842,210.605,53.386,210.3509,53.148,210.4833,52.7322,210.1867,52.5909,210.1282,52.7405,209.8972,52.5709,209.5341,52.4074,209.1735,52.3597,208.8608,52,208.4189,51.7541,208.4189,51.6994,198.5874,52.5189,188.7559,51.4031,178.9244,51.766,169.0929,52.1155,159.2614,52.0687,149.4299,51.6415,139.5984,51.957,129.7669,52.7446,119.9354,52.6485,110.1039,51.4037,100.2724,52.0785,90.4409,51.4861,80.6094,51.9737,70.7779,52.293,60.9464,52.4199,51.1149,51.3353,41.2834,52.4005,31.4519,52.0084,21.6204,52,11.7889,51.829,11.7181,52.0014,11.3753,52.3935,11.1235,52.5163,10.7602,52.5807,10.3726,52.7322,10.0212,52.6465,9.8142,53.1697,10.0774,53.3996,9.6323,53.7255,9.4192,54.1379,9.4147,54.5,9.2889" style="stroke:#181818;stroke-width:4.0;"/><text fill="#000000" font-family="Chalkduster" font-size="24" font-style="italic" lengthAdjust="spacing" textLength="169" x="334" y="35.1298">&#171;repository&#187;</text><text fill="#000000" font-family="Chalkduster" font-size="24" font-weight="bold" lengthAdjust="spacing" textLength="62" x="387.5" y="65.7597">Data</text><text fill="#000000" font-family="Chalkduster" font-size="24" font-weight="bold" lengthAdjust="spacing" textLength="285" x="276" y="96.3895">(Open/Public Access)</text></g><!--cluster code--><g id="cluster_code"><polygon fill="#FFC7D8" points="953.5,875.1789,953.5,875.3891,963.5492,874.7646,973.5984,875.3722,983.6475,875.5786,993.6967,874.4656,1003.7459,875.1012,1013.7951,874.7525,1023.8443,874.7955,1033.8934,875.1108,1043.9426,874.4876,1053.9918,875.7326,1064.041,874.5487,1074.0902,874.9812,1084.1393,875.6109,1094.1885,875.0932,1104.2377,875.2472,1114.2869,875.147,1124.3361,875.3575,1134.3852,875.4181,1144.4344,875.7646,1154.4836,875.85,1164.5328,875.8582,1174.582,875.4336,1184.6311,875.6425,1194.6803,875.8812,1204.7295,874.4578,1214.7787,875.8575,1224.8279,874.8824,1234.877,875.7128,1244.9262,874.6839,1254.9754,875.1105,1265.0246,875.9206,1275.0738,875.1302,1285.123,875.2843,1295.1721,875.5176,1305.2213,875.5952,1315.2705,875.175,1325.3197,875.4662,1335.3689,874.6065,1345.418,875.4633,1355.4672,875.7271,1365.5164,875.6235,1375.5656,875.792,1385.6148,874.6959,1395.6639,874.5268,1405.7131,874.5575,1415.7623,875.1201,1425.8115,874.9824,1435.8607,875.8604,1445.9098,875.0043,1455.959,874.8359,1466.0082,875.4072,1476.0574,874.5121,1486.1066,874.6598,1496.1557,875.8279,1506.2049,875.6146,1516.2541,875.9134,1526.3033,874.8572,1536.3525,875.4981,1546.4016,875.7694,1556.4508,874.7065,1566.5,875.1789,1566.4878,875.1494,1566.8696,875.3642,1567.2902,875.6726,1567.5601,875.617,1567.9732,875.9072,1568.2678,875.9112,1568.0972,875.8405,1568.2056,876.1783,1568.7158,876.6825,1568.4863,876.8804,1569.0103,877.3903,1569,877.6789,1569.2066,877.6789,1568.7321,887.7759,1568.6462,897.8729,1569.4588,907.9699,1568.7007,918.0668,1569.5919,928.1638,1568.4473,938.2608,1569.6174,948.3577,1569.4843,958.4547,1569.245,968.5517,1569.0472,978.6486,1569.7266,988.7456,1569.6136,998.8426,1569.1693,1008.9396,1569.2682,1019.0365,1568.8697,1029.1335,1569.7165,1039.2305,1569.1549,1049.3274,1569.1726,1059.4244,1568.3916,1069.5214,1568.5948,1079.6183,1569.5307,1089.7153,1569.4298,1099.8123,1568.9571,1109.9093,1568.6778,1120.0062,1568.7811,1130.1032,1568.3138,1140.2002,1569.4147,1150.2971,1569.7396,1160.3941,1569.5264,1170.4911,1569.6949,1180.588,1568.8633,1190.685,1569.0872,1200.782,1569,1210.8789,1568.8806,1210.8295,1568.941,1211.2687,1568.7831,1211.6175,1568.7308,1212.0101,1568.3435,1212.2639,1568.2678,1212.6467,1568.2506,1212.6053,1567.9708,1212.9297,1567.633,1213.1143,1567.1417,1212.9282,1566.8288,1213.1728,1566.5,1213.3789,1566.5,1213.5282,1556.4508,1212.7681,1546.4016,1213.7323,1536.3525,1213.6369,1526.3033,1213.2782,1516.2541,1213.5212,1506.2049,1214.1076,1496.1557,1213.0661,1486.1066,1213.6939,1476.0574,1213.6646,1466.0082,1213.4947,1455.959,1213.5199,1445.9098,1213.4924,1435.8607,1212.7548,1425.8115,1212.9781,1415.7623,1212.9174,1405.7131,1213.4428,1395.6639,1213.4671,1385.6148,1213.5407,1375.5656,1213.088,1365.5164,1213.3114,1355.4672,1213.2587,1345.418,1213.9558,1335.3689,1213.8055,1325.3197,1212.8934,1315.2705,1213.306,1305.2213,1212.8017,1295.1721,1213.6673,1285.123,1213.9874,1275.0738,1213.9235,1265.0246,1212.9434,1254.9754,1213.8429,1244.9262,1212.6361,1234.877,1213.5791,1224.8279,1213.0796,1214.7787,1213.4757,1204.7295,1213.6193,1194.6803,1213.8511,1184.6311,1212.659,1174.582,1213.8544,1164.5328,1213.5571,1154.4836,1213.7343,1144.4344,1214.1268,1134.3852,1213.3844,1124.3361,1213.5542,1114.2869,1213.5924,1104.2377,1213.5762,1094.1885,1213.3781,1084.1393,1214.0897,1074.0902,1212.7692,1064.041,1213.9442,1053.9918,1212.7549,1043.9426,1212.8386,1033.8934,1213.419,1023.8443,1213.4072,1013.7951,1212.8861,1003.7459,1213.7927,993.6967,1213.4878,983.6475,1214.1056,973.5984,1214.0461,963.5492,1212.9307,953.5,1213.3789,953.4492,1213.2564,953.13,1213.1927,952.8382,1213.1955,952.4907,1213.0637,952.1242,1212.8859,951.7322,1212.6467,951.6269,1212.6031,951.7818,1212.3743,951.6345,1212.0205,951.2783,1211.58,951.0728,1211.202,951,1210.8789,950.5986,1210.8789,950.7854,1200.782,951.1374,1190.685,950.9316,1180.588,950.5822,1170.4911,951.4874,1160.3941,950.5411,1150.2971,951.5024,1140.2002,951.4272,1130.1032,951.3719,1120.0062,951.6925,1109.9093,950.7541,1099.8123,950.6994,1089.7153,951.5189,1079.6183,950.4031,1069.5214,950.766,1059.4244,951.1155,1049.3274,951.0687,1039.2305,950.6415,1029.1335,950.957,1019.0365,951.7446,1008.9396,951.6485,998.8426,950.4037,988.7456,951.0785,978.6486,950.4861,968.5517,950.9737,958.4547,951.293,948.3577,951.4199,938.2608,950.3353,928.1638,951.4005,918.0668,951.0084,907.9699,950.4447,897.8729,950.5289,887.7759,951,877.6789,951.1006,877.7206,951.2234,877.3573,951.2878,876.9697,951.2324,876.5326,951.7885,876.3487,951.7322,875.9112,951.6925,875.8152,952.0184,875.6021,952.4308,875.5976,952.8681,875.6535,953.225,875.5149,953.5,875.1789" style="stroke:#181818;stroke-width:4.0;"/><text fill="#000000" font-family="Chalkduster" font-size="24" font-style="italic" lengthAdjust="spacing" textLength="175" x="1172.5" y="901.0198">&#171;workspace&#187;</text><text fill="#000000" font-family="Chalkduster" font-size="24" font-weight="bold" lengthAdjust="spacing" textLength="322" x="1099" y="931.6497">Execution Environment</text></g><!--cluster doco--><g id="cluster_doco"><polygon fill="#FFFF00" points="9.5,650.5489,9.5,650.7591,19.4889,650.1346,29.4778,650.7422,39.4667,650.9486,49.4556,649.8356,59.4444,650.4712,69.4333,650.1225,79.4222,650.1655,89.4111,650.4808,99.4,649.8576,109.3889,651.1026,119.3778,649.9187,129.3667,650.3512,139.3556,650.9809,149.3444,650.4632,159.3333,650.6172,169.3222,650.517,179.3111,650.7275,189.3,650.7881,199.2889,651.1346,209.2778,651.22,219.2667,651.2282,229.2556,650.8036,239.2444,651.0125,249.2333,651.2512,259.2222,649.8278,269.2111,651.2275,279.2,650.2524,289.1889,651.0828,299.1778,650.0539,309.1667,650.4805,319.1556,651.2906,329.1444,650.5002,339.1333,650.6543,349.1222,650.8876,359.1111,650.9652,369.1,650.545,379.0889,650.8362,389.0778,649.9765,399.0667,650.8333,409.0556,651.0971,419.0444,650.9935,429.0333,651.162,439.0222,650.0659,449.0111,649.8968,459,649.9275,468.9889,650.4901,478.9778,650.3524,488.9667,651.2304,498.9556,650.3743,508.9444,650.2059,518.9333,650.7772,528.9222,649.8821,538.9111,650.0298,548.9,651.1979,558.8889,650.9846,568.8778,651.2834,578.8667,650.2272,588.8556,650.8681,598.8444,651.1394,608.8333,650.0765,618.8222,650.4531,628.8111,650.6749,638.8,651.2007,648.7889,650.5448,658.7778,651.0115,668.7667,649.9952,678.7556,649.8717,688.7444,651.0526,698.7333,649.832,708.7222,651.0579,718.7111,650.7556,728.7,650.281,738.6889,650.1952,748.6778,651.0077,758.6667,650.2496,768.6556,651.1408,778.6444,649.9962,788.6333,651.1664,798.6222,651.0333,808.6111,650.7939,818.6,650.5962,828.5889,651.2756,838.5778,651.1625,848.5667,650.7182,858.5556,650.8171,868.5444,650.4187,878.5333,651.2654,888.5222,650.7038,898.5111,650.7215,908.5,650.5489,908.4224,650.3616,908.8019,650.5706,909.2748,651.0053,909.6155,651.1206,909.9087,651.1215,910.2678,651.2812,910.1686,651.2401,910.3468,651.6068,910.3493,651.9008,910.8348,652.3947,911.0813,652.7897,911,653.0489,911.5264,653.0489,911.6949,662.9882,910.8633,672.9274,911.0872,682.8667,910.6124,692.8059,911.284,702.7452,911.2468,712.6844,911.5524,722.6237,910.7703,732.5629,910.8656,742.5022,911.4435,752.4414,911.5673,762.3807,910.4875,772.3199,910.8061,782.2592,911.1493,792.1984,910.3892,802.1377,911.3534,812.0769,911.258,822.0162,910.8992,831.9554,911.1422,841.8947,911.7287,851.8339,910.6871,861.7732,911.315,871.7124,911.2856,881.6517,911.1158,891.5909,911.1409,901.5302,911.1135,911.4694,910.3758,921.4087,910.5992,931.3479,910.5385,941.2872,911.0638,951.2264,911.0881,961.1657,911.1617,971.1049,910.709,981.0442,910.9325,990.9834,910.8798,1000.9227,911.5769,1010.8619,911.4266,1020.8012,910.5145,1030.7404,910.9271,1040.6797,911,1050.6189,910.8222,1050.5453,910.9424,1051.0093,910.8945,1051.4037,910.7284,1051.7491,910.2801,1051.9776,910.2678,1052.3867,910.327,1052.5296,909.8195,1052.3044,909.5862,1052.7412,909.1689,1052.7339,908.8659,1053.0023,908.5,1053.1189,908.5,1053.3593,898.5111,1053.5911,888.5222,1052.399,878.5333,1053.5944,868.5444,1053.2971,858.5556,1053.4743,848.5667,1053.8668,838.5778,1053.1244,828.5889,1053.2942,818.6,1053.3324,808.6111,1053.3162,798.6222,1053.1181,788.6333,1053.8297,778.6444,1052.5092,768.6556,1053.6842,758.6667,1052.4949,748.6778,1052.5786,738.6889,1053.159,728.7,1053.1472,718.7111,1052.6261,708.7222,1053.5327,698.7333,1053.2278,688.7444,1053.8456,678.7556,1053.7861,668.7667,1052.6707,658.7778,1052.721,648.7889,1052.9898,638.8,1053.4745,628.8111,1053.5219,618.8222,1053.4201,608.8333,1052.777,598.8444,1053.7553,588.8556,1053.7527,578.8667,1053.0717,568.8778,1052.8799,558.8889,1052.7176,548.9,1052.9044,538.9111,1053.2564,528.9222,1053.0506,518.9333,1052.7012,508.9444,1053.6063,498.9556,1052.66,488.9667,1053.6213,478.9778,1053.5462,468.9889,1053.4908,459,1053.8114,449.0111,1052.8731,439.0222,1052.8183,429.0333,1053.6378,419.0444,1052.5221,409.0556,1052.885,399.0667,1053.2344,389.0778,1053.1876,379.0889,1052.7605,369.1,1053.076,359.1111,1053.8635,349.1222,1053.7674,339.1333,1052.5227,329.1444,1053.1975,319.1556,1052.605,309.1667,1053.0926,299.1778,1053.4119,289.1889,1053.5388,279.2,1052.4542,269.2111,1053.5195,259.2222,1053.1274,249.2333,1052.5636,239.2444,1052.6479,229.2556,1053.4455,219.2667,1053.3688,209.2778,1053.1025,199.2889,1052.4468,189.3,1053.7771,179.3111,1052.8071,169.3222,1052.5909,159.3333,1053.0516,149.3444,1053.7087,139.3556,1053.7344,129.3667,1053.1541,119.3778,1052.9678,109.3889,1053.2887,99.4,1053.3052,89.4111,1052.6112,79.4222,1053.5329,69.4333,1053.6778,59.4444,1052.9032,49.4556,1052.6898,39.4667,1053.7936,29.4778,1053.14,19.4889,1053.1188,9.5,1053.1189,9.5381,1053.211,9.0641,1052.7737,8.8605,1052.9893,8.4374,1052.6749,8.1711,1052.7391,7.7322,1052.3867,7.6658,1052.3592,7.7117,1052.0853,7.3026,1051.623,7.3683,1051.3573,7.2633,1051.0209,7,1050.6189,6.6727,1050.6189,7.363,1040.6797,6.4286,1030.7404,6.5295,1020.8012,7.6828,1010.8619,7.6844,1000.9227,7.5685,990.9834,6.6396,981.0442,7.3842,971.1049,6.5279,961.1657,7.0582,951.2264,6.9987,941.2872,6.7376,931.3479,7.6159,921.4087,7.4433,911.4694,6.6792,901.5302,7.5266,891.5909,7.0919,881.6517,6.4164,871.7124,6.7667,861.7732,6.4747,851.8339,6.8609,841.8947,6.371,831.9554,6.3998,822.0162,7.0703,812.0769,6.8796,802.1377,6.9414,792.1984,6.8568,782.2592,7.1673,772.3199,6.4449,762.3807,7.1601,752.4414,6.2569,742.5022,7.296,732.5629,7.5928,722.6237,7.5221,712.6844,7.3613,702.7452,7.1922,692.8059,7.1057,682.8667,6.36,672.9274,7.4465,662.9882,7,653.0489,7.1015,653.091,7.0992,652.6758,7.2911,652.3411,7.3751,651.9617,7.6528,651.6625,7.7322,651.2812,7.819,651.4908,8.0406,651.0257,8.4991,651.1327,8.7815,650.8144,9.0981,650.5786,9.5,650.5489" style="stroke:#181818;stroke-width:4.0;"/><text fill="#000000" font-family="Chalkduster" font-size="24" font-style="italic" lengthAdjust="spacing" textLength="157" x="380.5" y="676.3898">&#171;guidance&#187;</text><text fill="#000000" font-family="Chalkduster" font-size="24" font-weight="bold" lengthAdjust="spacing" textLength="282" x="318" y="707.0197">Data Guide Websites</text></g><!--cluster out--><g id="cluster_out"><polygon fill="#00FF7F" points="901.5,1417.3789,901.5,1417.5891,911.4722,1416.9646,921.4444,1417.5722,931.4167,1417.7786,941.3889,1416.6656,951.3611,1417.3012,961.3333,1416.9525,971.3056,1416.9955,981.2778,1417.3108,991.25,1416.6876,1001.2222,1417.9326,1011.1944,1416.7487,1021.1667,1417.1812,1031.1389,1417.8109,1041.1111,1417.2932,1051.0833,1417.4472,1061.0556,1417.347,1071.0278,1417.5575,1081,1417.6181,1090.9722,1417.9646,1100.9444,1418.05,1110.9167,1418.0582,1120.8889,1417.6336,1130.8611,1417.8425,1140.8333,1418.0812,1150.8056,1416.6578,1160.7778,1418.0575,1170.75,1417.0824,1180.7222,1417.9128,1190.6944,1416.8839,1200.6667,1417.3105,1210.6389,1418.1206,1220.6111,1417.3302,1230.5833,1417.4843,1240.5556,1417.7176,1250.5278,1417.7952,1260.5,1417.375,1270.4722,1417.6662,1280.4444,1416.8065,1290.4167,1417.6633,1300.3889,1417.9271,1310.3611,1417.8235,1320.3333,1417.992,1330.3056,1416.8959,1340.2778,1416.7268,1350.25,1416.7575,1360.2222,1417.3201,1370.1944,1417.1824,1380.1667,1418.0604,1390.1389,1417.2043,1400.1111,1417.0359,1410.0833,1417.6072,1420.0556,1416.7121,1430.0278,1416.8598,1440,1418.0279,1449.9722,1417.8146,1459.9444,1418.1134,1469.9167,1417.0572,1479.8889,1417.6981,1489.8611,1417.9694,1499.8333,1416.9065,1509.8056,1417.2831,1519.7778,1417.5049,1529.75,1418.0307,1539.7222,1417.3748,1549.6944,1417.8415,1559.6667,1416.8252,1569.6389,1416.7017,1579.6111,1417.8826,1589.5833,1416.662,1599.5556,1417.8879,1609.5278,1417.5856,1619.5,1417.3789,1619.4658,1417.2964,1619.8084,1417.4164,1620.2656,1417.8131,1620.5225,1417.7261,1620.9897,1418.147,1621.2678,1418.1112,1621.0975,1418.0407,1621.6044,1418.5435,1621.7098,1418.8801,1621.7825,1419.2031,1621.8681,1419.5314,1622,1419.8789,1622.7266,1419.8789,1622.6136,1429.8219,1622.1693,1439.7648,1622.2682,1449.7077,1621.8697,1459.6506,1622.7165,1469.5935,1622.1549,1479.5364,1622.1726,1489.4794,1621.3916,1499.4223,1621.5948,1509.3652,1622.5307,1519.3081,1622.4298,1529.251,1621.9571,1539.1939,1621.6778,1549.1369,1621.7811,1559.0798,1621.3138,1569.0227,1622.4147,1578.9656,1622.7396,1588.9085,1622.5264,1598.8514,1622.6949,1608.7944,1621.8633,1618.7373,1622.0872,1628.6802,1621.6124,1638.6231,1622.284,1648.566,1622,1658.5089,1622.076,1658.5404,1622.0237,1658.933,1621.6364,1659.1868,1621.5193,1659.5525,1621.5508,1659.9797,1621.2678,1660.2767,1621.3401,1660.4514,1620.8488,1660.2653,1620.5359,1660.5099,1620.2261,1660.762,1619.7756,1660.6744,1619.5,1661.0089,1619.5,1661.3623,1609.5278,1661.2669,1599.5556,1660.9082,1589.5833,1661.1512,1579.6111,1661.7376,1569.6389,1660.6961,1559.6667,1661.3239,1549.6944,1661.2946,1539.7222,1661.1247,1529.75,1661.1499,1519.7778,1661.1224,1509.8056,1660.3848,1499.8333,1660.6081,1489.8611,1660.5474,1479.8889,1661.0728,1469.9167,1661.0971,1459.9444,1661.1707,1449.9722,1660.718,1440,1660.9414,1430.0278,1660.8887,1420.0556,1661.5858,1410.0833,1661.4355,1400.1111,1660.5234,1390.1389,1660.936,1380.1667,1660.4317,1370.1944,1661.2973,1360.2222,1661.6174,1350.25,1661.5535,1340.2778,1660.5734,1330.3056,1661.4729,1320.3333,1660.2661,1310.3611,1661.2091,1300.3889,1660.7096,1290.4167,1661.1057,1280.4444,1661.2493,1270.4722,1661.4811,1260.5,1660.289,1250.5278,1661.4844,1240.5556,1661.1871,1230.5833,1661.3643,1220.6111,1661.7568,1210.6389,1661.0144,1200.6667,1661.1842,1190.6944,1661.2224,1180.7222,1661.2062,1170.75,1661.0081,1160.7778,1661.7197,1150.8056,1660.3992,1140.8333,1661.5742,1130.8611,1660.3849,1120.8889,1660.4686,1110.9167,1661.049,1100.9444,1661.0372,1090.9722,1660.5161,1081,1661.4227,1071.0278,1661.1178,1061.0556,1661.7356,1051.0833,1661.6761,1041.1111,1660.5607,1031.1389,1660.611,1021.1667,1660.8798,1011.1944,1661.3645,1001.2222,1661.4119,991.25,1661.3101,981.2778,1660.667,971.3056,1661.6453,961.3333,1661.6427,951.3611,1660.9617,941.3889,1660.7699,931.4167,1660.6076,921.4444,1660.7944,911.4722,1661.1464,901.5,1661.0089,901.4913,1660.9879,901.0932,1660.7338,900.8551,1660.8662,900.3808,1660.4283,900.1499,1660.5779,899.7322,1660.2767,899.8638,1660.3312,899.7003,1659.9706,899.6526,1659.6579,899.2172,1659.1847,899.0539,1658.8242,899,1658.5089,899.5189,1658.5089,898.4031,1648.566,898.766,1638.6231,899.1155,1628.6802,899.0687,1618.7373,898.6415,1608.7944,898.957,1598.8514,899.7446,1588.9085,899.6485,1578.9656,898.4037,1569.0227,899.0785,1559.0798,898.4861,1549.1369,898.9737,1539.1939,899.293,1529.251,899.4199,1519.3081,898.3353,1509.3652,899.4005,1499.4223,899.0084,1489.4794,898.4447,1479.5364,898.5289,1469.5935,899.3266,1459.6506,899.2499,1449.7077,898.9836,1439.7648,898.3279,1429.8219,899,1419.8789,899.2027,1419.9629,899.0504,1419.4856,899.1303,1419.1045,899.4186,1418.8097,899.7674,1418.54,899.7322,1418.1112,899.8107,1418.3007,900.0903,1417.9756,900.4201,1417.7717,900.8146,1417.7241,901.1702,1417.5827,901.5,1417.3789" style="stroke:#181818;stroke-width:4.0;"/><text fill="#000000" font-family="Chalkduster" font-size="24" font-style="italic" lengthAdjust="spacing" textLength="169" x="1176" y="1443.2198">&#171;repository&#187;</text><text fill="#000000" font-family="Chalkduster" font-size="24" font-weight="bold" lengthAdjust="spacing" textLength="262" x="1129.5" y="1473.8497">Sustainable Outputs</text></g><!--cluster Code--><g id="cluster_Code"><polygon fill="none" points="933.5,1513.3789,933.5,1513.5891,943.4444,1512.9646,953.3889,1513.5722,963.3333,1513.7786,973.2778,1512.6656,983.2222,1513.3012,993.1667,1512.9525,1003.1111,1512.9955,1013.0556,1513.3108,1023,1512.6876,1032.9444,1513.9326,1042.8889,1512.7487,1052.8333,1513.1812,1062.7778,1513.8109,1072.7222,1513.2932,1082.6667,1513.4472,1092.6111,1513.347,1102.5556,1513.5575,1112.5,1513.6181,1122.4444,1513.9646,1132.3889,1514.05,1142.3333,1514.0582,1152.2778,1513.6336,1162.2222,1513.8425,1172.1667,1514.0812,1182.1111,1512.6578,1192.0556,1514.0575,1202,1513.0824,1211.9444,1513.9128,1221.8889,1512.8839,1231.8333,1513.3105,1241.7778,1514.1206,1251.7222,1513.3302,1261.6667,1513.4843,1271.6111,1513.7176,1281.5556,1513.7952,1291.5,1513.3789,1291.4995,1513.3777,1291.8902,1513.6138,1292.1341,1513.4956,1292.5969,1513.9059,1292.9841,1514.1336,1293.2678,1514.1112,1293.4047,1514.1679,1293.603,1514.5429,1293.4119,1514.7567,1293.5063,1515.0886,1293.6622,1515.4461,1294,1515.8789,1293.9411,1515.8789,1293.8035,1525.9362,1294.6814,1535.9935,1293.8253,1546.0508,1293.6569,1556.108,1294.2283,1566.1653,1293.3332,1576.2226,1293.4809,1586.2799,1294.649,1596.3371,1294.4357,1606.3944,1294.7345,1616.4517,1294,1626.5089,1293.9009,1626.4679,1293.9519,1626.9032,1293.8889,1627.2914,1293.4152,1627.5093,1293.3847,1627.9109,1293.2678,1628.2767,1293.2838,1628.3155,1292.9974,1628.6239,1292.5601,1628.5683,1292.2661,1628.8585,1291.7829,1628.692,1291.5,1629.0089,1291.5,1628.3317,1281.5556,1629.5126,1271.6111,1628.292,1261.6667,1629.5179,1251.7222,1629.2156,1241.7778,1628.741,1231.8333,1628.6552,1221.8889,1629.4677,1211.9444,1628.7096,1202,1629.6008,1192.0556,1628.4562,1182.1111,1629.6264,1172.1667,1629.4933,1162.2222,1629.2539,1152.2778,1629.0562,1142.3333,1629.7356,1132.3889,1629.6225,1122.4444,1629.1782,1112.5,1629.2771,1102.5556,1628.8787,1092.6111,1629.7254,1082.6667,1629.1638,1072.7222,1629.1815,1062.7778,1628.4006,1052.8333,1628.6037,1042.8889,1629.5397,1032.9444,1629.4387,1023,1628.966,1013.0556,1628.6868,1003.1111,1628.79,993.1667,1628.3228,983.2222,1629.4237,973.2778,1629.7485,963.3333,1629.5353,953.3889,1629.7039,943.4444,1628.8722,933.5,1629.0089,933.5111,1629.0358,933.097,1628.7431,932.8291,1628.8035,932.4708,1628.6456,932.1562,1628.5933,931.7322,1628.2767,931.6615,1628.2474,931.5444,1627.906,931.5759,1627.6262,931.4676,1627.2884,930.9886,1626.7971,931,1626.5089,930.8061,1626.5089,931.1493,1616.4517,930.3892,1606.3944,931.3534,1596.3371,931.258,1586.2799,930.8992,1576.2226,931.1422,1566.1653,931.7287,1556.108,930.6871,1546.0508,931.315,1535.9935,931.2856,1525.9362,931,1515.8789,931.0357,1515.8937,931.1898,1515.5434,931.3278,1515.1863,931.2471,1514.7387,931.4624,1514.4136,931.7322,1514.1112,931.6734,1513.969,932.0939,1513.9844,932.4506,1513.8454,932.8135,1513.7217,933.1093,1513.4358,933.5,1513.3789" style="stroke:#181818;stroke-width:4.0;"/><text fill="#000000" font-family="Chalkduster" font-size="24" font-weight="bold" lengthAdjust="spacing" textLength="70" x="1077.5" y="1539.2198">Code</text></g><!--entity res--><g id="elem_res"><polygon fill="none" points="815,131.7889,815,131.9991,824.7778,131.3746,834.5556,131.9822,844.3333,132.1886,854.1111,131.0756,863.8889,131.7112,873.6667,131.3625,883.4444,131.4055,893.2222,131.7208,903,131.0976,912.7778,132.3426,922.5556,131.1587,932.3333,131.5912,942.1111,132.2209,951.8889,131.7032,961.6667,131.8572,971.4444,131.757,981.2222,131.9675,991,131.7889,991.0305,131.8626,991.4283,132.1158,991.7927,132.2885,992.1473,132.4375,992.4467,132.4532,992.7678,132.5212,992.9105,132.5803,993.1305,132.9643,992.8386,133.1363,993.4161,133.6684,993.2622,133.8976,993.5,134.2889,994.0338,134.2889,993.005,143.4149,993.4315,152.5409,994.2416,161.6668,993.4513,170.7928,993.5,179.9188,993.5324,179.9322,993.4578,180.3155,993.3353,180.679,993.0595,180.9789,993.0027,181.3696,992.7678,181.6866,992.6947,181.5103,992.4505,181.9206,992.1306,182.1483,991.7638,182.2628,991.4318,182.4611,991,182.4188,991,181.9357,981.2222,181.7666,971.4444,181.7974,961.6667,182.3599,951.8889,182.2223,942.1111,183.1002,932.3333,182.2441,922.5556,182.0757,912.7778,182.6471,903,181.7519,893.2222,181.8997,883.4444,183.0677,873.6667,182.8545,863.8889,183.1533,854.1111,182.097,844.3333,182.738,834.5556,183.0092,824.7778,181.9464,815,182.4188,814.9878,182.3893,814.6625,182.3111,814.376,182.3266,813.9388,181.9782,813.6448,181.9754,813.2322,181.6866,813.0617,181.6159,812.8772,181.2466,813.0944,181.0437,812.5721,180.5344,812.8032,180.3373,812.5,179.9188,812.7066,179.9188,812.2321,170.7928,812.1462,161.6668,812.9588,152.5409,812.2007,143.4149,812.5,134.2889,812.6823,134.3644,812.4762,133.8649,812.983,133.6606,813.0885,133.2901,813.1612,132.906,813.2322,132.5212,813.2383,132.5357,813.6785,132.5985,814.0176,132.4172,814.3145,132.134,814.6807,132.018,815,131.7889" style="stroke:#181818;stroke-width:4.0;"/><text fill="#000000" font-family="Chalkduster" font-size="24" lengthAdjust="spacing" textLength="161" x="822.5" y="165.6298">Researchers</text></g><!--entity idea--><g id="elem_idea"><polygon fill="none" points="1031,116.4689,1031,116.6791,1041.16,116.0546,1051.32,116.6622,1061.48,116.8686,1071.64,115.7556,1081.8,116.3912,1091.96,116.0425,1102.12,116.0855,1112.28,116.4008,1122.44,115.7776,1132.6,117.0226,1142.76,115.8387,1152.92,116.2712,1163.08,116.9009,1173.24,116.3832,1183.4,116.5372,1193.56,116.437,1203.72,116.6475,1213.88,116.7081,1224.04,117.0546,1234.2,117.14,1244.36,117.1482,1254.52,116.7236,1264.68,116.9325,1274.84,117.1712,1285,116.4689,1284.908,116.2469,1285.4401,116.8244,1285.6693,116.6705,1286.1288,117.0727,1286.3511,116.9023,1286.7678,117.2012,1286.7467,117.1924,1287.1426,117.6493,1287.0457,117.9021,1287.2395,118.2753,1287.4578,118.6586,1287.5,118.9689,1287.9162,118.9689,1287.4961,128.5014,1287.7872,138.0339,1286.9276,147.5663,1287.7844,157.0988,1288.0482,166.6312,1287.9445,176.1637,1288.113,185.6962,1287.5,195.2286,1287.3512,195.167,1287.1527,195.499,1287.0157,195.8565,1287.0425,196.2818,1286.8537,196.6178,1286.7678,196.9964,1286.8547,197.2062,1286.3919,197.089,1286.0169,197.1836,1285.7362,197.506,1285.2685,197.3768,1285,197.7286,1285,197.2095,1274.84,198.3776,1264.68,198.1643,1254.52,198.4631,1244.36,197.4068,1234.2,198.0478,1224.04,198.319,1213.88,197.2562,1203.72,197.6328,1193.56,197.8546,1183.4,198.3804,1173.24,197.7244,1163.08,198.1912,1152.92,197.1748,1142.76,197.0514,1132.6,198.2322,1122.44,197.0117,1112.28,198.2376,1102.12,197.9352,1091.96,197.4607,1081.8,197.3748,1071.64,198.1874,1061.48,197.4293,1051.32,198.3205,1041.16,197.1759,1031,197.7286,1031.0788,197.9188,1030.7082,197.7313,1030.3241,197.5112,1029.9454,197.3038,1029.6785,197.3666,1029.2322,196.9964,1029.4212,197.0747,1029.1379,196.6644,1029.0219,196.3235,1028.7528,195.9191,1028.8671,195.6736,1028.5,195.2286,1028.6549,195.2286,1028.6726,185.6962,1027.8916,176.1637,1028.0948,166.6312,1029.0307,157.0988,1028.9298,147.5663,1028.4571,138.0339,1028.1778,128.5014,1028.5,118.9689,1028.4326,118.941,1028.4351,118.5279,1028.9206,118.3147,1029.1671,118.0026,1029.2479,117.6219,1029.2322,117.2012,1029.3209,117.4152,1029.5683,117.0126,1029.9505,116.9352,1030.2435,116.6425,1030.6827,116.7029,1031,116.4689" style="stroke:#181818;stroke-width:4.0;"/><text fill="#000000" font-family="Chalkduster" font-size="24" lengthAdjust="spacing" textLength="239" x="1038.5" y="150.3098">A research-ready</text><text fill="#000000" font-family="Chalkduster" font-size="24" lengthAdjust="spacing" textLength="175" x="1038.5" y="180.9397">process/idea</text></g><!--entity glamd--><g id="elem_glamd"><path d="M76.5,137.2889 L76.5,137.2889 L76.5482,137.369 L77.5007,136.4711 L78.7357,136.0422 L79.8788,135.4606 L80.7192,134.3767 L81.9785,133.9882 L81.9727,133.9541 L84.8351,133.3053 L87.727,132.828 L90.6394,132.47 L93.4812,131.701 L96.4219,131.5077 L96.4465,131.7525 L98.3238,131.0351 L100.273,131.0325 L102.2309,131.1172 L104.1378,130.6944 L106.0715,130.5385 L106.0738,130.5687 L108.2245,130.3627 L110.3856,130.2943 L112.5416,130.1596 L114.7072,130.1516 L116.8418,129.7304 L116.8589,130.0281 L119.1626,129.8994 L121.4552,129.5787 L123.764,129.5391 L126.0736,129.5126 L128.3591,129.0687 L128.3449,128.7485 L130.7507,129.264 L133.1096,128.7252 L135.5042,128.9879 L137.862,128.4251 L140.25,128.5389 L140.2491,128.5085 L144.9418,128.7239 L149.6126,128.2282 L154.2964,128.1521 L158.9812,128.1113 L163.6582,127.8163 L163.6616,128.0013 L167.7422,127.7403 L171.8285,127.7955 L175.9055,127.3393 L179.9964,127.6458 L184.0781,127.4452 L184.08,127.6888 L188.064,127.6115 L192.049,127.6551 L196.0296,127.1368 L200.0134,127.0303 L204,127.2889 L204,127.2889 L203.9978,127.0128 L207.9842,127.294 L211.9681,127.2641 L215.9555,127.6855 L219.9369,127.3363 L223.9219,127.4452 L223.9191,127.2928 L228.0077,127.6209 L232.0845,127.2973 L236.1696,127.4372 L240.2631,128.0304 L244.3418,127.8163 L244.3478,128.0098 L249.0335,128.2871 L253.7007,127.9624 L258.3911,128.3917 L263.0765,128.6567 L267.75,128.5389 L267.7407,128.3292 L270.1263,128.6023 L272.5088,128.8068 L274.8974,129.1462 L277.2626,128.9609 L279.6409,129.0687 L279.6527,129.274 L281.9302,128.9553 L284.2305,129.0329 L286.5641,129.6892 L288.8365,129.2799 L291.1582,129.7304 L291.1751,129.9559 L293.3191,129.9836 L295.4574,129.9349 L297.6086,130.0584 L299.7897,130.5802 L301.9285,130.5385 L301.9152,130.4061 L303.8847,130.994 L305.7638,130.6817 L307.7457,131.393 L309.6697,131.528 L311.5781,131.5077 L311.5966,131.615 L314.4703,132.0245 L317.4101,132.8182 L320.2903,133.2647 L323.1455,133.5662 L326.0215,133.9882 L326.083,134.0903 L327.0873,134.5987 L328.3772,135.5812 L329.3441,136.0276 L330.4439,136.6945 L331.5,137.2889 L330.9592,137.2889 L331.1398,145.2149 L331.9718,153.1409 L331.882,161.0668 L331.4618,168.9928 L331.5,176.9188 L331.5,176.9188 L331.4261,176.7961 L330.3541,177.4956 L329.1512,177.9779 L328.308,179.0571 L327.2868,179.841 L326.0215,180.2196 L326.0611,180.4501 L323.1851,181.0201 L320.2339,181.1519 L317.362,181.7461 L314.4376,182.0342 L311.5781,182.7 L311.5907,182.8256 L309.6592,183.003 L307.7428,183.332 L305.7781,183.18 L303.8524,183.416 L301.9285,183.6693 L301.9432,183.8658 L299.7933,184.0823 L297.6033,183.7654 L295.4599,184.0682 L293.3172,184.3819 L291.1582,184.4774 L291.1426,184.2063 L288.8637,184.7665 L286.5578,184.8565 L284.2452,184.8296 L281.948,185.0698 L279.6409,185.139 L279.6553,185.4625 L277.2565,185.106 L274.8908,185.4908 L272.512,185.5837 L270.1305,185.6142 L267.75,185.6688 L267.7519,185.7314 L263.0699,185.8637 L258.3782,185.6806 L253.6996,185.9243 L249.0171,186.0419 L244.3418,186.3914 L244.3423,186.4198 L240.2585,186.5048 L236.1751,186.6118 L232.0875,186.4848 L228.0053,186.6583 L223.9219,186.7625 L223.9215,186.7091 L219.9395,187.0502 L215.9546,187.0146 L211.9671,186.6405 L207.9841,186.8551 L204,186.9188 L204,186.9188 L203.998,186.6622 L200.0166,187.0157 L196.0334,187.1267 L192.0488,187.0671 L188.061,186.6002 L184.0781,186.7625 L184.0819,186.9687 L179.9881,186.3582 L175.9118,186.703 L171.8238,186.4069 L167.743,186.5086 L163.6582,186.3914 L163.6615,186.4982 L158.983,186.4566 L154.285,185.7826 L149.6198,186.1691 L144.9341,185.8925 L140.25,185.6688 L140.257,185.8266 L137.8866,185.8949 L135.4938,185.4593 L133.1189,185.4287 L130.7415,185.3397 L128.3591,185.139 L128.3642,185.2265 L126.0556,185.0063 L123.7703,185.1897 L121.4332,184.4715 L119.1597,184.8605 L116.8418,184.4774 L116.821,184.2008 L114.6698,184.0763 L112.535,184.1719 L110.3806,184.005 L108.2092,183.6125 L106.0715,183.6693 L106.0899,183.8522 L104.1464,183.5236 L102.2439,183.6029 L100.3114,183.3827 L98.3319,182.6957 L96.4219,182.7 L96.3919,182.5257 L93.5235,182.1474 L90.6713,181.8636 L87.7862,181.3883 L84.8898,180.8476 L81.9785,180.2196 L81.9001,180.0894 L81.0288,179.8017 L79.9325,179.1405 L78.6806,178.2211 L77.5409,177.4879 L76.5,176.9188 L76.1432,176.9188 L76.3093,168.9928 L76.6221,161.0668 L76.4392,153.1409 L76.1286,145.2149 L76.5,137.2889 " fill="none" style="stroke:#181818;stroke-width:4.0;"/><path d="M76.5,137.2889 L76.5,137.2889 L76.5482,137.369 L77.5007,137.7914 L78.7357,138.6828 L79.8788,139.4216 L80.7192,139.658 L81.9785,140.5897 L81.9727,140.5557 L84.8351,140.899 L87.727,141.4139 L90.6394,142.0482 L93.4812,142.2713 L96.4219,143.0702 L96.4465,143.315 L98.3238,142.9853 L100.273,143.3704 L102.2309,143.8428 L104.1378,143.8077 L106.0715,144.0394 L106.0738,144.0697 L108.2245,144.1869 L110.3856,144.4418 L112.5416,144.6303 L114.7072,144.9455 L116.8418,144.8475 L116.8589,145.1453 L119.1626,145.2813 L121.4552,145.2252 L123.764,145.4502 L126.0736,145.6884 L128.3591,145.5092 L128.3449,145.189 L130.7507,145.9164 L133.1096,145.5894 L135.5042,146.0641 L137.862,145.7132 L140.25,146.0389 L140.2491,146.0085 L144.9418,146.5129 L149.6126,146.3064 L154.2964,146.5193 L158.9812,146.7675 L163.6582,146.7616 L163.6616,146.9466 L167.7422,146.8341 L171.8285,147.0377 L175.9055,146.7299 L179.9964,147.1849 L184.0781,147.1327 L184.08,147.3763 L188.064,147.3615 L192.049,147.4676 L196.0296,147.0118 L200.0134,146.9678 L204,147.2889 L204,147.2889 L203.9978,147.0128 L207.9842,147.2315 L211.9681,147.1391 L215.9555,147.498 L219.9369,147.0863 L223.9219,147.1327 L223.9191,146.9803 L228.0077,147.1599 L232.0845,146.6879 L236.1696,146.6794 L240.2631,147.1242 L244.3418,146.7616 L244.3478,146.9551 L249.0335,146.9434 L253.7007,146.3296 L258.3911,146.4698 L263.0765,146.4458 L267.75,146.0389 L267.7407,145.8292 L270.1263,145.8904 L272.5088,145.883 L274.8974,146.0105 L277.2626,145.6133 L279.6409,145.5092 L279.6527,145.7144 L281.9302,145.1311 L284.2305,144.944 L286.5641,145.3357 L288.8365,144.6618 L291.1582,144.8475 L291.1751,145.0731 L293.3191,144.7775 L295.4574,144.4056 L297.6086,144.2059 L299.7897,144.4044 L301.9285,144.0394 L301.9152,143.9071 L303.8847,144.1073 L305.7638,143.4073 L307.7457,143.7309 L309.6697,143.4782 L311.5781,143.0702 L311.5966,143.1775 L314.4703,142.5948 L317.4101,142.3963 L320.2903,141.8507 L323.1455,141.16 L326.0215,140.5897 L326.083,140.6918 L327.0873,139.88 L328.3772,139.5422 L329.3441,138.6682 L330.4439,138.0148 L331.5,137.2889 " fill="none" style="stroke:#181818;stroke-width:4.0;"/><text fill="#000000" font-family="Chalkduster" font-size="24" lengthAdjust="spacing" textLength="235" x="86.5" y="175.1298">GLAM Collection</text></g><!--entity homed--><g id="elem_homed"><path d="M544,137.2889 L544,137.2889 L544.0327,137.3765 L547.0293,135.9602 L550.2176,135.0569 L553.3434,133.9866 L556.264,132.367 L559.4688,131.5077 L559.4649,131.4734 L562.6187,130.9639 L565.792,130.6274 L568.9787,130.4112 L572.1189,129.7805 L575.3242,129.7304 L575.3403,129.9759 L578.9411,129.2125 L582.5888,129.1661 L586.2422,129.2071 L589.8624,128.7392 L593.5,128.5389 L593.5012,128.5693 L597.1346,128.3802 L600.7735,128.3292 L604.4097,128.2116 L608.051,128.2209 L611.6758,127.8163 L611.6828,128.1145 L614.8539,128.0439 L618.0206,127.781 L621.1939,127.7996 L624.3675,127.8314 L627.5313,127.4452 L627.528,127.1247 L630.628,127.7155 L633.7174,127.2509 L636.8149,127.5887 L639.904,127.1002 L643,127.2889 L643,127.2889 L642.9997,127.2585 L646.0971,127.6498 L649.1873,127.3298 L652.2817,127.4295 L655.3765,127.5644 L658.4688,127.4452 L658.4731,127.6301 L661.6398,127.5177 L664.8139,127.7213 L667.9761,127.4135 L671.1561,127.8684 L674.3242,127.8163 L674.3339,128.0597 L677.9672,128.1582 L681.6054,128.3776 L685.2212,128.0354 L688.8533,128.1048 L692.5,128.5389 L692.4819,128.2634 L696.1334,128.7511 L699.7646,128.9284 L703.4253,129.556 L707.0355,129.4146 L710.6758,129.7304 L710.6588,129.5788 L713.8582,130.1866 L716.985,130.1468 L720.1634,130.5675 L723.3923,131.4389 L726.5313,131.5077 L726.599,131.6891 L729.7393,132.9697 L732.6687,133.6862 L735.8622,135.1093 L738.9981,136.3785 L742,137.2889 L741.5801,137.2889 L741.9148,145.2149 L742.112,153.1409 L742.5793,161.0668 L741.9963,168.9928 L742,176.9188 L742,176.9188 L742.072,177.1114 L738.8201,177.8445 L735.7071,178.9493 L732.7971,180.5972 L729.5134,181.2453 L726.5313,182.7 L726.5564,182.9248 L723.3704,183.1468 L720.1758,183.2926 L717.0005,183.6102 L713.8696,184.3245 L710.6758,184.4774 L710.6671,184.3446 L707.0578,184.9781 L703.3894,184.7088 L699.7883,185.466 L696.1492,185.6453 L692.5,185.6688 L692.5043,185.7776 L688.8657,185.8343 L685.2425,186.2805 L681.6054,186.3749 L677.9624,186.3221 L674.3242,186.3914 L674.327,186.5106 L671.1518,186.4078 L667.9895,186.8582 L664.8125,186.6829 L661.6416,186.765 L658.4688,186.7625 L658.466,186.4922 L655.3732,186.6137 L652.2836,187.0609 L649.1894,187.0473 L646.0936,186.8685 L643,186.9188 L643,186.9188 L642.9986,186.7756 L639.9053,186.7902 L636.8094,186.5513 L633.7206,187.0094 L630.6283,187.1225 L627.5313,186.7625 L627.5367,186.9964 L624.3674,186.9971 L621.1876,186.5533 L618.0189,186.5786 L614.8428,186.2934 L611.6758,186.3914 L611.6808,186.5176 L608.045,186.3565 L604.4152,186.3477 L600.7663,185.8559 L597.1328,185.7536 L593.5,185.6688 L593.5129,185.8655 L589.8813,185.6821 L586.2148,184.9649 L582.5889,184.868 L578.9637,184.7819 L575.3242,184.4774 L575.294,184.2076 L572.1706,184.278 L568.9948,183.8804 L565.8059,183.3665 L562.6469,183.1183 L559.4688,182.7 L559.5821,183.0034 L556.3263,181.4135 L553.3303,180.5187 L550.2319,179.3502 L547.1118,178.1232 L544,176.9188 L544.1253,176.9188 L544.1009,168.9928 L543.4452,161.0668 L543.6437,153.1409 L543.5897,145.2149 L544,137.2889 " fill="none" style="stroke:#181818;stroke-width:4.0;"/><path d="M544,137.2889 L544,137.2889 L544.0327,137.3765 L547.0293,138.2727 L550.2176,139.6819 L553.3434,140.9241 L556.264,141.617 L559.4688,143.0702 L559.4649,143.0359 L562.6187,143.2373 L565.792,143.6118 L568.9787,144.1065 L572.1189,144.1867 L575.3242,144.8475 L575.3403,145.0931 L578.9411,144.8063 L582.5888,145.2364 L586.2422,145.754 L589.8624,145.7626 L593.5,146.0389 L593.5012,146.0693 L597.1346,146.1693 L600.7735,146.4073 L604.4097,146.5787 L608.051,146.8772 L611.6758,146.7616 L611.6828,147.0598 L614.8539,147.1376 L618.0206,147.0232 L621.1939,147.1902 L624.3675,147.3705 L627.5313,147.1327 L627.528,146.8122 L630.628,147.4655 L633.7174,147.0634 L636.8149,147.4637 L639.904,147.0377 L643,147.2889 L643,147.2889 L642.9997,147.2585 L646.0971,147.5873 L649.1873,147.2048 L652.2817,147.242 L655.3765,147.3144 L658.4688,147.1327 L658.4731,147.3176 L661.6398,147.0567 L664.8139,147.1119 L667.9761,146.6557 L671.1561,146.9622 L674.3242,146.7616 L674.3339,147.0051 L677.9672,146.8145 L681.6054,146.7448 L685.2212,146.1135 L688.8533,145.8939 L692.5,146.0389 L692.4819,145.7634 L696.1334,145.7746 L699.7646,145.4752 L703.4253,145.6263 L707.0355,145.0084 L710.6758,144.8475 L710.6588,144.696 L713.8582,144.5929 L716.985,143.8421 L720.1634,143.5519 L723.3923,143.7123 L726.5313,143.0702 L726.599,143.2516 L729.7393,142.2197 L732.6687,140.6237 L735.8622,139.7343 L738.9981,138.691 L742,137.2889 " fill="none" style="stroke:#181818;stroke-width:4.0;"/><text fill="#000000" font-family="Chalkduster" font-size="24" lengthAdjust="spacing" textLength="178" x="554" y="175.1298">Home Grown</text></g><!--entity proj--><g id="elem_proj"><polygon fill="none" points="814.5,389.9189,814.5,390.1291,824.3333,389.5046,834.1667,390.1122,844,390.3186,853.8333,389.2056,863.6667,389.8412,873.5,389.4925,883.3333,389.5355,893.1667,389.8508,903,389.2276,912.8333,390.4726,922.6667,389.2887,932.5,389.7212,942.3333,390.3509,952.1667,389.8332,962,389.9872,971.8333,389.887,981.6667,390.0975,991.5,389.9189,991.5305,389.9926,991.9283,390.2458,992.2927,390.4185,992.6473,390.5675,992.9467,390.5832,993.2678,390.6512,993.4105,390.7103,993.6305,391.0943,993.3386,391.2663,993.9161,391.7984,993.7622,392.0276,994,392.4189,994.5338,392.4189,993.505,401.5449,993.9315,410.6709,994.7416,419.7968,993.9513,428.9228,994,438.0488,994.0324,438.0622,993.9578,438.4455,993.8353,438.809,993.5595,439.1089,993.5027,439.4996,993.2678,439.8166,993.1947,439.6403,992.9505,440.0506,992.6306,440.2783,992.2638,440.3928,991.9318,440.5911,991.5,440.5488,991.5,440.0657,981.6667,439.8966,971.8333,439.9274,962,440.4899,952.1667,440.3523,942.3333,441.2302,932.5,440.3741,922.6667,440.2057,912.8333,440.7771,903,439.8819,893.1667,440.0297,883.3333,441.1977,873.5,440.9845,863.6667,441.2833,853.8333,440.227,844,440.868,834.1667,441.1392,824.3333,440.0764,814.5,440.5488,814.4878,440.5193,814.1625,440.4411,813.876,440.4566,813.4388,440.1082,813.1448,440.1054,812.7322,439.8166,812.5617,439.7459,812.3772,439.3766,812.5944,439.1737,812.0721,438.6644,812.3032,438.4673,812,438.0488,812.2066,438.0488,811.7321,428.9228,811.6462,419.7968,812.4588,410.6709,811.7007,401.5449,812,392.4189,812.1823,392.4944,811.9762,391.9949,812.483,391.7906,812.5885,391.4201,812.6612,391.036,812.7322,390.6512,812.7383,390.6657,813.1785,390.7285,813.5176,390.5472,813.8145,390.264,814.1807,390.148,814.5,389.9189" style="stroke:#181818;stroke-width:4.0;"/><text fill="#000000" font-family="Chalkduster" font-size="24" lengthAdjust="spacing" textLength="162" x="822" y="423.7598">CDL Project</text></g><!--entity Static hosting\n(Guide Sites)--><g id="elem_Static hosting\n(Guide Sites)"><polygon fill="none" points="977,963.1789,977,963.3891,987,962.7646,997,963.3722,1007,963.5786,1017,962.4656,1027,963.1012,1037,962.7525,1047,962.7955,1057,963.1108,1067,962.4876,1077,963.7326,1087,962.5487,1097,962.9812,1107,963.6109,1117,963.0932,1127,963.2472,1137,963.147,1147,963.3575,1157,963.4181,1167,963.7646,1177,963.1789,1177.0856,963.3856,1177.4402,963.5346,1177.7396,963.5503,1178.1198,963.7611,1178.5038,963.981,1178.7678,963.9112,1178.5457,963.8192,1179.1232,964.3513,1178.9693,964.5805,1179.3715,965.0399,1179.2011,965.2623,1179.5,965.6789,1179.4315,965.6789,1180.2416,975.2114,1179.4513,984.7439,1179.6053,994.2763,1179.8386,1003.8088,1179.9162,1013.3412,1179.4961,1022.8737,1179.7872,1032.4062,1179.5,1041.9386,1179.3237,1041.8656,1179.4411,1042.3284,1179.3759,1042.7157,1179.1976,1043.056,1179.103,1043.431,1178.7678,1043.7064,1178.7061,1043.5576,1178.331,1043.652,1177.9814,1043.8079,1177.6996,1044.1276,1177.3285,1044.2316,1177,1044.4386,1177,1045.12,1167,1044.2639,1157,1044.0956,1147,1044.6669,1137,1043.7718,1127,1043.9195,1117,1045.0876,1107,1044.8743,1097,1045.1731,1087,1044.1168,1077,1044.7578,1067,1045.029,1057,1043.9662,1047,1044.3428,1037,1044.5646,1027,1045.0904,1017,1044.4344,1007,1044.9012,997,1043.8848,987,1043.7614,977,1044.4386,977.0642,1044.5937,976.555,1044.0714,976.3578,1044.3025,975.9657,1044.0629,975.5516,1043.7703,975.2322,1043.7064,975.1233,1043.6613,975.2271,1043.4113,974.8472,1042.9611,974.9752,1042.7212,974.4762,1042.2217,974.5,1041.9386,975.1174,1041.9386,974.9843,1032.4062,974.745,1022.8737,974.5472,1013.3412,975.2266,1003.8088,975.1136,994.2763,974.6693,984.7439,974.7682,975.2114,974.5,965.6789,974.4599,965.6623,974.8671,965.4168,974.8406,964.9916,974.9925,964.6403,974.8984,964.1871,975.2322,963.9112,975.1805,963.7864,975.6535,963.9282,975.9942,963.7506,976.2874,963.4586,976.6054,963.2262,977,963.1789" style="stroke:#181818;stroke-width:4.0;"/><text fill="#000000" font-family="Chalkduster" font-size="24" lengthAdjust="spacing" textLength="185" x="984.5" y="997.0198">Static hosting</text><text fill="#000000" font-family="Chalkduster" font-size="24" lengthAdjust="spacing" textLength="180" x="984.5" y="1027.6497">(Guide Sites)</text></g><!--entity On-demand Compute\n(Notebooks)--><g id="elem_On-demand Compute\n(Notebooks)"><polygon fill="none" points="1217,963.1789,1217,963.3891,1226.871,962.7646,1236.7419,963.3722,1246.6129,963.5786,1256.4839,962.4656,1266.3548,963.1012,1276.2258,962.7525,1286.0968,962.7955,1295.9677,963.1108,1305.8387,962.4876,1315.7097,963.7326,1325.5806,962.5487,1335.4516,962.9812,1345.3226,963.6109,1355.1935,963.0932,1365.0645,963.2472,1374.9355,963.147,1384.8065,963.3575,1394.6774,963.4181,1404.5484,963.7646,1414.4194,963.85,1424.2903,963.8582,1434.1613,963.4336,1444.0323,963.6425,1453.9032,963.8812,1463.7742,962.4578,1473.6452,963.8575,1483.5161,962.8824,1493.3871,963.7128,1503.2581,962.6839,1513.129,963.1105,1523,963.1789,1523.0946,963.4073,1523.3473,963.3104,1523.7205,963.5043,1524.1039,963.7226,1524.4673,963.8929,1524.7678,963.9112,1524.7666,963.9107,1525.0027,964.3014,1524.8844,964.5453,1525.2947,965.0081,1525.5224,965.3953,1525.5,965.6789,1525.9445,965.6789,1526.113,975.2114,1525.0169,984.7439,1524.8478,994.2763,1524.8786,1003.8088,1525.4411,1013.3412,1525.3035,1022.8737,1526.1814,1032.4062,1525.5,1041.9386,1525.4462,1041.9163,1525.2479,1042.2484,1525.2774,1042.6748,1524.8553,1042.9142,1524.7543,1043.2866,1524.7678,1043.7064,1524.8505,1043.9062,1524.4698,1043.987,1524.1544,1044.2255,1523.6661,1044.0466,1523.3943,1044.3905,1523,1044.4386,1523,1045.029,1513.129,1043.9662,1503.2581,1044.3428,1493.3871,1044.5646,1483.5161,1045.0904,1473.6452,1044.4344,1463.7742,1044.9012,1453.9032,1043.8848,1444.0323,1043.7614,1434.1613,1044.9422,1424.2903,1043.7217,1414.4194,1044.9476,1404.5484,1044.6452,1394.6774,1044.1707,1384.8065,1044.0848,1374.9355,1044.8974,1365.0645,1044.1393,1355.1935,1045.0305,1345.3226,1043.8859,1335.4516,1045.056,1325.5806,1044.9229,1315.7097,1044.6836,1305.8387,1044.4858,1295.9677,1045.1652,1286.0968,1045.0522,1276.2258,1044.6079,1266.3548,1044.7068,1256.4839,1044.3084,1246.6129,1045.1551,1236.7419,1044.5935,1226.871,1044.6112,1217,1044.4386,1216.9224,1044.2513,1216.5948,1044.1674,1216.3606,1044.3092,1215.9942,1044.1316,1215.5803,1043.8396,1215.2322,1043.7064,1215.133,1043.6653,1215.0184,1043.3249,1214.728,1042.9117,1214.9206,1042.6986,1214.8742,1042.3865,1214.5,1041.9386,1215.0264,1041.9386,1215.1949,1032.4062,1214.3633,1022.8737,1214.5872,1013.3412,1214.1124,1003.8088,1214.784,994.2763,1214.7468,984.7439,1215.0524,975.2114,1214.5,965.6789,1214.4293,965.6497,1214.6051,965.3083,1214.9295,965.0284,1215.1141,964.6907,1214.9279,964.1994,1215.2322,963.9112,1215.2075,963.8515,1215.6048,963.8107,1215.8614,963.4302,1216.338,963.5807,1216.6794,963.4048,1217,963.1789" style="stroke:#181818;stroke-width:4.0;"/><text fill="#000000" font-family="Chalkduster" font-size="24" lengthAdjust="spacing" textLength="291" x="1224.5" y="997.0198">On-demand Compute</text><text fill="#000000" font-family="Chalkduster" font-size="24" lengthAdjust="spacing" textLength="162" x="1224.5" y="1027.6497">(Notebooks)</text></g><!--entity Collection & Annotation\n(Omeka-S)--><g id="elem_Collection &amp; Annotation\n(Omeka-S)"><polygon fill="none" points="978,1108.1189,978,1108.3291,987.9444,1107.7046,997.8889,1108.3122,1007.8333,1108.5186,1017.7778,1107.4056,1027.7222,1108.0412,1037.6667,1107.6925,1047.6111,1107.7355,1057.5556,1108.0508,1067.5,1107.4276,1077.4444,1108.6726,1087.3889,1107.4887,1097.3333,1107.9212,1107.2778,1108.5509,1117.2222,1108.0332,1127.1667,1108.1872,1137.1111,1108.087,1147.0556,1108.2975,1157,1108.3581,1166.9444,1108.7046,1176.8889,1108.79,1186.8333,1108.7982,1196.7778,1108.3736,1206.7222,1108.5825,1216.6667,1108.8212,1226.6111,1107.3978,1236.5556,1108.7975,1246.5,1107.8224,1256.4444,1108.6528,1266.3889,1107.6239,1276.3333,1108.0505,1286.2778,1108.8606,1296.2222,1108.0702,1306.1667,1108.2243,1316.1111,1108.4576,1326.0556,1108.5352,1336,1108.1189,1335.9995,1108.1177,1336.3902,1108.3538,1336.6341,1108.2356,1337.0969,1108.6459,1337.4841,1108.8736,1337.7678,1108.8512,1337.9047,1108.9079,1338.103,1109.2829,1337.9119,1109.4967,1338.0063,1109.8286,1338.1622,1110.1861,1338.5,1110.6189,1338.4411,1110.6189,1338.3035,1120.1514,1339.1814,1129.6839,1338.3253,1139.2163,1338.1569,1148.7488,1338.7283,1158.2812,1337.8332,1167.8137,1337.9809,1177.3462,1338.5,1186.8786,1338.6999,1186.9614,1338.4877,1187.2877,1338.4333,1187.6794,1337.9616,1187.8982,1338.0125,1188.3335,1337.7678,1188.6464,1337.8431,1188.8282,1337.354,1188.6473,1337.0484,1188.9098,1336.7232,1189.1245,1336.4367,1189.4329,1336,1189.3786,1336,1189.3744,1326.0556,1189.8412,1316.1111,1188.8248,1306.1667,1188.7014,1296.2222,1189.8822,1286.2778,1188.6617,1276.3333,1189.8876,1266.3889,1189.5852,1256.4444,1189.1107,1246.5,1189.0248,1236.5556,1189.8374,1226.6111,1189.0793,1216.6667,1189.9705,1206.7222,1188.8259,1196.7778,1189.996,1186.8333,1189.8629,1176.8889,1189.6236,1166.9444,1189.4258,1157,1190.1052,1147.0556,1189.9922,1137.1111,1189.5479,1127.1667,1189.6468,1117.2222,1189.2484,1107.2778,1190.0951,1097.3333,1189.5335,1087.3889,1189.5512,1077.4444,1188.7703,1067.5,1188.9734,1057.5556,1189.9094,1047.6111,1189.8084,1037.6667,1189.3357,1027.7222,1189.0564,1017.7778,1189.1597,1007.8333,1188.6924,997.8889,1189.7934,987.9444,1190.1182,978,1189.3786,978.0671,1189.5407,977.7351,1189.4462,977.2755,1189.0436,976.9505,1188.9661,976.5363,1188.6735,976.2322,1188.6464,976.3197,1188.6826,976.1618,1188.3243,976.1095,1188.0097,975.7222,1187.5564,975.6051,1187.215,975.5,1186.8786,975.9435,1186.8786,976.0673,1177.3462,974.9875,1167.8137,975.3061,1158.2812,975.6493,1148.7488,974.8892,1139.2163,975.8534,1129.6839,975.758,1120.1514,975.5,1110.6189,975.469,1110.6061,975.6903,1110.2835,976.0173,1110.0048,975.843,1109.5184,976.1828,1109.2449,976.2322,1108.8512,976.2687,1108.9392,976.6006,1108.7404,976.9573,1108.6017,977.3074,1108.4468,977.5668,1108.0732,978,1108.1189" style="stroke:#181818;stroke-width:4.0;"/><text fill="#000000" font-family="Chalkduster" font-size="24" lengthAdjust="spacing" textLength="343" x="985.5" y="1141.9598">Collection &amp; Annotation</text><text fill="#000000" font-family="Chalkduster" font-size="24" lengthAdjust="spacing" textLength="142" x="985.5" y="1172.5897">(Omeka-S)</text></g><!--entity Trove Data Guide--><g id="elem_Trove Data Guide"><polygon fill="none" points="33.5,738.5489,33.5,738.7591,43.3148,738.1346,53.1296,738.7422,62.9444,738.9486,72.7593,737.8356,82.5741,738.4712,92.3889,738.1225,102.2037,738.1655,112.0185,738.4808,121.8333,737.8576,131.6481,739.1026,141.463,737.9187,151.2778,738.3512,161.0926,738.9809,170.9074,738.4632,180.7222,738.6172,190.537,738.517,200.3519,738.7275,210.1667,738.7881,219.9815,739.1346,229.7963,739.22,239.6111,739.2282,249.4259,738.8036,259.2407,739.0125,269.0556,739.2512,278.8704,737.8278,288.6852,739.2275,298.5,738.5489,298.4622,738.4576,298.9216,738.8598,299.144,738.6894,299.5519,738.9672,300.0088,739.3631,300.2678,739.2812,300.2528,739.275,300.4466,739.6482,300.6649,740.0315,300.8353,740.3949,300.8524,740.6949,301,741.0489,301.2872,741.0489,300.4276,750.1749,301.2844,759.3009,301.5482,768.4268,301.4445,777.5528,301,786.6788,301.1888,786.757,300.7048,786.9707,300.5063,787.3027,300.3693,787.6602,300.3961,788.0855,300.2678,788.4466,300.2427,788.386,300.0011,788.8028,299.5384,788.6856,299.1633,788.7802,298.8827,789.1026,298.5,789.1788,298.5,788.5119,288.6852,788.6597,278.8704,789.8277,269.0556,789.6145,259.2407,789.9133,249.4259,788.857,239.6111,789.498,229.7963,789.7692,219.9815,788.7064,210.1667,789.0829,200.3519,789.3048,190.537,789.8305,180.7222,789.1746,170.9074,789.6414,161.0926,788.625,151.2778,788.5015,141.463,789.6824,131.6481,788.4618,121.8333,789.6877,112.0185,789.3854,102.2037,788.9109,92.3889,788.825,82.5741,789.6375,72.7593,788.8795,62.9444,789.7706,53.1296,788.626,43.3148,789.7962,33.5,789.1788,33.5618,789.3279,33.1777,789.1078,32.7989,788.9004,32.532,788.9632,32.1641,788.782,31.7322,788.4466,31.7844,788.4681,31.6684,788.1272,31.3992,787.7228,31.5135,787.4773,31.1941,787.0521,31,786.6788,31.1726,786.6788,30.3916,777.5528,30.5948,768.4268,31.5307,759.3009,31.4298,750.1749,31,741.0489,30.9868,741.0435,31.0472,740.6543,31.2255,740.3139,31.228,739.9008,31.7135,739.6876,31.7322,739.2812,31.8266,739.5089,32.1529,739.2968,32.528,739.2023,32.7755,738.7997,33.1576,738.7223,33.5,738.5489" style="stroke:#181818;stroke-width:4.0;"/><text fill="#000000" font-family="Chalkduster" font-size="24" lengthAdjust="spacing" textLength="250" x="41" y="772.3898">Trove Data Guide</text></g><!--entity Mapping and Geospatial Data Guide--><g id="elem_Mapping and Geospatial Data Guide"><polygon fill="none" points="339,738.5489,339,738.7591,348.9245,738.1346,358.8491,738.7422,368.7736,738.9486,378.6981,737.8356,388.6226,738.4712,398.5472,738.1225,408.4717,738.1655,418.3962,738.4808,428.3208,737.8576,438.2453,739.1026,448.1698,737.9187,458.0943,738.3512,468.0189,738.9809,477.9434,738.4632,487.8679,738.6172,497.7925,738.517,507.717,738.7275,517.6415,738.7881,527.566,739.1346,537.4906,739.22,547.4151,739.2282,557.3396,738.8036,567.2642,739.0125,577.1887,739.2512,587.1132,737.8278,597.0377,739.2275,606.9623,738.2524,616.8868,739.0828,626.8113,738.0539,636.7358,738.4805,646.6604,739.2906,656.5849,738.5002,666.5094,738.6543,676.434,738.8876,686.3585,738.9652,696.283,738.545,706.2075,738.8362,716.1321,737.9765,726.0566,738.8333,735.9811,739.0971,745.9057,738.9935,755.8302,739.162,765.7547,738.0659,775.6792,737.8968,785.6038,737.9275,795.5283,738.4901,805.4528,738.3524,815.3774,739.2304,825.3019,738.3743,835.2264,738.2059,845.1509,738.7772,855.0755,737.8821,865,738.5489,864.9338,738.3891,865.4363,738.8952,865.7627,738.976,866.1544,739.2145,866.3732,739.0356,866.7678,739.2812,866.8661,739.3219,867.096,739.7101,866.9152,739.928,867.1776,740.3296,867.3924,740.7115,867.5,741.0489,868.1518,741.0489,867.4958,750.1749,867.9626,759.3009,866.9462,768.4268,866.8227,777.5528,867.5,786.6788,867.6551,786.743,867.1328,786.9409,867.3638,787.4508,867.1243,787.7658,866.8317,788.0588,866.7678,788.4466,866.7226,788.3376,866.4727,788.7343,866.0225,788.6473,865.7826,789.0682,865.283,788.8621,865,789.1788,865,789.7962,855.0755,789.6631,845.1509,789.4238,835.2264,789.226,825.3019,789.9054,815.3774,789.7924,805.4528,789.348,795.5283,789.447,785.6038,789.0485,775.6792,789.8952,765.7547,789.3337,755.8302,789.3514,745.9057,788.5704,735.9811,788.7736,726.0566,789.7095,716.1321,789.6085,706.2075,789.1359,696.283,788.8566,686.3585,788.9599,676.434,788.4926,666.5094,789.5935,656.5849,789.9183,646.6604,789.7052,636.7358,789.8737,626.8113,789.0421,616.8868,789.266,606.9623,788.7912,597.0377,789.4628,587.1132,789.4255,577.1887,789.7312,567.2642,788.9491,557.3396,789.0444,547.4151,789.6222,537.4906,789.7461,527.566,788.6663,517.6415,788.9849,507.717,789.328,497.7925,788.5679,487.8679,789.5322,477.9434,789.4368,468.0189,789.078,458.0943,789.321,448.1698,789.9075,438.2453,788.8659,428.3208,789.4938,418.3962,789.4644,408.4717,789.2946,398.5472,789.3197,388.6226,789.2923,378.6981,788.5546,368.7736,788.778,358.8491,788.7172,348.9245,789.2426,339,789.1788,339.0112,789.2059,338.6671,789.0821,338.2558,788.7963,337.9307,788.7187,337.5705,788.556,337.2322,788.4466,337.4099,788.5201,337.2172,788.1474,336.7898,787.6775,336.7704,787.3766,336.4687,786.9587,336.5,786.6788,336.7884,786.6788,337.1085,777.5528,337.0446,768.4268,336.0644,759.3009,336.964,750.1749,336.5,741.0489,336.2712,740.9542,336.7081,740.7209,336.7007,740.3037,336.9691,740.0006,337.1598,739.6654,337.2322,739.2812,337.2925,739.4266,337.494,738.913,338,739.1347,338.3156,738.8967,338.6918,738.8048,339,738.5489" style="stroke:#181818;stroke-width:4.0;"/><text fill="#000000" font-family="Chalkduster" font-size="24" lengthAdjust="spacing" textLength="511" x="346.5" y="772.3898">Mapping and Geospatial Data Guide</text></g><!--entity Data Collection & Annotation Guide--><g id="elem_Data Collection &amp; Annotation Guide"><polygon fill="none" points="34,978.4889,34,978.6991,44,978.0746,54,978.6822,64,978.8886,74,977.7756,84,978.4112,94,978.0625,104,978.1055,114,978.4208,124,977.7976,134,979.0426,144,977.8587,154,978.2912,164,978.9209,174,978.4032,184,978.5572,194,978.457,204,978.6675,214,978.7281,224,979.0746,234,979.16,244,979.1682,254,978.7436,264,978.9525,274,979.1912,284,977.7678,294,979.1675,304,978.1924,314,979.0228,324,977.9939,334,978.4205,344,979.2306,354,978.4402,364,978.5943,374,978.8276,384,978.9052,394,978.485,404,978.7762,414,977.9165,424,978.7733,434,979.0371,444,978.9335,454,979.102,464,978.0059,474,977.8368,484,977.8675,494,978.4301,504,978.2924,514,979.1704,524,978.3143,534,978.1459,544,978.7172,554,977.8221,564,978.4889,563.9338,978.3291,564.4363,978.8352,564.7627,978.916,565.1544,979.1545,565.3732,978.9756,565.7678,979.2212,565.8661,979.2619,566.096,979.6501,565.9152,979.868,566.1776,980.2696,566.3924,980.6515,566.5,980.9889,567.1518,980.9889,566.4958,990.1149,566.9626,999.2409,565.9462,1008.3668,565.8227,1017.4928,566.5,1026.6188,566.6551,1026.683,566.1328,1026.8809,566.3638,1027.3908,566.1243,1027.7058,565.8317,1027.9988,565.7678,1028.3866,565.7226,1028.2776,565.4727,1028.6743,565.0225,1028.5873,564.7826,1029.0082,564.283,1028.8021,564,1029.1188,564,1029.7362,554,1029.6031,544,1029.3638,534,1029.166,524,1029.8454,514,1029.7324,504,1029.288,494,1029.387,484,1028.9885,474,1029.8352,464,1029.2737,454,1029.2914,444,1028.5104,434,1028.7136,424,1029.6495,414,1029.5485,404,1029.0759,394,1028.7966,384,1028.8999,374,1028.4326,364,1029.5335,354,1029.8583,344,1029.6452,334,1029.8137,324,1028.9821,314,1029.206,304,1028.7312,294,1029.4028,284,1029.3655,274,1029.6712,264,1028.8891,254,1028.9844,244,1029.5622,234,1029.6861,224,1028.6063,214,1028.9249,204,1029.268,194,1028.5079,184,1029.4722,174,1029.3768,164,1029.018,154,1029.261,144,1029.8475,134,1028.8059,124,1029.4338,114,1029.4044,104,1029.2346,94,1029.2597,84,1029.2323,74,1028.4946,64,1028.718,54,1028.6572,44,1029.1826,34,1029.1188,34.0112,1029.1459,33.6671,1029.0221,33.2558,1028.7363,32.9307,1028.6587,32.5705,1028.496,32.2322,1028.3866,32.4099,1028.4601,32.2172,1028.0874,31.7898,1027.6175,31.7704,1027.3166,31.4687,1026.8987,31.5,1026.6188,31.7884,1026.6188,32.1085,1017.4928,32.0446,1008.3668,31.0644,999.2409,31.964,990.1149,31.5,980.9889,31.2712,980.8942,31.7081,980.6609,31.7007,980.2437,31.9691,979.9406,32.1598,979.6054,32.2322,979.2212,32.2925,979.3666,32.494,978.853,33,979.0747,33.3156,978.8367,33.6918,978.7448,34,978.4889" style="stroke:#181818;stroke-width:4.0;"/><text fill="#000000" font-family="Chalkduster" font-size="24" lengthAdjust="spacing" textLength="515" x="41.5" y="1012.3298">Data Collection &amp; Annotation Guide</text></g><!--entity ... more--><g id="elem_... more"><polygon fill="none" points="604,978.4889,604,978.6991,614,978.0746,624,978.6822,634,978.8886,644,977.7756,654,978.4112,664,978.0625,674,978.1055,684,978.4208,694,977.7976,704,979.0426,714,977.8587,724,978.4889,723.9748,978.428,724.4087,978.7684,724.6962,978.7554,725.0694,978.9493,725.4101,979.0649,725.7678,979.2212,725.8227,979.244,725.9879,979.6052,726.241,980.003,726.4138,980.3674,726.5627,980.722,726.5,980.9889,726.7546,980.9889,726.9636,990.1149,727.2022,999.2409,725.7788,1008.3668,727.1785,1017.4928,726.5,1026.6188,726.4087,1026.581,726.5179,1027.0404,726.0547,1027.2627,726.0396,1027.6707,726.1426,1028.1276,725.7678,1028.3866,725.7616,1028.3715,725.4276,1028.5654,725.1039,1028.7837,724.7602,1028.9541,724.3531,1028.9711,724,1029.1188,724,1029.406,714,1028.5464,704,1029.4032,694,1029.667,684,1029.5633,674,1029.7318,664,1028.6357,654,1028.4666,644,1028.4974,634,1029.0599,624,1028.9223,614,1029.8002,604,1029.1188,603.9777,1029.065,603.6027,1028.8667,603.322,1028.8962,602.8543,1028.4741,602.5196,1028.3731,602.2322,1028.3866,602.4321,1028.4693,602.22,1028.0886,602.1655,1027.7731,601.6938,1027.2848,601.7447,1027.0131,601.5,1026.6188,602.0904,1026.6188,601.0276,1017.4928,601.4041,1008.3668,601.626,999.2409,602.1518,990.1149,601.5,980.9889,601.4987,980.9884,601.7889,980.6944,601.6223,980.2112,601.7308,979.8419,602.2409,979.639,602.2322,979.2212,602.1408,979.0004,602.6507,979.2315,602.9657,978.9919,603.2587,978.6993,603.6013,978.5264,604,978.4889" style="stroke:#181818;stroke-width:4.0;"/><text fill="#000000" font-family="Chalkduster" font-size="24" lengthAdjust="spacing" textLength="105" x="611.5" y="1012.3298">... more</text></g><!--entity Libraries--><g id="elem_Libraries"><polygon fill="none" points="950,1562.3789,950,1562.5891,960.1538,1561.9646,970.3077,1562.5722,980.4615,1562.7786,990.6154,1561.6656,1000.7692,1562.3012,1010.9231,1561.9525,1021.0769,1561.9955,1031.2308,1562.3108,1041.3846,1561.6876,1051.5385,1562.9326,1061.6923,1561.7487,1071.8462,1562.1812,1082,1562.3789,1082.0551,1562.512,1082.3426,1562.499,1082.7158,1562.6929,1083.0566,1562.8085,1083.437,1563.0197,1083.7678,1563.1112,1083.8414,1563.1417,1084.0946,1563.5394,1084.2673,1563.9039,1084.4163,1564.2585,1084.432,1564.5579,1084.5,1564.8789,1084.9636,1564.8789,1085.2022,1574.0049,1083.7788,1583.1309,1085.1785,1592.2568,1084.2035,1601.3828,1084.5,1610.5088,1084.6644,1610.5769,1084.2011,1610.7992,1084.186,1611.2072,1084.289,1611.664,1083.8992,1611.9168,1083.7678,1612.2766,1083.7812,1612.309,1083.4574,1612.5273,1083.1138,1612.6976,1082.7066,1612.7147,1082.3902,1612.9508,1082,1613.0088,1082,1612.4364,1071.8462,1613.2932,1061.6923,1613.557,1051.5385,1613.4533,1041.3846,1613.6218,1031.2308,1612.5257,1021.0769,1612.3566,1010.9231,1612.3874,1000.7692,1612.9499,990.6154,1612.8123,980.4615,1613.6902,970.3077,1612.8341,960.1538,1612.6657,950,1613.0088,950.0291,1613.0791,949.5614,1612.657,949.2267,1612.556,949.0221,1612.7693,948.6414,1612.5572,948.2322,1612.2766,948.4584,1612.3702,947.9867,1611.8819,948.0376,1611.6102,947.9747,1611.2912,947.501,1610.8021,947.5,1610.5088,947.4041,1610.5088,947.626,1601.3828,948.1518,1592.2568,947.4958,1583.1309,947.9626,1574.0049,947.5,1564.8789,947.3295,1564.8083,947.4379,1564.439,947.948,1564.2361,947.7186,1563.7268,948.2425,1563.5297,948.2322,1563.1112,948.2586,1563.1748,948.5516,1562.8822,948.8942,1562.7093,949.3514,1562.8131,949.6083,1562.4332,950,1562.3789" style="stroke:#181818;stroke-width:4.0;"/><text fill="#000000" font-family="Chalkduster" font-size="24" lengthAdjust="spacing" textLength="117" x="957.5" y="1596.2198">Libraries</text></g><!--entity Notebooks--><g id="elem_Notebooks"><polygon fill="none" points="1122,1562.3789,1122,1562.5891,1132.2667,1561.9646,1142.5333,1562.5722,1152.8,1562.7786,1163.0667,1561.6656,1173.3333,1562.3012,1183.6,1561.9525,1193.8667,1561.9955,1204.1333,1562.3108,1214.4,1561.6876,1224.6667,1562.9326,1234.9333,1561.7487,1245.2,1562.1812,1255.4667,1562.8109,1265.7333,1562.2932,1276,1562.3789,1276.0087,1562.4,1276.3495,1562.5156,1276.7299,1562.7268,1277.0912,1562.8919,1277.4889,1563.1451,1277.7678,1563.1112,1277.9744,1563.1968,1278.1234,1563.5514,1278.1391,1563.8508,1278.3499,1564.231,1278.5698,1564.615,1278.5,1564.8789,1277.7788,1564.8789,1279.1785,1574.0049,1278.2035,1583.1309,1279.0338,1592.2568,1278.005,1601.3828,1278.5,1610.5088,1278.4789,1610.5,1278.5819,1610.9569,1278.1921,1611.2097,1278.0931,1611.5829,1278.0185,1611.9662,1277.7678,1612.2766,1277.8209,1612.4047,1277.4137,1612.4218,1277.0973,1612.6579,1276.6341,1612.5396,1276.3898,1612.9499,1276,1613.0088,1276,1613.557,1265.7333,1613.4533,1255.4667,1613.6218,1245.2,1612.5257,1234.9333,1612.3566,1224.6667,1612.3874,1214.4,1612.9499,1204.1333,1612.8123,1193.8667,1613.6902,1183.6,1612.8341,1173.3333,1612.6657,1163.0667,1613.2371,1152.8,1612.3419,1142.5333,1612.4897,1132.2667,1613.6577,1122,1613.0088,1122.0556,1613.143,1121.7401,1613.0885,1121.2518,1612.6168,1120.9801,1612.6677,1120.6611,1612.6048,1120.2322,1612.2766,1120.0868,1612.2163,1120.0563,1611.9108,1119.9781,1611.5855,1119.9936,1611.299,1119.6452,1610.8618,1119.5,1610.5088,1119.9626,1610.5088,1118.9462,1601.3828,1118.8227,1592.2568,1120.0036,1583.1309,1118.7831,1574.0049,1119.5,1564.8789,1119.6567,1564.9439,1119.7101,1564.5518,1119.7104,1564.1377,1119.8304,1563.7732,1120.2271,1563.5233,1120.2322,1563.1112,1120.194,1563.019,1120.6613,1563.147,1120.8688,1562.6481,1121.3717,1562.862,1121.7082,1562.6745,1122,1562.3789" style="stroke:#181818;stroke-width:4.0;"/><text fill="#000000" font-family="Chalkduster" font-size="24" lengthAdjust="spacing" textLength="139" x="1129.5" y="1596.2198">Notebooks</text></g><!--entity Curated Data Sets--><g id="elem_Curated Data Sets"><polygon fill="none" points="1315.5,1562.3789,1315.5,1562.5891,1325.5385,1561.9646,1335.5769,1562.5722,1345.6154,1562.7786,1355.6538,1561.6656,1365.6923,1562.3012,1375.7308,1561.9525,1385.7692,1561.9955,1395.8077,1562.3108,1405.8462,1561.6876,1415.8846,1562.9326,1425.9231,1561.7487,1435.9615,1562.1812,1446,1562.8109,1456.0385,1562.2932,1466.0769,1562.4472,1476.1154,1562.347,1486.1538,1562.5575,1496.1923,1562.6181,1506.2308,1562.9646,1516.2692,1563.05,1526.3077,1563.0582,1536.3462,1562.6336,1546.3846,1562.8425,1556.4231,1563.0812,1566.4615,1561.6578,1576.5,1562.3789,1576.5866,1562.5879,1576.8157,1562.4341,1577.2752,1562.8362,1577.4975,1562.6658,1577.9055,1562.9436,1578.2678,1563.1112,1578.4962,1563.2058,1578.3992,1563.4585,1578.5931,1563.8317,1578.8114,1564.215,1578.9817,1564.5785,1579,1564.8789,1578.9961,1564.8789,1579.2872,1574.0049,1578.4276,1583.1309,1579.2844,1592.2568,1579.5482,1601.3828,1579,1610.5088,1579.1369,1610.5655,1579.0423,1610.9405,1578.5583,1611.1543,1578.3598,1611.4863,1578.2228,1611.8437,1578.2678,1612.2766,1578.2603,1612.2584,1577.8891,1612.3625,1577.6476,1612.7793,1577.1848,1612.6621,1576.8098,1612.7567,1576.5,1613.0088,1576.5,1613.2371,1566.4615,1612.3419,1556.4231,1612.4897,1546.3846,1613.6577,1536.3462,1613.4445,1526.3077,1613.7433,1516.2692,1612.687,1506.2308,1613.328,1496.1923,1613.5992,1486.1538,1612.5364,1476.1154,1612.9129,1466.0769,1613.1348,1456.0385,1613.6605,1446,1613.0046,1435.9615,1613.4714,1425.9231,1612.455,1415.8846,1612.3315,1405.8462,1613.5124,1395.8077,1612.2918,1385.7692,1613.5177,1375.7308,1613.2154,1365.6923,1612.7409,1355.6538,1612.655,1345.6154,1613.4675,1335.5769,1612.7095,1325.5385,1613.6006,1315.5,1613.0088,1315.4295,1612.8386,1315.2252,1613.0525,1314.8547,1612.865,1314.4706,1612.6449,1314.0918,1612.4375,1313.7322,1612.2766,1313.956,1612.3692,1313.7747,1612.0013,1313.4915,1611.591,1313.3755,1611.2501,1313.1063,1610.8457,1313,1610.5088,1313.7165,1610.5088,1313.1549,1601.3828,1313.1726,1592.2568,1312.3916,1583.1309,1312.5948,1574.0049,1313,1564.8789,1313.1634,1564.9467,1313.2788,1564.5802,1313.2797,1564.1664,1313.3401,1563.7772,1313.5184,1563.4368,1313.7322,1563.1112,1313.6447,1562.8999,1314.1387,1563.0925,1314.5337,1563.046,1314.86,1562.834,1315.2351,1562.7394,1315.5,1562.3789" style="stroke:#181818;stroke-width:4.0;"/><text fill="#000000" font-family="Chalkduster" font-size="24" lengthAdjust="spacing" textLength="246" x="1323" y="1596.2198">Curated Data Sets</text></g><!--link glamd to homed--><g id="link_glamd_homed"><path d="M337.86,157.0989 L337.86,157.3792 L347.843,156.5465 L357.826,157.3567 L367.809,157.6319 L377.792,156.1478 L387.775,156.9953 L397.758,156.5303 L407.741,156.5876 L417.724,157.0081 L427.707,156.1771 L437.69,157.8371 L447.673,156.2586 L457.656,156.8353 L467.639,157.6749 L477.622,156.9846 L487.605,157.1899 L497.588,157.0564 L507.571,157.337 L517.554,157.4178 L527.537,157.8799 L537.52,157.0989 " fill="none" style="stroke:#181818;stroke-width:4.0;"/><polygon fill="#181818" points="331.86,157.0989,331.8885,157.163,333.6039,157.7727,335.4862,158.7578,337.3141,159.6207,338.9634,160.0816,340.86,161.0989,340.8417,161.0806,339.9595,160.1984,339.1696,159.4086,338.4439,158.6829,337.497,157.736,336.86,157.0989,336.9905,157.2294,337.5114,156.1504,338.4134,155.4523,339.3618,154.8008,340.0398,153.8787,340.86,153.0989,340.8692,153.1197,339.0557,153.8892,337.2842,154.7533,335.4924,155.5718,333.7393,156.4774,331.86,157.0989" style="stroke:#181818;stroke-width:4.0;"/><polygon fill="#181818" points="543.52,157.0989,543.5485,157.163,541.6639,156.1727,539.9462,155.5578,538.1741,154.8207,536.2234,153.6816,534.52,153.0989,534.5017,153.0806,535.2195,153.7984,536.0296,154.6086,536.9039,155.4829,537.557,156.136,538.52,157.0989,538.6505,157.2294,537.5714,157.7504,536.8734,158.6523,536.2218,159.6008,535.2998,160.2787,534.52,161.0989,534.5292,161.1197,536.3157,160.2892,538.1442,159.5533,539.9524,158.7718,541.7993,158.0774,543.52,157.0989" style="stroke:#181818;stroke-width:4.0;"/><text fill="#000000" font-family="Chalkduster" font-size="24" lengthAdjust="spacing" textLength="176" x="349.75" y="146.9398">At least 1 of</text></g><!--link res to proj--><g id="link_res_proj"><path d="M903,182.6589 L903.2802,182.6589 L902.4476,192.7134 L903.2577,202.7679 L903.5329,212.8224 L902.0488,222.8769 L902.8964,232.9314 L902.4313,242.9859 L902.4887,253.0404 L902.9091,263.0949 L902.0782,273.1494 L903.7382,283.2039 L902.1596,293.2584 L902.7363,303.3129 L903.5759,313.3674 L902.8856,323.4219 L903.091,333.4764 L902.9574,343.5309 L903.238,353.5854 L903.3188,363.6399 L903.7809,373.6944 L903,383.7489 " fill="none" style="stroke:#181818;stroke-width:4.0;"/><polygon fill="#181818" points="903,389.7489,903.064,389.7774,903.6738,387.8929,904.6589,386.1751,905.5217,384.4031,905.9827,382.4524,907,380.7489,906.9817,380.7306,906.0995,381.4484,905.3096,382.2586,904.5839,383.1329,903.637,383.786,903,384.7489,903.1305,384.8794,902.0514,383.8004,901.3534,383.1023,900.7018,382.4508,899.7798,381.5287,899,380.7489,899.0208,380.7582,899.7903,382.5446,900.6544,384.3731,901.4728,386.1813,902.3784,388.0282,903,389.7489" style="stroke:#181818;stroke-width:4.0;"/></g><!--link idea to proj--><g id="link_idea_proj"><path d="M1118.16,198.1189 L1118.3586,198.3167 L1110.6009,204.9287 L1104.0074,212.6998 L1097.0349,220.0935 L1088.8155,226.2459 L1082.2486,234.0434 L1074.7514,240.9148 L1067.6245,248.1548 L1060.7548,255.6509 L1052.9984,262.2642 L1047.0072,270.6349 L1038.7209,276.7207 L1031.962,284.327 L1025.3894,292.1189 L1017.7326,298.8314 L1010.7106,306.1758 L1003.4483,313.2811 L996.4796,320.6786 L989.3693,327.9351 L982.5291,335.4606 L975.4422,342.7404 L968.2824,349.9477 L960.7135,356.7477 L953.7434,364.1438 L946.8013,371.5678 L938.2887,377.4283 L931.8026,385.3063 " fill="none" style="stroke:#181818;stroke-width:4.0;"/><polygon fill="#181818" points="927.57,389.5589,927.5953,389.6243,929.3569,388.7187,931.2669,388.1961,933.1285,387.5488,934.8313,386.4913,936.754,386.0016,936.7539,385.9757,935.6223,385.8621,934.4909,385.8791,933.3598,385.9869,932.228,385.7819,931.0971,386.015,931.2817,386.0155,930.8844,384.8832,931.0258,383.7521,931.2331,382.6213,931.0578,381.4895,931.0837,380.3582,931.105,380.3663,930.371,382.1945,929.7338,384.0597,929.0499,385.9071,928.4551,387.7884,927.57,389.5589" style="stroke:#181818;stroke-width:4.0;"/></g><!--link data to proj--><g id="link_data_proj"><path d="M785.0055,196.1043 L785.0958,196.1283 L784.9762,196.6158 L785.3859,197.2441 L785.6232,197.8265 L785.2938,198.2582 L785.7489,198.8985 L785.7157,198.8892 L785.8836,199.9792 L786.2192,201.1162 L786.6713,202.2859 L786.7218,203.343 L787.3348,204.5577 L787.5696,204.6314 L787.7812,206.7475 L788.6783,209.0788 L789.659,211.4363 L790.1531,213.6412 L790.9031,215.9263 L790.9315,215.9369 L791.7092,218.1199 L792.6162,220.3511 L793.4608,222.559 L794.4245,224.8113 L795,226.9189 L795.2746,227.0354 L796.2569,229.3461 L797.062,231.5817 L798.1265,233.9272 L799.2031,236.2779 L799.8946,238.4654 L799.6023,238.3339 L801.2034,240.8887 L801.8418,243.0108 L803.212,245.4619 L803.8286,247.5742 L805.063,249.9642 L805.0354,249.9511 L806.4409,252.3877 L807.2033,254.5201 L808.3452,256.832 L809.5189,259.159 L810.4628,261.3772 L810.6286,261.4593 L811.5791,263.6343 L812.8129,265.9496 L813.5883,268.0379 L815.0474,270.4647 L816.052,272.6665 L816.2686,272.7781 L817.3749,274.9825 L818.5887,277.2422 L819.303,279.2445 L820.3835,281.4355 L821.7884,283.7938 L821.5448,283.6636 L822.9336,285.9669 L824.0479,288.1235 L825.5603,290.4929 L826.3931,292.4989 L827.6298,294.721 L827.4964,294.6473 L828.8995,296.9078 L829.7321,298.8533 L830.9704,301.0229 L832.6057,303.4117 L833.5341,305.41 L833.7024,305.5058 L835.0029,307.654 L835.7798,309.5044 L837.2124,311.7278 L838.5022,313.87 L839.4591,315.8228 L839.2785,315.7158 L841.7712,319.7699 L844.2047,323.7889 L846.7546,327.8768 L848.8524,331.6971 L851.2027,335.6669 L851.3775,335.7751 L853.2575,339.1936 L855.475,342.821 L858.1853,346.7537 L859.9882,350.1244 L862.5232,353.9484 L862.7134,354.0708 L864.7124,357.2809 L866.6471,360.4496 L868.727,363.7118 L871.1427,367.19 L873.0833,370.3625 L872.9725,370.2889 L875.1949,373.3564 L876.6637,375.9232 L878.9894,379.0593 L880.8326,381.8749 L882.5458,384.6041 " fill="none" style="stroke:#181818;stroke-width:4.0;"/><polygon fill="#181818" points="885.9,389.5789,885.969,389.5911,885.4211,387.6152,885.2775,385.7108,885.0023,383.7831,884.294,381.7788,884.1853,379.8805,884.1598,379.8756,883.8296,380.9639,883.6276,382.0772,883.5147,383.2078,883.0947,384.2787,883.1048,385.4332,883.1401,385.6144,881.9542,385.0109,880.8711,384.9363,879.8007,384.9263,878.6572,384.5408,877.5521,384.3528,877.5642,384.3721,879.216,385.389,880.9228,386.4937,882.6031,387.5561,884.334,388.6992,885.9,389.5789" style="stroke:#181818;stroke-width:4.0;"/></g><!--link proj to doco--><g id="link_proj_doco"><path d="M903,440.8789 L903.2802,440.8789 L902.4476,450.828 L903.2577,460.777 L903.5329,470.726 L902.0488,480.675 L902.8964,490.624 L902.4313,500.573 L902.4887,510.522 L902.9091,520.4711 L902.0782,530.4201 L903.7382,540.3691 L902.1596,550.3181 L902.7363,560.2671 L903.5759,570.2161 L902.8856,580.1651 L903.091,590.1141 L902.9574,600.0632 L903.238,610.0122 L903.3188,619.9612 L903,629.9102 L903.2603,629.9102 L903.2982,632.5182 L903.3019,635.1262 L903.1132,637.7342 L903.206,640.3423 L903,642.9503 L903.3121,642.9503 L902.6795,643.0333 L903.3016,643.1163 L902.8682,643.1993 L903.2372,643.2824 L903,643.3654 " fill="none" style="stroke:#181818;stroke-width:4.0;"/><polygon fill="#181818" points="903,649.3654,903.064,649.3938,903.6738,647.5093,904.6589,645.7915,905.5217,644.0195,905.9827,642.0688,907,640.3654,906.9817,640.3471,906.0995,641.0649,905.3096,641.875,904.5839,642.7493,903.637,643.4024,903,644.3654,903.1305,644.4959,902.0514,643.4168,901.3534,642.7188,900.7018,642.0672,899.7798,641.1452,899,640.3654,899.0208,640.3746,899.7903,642.1611,900.6544,643.9895,901.4728,645.7978,902.3784,647.6447,903,649.3654" style="stroke:#181818;stroke-width:4.0;"/><text fill="#000000" font-family="Chalkduster" font-size="24" lengthAdjust="spacing" textLength="124" x="904" y="557.3898">Produces</text></g><!--link doco to code--><g id="link_doco_code"><path d="M911.0447,766.1008 L911.0589,766.1931 L911.2896,765.9608 L911.6038,766.2698 L911.8907,766.4025 L912.0885,765.9556 L912.4097,766.311 L912.4045,766.2769 L913.6746,766.3228 L914.9711,766.5408 L916.2861,766.8784 L917.5376,766.8037 L918.878,767.3065 L918.9153,767.5497 L926.9944,768.2811 L935.1824,769.7225 L943.3837,771.2506 L951.5077,772.2747 L959.6723,773.5638 L959.686,773.6537 L969.5859,775.0293 L979.548,776.8143 L989.48,778.4018 L999.4694,780.3663 L1009.4064,781.9864 L1019.328,783.5048 L1029.1628,784.4526 L1039.1246,786.2357 L1049.0923,788.0579 L1058.7271,787.6891 L1068.9274,791.0418 L1078.652,791.2641 L1088.7383,793.8663 L1098.5513,794.6702 L1098.4532,794.0175 L1108.456,796.0705 L1118.5349,798.6292 L1128.2967,799.0778 L1138.2456,800.7715 L1148.2102,802.5697 L1158.1439,804.1626 L1167.979,805.0993 L1177.9551,806.9737 L1187.8165,808.0856 L1187.7043,807.3307 L1197.5326,809.8975 L1207.2447,811.6822 L1216.8846,812.9823 L1226.578,814.6413 L1236.0233,814.6325 L1245.6504,815.8462 L1255.3167,817.3236 L1265.0874,819.5023 L1274.7207,820.7575 L1284.4195,822.4535 L1284.5514,823.3524 L1294.3388,823.6834 L1304.2593,824.9216 L1314.323,827.1356 L1324.1029,827.4151 L1334.0846,829.0703 L1344.2638,832.0716 L1354.1756,833.2506 L1364.1865,835.1051 L1373.9352,835.172 L1383.9506,837.0569 L1384.0112,837.4781 L1393.8677,839.2483 L1403.4707,839.2578 L1413.3472,841.167 L1423.1943,842.872 L1433.0992,844.978 L1442.7794,845.5246 L1452.6731,847.5528 L1462.2849,847.6237 L1472.0663,848.873 L1482,851.1789 L1482.012,851.4025 L1484.6684,851.005 L1487.3832,851.6933 L1490.0615,851.7034 L1492.7357,851.637 L1495.4277,851.9002 L1495.4234,851.743 L1498.9274,852.1988 L1502.4125,851.9567 L1505.9174,852.4474 L1509.3979,852.0336 L1512.8988,852.3739 L1512.9293,852.6467 L1516.277,852.9631 L1519.6195,853.2326 L1522.9641,853.5206 L1526.352,854.1959 L1529.6705,854.2502 L1529.7793,854.5003 L1531.9664,855.3049 L1534.2498,856.331 L1536.4451,857.1544 L1538.8611,858.4852 L1541,859.1789 L1541.0524,859.2236 L1542.5862,861.0205 L1543.8499,862.5871 L1545.4464,864.4374 L1547.2907,866.4991 L1548.6391,868.1379 L1548.7978,868.2441 L1549.2741,869.0996 L1549.8219,870.003 L1550.5109,871.0009 L1550.9893,871.8578 L1551.8936,872.9998 L1552.0513,873.0953 L1552.3263,873.4203 L1552.3968,873.6214 L1552.6124,873.9103 L1552.4478,873.969 L1552.6513,874.2507 L1552.6848,874.2702 L1551.9728,873.2531 L1551.7014,872.492 L1551.1576,871.5727 L1550.7456,870.7299 L1550.0038,869.6955 " fill="none" style="stroke:#181818;stroke-width:4.0;"/><polygon fill="#181818" points="1553.0219,874.8811,1553.0915,874.8888,1552.6706,872.908,1552.6579,870.9719,1552.5123,869.0213,1551.9295,867.0229,1551.9519,865.0906,1551.9269,865.084,1551.5254,866.1481,1551.2503,867.2456,1551.0629,868.3663,1550.573,869.407,1550.5068,870.5597,1550.554,870.7382,1549.3593,870.0676,1548.3023,869.918,1547.2621,869.8319,1546.1242,869.376,1545.0377,869.1147,1545.051,869.1331,1546.6283,870.2593,1548.2662,871.4695,1549.8749,872.6392,1551.5393,873.8861,1553.0219,874.8811" style="stroke:#181818;stroke-width:4.0;"/><text fill="#000000" font-family="Chalkduster" font-size="24" lengthAdjust="spacing" textLength="104" x="1483" y="844.0198">Runs in</text></g><!--link doco to out--><g id="link_doco_out"><path d="M911.8577,764.8924 L911.8584,764.9858 L916.1375,764.7366 L920.4202,765.0349 L924.7018,765.155 L928.9795,764.6886 L933.2625,765.0339 L933.2622,764.9994 L939.7282,764.9089 L946.196,764.9925 L952.665,765.1971 L959.1299,764.9847 L965.6005,765.3564 L965.6039,765.6025 L973.9041,765.1916 L982.2142,765.499 L990.5256,765.8941 L998.8298,765.7793 L1007.1378,765.9327 L1007.1395,766.0237 L1016.9376,766.0707 L1026.7433,766.5319 L1036.5453,766.7933 L1046.3544,767.4359 L1056.1405,766.8357 L1056.1618,767.7302 L1067.1089,768.0017 L1078.0423,767.6962 L1088.9958,768.2352 L1099.9502,768.8138 L1110.8748,768.1383 L1110.8458,767.1772 L1120.6908,769.3384 L1130.4402,768.3349 L1140.2623,769.7373 L1150.0095,768.662 L1159.8153,769.5263 L1169.6068,769.9134 L1169.6443,770.9015 L1179.7702,770.2353 L1189.944,770.8272 L1200.1218,771.5249 L1210.2917,772.015 L1220.4363,771.842 L1230.6025,772.2339 L1230.6082,772.3615 L1236.752,772.2573 L1242.9302,772.9152 L1249.0964,773.3099 L1255.2554,773.5414 L1261.4075,773.6215 L1261.4212,773.8936 L1267.5408,773.7173 L1273.6811,773.9525 L1279.826,774.2764 L1285.9827,774.8364 L1292.1282,775.1727 L1292.1232,775.0855 L1298.2292,775.8199 L1304.2917,775.7848 L1310.3714,776.0549 L1316.4697,776.6533 L1322.5479,776.8968 L1322.529,776.601 L1328.5136,777.0477 L1334.527,777.947 L1340.5014,778.2336 L1346.4902,778.7473 L1352.4499,778.8027 L1352.4396,778.66 L1358.2936,779.3636 L1364.1357,779.9032 L1369.9353,779.8515 L1375.7809,780.4378 L1381.6174,780.8996 L1381.622,780.9555 L1387.2842,781.6478 L1392.9038,781.8166 L1398.5639,782.4828 L1404.1705,782.492 L1409.8338,783.1967 L1409.806,782.897 L1415.2641,783.9209 L1420.6237,783.882 L1426.0837,784.9258 L1431.481,785.2932 L1436.8822,785.703 L1436.8696,785.5846 L1441.9983,786.0916 L1447.1692,786.9957 L1452.2664,787.2055 L1457.441,788.1443 L1462.5459,788.4277 L1462.516,788.1839 L1467.3918,789.2905 L1472.1971,789.8222 L1476.9966,790.307 L1481.7984,790.8102 L1486.6083,791.3798 L1486.6541,791.6995 L1491.0958,792.2875 L1495.5167,792.7298 L1499.9717,793.411 L1504.3955,793.8735 L1508.8525,794.5685 L1508.9036,794.8828 L1510.9381,794.9736 L1513.0139,795.3186 L1515.0327,795.3132 L1517.1217,795.7395 L1519.2251,796.2544 L1519.2664,796.4867 L1521.2259,796.7922 L1523.1565,796.935 L1525.1021,797.1625 L1527.0775,797.5574 L1529.0619,798.0029 L1529.0005,797.7042 L1532.6905,798.9213 L1536.3111,799.8005 L1539.8836,800.4456 L1543.4902,801.2568 L1547.0196,801.6921 L1547.0046,801.6332 L1550.1271,802.5203 L1553.1728,803.1064 L1556.3445,804.1862 L1559.4383,804.9608 L1562.5091,805.6452 L1562.586,805.8783 L1565.038,806.3934 L1567.6121,807.2789 L1570.2535,808.368 L1572.8316,809.2655 L1575.3134,809.8713 L1575.2025,809.6723 L1578.6088,811.6575 L1582.0204,813.6523 L1585.1931,815.2188 L1588.7392,817.4546 L1592,819.1789 L1592.0831,819.2579 L1593.9711,821.2563 L1596.0529,823.4389 L1598.2454,825.7266 L1599.9134,827.5159 L1602.0178,829.7199 L1602.1287,829.8053 L1603.7084,831.862 L1605.2386,833.8805 L1606.8375,835.9519 L1608.4179,838.0091 L1609.968,840.043 L1609.7299,839.9007 L1611.0309,841.9873 L1612.2235,844.0092 L1613.6397,846.1647 L1614.8647,848.2059 L1616.0469,850.2215 L1616.1128,850.2503 L1616.8091,852.1914 L1617.7808,854.2526 L1618.6401,856.2647 L1619.8048,858.41 L1620.4505,860.3291 L1620.6326,860.3818 L1620.828,862.2911 L1621.5891,864.3641 L1621.9586,866.3238 L1622.9131,868.4527 L1623.3748,870.4391 L1623.6418,870.4821 L1623.942,872.5147 L1623.8402,874.4826 L1624.5632,876.5834 L1624.3619,878.5352 L1625.0161,880.6249 L1625.1049,880.6296 L1624.9941,882.6848 L1625.2807,884.7612 L1625.4553,886.8316 L1625.6691,888.9042 L1625.5704,890.9599 L1625.2506,890.9497 L1625.7143,893.0782 L1625.5149,895.1856 L1625.5262,897.2996 L1625.6333,899.4167 L1625.2337,901.5177 L1625.2362,901.5179 L1625.105,903.6958 L1624.9156,905.8682 L1624.7022,908.0383 L1624.4082,910.2008 L1624.2023,912.3716 L1624.5153,912.4143 L1623.6278,914.5797 L1623.8392,916.8949 L1623.0094,919.0682 L1622.7403,921.3179 L1622.6722,923.5951 L1622.6897,923.5978 L1621.9302,928.3669 L1620.947,933.1006 L1620.5906,937.9334 L1619.7023,942.6821 L1618.9002,947.4444 L1619.2198,947.4907 L1618.8237,950.0415 L1617.9631,952.525 L1617.6153,955.0827 L1617.3636,957.6544 L1617.0505,960.2172 L1617.2074,960.2354 L1616.9156,962.9251 L1616.5578,965.6071 L1615.9611,968.2612 L1616.0802,970.9987 L1615.4865,973.6532 L1615.7674,973.6747 L1615.2491,976.4862 L1614.9477,979.3143 L1614.6593,982.1433 L1614.5257,984.9842 L1614.4043,987.826 L1614.4654,987.8277 L1614.2931,990.8218 L1614.057,993.8142 L1614.3783,996.8216 L1613.877,999.8069 L1614,1002.8089 L1614.6698,1002.8089 L1614.5697,1012.797 L1614.4958,1022.7851 L1614.9233,1032.7731 L1613.6722,1042.7612 L1613.5991,1052.7492 L1614.6918,1062.7373 L1613.2041,1072.7253 L1613.688,1082.7134 L1614.154,1092.7014 L1614.0916,1102.6895 L1613.5221,1112.6776 L1613.9427,1122.6656 L1614.9928,1132.6537 L1614.8646,1142.6417 L1613.205,1152.6298 L1614.1047,1162.6178 L1613.3148,1172.6059 L1613.9649,1182.5939 L1614.3907,1192.582 L1614.5598,1202.5701 L1613.1137,1212.5581 L1614.5341,1222.5462 L1614.0112,1232.5342 L1613.2595,1242.5223 L1613.3719,1252.5103 L1614.4355,1262.4984 L1614.3331,1272.4864 L1613.9781,1282.4745 L1613.1039,1292.4626 L1614.8775,1302.4506 L1613.5842,1312.4387 L1613.2959,1322.4267 L1613.9102,1332.4148 L1614.7863,1342.4028 L1614.8206,1352.3909 L1614,1362.3789 L1614.0156,1362.3789 L1613.9328,1369.9101 L1614.0755,1377.4413 L1614.0828,1384.9725 L1613.7743,1392.5037 L1614,1400.0349 L1614.184,1400.0349 L1614.2484,1401.9492 L1613.9041,1403.8636 L1613.8092,1405.778 L1614.2998,1407.6923 L1614,1409.6067 L1614.0093,1409.6067 L1613.9999,1410.565 L1614.1329,1411.5234 L1613.713,1412.4817 L1614.2355,1413.44 L1614,1414.3983 L1613.9931,1414.3983 L1614.2972,1413.6775 L1613.9041,1412.9567 L1614.1818,1412.2358 L1613.8027,1411.515 L1614,1410.7942 " fill="none" style="stroke:#181818;stroke-width:2.0;"/><polygon fill="#181818" points="1614,1416.7942,1614.064,1416.8226,1614.6738,1414.9381,1615.6589,1413.2203,1616.5217,1411.4483,1616.9827,1409.4976,1618,1407.7942,1617.9817,1407.7759,1617.0995,1408.4936,1616.3096,1409.3038,1615.5839,1410.1781,1614.637,1410.8312,1614,1411.7942,1614.1305,1411.9247,1613.0514,1410.8456,1612.3534,1410.1476,1611.7018,1409.496,1610.7798,1408.574,1610,1407.7942,1610.0208,1407.8034,1610.7903,1409.5898,1611.6544,1411.4183,1612.4728,1413.2265,1613.3784,1415.0735,1614,1416.7942" style="stroke:#181818;stroke-width:2.0;"/><text fill="#000000" font-family="Chalkduster" font-size="24" lengthAdjust="spacing" textLength="267" x="1615" y="1262.2198">Guides creation of</text></g><!--SRC=[VLDDRzf04BtxLqmvLEt1e5oHYsIHY1n8YKAbNY9LO-y4DjWxrduaHH7_lRFhg2HsKovcv_kzUVD9cxe9YdwrQ8umdIdqc3TOvSuV6vgsAiiirHxDhY6Ot94ZjFMUh9i0Eh3au2NBJk-2ocXEORabLCTxqrckoRcPLeGfB_uP9rvAxtlpPTEHcTs6gj4rb7LC_3g1eh3KiTEUxN6nY3NYf58ZVYfqahvQbpUmvAQHYffDQhHhK22SOwwv9LXPVXPtzE_bhR8K1KLkzMxlyqLlXJcK7Xf2v-42-64mxF9o3RUM7yMIEWd6nn4ac5pzfZh4SU3AF6dBfYNZ8vndjWVNOKqzcfeLIJh8xqsJhKSlBEpPUMrsmiqg27MmrPw4b67qnkIAP8zAM6Yxu4aIlhEdYldmZ_0pLV0PIcCuDcCJDz3I0VEjf9o6-u5-WfzKkJY4i5WKEp6XIKZIOhZcCPGVbfy8pYL6uznWrmb8YFElY8KRhx7vNqPoVO3YWvJfT0ejMt6Su2sqRN0UjS5A7flWXRnUu1pyK7elxrGWQvkCmQvrPT5guMVe-RkF0RVBOD6Bw1AcBSNsgMhKKvAKWpnNejjSz1crbgKR6jZIJGniMLBcsPZMCu_QLK6EAqllthlePJY7ks3aI0syEb-Jlqb096JUaokYbVjEPFF37m00]--></g></svg>