<?xml version="1.0" encoding="us-ascii" standalone="no"?><svg xmlns="http://www.w3.org/2000/svg" xmlns:xlink="http://www.w3.org/1999/xlink" contentStyleType="text/css" height="1132px" preserveAspectRatio="none" style="width:1495px;height:1132px;background:#FFFFFF;" version="1.1" viewBox="0 0 1495 1132" width="1495px" zoomAndPan="magnify"><defs/><g><text fill="#000000" font-family="Chalkduster" font-size="42" font-weight="bold" lengthAdjust="spacing" textLength="1235" x="123.0906" y="51.7215">Idealised view of a FAIR data research workflows</text><text fill="#000000" font-family="Chalkduster" font-size="42" font-weight="bold" lengthAdjust="spacing" textLength="519" x="481.0906" y="105.3238">"How did I get here?"</text><!--cluster ws--><g id="cluster_ws"><polygon fill="none" points="341.6812,374.8344,341.6812,375.0446,351.6545,374.4201,361.6278,375.0277,371.6012,375.2341,381.5745,374.121,391.5478,374.7567,401.5212,374.4079,411.4945,374.4509,421.4678,374.7663,431.4412,374.1431,441.4145,375.3881,451.3878,374.2041,461.3612,374.6367,471.3345,375.2664,481.3078,374.7486,491.2812,374.9027,501.2545,374.8025,511.2278,375.0129,521.2012,375.0736,531.1745,375.4201,541.1478,375.5055,551.1212,375.5137,561.0945,375.089,571.0678,375.298,581.0412,375.5367,591.0145,374.1132,600.9878,375.5129,610.9612,374.5379,620.9345,375.3682,630.9078,374.3394,640.8812,374.7659,650.8545,375.576,660.8278,374.7857,670.8012,374.9397,680.7745,375.173,690.7478,375.2507,700.7212,374.8305,710.6945,375.1216,720.6678,374.262,730.6412,375.1188,740.6145,375.3826,750.5878,375.279,760.5612,375.4474,770.5345,374.3513,780.5078,374.1822,790.4812,374.213,800.4545,374.7755,810.4278,374.6379,820.4012,375.5158,830.3745,374.6597,840.3478,374.4914,850.3212,375.0627,860.2945,374.1676,870.2678,374.3153,880.2412,375.4834,890.2145,375.2701,900.1878,375.5689,910.1612,374.5126,920.1345,375.1536,930.1078,375.4248,940.0812,374.362,950.0545,374.7386,960.0278,374.9604,970.0012,375.4862,979.9745,374.8302,989.9478,375.297,999.9212,374.2806,1009.8945,374.1572,1019.8678,375.338,1029.8412,374.1175,1039.8145,375.3434,1049.7878,375.0411,1059.7612,374.5665,1069.7345,374.4806,1079.7078,375.2932,1089.6812,374.8344,1089.643,374.7422,1090.1102,375.1631,1090.3178,374.9571,1090.8206,375.4639,1091.1572,375.5694,1091.4489,375.5667,1091.5244,375.5979,1091.6099,375.9262,1091.9656,376.3664,1092.0772,376.7056,1092.0868,377.0025,1092.1812,377.3344,1092.4494,377.3344,1092.0509,387.1632,1092.8976,396.9919,1092.336,406.8207,1092.3537,416.6494,1091.5728,426.4782,1091.7759,436.3069,1092.7119,446.1357,1092.6109,455.9644,1092.1382,465.7932,1091.859,475.6219,1091.9622,485.4507,1091.495,495.2794,1092.5959,505.1082,1092.9207,514.9369,1092.7076,524.7657,1092.1812,534.5944,1092.3952,534.6831,1091.9926,534.9305,1091.9151,535.3127,1091.6225,535.6056,1091.6829,536.0449,1091.4489,536.3622,1091.4804,536.4382,1091.1658,536.6787,1090.7125,536.5844,1090.3711,536.7601,1090.0913,537.0845,1089.6812,537.0944,1089.6812,537.6618,1079.7078,536.5819,1069.7345,536.9005,1059.7612,537.2437,1049.7878,536.4836,1039.8145,537.4478,1029.8412,537.3524,1019.8678,536.9937,1009.8945,537.2367,999.9212,537.8231,989.9478,536.7816,979.9745,537.4094,970.0012,537.3801,960.0278,537.2102,950.0545,537.2353,940.0812,537.2079,930.1078,536.4703,920.1345,536.6936,910.1612,536.6329,900.1878,537.1582,890.2145,537.1825,880.2412,537.2562,870.2678,536.8034,860.2945,537.0269,850.3212,536.9742,840.3478,537.6713,830.3745,537.521,820.4012,536.6089,810.4278,537.0215,800.4545,536.5172,790.4812,537.3828,780.5078,537.7029,770.5345,537.639,760.5612,536.6589,750.5878,537.5584,740.6145,536.3516,730.6412,537.2946,720.6678,536.7951,710.6945,537.1911,700.7212,537.3348,690.7478,537.5665,680.7745,536.3745,670.8012,537.5699,660.8278,537.2726,650.8545,537.4498,640.8812,537.8422,630.9078,537.0999,620.9345,537.2697,610.9612,537.3079,600.9878,537.2917,591.0145,537.0936,581.0412,537.8051,571.0678,536.4847,561.0945,537.6597,551.1212,536.4704,541.1478,536.5541,531.1745,537.1344,521.2012,537.1227,511.2278,536.6016,501.2545,537.5081,491.2812,537.2033,481.3078,537.8211,471.3345,537.7615,461.3612,536.6462,451.3878,536.6965,441.4145,536.9652,431.4412,537.4499,421.4678,537.4974,411.4945,537.3956,401.5212,536.7525,391.5478,537.7308,381.5745,537.7282,371.6012,537.0471,361.6278,536.8554,351.6545,536.693,341.6812,537.0944,341.6538,537.0283,341.3451,536.9903,340.9653,536.7805,340.5672,536.5264,340.3291,536.6587,339.9134,536.3622,339.7721,536.3036,339.9217,536.0727,339.7521,535.7096,339.5886,535.349,339.5409,535.0363,339.1812,534.5944,338.9353,534.5944,338.8805,524.7657,339.7001,514.9369,338.5843,505.1082,338.9472,495.2794,339.2967,485.4507,339.2499,475.6219,338.8227,465.7932,339.1382,455.9644,339.9258,446.1357,339.8297,436.3069,338.5849,426.4782,339.2597,416.6494,338.6673,406.8207,339.1549,396.9919,339.4742,387.1632,339.1812,377.3344,339.3105,377.388,339.1229,376.8961,339.5974,376.6784,339.6231,376.2748,339.5959,375.8494,339.9134,375.5667,339.8533,375.4216,340.3086,375.5208,340.6524,375.3507,340.972,375.1223,341.2419,374.7739,341.6812,374.8344" style="stroke:#181818;stroke-width:4.0;"/><text fill="#000000" font-family="Chalkduster" font-size="24" font-weight="bold" lengthAdjust="spacing" textLength="157" x="637.1812" y="400.6753">Workspaces</text></g><!--cluster ar--><g id="cluster_ar"><polygon fill="#00FF7F" points="24.6812,648.0944,24.6812,648.3046,34.6949,647.6801,44.7086,648.2877,54.7223,648.4941,64.736,647.381,74.7497,648.0167,84.7634,647.6679,94.7771,647.7109,104.7908,648.0263,114.8045,647.4031,124.8182,648.6481,134.8319,647.4641,144.8456,647.8967,154.8593,648.5264,164.873,648.0086,174.8867,648.1627,184.9003,648.0625,194.914,648.2729,204.9277,648.3336,214.9414,648.6801,224.9551,648.7655,234.9688,648.7737,244.9825,648.349,254.9962,648.558,265.0099,648.7967,275.0236,647.3732,285.0373,648.7729,295.051,647.7979,305.0647,648.6282,315.0784,647.5994,325.0921,648.0259,335.1058,648.836,345.1195,648.0457,355.1332,648.1997,365.1469,648.433,375.1606,648.5107,385.1743,648.0905,395.188,648.3816,405.2017,647.522,415.2154,648.3788,425.2291,648.6426,435.2428,648.539,445.2565,648.7074,455.2702,647.6113,465.2839,647.4422,475.2976,647.473,485.3113,648.0355,495.325,647.8979,505.3387,648.7758,515.3524,647.9197,525.3661,647.7514,535.3798,648.3227,545.3935,647.4276,555.4072,647.5753,565.4209,648.7434,575.4346,648.5301,585.4483,648.8289,595.462,647.7726,605.4757,648.4136,615.4894,648.6848,625.5031,647.622,635.5168,647.9986,645.5305,648.2204,655.5442,648.7462,665.5579,648.0902,675.5716,648.557,685.5853,647.5406,695.599,647.4172,705.6127,648.598,715.6264,647.3775,725.6401,648.6034,735.6538,648.3011,745.6675,647.8265,755.6812,647.7406,765.6949,648.5532,775.7086,647.7951,785.7223,648.6863,795.736,647.5417,805.7497,648.7118,815.7634,648.5787,825.7771,648.3394,835.7908,648.1416,845.8045,648.821,855.8182,648.708,865.8319,648.2637,875.8456,648.3626,885.8593,647.9642,895.873,648.8109,905.8867,648.2493,915.9003,648.267,925.914,647.4861,935.9277,647.6892,945.9414,648.6252,955.9551,648.5242,965.9688,648.0515,975.9825,647.7723,985.9962,647.8755,996.0099,647.4082,1006.0236,648.5092,1016.0373,648.834,1026.051,648.6208,1036.0647,648.7894,1046.0784,647.9577,1056.0921,648.1816,1066.1058,647.7068,1076.1195,648.3785,1086.1332,648.3412,1096.1469,648.6468,1106.1606,647.8648,1116.1743,647.96,1126.188,648.5379,1136.2017,648.6618,1146.2154,647.5819,1156.2291,647.9005,1166.2428,648.2437,1176.2565,647.4836,1186.2702,648.4478,1196.2839,648.3524,1206.2976,647.9937,1216.3113,648.2367,1226.325,648.8231,1236.3387,647.7816,1246.3524,648.4094,1256.3661,648.3801,1266.3798,648.2102,1276.3935,648.2353,1286.4072,648.2079,1296.4209,647.4703,1306.4346,647.6936,1316.4483,647.6329,1326.462,648.1582,1336.4757,648.1825,1346.4894,648.2562,1356.5031,647.8034,1366.5168,648.0269,1376.5305,647.9742,1386.5442,648.6713,1396.5579,648.521,1406.5716,647.6089,1416.5853,648.0215,1426.599,647.5172,1436.6127,648.3828,1446.6264,648.7029,1456.6401,648.639,1466.6538,647.6589,1476.6675,648.5584,1486.6812,648.0944,1486.5864,647.8657,1487.0603,648.3025,1487.3501,648.2951,1487.7542,648.5635,1488.126,648.7542,1488.4489,648.8267,1488.5943,648.8869,1488.3737,649.0884,1488.8883,649.5944,1488.9431,649.91,1489.1442,650.2862,1489.1812,650.5944,1489.929,650.5944,1489.1867,660.7598,1489.3564,670.9251,1489.3946,681.0905,1489.3784,691.2559,1489.1804,701.4212,1489.8919,711.5866,1488.5714,721.7519,1489.7464,731.9173,1488.5572,742.0826,1488.6409,752.248,1489.2212,762.4134,1489.2094,772.5787,1488.6883,782.7441,1489.5949,792.9094,1489.29,803.0748,1489.9078,813.2401,1489.8483,823.4055,1488.7329,833.5709,1488.7832,843.7362,1489.052,853.9016,1489.5367,864.0669,1489.5842,874.2323,1489.4823,884.3976,1488.8392,894.563,1489.8175,904.7284,1489.815,914.8937,1489.1339,925.0591,1489.1812,935.2244,1489.1076,935.1939,1488.9111,935.5268,1488.8222,935.9042,1488.7841,936.3026,1488.5743,936.6299,1488.4489,936.9922,1488.3956,936.8635,1488.1576,937.2887,1487.6833,937.1437,1487.4524,937.5862,1487.0892,937.7095,1486.6812,937.7244,1486.6812,938.0963,1476.6675,938.4169,1466.6538,937.4785,1456.6401,937.4238,1446.6264,938.2433,1436.6127,937.1275,1426.599,937.4904,1416.5853,937.8399,1406.5716,937.7931,1396.5579,937.366,1386.5442,937.6814,1376.5305,938.469,1366.5168,938.3729,1356.5031,937.1281,1346.4894,937.8029,1336.4757,937.2105,1326.462,937.6981,1316.4483,938.0174,1306.4346,938.1443,1296.4209,937.0597,1286.4072,938.125,1276.3935,937.7328,1266.3798,937.1691,1256.3661,937.2534,1246.3524,938.051,1236.3387,937.9743,1226.325,937.708,1216.3113,937.0523,1206.2976,938.3826,1196.2839,937.4126,1186.2702,937.1964,1176.2565,937.6571,1166.2428,938.3141,1156.2291,938.3398,1146.2154,937.7595,1136.2017,937.5733,1126.188,937.8942,1116.1743,937.9106,1106.1606,937.2166,1096.1469,938.1384,1086.1332,938.2832,1076.1195,937.5087,1066.1058,937.2952,1056.0921,938.3991,1046.0784,937.7454,1036.0647,937.7243,1026.051,938.0234,1016.0373,937.0787,1006.0236,938.2544,996.0099,937.709,985.9962,938.3932,975.9825,937.5086,965.9688,938.1334,955.9551,937.2804,945.9414,937.9694,935.9277,938.1037,925.914,937.3971,915.9003,938.0874,905.8867,937.153,895.873,937.2539,885.8593,938.4073,875.8456,938.4088,865.8319,938.2929,855.8182,937.3641,845.8045,938.1087,835.7908,937.2524,825.7771,937.7826,815.7634,937.7232,805.7497,937.462,795.736,938.3403,785.7223,938.1677,775.7086,937.4037,765.6949,938.2511,755.6812,937.8163,745.6675,937.1408,735.6538,937.4911,725.6401,937.1991,715.6264,937.5853,705.6127,937.0954,695.599,937.1243,685.5853,937.7947,675.5716,937.604,665.5579,937.6659,655.5442,937.5812,645.5305,937.8917,635.5168,937.1693,625.5031,937.8845,615.4894,936.9813,605.4757,938.0204,595.462,938.3172,585.4483,938.2465,575.4346,938.0857,565.4209,937.9166,555.4072,937.8301,545.3935,937.0844,535.3798,938.171,525.3661,938.0541,515.3524,937.5711,505.3387,937.7186,495.325,937.5158,485.3113,937.9421,475.2976,938.405,465.2839,937.3705,455.2702,938.1933,445.2565,937.6352,435.2428,937.3452,425.2291,937.2925,415.2154,937.0797,405.2017,937.2835,395.188,937.7607,385.1743,937.9974,375.1606,938.3006,365.1469,938.1445,355.1332,937.0131,345.1195,938.3435,335.1058,938.2106,325.0921,938.2651,315.0784,938.2463,305.0647,937.0653,295.051,937.4667,285.0373,938.0404,275.0236,937.2429,265.0099,937.6215,254.9962,937.7914,244.9825,938.0505,234.9688,937.7702,224.9551,938.4692,214.9414,938.1358,204.9277,937.9805,194.914,937.1845,184.9003,938.0632,174.8867,937.1499,164.873,938.0301,154.8593,937.7322,144.8456,938.0239,134.8319,937.637,124.8182,937.5283,114.8045,936.9835,104.7908,937.51,94.7771,937.0195,84.7634,937.4783,74.7497,938.1623,64.736,937.8851,54.7223,937.2729,44.7086,937.9703,34.6949,937.79,24.6812,937.7244,24.7505,937.8917,24.3997,937.752,23.986,937.4604,23.5977,937.23,23.2396,937.0726,22.9134,936.9922,22.9114,936.9914,22.973,936.724,22.413,936.1991,22.4236,935.9106,22.4098,935.612,22.1812,935.2244,22.9129,935.2244,22.3931,925.0591,21.9829,914.8937,21.4432,904.7284,21.7574,894.563,21.9593,884.3976,22.521,874.2323,22.5506,864.0669,22.233,853.9016,22.0482,843.7362,21.4616,833.5709,22.3102,823.4055,22.6166,813.2401,22.864,803.0748,22.2795,792.9094,22.2611,782.7441,21.961,772.5787,22.4299,762.4134,21.7112,752.248,22.6972,742.0826,21.8755,731.9173,21.651,721.7519,22.4381,711.5866,22.653,701.4212,22.2385,691.2559,22.06,681.0905,22.339,670.9251,22.1565,660.7598,22.1812,650.5944,22.1519,650.5823,22.3513,650.2507,22.3718,649.845,22.7405,649.5835,22.9787,649.2679,22.9134,648.8267,22.8683,648.7178,23.2371,648.608,23.5607,648.3895,24.0043,648.4603,24.3157,648.212,24.6812,648.0944" style="stroke:#181818;stroke-width:4.0;"/><text fill="#000000" font-family="Chalkduster" font-size="24" font-style="italic" lengthAdjust="spacing" textLength="169" x="671.1812" y="673.9353">&#171;repository&#187;</text><text fill="#000000" font-family="Chalkduster" font-size="24" font-weight="bold" lengthAdjust="spacing" textLength="289" x="611.1812" y="704.5651">Archival Repositories</text></g><!--cluster Zenodo\n(for example)--><g id="cluster_Zenodo\n(for example)"><path d="M534.1812,754.0944 L534.1812,754.0944 L534.2112,754.1829 L535.1585,753.568 L536.2819,753.4717 L537.348,753.2065 L538.2255,752.386 L539.364,752.3342 L539.3604,752.2998 L542.2736,751.8375 L545.2051,751.5484 L548.1492,751.3797 L551.0497,750.7962 L554.0112,750.7936 L554.0275,751.0392 L556.0828,750.3756 L558.1855,750.429 L560.2941,750.5697 L562.3689,750.2016 L564.4615,750.1012 L564.4631,750.1315 L566.9226,749.9584 L569.3893,749.9232 L571.8526,749.8215 L574.3225,749.8467 L576.7708,749.4582 L576.7823,749.7562 L582.6864,749.5309 L588.5831,749.1133 L594.4906,748.9771 L600.3987,748.854 L606.2905,748.3132 L606.2817,747.9928 L613.2845,748.4208 L620.2581,747.7937 L627.2539,747.9688 L634.2268,747.3179 L641.2185,747.3439 L641.2179,747.3135 L649.0222,747.5118 L656.8117,746.999 L664.61,746.9059 L672.4089,746.8479 L680.2027,746.5358 L680.2056,746.7208 L688.5403,746.4018 L696.88,746.3988 L705.2116,745.8845 L713.5552,746.1329 L721.8909,745.8742 L721.8939,746.1178 L730.5014,745.9658 L739.1104,745.9347 L747.7124,745.3417 L756.3195,745.1605 L764.9312,745.3444 L764.9241,744.5159 L775.5216,745.1756 L786.1111,744.9017 L796.7121,745.9819 L807.2934,744.7502 L817.8826,744.4354 L828.4802,745.1068 L839.061,743.823 L849.6597,744.6218 L849.6562,743.9296 L860.2229,745.434 L870.7803,745.0966 L881.3412,745.442 L891.893,743.9807 L902.4562,744.7823 L913.0169,745.0909 L923.5718,744.2507 L923.5704,743.6208 L933.8729,744.1005 L944.1748,744.374 L954.4777,745.0527 L964.7771,744.1558 L975.0798,744.7558 L985.3782,743.3784 L995.6812,744.0944 L995.6812,744.0944 L995.6792,743.1914 L1005.984,744.7882 L1016.2818,743.1831 L1026.5867,744.84 L1036.8871,744.4592 L1047.1871,743.8488 L1057.4882,743.7567 L1067.7905,744.2507 L1067.7936,744.8623 L1078.3474,743.9046 L1088.9123,745.1458 L1099.4635,743.6727 L1110.0302,745.2859 L1120.5882,745.1615 L1131.1454,744.8954 L1141.7027,744.6218 L1141.7032,744.6847 L1152.302,745.6809 L1162.8918,745.6205 L1173.4778,745.1184 L1184.07,745.3407 L1194.6565,744.8997 L1205.2572,746.119 L1215.8419,745.4606 L1226.4312,745.3444 L1226.4321,745.4211 L1235.0359,745.18 L1243.6451,745.3763 L1252.2582,745.8982 L1260.8657,745.9592 L1269.4715,745.8742 L1269.4712,745.8551 L1277.8068,745.8634 L1286.1452,746.0416 L1294.4796,745.9663 L1302.825,746.5878 L1311.1597,746.5358 L1311.1665,746.8645 L1318.9614,746.9314 L1326.7597,747.1679 L1334.5489,746.9599 L1342.3478,747.2211 L1350.1438,747.3439 L1350.139,747.1717 L1357.1329,747.664 L1364.1181,747.8413 L1371.1074,748.1709 L1378.0834,748.0173 L1385.0718,748.3132 L1385.0695,748.2535 L1390.9834,748.7391 L1396.8895,749.0231 L1402.7748,748.7726 L1408.6843,749.1431 L1414.5916,749.4582 L1414.595,749.5244 L1417.0393,749.3157 L1419.5235,749.8722 L1421.9831,749.9585 L1424.4367,749.9279 L1426.9009,750.1012 L1426.905,750.1643 L1429.0123,750.5628 L1431.0718,750.2394 L1433.1803,750.6564 L1435.2694,750.7818 L1437.3511,750.7936 L1437.3565,750.8448 L1440.2871,751.164 L1443.2153,751.46 L1446.1104,751.4421 L1449.0502,751.8489 L1451.9983,752.3342 L1451.9323,752.1399 L1453.044,752.7131 L1454.084,753.0754 L1455.1311,753.4584 L1456.103,753.6199 L1457.1812,754.0944 L1457.0011,754.0944 L1456.8606,764.2109 L1458.7194,774.3273 L1458.3187,784.4437 L1455.8864,794.5601 L1456.9867,804.6766 L1455.6419,814.793 L1457.9502,824.9094 L1458.8038,835.0259 L1458.6333,845.1423 L1456.0197,855.2587 L1458.4184,865.3751 L1455.2003,875.4916 L1457.7149,885.608 L1457.1812,895.7244 L1457.1812,895.7244 L1457.1384,895.5985 L1456.1584,896.1172 L1455.1424,896.5297 L1454.1389,896.9793 L1452.932,896.8297 L1451.9983,897.4847 L1452.0204,897.6948 L1449.0771,897.8715 L1446.1559,898.2579 L1443.2447,898.7395 L1440.2808,898.7195 L1437.3511,899.0252 L1437.3562,899.1029 L1435.2673,899.2583 L1433.1768,899.3896 L1431.0809,899.4403 L1429.0118,899.8943 L1426.9009,899.7176 L1426.8867,899.447 L1424.4521,900.0971 L1421.9627,899.6979 L1419.5028,899.8636 L1417.0544,900.2498 L1414.5916,900.3607 L1414.5921,900.3732 L1408.6791,900.3708 L1402.7908,901.0024 L1396.8816,901.096 L1390.9883,901.5994 L1385.0718,901.5057 L1385.08,901.802 L1378.0807,901.5004 L1371.0957,901.7166 L1364.1134,902.0298 L1357.1338,902.439 L1350.1438,902.4749 L1350.1475,902.654 L1342.3498,902.7703 L1334.547,902.6462 L1326.7592,903.2425 L1318.9624,903.403 L1311.1597,903.283 L1311.1594,903.262 L1302.8204,903.3091 L1294.4816,903.3693 L1286.1452,903.5846 L1277.8101,903.8734 L1269.4715,903.9446 L1269.4711,903.9142 L1260.8611,903.8649 L1252.258,904.3731 L1243.6448,904.0586 L1235.042,904.5917 L1226.4312,904.4744 L1226.436,905.0441 L1215.8443,905.0606 L1205.2569,905.5784 L1194.6552,904.4176 L1184.0635,904.4349 L1173.4817,905.6179 L1162.878,904.2206 L1152.2911,904.7948 L1141.7027,905.1971 L1141.7034,905.3511 L1131.1442,905.3417 L1120.5825,904.8252 L1110.0257,905.2988 L1099.4721,906.4019 L1088.9126,906.3268 L1078.3454,904.7201 L1067.7905,905.5682 L1067.7908,905.6729 L1057.4877,904.9053 L1047.1878,905.5777 L1036.8874,906.0258 L1026.5864,906.2173 L1016.2819,904.7935 L1005.9837,906.2362 L995.6812,905.7244 L995.6812,905.7244 L995.6812,905.7356 L985.3782,904.9616 L975.0771,905.0517 L964.7781,906.0929 L954.4765,905.9683 L944.1744,905.5909 L933.8712,904.6944 L923.5718,905.5682 L923.5762,906.4457 L913.0108,905.0994 L902.4505,904.7581 L891.8947,905.3194 L881.3403,906.1424 L870.7816,906.1237 L860.2188,905.2969 L849.6597,905.1971 L849.658,904.9955 L839.0706,905.3331 L828.4797,905.2647 L817.8807,904.2491 L807.3001,905.3877 L796.7107,905.4905 L786.1108,904.3674 L775.5174,903.9925 L764.9312,904.4744 L764.9349,904.7742 L756.3232,904.3778 L747.7151,904.2624 L739.1086,904.2894 L730.4954,903.7636 L721.8909,903.9446 L721.8946,904.1801 L713.5531,903.8054 L705.2203,903.9772 L696.8764,903.4517 L688.5432,903.5971 L680.2027,903.283 L680.1986,903.0857 L672.4081,903.2303 L664.6125,903.1283 L656.8092,902.6527 L649.0187,902.7978 L641.2185,902.4749 L641.2115,902.221 L634.2271,902.072 L627.2558,902.3906 L620.2702,902.1974 L613.2832,901.9521 L606.2905,901.5057 L606.2843,901.3456 L600.3932,901.4473 L594.4745,900.838 L588.5797,900.8445 L582.6747,900.5891 L576.7708,900.3607 L576.7647,900.2442 L574.3232,900.5054 L571.8573,900.3002 L569.3778,899.8325 L566.9355,900.08 L564.4615,899.7176 L564.4642,899.7584 L562.3543,899.3204 L560.2745,899.3372 L558.1759,899.0692 L556.0972,899.102 L554.0112,899.0252 L553.982,898.7472 L551.0539,898.4518 L548.1556,898.4401 L545.2173,898.0477 L542.2908,897.7669 L539.364,897.4847 L539.3436,897.4244 L538.3514,897.203 L537.2115,896.547 L536.2772,896.4959 L535.1115,895.7637 L534.1812,895.7244 L534.9705,895.7244 L535.7619,885.608 L535.5734,875.4916 L535.1447,865.3751 L534.6938,855.2587 L534.4631,845.1423 L532.4744,835.0259 L535.3719,824.9094 L535.0602,814.793 L533.7722,804.6766 L534.1657,794.5601 L533.625,784.4437 L534.7617,774.3273 L535.996,764.2109 L534.1812,754.0944 " fill="none" style="stroke:#181818;stroke-width:4.0;"/><path d="M534.1812,754.0944 L534.1812,754.0944 L534.2112,754.1829 L535.1585,754.2721 L536.2819,754.8799 L537.348,755.3188 L538.2255,755.2024 L539.364,755.8547 L539.3604,755.8203 L542.2736,755.9743 L545.2051,756.3014 L548.1492,756.7489 L551.0497,756.7815 L554.0112,757.3952 L554.0275,757.6407 L556.0828,757.2542 L558.1855,757.5845 L560.2941,758.0022 L562.3689,757.9111 L564.4615,758.0876 L564.4631,758.1179 L566.9226,758.2021 L569.3893,758.4241 L571.8526,758.5796 L574.3225,758.862 L576.7708,758.7307 L576.7823,759.0287 L582.6864,759.2613 L588.5831,759.3017 L594.4906,759.6235 L600.3987,759.9585 L606.2905,759.8757 L606.2817,759.5553 L613.2845,760.371 L620.2581,760.1316 L627.2539,760.6944 L634.2268,760.4311 L641.2185,760.8449 L641.2179,760.8145 L649.0222,761.3361 L656.8117,761.1465 L664.61,761.3766 L672.4089,761.6419 L680.2027,761.653 L680.2056,761.838 L688.5403,761.7836 L696.88,762.0453 L705.2116,761.7956 L713.5552,762.3087 L721.8909,762.3146 L721.8939,762.5583 L730.5014,762.6181 L739.1104,762.799 L747.7124,762.4178 L756.3195,762.4486 L764.9312,762.8444 L764.9241,762.0159 L775.5216,762.8562 L786.1111,762.7631 L796.7121,764.0239 L807.2934,762.9729 L817.8826,762.8387 L828.4802,763.6908 L839.061,762.5877 L849.6597,763.5671 L849.6562,762.8749 L860.2229,764.4853 L870.7803,764.254 L881.3412,764.7054 L891.893,763.3501 L902.4562,764.2577 L913.0169,764.6724 L923.5718,763.9382 L923.5704,763.3083 L933.8729,763.8327 L944.1748,764.1508 L954.4777,764.8741 L964.7771,764.0219 L975.0798,764.6665 L985.3782,763.3337 L995.6812,764.0944 L995.6812,764.0944 L995.6792,763.1914 L1005.984,764.7436 L1016.2818,763.0939 L1026.5867,764.7061 L1036.8871,764.2806 L1047.1871,763.6256 L1057.4882,763.4888 L1067.7905,763.9382 L1067.7936,764.5498 L1078.3474,763.4861 L1088.9123,764.6213 L1099.4635,763.0421 L1110.0302,764.5493 L1120.5882,764.3188 L1131.1454,763.9467 L1141.7027,763.5671 L1141.7032,763.63 L1152.302,764.4455 L1162.8918,764.2045 L1173.4778,763.5217 L1184.07,763.5633 L1194.6565,762.9417 L1205.2572,763.9803 L1215.8419,763.1412 L1226.4312,762.8444 L1226.4321,762.9211 L1235.0359,762.4681 L1243.6451,762.4524 L1252.2582,762.7624 L1260.8657,762.6116 L1269.4715,762.3146 L1269.4712,762.2956 L1277.8068,762.0391 L1286.1452,761.9527 L1294.4796,761.6127 L1302.825,761.9696 L1311.1597,761.653 L1311.1665,761.9816 L1318.9614,761.7253 L1326.7597,761.6386 L1334.5489,761.1074 L1342.3478,761.0453 L1350.1438,760.8449 L1350.139,760.6727 L1357.1329,760.7773 L1364.1181,760.5668 L1371.1074,760.5088 L1378.0834,759.9675 L1385.0718,759.8757 L1385.0695,759.816 L1390.9834,759.8436 L1396.8895,759.6696 L1402.7748,758.961 L1408.6843,758.8736 L1414.5916,758.7307 L1414.595,758.7969 L1417.0393,758.3309 L1419.5235,758.6303 L1421.9831,758.4594 L1424.4367,758.1715 L1426.9009,758.0876 L1426.905,758.1507 L1429.0123,758.2723 L1431.0718,757.6719 L1433.1803,757.8119 L1435.2694,757.6604 L1437.3511,757.3952 L1437.3565,757.4464 L1440.2871,757.1494 L1443.2153,756.8292 L1446.1104,756.195 L1449.0502,755.9856 L1451.9983,755.8547 L1451.9323,755.6604 L1453.044,755.5295 L1454.084,755.1877 L1455.1311,754.8666 L1456.103,754.324 L1457.1812,754.0944 " fill="none" style="stroke:#181818;stroke-width:4.0;"/><text fill="#000000" font-family="Chalkduster" font-size="24" font-weight="bold" lengthAdjust="spacing" textLength="105" x="943.1812" y="789.9353">Zenodo</text><text fill="#000000" font-family="Chalkduster" font-size="24" font-weight="bold" lengthAdjust="spacing" textLength="190" x="900.6812" y="820.5651">(for example)</text></g><!--cluster LDaCA\n(for example)--><g id="cluster_LDaCA\n(for example)"><path d="M182.1812,754.0944 L182.1812,754.0944 L182.2208,754.179 L183.5124,753.2675 L185.0364,752.8519 L186.4846,752.2748 L187.6842,751.1667 L189.228,750.7936 L189.2235,750.7594 L192.9186,750.1097 L196.6367,749.6325 L200.3709,749.2753 L204.0499,748.5047 L207.8062,748.3132 L207.8253,748.5585 L210.2668,747.84 L212.7642,747.8378 L215.2684,747.923 L217.7329,747.4998 L220.2183,747.3439 L220.22,747.3742 L222.9882,747.1681 L225.7643,747.0999 L228.5366,746.9652 L231.3163,746.9573 L234.0718,746.5358 L234.0851,746.8338 L237.0482,746.7051 L240.0026,746.3842 L242.9697,746.3447 L245.9373,746.3183 L248.8862,745.8742 L248.8752,745.5539 L251.9557,746.0696 L254.9997,745.5306 L258.0714,745.7934 L261.1146,745.2305 L264.1812,745.3444 L264.1804,745.314 L270.211,745.5294 L276.2244,745.0337 L282.2479,744.9576 L288.2723,744.9168 L294.2905,744.6218 L294.2932,744.8067 L299.5436,744.5458 L304.7986,744.601 L310.0463,744.1447 L315.3048,744.4513 L320.5562,744.2507 L320.5577,744.4943 L325.6824,744.417 L330.8078,744.4606 L335.9299,743.9422 L341.0544,743.8358 L346.1812,744.0944 L346.1812,744.0944 L346.1795,743.8182 L351.306,744.0995 L356.4306,744.0696 L361.558,744.491 L366.6807,744.1418 L371.8062,744.2507 L371.804,744.0982 L377.0607,744.4263 L382.3082,744.1028 L387.5623,744.2426 L392.8227,744.8359 L398.0718,744.6218 L398.0764,744.8153 L404.1015,745.0926 L410.1121,744.7678 L416.1408,745.1972 L422.1656,745.4622 L428.1812,745.3444 L428.1739,745.1346 L431.2387,745.4078 L434.3011,745.6123 L437.3682,745.9518 L440.417,745.7664 L443.4761,745.8742 L443.4853,746.0796 L446.428,745.7606 L449.3884,745.8382 L452.3748,746.4948 L455.3134,746.0852 L458.2905,746.5358 L458.3037,746.7616 L461.0666,746.7891 L463.825,746.7402 L466.5935,746.8637 L469.3852,747.3859 L472.1441,747.3439 L472.1337,747.2113 L474.647,747.8 L477.0898,747.4867 L479.6127,748.1991 L482.0905,748.3339 L484.5562,748.3132 L484.5706,748.4211 L488.2746,748.8301 L492.0302,749.6255 L495.7391,750.0718 L499.4286,750.3721 L503.1343,750.7936 L503.1849,750.9016 L504.5191,751.4014 L506.0881,752.4023 L507.3916,752.8364 L508.8043,753.5037 L510.1812,754.0944 L508.5589,754.0944 L509.1006,764.2109 L511.5965,774.3273 L511.3272,784.4437 L510.0667,794.5601 L509.3221,804.6766 L509.5974,814.793 L508.3514,824.9094 L511.2871,835.0259 L512.1533,845.1423 L511.5849,855.2587 L512.0343,865.3751 L509.8166,875.4916 L510.4138,885.608 L510.1812,895.7244 L510.1812,895.7244 L510.1081,895.5684 L508.8253,896.4989 L507.4089,897.1441 L506.0572,897.9272 L504.5004,898.2726 L503.1343,899.0252 L503.1264,898.966 L499.4448,899.7167 L495.7364,900.2673 L491.9573,900.2877 L488.2604,900.9242 L484.5562,901.5057 L484.5613,901.5718 L482.0526,901.4289 L479.6036,902.05 L477.1178,902.2015 L474.623,902.2364 L472.1441,902.4749 L472.1477,902.538 L469.3922,902.9598 L466.5946,902.6593 L463.8401,903.0995 L461.0686,903.2481 L458.2905,903.283 L458.2928,903.3344 L455.3304,903.4779 L452.367,903.598 L449.3895,903.4029 L446.431,903.6343 L443.4761,903.9446 L443.469,903.7396 L440.4181,904.0789 L437.3595,904.1957 L434.3016,904.3344 L431.2357,904.2392 L428.1812,904.4744 L428.1805,904.4444 L422.158,904.5655 L416.1436,905.0198 L410.1201,905.0975 L404.0885,904.8368 L398.0718,905.1971 L398.0713,905.1647 L392.815,905.0148 L387.5674,905.4737 L382.3162,905.6901 L377.0627,905.736 L371.8062,905.5682 L371.805,905.3746 L366.6824,905.8056 L361.5542,905.3005 L356.4317,905.7509 L351.3054,905.5601 L346.1812,905.7244 L346.1812,905.7244 L346.1814,905.7674 L341.0568,905.8 L335.9325,905.8717 L330.8042,905.3107 L325.6825,905.8107 L320.5562,905.5682 L320.5573,905.6474 L315.3053,905.6519 L310.0546,905.7521 L304.7968,905.348 L299.5448,905.3492 L294.2905,905.1971 L294.2928,905.2919 L288.2708,905.1402 L282.2468,904.9077 L276.2325,905.0793 L270.1965,904.348 L264.1812,904.4744 L264.1899,904.7255 L261.1126,904.0913 L258.0549,904.0225 L255.0048,904.1743 L251.9457,904.0632 L248.8862,903.9446 L248.8765,903.7258 L245.9316,903.996 L242.9626,903.7283 L240.012,903.8703 L237.0479,903.7115 L234.0718,903.283 L234.0602,903.0841 L231.2908,902.9448 L228.527,902.9025 L225.7689,902.9559 L222.9994,902.8153 L220.2183,902.4749 L220.2287,902.6084 L217.724,902.1295 L215.2755,902.3692 L212.7929,902.1742 L210.287,901.6786 L207.8062,901.5057 L207.7921,901.4004 L204.0669,900.8328 L200.3623,900.419 L196.6674,900.0779 L192.9396,899.4912 L189.228,899.0252 L189.1493,898.857 L187.9106,898.5612 L186.3228,897.5202 L185.0946,897.2469 L183.6711,896.5565 L182.1812,895.7244 L183.1728,895.7244 L184.0278,885.608 L181.5255,875.4916 L181.3795,865.3751 L183.5649,855.2587 L180.5895,845.1423 L181.5572,835.0259 L182.4892,824.9094 L182.3643,814.793 L181.2253,804.6766 L182.0666,794.5601 L184.1667,784.4437 L183.9105,774.3273 L180.5911,764.2109 L182.1812,754.0944 " fill="none" style="stroke:#181818;stroke-width:4.0;"/><path d="M182.1812,754.0944 L182.1812,754.0944 L182.2208,754.179 L183.5124,754.5878 L185.0364,755.4925 L186.4846,756.2358 L187.6842,756.4479 L189.228,757.3952 L189.2235,757.361 L192.9186,757.7034 L196.6367,758.2184 L200.3709,758.8535 L204.0499,759.075 L207.8062,759.8757 L207.8253,760.121 L210.2668,759.7902 L212.7642,760.1757 L215.2684,760.6486 L217.7329,760.6131 L220.2183,760.8449 L220.22,760.8752 L222.9882,760.9924 L225.7643,761.2474 L228.5366,761.4359 L231.3163,761.7513 L234.0718,761.653 L234.0851,761.951 L237.0482,762.0869 L240.0026,762.0307 L242.9697,762.2558 L245.9373,762.4941 L248.8862,762.3146 L248.8752,761.9943 L251.9557,762.722 L254.9997,762.3949 L258.0714,762.8696 L261.1146,762.5186 L264.1812,762.8444 L264.1804,762.814 L270.211,763.3185 L276.2244,763.1118 L282.2479,763.3248 L288.2723,763.573 L294.2905,763.5671 L294.2932,763.7521 L299.5436,763.6396 L304.7986,763.8432 L310.0463,763.5354 L315.3048,763.9903 L320.5562,763.9382 L320.5577,764.1818 L325.6824,764.167 L330.8078,764.2731 L335.9299,763.8172 L341.0544,763.7733 L346.1812,764.0944 L346.1812,764.0944 L346.1795,763.8182 L351.306,764.037 L356.4306,763.9446 L361.558,764.3035 L366.6807,763.8918 L371.8062,763.9382 L371.804,763.7857 L377.0607,763.9654 L382.3082,763.4934 L387.5623,763.4848 L392.8227,763.9297 L398.0718,763.5671 L398.0764,763.7607 L404.1015,763.7489 L410.1121,763.135 L416.1408,763.2753 L422.1656,763.2513 L428.1812,762.8444 L428.1739,762.6346 L431.2387,762.6959 L434.3011,762.6885 L437.3682,762.816 L440.417,762.4187 L443.4761,762.3146 L443.4853,762.52 L446.428,761.9364 L449.3884,761.7493 L452.3748,762.1413 L455.3134,761.467 L458.2905,761.653 L458.3037,761.8788 L461.0666,761.5831 L463.825,761.2109 L466.5935,761.0112 L469.3852,761.2101 L472.1441,760.8449 L472.1337,760.7123 L474.647,760.9133 L477.0898,760.2123 L479.6127,760.5369 L482.0905,760.2841 L484.5562,759.8757 L484.5706,759.9836 L488.2746,759.4004 L492.0302,759.2036 L495.7391,758.6577 L499.4286,757.9659 L503.1343,757.3952 L503.1849,757.5031 L504.5191,756.6826 L506.0881,756.3632 L507.3916,755.4771 L508.8043,754.824 L510.1812,754.0944 " fill="none" style="stroke:#181818;stroke-width:4.0;"/><text fill="#000000" font-family="Chalkduster" font-size="24" font-weight="bold" lengthAdjust="spacing" textLength="86" x="303.1812" y="789.9353">LDaCA</text><text fill="#000000" font-family="Chalkduster" font-size="24" font-weight="bold" lengthAdjust="spacing" textLength="190" x="251.1812" y="820.5651">(for example)</text></g><!--entity anw--><g id="elem_anw"><polygon fill="#FFC7D8" points="385.1812,431.8344,385.1812,432.0446,395.06,431.4201,404.9387,432.0277,414.8175,432.2341,424.6963,431.121,434.5751,431.7567,444.4539,431.4079,454.3327,431.4509,464.2115,431.7663,474.0903,431.1431,483.969,432.3881,493.8478,431.2041,503.7266,431.6367,513.6054,432.2664,523.4842,431.7486,533.363,431.9027,543.2418,431.8025,553.1206,432.0129,562.9994,432.0736,572.8781,432.4201,582.7569,432.5055,592.6357,432.5137,602.5145,432.089,612.3933,432.298,622.2721,432.5367,632.1509,431.1132,642.0297,432.5129,651.9084,431.5379,661.7872,432.3682,671.666,431.3394,681.5448,431.7659,691.4236,432.576,701.3024,431.7857,711.1812,431.8344,711.1946,431.8669,711.5779,432.0852,711.9414,432.2555,712.2413,432.2726,712.632,432.5087,712.9489,432.5667,712.7727,432.4936,713.183,432.9565,713.4107,433.3437,713.5252,433.684,713.7235,434.0591,713.6812,434.3344,713.1981,434.3344,713.029,443.8669,713.0598,453.3993,713.6223,462.9318,713.4846,472.4643,714.3626,481.9967,713.5065,491.5292,713.3381,501.0616,713.6812,510.5941,713.7515,510.6232,713.3294,510.8626,713.2284,511.235,713.4417,511.7375,713.2296,512.0639,712.9489,512.3619,713.0426,512.588,712.5543,512.4092,712.2825,512.753,711.9636,512.983,711.4745,512.8022,711.1812,513.0941,711.1812,512.9982,701.3024,513.2201,691.4236,513.7458,681.5448,513.0899,671.666,513.5567,661.7872,512.5403,651.9084,512.4168,642.0297,513.5977,632.1509,512.3771,622.2721,513.6031,612.3933,513.3007,602.5145,512.8262,592.6357,512.7403,582.7569,513.5528,572.8781,512.7948,562.9994,513.686,553.1206,512.5413,543.2418,513.7115,533.363,513.5784,523.4842,513.3391,513.6054,513.1413,503.7266,513.8207,493.8478,513.7077,483.969,513.2633,474.0903,513.3623,464.2115,512.9638,454.3327,513.8105,444.4539,513.249,434.5751,513.2667,424.6963,512.4857,414.8175,512.6889,404.9387,513.6248,395.06,513.5238,385.1812,513.0941,385.1757,513.0809,384.7865,512.8484,384.4461,512.7338,384.033,512.4434,383.8199,512.636,383.4134,512.3619,383.6412,512.4562,383.4291,512.0754,383.3345,511.7434,382.932,511.2838,382.8545,510.9588,382.6812,510.5941,382.2936,510.5941,382.9652,501.0616,382.9279,491.5292,383.2336,481.9967,382.4515,472.4643,382.5468,462.9318,383.1246,453.3993,383.2485,443.8669,382.6812,434.3344,382.5233,434.269,382.7679,433.9561,383.02,433.6464,382.9324,433.1958,383.3758,432.9653,383.4134,432.5667,383.4463,432.6461,383.7541,432.3892,384.1387,432.3176,384.567,432.3517,384.7877,431.8845,385.1812,431.8344" style="stroke:#181818;stroke-width:4.0;"/><text fill="#000000" font-family="Chalkduster" font-size="24" font-style="italic" lengthAdjust="spacing" textLength="175" x="460.6812" y="465.6753">&#171;workspace&#187;</text><text fill="#000000" font-family="Chalkduster" font-size="24" lengthAdjust="spacing" textLength="311" x="392.6812" y="496.3051">Annotation Workspace</text></g><!--entity aw--><g id="elem_aw"><polygon fill="#FFC7D8" points="751.1812,431.8344,751.1812,432.0446,761.3102,431.4201,771.4392,432.0277,781.5683,432.2341,791.6973,431.121,801.8263,431.7567,811.9554,431.4079,822.0844,431.4509,832.2134,431.7663,842.3425,431.1431,852.4715,432.3881,862.6005,431.2041,872.7296,431.6367,882.8586,432.2664,892.9876,431.7486,903.1167,431.9027,913.2457,431.8025,923.3747,432.0129,933.5038,432.0736,943.6328,432.4201,953.7618,432.5055,963.8908,432.5137,974.0199,432.089,984.1489,432.298,994.2779,432.5367,1004.407,431.1132,1014.536,432.5129,1024.665,431.5379,1034.7941,432.3682,1044.9231,431.3394,1055.0521,431.7659,1065.1812,431.8344,1065.2758,432.0628,1065.5285,431.9659,1065.9017,432.1597,1066.285,432.378,1066.6485,432.5484,1066.9489,432.5667,1066.9477,432.5662,1067.1838,432.9568,1067.0655,433.2007,1067.4759,433.6636,1067.7035,434.0508,1067.6812,434.3344,1068.1257,434.3344,1068.2942,443.8669,1067.1981,453.3993,1067.029,462.9318,1067.0598,472.4643,1067.6223,481.9967,1067.4846,491.5292,1068.3626,501.0616,1067.6812,510.5941,1067.6274,510.5718,1067.4291,510.9039,1067.4586,511.3303,1067.0365,511.5697,1066.9355,511.9421,1066.9489,512.3619,1067.0317,512.5617,1066.651,512.6425,1066.3355,512.8809,1065.8472,512.7021,1065.5754,513.0459,1065.1812,513.0941,1065.1812,513.6845,1055.0521,512.6217,1044.9231,512.9982,1034.7941,513.2201,1024.665,513.7458,1014.536,513.0899,1004.407,513.5567,994.2779,512.5403,984.1489,512.4168,974.0199,513.5977,963.8908,512.3771,953.7618,513.6031,943.6328,513.3007,933.5038,512.8262,923.3747,512.7403,913.2457,513.5528,903.1167,512.7948,892.9876,513.686,882.8586,512.5413,872.7296,513.7115,862.6005,513.5784,852.4715,513.3391,842.3425,513.1413,832.2134,513.8207,822.0844,513.7077,811.9554,513.2633,801.8263,513.3623,791.6973,512.9638,781.5683,513.8105,771.4392,513.249,761.3102,513.2667,751.1812,513.0941,751.1036,512.9067,750.7759,512.8228,750.5418,512.9646,750.1753,512.7871,749.7615,512.4951,749.4134,512.3619,749.3142,512.3208,749.1995,511.9804,748.9092,511.5672,749.1018,511.3541,749.0554,511.042,748.6812,510.5941,749.2076,510.5941,749.3761,501.0616,748.5444,491.5292,748.7684,481.9967,748.2936,472.4643,748.9652,462.9318,748.9279,453.3993,749.2336,443.8669,748.6812,434.3344,748.6104,434.3051,748.7862,433.9637,749.1106,433.6839,749.2952,433.3461,749.1091,432.8548,749.4134,432.5667,749.3887,432.5069,749.786,432.4662,750.0426,432.0856,750.5191,432.2361,750.8605,432.0603,751.1812,431.8344" style="stroke:#181818;stroke-width:4.0;"/><text fill="#000000" font-family="Chalkduster" font-size="24" font-style="italic" lengthAdjust="spacing" textLength="175" x="820.6812" y="465.6753">&#171;workspace&#187;</text><text fill="#000000" font-family="Chalkduster" font-size="24" lengthAdjust="spacing" textLength="299" x="758.6812" y="496.3051">Analytical Workspace</text></g><!--entity code--><g id="elem_code"><polygon fill="none" points="1069.1812,839.0944,1069.1812,839.3046,1079.1812,838.6801,1089.1812,839.2877,1099.1812,839.4941,1109.1812,838.381,1119.1812,839.0167,1129.1812,838.6679,1139.1812,838.7109,1149.1812,839.0263,1159.1812,838.4031,1169.1812,839.6481,1179.1812,838.4641,1189.1812,838.8967,1199.1812,839.5264,1209.1812,839.0086,1219.1812,839.1627,1229.1812,839.0625,1239.1812,839.2729,1249.1812,839.3336,1259.1812,839.6801,1269.1812,839.7655,1279.1812,839.7737,1289.1812,839.349,1299.1812,839.558,1309.1812,839.7967,1319.1812,838.3732,1329.1812,839.7729,1339.1812,838.7979,1349.1812,839.6282,1359.1812,838.5994,1369.1812,839.0259,1379.1812,839.836,1389.1812,839.0457,1399.1812,839.1997,1409.1812,839.433,1419.1812,839.5107,1429.1812,839.0905,1439.1812,839.0944,1439.2178,839.1829,1439.4617,839.0646,1439.9246,839.4749,1440.3118,839.7026,1440.6521,839.8171,1440.9489,839.8267,1441.1377,839.9049,1440.9466,840.1186,1441.041,840.4506,1441.1969,840.808,1441.5166,841.2334,1441.6812,841.5944,1441.4846,841.5944,1442.3626,850.7204,1441.5065,859.8464,1441.3381,868.9723,1441.9094,878.0983,1441.6812,887.2243,1441.4758,887.1392,1441.3749,887.5116,1441.5881,888.0141,1441.376,888.3405,1441.3216,888.7322,1440.9489,888.992,1440.9079,888.8929,1440.6361,889.2368,1440.3171,889.4667,1439.828,889.2859,1439.5225,889.5483,1439.1812,889.7243,1439.1812,889.8502,1429.1812,890.376,1419.1812,889.7201,1409.1812,890.1868,1399.1812,889.1705,1389.1812,889.047,1379.1812,890.2279,1369.1812,889.0073,1359.1812,890.2332,1349.1812,889.9309,1339.1812,889.4563,1329.1812,889.3705,1319.1812,890.183,1309.1812,889.4249,1299.1812,890.3161,1289.1812,889.1715,1279.1812,890.3417,1269.1812,890.2086,1259.1812,889.9692,1249.1812,889.7715,1239.1812,890.4509,1229.1812,890.3378,1219.1812,889.8935,1209.1812,889.9924,1199.1812,889.594,1189.1812,890.4407,1179.1812,889.8791,1169.1812,889.8968,1159.1812,889.1159,1149.1812,889.319,1139.1812,890.255,1129.1812,890.154,1119.1812,889.6813,1109.1812,889.4021,1099.1812,889.5053,1089.1812,889.0381,1079.1812,890.139,1069.1812,889.7243,1069.2755,889.952,1068.8948,889.7399,1068.5627,889.6454,1068.1031,889.2428,1067.7781,889.1653,1067.4134,888.992,1067.294,888.9426,1067.3544,888.6747,1067.1965,888.3164,1067.1442,888.0018,1066.7569,887.5485,1066.6812,887.2243,1066.5468,887.2243,1067.1246,878.0983,1067.2485,868.9723,1066.1686,859.8464,1066.4873,850.7204,1066.6812,841.5944,1066.7271,841.6135,1066.6395,841.1629,1067.0829,840.9324,1067.2,840.5667,1067.2359,840.1674,1067.4134,839.8267,1067.4315,839.8705,1067.8599,839.9046,1068.0806,839.4374,1068.5142,839.4843,1068.8641,839.3288,1069.1812,839.0944" style="stroke:#181818;stroke-width:4.0;"/><text fill="#000000" font-family="Chalkduster" font-size="24" lengthAdjust="spacing" textLength="355" x="1076.6812" y="872.9353">Archived, Packaged Code</text></g><!--entity res--><g id="elem_res"><polygon fill="none" points="787.1812,839.0944,787.1812,839.3046,797.2645,838.6801,807.3478,839.2877,817.4312,839.4941,827.5145,838.381,837.5978,839.0167,847.6812,838.6679,857.7645,838.7109,867.8478,839.0263,877.9312,838.4031,888.0145,839.6481,898.0978,838.4641,908.1812,838.8967,918.2645,839.5264,928.3478,839.0086,938.4312,839.1627,948.5145,839.0625,958.5978,839.2729,968.6812,839.3336,978.7645,839.6801,988.8478,839.7655,998.9312,839.7737,1009.0145,839.349,1019.0978,839.558,1029.1812,839.0944,1029.2707,839.3107,1029.4427,839.0188,1029.9748,839.5963,1030.204,839.4425,1030.6635,839.8446,1030.9489,839.8267,1030.7965,839.7635,1031.0743,840.1715,1031.4702,840.6284,1031.3733,840.8811,1031.5672,841.2543,1031.6812,841.5944,1032.0198,841.5944,1032.0974,850.7204,1031.6773,859.8464,1031.9684,868.9723,1031.1088,878.0983,1031.6812,887.2243,1031.7688,887.2605,1031.7035,887.6477,1031.5252,887.9881,1031.4306,888.3631,1030.9466,888.5768,1030.9489,888.992,1030.8657,888.7912,1030.5161,888.9471,1030.2343,889.2668,1029.8632,889.3708,1029.6216,889.7877,1029.1812,889.7243,1029.1812,889.5496,1019.0978,889.3812,1009.0145,889.9525,998.9312,889.0574,988.8478,889.2051,978.7645,890.3732,968.6812,890.1599,958.5978,890.4587,948.5145,889.4025,938.4312,890.0435,928.3478,890.3147,918.2645,889.2518,908.1812,889.6284,898.0978,889.8502,888.0145,890.376,877.9312,889.7201,867.8478,890.1868,857.7645,889.1705,847.6812,889.047,837.5978,890.2279,827.5145,889.0073,817.4312,890.2332,807.3478,889.9309,797.2645,889.4563,787.1812,889.7243,787.136,889.6153,786.8861,889.7191,786.4359,889.3392,786.196,889.4672,785.6964,888.9682,785.4134,888.992,785.6035,889.0708,785.4161,888.7002,785.196,888.3162,784.9886,887.9374,785.0514,887.6705,784.6812,887.2243,785.2947,887.2243,784.8504,878.0983,784.9494,868.9723,784.5509,859.8464,785.3976,850.7204,784.6812,841.5944,784.7289,841.6142,784.8808,841.2629,784.7867,840.8097,784.9957,840.4821,785.4304,840.2479,785.4134,839.8267,785.4682,839.959,785.7615,839.667,786.0794,839.4345,786.4461,839.3199,786.7401,839.0296,787.1812,839.0944" style="stroke:#181818;stroke-width:4.0;"/><text fill="#000000" font-family="Chalkduster" font-size="24" lengthAdjust="spacing" textLength="227" x="794.6812" y="872.9353">Archived Results</text></g><!--entity ng--><g id="elem_ng"><polygon fill="none" points="553.1812,839.0944,553.1812,839.3046,563.3917,838.6801,573.6022,839.2877,583.8127,839.4941,594.0233,838.381,604.2338,839.0167,614.4443,838.6679,624.6549,838.7109,634.8654,839.0263,645.0759,838.4031,655.2864,839.6481,665.497,838.4641,675.7075,838.8967,685.918,839.5264,696.1285,839.0086,706.3391,839.1627,716.5496,839.0625,726.7601,839.2729,736.9706,839.3336,747.1812,839.0944,747.2559,839.2748,747.6203,839.4475,747.9749,839.5965,748.2743,839.6122,748.6545,839.823,748.9489,839.8267,749.1652,839.9162,748.8733,840.0882,749.4508,840.6203,749.297,840.8495,749.6991,841.309,749.6812,841.5944,749.1861,841.5944,749.6127,850.7204,750.4228,859.8464,749.6324,868.9723,749.7865,878.0983,749.6812,887.2243,749.7855,887.2675,749.6629,887.6309,749.3871,887.9309,749.3303,888.3216,748.9191,888.5655,748.9489,888.992,748.9852,889.0796,748.6653,889.3073,748.2985,889.4218,747.9665,889.6201,747.4731,889.429,747.1812,889.7243,747.1812,889.0721,736.9706,889.1029,726.7601,889.6654,716.5496,889.5277,706.3391,890.4057,696.1285,889.5496,685.918,889.3812,675.7075,889.9525,665.497,889.0574,655.2864,889.2051,645.0759,890.3732,634.8654,890.1599,624.6549,890.4587,614.4443,889.4025,604.2338,890.0435,594.0233,890.3147,583.8127,889.2518,573.6022,889.6284,563.3917,889.8502,553.1812,889.7243,553.2643,889.925,552.8271,889.5765,552.5331,889.5738,552.0499,889.1144,551.6806,888.9299,551.4134,888.992,551.5685,889.0563,551.0462,888.547,551.2773,888.3498,551.0377,887.9577,550.7451,887.5436,550.6812,887.2243,550.3274,887.2243,551.1399,878.0983,550.3818,868.9723,551.273,859.8464,550.1284,850.7204,550.6812,841.5944,550.8713,841.6732,550.9768,841.3026,551.0495,840.9186,551.1351,840.5398,551.4907,840.2729,551.4134,839.8267,551.4917,840.0156,551.7885,839.7323,552.1547,839.6164,552.4574,839.3472,552.919,839.4615,553.1812,839.0944" style="stroke:#181818;stroke-width:4.0;"/><text fill="#000000" font-family="Chalkduster" font-size="24" lengthAdjust="spacing" textLength="179" x="560.6812" y="872.9353">Node Graphs</text></g><!--entity input--><g id="elem_input"><polygon fill="none" points="200.6812,839.0944,200.6812,839.3046,210.7157,838.6801,220.7501,839.2877,230.7846,839.4941,240.8191,838.381,250.8536,839.0167,260.8881,838.6679,270.9226,838.7109,280.957,839.0263,290.9915,838.4031,301.026,839.6481,311.0605,838.4641,321.095,838.8967,331.1294,839.5264,341.1639,839.0086,351.1984,839.1627,361.2329,839.0625,371.2674,839.2729,381.3019,839.3336,391.3363,839.6801,401.3708,839.7655,411.4053,839.7737,421.4398,839.349,431.4743,839.558,441.5088,839.7967,451.5432,838.3732,461.5777,839.7729,471.6122,838.7979,481.6467,839.6282,491.6812,839.0944,491.618,838.942,492.026,839.2198,492.4829,839.6157,492.7356,839.5188,493.1088,839.7126,493.4489,839.8267,493.5532,839.8699,493.7236,840.2333,493.7406,840.5333,493.9767,840.924,493.8584,841.1679,494.1812,841.5944,494.4656,841.5944,494.7294,850.7204,494.6257,859.8464,494.7942,868.9723,493.6981,878.0983,494.1812,887.2243,493.9803,887.1411,493.8434,887.4985,493.8701,887.9239,493.6813,888.2598,493.8052,888.7254,493.4489,888.992,493.4267,888.9382,493.0516,889.0328,492.7709,889.3552,492.3032,889.226,491.9685,889.4179,491.6812,889.7243,491.6812,890.3732,481.6467,890.1599,471.6122,890.4587,461.5777,889.4025,451.5432,890.0435,441.5088,890.3147,431.4743,889.2518,421.4398,889.6284,411.4053,889.8502,401.3708,890.376,391.3363,889.7201,381.3019,890.1868,371.2674,889.1705,361.2329,889.047,351.1984,890.2279,341.1639,889.0073,331.1294,890.2332,321.095,889.9309,311.0605,889.4563,301.026,889.3705,290.9915,890.183,280.957,889.4249,270.9226,890.3161,260.8881,889.1715,250.8536,890.3417,240.8191,890.2086,230.7846,889.9692,220.7501,889.7715,210.7157,890.4509,200.6812,889.7243,200.7594,889.9132,200.3492,889.6299,200.0083,889.514,199.6039,889.2448,199.3583,889.3591,198.9134,888.992,198.9611,889.0118,198.8201,888.6605,198.4332,888.2073,198.3493,887.8797,198.4911,887.6455,198.1812,887.2243,198.6109,887.2243,198.1382,878.0983,197.859,868.9723,197.9622,859.8464,197.495,850.7204,198.1812,841.5944,198.3089,841.6473,198.5554,841.3352,198.6362,840.9545,198.8345,840.6224,198.7249,840.1628,198.9134,839.8267,198.9245,839.8535,199.2175,839.5608,199.6567,839.6212,200.0055,839.4633,200.3981,839.411,200.6812,839.0944" style="stroke:#181818;stroke-width:4.0;"/><text fill="#000000" font-family="Chalkduster" font-size="24" lengthAdjust="spacing" textLength="276" x="208.1812" y="872.9353">Archived input data</text></g><!--entity Trove--><g id="elem_Trove"><path d="M65.1812,844.5944 L65.1812,844.5944 L65.2375,844.669 L66.6015,843.2912 L68.2954,842.3505 L69.882,841.2674 L71.1151,839.7164 L72.8374,838.8132 L72.8314,838.7792 L76.1733,838.0327 L79.5453,837.4578 L82.9384,837.0021 L86.2591,836.1356 L89.6812,835.8444 L89.6971,836.09 L93.0318,835.3461 L96.413,835.3192 L99.7999,835.3797 L103.1537,834.9314 L106.5249,834.7507 L106.5255,834.781 L108.0559,834.7052 L109.589,834.7675 L111.1208,834.7632 L112.6552,834.8859 L114.1812,834.5944 L114.1812,834.5944 L114.1873,834.8926 L115.7186,834.9275 L117.246,834.7701 L118.7791,834.8942 L120.3125,835.0315 L121.8374,834.7507 L121.8167,834.4308 L125.2257,835.2703 L128.5664,835.0567 L131.959,835.6437 L135.2982,835.4061 L138.6812,835.8444 L138.6759,835.8144 L142.1071,836.7628 L145.4149,837.0106 L148.7955,837.6718 L152.1823,838.3676 L155.5249,838.8132 L155.6364,838.9608 L157.0551,839.968 L158.6643,841.2275 L159.9654,842.0789 L161.7261,843.539 L163.1812,844.5944 L163.6685,844.5944 L163.5763,852.5204 L163.7261,860.4464 L162.7518,868.3723 L162.6015,876.2983 L163.1812,884.2243 L163.1812,884.2243 L163.0147,884.0039 L161.6342,885.3596 L160.066,886.467 L158.7699,887.9347 L157.0094,888.7873 L155.5249,890.0055 L155.4985,889.8554 L152.1738,890.6992 L148.736,890.9011 L145.3786,891.5595 L142.1,892.6645 L138.6812,892.9743 L138.6937,893.1675 L135.3336,893.5188 L131.9344,893.269 L128.5841,893.7721 L125.2232,894.1111 L121.8374,894.068 L121.8331,893.8581 L120.3053,894.0567 L118.7761,894.1865 L117.2496,894.4514 L115.7124,894.1911 L114.1812,894.2243 L114.1812,894.2243 L114.1854,894.4298 L112.6449,893.9469 L111.1125,893.8608 L109.592,894.3543 L108.0497,893.7807 L106.5249,894.068 L106.5396,894.2937 L103.1621,893.9409 L99.7797,893.5117 L96.4085,893.2549 L93.0631,893.3965 L89.6812,892.9743 L89.6581,892.8432 L86.3581,892.6396 L82.901,891.5448 L79.6226,891.4633 L76.2435,890.8112 L72.8374,890.0055 L72.903,890.0924 L71.3188,888.866 L69.9695,887.9507 L68.408,886.7544 L66.7578,885.4405 L65.1812,884.2243 L65.4196,884.2243 L65.0654,876.2983 L65.818,868.3723 L65.3188,860.4464 L65.3346,852.5204 L65.1812,844.5944 " fill="none" style="stroke:#181818;stroke-width:4.0;"/><path d="M65.1812,844.5944 L65.1812,844.5944 L65.2375,844.669 L66.6015,845.6037 L68.2954,846.9755 L69.882,848.2049 L71.1151,848.9664 L72.8374,850.3757 L72.8314,850.3417 L76.1733,850.7827 L79.5453,851.3953 L82.9384,852.1271 L86.2591,852.4481 L89.6812,853.3444 L89.6971,853.59 L93.0318,853.2836 L96.413,853.6942 L99.7999,854.1922 L103.1537,854.1814 L106.5249,854.4382 L106.5255,854.4685 L108.0559,854.4552 L109.589,854.58 L111.1208,854.6382 L112.6552,854.8234 L114.1812,854.5944 L114.1812,854.5944 L114.1873,854.8926 L115.7186,854.865 L117.246,854.6451 L118.7791,854.7067 L120.3125,854.7815 L121.8374,854.4382 L121.8167,854.1183 L125.2257,854.5203 L128.5664,853.8692 L131.959,854.0187 L135.2982,853.3436 L138.6812,853.3444 L138.6759,853.3144 L142.1071,853.0753 L145.4149,852.1356 L148.7955,851.6093 L152.1823,851.1176 L155.5249,850.3757 L155.6364,850.5233 L157.0551,849.218 L158.6643,848.165 L159.9654,846.7039 L161.7261,845.8515 L163.1812,844.5944 " fill="none" style="stroke:#181818;stroke-width:4.0;"/><text fill="#000000" font-family="Chalkduster" font-size="24" lengthAdjust="spacing" textLength="78" x="75.1812" y="882.4353">Trove</text></g><!--entity r--><g id="elem_r"><polygon fill="none" points="735.2254,144.1503,734.0527,145.7526,732.6657,148.0995,730.682,149.6811,728.5975,150.546,726.9354,150.621,724.7991,149.5394,722.7835,148.8327,721.2536,147.398,720.451,145.7555,719.9751,144.4477,719.5089,142.7395,718.7521,141.2695,719.3336,139.8342,719.8431,138.262,721.7552,137.0186,723.1004,135.4052,724.7655,134.8695,726.7449,134.4081,729.2833,134.6822,730.6736,135.3379,732.29,135.6351,734.2555,137.6488,734.9406,139.7746,735.2383,141.225,734.9011,143.6152" style="stroke:#8B0000;stroke-width:4.0;"/><path d="M727.1812,150.2044 L727.368,150.2044 L726.8129,155.6044 L727.353,161.0044 L727.5364,166.4044 L726.547,171.8044 L727.1812,177.2044 M714.1812,158.2044 L714.1812,158.1353 L719.3812,157.8253 L724.5812,157.8635 L729.7812,158.1438 L734.9812,157.5899 L740.1812,158.2044 M727.1812,177.2044 L727.5531,177.5267 L724.1578,179.8375 L721.8483,183.0893 L719.6713,186.4559 L716.7236,189.1545 L714.1812,192.2044 M727.1812,177.2044 L727.227,177.2441 L729.7597,180.1858 L732.5011,183.3084 L735.1418,186.3436 L737.9746,189.5454 L740.1812,192.2044 " fill="none" style="stroke:#8B0000;stroke-width:4.0;"/><text fill="#000000" font-family="Chalkduster" font-size="24" lengthAdjust="spacing" textLength="149" x="652.6812" y="221.0453">Researcher</text></g><g id="elem_GMN14"><path d="M1045.6812,992.7244 L1046.2417,992.7244 L1044.5763,1002.9182 L1046.1966,1013.112 L1046.747,1023.3058 L1043.7788,1033.4996 L1045.4739,1043.6934 L1044.5439,1053.8872 L1044.6585,1064.081 L1045.4994,1074.2748 L1043.8375,1084.4686 L1047.1575,1094.6624 L1044.0004,1104.8562 L1045.1538,1115.05 L1045.6812,1125.2438 L1045.6812,1125.2438 L1045.6812,1126.3956 L1055.6097,1125.015 L1065.5383,1125.4257 L1075.4669,1125.1586 L1085.3955,1125.7198 L1095.324,1125.8814 L1105.2526,1126.8056 L1115.1812,1127.0332 L1125.1097,1127.0551 L1135.0383,1125.9228 L1144.9669,1126.48 L1154.8955,1127.1164 L1164.824,1123.3206 L1174.7526,1127.0531 L1184.6812,1124.4531 L1194.6097,1126.6673 L1204.5383,1123.9237 L1214.4669,1125.0611 L1224.3955,1127.2214 L1234.324,1125.1138 L1244.2526,1125.5246 L1254.1812,1126.1468 L1264.1097,1126.3537 L1274.0383,1125.2333 L1283.9669,1126.0097 L1293.8955,1123.7173 L1303.824,1126.0021 L1313.7526,1126.7056 L1323.6812,1126.4292 L1333.6097,1126.8785 L1343.5383,1123.9555 L1353.4669,1123.5046 L1363.3955,1123.5867 L1373.324,1125.0867 L1383.2526,1124.7197 L1393.1812,1127.0609 L1403.1097,1124.7779 L1413.0383,1124.3289 L1422.9669,1125.8525 L1432.8955,1123.4655 L1442.824,1123.8594 L1452.7526,1126.9743 L1462.6812,1125.2438 L1462.6812,1125.2438 L1463.843,1125.2438 L1464.6398,1115.0338 L1461.8231,1104.8239 L1463.5324,1094.6139 L1464.2556,1084.404 L1461.4214,1074.194 L1462.4255,1063.9841 L1463.0171,1053.7741 L1464.4192,1043.5642 L1462.67,1033.3543 L1463.9147,1023.1443 L1461.2044,1012.9344 L1462.6812,1002.7244 L1462.2555,1002.2987 L1460.9977,1001.041 L1458.2305,998.2738 L1457.0011,997.0443 L1454.811,994.8543 L1452.6812,992.7244 L1452.6812,992.01 L1442.4443,991.781 L1432.2075,993.9478 L1421.9706,991.9262 L1411.7338,994.3027 L1401.497,991.2504 L1391.2601,994.3709 L1381.0233,994.0159 L1370.7864,993.3777 L1360.5496,992.8503 L1350.3127,994.662 L1340.0759,994.3606 L1329.8391,993.1758 L1319.6022,993.4396 L1309.3654,992.377 L1299.1285,994.635 L1288.8917,993.1374 L1278.6549,993.1846 L1268.418,991.1022 L1258.1812,992.7244 L1257.1014,992.6823 L1259.1954,982.5266 L1258.5263,972.2631 L1256.8668,961.961 L1255.7227,951.6789 L1255.5978,941.4367 L1253.9528,931.1351 L1256.4863,920.9965 L1256.9518,910.7773 L1255.9838,900.5021 L1254.1812,890.1944 L1256.0329,890.2667 L1253.4168,900.4332 L1253.6136,910.7095 L1251.9484,920.9131 L1253.338,931.2359 L1252.8387,941.4851 L1253.2531,951.7698 L1250.7692,961.9415 L1250.623,972.2044 L1251.7628,982.5175 L1250.1812,992.7244 L1250.1812,994.2373 L1239.9562,991.3577 L1229.7312,992.2074 L1219.5062,993.1225 L1209.2812,991.0955 L1199.0562,993.6668 L1188.8312,993.4124 L1178.6062,992.4557 L1168.3812,993.1038 L1158.1562,994.6676 L1147.9312,991.8901 L1137.7062,993.5644 L1127.4812,993.4861 L1117.2562,993.0331 L1107.0312,993.1002 L1096.8062,993.027 L1086.5812,991.06 L1076.3562,991.6556 L1066.1312,991.4937 L1055.9062,992.8946 L1045.6812,992.7244 L1045.6812,992.7244 " fill="none" style="stroke:#181818;stroke-width:4.0;"/><path d="M1452.6812,992.7244 L1452.868,992.7244 L1452.3129,994.7244 L1452.853,996.7244 L1453.0364,998.7244 L1452.047,1000.7244 L1452.6812,1002.7244 L1452.6812,1002.6553 L1454.6812,1002.3453 L1456.6812,1002.3835 L1458.6812,1002.6638 L1460.6812,1002.1099 L1462.6812,1002.7244 L1463.0292,1003.0724 L1460.285,1000.3283 L1458.5569,998.6001 L1456.9527,996.9959 L1454.6273,994.6705 L1452.6812,992.7244 " fill="none" style="stroke:#181818;stroke-width:4.0;"/><text fill="#000000" font-family="Chalkduster" font-size="24" lengthAdjust="spacing" textLength="300" x="1051.6812" y="1021.5653">With required settings</text><text fill="#000000" font-family="Chalkduster" font-size="24" lengthAdjust="spacing" textLength="370" x="1051.6812" y="1052.1951">and dependencies to form</text><text fill="#000000" font-family="Chalkduster" font-size="24" lengthAdjust="spacing" textLength="396" x="1051.6812" y="1082.825">a re-runnable, interoperable</text><text fill="#000000" font-family="Chalkduster" font-size="24" lengthAdjust="spacing" textLength="154" x="1051.6812" y="1113.4548">"workflow"</text></g><g id="elem_GMN17"><path d="M442.6812,1023.3544 L443.2417,1023.3544 L441.5763,1033.5344 L443.1966,1043.7143 L443.747,1053.8943 L440.7788,1064.0742 L442.4739,1074.2542 L441.5439,1084.4341 L442.6812,1094.6141 L442.6812,1094.6141 L442.6812,1093.5914 L452.5621,1094.4323 L462.4431,1092.7704 L472.324,1096.0905 L482.205,1092.9333 L492.0859,1094.0867 L501.9669,1095.7659 L511.8478,1094.3854 L521.7288,1094.7961 L531.6097,1094.5289 L541.4907,1095.0902 L551.3716,1095.2518 L561.2526,1096.1759 L571.1336,1096.4036 L581.0145,1096.4254 L590.8955,1095.2931 L600.7764,1095.8503 L610.6574,1096.4867 L620.5383,1092.6909 L630.4193,1096.4235 L640.3002,1093.8234 L650.1812,1096.0376 L660.0621,1093.294 L669.9431,1094.4314 L679.824,1096.5917 L689.705,1094.4841 L699.5859,1094.8949 L709.4669,1095.5171 L719.3478,1095.724 L729.2288,1094.6037 L739.1097,1095.38 L748.9907,1093.0876 L758.8716,1095.3725 L768.7526,1096.0759 L778.6336,1095.7995 L788.5145,1096.2488 L798.3955,1093.3259 L808.2764,1092.8749 L818.1574,1092.957 L828.0383,1094.4571 L837.9193,1094.09 L847.8002,1096.4312 L857.6812,1094.6141 L857.6812,1094.6141 L857.2154,1094.6141 L856.7664,1084.4041 L858.2899,1074.1942 L855.9029,1063.9843 L856.2968,1053.7743 L859.4117,1043.5644 L857.6812,1033.3544 L857.955,1033.6283 L856.1428,1031.8161 L853.4789,1029.1522 L851.8818,1027.5551 L850.0523,1025.7255 L847.6812,1023.3544 L847.6812,1022.0947 L837.497,1023.0988 L827.3127,1023.6904 L817.1285,1025.0924 L806.9443,1023.3432 L796.7601,1024.5879 L786.5759,1021.8777 L776.3917,1021.5484 L766.2075,1024.6974 L756.0233,1021.4426 L745.8391,1024.7117 L735.6549,1023.9054 L725.4706,1022.64 L715.2864,1022.411 L705.1022,1024.5778 L694.918,1022.5562 L684.7338,1024.9327 L674.5496,1021.8804 L664.3654,1025.0009 L654.1812,1023.3544 L655.4721,1023.3932 L654.5264,1013.131 L653.6916,1002.872 L655.1948,992.6834 L654.5859,982.4312 L653.0939,972.1526 L653.0499,961.9174 L651.6801,951.6425 L653.6293,941.4672 L651.8247,931.1791 L651.5642,920.9375 L649.175,910.6319 L649.4088,900.4051 L650.1812,890.1944 L651.5959,890.2369 L651.019,900.4719 L649.4514,910.6771 L648.3994,920.8979 L648.3669,931.1492 L646.8137,941.3549 L649.4405,951.6861 L649.9986,961.9552 L649.1227,972.1812 L649.2643,982.4378 L646.7398,992.6142 L647.029,1002.8753 L645.4557,1013.0803 L646.1812,1023.3544 L646.1812,1024.1119 L636.0062,1024.0125 L625.8312,1024.8275 L615.6562,1022.742 L605.4812,1022.996 L595.3062,1024.537 L585.1312,1024.8673 L574.9562,1021.9877 L564.7812,1022.8374 L554.6062,1023.7525 L544.4312,1021.7255 L534.2562,1024.2968 L524.0812,1024.0424 L513.9062,1023.0857 L503.7312,1023.7338 L493.5562,1025.2976 L483.3812,1022.5201 L473.2062,1024.1944 L463.0312,1024.1161 L452.8562,1023.6631 L442.6812,1023.3544 L442.6812,1023.3544 " fill="none" style="stroke:#181818;stroke-width:4.0;"/><path d="M847.6812,1023.3544 L847.868,1023.3544 L847.3129,1025.3544 L847.853,1027.3544 L848.0364,1029.3544 L847.047,1031.3544 L847.6812,1033.3544 L847.6812,1033.2853 L849.6812,1032.9753 L851.6812,1033.0135 L853.6812,1033.2938 L855.6812,1032.7399 L857.6812,1033.3544 L858.0292,1033.7024 L855.285,1030.9583 L853.5569,1029.2301 L851.9527,1027.6259 L849.6273,1025.3005 L847.6812,1023.3544 " fill="none" style="stroke:#181818;stroke-width:4.0;"/><text fill="#000000" font-family="Chalkduster" font-size="24" lengthAdjust="spacing" textLength="230" x="448.6812" y="1052.1953">Standards-based</text><text fill="#000000" font-family="Chalkduster" font-size="24" lengthAdjust="spacing" textLength="394" x="448.6812" y="1082.8251">annotations and collections</text></g><!--link r to aw--><g id="link_r_aw"><path d="M801.9812,206.5744 L802.0245,206.6572 L803.7132,207.3628 L805.6559,208.5535 L807.5159,209.5863 L809.1039,210.0995 L811.0684,211.3319 L811.0511,211.3019 L812.7803,212.2087 L814.5965,213.2663 L816.473,214.4287 L818.1413,215.2298 L820.1013,216.5371 L820.2337,216.7445 L821.725,217.4339 L823.6028,218.7289 L825.5278,220.0978 L827.1784,221.0368 L828.9733,222.2019 L828.9909,222.2266 L830.6858,223.4176 L832.461,224.721 L834.1975,225.9702 L836.0077,227.3228 L837.5774,228.3382 L837.7644,228.5706 L839.4126,229.8973 L840.9402,231.0742 L842.6443,232.4704 L844.3567,233.877 L845.807,234.9577 L845.5903,234.7216 L847.5607,236.6028 L848.8173,237.7065 L850.6165,239.4013 L851.8569,240.4874 L853.5554,242.0724 L853.5332,242.0515 L855.2277,243.8224 L856.4037,245.1062 L857.8857,246.6774 L859.3933,248.2727 L860.7157,249.694 L860.8605,249.8091 L862.0074,251.321 L863.4018,253.0296 L864.3958,254.42 L865.987,256.285 L867.1812,257.8344 L867.3836,257.97 L868.6206,259.8489 L869.9581,261.795 L870.8286,263.4285 L872.0414,265.2912 L873.5575,267.357 L873.318,267.2195 L874.6814,269.3408 L875.7749,271.3072 L877.2599,273.4983 L878.0766,275.3057 L879.2905,277.3412 L879.1538,277.2737 L880.4059,279.4611 L881.0736,281.36 L882.1569,283.464 L883.6468,285.7688 L884.4126,287.7161 L884.5908,287.7918 L885.6218,289.9828 L886.0985,291.9382 L887.2694,294.1885 L888.2891,296.3746 L888.9563,298.411 L888.7591,298.3389 L889.7158,300.5851 L890.608,302.8077 L891.627,305.0767 L892.1527,307.1654 L892.954,309.3549 L893.1502,309.4163 L893.4159,311.5057 L894.0604,313.7137 L895.258,316.095 L895.4371,318.1572 L896.438,320.4769 L896.6566,320.5353 L897.1273,322.7465 L897.5241,324.9378 L898.0878,327.1739 L899.0373,329.513 L899.4409,331.7062 L899.3111,331.6768 L900.2082,334.0175 L900.2229,336.1582 L901.2409,338.5263 L901.694,340.7664 L901.9949,342.9719 L902.1019,342.9923 L902.4431,345.2221 L903.1672,347.5248 L903.5454,349.7617 L903.779,351.971 L904.1326,354.2032 L904.2504,354.2218 L904.4262,356.4194 L905.1486,358.7032 L905.2528,360.8895 L905.6114,363.1159 L905.8863,365.3291 L905.6182,365.2948 L905.9881,367.4962 L906.6812,369.739 L906.9171,371.9233 L906.9892,374.0865 L907.2886,376.2789 L907.1461,376.2645 L907.4084,378.4097 L907.4184,380.5293 L908.1218,382.7191 L908.482,384.8742 L908.3716,386.9816 L908.6049,386.9995 L908.8389,389.0822 L908.6296,391.1309 L908.8881,393.2154 L908.837,395.2763 L909.168,397.3664 L909.2941,397.3732 L909.386,399.3715 L909.63,401.3781 L909.3914,403.3584 L909.5421,405.3599 L909.7101,407.3624 L909.9072,407.3671 L910.0524,411.0769 L909.6628,414.7736 L909.8946,418.4855 L910.1373,422.1976 L910.1612,425.9044 " fill="none" style="stroke:#181818;stroke-width:4.0;"/><polygon fill="#181818" points="910.1612,430.7244,910.2252,430.7529,910.835,428.8683,911.82,427.1506,912.6829,425.3785,913.1439,423.4278,914.1612,421.7244,914.1429,421.7061,913.2606,422.4239,912.4708,423.234,911.7451,424.1084,910.7982,424.7615,910.1612,425.7244,910.2917,425.8549,909.2126,424.7759,908.5146,424.0778,907.863,423.4262,906.941,422.5042,906.1612,421.7244,906.182,421.7337,906.9514,423.5201,907.8156,425.3486,908.634,427.1568,909.5396,429.0037,910.1612,430.7244" style="stroke:#181818;stroke-width:4.0;"/><text fill="#000000" font-family="Chalkduster" font-size="24" lengthAdjust="spacing" textLength="348" x="909.6812" y="282.6753">Try settings, tweak code,</text><text fill="#000000" font-family="Chalkduster" font-size="24" lengthAdjust="spacing" textLength="285" x="941.1812" y="313.3051">get resulting outputs</text><text fill="#000000" font-family="Chalkduster" font-size="24" lengthAdjust="spacing" textLength="359" x="904.1812" y="343.935">eg: charts &amp; new datasets</text></g><!--link r to anw--><g id="link_r_anw"><path d="M652.3612,193.1644 L652.3891,193.2536 L649.4699,193.8773 L646.7145,195.0235 L643.9057,195.9996 L640.9216,196.4161 L638.1802,197.6072 L638.1682,197.5748 L635.2468,198.4947 L632.3861,199.5778 L629.5675,200.7743 L626.6037,201.5798 L623.8434,202.933 L623.9429,203.158 L620.8873,203.9343 L618.1224,205.3676 L615.3929,206.881 L612.4571,207.9281 L609.6298,209.2205 L609.644,209.2472 L606.8609,210.6735 L604.1425,212.2216 L601.3929,213.711 L598.7029,215.3126 L595.8187,216.5482 L595.98,216.799 L593.3561,218.4914 L590.6281,220.022 L588.0524,221.7894 L585.4839,223.5679 L582.6891,224.9948 L582.49,224.7436 L580.4426,227.16 L577.7397,228.7492 L575.5351,230.9672 L572.8174,232.5377 L570.5202,234.639 L570.4987,234.6174 L568.5674,237.0562 L566.1333,238.9918 L563.9959,241.2243 L561.8834,243.4817 L559.5912,245.5593 L559.738,245.6718 L557.7078,248.0133 L555.9285,250.547 L553.7433,252.7696 L552.1635,255.4563 L550.1812,257.8344 L550.3906,257.9589 L549.2106,259.855 L548.1346,261.8129 L546.5754,263.4838 L545.3703,265.3651 L544.4791,267.4329 L544.23,267.3136 L543.4944,269.4297 L542.478,271.4113 L541.8688,273.5879 L540.5645,275.4317 L539.6733,277.4733 L539.5308,277.4191 L538.975,279.5921 L537.8102,281.5332 L537.0785,283.6392 L536.7705,285.9067 L535.7079,287.8867 L535.8935,287.9418 L535.3847,290.123 L534.2985,292.1328 L533.9354,294.3573 L533.4148,296.535 L532.5271,298.6038 L532.3222,298.5579 L531.9951,300.7848 L531.6009,302.9967 L531.3386,305.2381 L530.5637,307.3648 L530.0751,309.5555 L530.2781,309.588 L529.4762,311.7401 L529.0663,313.9548 L529.2287,316.2612 L528.3372,318.3989 L528.2961,320.6727 L528.5211,320.696 L528.155,322.9249 L527.7129,325.1458 L527.4425,327.3846 L527.5694,329.6645 L527.1342,331.8862 L527.0013,331.8791 L527.2768,334.1484 L526.6487,336.3694 L527.0479,338.6453 L526.8687,340.8903 L526.5337,343.1269 L526.6425,343.1278 L526.5357,345.3668 L526.8186,347.6092 L526.7494,349.8485 L526.5329,352.0866 L526.4387,354.3257 L526.5578,354.3295 L526.4518,356.5414 L526.8989,358.7709 L526.7204,360.9805 L526.7992,363.1982 L526.7935,365.4133 L526.5237,365.3948 L526.7635,367.5825 L527.3283,369.7925 L527.4332,371.9709 L527.3734,374.138 L527.5422,376.3208 L527.3997,376.3062 L527.6627,378.4425 L527.6735,380.553 L528.3776,382.7343 L528.7386,384.8805 L528.629,386.9788 L528.8609,387.0095 L529.209,389.0872 L529.1164,391.1066 L529.4889,393.1876 L529.5535,395.2278 L529.9981,397.3183 L530.1227,397.3383 L530.4255,399.3261 L530.8788,401.3379 L530.8547,403.2733 L531.2156,405.2704 L531.5937,407.2702 L531.7871,407.3084 L532.5706,411.0119 L532.8292,414.6117 L533.6977,418.332 L534.5768,422.0544 L535.2412,425.7344 " fill="none" style="stroke:#181818;stroke-width:4.0;"/><polygon fill="#181818" points="536.5712,430.5344,536.6399,430.5479,536.8141,428.5748,537.3914,426.6807,537.8374,424.7608,537.8518,422.7565,538.4636,420.8691,538.4417,420.8553,537.7418,421.7518,537.1524,422.7176,536.64,423.7317,535.8626,424.5795,535.4563,425.6603,535.5544,425.8166,534.3863,424.8809,533.5047,424.4015,532.6581,423.9778,531.6081,423.2302,530.6651,422.6529,530.6833,422.6666,531.8378,424.2228,533.0751,425.8412,534.2725,427.4296,535.5462,429.0752,536.5712,430.5344" style="stroke:#181818;stroke-width:4.0;"/><text fill="#000000" font-family="Chalkduster" font-size="24" lengthAdjust="spacing" textLength="311" x="551.1812" y="282.6753">Annotate relationships</text><text fill="#000000" font-family="Chalkduster" font-size="24" lengthAdjust="spacing" textLength="296" x="558.6812" y="313.3051">between data entities</text><text fill="#000000" font-family="Chalkduster" font-size="24" lengthAdjust="spacing" textLength="184" x="614.6812" y="343.935">and concepts</text></g><!--link anw to ar--><g id="link_anw_ar"><path d="M442.7812,513.5444 L442.8255,513.6267 L440.8807,514.3585 L439.1955,515.5725 L437.4257,516.6295 L435.378,517.1701 L433.7151,518.4255 L433.6979,518.3955 L431.8189,519.2971 L430.0267,520.3496 L428.2948,521.507 L426.355,522.3029 L424.7065,523.6052 L424.8356,523.8147 L422.7811,524.4629 L421.1036,525.7227 L419.4721,527.0572 L417.5729,527.9575 L415.8146,529.0861 L415.8313,529.1114 L414.0635,530.2312 L412.3721,531.4661 L410.6438,532.6454 L408.9858,533.9306 L407.0987,534.8707 L407.2726,535.1129 L405.5787,536.334 L403.7725,537.3988 L402.1305,538.6924 L400.4963,539.9967 L398.6181,540.9613 L398.4207,540.7088 L397.1666,542.4787 L395.2625,543.4172 L393.8526,544.9878 L391.9338,545.9073 L390.4321,547.3605 L390.4123,547.3374 L389.0801,548.9529 L387.2852,550.0282 L385.7633,551.4222 L384.2644,552.843 L382.6,554.0707 L382.7272,554.2051 L381.1151,555.4742 L379.7203,556.9729 L377.9738,558.1002 L376.7518,559.7815 L375.1812,561.0944 L375.3872,561.2245 L373.2198,564.5696 L371.1548,567.9792 L368.6145,571.0887 L366.4226,574.4183 L364.5393,577.9427 L364.2698,577.8823 L363.7661,581.2731 L362.9588,584.5958 L362.5919,588.0172 L361.473,591.2701 L360.8012,594.6232 L360.6547,594.5807 L359.989,597.7847 L358.6973,600.807 L357.8507,603.9585 L357.4397,607.2365 L356.253,610.2893 L356.3936,610.4224 L353.8757,613.2747 L350.9204,615.713 L348.5129,618.6699 L345.9861,621.5138 L343.1812,624.0944 L343.1503,623.8867 L339.9527,624.5308 L336.745,625.1068 L333.5572,625.8164 L330.2921,626.0066 L327.0702,626.4869 L327.0788,626.6923 L324.0336,626.3668 L321.005,626.4377 L318.0004,627.0879 L314.9515,626.6717 L311.9383,627.1159 L311.9424,627.342 L308.1697,627.275 L304.3956,627.1314 L300.6246,627.1606 L296.8607,627.5889 L293.0868,627.4524 L293.0861,627.3194 L288.7236,627.7371 L284.3565,627.2501 L279.9945,627.7919 L275.6297,627.7544 L271.2641,627.5608 L271.2643,627.6697 L266.455,627.5707 L261.6467,627.8616 L256.8375,627.8003 L252.0279,627.5918 L247.2187,627.5055 L247.2211,627.863 L236.8645,627.2628 L226.519,628.3228 L216.161,627.5051 L205.8082,627.4597 L195.4537,627.1607 L195.4501,626.3495 L185.1165,626.5748 L174.7872,627.7771 L164.4518,627.5968 L154.1142,626.921 L143.7796,626.9326 L143.7791,626.7894 L138.9929,626.8534 L134.2058,626.6639 L129.4213,627.1713 L124.6355,627.3337 L119.8479,627.0231 L119.8512,627.2571 L115.5196,627.3945 L111.1816,627.0875 L106.8503,627.2495 L102.5145,627.101 L98.1843,627.3358 L98.1884,627.462 L94.4584,627.5653 L90.7334,627.8209 L86.9929,627.5933 L83.2648,627.7554 L79.5374,627.935 L79.5499,628.1317 L76.5771,628.3766 L73.5701,628.0876 L70.6028,628.4189 L67.6361,628.7611 L64.6555,628.8849 L64.6004,628.6191 L61.5926,629.6806 L58.4891,630.281 L55.3618,630.7668 L52.2889,631.5144 L49.1812,632.0944 L49.4241,632.3086 L46.6,634.8119 L44.3325,637.8059 L41.8458,640.6068 L39.3124,643.3663 L36.7969,646.1417 L36.8503,646.1745 L34.905,649.3142 L32.6909,652.2886 L30.8406,655.4867 L28.8828,658.6186 L27.1227,661.8722 L27.1488,661.8832 L25.7138,665.3003 L24.2989,668.7259 L22.6686,672.0604 L21.315,675.5119 L19.8976,678.9365 L19.8462,678.9222 L19.1372,682.6153 L18.0655,686.2071 L16.6677,689.708 L15.837,693.3671 L14.8609,696.9857 L14.6078,696.9436 L14.3654,700.7437 L13.8839,704.504 L13.234,708.2363 L12.1824,711.9017 L11.7515,715.6704 L11.9571,715.6861 L11.1337,719.4397 L11.263,723.2657 L10.7531,727.0431 L10.64,730.8507 L10.3086,734.6417 L10.4154,734.6419 L10.5109,738.4238 L9.9737,742.2045 L10.4975,745.9872 L10.3579,749.7687 L10.2713,753.5502 L10.4289,753.5597 L10.8245,757.2694 L10.7167,760.9491 L11.0135,764.6529 L11.2519,768.3533 L11.3787,772.0469 L11.4658,772.0567 L11.7766,775.594 L12.4891,779.1764 L12.3041,782.6581 L13.2213,786.2635 L13.3699,789.7826 L13.0959,789.7395 L13.6555,793.0704 L14.4332,796.4356 L14.9508,799.7598 L15.2449,803.049 L15.9841,806.4081 L16.1645,806.4435 L16.6268,809.4506 L17.4915,812.5368 L18.0608,815.5649 L18.1696,818.5027 L18.9603,821.5743 L18.788,821.5346 L19.5199,824.2329 L20.3453,826.9528 L20.9813,829.6291 L21.5527,832.2904 L22.0377,834.9319 " fill="none" style="stroke:#181818;stroke-width:4.0;"/><polygon fill="#181818" points="22.0377,834.9319,22.1067,834.9442,22.2477,832.9685,22.7931,831.0649,23.2068,829.1379,23.1874,827.1335,23.7675,825.2362,23.7453,825.2228,23.0606,826.1308,22.4875,827.1065,21.9922,828.129,21.2291,828.9898,20.8411,830.0772,20.9365,830.2352,19.7642,829.3122,18.8705,828.8502,18.0109,828.4446,16.9534,827.7116,16,827.1508,16.018,827.1647,17.1991,828.7005,18.4621,830.2997,19.6856,831.8683,20.9844,833.4954,22.0377,834.9319" style="stroke:#181818;stroke-width:4.0;"/><text fill="#000000" font-family="Chalkduster" font-size="24" lengthAdjust="spacing" textLength="274" x="376.1812" y="585.9353">Reference a variety</text><text fill="#000000" font-family="Chalkduster" font-size="24" lengthAdjust="spacing" textLength="106" x="460.1812" y="616.5651">of data</text></g><!--link anw to ng--><g id="link_anw_ng"><path d="M618.4112,513.3944 L618.4719,513.4654 L620.6907,515.3097 L623.2657,517.5699 L625.7248,519.6946 L627.8023,521.374 L630.4079,523.6699 L630.3832,523.6458 L632.4951,525.8152 L634.7317,528.1062 L637.0549,530.4817 L639.0796,532.5659 L641.5224,535.0582 L641.7163,535.2097 L643.252,537.382 L645.3537,539.9966 L647.5245,542.6652 L649.2935,545.0198 L651.2738,547.5396 L651.3,547.5549 L652.843,550.2434 L654.5053,553.0015 L656.11,555.726 L657.8245,558.5146 L659.1812,561.0944 L659.4554,561.2117 L660.9446,564.6882 L662.2569,568.0891 L663.8281,571.6006 L665.4114,575.1174 L666.6103,578.4698 L666.3056,578.3703 L668.0741,582.1677 L668.8394,585.6375 L670.3673,589.3564 L671.1098,592.8188 L672.4962,596.4914 L672.4666,596.4843 L673.709,600.2724 L674.26,603.8938 L675.219,607.6136 L676.2123,611.3417 L676.9584,615.0102 L677.1408,615.0407 L677.5883,618.7832 L678.3476,622.5779 L678.6024,626.2881 L679.6096,630.1243 L680.1166,633.8768 L680.359,633.9019 L680.7079,637.7102 L681.1772,641.5309 L681.0874,645.2938 L681.4074,649.0992 L682.0905,652.9421 L681.8147,652.9289 L682.2462,656.7638 L682.367,660.5838 L682.9385,664.4253 L682.7403,668.2302 L682.9997,672.0569 L682.8472,672.0566 L683.094,675.8601 L682.689,679.6623 L682.7474,683.4655 L683.2594,687.2695 L682.9638,691.072 L683.1572,691.0808 L683.1176,694.8402 L682.4764,698.5719 L682.5887,702.3382 L682.5368,706.097 L682.1024,709.8382 L681.8932,709.8203 L681.7465,713.5082 L681.5313,717.1902 L681.4507,720.8837 L680.8468,724.5325 L680.5352,728.2063 L680.7393,728.231 L679.8602,731.7409 L679.3751,735.2985 L679.4654,738.9257 L678.4962,742.4247 L678.3819,746.0271 L678.6055,746.0613 L677.9486,749.4659 L677.2162,752.8589 L676.6545,756.278 L676.4875,759.7575 L675.7619,763.1515 L675.631,763.1277 L675.4273,766.4544 L674.3335,769.6189 L674.2518,772.9679 L673.6002,776.2131 L672.7951,779.4302 L672.9016,779.4525 L672.1768,782.4913 L671.8335,785.6098 L671.1455,788.6563 L670.3134,791.6727 L669.6009,794.714 L669.717,794.7411 L668.8842,797.5288 L668.5903,800.4424 L667.6869,803.2136 L667.0342,806.0433 L666.2992,808.8538 L666.0372,808.7867 L665.4667,811.3784 L665.2118,814.0509 L664.5103,816.6091 L663.6488,819.1263 L663.0094,821.7003 L662.8714,821.6621 L662.2839,823.9552 L661.4522,826.1806 L661.2921,828.592 L660.7996,830.9113 L659.8512,833.1044 " fill="none" style="stroke:#181818;stroke-width:4.0;"/><polygon fill="#181818" points="658.2212,837.7044,658.2747,837.7497,659.3877,836.1112,660.8144,834.738,662.1389,833.2785,663.1276,831.5349,664.5812,830.1844,664.5687,830.1617,663.5208,830.6038,662.5357,831.1603,661.5942,831.7965,660.5024,832.1584,659.6212,832.9044,659.783,832.9932,658.893,831.8114,658.4754,830.8887,658.1154,829.9977,657.4201,828.9227,656.9012,827.9444,656.9237,827.9475,657.1546,829.895,657.4881,831.8564,657.7722,833.8111,658.1506,835.7786,658.2212,837.7044" style="stroke:#181818;stroke-width:4.0;"/><text fill="#000000" font-family="Chalkduster" font-size="24" lengthAdjust="spacing" textLength="96" x="679.1812" y="601.4353">Deposit</text></g><!--link ws to input--><g id="link_ws_input"><path d="M339.0603,482.87 L339.1325,482.9293 L338.8382,482.8501 L338.9669,483.1188 L338.9578,483.2742 L338.4958,483.0571 L338.6608,483.3557 L338.634,483.3338 L338.35,483.4364 L338.2007,483.6492 L338.1451,483.9386 L337.7666,483.964 L337.8404,484.3592 L338.0319,484.5137 L337.2783,484.6096 L337.0838,485.1567 L336.9575,485.7588 L336.4343,486.0407 L336.1198,486.491 L336.1437,486.5097 L335.3646,487.4298 L334.6941,488.4351 L333.9712,489.3993 L333.3482,490.442 L332.3994,491.2288 L332.6395,491.4058 L330.9955,493.6416 L329.1967,495.7632 L327.6246,498.0519 L326.063,500.3485 L324.1649,502.3969 L323.8981,502.2193 L322.6805,505.1713 L320.5842,507.5385 L319.1559,510.3503 L317.0398,512.7043 L315.4874,515.4335 L315.4611,515.4182 L314.0961,518.4868 L312.1159,521.1982 L310.4987,524.1204 L308.912,527.0603 L307.1054,529.8725 L307.2723,529.9523 L305.6342,532.9469 L304.2813,536.0778 L302.4669,538.9882 L301.3409,542.2275 L299.7572,545.2482 L299.987,545.329 L298.8283,548.483 L297.7838,551.6771 L296.209,554.6847 L295.0229,557.829 L294.1812,561.0944 L293.9122,561.0318 L293.292,564.7995 L292.3687,568.4966 L291.8851,572.296 L290.6508,575.9208 L289.8628,579.6493 L289.7119,579.6269 L289.3986,583.4528 L288.4406,587.1827 L287.941,590.9808 L287.89,594.8459 L287.0402,598.5919 L287.2333,598.6065 L287.0746,602.4572 L286.3154,606.2623 L286.3083,610.1244 L286.1374,613.9741 L285.5846,617.7949 L285.3746,617.7926 L285.4984,621.6618 L285.5535,625.5302 L285.7436,629.4001 L285.4085,633.2641 L285.3668,637.1315 L285.5722,637.1409 L285.2991,640.9887 L285.4225,644.8548 L286.125,648.7475 L285.7613,652.5911 L286.2578,656.4744 L286.483,656.4963 L286.7234,660.3277 L286.8877,664.1517 L287.2238,667.9925 L287.9574,671.8719 L288.1287,675.6966 L287.997,675.6777 L288.9334,679.5288 L288.9741,683.2515 L290.0333,687.1202 L290.519,690.9067 L290.8503,694.6711 L290.9573,694.6909 L291.5596,698.3948 L292.5452,702.1697 L293.1845,705.8805 L293.679,709.5644 L294.2937,713.2707 L294.41,713.2966 L295.0444,716.8776 L296.2189,720.5791 L296.7825,724.1443 L297.5974,727.7655 L298.3298,731.3684 L298.068,731.3009 L299.0553,734.8172 L300.3581,738.4147 L301.2146,741.8973 L301.9112,745.3386 L302.8296,748.8371 L302.6921,748.7973 L303.703,752.1526 L304.4705,755.4374 L305.9074,758.9159 L307.013,762.2986 L307.6641,765.5498 L307.887,765.6207 L308.9665,768.8094 L309.6223,771.8631 L310.7252,775.0592 L311.5321,778.1611 L312.7043,781.3793 L312.8236,781.4205 L313.8313,784.3789 L314.9831,787.3871 L315.6779,790.2375 L316.7413,793.2152 L317.8211,796.1986 L318.0059,796.267 L319.0705,799.0225 L319.6333,801.5923 L320.779,804.3779 L321.9349,807.1672 L322.8855,809.8806 L322.6329,809.7812 L324.0083,812.4216 L324.9455,814.8896 L325.7737,817.3148 L326.8508,819.8378 L327.7686,822.2982 L328.0677,822.4223 L328.5546,824.4502 L329.7269,826.7623 L330.6294,828.9626 L331.4742,831.1389 L332.3412,833.3244 " fill="none" style="stroke:#181818;stroke-width:4.0;"/><polygon fill="#181818" points="334.6812,837.7444,334.7512,837.7452,334.5642,835.7733,334.7878,833.8058,334.8777,831.8369,334.5278,829.8632,334.7867,827.8961,334.7626,827.8866,334.2371,828.8952,333.833,829.9521,333.5133,831.0424,332.9028,832.0173,332.6995,833.1539,332.7676,833.3254,331.5705,832.5412,330.5721,832.2578,329.598,832.0354,328.4828,831.4576,327.4418,831.0667,327.4572,831.0835,328.8824,832.3945,330.3779,833.7816,331.8395,835.1319,333.3657,836.5524,334.6812,837.7444" style="stroke:#181818;stroke-width:4.0;"/><text fill="#000000" font-family="Chalkduster" font-size="24" lengthAdjust="spacing" textLength="43" x="295.1812" y="601.4353">use</text></g><!--link aw to res--><g id="link_aw_res"><path d="M908.1812,513.3644 L908.4614,513.3644 L907.6287,523.3544 L908.4389,533.3444 L908.7141,543.3344 L907.23,553.3244 L908.0776,563.3144 L907.6125,573.3044 L907.6698,583.2944 L908.0903,593.2844 L907.2593,603.2744 L908.9194,613.2644 L907.3408,623.2544 L907.9175,633.2444 L908.7571,643.2344 L908.0668,653.2244 L908.2722,663.2144 L908.1386,673.2044 L908.4192,683.1944 L908.5,693.1844 L908.9621,703.1744 L909.0759,713.1644 L909.0868,723.1544 L908.5207,733.1444 L908.7993,743.1344 L909.1175,753.1244 L907.2196,763.1144 L909.0859,773.1044 L907.7858,783.0944 L908.8929,793.0844 L907.5211,803.0744 L908.0898,813.0644 L909.17,823.0544 L908.1812,833.0444 " fill="none" style="stroke:#181818;stroke-width:4.0;"/><polygon fill="#181818" points="908.1812,837.6744,908.2452,837.7029,908.855,835.8183,909.84,834.1006,910.7029,832.3285,911.1639,830.3778,912.1812,828.6744,912.1629,828.6561,911.2806,829.3739,910.4908,830.184,909.7651,831.0584,908.8182,831.7115,908.1812,832.6744,908.3117,832.8049,907.2326,831.7259,906.5346,831.0278,905.883,830.3762,904.961,829.4542,904.1812,828.6744,904.202,828.6837,904.9714,830.4701,905.8356,832.2986,906.654,834.1068,907.5596,835.9537,908.1812,837.6744" style="stroke:#181818;stroke-width:4.0;"/><text fill="#000000" font-family="Chalkduster" font-size="24" lengthAdjust="spacing" textLength="96" x="909.1812" y="601.4353">Deposit</text></g><!--link aw to code--><g id="link_aw_code"><path d="M961.0212,513.5244 L961.0807,513.5964 L963.5916,515.6057 L966.4515,518.0369 L969.1978,520.3308 L971.5703,522.1727 L974.4602,524.6402 L974.4376,524.6141 L977.0619,526.8544 L979.8001,529.2265 L982.6175,531.6901 L985.162,533.8382 L988.0887,536.4282 L988.2546,536.6098 L990.5767,538.6671 L993.3833,541.2547 L996.249,543.9071 L998.7707,546.1829 L1001.4734,548.6568 L1001.4946,548.6784 L1004.005,551.1341 L1006.612,553.6885 L1009.1724,556.1953 L1011.8217,558.7929 L1014.1812,561.0944 L1014.3963,561.3009 L1017.7862,564.8325 L1021.0373,568.2308 L1024.4915,571.8241 L1027.9552,575.4266 L1031.1173,578.7395 L1030.8818,578.5221 L1034.7106,582.5956 L1037.7639,585.9532 L1041.4068,589.8551 L1044.4425,593.1965 L1047.9759,596.9973 L1047.9532,596.977 L1051.5631,600.9612 L1054.6422,604.4718 L1058.0346,608.2618 L1061.4532,612.0754 L1064.6821,615.7196 L1064.822,615.8407 L1067.9767,619.5263 L1071.3703,623.4187 L1074.3773,626.9764 L1077.9611,631.0334 L1081.1613,634.7585 L1081.3477,634.9154 L1084.5479,638.7272 L1087.8407,642.6169 L1090.7035,646.1445 L1093.8815,649.9376 L1097.3387,653.9657 L1097.1253,653.7904 L1100.4786,657.7946 L1103.5915,661.6013 L1107.0532,665.6945 L1109.9194,669.2985 L1113.1395,673.1933 L1113.0207,673.0978 L1116.2885,677.0768 L1119.0483,680.6475 L1122.1694,684.5086 L1125.6439,688.6538 L1128.489,692.293 L1128.6411,692.4128 L1131.7102,696.2598 L1134.306,699.7341 L1137.4945,703.6751 L1140.5539,707.5145 L1143.3124,711.1169 L1143.1463,710.9885 L1146.1232,714.7708 L1149.0458,718.5111 L1152.0752,722.334 L1154.689,725.8357 L1157.535,729.5168 L1157.6987,729.6412 L1160.0485,732.9335 L1162.7142,736.4658 L1165.8415,740.3489 L1168.1189,743.5863 L1171.082,747.3446 L1171.2632,747.4801 L1173.7149,750.8212 L1176.1054,754.1163 L1178.6342,757.515 L1181.4827,761.1529 L1183.8788,764.4522 L1183.7717,764.3733 L1186.4848,767.8562 L1188.4697,770.8022 L1191.2826,774.3587 L1193.6293,777.5715 L1195.8504,780.6916 L1195.9386,780.7554 L1200.1012,786.5602 L1204.5797,792.5934 L1208.7728,798.4203 L1212.8466,804.1609 L1217.0194,809.9731 L1217.1168,810.0419 L1220.3665,814.746 L1224.0682,819.7693 L1227.2587,824.4316 L1230.6595,829.2424 L1233.9912,834.0044 " fill="none" style="stroke:#181818;stroke-width:4.0;"/><polygon fill="#181818" points="1237.3912,837.8844,1237.46,837.8977,1236.8828,835.9241,1236.7089,834.0283,1236.4037,832.1071,1235.6666,830.1027,1235.5273,828.2135,1235.5018,828.209,1235.1884,829.3023,1235.0035,830.4185,1234.9081,831.5508,1234.5046,832.628,1234.5325,833.7822,1234.565,833.9639,1233.3818,833.3764,1232.2934,833.3194,1231.2166,833.3271,1230.0725,832.9582,1228.9638,832.7874,1228.9756,832.8069,1230.6438,833.7977,1232.3655,834.8771,1234.0615,835.9138,1235.8067,837.0321,1237.3912,837.8844" style="stroke:#181818;stroke-width:4.0;"/><text fill="#000000" font-family="Chalkduster" font-size="24" lengthAdjust="spacing" textLength="96" x="1072.1812" y="601.4353">Deposit</text></g><!--SRC=[XLDTYnD147pVNz7kWoWavti89-4EDI0YyU10yjBPwIH39Zthp6pM8FvtQtPlyw41yvJPxggkxgv-PRLoZH6wUsSuyTZnQXpJqSdTtXH5iid9XEP6sDaeXWvMMl9hOlemcoyeGoX850xLbbeVTcldsxZKyfDloLX3Szf8egq4ULyM1LV91oeNBmW99N6aK1H1giIwSKBbCrXYpPN4adAqZVJhCZvJzOcJzKgdr9AcqtPutDztEDQMhd7iZibMxFw30wpuVILf1gts0E12QXyjUh1PtNGQXlSHu8mDq5hagQmu0lXTr1k_r3Thj2q_ULyxULiYX_vX5pEYhrpjU8CnFtWZtMWg_BcP32cnSIds0vHuAVSBGFGnSBtjmwIReg3SqrdPvqT-cDqIbd-twbcjczGjlEFidjUKJy4V97FWCmBOaj3Af-JtsJ6vamazsxG5_O_61d16ISdg1dvXDMIa5ZMY5OPBoHEaxH51-ZWqghnoCaBT9C7N4l8JFXiy1tFzNL4t4_g6FWm74yTPeyc51lTaXnZ8SWxTvZTMJcFZMntVPnDCw2aSJn97b5hXNTV6QAdPrA7R08BacuHfe0r1oMhB8KLwJOfJoTC1HRoarinDBpOMqBXUpzRMe5W92edsfoMA2yGu-W5LNYkfGPOfJdG1R0jPuy8GnM4U6EvCnwLY19daAXjY9_JOkxR0PGtV- -rEgC4Y2pxdeyTp_iNtVfj3u0y0]--></g></svg>