<?xml version="1.0" encoding="us-ascii" standalone="no"?><svg xmlns="http://www.w3.org/2000/svg" xmlns:xlink="http://www.w3.org/1999/xlink" contentStyleType="text/css" height="1099px" preserveAspectRatio="none" style="width:1221px;height:1099px;background:#FFFFFF;" version="1.1" viewBox="0 0 1221 1099" width="1221px" zoomAndPan="magnify"><defs/><g><text fill="#000000" font-family="Chalkduster" font-size="42" font-weight="bold" lengthAdjust="spacing" textLength="807" x="200" y="51.7215">Phase 1: Analyse and retain data</text><text fill="#000000" font-family="Chalkduster" font-size="42" font-weight="bold" lengthAdjust="spacing" textLength="483" x="362" y="105.3238">(Core CDL Use case)</text><!--cluster tdg--><g id="cluster_tdg"><polygon fill="#FFFF00" points="9.5,625.8344,9.5,626.0446,19.525,625.4201,29.55,626.0277,39.575,626.2341,49.6,625.121,59.625,625.7567,69.65,625.4079,79.675,625.4509,89.7,625.7663,99.725,625.1431,109.75,626.3881,119.775,625.2041,129.8,625.6367,139.825,626.2664,149.85,625.7486,159.875,625.9027,169.9,625.8025,179.925,626.0129,189.95,626.0736,199.975,626.4201,210,626.5055,220.025,626.5137,230.05,626.089,240.075,626.298,250.1,626.5367,260.125,625.1132,270.15,626.5129,280.175,625.5379,290.2,626.3682,300.225,625.3394,310.25,625.7659,320.275,626.576,330.3,625.7857,340.325,625.9397,350.35,626.173,360.375,626.2507,370.4,625.8305,380.425,626.1216,390.45,625.262,400.475,626.1188,410.5,626.3826,420.525,626.279,430.55,626.4474,440.575,625.3513,450.6,625.1822,460.625,625.213,470.65,625.7755,480.675,625.6379,490.7,626.5158,500.725,625.6597,510.75,625.4914,520.775,626.0627,530.8,625.1676,540.825,625.3153,550.85,626.4834,560.875,626.2701,570.9,626.5689,580.925,625.5126,590.95,626.1536,600.975,626.4248,611,625.362,621.025,625.7386,631.05,625.9604,641.075,626.4862,651.1,625.8302,661.125,626.297,671.15,625.2806,681.175,625.1572,691.2,626.338,701.225,625.1175,711.25,626.3434,721.275,626.0411,731.3,625.5665,741.325,625.4806,751.35,626.2932,761.375,625.5351,771.4,626.4263,781.425,625.2817,791.45,626.4518,801.475,626.3187,811.5,626.0794,821.525,625.8816,831.55,626.561,841.575,626.448,851.6,626.0037,861.625,626.1026,871.65,625.7042,881.675,626.5509,891.7,625.9893,901.725,626.007,911.75,625.2261,921.775,625.4292,931.8,626.3652,941.825,626.2642,951.85,625.7915,961.875,625.5123,971.9,625.6155,981.925,625.1482,991.95,626.2492,1001.975,626.574,1012,626.3608,1022.025,626.5294,1032.05,625.6977,1042.075,625.9216,1052.1,625.4468,1062.125,626.1185,1072.15,626.0812,1082.175,626.3868,1092.2,625.6048,1102.225,625.7,1112.25,626.2779,1122.275,626.4018,1132.3,625.3219,1142.325,625.6405,1152.35,625.9837,1162.375,625.2236,1172.4,626.1878,1182.425,626.0924,1192.45,625.7337,1202.475,625.9767,1212.5,625.8344,1212.593,626.0588,1212.8136,625.8845,1213.2473,626.2243,1213.5971,626.3617,1213.929,626.4559,1214.2678,626.5667,1214.3112,626.5846,1214.4492,626.9347,1214.3684,627.1941,1214.5837,627.5762,1214.7114,627.922,1215,628.3344,1215.0638,628.3344,1215.0881,638.4865,1215.1617,648.6386,1214.709,658.7907,1214.9325,668.9428,1214.8798,679.0949,1215.5769,689.2471,1215.4266,699.3992,1214.5145,709.5513,1214.9271,719.7034,1214.4228,729.8555,1215.2884,740.0076,1215.6085,750.1597,1215.5446,760.3118,1214.5644,770.4639,1215.464,780.616,1214.2572,790.7681,1215.2002,800.9202,1214.7007,811.0723,1215,821.2244,1215.0298,821.2368,1214.9276,821.6086,1214.8525,821.9918,1214.339,822.1932,1214.5606,822.6993,1214.2678,822.9922,1214.2905,823.0471,1213.9595,823.2481,1213.6561,823.5154,1213.2078,823.4332,1212.8759,823.632,1212.5,823.7244,1212.5,823.9379,1202.475,823.9217,1192.45,823.7236,1182.425,824.4351,1172.4,823.1147,1162.375,824.2897,1152.35,823.1004,1142.325,823.1841,1132.3,823.7644,1122.275,823.7527,1112.25,823.2316,1102.225,824.1381,1092.2,823.8333,1082.175,824.4511,1072.15,824.3915,1062.125,823.2762,1052.1,823.3265,1042.075,823.5952,1032.05,824.0799,1022.025,824.1274,1012,824.0256,1001.975,823.3825,991.95,824.3608,981.925,824.3582,971.9,823.6771,961.875,823.4854,951.85,823.323,941.825,823.5098,931.8,823.8618,921.775,823.656,911.75,823.3066,901.725,824.2118,891.7,823.2655,881.675,824.2268,871.65,824.1517,861.625,824.0963,851.6,824.4169,841.575,823.4785,831.55,823.4238,821.525,824.2433,811.5,823.1275,801.475,823.4904,791.45,823.8399,781.425,823.7931,771.4,823.366,761.375,823.6814,751.35,824.469,741.325,824.3729,731.3,823.1281,721.275,823.8029,711.25,823.2105,701.225,823.6981,691.2,824.0174,681.175,824.1443,671.15,823.0597,661.125,824.125,651.1,823.7328,641.075,823.1691,631.05,823.2534,621.025,824.051,611,823.9743,600.975,823.708,590.95,823.0523,580.925,824.3826,570.9,823.4126,560.875,823.1964,550.85,823.6571,540.825,824.3141,530.8,824.3398,520.775,823.7595,510.75,823.5733,500.725,823.8942,490.7,823.9106,480.675,823.2166,470.65,824.1384,460.625,824.2832,450.6,823.5087,440.575,823.2952,430.55,824.3991,420.525,823.7454,410.5,823.7243,400.475,824.0234,390.45,823.0787,380.425,824.2544,370.4,823.709,360.375,824.3932,350.35,823.5086,340.325,824.1334,330.3,823.2804,320.275,823.9694,310.25,824.1037,300.225,823.3971,290.2,824.0874,280.175,823.153,270.15,823.2539,260.125,824.4073,250.1,824.4088,240.075,824.2929,230.05,823.3641,220.025,824.1087,210,823.2524,199.975,823.7826,189.95,823.7232,179.925,823.462,169.9,824.3403,159.875,824.1677,149.85,823.4037,139.825,824.2511,129.8,823.8163,119.775,823.1408,109.75,823.4911,99.725,823.1991,89.7,823.5853,79.675,823.0954,69.65,823.1243,59.625,823.7947,49.6,823.604,39.575,823.6659,29.55,823.5812,19.525,823.8917,9.5,823.7244,9.4292,823.5535,9.1669,823.6273,8.6981,823.2027,8.4771,823.3762,8.1614,823.3212,7.7322,822.9922,7.893,823.0588,7.6971,822.6847,7.4985,822.3096,7.3255,821.945,6.9493,821.4963,7,821.2244,7.4465,821.2244,7.3296,811.0723,6.8466,800.9202,6.9942,790.7681,6.7914,780.616,7.2177,770.4639,7.6805,760.3118,6.6461,750.1597,7.4689,740.0076,6.9108,729.8555,6.6207,719.7034,6.5681,709.5513,6.3553,699.3992,6.5591,689.2471,7.0363,679.0949,7.273,668.9428,7.5762,658.7907,7.4201,648.6386,6.2886,638.4865,7,628.3344,7.1906,628.4134,7.2962,628.0429,7.4594,627.6963,7.6001,627.3403,7.3828,626.8361,7.7322,626.5667,7.6994,626.4873,8.1261,626.5175,8.3779,626.1255,8.7798,626.0956,9.155,626.0015,9.5,625.8344" style="stroke:#181818;stroke-width:4.0;"/><text fill="#000000" font-family="Chalkduster" font-size="24" font-style="italic" lengthAdjust="spacing" textLength="157" x="532.5" y="651.6753">&#171;guidance&#187;</text><text fill="#000000" font-family="Chalkduster" font-size="24" font-weight="bold" lengthAdjust="spacing" textLength="250" x="486" y="682.3051">Trove Data Guide</text></g><!--cluster Trove--><g id="cluster_Trove"><path d="M53,905.7244 L53,905.7244 L53.0252,905.8144 L55.305,904.887 L57.7326,904.4868 L60.112,903.915 L62.3332,902.7785 L64.7734,902.4236 L64.77,902.3893 L67.4573,901.9679 L70.1618,901.7198 L72.8781,901.5922 L75.5534,901.0495 L78.2861,901.0882 L78.3022,901.3337 L81.7731,900.5797 L85.2909,900.5425 L88.8145,900.5927 L92.3047,900.1341 L95.8125,899.9432 L95.8139,899.9735 L99.9593,899.7351 L104.1111,899.6347 L108.2598,899.4678 L112.4145,899.4278 L116.5498,898.9739 L116.5602,899.272 L121.1894,899.114 L125.812,898.7638 L130.4443,898.695 L135.0771,898.6394 L139.6953,898.1658 L139.6867,897.8454 L144.6536,898.335 L149.5922,897.7694 L154.5522,898.006 L159.4902,897.4166 L164.4463,897.5042 L164.4457,897.4738 L169.5639,897.7278 L174.6673,897.2706 L179.7795,897.2331 L184.8924,897.2308 L190,896.9744 L190.008,897.5293 L200.0609,896.8247 L210.1274,897.0683 L220.1718,895.7777 L230.2492,896.7754 L240.3047,896.2518 L240.3067,896.4954 L249.0829,896.3751 L257.8601,896.3758 L266.6326,895.8144 L275.4085,895.665 L284.1875,895.8807 L284.1865,895.6045 L292.7499,895.8233 L301.3122,895.7308 L309.8761,896.0898 L318.4372,895.678 L327,895.7244 L327,895.7244 L326.9994,895.572 L335.5629,895.8571 L344.1239,895.4906 L352.6867,895.5875 L361.2511,896.1378 L369.8125,895.8807 L369.8141,896.0743 L378.5918,896.2813 L387.3644,895.8861 L396.1434,896.2452 L404.921,896.4399 L413.6953,896.2518 L413.6863,895.622 L423.7544,896.2685 L433.8196,896.7088 L443.8906,897.5543 L453.939,896.8243 L464,896.9744 L464.0043,897.18 L469.1056,896.8343 L474.2152,896.8854 L479.3369,897.5161 L484.4364,897.0797 L489.5537,897.5042 L489.5598,897.7303 L494.5064,897.7283 L499.4509,897.6498 L504.4001,897.744 L509.3599,898.2373 L514.3047,898.1658 L514.3,898.0329 L518.943,898.5903 L523.5543,898.2436 L528.2016,898.9249 L532.8286,899.0274 L537.4502,898.9739 L537.4553,899.0827 L541.5986,899.1887 L545.7602,899.6842 L549.9053,899.8279 L554.0436,899.8245 L558.1875,899.9432 L558.1953,900.0621 L561.689,900.1144 L565.2188,900.7189 L568.7078,900.6989 L572.2136,900.9357 L575.7139,901.0882 L575.6873,900.8191 L578.3987,901.1761 L581.1421,901.8571 L583.8403,902.0795 L586.5221,902.1376 L589.2266,902.4236 L589.1879,902.2858 L591.555,902.9901 L593.8536,903.4503 L596.3404,904.5816 L598.734,905.3808 L601,905.7244 L602.4037,905.7244 L602.8532,915.5262 L600.6354,925.328 L601.2326,935.1297 L599.9664,944.9315 L601.7574,954.7332 L601.658,964.535 L602.473,974.3368 L600.3876,984.1385 L600.6416,993.9403 L602.1826,1003.7421 L602.5129,1013.5438 L599.6332,1023.3456 L600.483,1033.1474 L601.398,1042.9491 L599.3711,1052.7509 L601.9424,1062.5527 L601,1072.3544 L601,1072.3544 L601.031,1072.4648 L598.6332,1072.9715 L596.3077,1073.7356 L594.0234,1074.6467 L591.5437,1074.8612 L589.2266,1075.6552 L589.2403,1075.7945 L586.5365,1076.0486 L583.8265,1076.2406 L581.1251,1076.5188 L578.4214,1076.7738 L575.7139,1076.9907 L575.6958,1076.7138 L572.197,1077.0419 L568.6899,1077.244 L565.1999,1077.706 L561.6953,1077.9458 L558.1875,1078.1357 L558.1909,1078.2075 L554.034,1078.2003 L549.8912,1078.4934 L545.7426,1078.6638 L541.6096,1079.1672 L537.4502,1079.1049 L537.4568,1079.2944 L532.8136,1079.0509 L528.1909,1079.3958 L523.5539,1079.3334 L518.9383,1079.8795 L514.3047,1079.913 L514.3119,1080.1834 L509.361,1080.2873 L504.3991,1079.9842 L499.4596,1080.5161 L494.4951,1080.1123 L489.5537,1080.5746 L489.5556,1080.6636 L484.4402,1080.5476 L479.3331,1080.8295 L474.2237,1080.9993 L469.1151,1081.2082 L464,1081.1044 L463.9862,1080.1446 L453.9482,1081.8829 L443.8815,1081.631 L433.824,1082.0117 L423.7706,1082.6795 L413.6953,1081.8271 L413.6953,1081.8295 L404.9194,1081.9792 L396.143,1082.0704 L387.3664,1082.1374 L378.5891,1082.1236 L369.8125,1082.1982 L369.8137,1082.514 L361.249,1081.9584 L352.6884,1082.5119 L344.124,1082.0146 L335.5616,1082.083 L327,1082.3544 L327,1082.3544 L327.0001,1082.3722 L318.4375,1082.3357 L309.8742,1082.0729 L301.3132,1082.4445 L292.7502,1082.2778 L284.1875,1082.1982 L284.1902,1082.5211 L275.4134,1082.4204 L266.6327,1081.8505 L257.8563,1081.7987 L249.0808,1081.8439 L240.3047,1081.8271 L240.3115,1082.3011 L230.2515,1082.2198 L220.1886,1081.9395 L210.1153,1080.9376 L200.0731,1082.0973 L190,1081.1044 L190.0058,1081.386 L184.8888,1080.9775 L179.7763,1080.7863 L174.6641,1080.6082 L169.5551,1080.5852 L164.4463,1080.5746 L164.4479,1080.6357 L159.4953,1080.4119 L154.5409,1080.1244 L149.6015,1080.3942 L144.6401,1079.8414 L139.6953,1079.913 L139.7031,1080.1362 L135.0728,1079.9412 L130.4429,1079.7549 L125.8187,1079.7357 L121.1751,1079.1573 L116.5498,1079.1049 L116.5436,1078.9714 L112.4131,1079.1414 L108.2425,1078.4522 L104.1026,1078.4195 L99.9624,1078.3808 L95.8125,1078.1357 L95.8145,1078.1661 L92.2968,1077.7477 L88.8007,1077.6586 L85.3183,1077.7789 L81.8102,1077.5073 L78.2861,1076.9907 L78.2601,1076.7269 L75.587,1076.7583 L72.8586,1076.2292 L70.1774,1076.1777 L67.4888,1076.0519 L64.7734,1075.6552 L64.8238,1075.8349 L62.339,1074.7106 L60.1121,1074.5063 L57.7104,1073.6783 L55.2881,1072.7769 L53,1072.3544 L51.7439,1072.3544 L53.8709,1062.5527 L53.6663,1052.7509 L52.9561,1042.9491 L51.2077,1033.1474 L54.755,1023.3456 L52.1684,1013.5438 L51.5918,1003.7421 L52.8205,993.9403 L54.5726,984.1385 L54.6411,974.3368 L53.0937,964.535 L52.5969,954.7332 L53.4528,944.9315 L53.4966,935.1297 L51.6459,925.328 L54.1039,915.5262 L53,905.7244 " fill="#00FF7F" style="stroke:#181818;stroke-width:4.0;"/><path d="M53,905.7244 L53,905.7244 L53.0252,905.8144 L55.305,906.2073 L57.7326,907.1275 L60.112,907.8759 L62.3332,908.0598 L64.7734,909.0252 L64.77,908.9908 L67.4573,909.1037 L70.1618,909.3898 L72.8781,909.7963 L75.5534,909.7878 L78.2861,910.3607 L78.3022,910.6062 L81.7731,910.3101 L85.2909,910.731 L88.8145,911.2392 L92.3047,911.2386 L95.8125,911.5057 L95.8139,911.536 L99.9593,911.6853 L104.1111,911.9726 L108.2598,912.1934 L112.4145,912.5411 L116.5498,912.4749 L116.5602,912.773 L121.1894,912.9382 L125.812,912.9113 L130.4443,913.1657 L135.0771,913.4333 L139.6953,913.283 L139.6867,912.9626 L144.6536,913.7168 L149.5922,913.4159 L154.5522,913.9172 L159.4902,913.5924 L164.4463,913.9446 L164.4457,913.9142 L169.5639,914.3801 L174.6673,914.1349 L179.7795,914.3093 L184.8924,914.5189 L190,914.4744 L190.008,915.0293 L200.0609,914.6137 L210.1274,915.1464 L220.1718,914.1449 L230.2492,915.4317 L240.3047,915.1971 L240.3067,915.4407 L249.0829,915.4689 L257.8601,915.618 L266.6326,915.205 L275.4085,915.2041 L284.1875,915.5682 L284.1865,915.292 L292.7499,915.5733 L301.3122,915.5433 L309.8761,915.9648 L318.4372,915.6155 L327,915.7244 L327,915.7244 L326.9994,915.572 L335.5629,915.7946 L344.1239,915.3656 L352.6867,915.4 L361.2511,915.8878 L369.8125,915.5682 L369.8141,915.7618 L378.5918,915.8204 L387.3644,915.2767 L396.1434,915.4874 L404.921,915.5337 L413.6953,915.1971 L413.6863,914.5673 L423.7544,914.9247 L433.8196,915.076 L443.8906,915.6324 L453.939,914.6134 L464,914.4744 L464.0043,914.68 L469.1056,914.1224 L474.2152,913.9616 L479.3369,914.3803 L484.4364,913.732 L489.5537,913.9446 L489.5598,914.1708 L494.5064,913.9041 L499.4509,913.561 L504.4001,913.3905 L509.3599,913.6192 L514.3047,913.283 L514.3,913.1501 L518.943,913.3843 L523.5543,912.7143 L528.2016,913.0724 L532.8286,912.8516 L537.4502,912.4749 L537.4553,912.5837 L541.5986,912.302 L545.7602,912.4098 L549.9053,912.1658 L554.0436,911.7747 L558.1875,911.5057 L558.1953,911.6246 L561.689,911.2189 L565.2188,911.3654 L568.7078,910.8873 L572.2136,910.6662 L575.7139,910.3607 L575.6873,910.0916 L578.3987,909.9143 L581.1421,910.0612 L583.8403,909.7495 L586.5221,909.2733 L589.2266,909.0252 L589.1879,908.8873 L591.555,908.2714 L593.8536,907.4112 L596.3404,907.2222 L598.734,906.7011 L601,905.7244 " fill="none" style="stroke:#181818;stroke-width:4.0;"/><text fill="#000000" font-family="Chalkduster" font-size="24" font-style="italic" lengthAdjust="spacing" textLength="169" x="242.5" y="941.5653">&#171;repository&#187;</text><text fill="#000000" font-family="Chalkduster" font-size="24" font-weight="bold" lengthAdjust="spacing" textLength="78" x="288" y="972.1951">Trove</text></g><!--cluster z--><g id="cluster_z"><path d="M196,144.2044 L196,144.2044 L196.0192,144.2958 L199.1118,143.364 L202.3168,142.9682 L205.4853,142.3978 L208.5334,141.2535 L211.748,140.9036 L211.7455,140.8692 L215.349,140.4475 L218.9653,140.1995 L222.5905,140.0722 L226.185,139.5288 L229.8225,139.5682 L229.8345,139.814 L234.4975,139.0594 L239.1955,139.0224 L243.8977,139.0729 L248.5751,138.6141 L253.2656,138.4232 L253.2667,138.4535 L258.8127,138.2151 L264.3636,138.1148 L269.9122,137.9478 L275.4651,137.9079 L281.0037,137.4539 L281.0114,137.7521 L287.2034,137.5941 L293.3903,137.2438 L299.5846,137.175 L305.7792,137.1194 L311.9629,136.6458 L311.9565,136.3254 L318.5903,136.815 L325.2029,136.2494 L331.8316,136.4861 L338.4438,135.8966 L345.0696,135.9842 L345.0691,135.9538 L351.9108,136.2078 L358.7414,135.7506 L365.5786,135.7131 L372.4162,135.7109 L379.25,135.4544 L379.256,136.0094 L388.8624,135.346 L398.479,135.6309 L408.0791,134.3815 L417.7038,135.4206 L427.3201,135.6691 L436.931,135.4277 L446.5371,134.7318 L446.5423,135.5491 L456.3159,134.0258 L466.0974,133.7385 L475.8805,133.7177 L485.6681,134.4059 L495.4498,134.1605 L505.2344,134.3607 L505.2369,135.2692 L514.778,134.1017 L524.3217,133.8512 L533.868,134.5869 L543.409,133.3674 L552.9538,133.5383 L562.5,134.2044 L562.5,134.2044 L562.5024,135.0697 L572.0459,134.8114 L581.5912,135.2358 L591.1316,133.8535 L600.6782,134.7342 L610.2235,135.1219 L619.7656,134.3607 L619.7616,133.7308 L629.5477,134.2947 L639.3324,134.6523 L649.1198,135.4152 L658.8971,134.6025 L668.6839,135.2867 L678.4629,134.7318 L678.455,133.9934 L688.0656,133.932 L697.695,135.6097 L707.29,134.0856 L716.92,135.8233 L726.5281,135.5234 L736.1337,134.994 L745.75,135.4544 L745.7476,135.2972 L752.5892,135.7642 L759.4201,135.5333 L766.2623,136.0353 L773.0905,135.6326 L779.9304,135.9842 L779.9359,136.2586 L786.5561,136.3317 L793.1753,136.3577 L799.7949,136.4022 L806.4222,136.8364 L813.0371,136.6458 L813.0442,136.9184 L819.2309,136.8826 L825.4239,137.0882 L831.6111,137.0728 L837.8128,137.6106 L843.9963,137.4539 L843.9987,137.5227 L849.5466,137.7244 L855.0821,137.5714 L860.6329,137.8555 L866.195,138.4651 L871.7344,138.4232 L871.7437,138.6139 L876.4221,138.6331 L881.1046,138.7382 L885.7955,139.013 L890.474,139.0346 L895.1775,139.5682 L895.1911,139.752 L898.8166,140.1631 L902.4245,140.3357 L906.0449,140.6775 L909.6326,140.5759 L913.252,140.9036 L913.2599,140.9416 L916.3662,141.3952 L919.5771,142.3475 L922.7233,142.9914 L925.9008,143.7846 L929,144.2044 L928.3876,144.2044 L928.6416,154.3096 L930.1826,164.4148 L930.5129,174.52 L927.6332,184.6252 L928.483,194.7304 L929.398,204.8356 L927.3711,214.9408 L929.9424,225.046 L929.688,235.1512 L928.7313,245.2564 L929.3793,255.3616 L930.9431,265.4668 L928.1657,275.572 L929.84,285.6772 L929.7617,295.7824 L929.3087,305.8876 L929.3758,315.9928 L929.3026,326.098 L927.3356,336.2032 L927.9312,346.3084 L927.7692,356.4136 L929.1702,366.5188 L929.235,376.624 L929.4313,386.7292 L929,396.8344 L929,396.8344 L928.9735,396.7079 L925.8442,397.4652 L922.6898,398.1024 L919.6038,399.0658 L916.4405,399.6606 L913.252,400.1352 L913.2361,399.92 L909.6347,400.37 L906.0033,400.4135 L902.4167,401.0643 L898.8123,401.4733 L895.1775,401.4707 L895.1893,401.7124 L890.4794,401.5063 L885.8103,402.1346 L881.0955,401.8279 L876.4273,402.4755 L871.7344,402.6157 L871.7297,402.4827 L866.1883,402.8525 L860.6429,403.1101 L855.0989,403.4069 L849.5328,403.0713 L843.9963,403.5849 L844.0019,403.7962 L837.8066,403.8257 L831.6168,404.066 L825.4295,404.402 L819.229,404.2338 L813.0371,404.393 L813.0387,404.4709 L806.4177,404.6202 L799.7962,404.7453 L793.1731,404.7896 L786.5581,405.2381 L779.9304,405.0546 L779.9262,404.7837 L773.0982,405.4118 L766.254,404.9893 L759.4184,405.1324 L752.5864,405.4962 L745.75,405.5844 L745.7504,405.6221 L736.1305,405.0306 L726.531,406.3425 L716.9142,406.0393 L707.3106,406.9662 L697.6973,406.99 L688.0689,405.6062 L678.4629,406.3071 L678.4595,405.7765 L668.6789,406.1967 L658.9001,406.9048 L649.1177,407.0299 L639.3339,406.956 L629.5456,406.1604 L619.7656,406.6782 L619.7679,407.5266 L610.2237,407.5493 L600.6769,406.6672 L591.1319,406.4376 L581.5871,406.2472 L572.0435,406.5223 L562.5,406.8344 L562.5,406.8344 L562.5005,407.0176 L552.9555,406.7172 L543.4099,406.2253 L533.869,407.4061 L524.3212,406.1183 L514.7805,407.3741 L505.2344,406.6782 L505.238,407.2478 L495.4546,407.1121 L485.6745,407.4778 L475.8837,406.1648 L466.1003,406.0299 L456.3244,407.0608 L446.5371,406.3071 L446.5286,405.5113 L436.9213,405.8919 L427.3139,406.2546 L417.7008,406.0889 L408.0822,405.4162 L398.4743,405.7336 L388.8731,406.6804 L379.25,405.5844 L379.2545,405.8726 L372.4098,405.2135 L365.5784,405.4074 L358.7382,405.0382 L351.9055,405.1489 L345.0696,405.0546 L345.0722,405.1848 L338.452,405.1089 L331.821,404.4946 L325.2091,404.8356 L318.5843,404.5291 L311.9629,404.393 L311.9565,404.1463 L305.7656,404.0221 L299.583,404.2149 L293.3903,404.0192 L287.1953,403.7392 L281.0037,403.5849 L280.9932,403.2864 L275.4663,403.6834 L269.9036,403.0587 L264.3526,402.7688 L258.8122,402.7796 L253.2656,402.6157 L253.2784,402.8775 L248.5903,402.6599 L243.8891,402.1733 L239.1965,401.8616 L234.5148,401.775 L229.8225,401.4707 L229.8286,401.5532 L226.191,400.9785 L222.6063,401.12 L218.9961,400.9171 L215.3559,400.3067 L211.748,400.1352 L211.7089,399.9485 L208.6599,399.7685 L205.4507,398.824 L202.2992,398.1547 L199.1769,397.6247 L196,396.8344 L194.2782,396.8344 L197.4133,386.7292 L195.9588,376.624 L197.7835,366.5188 L195.4244,356.4136 L197.0907,346.3084 L194.816,336.2032 L196.6534,326.098 L197.0114,315.9928 L195.1271,305.8876 L196.968,295.7824 L194.4762,285.6772 L194.7454,275.572 L197.8209,265.4668 L197.825,255.3616 L197.516,245.2564 L195.039,235.1512 L197.0246,225.046 L194.7412,214.9408 L196.1551,204.8356 L195.9967,194.7304 L195.3002,184.6252 L197.6424,174.52 L197.1821,164.4148 L195.1447,154.3096 L196,144.2044 " fill="#00FF7F" style="stroke:#181818;stroke-width:4.0;"/><path d="M196,144.2044 L196,144.2044 L196.0192,144.2958 L199.1118,144.6844 L202.3168,145.6088 L205.4853,146.3587 L208.5334,146.5347 L211.748,147.5052 L211.7455,147.4708 L215.349,147.5833 L218.9653,147.8694 L222.5905,148.2763 L226.185,148.2671 L229.8225,148.8407 L229.8345,149.0864 L234.4975,148.7899 L239.1955,149.2109 L243.8977,149.7194 L248.5751,149.7186 L253.2656,149.9857 L253.2667,150.016 L258.8127,150.1653 L264.3636,150.4527 L269.9122,150.6734 L275.4651,151.0212 L281.0037,150.9549 L281.0114,151.2531 L287.2034,151.4183 L293.3903,151.3913 L299.5846,151.6457 L305.7792,151.9134 L311.9629,151.763 L311.9565,151.4426 L318.5903,152.1968 L325.2029,151.8959 L331.8316,152.3972 L338.4438,152.0723 L345.0696,152.4246 L345.0691,152.3942 L351.9108,152.8602 L358.7414,152.6149 L365.5786,152.7893 L372.4162,152.9989 L379.25,152.9544 L379.256,153.5094 L388.8624,153.0525 L398.479,153.5438 L408.0791,152.501 L417.7038,153.7465 L427.3201,154.2015 L436.931,154.1665 L446.5371,153.6771 L446.5423,154.4944 L456.3159,153.0948 L466.0974,152.9312 L475.8805,153.0341 L485.6681,153.846 L495.4498,153.7243 L505.2344,154.0482 L505.2369,154.9567 L514.778,153.8413 L524.3217,153.6429 L533.868,154.4307 L543.409,153.2632 L552.9538,153.4862 L562.5,154.2044 L562.5,154.2044 L562.5024,155.0697 L572.0459,154.7593 L581.5912,155.1317 L591.1316,153.6972 L600.6782,154.5259 L610.2235,154.8614 L619.7656,154.0482 L619.7616,153.4183 L629.5477,153.8585 L639.3324,154.0924 L649.1198,154.7316 L658.8971,153.7952 L668.6839,154.3557 L678.4629,153.6771 L678.455,152.9387 L688.0656,152.6709 L697.695,154.142 L707.29,152.4115 L716.92,153.9427 L726.5281,153.4364 L736.1337,152.7005 L745.75,152.9544 L745.7476,152.7972 L752.5892,153.0523 L759.4201,152.6095 L766.2623,152.8996 L773.0905,152.285 L779.9304,152.4246 L779.9359,152.699 L786.5561,152.5075 L793.1753,152.2688 L799.7949,152.0486 L806.4222,152.2182 L813.0371,151.763 L813.0442,152.0356 L819.2309,151.6766 L825.4239,151.5589 L831.6111,151.2203 L837.8128,151.4348 L843.9963,150.9549 L843.9987,151.0237 L849.5466,150.8377 L855.0821,150.297 L860.6329,150.1934 L866.195,150.4153 L871.7344,149.9857 L871.7437,150.1764 L876.4221,149.7376 L881.1046,149.3846 L885.7955,149.2015 L890.474,148.7651 L895.1775,148.8407 L895.1911,149.0245 L898.8166,148.9014 L902.4245,148.5398 L906.0449,148.3474 L909.6326,147.7117 L913.252,147.5052 L913.2599,147.5431 L916.3662,146.6764 L919.5771,146.3084 L922.7233,145.6321 L925.9008,145.1049 L929,144.2044 " fill="none" style="stroke:#181818;stroke-width:4.0;"/><text fill="#000000" font-family="Chalkduster" font-size="24" font-style="italic" lengthAdjust="spacing" textLength="169" x="478" y="180.0453">&#171;repository&#187;</text><text fill="#000000" font-family="Chalkduster" font-size="24" font-weight="bold" lengthAdjust="spacing" textLength="105" x="510" y="210.6751">Zenodo</text><text fill="#000000" font-family="Chalkduster" font-size="24" font-weight="bold" lengthAdjust="spacing" textLength="190" x="467.5" y="241.305">(for example)</text></g><!--cluster code--><g id="cluster_code"><polygon fill="none" points="222.5,267.2044,222.5,267.4146,232.3919,266.7901,242.2838,267.3977,252.1757,267.6041,262.0676,266.491,271.9595,267.1267,281.8514,266.7779,291.7432,266.8209,301.6351,267.1363,311.527,266.5131,321.4189,267.7581,331.3108,266.5741,341.2027,267.0067,351.0946,267.6364,360.9865,267.1186,370.8784,267.2727,380.7703,267.1725,390.6622,267.3829,400.5541,267.4436,410.4459,267.7901,420.3378,267.8755,430.2297,267.8837,440.1216,267.459,450.0135,267.668,459.9054,267.9067,469.7973,266.4832,479.6892,267.8829,489.5811,266.9079,499.473,267.7382,509.3649,266.7094,519.2568,267.1359,529.1486,267.946,539.0405,267.1557,548.9324,267.3097,558.8243,267.543,568.7162,267.6207,578.6081,267.2005,588.5,267.2044,588.5366,267.2929,588.7805,267.1746,589.2434,267.5849,589.6306,267.8126,589.9709,267.9271,590.2678,267.9367,590.4566,268.0149,590.2654,268.2286,590.3598,268.5606,590.5157,268.918,590.8354,269.3434,591,269.7044,590.8035,269.7044,591.6814,279.7617,590.8253,289.819,590.6569,299.8762,591.2283,309.9335,590.3332,319.9908,590.4809,330.0481,591.649,340.1053,591.4357,350.1626,591.7345,360.2199,590.6782,370.2771,591,380.3344,591.0983,380.3751,591.0354,380.7633,590.5616,380.9813,590.5311,381.3829,590.453,381.7647,590.2678,382.1022,590.3509,382.3029,589.9137,382.2473,589.6197,382.5375,589.1365,382.371,588.7672,382.4794,588.5,382.8344,588.5,383.338,578.6081,382.1175,568.7162,383.3434,558.8243,383.0411,548.9324,382.5665,539.0405,382.4806,529.1486,383.2932,519.2568,382.5351,509.3649,383.4263,499.473,382.2817,489.5811,383.4518,479.6892,383.3187,469.7973,383.0794,459.9054,382.8816,450.0135,383.561,440.1216,383.448,430.2297,383.0037,420.3378,383.1026,410.4459,382.7042,400.5541,383.5509,390.6622,382.9893,380.7703,383.007,370.8784,382.2261,360.9865,382.4292,351.0946,383.3652,341.2027,383.2642,331.3108,382.7915,321.4189,382.5123,311.527,382.6155,301.6351,382.1482,291.7432,383.2492,281.8514,383.574,271.9595,383.3608,262.0676,383.5294,252.1757,382.6977,242.2838,382.9216,232.3919,382.4468,222.5,382.8344,222.5362,382.9219,222.1779,382.764,221.8634,382.7116,221.41,382.3244,221.0686,382.2072,220.7322,382.1022,220.8688,382.1588,220.7605,381.821,220.2815,381.3297,220.2332,381.0168,220.1924,380.707,220,380.3344,219.3892,380.3344,220.3534,370.2771,220.258,360.2199,219.8992,350.1626,220.1422,340.1053,220.7287,330.0481,219.6871,319.9908,220.315,309.9335,220.2856,299.8762,220.1158,289.819,220.1409,279.7617,220,269.7044,220.0349,269.7189,219.9542,269.2713,220.1695,268.9462,220.2972,268.5849,220.6054,268.2983,220.7322,267.9367,220.7435,267.9638,221.1064,267.84,221.4022,267.5542,221.7843,267.4765,222.1311,267.3138,222.5,267.2044" style="stroke:#181818;stroke-width:4.0;"/><text fill="#000000" font-family="Chalkduster" font-size="24" font-weight="bold" lengthAdjust="spacing" textLength="355" x="228" y="293.0453">Archived, Packaged Code</text></g><!--cluster Analytical Products--><g id="cluster_Analytical Products"><polygon fill="none" points="617.5,267.2044,617.5,267.4146,627.3276,266.7901,637.1552,267.3977,646.9828,267.6041,656.8103,266.491,666.6379,267.1267,676.4655,266.7779,686.2931,266.8209,696.1207,267.1363,705.9483,266.5131,715.7759,267.7581,725.6034,266.5741,735.431,267.0067,745.2586,267.6364,755.0862,267.1186,764.9138,267.2727,774.7414,267.1725,784.569,267.3829,794.3966,267.4436,804.2241,267.7901,814.0517,267.8755,823.8793,267.8837,833.7069,267.459,843.5345,267.668,853.3621,267.9067,863.1897,266.4832,873.0172,267.8829,882.8448,266.9079,892.6724,267.7382,902.5,267.2044,902.4369,267.052,902.8448,267.3298,903.3017,267.7257,903.5544,267.6288,903.9276,267.8226,904.2678,267.9367,904.3721,267.9799,904.5424,268.3433,904.5595,268.6433,904.7956,269.034,904.6773,269.2779,905,269.7044,905.2844,269.7044,905.5482,279.7617,905.4445,289.819,905.613,299.8762,904.5169,309.9335,904.3478,319.9908,904.3786,330.0481,904.9411,340.1053,904.8035,350.1626,905.6814,360.2199,904.8253,370.2771,905,380.3344,904.8944,380.2907,904.9239,380.7171,904.5017,380.9565,904.4008,381.3289,904.6141,381.8314,904.2678,382.1022,904.3233,382.2364,904.0079,382.4748,903.5196,382.296,903.2478,382.6398,902.9289,382.8698,902.5,382.8344,902.5,382.362,892.6724,382.7386,882.8448,382.9604,873.0172,383.4862,863.1897,382.8302,853.3621,383.297,843.5345,382.2806,833.7069,382.1572,823.8793,383.338,814.0517,382.1175,804.2241,383.3434,794.3966,383.0411,784.569,382.5665,774.7414,382.4806,764.9138,383.2932,755.0862,382.5351,745.2586,383.4263,735.431,382.2817,725.6034,383.4518,715.7759,383.3187,705.9483,383.0794,696.1207,382.8816,686.2931,383.561,676.4655,383.448,666.6379,383.0037,656.8103,383.1026,646.9828,382.7042,637.1552,383.5509,627.3276,382.9893,617.5,382.8344,617.522,382.8876,617.0688,382.5006,616.7412,382.4167,616.507,382.5585,616.1406,382.381,615.7322,382.1022,615.719,382.0967,615.4866,381.7075,615.3719,381.3672,615.0816,380.954,615.2742,380.7409,615,380.3344,615.7396,380.3344,615.5264,370.2771,615.6949,360.2199,614.8633,350.1626,615.0872,340.1053,614.6124,330.0481,615.284,319.9908,615.2468,309.9335,615.5524,299.8762,614.7703,289.819,614.8656,279.7617,615,269.7044,615.1366,269.761,615.3212,269.4232,615.1351,268.9319,615.3796,268.619,615.6318,268.3092,615.7322,267.9367,615.6543,267.7485,616.1309,267.899,616.4722,267.7232,616.78,267.4663,617.1646,267.3947,617.5,267.2044" style="stroke:#181818;stroke-width:4.0;"/><text fill="#000000" font-family="Chalkduster" font-size="24" font-weight="bold" lengthAdjust="spacing" textLength="274" x="623" y="293.0453">Analytical Products</text></g><!--entity nb--><g id="elem_nb"><polygon fill="#FFC7D8" points="498,716.1544,498,716.3646,508,715.7401,518,716.3477,528,716.5541,538,715.441,548,716.0767,558,715.7279,568,715.7709,578,716.0863,588,715.4631,598,716.7081,608,715.5241,618,715.9567,628,716.5864,638,716.0686,648,716.2227,658,716.1225,668,716.3329,678,716.3936,688,716.1544,688.0747,716.3348,688.4392,716.5075,688.7938,716.6565,689.0931,716.6722,689.4733,716.883,689.7678,716.8867,689.984,716.9762,689.6921,717.1482,690.2696,717.6803,690.1158,717.9095,690.5179,718.369,690.5,718.6544,690.005,718.6544,690.4315,728.1869,691.2416,737.7193,690.4513,747.2518,690.6053,756.7843,690.8386,766.3167,690.9162,775.8492,690.4961,785.3816,690.5,794.9141,690.5885,794.9507,690.1773,795.1946,690.2947,795.6575,690.2295,796.0447,690.0511,796.385,689.7678,796.6819,689.846,796.8706,689.3526,796.6795,688.9775,796.7739,688.6278,796.9298,688.346,797.2495,688,797.4141,688,797.2176,678,798.0955,668,797.2394,658,797.071,648,797.6424,638,796.7472,628,796.895,618,798.063,608,797.8498,598,798.1486,588,797.0923,578,797.7333,568,798.0045,558,796.9417,548,797.3182,538,797.5401,528,798.0658,518,797.4099,508,797.8767,498,797.4141,497.9294,797.2435,497.5601,797.0591,497.3571,797.2763,496.8479,796.754,496.6507,796.985,496.2322,796.6819,496.2959,796.7082,496.0033,796.2941,495.8304,795.9296,495.9342,795.6797,495.5543,795.2295,495.5,794.9141,496.0919,794.9141,494.9473,785.3816,496.1174,775.8492,495.9843,766.3167,495.745,756.7843,495.5472,747.2518,496.2266,737.7193,496.1136,728.1869,495.5,718.6544,495.5521,718.676,495.729,718.3351,495.7528,717.9307,496.16,717.6852,496.1335,717.26,496.2322,716.8867,496.2542,716.9398,496.5082,716.5529,496.8876,716.469,497.3606,716.6108,497.7013,716.4332,498,716.1544" style="stroke:#181818;stroke-width:4.0;"/><text fill="#000000" font-family="Chalkduster" font-size="24" font-style="italic" lengthAdjust="spacing" textLength="175" x="505.5" y="749.9953">&#171;workspace&#187;</text><text fill="#000000" font-family="Chalkduster" font-size="24" lengthAdjust="spacing" textLength="127" x="529.5" y="780.6251">Notebook</text></g><g id="elem_GMN4"><path d="M23,705.8344 L23.5605,705.8344 L21.8951,716.0234 L23.5154,726.2123 L24.0658,736.4013 L21.0976,746.5902 L22.7928,756.7792 L21.8627,766.9681 L21.9773,777.1571 L22.8182,787.346 L21.1563,797.535 L23,807.7239 L23,807.7239 L23,809.2003 L32.9545,806.0432 L42.9091,807.1965 L52.8636,808.8758 L62.8182,807.4952 L72.7727,807.9059 L82.7273,807.6387 L92.6818,808.2 L102.6364,808.3616 L112.5909,809.2858 L122.5455,809.5134 L132.5,809.5353 L142.4545,808.4029 L152.4091,808.9601 L162.3636,809.5965 L172.3182,805.8008 L182.2727,809.5333 L192.2273,806.9332 L202.1818,809.1474 L212.1364,806.4039 L222.0909,807.5413 L232.0455,809.7015 L242,807.594 L251.9545,808.0047 L261.9091,808.6269 L271.8636,808.8339 L281.8182,807.7135 L291.7727,808.4898 L301.7273,806.1975 L311.6818,808.4823 L321.6364,809.1858 L331.5909,808.9093 L341.5455,809.3587 L351.5,806.4357 L361.4545,805.9848 L371.4091,806.0669 L381.3636,807.5669 L391.3182,807.1998 L401.2727,809.541 L411.2273,807.2581 L421.1818,806.8091 L431.1364,808.3326 L441.0909,805.9457 L451.0455,806.3396 L461,807.7239 L461,807.7239 L462.7305,807.7239 L462.1618,798.336 L462.9586,788.9481 L460.1419,779.5602 L461.8512,770.1723 L461,760.7844 L461.0612,761.3057 L467.761,759.5674 L474.6101,759.0998 L481.4431,758.4956 L488.3076,758.1598 L495.05,756.7844 L495.0496,756.7807 L488.288,756.3928 L481.3726,754.6955 L474.5498,753.7865 L467.8622,754.029 L461,752.7844 L460.3627,752.7844 L461.4524,745.3944 L461.1837,738.0044 L460.7619,730.6144 L460.6855,723.2244 L461,715.8344 L461.2883,716.1228 L458.8119,713.6463 L457.372,712.2064 L454.6526,709.487 L453.3881,708.2225 L451,705.8344 L451,707.1259 L441.0465,706.4877 L431.093,705.9603 L421.1395,707.772 L411.186,707.4706 L401.2326,706.2858 L391.2791,706.5496 L381.3256,705.487 L371.3721,707.745 L361.4186,706.2474 L351.4651,706.2946 L341.5116,704.2122 L331.5581,704.7538 L321.6047,707.2497 L311.6512,706.9805 L301.6977,705.7199 L291.7442,704.9753 L281.7907,705.2506 L271.8372,704.0046 L261.8837,706.9404 L251.9302,707.8066 L241.9767,707.2381 L232.0233,707.6876 L222.0698,705.4698 L212.1163,706.067 L202.1628,704.8008 L192.2093,706.5919 L182.2558,706.4925 L172.3023,707.3075 L162.3488,705.222 L152.3953,705.476 L142.4419,707.017 L132.4884,707.3473 L122.5349,704.4677 L112.5814,705.3174 L102.6279,706.2325 L92.6744,704.2055 L82.7209,706.7768 L72.7674,706.5224 L62.814,705.5657 L52.8605,706.2138 L42.907,707.7776 L32.9535,705.0001 L23,705.8344 L23,705.8344 " fill="none" style="stroke:#181818;stroke-width:4.0;"/><path d="M451,705.8344 L451.1868,705.8344 L450.6317,707.8344 L451.1718,709.8344 L451.3553,711.8344 L450.3659,713.8344 L451,715.8344 L451,715.7653 L453,715.4553 L455,715.4935 L457,715.7738 L459,715.2199 L461,715.8344 L461.348,716.1824 L458.6038,713.4383 L456.8757,711.7101 L455.2715,710.1059 L452.9461,707.7805 L451,705.8344 " fill="none" style="stroke:#181818;stroke-width:4.0;"/><text fill="#000000" font-family="Chalkduster" font-size="24" lengthAdjust="spacing" textLength="417" x="29" y="734.6753">Can be run on demand in the</text><text fill="#000000" font-family="Chalkduster" font-size="24" lengthAdjust="spacing" textLength="312" x="41" y="765.3051">cloud or locally using</text><text fill="#000000" font-family="Chalkduster" font-size="24" lengthAdjust="spacing" textLength="287" x="29" y="795.935">Trove or other data.</text></g><g id="elem_GMN7"><path d="M725,736.4644 L725.1868,736.4644 L724.6317,739.7284 L725.1718,742.9924 L725.3553,746.2564 L724.3659,749.5204 L725,752.7844 L724.992,752.7158 L718.0881,753.2079 L711.2246,754.0458 L704.389,755.1242 L697.4569,755.374 L690.66,756.7844 L690.7169,757.2732 L697.4632,757.0279 L704.3757,758.2098 L711.3084,759.5658 L718.1232,759.9087 L725,760.7844 L725.0607,760.7844 L724.9716,764.0464 L725.1587,767.3084 L725.2126,770.5703 L725.5206,773.8323 L725,777.0943 L725,777.0943 L725,778.8837 L735.0851,778.9056 L745.1702,777.7733 L755.2553,778.3305 L765.3404,778.9669 L775.4255,775.1711 L785.5106,778.9036 L795.5957,776.3036 L805.6809,778.5178 L815.766,775.7742 L825.8511,776.9116 L835.9362,779.0719 L846.0213,776.9643 L856.1064,777.3751 L866.1915,777.9973 L876.2766,778.2042 L886.3617,777.0838 L896.4468,777.8602 L906.5319,775.5678 L916.617,777.8526 L926.7021,778.5561 L936.7872,778.2797 L946.8723,778.729 L956.9574,775.806 L967.0426,775.3551 L977.1277,775.4372 L987.2128,776.9372 L997.2979,776.5702 L1007.383,778.9114 L1017.4681,776.6284 L1027.5532,776.1794 L1037.6383,777.703 L1047.7234,775.316 L1057.8085,775.7099 L1067.8936,778.8248 L1077.9787,778.256 L1088.0638,779.0529 L1098.1489,776.2361 L1108.234,777.9454 L1118.3191,778.6687 L1128.4043,775.8345 L1138.4894,776.8386 L1148.5745,777.4302 L1158.6596,778.8323 L1168.7447,777.0831 L1178.8298,778.3278 L1188.9149,775.6175 L1199,777.0943 L1199,777.0943 L1198.398,777.0943 L1199.4477,770.9683 L1198.3627,764.8423 L1199.4524,758.7164 L1199.1837,752.5904 L1199,746.4644 L1198.8316,746.296 L1196.7776,744.2421 L1195.2883,742.7528 L1192.8119,740.2763 L1191.372,738.8364 L1189,736.4644 L1189,734.9904 L1178.913,738.1109 L1168.8261,737.7559 L1158.7391,737.1177 L1148.6522,736.5903 L1138.5652,738.402 L1128.4783,738.1006 L1118.3913,736.9158 L1108.3043,737.1796 L1098.2174,736.117 L1088.1304,738.375 L1078.0435,736.8774 L1067.9565,736.9246 L1057.8696,734.8422 L1047.7826,735.3838 L1037.6957,737.8797 L1027.6087,737.6105 L1017.5217,736.3499 L1007.4348,735.6053 L997.3478,735.8806 L987.2609,734.6346 L977.1739,737.5704 L967.087,738.4366 L957,737.8681 L946.913,738.3176 L936.8261,736.0998 L926.7391,736.697 L916.6522,735.4308 L906.5652,737.2219 L896.4783,737.1225 L886.3913,737.9375 L876.3043,735.852 L866.2174,736.106 L856.1304,737.647 L846.0435,737.9773 L835.9565,735.0977 L825.8696,735.9474 L815.7826,736.8625 L805.6957,734.8355 L795.6087,737.4068 L785.5217,737.1524 L775.4348,736.1957 L765.3478,736.8438 L755.2609,738.4076 L745.1739,735.6301 L735.087,737.3044 L725,736.4644 L725,736.4644 " fill="none" style="stroke:#181818;stroke-width:4.0;"/><path d="M1189,736.4644 L1189.1868,736.4644 L1188.6317,738.4644 L1189.1718,740.4644 L1189.3553,742.4644 L1188.3659,744.4644 L1189,746.4644 L1189,746.3953 L1191,746.0853 L1193,746.1235 L1195,746.4038 L1197,745.8499 L1199,746.4644 L1199.348,746.8124 L1196.6038,744.0683 L1194.8757,742.3401 L1193.2715,740.7359 L1190.9461,738.4105 L1189,736.4644 " fill="none" style="stroke:#181818;stroke-width:4.0;"/><text fill="#000000" font-family="Chalkduster" font-size="24" lengthAdjust="spacing" textLength="453" x="731" y="765.3053">May have simple forms interface</text></g><!--entity news--><g id="elem_news"><path d="M77.5,1008.7244 L77.5,1008.7244 L77.5371,1008.8102 L80.0987,1007.3992 L82.8779,1006.4908 L85.5862,1005.4187 L88.0616,1003.8084 L90.8594,1002.9432 L90.8549,1002.9089 L93.5736,1002.3997 L96.3148,1002.0632 L99.0715,1001.8467 L101.7745,1001.2166 L104.5527,1001.1658 L104.5714,1001.4112 L107.671,1000.6482 L110.825,1000.6016 L113.9856,1000.6424 L117.1077,1000.1747 L120.25,999.9744 L120.2514,1000.0047 L123.3888,999.8157 L126.5326,999.7646 L129.6732,999.647 L132.8198,999.6563 L135.9473,999.2518 L135.9553,999.5499 L138.6941,999.4793 L141.4277,999.2165 L144.1689,999.2351 L146.9104,999.2669 L149.6406,998.8807 L149.6369,998.5602 L152.316,999.151 L154.9828,998.6864 L157.659,999.0242 L160.3256,998.5357 L163,998.7244 L163,998.7244 L162.9996,998.694 L165.6757,999.0853 L168.3435,998.7653 L171.0162,998.865 L173.6893,998.9999 L176.3594,998.8807 L176.3644,999.0656 L179.098,998.9532 L181.8402,999.1567 L184.5685,998.849 L187.3175,999.3039 L190.0527,999.2518 L190.0639,999.4952 L193.2013,999.5937 L196.3442,999.813 L199.4612,999.4709 L202.5972,999.5403 L205.75,999.9744 L205.7291,999.699 L208.8875,1000.1866 L212.0223,1000.3639 L215.1913,1000.9912 L218.3019,1000.8501 L221.4473,1001.1658 L221.4276,1001.0146 L224.199,1001.6219 L226.8865,1001.5829 L229.6336,1002.0034 L232.4391,1002.8737 L235.1406,1002.9432 L235.2175,1003.1209 L237.9421,1004.399 L240.4276,1005.1244 L243.2126,1006.5421 L245.9323,1007.809 L248.5,1008.7244 L248.0801,1008.7244 L248.4148,1016.6504 L248.612,1024.5764 L249.0793,1032.5023 L248.4963,1040.4283 L248.5,1048.3543 L248.5,1048.3543 L248.5816,1048.5429 L245.7304,1049.2846 L243.0367,1050.3905 L240.5733,1052.0284 L237.686,1052.6868 L235.1406,1054.1355 L235.1697,1054.3598 L232.4138,1054.582 L229.648,1054.7284 L226.9044,1055.046 L224.2122,1055.7596 L221.4473,1055.9128 L221.4372,1055.7802 L218.3277,1056.4134 L215.1498,1056.1445 L212.0497,1056.9013 L208.9057,1057.0806 L205.75,1057.1043 L205.755,1057.213 L202.6115,1057.2698 L199.4859,1057.7159 L196.3442,1057.8103 L193.1956,1057.7575 L190.0527,1057.8269 L190.056,1057.9461 L187.3125,1057.8433 L184.584,1058.2937 L181.8386,1058.1184 L179.1001,1058.2005 L176.3594,1058.198 L176.3562,1057.9276 L173.6854,1058.0492 L171.0184,1058.4964 L168.346,1058.4827 L165.6717,1058.3039 L163,1058.3543 L163,1058.3543 L162.9983,1058.2111 L160.327,1058.2257 L157.6527,1057.9868 L154.9865,1058.4448 L152.3163,1058.5579 L149.6406,1058.198 L149.647,1058.4319 L146.9103,1058.4325 L144.1616,1057.9888 L141.4257,1058.0141 L138.6813,1057.7289 L135.9473,1057.8269 L135.9531,1057.953 L132.8129,1057.7919 L129.6796,1057.7831 L126.5242,1057.2914 L123.3867,1057.1891 L120.25,1057.1043 L120.2649,1057.3008 L117.1296,1057.1174 L113.9539,1056.4006 L110.8251,1056.3035 L107.6972,1056.2173 L104.5527,1055.9128 L104.5178,1055.6436 L101.8343,1055.7131 L99.0901,1055.3156 L96.331,1054.802 L93.6062,1054.5537 L90.8594,1054.1355 L90.988,1054.4327 L88.1323,1052.8516 L85.5712,1051.9515 L82.8942,1050.7833 L80.1923,1049.5577 L77.5,1048.3543 L77.6253,1048.3543 L77.6009,1040.4283 L76.9452,1032.5023 L77.1437,1024.5764 L77.0897,1016.6504 L77.5,1008.7244 " fill="none" style="stroke:#181818;stroke-width:4.0;"/><path d="M77.5,1008.7244 L77.5,1008.7244 L77.5371,1008.8102 L80.0987,1009.7117 L82.8779,1011.1158 L85.5862,1012.3562 L88.0616,1013.0584 L90.8594,1014.5057 L90.8549,1014.4714 L93.5736,1014.6732 L96.3148,1015.0476 L99.0715,1015.542 L101.7745,1015.6228 L104.5527,1016.283 L104.5714,1016.5284 L107.671,1016.242 L110.825,1016.6719 L113.9856,1017.1893 L117.1077,1017.1981 L120.25,1017.4744 L120.2514,1017.5047 L123.3888,1017.6048 L126.5326,1017.8427 L129.6732,1018.0142 L132.8198,1018.3126 L135.9473,1018.1971 L135.9553,1018.4952 L138.6941,1018.5731 L141.4277,1018.4586 L144.1689,1018.6257 L146.9104,1018.8059 L149.6406,1018.5682 L149.6369,1018.2477 L152.316,1018.901 L154.9828,1018.4989 L157.659,1018.8992 L160.3256,1018.4732 L163,1018.7244 L163,1018.7244 L162.9996,1018.694 L165.6757,1019.0228 L168.3435,1018.6403 L171.0162,1018.6775 L173.6893,1018.7499 L176.3594,1018.5682 L176.3644,1018.7531 L179.098,1018.4922 L181.8402,1018.5473 L184.5685,1018.0912 L187.3175,1018.3976 L190.0527,1018.1971 L190.0639,1018.4405 L193.2013,1018.2499 L196.3442,1018.1802 L199.4612,1017.549 L202.5972,1017.3294 L205.75,1017.4744 L205.7291,1017.199 L208.8875,1017.21 L212.0223,1016.9108 L215.1913,1017.0616 L218.3019,1016.4439 L221.4473,1016.283 L221.4276,1016.1318 L224.199,1016.0282 L226.8865,1015.2782 L229.6336,1014.9878 L232.4391,1015.1472 L235.1406,1014.5057 L235.2175,1014.6834 L237.9421,1013.649 L240.4276,1012.0619 L243.2126,1011.1671 L245.9323,1010.1215 L248.5,1008.7244 " fill="none" style="stroke:#181818;stroke-width:4.0;"/><text fill="#000000" font-family="Chalkduster" font-size="24" lengthAdjust="spacing" textLength="151" x="87.5" y="1046.5653">Newspapers</text></g><!--entity harv--><g id="elem_harv"><polygon fill="none" points="286.5,1003.2244,286.5,1003.4346,296.463,1002.8101,306.4259,1003.4177,316.3889,1003.6241,326.3519,1002.511,336.3148,1003.1467,346.2778,1002.7979,356.2407,1002.8409,366.2037,1003.1563,376.1667,1002.5331,386.1296,1003.7781,396.0926,1002.5941,406.0556,1003.0267,416.0185,1003.6564,425.9815,1003.1386,435.9444,1003.2927,445.9074,1003.1925,455.8704,1003.4029,465.8333,1003.4636,475.7963,1003.8101,485.7593,1003.8955,495.7222,1003.9037,505.6852,1003.479,515.6481,1003.688,525.6111,1003.9267,535.5741,1002.5032,545.537,1003.9029,555.5,1003.2244,555.4622,1003.1331,555.9216,1003.5353,556.144,1003.3649,556.5519,1003.6427,557.0088,1004.0386,557.2678,1003.9567,557.2528,1003.9504,557.4466,1004.3236,557.6649,1004.707,557.8353,1005.0704,557.8524,1005.3704,558,1005.7244,558.2872,1005.7244,557.4276,1014.8504,558.2844,1023.9764,558.5482,1033.1023,558.4445,1042.2283,558,1051.3543,558.1888,1051.4325,557.7048,1051.6462,557.5063,1051.9782,557.3693,1052.3356,557.3961,1052.761,557.2678,1053.122,557.2427,1053.0615,557.0011,1053.4783,556.5384,1053.3611,556.1633,1053.4557,555.8827,1053.7781,555.5,1053.8543,555.5,1053.1874,545.537,1053.3351,535.5741,1054.5032,525.6111,1054.2899,515.6481,1054.5887,505.6852,1053.5325,495.7222,1054.1735,485.7593,1054.4447,475.7963,1053.3818,465.8333,1053.7584,455.8704,1053.9802,445.9074,1054.506,435.9444,1053.8501,425.9815,1054.3168,416.0185,1053.3005,406.0556,1053.177,396.0926,1054.3579,386.1296,1053.1373,376.1667,1054.3632,366.2037,1054.0609,356.2407,1053.5863,346.2778,1053.5005,336.3148,1054.313,326.3519,1053.5549,316.3889,1054.4461,306.4259,1053.3015,296.463,1054.4717,286.5,1053.8543,286.5618,1054.0034,286.1777,1053.7832,285.7989,1053.5759,285.532,1053.6387,285.1641,1053.4574,284.7322,1053.122,284.7844,1053.1436,284.6684,1052.8027,284.3992,1052.3983,284.5135,1052.1528,284.1941,1051.7276,284,1051.3543,284.1726,1051.3543,283.3916,1042.2283,283.5948,1033.1023,284.5307,1023.9764,284.4298,1014.8504,284,1005.7244,283.9868,1005.7189,284.0472,1005.3298,284.2255,1004.9894,284.228,1004.5762,284.7135,1004.3631,284.7322,1003.9567,284.8266,1004.1844,285.1529,1003.9723,285.528,1003.8778,285.7755,1003.4752,286.1576,1003.3977,286.5,1003.2244" style="stroke:#181818;stroke-width:4.0;"/><text fill="#000000" font-family="Chalkduster" font-size="24" lengthAdjust="spacing" textLength="254" x="294" y="1037.0653">Harvested Records</text></g><!--entity code1--><g id="elem_code1"><polygon fill="none" points="407,316.2044,407,316.4146,416.6,315.7901,426.2,316.3977,435.8,316.6041,445.4,315.491,455,316.1267,464.6,315.7779,474.2,315.8209,483.8,316.1363,493.4,315.5131,503,316.2044,503.0706,316.3749,503.2732,316.1568,503.6819,316.4364,504.1158,316.7768,504.4033,316.7638,504.7678,316.9367,504.7888,316.9454,504.9044,317.2861,505.1156,317.6665,505.2808,318.0278,505.5339,318.4256,505.5,318.7044,506.1711,318.7044,506.1793,327.8304,505.7546,336.9564,505.9636,346.0823,506.2022,355.2083,505.5,364.3343,505.2779,364.2423,505.5625,364.7744,505.1158,365.0035,505.2251,365.463,504.7618,365.6853,504.7678,366.102,504.759,366.0809,504.5088,366.4769,504.0544,366.3799,503.7205,366.5738,503.3967,366.7921,503,366.8343,503,367.2505,493.4,366.8303,483.8,367.1215,474.2,366.2618,464.6,367.1186,455,367.3825,445.4,367.2788,435.8,367.4473,426.2,366.3512,416.6,366.1821,407,366.8343,406.9207,366.6429,406.6389,366.6697,406.2678,366.4808,406.0263,366.6048,405.5635,366.1947,405.2322,366.102,405.1266,366.0583,405.1561,365.7776,404.734,365.3099,404.633,364.9751,404.8463,364.7706,404.5,364.3343,404.9357,364.3343,405.2345,355.2083,404.1782,346.0823,404.8192,336.9564,405.0904,327.8304,404.5,318.7044,404.3545,318.6442,404.6169,318.3386,404.8317,318.0134,405.1401,317.7269,405.0845,317.2897,405.2322,316.9367,405.2912,317.0791,405.5151,316.6197,405.8529,316.4352,406.3571,316.6524,406.555,316.1301,407,316.2044" style="stroke:#181818;stroke-width:4.0;"/><text fill="#000000" font-family="Chalkduster" font-size="24" lengthAdjust="spacing" textLength="81" x="414.5" y="350.0453">code1</text></g><!--entity prod1--><g id="elem_prod1"><polygon fill="none" points="684,316.2044,684,316.4146,694.4444,315.7901,704.8889,316.3977,715.3333,316.6041,725.7778,315.491,736.2222,316.1267,746.6667,315.7779,757.1111,315.8209,767.5556,316.1363,778,316.2044,777.9118,315.9915,778.4242,316.5214,778.6267,316.3032,779.0354,316.5829,779.4693,316.9232,779.7678,316.9367,779.7414,316.9257,779.9352,317.2989,780.0508,317.6397,780.2621,318.0201,780.4272,318.3814,780.5,318.7044,781.0857,318.7044,781.1711,327.8304,781.1793,336.9564,780.7546,346.0823,780.9636,355.2083,780.5,364.3343,780.7163,364.4238,780.1315,364.5958,780.4161,365.1279,779.9693,365.3571,780.0786,365.8166,779.7678,366.102,779.7046,365.9496,779.4055,366.2274,779.1553,366.6233,778.7009,366.5264,778.367,366.7202,778,366.8343,778,367.1729,767.5556,367.2505,757.1111,366.8303,746.6667,367.1215,736.2222,366.2618,725.7778,367.1186,715.3333,367.3825,704.8889,367.2788,694.4444,367.4473,684,366.8343,683.9384,366.6855,683.5633,366.487,683.2136,366.35,682.9318,366.3768,682.5607,366.1879,682.2322,366.102,682.4421,366.1889,682.032,365.7262,681.8337,365.3512,681.8632,365.0705,681.4411,364.6027,681.5,364.3343,680.9809,364.3343,682.149,355.2083,681.9357,346.0823,682.2345,336.9564,681.1782,327.8304,681.5,318.7044,681.5983,318.7451,681.8283,318.4262,681.6474,317.9371,681.9098,317.6315,682.1246,317.3063,682.2322,316.9367,682.3154,317.1374,682.5853,316.7889,682.9983,316.7862,683.2223,316.3268,683.5601,316.1423,684,316.2044" style="stroke:#181818;stroke-width:4.0;"/><text fill="#000000" font-family="Chalkduster" font-size="24" lengthAdjust="spacing" textLength="79" x="691.5" y="350.0453">prod1</text></g><!--reverse link nb to Trove--><g id="link_nb_Trove"><path d="M593,803.8744 L593.2802,803.8744 L592.4476,813.9434 L593.2577,824.0123 L593.5329,834.0813 L592.0488,844.1503 L592.8964,854.2192 L593,864.2882 L592.8104,864.2882 L592.8296,868.02 L592.9697,871.7519 L592.6927,875.4837 L593.2461,879.2155 L593,882.9474 L592.7199,882.9474 L592.9121,884.83 L593.192,886.7127 L592.9619,888.5953 L593.0303,890.478 L593,892.3606 L592.9858,892.3606 L593.0793,892.8317 L593.1063,893.3027 L593.2603,893.7737 L593.2982,894.2447 L593,894.7158 " fill="none" style="stroke:#181818;stroke-width:4.0;"/><polygon fill="#181818" points="593,797.8744,593.064,797.9029,592.0738,799.6183,591.4589,801.5006,590.7217,803.3285,589.5827,804.9778,589,806.8744,588.9817,806.8561,589.6995,805.9739,590.5096,805.184,591.3839,804.4584,592.037,803.5115,593,802.8744,593.1305,803.0049,593.6514,803.5259,594.5534,804.4278,595.5018,805.3762,596.1798,806.0542,597,806.8744,597.0208,806.8837,596.1903,805.0701,595.4544,803.2986,594.6728,801.5068,593.9784,799.7537,593,797.8744" style="stroke:#181818;stroke-width:4.0;"/><text fill="#000000" font-family="Chalkduster" font-size="24" lengthAdjust="spacing" textLength="150" x="594" y="864.5653">Fetch data</text></g><!--reverse link prod1 to nb--><g id="link_prod1_nb"><path d="M727.7007,373.0035 L727.7934,373.015 L727.1184,376.204 L726.9868,379.4604 L726.6783,382.6948 L725.7877,385.8571 L725.7028,389.1192 L725.6686,389.1145 L724.9961,392.8422 L724.4962,396.5938 L724.1161,400.3619 L723.3228,404.0729 L723.1083,407.864 L723.3514,407.9018 L722.1825,411.9968 L721.7234,416.2021 L721.351,420.4209 L720.4746,424.5613 L719.8633,428.743 L719.8932,428.7482 L719.0595,433.2442 L718.3618,437.7641 L717.5985,442.2724 L716.9603,446.8027 L715.9141,451.2615 L716.207,451.3178 L715.7595,453.6624 L715.1231,455.9706 L714.7632,458.3321 L714.4162,460.696 L713.6586,462.9809 L713.3447,462.9165 L713.4637,465.4303 L712.5489,467.7319 L712.42,470.1949 L711.4818,472.4917 L711.207,474.9246 L711.1772,474.9181 L710.998,477.4165 L710.124,479.7625 L709.6599,482.1984 L709.2303,484.6419 L708.5524,487.0309 L708.7325,487.0731 L707.9778,489.4718 L707.5309,491.9428 L706.5861,494.2969 L706.384,496.8252 L705.6881,499.2377 L705.9244,499.2972 L705.2636,501.735 L704.72,504.2024 L703.6315,506.5327 L702.9425,508.9635 L702.6074,511.4833 L702.3408,511.4113 L701.9214,513.921 L701.2016,516.3496 L700.9175,518.8959 L699.8895,521.2411 L699.3037,523.7059 L699.1573,523.6633 L698.6944,526.1618 L697.6057,528.4781 L696.962,530.924 L696.7538,533.4966 L695.7701,535.8435 L695.9548,535.9016 L695.3275,538.3396 L694.1256,540.597 L693.6434,543.0806 L693.0043,545.515 L692,547.8344 L691.8012,547.767 L691.1805,550.1191 L690.4948,552.449 L689.937,554.8224 L688.8818,557.0271 L688.1044,559.326 L688.2977,559.3959 L687.036,561.5562 L686.1475,563.8515 L685.8042,566.344 L684.4571,568.4735 L683.9198,570.8958 L684.1311,570.9766 L683.1183,573.2493 L682.034,575.4946 L681.1111,577.8017 L680.5611,580.2513 L679.4833,582.4992 L679.3599,582.4496 L678.7972,584.9156 L677.3947,587.0445 L676.9471,589.5566 L675.9619,591.853 L674.8319,594.0913 L674.9323,594.1333 L673.8854,596.4066 L673.198,598.8304 L672.1858,601.1183 L671.0378,603.3492 L670.0025,605.6274 L670.1119,605.6749 L668.9554,607.8914 L668.3065,610.3284 L667.0835,612.516 L666.0967,614.8062 L665.0323,617.0627 L664.7864,616.9505 L662.8255,621.4658 L661.161,626.1163 L659.0772,630.5755 L656.8431,634.9662 L654.8175,639.4519 L654.6885,639.3898 L652.6631,643.6995 L650.4092,647.8991 L648.7832,652.4013 L646.8465,656.7537 L644.4836,660.9008 L644.6925,661.0061 L642.7281,665.0699 L640.3666,668.9337 L638.4242,673.0086 L636.2044,676.9437 L634.3269,681.0513 L634.4387,681.1099 L632.4874,684.801 L630.6711,688.5627 L628.4265,692.1003 L626.5273,695.8187 L624.6436,699.5452 L624.817,699.639 L623.0827,702.961 L620.8778,706.0285 L619.2196,709.3917 L617.5711,712.7601 L615.73,716.0244 " fill="none" style="stroke:#181818;stroke-width:4.0;"/><polygon fill="#181818" points="728.4,367.0444,728.4603,367.0801,727.2769,368.6685,726.4468,370.4663,725.5016,372.1958,724.1781,373.7012,723.3783,375.5169,723.3623,375.4966,724.178,374.704,725.0747,374.014,726.0276,373.3951,726.7866,372.5308,727.8173,372.0103,727.9621,372.1247,728.3537,372.7679,729.1682,373.7451,730.0342,374.763,730.6001,375.5438,731.3238,376.4493,731.3455,376.456,730.7289,374.5651,730.2111,372.705,729.6456,370.83,729.1712,368.9834,728.4,367.0444" style="stroke:#181818;stroke-width:4.0;"/><text fill="#000000" font-family="Chalkduster" font-size="24" lengthAdjust="spacing" textLength="234" x="721.5" y="509.6753">Deposit RO-Crate</text><text fill="#000000" font-family="Chalkduster" font-size="24" lengthAdjust="spacing" textLength="259" x="709" y="540.3051">analytical product</text></g><!--reverse link code1 to nb--><g id="link_code1_nb"><path d="M447.7216,373.121 L447.8132,373.1391 L446.8979,376.3297 L446.5198,379.6267 L445.9668,382.8891 L444.8385,386.0374 L444.5065,389.3436 L444.4724,389.3381 L443.7066,393.0835 L443.1127,396.8569 L442.6382,400.6496 L441.7521,404.3755 L441.4426,408.1951 L441.6865,408.2273 L440.8941,410.2087 L440.814,412.2842 L440.8207,414.3712 L440.3218,416.3914 L440.0889,418.4467 L440.119,418.45 L439.8407,420.5885 L439.6997,422.742 L439.4924,424.8882 L439.4115,427.0483 L438.9187,429.1634 L439.2159,429.1885 L439.0319,431.4124 L438.6562,433.6201 L438.5612,435.8515 L438.4792,438.084 L437.9806,440.2813 L437.6606,440.263 L438.1502,442.5896 L437.5861,444.8558 L437.8231,447.168 L437.2351,449.4328 L437.3233,451.7364 L437.2929,451.7356 L437.5872,454.0913 L437.1704,456.4271 L437.1733,458.7747 L437.2113,461.1233 L436.9953,463.4647 L437.1803,463.4655 L437.0035,465.8522 L437.1429,468.2402 L436.7708,470.6261 L437.1615,473.0152 L437.0451,475.4021 L437.2886,475.4117 L437.3378,477.8264 L437.5079,480.2459 L437.1164,482.6432 L437.1365,485.0568 L437.5214,487.4847 L437.2461,487.4632 L437.6856,489.9154 L437.8149,492.3434 L438.3941,494.8065 L438.2051,497.2096 L438.4728,499.6484 L438.3214,499.6301 L438.8685,502.0968 L438.7685,504.4851 L439.1287,506.9292 L439.939,509.4278 L439.9477,511.8292 L440.1386,511.8615 L440.679,514.3103 L440.6255,516.659 L441.3159,519.1332 L441.8442,521.5801 L441.9948,523.9632 L441.7899,523.9177 L442.4868,526.3586 L443.1167,528.7846 L443.8784,531.2398 L444.1273,533.5812 L444.6627,535.9863 L444.8606,536.042 L445.0933,538.2892 L445.7079,540.6439 L446.8805,543.1558 L447.0258,545.3784 L448,547.8344 L448.214,547.9076 L448.927,550.3211 L449.5675,552.7097 L450.3715,555.1543 L451.5533,557.7281 L452.2005,560.119 L452.0768,560.0701 L453.4083,562.654 L453.8983,564.9054 L455.3451,567.5348 L456.2532,569.9514 L457.0161,572.3107 L457.1156,572.355 L458.1088,574.7327 L459.4583,577.269 L460.4859,579.6621 L461.379,581.9953 L462.3838,584.3782 L462.4908,584.4308 L463.5031,586.7351 L465.0121,589.2836 L465.9595,591.5559 L467.1378,593.9418 L468.2403,596.2904 L468.002,596.1627 L469.338,598.5504 L470.9611,601.0919 L472.178,603.4158 L473.2493,605.6617 L474.5226,608.0158 L474.3986,607.9442 L475.7673,610.2686 L476.9164,612.4663 L478.6691,615.0125 L480.1231,617.3862 L481.1675,619.5233 L481.3666,619.6461 L482.8192,621.9371 L483.8935,623.9947 L485.3671,626.2986 L486.5763,628.4395 L488.1118,630.7816 L488.2175,630.8507 L489.6397,633.0372 L491.1895,635.3071 L492.3348,637.3124 L493.8064,639.5312 L495.2925,641.7594 L495.4548,641.8713 L496.9709,644.0358 L498.0465,645.8966 L499.6339,648.1102 L501.2302,650.33 L502.6464,652.4255 L502.4264,652.2665 L504.2665,654.5822 L505.7249,656.622 L507.0885,658.5932 L508.6688,660.7211 L510.1104,662.7487 L510.3688,662.9438 L511.5016,664.6547 L513.2264,666.8126 L514.7182,668.7945 L516.1601,670.7388 L517.6212,672.6976 L517.6705,672.7363 L519.1598,674.6374 L520.401,676.3436 L521.978,678.3136 L523.4557,680.2056 L525.1159,682.241 L525.1379,682.2589 L526.6294,684.087 L528.1378,685.929 L529.4649,687.6233 L531.025,689.5074 L532.5313,691.3476 L532.4904,691.3132 L534.182,693.2405 L535.5855,694.9252 L536.7299,696.3918 L538.3248,698.2377 L539.8042,699.9863 L539.6105,699.8181 L541.3144,701.6982 L542.8353,703.4193 L544.2273,705.0285 L545.3118,706.3708 L546.8715,708.1256 L547.0252,708.263 L547.985,709.4274 L549.6572,711.2284 L550.8514,712.6023 L552.3423,714.2413 L553.67,715.7344 " fill="none" style="stroke:#181818;stroke-width:4.0;"/><polygon fill="#181818" points="448.98,367.2544,449.0366,367.2957,447.7086,368.7653,446.7126,370.4767,445.6085,372.1094,444.1489,373.4831,443.1814,375.2153,443.1673,375.1936,444.0542,374.4815,445.0119,373.8791,446.019,373.353,446.8562,372.5641,447.9313,372.1432,448.0863,372.2434,448.3693,372.9791,449.1048,374.0074,449.8955,375.0714,450.365,375.9277,451.0034,376.8932,451.0257,376.8979,450.5883,374.9632,450.2523,373.0499,449.8674,371.1263,449.5758,369.2223,448.98,367.2544" style="stroke:#181818;stroke-width:4.0;"/><text fill="#000000" font-family="Chalkduster" font-size="24" lengthAdjust="spacing" textLength="234" x="449" y="509.6753">Deposit RO-Crate</text><text fill="#000000" font-family="Chalkduster" font-size="24" lengthAdjust="spacing" textLength="211" x="460.5" y="540.3051">packaged code</text></g><!--SRC=[RL71Yjim4BthAwO-TQ5EsMjO0ej3sqEx3KjxAO4oaIQsYAmnafpKBVdtZYosoNRNfx7clSTxRzvOhzrew6UFVeB5UuC9QuUxEgR9qQ8tAjdaQ0cR3YF1xHBkFRf9HlG60YMq7Z9fwzys70YQzMVuBcijy1irVu5qGjywWkfRu2F1Ml3mSRI6AhYxQsL0hscr0eoGJ0j_5CXtHNlWH3lcGvKHVYUa4uT3732pbFAo1aVx1BoNzH8QzB0Z2AC75dlKPxDYD7MqzQ0TZmOuW6EDpaqmHklRhI_cv9q55-PKYw8TRDlz4_-24tGeo6ZxGTpjEVHHr1E5lHXIwfn3PvUruPEleUWkuGCbtSsofHULnrskjVf1dWrBXo86z0kpyCsSzhU43JHmj8d391tbTgwgkG-wiqSoxs23-e0j6MWu5ojSBSEBClFZhOBpSvLyr6Ib3jW4DgDEiNh176GpCy_FpS_vgbTyplmBxe5EShA1GYntbDydqFd_Yt_2SAIO9CqZQGwcK3fvlL2AZxdgkXw7kbuLYrBrkZY1nwzr4p39rV6IS2W9htbpAQ_oXgTMCqIflm00]--></g></svg>