<?xml version="1.0" encoding="us-ascii" standalone="no"?><svg xmlns="http://www.w3.org/2000/svg" xmlns:xlink="http://www.w3.org/1999/xlink" contentStyleType="text/css" height="1018px" preserveAspectRatio="none" style="width:2107px;height:1018px;background:#FFFFFF;" version="1.1" viewBox="0 0 2107 1018" width="2107px" zoomAndPan="magnify"><defs/><g><text fill="#000000" font-family="Chalkduster" font-size="42" font-weight="bold" lengthAdjust="spacing" textLength="942" x="581" y="61.7215">Story: 'CDLifying' a desktop or web app</text><path d="M1078.5,84.8912 L1078.6868,84.8912 L1078.1317,91.2171 L1078.6718,97.5431 L1078.8553,103.8691 L1077.8659,110.195 L1078.5,116.521 L1078.4865,116.4533 L1074.4257,116.9493 L1070.4331,117.7867 L1066.4881,118.8616 L1062.3795,119.1184 L1058.5,120.521 L1058.5965,121.0036 L1062.3901,120.7716 L1066.4655,121.9486 L1070.5753,123.2975 L1074.485,123.6462 L1078.5,124.521 L1078.5607,124.521 L1078.4716,130.847 L1078.6587,137.1729 L1078.7126,143.4989 L1079.0206,149.8249 L1078.5,156.1508 L1078.5,156.1508 L1078.5,157.9403 L1088.4767,157.9622 L1098.4535,156.8298 L1108.4302,157.3871 L1118.407,158.0234 L1128.3837,154.2277 L1138.3605,157.9602 L1148.3372,155.3602 L1158.314,157.5743 L1168.2907,154.8308 L1178.2674,155.9682 L1188.2442,158.1284 L1198.2209,156.0209 L1208.1977,156.4316 L1218.1744,157.0538 L1228.1512,157.2608 L1238.1279,156.1404 L1248.1047,156.9167 L1258.0814,154.6244 L1268.0581,156.9092 L1278.0349,157.6127 L1288.0116,157.3362 L1297.9884,157.7856 L1307.9651,154.8626 L1317.9419,154.4117 L1327.9186,154.4938 L1337.8953,155.9938 L1347.8721,155.6268 L1357.8488,157.9679 L1367.8256,155.685 L1377.8023,155.236 L1387.7791,156.7595 L1397.7558,154.3726 L1407.7326,154.7665 L1417.7093,157.8814 L1427.686,157.3126 L1437.6628,158.1095 L1447.6395,155.2927 L1457.6163,157.002 L1467.593,157.7253 L1477.5698,154.8911 L1487.5465,155.8952 L1497.5233,156.4868 L1507.5,157.8889 L1517.4767,156.1397 L1527.4535,157.3843 L1537.4302,154.6741 L1547.407,154.3448 L1557.3837,157.4938 L1567.3605,154.239 L1577.3372,157.5081 L1587.314,156.7018 L1597.2907,155.4364 L1607.2674,155.2074 L1617.2442,157.3742 L1627.2209,155.3526 L1637.1977,157.7291 L1647.1744,154.6768 L1657.1512,157.7973 L1667.1279,157.4423 L1677.1047,156.8041 L1687.0814,156.2767 L1697.0581,158.0885 L1707.0349,157.787 L1717.0116,156.6022 L1726.9884,156.866 L1736.9651,155.8035 L1746.9419,158.0614 L1756.9186,156.5638 L1766.8953,156.611 L1776.8721,154.5286 L1786.8488,155.0702 L1796.8256,157.5662 L1806.8023,157.2969 L1816.7791,156.0363 L1826.7558,155.2917 L1836.7326,155.567 L1846.7093,154.321 L1856.686,157.2568 L1866.6628,158.123 L1876.6395,157.5545 L1886.6163,158.004 L1896.593,155.7862 L1906.5698,156.3834 L1916.5465,155.1172 L1926.5233,156.9083 L1936.5,156.1508 L1936.5,156.1508 L1937.158,156.1508 L1937.973,145.9409 L1935.8876,135.7309 L1936.1416,125.521 L1937.6826,115.311 L1938.0129,105.1011 L1936.5,94.8912 L1936.1779,94.569 L1934.3781,92.7693 L1932.5938,90.985 L1930.1161,88.5072 L1928.7221,87.1133 L1926.5,84.8912 L1926.5,85.5791 L1916.5235,84.6225 L1906.5471,85.2705 L1896.5706,86.8343 L1886.5941,84.0568 L1876.6176,85.7311 L1866.6412,85.6529 L1856.6647,85.1999 L1846.6882,85.267 L1836.7118,85.1938 L1826.7353,83.2267 L1816.7588,83.8223 L1806.7824,83.6604 L1796.8059,85.0614 L1786.8294,85.1262 L1776.8529,85.3225 L1766.8765,84.1152 L1756.9,84.7111 L1746.9235,84.5706 L1736.9471,86.4294 L1726.9706,86.0287 L1716.9941,83.5964 L1707.0176,84.6967 L1697.0412,83.3519 L1687.0647,85.6602 L1677.0882,86.5138 L1667.1118,86.3433 L1657.1353,83.7297 L1647.1588,86.1284 L1637.1824,82.9103 L1627.2059,85.4249 L1617.2294,84.093 L1607.2529,85.1491 L1597.2765,85.5321 L1587.3,86.1501 L1577.3235,82.9714 L1567.3471,86.1591 L1557.3706,85.3663 L1547.3941,85.8387 L1537.4176,86.8853 L1527.4412,84.9058 L1517.4647,85.3586 L1507.4882,85.4603 L1497.5118,85.4171 L1487.5353,84.889 L1477.5588,86.7864 L1467.5824,83.2652 L1457.6059,86.3986 L1447.6294,83.2272 L1437.6529,83.4503 L1427.6765,84.9979 L1417.7,84.9666 L1407.7235,83.5769 L1397.7471,85.9944 L1387.7706,85.1814 L1377.7941,86.8289 L1367.8176,86.6701 L1357.8412,83.6958 L1347.8647,83.83 L1337.8882,84.5467 L1327.9118,85.8392 L1317.9353,85.9658 L1307.9588,85.6942 L1297.9824,83.9793 L1288.0059,86.5881 L1278.0294,86.5813 L1268.0529,84.7651 L1258.0765,84.2537 L1248.1,83.8208 L1238.1235,84.3189 L1228.1471,85.2576 L1218.1706,84.7088 L1208.1941,83.777 L1198.2176,86.1908 L1188.2412,83.6673 L1178.2647,86.2308 L1168.2882,86.0305 L1158.3118,85.8828 L1148.3353,86.7378 L1138.3588,84.2355 L1128.3824,84.0894 L1118.4059,86.2748 L1108.4294,83.2994 L1098.4529,84.2672 L1088.4765,85.1991 L1078.5,84.8912 L1078.5,84.8912 " fill="none" style="stroke:#181818;stroke-width:4.0;"/><path d="M1926.5,84.8912 L1926.6868,84.8912 L1926.1317,86.8912 L1926.6718,88.8912 L1926.8553,90.8912 L1925.8659,92.8912 L1926.5,94.8912 L1926.5,94.8221 L1928.5,94.5121 L1930.5,94.5503 L1932.5,94.8306 L1934.5,94.2766 L1936.5,94.8912 L1936.848,95.2391 L1934.1038,92.495 L1932.3757,90.7669 L1930.7715,89.1627 L1928.4461,86.8372 L1926.5,84.8912 " fill="none" style="stroke:#181818;stroke-width:4.0;"/><text fill="#000000" font-family="Chalkduster" font-size="24" lengthAdjust="spacing" textLength="837" x="1084.5" y="113.732">Assumption: this app is being considered for CDL investment</text><text fill="#000000" font-family="Chalkduster" font-size="24" lengthAdjust="spacing" textLength="712" x="1084.5" y="144.3619">Because it has become hard to sustain or distribute</text><polygon fill="#222222" points="1058.5552,122.9534,1057.0894,124.9563,1055.3556,127.8898,1052.876,129.8668,1050.2703,130.9479,1048.1927,131.0417,1045.5224,129.6897,1043.0029,128.8064,1041.0905,127.013,1040.0873,124.9599,1039.4924,123.3251,1038.9096,121.1898,1037.9636,119.3523,1038.6906,117.5583,1039.3275,115.593,1041.7175,114.0387,1043.3991,112.022,1045.4804,111.3523,1047.9547,110.7756,1051.1276,111.1182,1052.8655,111.9378,1054.8861,112.3093,1057.3429,114.8264,1058.1993,117.4837,1058.5714,119.2968,1058.15,122.2845" style="stroke:#222222;stroke-width:1.0;"/><polygon fill="#F1F1F1" points="834,176.1508,834,176.361,843.9767,175.7365,853.9535,176.3441,863.9302,176.5505,873.907,175.4374,883.8837,176.0731,893.8605,175.7243,903.8372,175.7673,913.814,176.0827,923.7907,175.4595,933.7674,176.7045,943.7442,175.5205,953.7209,175.9531,963.6977,176.5828,973.6744,176.0651,983.6512,176.2191,993.6279,176.1189,1003.6047,176.3294,1013.5814,176.39,1023.5581,176.7365,1033.5349,176.8219,1043.5116,176.8301,1053.4884,176.4055,1063.4651,176.6144,1073.4419,176.8531,1083.4186,175.4296,1093.3953,176.8293,1103.3721,175.8543,1113.3488,176.6846,1123.3256,175.6558,1133.3023,176.0823,1143.2791,176.8924,1153.2558,176.1021,1163.2326,176.2561,1173.2093,176.4895,1183.186,176.5671,1193.1628,176.1469,1203.1395,176.438,1213.1163,175.5784,1223.093,176.4352,1233.0698,176.699,1243.0465,176.5954,1253.0233,176.7639,1263,176.1508,1262.5326,176.0288,1264.769,185.175,1267.1988,194.3717,1270.143,203.7028,1272.4099,212.857,1275,222.0956,1275.6593,222.2678,1272.431,231.2404,1269.8681,240.3868,1268.0209,249.7201,1264.7548,258.6829,1263,268.0403,1263,267.5212,1253.0233,268.6893,1243.0465,268.476,1233.0698,268.7748,1223.093,267.7185,1213.1163,268.3595,1203.1395,268.6307,1193.1628,267.5679,1183.186,267.9445,1173.2093,268.1663,1163.2326,268.6921,1153.2558,268.0361,1143.2791,268.5029,1133.3023,267.4865,1123.3256,267.3631,1113.3488,268.5439,1103.3721,267.3234,1093.3953,268.5493,1083.4186,268.247,1073.4419,267.7724,1063.4651,267.6866,1053.4884,268.4991,1043.5116,267.741,1033.5349,268.6322,1023.5581,267.4876,1013.5814,268.6578,1003.6047,268.5246,993.6279,268.2853,983.6512,268.0875,973.6744,268.7669,963.6977,268.6539,953.7209,268.2096,943.7442,268.3085,933.7674,267.9101,923.7907,268.7568,913.814,268.1952,903.8372,268.2129,893.8605,267.432,883.8837,267.6351,873.907,268.5711,863.9302,268.4701,853.9535,267.9974,843.9767,267.7182,834,268.0403,833.7882,267.985,830.9361,258.678,829.6013,249.7672,827.5156,240.6604,824.9093,231.4176,822,222.0956,822.6724,222.2712,824.2677,212.8721,826.8844,203.7397,828.825,194.4308,831.8748,185.4116,834,176.1508" style="stroke:#181818;stroke-width:0.5;"/><text fill="#000000" font-family="Chalkduster" font-size="24" lengthAdjust="spacing" textLength="123" x="834" y="199.9917">Separate:</text><text fill="#000000" font-family="Chalkduster" font-size="24" lengthAdjust="spacing" textLength="395" x="834" y="230.6215">Analytical components from</text><text fill="#000000" font-family="Chalkduster" font-size="24" lengthAdjust="spacing" textLength="429" x="834" y="261.2514">collecting/storage components</text><polygon fill="#00FF7F" points="11,379.9298,11,380.14,21.0175,379.5155,31.035,380.1231,41.0524,380.3295,51.0699,379.2164,61.0874,379.8521,71.1049,379.5033,81.1224,379.5463,91.1399,379.8617,101.1573,379.2385,111.1748,380.4835,121.1923,379.2995,131.2098,379.7321,141.2273,380.3618,151.2448,379.8441,161.2622,379.9981,171.2797,379.8979,181.2972,380.1084,191.3147,380.169,201.3322,380.5155,211.3497,380.6009,221.3671,380.6091,231.3846,380.1845,241.4021,380.3934,251.4196,380.6321,261.4371,379.2086,271.4545,380.6083,281.472,379.6333,291.4895,380.4636,301.507,379.4348,311.5245,379.8613,321.542,380.6714,331.5594,379.8811,341.5769,380.0351,351.5944,380.2685,361.6119,380.3461,371.6294,379.9259,381.6469,380.217,391.6643,379.3574,401.6818,380.2142,411.6993,380.478,421.7168,380.3744,431.7343,380.5429,441.7517,379.4467,451.7692,379.2776,461.7867,379.3084,471.8042,379.8709,481.8217,379.7333,491.8392,380.6112,501.8566,379.7551,511.8741,379.5868,521.8916,380.1581,531.9091,379.263,541.9266,379.4107,551.9441,380.5788,561.9615,380.3655,571.979,380.6643,581.9965,379.608,592.014,380.249,602.0315,380.5202,612.049,379.4574,622.0664,379.834,632.0839,380.0558,642.1014,380.5816,652.1189,379.9256,662.1364,380.3924,672.1538,379.376,682.1713,379.2526,692.1888,380.4334,702.2063,379.2129,712.2238,380.4388,722.2413,380.1365,732.2587,379.6619,742.2762,379.5761,752.2937,380.3886,762.3112,379.6305,772.3287,380.5217,782.3462,379.3771,792.3636,380.5473,802.3811,380.4141,812.3986,380.1748,822.4161,379.977,832.4336,380.6564,842.451,380.5434,852.4685,380.0991,862.486,380.198,872.5035,379.7996,882.521,380.6463,892.5385,380.0847,902.5559,380.1024,912.5734,379.3215,922.5909,379.5246,932.6084,380.4606,942.6259,380.3596,952.6434,379.8869,962.6608,379.6077,972.6783,379.7109,982.6958,379.2437,992.7133,380.3446,1002.7308,380.6694,1012.7483,380.4562,1022.7657,380.6248,1032.7832,379.7931,1042.8007,380.017,1052.8182,379.5422,1062.8357,380.2139,1072.8531,380.1766,1082.8706,380.4822,1092.8881,379.7002,1102.9056,379.7954,1112.9231,380.3733,1122.9406,380.4972,1132.958,379.4173,1142.9755,379.7359,1152.993,380.0791,1163.0105,379.319,1173.028,380.2832,1183.0455,380.1878,1193.0629,379.8291,1203.0804,380.0721,1213.0979,380.6585,1223.1154,379.617,1233.1329,380.2448,1243.1503,380.2155,1253.1678,380.0456,1263.1853,380.0707,1273.2028,380.0433,1283.2203,379.3057,1293.2378,379.529,1303.2552,379.4683,1313.2727,379.9937,1323.2902,380.018,1333.3077,380.0916,1343.3252,379.6389,1353.3427,379.8623,1363.3601,379.8096,1373.3776,380.5067,1383.3951,380.3564,1393.4126,379.4443,1403.4301,379.8569,1413.4476,379.3526,1423.465,380.2182,1433.4825,380.5383,1443.5,379.9298,1444.0446,379.9298,1443.0644,389.8833,1443.964,399.8368,1442.7572,409.7903,1443.7002,419.7439,1443.2007,429.6974,1443.5967,439.6509,1443.7403,449.6044,1443.9721,459.5579,1442.7801,469.5114,1443.9755,479.4649,1443.6782,489.4184,1443.8553,499.3719,1444.2478,509.3254,1443.5055,519.2789,1443.6753,529.2324,1443.7134,539.1859,1443.6972,549.1395,1443.4992,559.093,1444.2107,569.0465,1442.8903,579,1444.0653,588.9535,1442.876,598.907,1442.9597,608.8605,1443.54,618.814,1443.5283,628.7675,1443.0072,638.721,1443.9137,648.6745,1443.6089,658.628,1444.2267,668.5815,1444.1671,678.5351,1443.0517,688.4886,1443.1021,698.4421,1443.3708,708.3956,1443.8555,718.3491,1443.903,728.3026,1443.8012,738.2561,1443.158,748.2096,1444.1364,758.1631,1444.1338,768.1166,1443.4527,778.0701,1443.2609,788.0236,1443.0986,797.9771,1443.2854,807.9307,1443.6374,817.8842,1443.4316,827.8377,1443.0822,837.7912,1443.9874,847.7447,1443.0411,857.6982,1444.0024,867.6517,1443.9272,877.6052,1443.8719,887.5587,1444.1925,897.5122,1443.5,907.4657,1443.5,907.2198,1433.4825,907.1651,1423.465,907.9846,1413.4476,906.8688,1403.4301,907.2317,1393.4126,907.5812,1383.3951,907.5344,1373.3776,907.1073,1363.3601,907.4228,1353.3427,908.2103,1343.3252,908.1142,1333.3077,906.8695,1323.2902,907.5442,1313.2727,906.9518,1303.2552,907.4394,1293.2378,907.7587,1283.2203,907.8856,1273.2028,906.801,1263.1853,907.8663,1253.1678,907.4741,1243.1503,906.9104,1233.1329,906.9947,1223.1154,907.7923,1213.0979,907.7156,1203.0804,907.4493,1193.0629,906.7936,1183.0455,908.1239,1173.028,907.1539,1163.0105,906.9377,1152.993,907.3984,1142.9755,908.0554,1132.958,908.0811,1122.9406,907.5009,1112.9231,907.3146,1102.9056,907.6355,1092.8881,907.652,1082.8706,906.9579,1072.8531,907.8797,1062.8357,908.0245,1052.8182,907.25,1042.8007,907.0365,1032.7832,908.1404,1022.7657,907.4867,1012.7483,907.4656,1002.7308,907.7648,992.7133,906.82,982.6958,907.9957,972.6783,907.4503,962.6608,908.1345,952.6434,907.2499,942.6259,907.8747,932.6084,907.0217,922.5909,907.7107,912.5734,907.845,902.5559,907.1384,892.5385,907.8287,882.521,906.8943,872.5035,906.9952,862.486,908.1486,852.4685,908.1501,842.451,908.0342,832.4336,907.1054,822.4161,907.85,812.3986,906.9937,802.3811,907.5239,792.3636,907.4645,782.3462,907.2033,772.3287,908.0816,762.3112,907.909,752.2937,907.145,742.2762,907.9924,732.2587,907.5576,722.2413,906.8821,712.2238,907.2324,702.2063,906.9405,692.1888,907.3266,682.1713,906.8368,672.1538,906.8656,662.1364,907.536,652.1189,907.3453,642.1014,907.4072,632.0839,907.3225,622.0664,907.6331,612.049,906.9106,602.0315,907.6258,592.014,906.7226,581.9965,907.7617,571.979,908.0585,561.9615,907.9878,551.9441,907.827,541.9266,907.658,531.9091,907.5715,521.8916,906.8257,511.8741,907.9123,501.8566,907.7954,491.8392,907.3124,481.8217,907.4599,471.8042,907.2571,461.7867,907.6834,451.7692,908.1463,441.7517,907.1118,431.7343,907.9346,421.7168,907.3765,411.6993,907.0865,401.6818,907.0338,391.6643,906.821,381.6469,907.0249,371.6294,907.502,361.6119,907.7387,351.5944,908.0419,341.5769,907.8858,331.5594,906.7544,321.542,908.0848,311.5245,907.9519,301.507,908.0064,291.4895,907.9876,281.472,906.8066,271.4545,907.208,261.4371,907.7817,251.4196,906.9842,241.4021,907.3629,231.3846,907.5327,221.3671,907.7918,211.3497,907.5115,201.3322,908.2105,191.3147,907.8771,181.2972,907.7218,171.2797,906.9258,161.2622,907.8045,151.2448,906.8912,141.2273,907.7714,131.2098,907.4735,121.1923,907.7652,111.1748,907.3783,101.1573,907.2696,91.1399,906.7248,81.1224,907.2513,71.1049,906.7608,61.0874,907.2196,51.0699,907.9036,41.0524,907.6264,31.035,907.0142,21.0175,907.7116,11,907.4657,11.0656,907.4657,11.5433,897.5122,11.5649,887.5587,11.0937,877.6052,10.821,867.6517,10.7855,857.6982,10.9936,847.7447,11.6691,837.7912,10.3263,827.8377,10.8361,817.8842,11.2668,807.9307,11.7317,797.9771,11.2119,788.0236,10.8018,778.0701,10.2621,768.1166,10.5762,758.1631,10.7781,748.2096,11.3398,738.2561,11.3695,728.3026,11.0518,718.3491,10.867,708.3956,10.2804,698.4421,11.129,688.4886,11.4354,678.5351,11.6829,668.5815,11.0983,658.628,11.0799,648.6745,10.7798,638.721,11.2487,628.7675,10.53,618.814,11.5161,608.8605,10.6943,598.907,10.4698,588.9535,11.2569,579,11.4718,569.0465,11.0573,559.093,10.8789,549.1395,11.1579,539.1859,10.9753,529.2324,10.9049,519.2789,11.0769,509.3254,10.668,499.3719,11.3895,489.4184,11.6875,479.4649,10.6464,469.5114,10.7656,459.5579,10.5314,449.6044,11.2369,439.6509,10.9062,429.6974,11.5514,419.7439,10.6998,409.7903,10.6411,399.8368,11.2968,389.8833,11,379.9298" style="stroke:#000000;stroke-width:1.5;"/><path d="M105,379.9298 L105.1868,379.9298 L104.6317,382.1033 L105.1718,384.2768 L105.3553,386.4503 L104.3659,388.6237 L105,390.7972 L104.9512,390.7484 L102.7319,392.5292 L100.759,394.5562 L98.9572,396.7544 L96.5654,398.3627 L95,400.7972 L95,402.2736 L84.5,399.1165 L74,400.2699 L63.5,401.9491 L53,400.5685 L42.5,400.9792 L32,400.712 L21.5,401.2733 L11,400.7972 " fill="none" style="stroke:#000000;stroke-width:1.5;"/><text fill="#000000" font-family="Chalkduster" font-size="14" lengthAdjust="spacing" textLength="84" x="14" y="394.837">Repository</text><polygon fill="#F1F1F1" points="623.75,417.7972,623.75,418.0074,633.6,417.3829,643.45,417.9905,653.3,418.1969,663.15,417.0838,673,417.7195,682.85,417.3707,692.7,417.4137,702.55,417.7291,712.4,417.1059,722.25,418.3509,732.1,417.1669,741.95,417.5995,751.8,418.2292,761.65,417.7115,771.5,417.8655,781.35,417.7653,791.2,417.9758,801.05,418.0364,810.9,418.3829,820.75,417.7972,820.9261,417.9352,823.3282,420.9999,825.6168,423.9755,828.0716,427.0815,830.5343,430.1935,832.75,433.1121,832.5608,432.9639,830.528,436.3146,827.8722,439.1772,825.6901,442.4108,823.0201,445.2623,820.75,448.4271,820.75,448.3586,810.9,449.1687,801.05,448.3783,791.2,448.5324,781.35,448.7657,771.5,448.8433,761.65,448.4232,751.8,448.7143,741.95,447.8546,732.1,448.7114,722.25,448.9753,712.4,448.8716,702.55,449.0401,692.7,447.944,682.85,447.7749,673,447.8057,663.15,448.3682,653.3,448.2305,643.45,449.1085,633.6,448.2524,623.75,448.4271,623.66,448.3565,621.4099,445.411,618.775,442.164,616.4138,439.1314,614.3203,436.3085,611.75,433.1121,611.8643,433.2017,614.3427,430.2002,616.4656,426.92,619.0338,423.9888,621.5049,420.9816,623.75,417.7972" style="stroke:#181818;stroke-width:0.5;"/><text fill="#000000" font-family="Chalkduster" font-size="24" lengthAdjust="spacing" textLength="197" x="623.75" y="441.6381">Access / scale</text><polygon fill="#F1F1F1" points="33.5,580.9464,33.5,581.1566,43.6429,580.5321,53.7857,581.1397,63.9286,581.3461,74.0714,580.233,84.2143,580.8687,94.3571,580.5199,104.5,580.9464,104.4511,580.8283,106.2591,581.6576,107.9473,582.1979,109.8739,583.3136,111.4907,583.6812,113.3388,584.6076,113.2779,584.5823,114.2041,586.4304,114.7769,588.1322,115.5565,589.9196,116.2579,591.6746,117,593.4464,117.0595,593.4464,117.0797,598.5724,117.1952,603.6983,117.2237,608.8243,117.2264,613.9503,117,619.0762,117.0784,619.1087,116.4105,620.9031,115.7518,622.7013,114.5812,624.2875,114.28,626.2338,113.3388,627.9151,113.301,627.8238,111.6392,628.8117,109.7402,629.2271,108.0268,630.0907,106.3624,631.0724,104.5,631.5762,104.5,631.5275,94.3571,631.6815,84.2143,631.9149,74.0714,631.9925,63.9286,631.5723,53.7857,631.8634,43.6429,631.0038,33.5,631.5762,33.5363,631.6638,31.8022,631.0128,30.0212,630.2487,28.2749,629.5683,26.3673,628.4985,24.6612,627.9151,24.4603,627.8319,23.7376,626.068,23.1786,624.372,22.4039,622.5867,21.9421,620.9309,21,619.0762,20.9418,619.0762,20.8856,613.9503,21.0761,608.8243,20.7777,603.6983,20.827,598.5724,21,593.4464,21.1999,593.5292,21.8664,591.7342,22.6907,590.0046,23.0976,588.102,24.0272,586.416,24.6612,584.6076,24.7365,584.7894,26.3687,583.7298,28.1845,583.1136,29.9805,582.4497,31.8154,581.8793,33.5,580.9464" style="stroke:#181818;stroke-width:0.5;"/><text fill="#000000" font-family="Chalkduster" font-size="24" lengthAdjust="spacing" textLength="76" x="31" y="614.7873">Use it</text><polygon fill="#F1F1F1" points="466.5,550.3166,466.5,550.5267,476.6818,549.9022,486.8636,550.5098,497.0455,550.7162,507.2273,549.6032,517.4091,550.2388,527.5909,549.8901,537.7727,549.9331,547.9545,550.2484,558.1364,549.6252,568.3182,550.8702,578.5,549.6863,588.6818,550.1188,598.8636,550.7485,609.0455,550.2308,619.2273,550.3848,629.4091,550.2846,639.5909,550.4951,649.7727,550.5557,659.9545,550.9023,670.1364,550.9876,680.3182,550.9958,690.5,550.3166,690.5325,550.395,692.3269,551.1916,694.1251,551.9973,695.7113,552.2912,697.6576,553.4544,699.3388,553.9777,699.2475,553.9399,700.2355,555.8136,700.6509,557.4501,701.5144,559.2723,702.4962,561.1434,703,562.8166,702.9513,562.8166,703.1053,572.1932,703.3386,581.5698,703.4162,590.9464,702.9961,600.323,703.2872,609.6996,703,619.0762,702.8237,619.0032,702.3553,620.8803,701.7044,622.6817,700.9402,624.4362,700.2599,626.2255,699.3388,627.9151,699.2772,627.7663,697.4879,628.4465,695.724,629.1882,694.028,630.0936,692.2427,630.7835,690.5,631.5762,690.5,632.2576,680.3182,631.4016,670.1364,631.2332,659.9545,631.8045,649.7727,630.9094,639.5909,631.0571,629.4091,632.2252,619.2273,632.0119,609.0455,632.3107,598.8636,631.2544,588.6818,631.8954,578.5,632.1666,568.3182,631.1038,558.1364,631.4804,547.9545,631.7022,537.7727,632.228,527.5909,631.572,517.4091,632.0388,507.2273,631.0224,497.0455,630.899,486.8636,632.0798,476.6818,630.8593,466.5,631.5762,466.5649,631.733,464.7586,630.9076,462.9303,630.0293,461.1516,629.2706,459.4875,628.7886,457.6612,627.9151,457.569,627.8769,457.1112,626.2228,456.0265,624.309,455.6546,622.6905,454.8814,620.9058,454,619.0762,454.245,619.0762,454.0472,609.6996,454.7266,600.323,454.6136,590.9464,454.1693,581.5698,454.2682,572.1932,454,562.8166,453.9599,562.7999,454.9529,561.1402,455.5122,559.3008,456.2498,557.5353,456.7416,555.6679,457.6612,553.9777,457.6095,553.8529,459.4966,553.4089,461.2515,552.6456,462.959,551.7678,464.6911,550.9496,466.5,550.3166" style="stroke:#181818;stroke-width:0.5;"/><text fill="#000000" font-family="Chalkduster" font-size="24" lengthAdjust="spacing" textLength="229" x="464" y="584.1574">Use generic repo</text><text fill="#000000" font-family="Chalkduster" font-size="24" lengthAdjust="spacing" textLength="182" x="464" y="614.7873">(eg) Omeka S</text><path d="M842.5,580.9464 L843.0605,580.9464 L841.3951,591.1353 L843.0154,601.3243 L843.5658,611.5132 L840.5976,621.7022 L842.2928,631.8911 L841.3627,642.0801 L841.4773,652.269 L842.3182,662.458 L840.6563,672.6469 L842.5,682.8359 L842.5,682.8359 L842.5,684.3123 L852.4583,681.1551 L862.4167,682.3085 L872.375,683.9878 L882.3333,682.6072 L892.2917,683.0179 L902.25,682.7507 L912.2083,683.312 L922.1667,683.4736 L932.125,684.3977 L942.0833,684.6254 L952.0417,684.6472 L962,683.5149 L971.9583,684.0721 L981.9167,684.7085 L991.875,680.9127 L1001.8333,684.6453 L1011.7917,682.0452 L1021.75,684.2594 L1031.7083,681.5158 L1041.6667,682.6532 L1051.625,684.8135 L1061.5833,682.7059 L1071.5417,683.1167 L1081.5,682.8359 L1081.5,682.8359 L1082.403,682.8359 L1082.61,673.4469 L1081.4896,664.058 L1082.2659,654.669 L1079.9736,645.2801 L1081.5,635.8911 L1081.5496,636.139 L1085.5956,635.569 L1089.5775,634.6786 L1093.6069,634.0255 L1097.4158,632.2701 L1101.5,631.8911 L1101.3863,631.3227 L1097.3917,630.5495 L1093.4897,630.2398 L1089.4657,629.3198 L1085.6188,629.2851 L1081.5,627.8911 L1081.3447,627.8911 L1081.1951,620.5022 L1081.7029,613.1132 L1080.9073,605.7243 L1081.0386,598.3353 L1081.5,590.9464 L1081.9079,591.3543 L1079.7738,589.2202 L1077.9617,587.4081 L1075.2977,584.7441 L1073.7006,583.147 L1071.5,580.9464 L1071.5,582.5208 L1061.5435,579.6866 L1051.587,580.6908 L1041.6304,581.2824 L1031.6739,582.6844 L1021.7174,580.9352 L1011.7609,582.1799 L1001.8043,579.4696 L991.8478,579.1404 L981.8913,582.2894 L971.9348,579.0346 L961.9783,582.3036 L952.0217,581.4974 L942.0652,580.232 L932.1087,580.003 L922.1522,582.1698 L912.1957,580.1482 L902.2391,582.5247 L892.2826,579.4724 L882.3261,582.5929 L872.3696,582.2379 L862.413,581.5996 L852.4565,581.0723 L842.5,580.9464 L842.5,580.9464 " fill="none" style="stroke:#181818;stroke-width:4.0;"/><path d="M1071.5,580.9464 L1071.6868,580.9464 L1071.1317,582.9464 L1071.6718,584.9464 L1071.8553,586.9464 L1070.8659,588.9464 L1071.5,590.9464 L1071.5,590.8773 L1073.5,590.5673 L1075.5,590.6055 L1077.5,590.8858 L1079.5,590.3318 L1081.5,590.9464 L1081.848,591.2944 L1079.1038,588.5502 L1077.3757,586.8221 L1075.7715,585.2179 L1073.4461,582.8925 L1071.5,580.9464 " fill="none" style="stroke:#181818;stroke-width:4.0;"/><text fill="#000000" font-family="Chalkduster" font-size="24" lengthAdjust="spacing" text-decoration="line-through" textLength="15" x="848.5" y="609.7873">-</text><text fill="#000000" font-family="Chalkduster" font-size="24" lengthAdjust="spacing" textLength="45" x="863.5" y="609.7873">---</text><text fill="#000000" font-family="Chalkduster" font-size="24" lengthAdjust="spacing" textLength="218" x="848.5" y="640.4171">OUT OF SCOPE??</text><text fill="#000000" font-family="Chalkduster" font-size="24" lengthAdjust="spacing" text-decoration="line-through" textLength="15" x="848.5" y="671.0469">-</text><text fill="#000000" font-family="Chalkduster" font-size="24" lengthAdjust="spacing" textLength="45" x="863.5" y="671.0469">---</text><polygon fill="#F1F1F1" points="1114,606.5762,1114,606.7864,1123.8,606.1619,1133.6,606.7695,1143.4,606.9759,1153.2,605.8628,1163,606.4985,1172.8,606.1497,1182.6,606.1927,1192.4,606.5081,1202.2,605.8849,1212,607.1299,1221.8,605.9459,1231.6,606.3785,1241.4,607.0082,1251.2,606.4905,1261,606.5762,1261.0087,606.5972,1262.7637,607.2986,1264.5583,608.0957,1266.3338,608.8466,1268.1458,609.6855,1269.8388,610.2374,1270.0455,610.323,1270.7803,612.0918,1271.3817,613.8054,1272.1783,615.5998,1272.984,617.398,1273.5,619.0762,1273.2596,619.0762,1273.7262,624.2022,1273.4012,629.3282,1273.6779,634.4541,1273.335,639.5801,1273.5,644.7061,1273.4789,644.6973,1272.9962,646.5684,1272.0205,648.2354,1271.3357,650.0228,1270.6754,651.8203,1269.8388,653.5449,1269.8919,653.6731,1268.0706,654.2759,1266.3399,655.0978,1264.4625,655.5653,1262.804,656.5614,1261,657.2061,1261,657.7543,1251.2,657.6506,1241.4,657.8191,1231.6,656.723,1221.8,656.5539,1212,656.5847,1202.2,657.1472,1192.4,657.0095,1182.6,657.8875,1172.8,657.0314,1163,656.863,1153.2,657.4343,1143.4,656.5392,1133.6,656.6869,1123.8,657.855,1114,657.2061,1114.0556,657.3402,1112.3259,656.7,1110.4234,655.6425,1108.7374,655.1077,1107.0042,654.459,1105.1612,653.5449,1105.0157,653.4846,1104.3994,651.7649,1103.7355,650.0254,1103.1652,648.3247,1102.2309,646.4733,1101.5,644.7061,1101.6542,644.7061,1101.3154,639.5801,1101.2742,634.4541,1101.6679,629.3282,1101.261,624.2022,1101.5,619.0762,1101.6567,619.1412,1102.2959,617.3348,1102.882,615.5065,1103.5878,613.7278,1104.5702,612.0637,1105.1612,610.2374,1105.123,610.1452,1107.0044,609.6874,1108.6262,608.6027,1110.5432,608.2308,1112.294,607.4576,1114,606.5762" style="stroke:#181818;stroke-width:0.5;"/><text fill="#000000" font-family="Chalkduster" font-size="24" lengthAdjust="spacing" textLength="152" x="1111.5" y="640.4171">Use RRkive</text><polygon fill="#F1F1F1" points="722.25,777.8359,722.2995,777.8854,724.5523,780.1382,727.0956,782.6815,729.5442,785.1301,731.6819,787.2677,734.25,789.8359,734.2317,789.8176,731.7495,792.1354,729.3596,794.5455,727.0339,797.0198,724.487,799.2729,722.25,801.8359,722.3805,801.9664,719.7014,799.2873,717.4034,796.9893,715.1518,794.7377,712.6298,792.2157,710.25,789.8359,710.2661,789.852,712.6425,787.4284,715.0921,785.078,717.5064,782.6923,719.988,780.3739,722.25,777.8359" style="stroke:#181818;stroke-width:0.5;"/><polygon fill="#F1F1F1" points="521.75,836.8359,521.75,837.0461,531.775,836.4216,541.8,837.0292,551.825,837.2356,561.85,836.1225,571.875,836.7582,581.9,836.4094,591.925,836.4524,601.95,836.7677,611.975,836.1445,622,837.3895,632.025,836.2056,642.05,836.6381,652.075,837.2678,662.1,836.7501,672.125,836.9041,682.15,836.8039,692.175,837.0144,702.2,837.075,712.225,837.4216,722.25,837.5069,732.275,837.5152,742.3,837.0905,752.325,837.2995,762.35,837.5381,772.375,836.1147,782.4,837.5144,792.425,836.5394,802.45,837.3697,812.475,836.3409,822.5,836.7674,832.525,837.5775,842.55,836.7872,852.575,836.9412,862.6,837.1745,872.625,837.2521,882.65,836.832,892.675,837.1231,902.7,836.2635,912.725,837.1203,922.75,836.8359,922.8199,837.0047,924.5745,837.705,926.3637,838.4891,927.9917,838.8838,929.7379,839.564,931.5888,840.4971,931.3975,840.4178,932.3029,842.2573,932.9928,844.0075,933.9954,845.8873,934.464,847.5458,935.25,849.3359,935.1356,849.3359,935.3261,854.4619,935.0277,859.5878,935.077,864.7138,935.4663,869.8398,935.25,874.9657,935.3842,875.0213,934.744,876.8272,933.6864,878.4602,933.1516,880.3097,932.5029,882.1121,931.5888,883.8046,931.5286,883.6591,929.8088,884.5073,928.0694,885.3078,926.3687,886.202,924.5172,886.7322,922.75,887.4657,922.75,887.9283,912.725,886.9119,902.7,886.7885,892.675,887.9693,882.65,886.7488,872.625,887.9747,862.6,887.6724,852.575,887.1978,842.55,887.112,832.525,887.9245,822.5,887.1664,812.475,888.0576,802.45,886.913,792.425,888.0832,782.4,887.95,772.375,887.7107,762.35,887.5129,752.325,888.1923,742.3,888.0793,732.275,887.635,722.25,887.7339,712.225,887.3355,702.2,888.1822,692.175,887.6206,682.15,887.6383,672.125,886.8574,662.1,887.0605,652.075,887.9965,642.05,887.8955,632.025,887.4228,622,887.1436,611.975,887.2468,601.95,886.7796,591.925,887.8805,581.9,888.2053,571.875,887.9921,561.85,888.1607,551.825,887.329,541.8,887.5529,531.775,887.0781,521.75,887.4657,521.7862,887.5532,520.0137,886.8095,518.2849,886.1714,516.4174,885.1983,514.6618,884.4954,512.9112,883.8046,513.0477,883.8611,512.3536,882.1092,511.2889,880.2037,510.6548,878.4765,510.0282,876.7525,509.25,874.9657,509.0464,874.9657,509.3678,869.8398,509.336,864.7138,509.2164,859.5878,509.2974,854.4619,509.25,849.3359,509.4744,849.4288,509.8859,847.5282,510.8115,845.8405,511.5347,844.069,512.2146,842.2796,512.9112,840.4971,512.9291,840.5405,514.6934,839.7998,516.3671,838.8404,518.1633,838.1769,519.9234,837.426,521.75,836.8359" style="stroke:#181818;stroke-width:0.5;"/><text fill="#000000" font-family="Chalkduster" font-size="24" lengthAdjust="spacing" textLength="406" x="519.25" y="870.6768">Data preservable in RO-Crate</text><polygon fill="#FFC7D8" points="1463.5,349.3,1463.5,349.5102,1473.5397,348.8857,1483.5794,349.4933,1493.619,349.6997,1503.6587,348.5866,1513.6984,349.2223,1523.7381,348.8735,1533.7778,348.9165,1543.8175,349.2318,1553.8571,348.6086,1563.8968,349.8536,1573.9365,348.6697,1583.9762,349.1022,1594.0159,349.7319,1604.0556,349.2142,1614.0952,349.3682,1624.1349,349.268,1634.1746,349.4785,1644.2143,349.5391,1654.254,349.8857,1664.2937,349.971,1674.3333,349.9793,1684.373,349.5546,1694.4127,349.7636,1704.4524,350.0022,1714.4921,348.5788,1724.5317,349.9785,1734.5714,349.0035,1744.6111,349.8338,1754.6508,348.805,1764.6905,349.2315,1774.7302,350.0416,1784.7698,349.2513,1794.8095,349.4053,1804.8492,349.6386,1814.8889,349.7162,1824.9286,349.2961,1834.9683,349.5872,1845.0079,348.7276,1855.0476,349.5844,1865.0873,349.8482,1875.127,349.7445,1885.1667,349.913,1895.2063,348.8169,1905.246,348.6478,1915.2857,348.6786,1925.3254,349.2411,1935.3651,349.1035,1945.4048,349.9814,1955.4444,349.1253,1965.4841,348.9569,1975.5238,349.5283,1985.5635,348.6332,1995.6032,348.7809,2005.6429,349.9489,2015.6825,349.7357,2025.7222,350.0345,2035.7619,348.9782,2045.8016,349.6192,2055.8413,349.8904,2065.881,348.8276,2075.9206,349.2041,2085.9603,349.426,2096,349.3,2096.6518,349.3,2095.9958,359.3418,2096.4626,369.3836,2095.4462,379.4254,2095.3227,389.4673,2096.5036,399.5091,2095.2831,409.5509,2096.509,419.5927,2096.2066,429.6345,2095.7321,439.6763,2095.6462,449.7182,2096.4588,459.76,2095.7007,469.8018,2096.5919,479.8436,2095.4473,489.8854,2096.6174,499.9273,2096.4843,509.9691,2096.245,520.0109,2096.0472,530.0527,2096.7266,540.0945,2096.6136,550.1363,2096.1693,560.1782,2096.2682,570.22,2095.8697,580.2618,2096.7165,590.3036,2096.1549,600.3454,2096.1726,610.3872,2095.3916,620.4291,2095.5948,630.4709,2096.5307,640.5127,2096.4298,650.5545,2095.9571,660.5963,2095.6778,670.6381,2095.7811,680.68,2095.3138,690.7218,2096.4147,700.7636,2096.7396,710.8054,2096.5264,720.8472,2096.6949,730.889,2095.8633,740.9309,2096.0872,750.9727,2095.6124,761.0145,2096.284,771.0563,2096.2468,781.0981,2096.5524,791.14,2095.7703,801.1818,2095.8656,811.2236,2096.4435,821.2654,2096.5673,831.3072,2095.4875,841.349,2095.8061,851.3909,2096.1493,861.4327,2095.3892,871.4745,2096.3534,881.5163,2096.258,891.5581,2095.8992,901.5999,2096.1422,911.6418,2096.7287,921.6836,2096,931.7254,2096,931.4125,2085.9603,932.0404,2075.9206,932.011,2065.881,931.8412,2055.8413,931.8663,2045.8016,931.8389,2035.7619,931.1012,2025.7222,931.3246,2015.6825,931.2639,2005.6429,931.7892,1995.6032,931.8135,1985.5635,931.8871,1975.5238,931.4344,1965.4841,931.6579,1955.4444,931.6052,1945.4048,932.3022,1935.3651,932.152,1925.3254,931.2399,1915.2857,931.6525,1905.246,931.1482,1895.2063,932.0138,1885.1667,932.3339,1875.127,932.27,1865.0873,931.2898,1855.0476,932.1894,1845.0079,930.9826,1834.9683,931.9255,1824.9286,931.4261,1814.8889,931.8221,1804.8492,931.9657,1794.8095,932.1975,1784.7698,931.0055,1774.7302,932.2009,1764.6905,931.9036,1754.6508,932.0807,1744.6111,932.4732,1734.5714,931.7309,1724.5317,931.9007,1714.4921,931.9388,1704.4524,931.9226,1694.4127,931.7246,1684.373,932.4361,1674.3333,931.1157,1664.2937,932.2907,1654.254,931.1014,1644.2143,931.1851,1634.1746,931.7654,1624.1349,931.7537,1614.0952,931.2326,1604.0556,932.1391,1594.0159,931.8342,1583.9762,932.4521,1573.9365,932.3925,1563.8968,931.2771,1553.8571,931.3275,1543.8175,931.5962,1533.7778,932.0809,1523.7381,932.1284,1513.6984,932.0266,1503.6587,931.3834,1493.619,932.3618,1483.5794,932.3592,1473.5397,931.6781,1463.5,931.7254,1463.2609,931.7254,1463.0986,921.6836,1463.2854,911.6418,1463.6374,901.5999,1463.4316,891.5581,1463.0822,881.5163,1463.9874,871.4745,1463.0411,861.4327,1464.0024,851.3909,1463.9272,841.349,1463.8719,831.3072,1464.1925,821.2654,1463.2541,811.2236,1463.1994,801.1818,1464.0189,791.14,1462.9031,781.0981,1463.266,771.0563,1463.6155,761.0145,1463.5687,750.9727,1463.1415,740.9309,1463.457,730.889,1464.2446,720.8472,1464.1485,710.8054,1462.9037,700.7636,1463.5785,690.7218,1462.9861,680.68,1463.4737,670.6381,1463.793,660.5963,1463.9199,650.5545,1462.8353,640.5127,1463.9005,630.4709,1463.5084,620.4291,1462.9447,610.3872,1463.0289,600.3454,1463.8266,590.3036,1463.7499,580.2618,1463.4836,570.22,1462.8279,560.1782,1464.1581,550.1363,1463.1882,540.0945,1462.9719,530.0527,1463.4327,520.0109,1464.0897,509.9691,1464.1154,499.9273,1463.5351,489.8854,1463.3488,479.8436,1463.6698,469.8018,1463.6862,459.76,1462.9922,449.7182,1463.914,439.6763,1464.0588,429.6345,1463.2842,419.5927,1463.0708,409.5509,1464.1746,399.5091,1463.521,389.4673,1463.4998,379.4254,1463.799,369.3836,1462.8543,359.3418,1463.5,349.3" style="stroke:#000000;stroke-width:1.5;"/><path d="M1558.5,349.3 L1558.6868,349.3 L1558.1317,351.4735 L1558.6718,353.647 L1558.8553,355.8204 L1557.8659,357.9939 L1558.5,360.1674 L1558.4512,360.1186 L1556.2319,361.8993 L1554.259,363.9264 L1552.4572,366.1246 L1550.0654,367.7328 L1548.5,370.1674 L1548.5,371.6438 L1539.0556,368.4866 L1529.6111,369.64 L1520.1667,371.3193 L1510.7222,369.9387 L1501.2778,370.3494 L1491.8333,370.0822 L1482.3889,370.6435 L1472.9444,370.8051 L1463.5,370.1674 " fill="none" style="stroke:#000000;stroke-width:1.5;"/><text fill="#000000" font-family="Chalkduster" font-size="14" lengthAdjust="spacing" textLength="85" x="1466.5" y="364.2072">Workspace</text><polygon fill="#F1F1F1" points="1755.5,387.1674,1755.5,387.3776,1765.4375,386.7531,1775.375,387.3607,1785.3125,387.5671,1795.25,386.454,1805.1875,387.0897,1815.125,386.7409,1825.0625,386.7839,1835,387.0992,1844.9375,386.476,1854.875,387.721,1864.8125,386.5371,1874.75,386.9696,1884.6875,387.5993,1894.625,387.0816,1904.5625,387.2356,1914.5,387.1354,1924.4375,387.3459,1934.375,387.4065,1944.3125,387.7531,1954.25,387.8385,1964.1875,387.8467,1974.125,387.422,1984.0625,387.631,1994,387.8696,2003.9375,386.4462,2013.875,387.8459,2023.8125,386.8709,2033.75,387.7012,2043.6875,386.6724,2053.625,387.0989,2063.5625,387.909,2073.5,387.1674,2073.4938,387.1524,2075.2812,387.9321,2077.0787,388.7361,2078.8564,389.4923,2080.5706,390.0951,2082.3388,390.8286,2082.4273,390.8652,2082.8948,392.5233,2083.8909,394.4004,2084.7044,396.2018,2085.4047,397.9563,2086,399.6674,2086.2043,399.6674,2085.839,404.7934,2085.7826,409.9193,2085.7929,415.0453,2085.9804,420.1713,2086,425.2972,2085.9395,425.2722,2085.4776,427.1519,2084.4817,428.8105,2083.6977,430.5568,2083.1414,432.3974,2082.3388,434.1361,2082.2538,433.9307,2080.5048,434.7084,2078.8861,435.8004,2077.0911,436.4669,2075.3615,437.2912,2073.5,437.7972,2073.5,437.4754,2063.5625,438.1164,2053.625,438.3876,2043.6875,437.3248,2033.75,437.7014,2023.8125,437.9232,2013.875,438.449,2003.9375,437.793,1994,438.2598,1984.0625,437.2434,1974.125,437.12,1964.1875,438.3008,1954.25,437.0803,1944.3125,438.3062,1934.375,438.0039,1924.4375,437.5293,1914.5,437.4435,1904.5625,438.256,1894.625,437.4979,1884.6875,438.3891,1874.75,437.2445,1864.8125,438.4147,1854.875,438.2815,1844.9375,438.0422,1835,437.8444,1825.0625,438.5238,1815.125,438.4108,1805.1875,437.9665,1795.25,438.0654,1785.3125,437.667,1775.375,438.5137,1765.4375,437.9521,1755.5,437.7972,1755.522,437.8504,1753.6546,436.8776,1751.9128,436.208,1750.2644,435.764,1748.4838,435.0006,1746.6612,434.1361,1746.6479,434.1306,1745.8297,432.3272,1745.1293,430.5726,1744.2532,428.7452,1743.86,427.1179,1743,425.2972,1743.2465,425.2972,1743.1755,420.1713,1743.2316,415.0453,1742.9544,409.9193,1743.0291,404.7934,1743,399.6674,1742.8806,399.618,1743.8197,397.9359,1744.5405,396.1633,1745.3668,394.4346,1745.8582,392.567,1746.6612,390.8286,1746.644,390.7872,1748.4855,390.2329,1750.2691,389.5388,1751.8991,388.474,1753.7075,387.8399,1755.5,387.1674" style="stroke:#181818;stroke-width:0.5;"/><text fill="#000000" font-family="Chalkduster" font-size="24" lengthAdjust="spacing" textLength="323" x="1753" y="421.0083">Find 'Intellectual core'</text><path d="M1483.5,536.742 L1484.0605,536.742 L1482.3951,546.9358 L1484.0154,557.1296 L1484.5658,567.3234 L1481.5976,577.5172 L1483.2928,587.711 L1482.3627,597.9047 L1482.4773,608.0985 L1483.3182,618.2923 L1481.6563,628.4861 L1484.9764,638.6799 L1481.8193,648.8737 L1482.9726,659.0675 L1483.5,669.2613 L1483.5,669.2613 L1483.5,670.4132 L1493.6538,669.0326 L1503.8077,669.4433 L1513.9615,669.1761 L1524.1154,669.7374 L1534.2692,669.899 L1544.4231,670.8232 L1554.5769,671.0508 L1564.7308,671.0727 L1574.8846,669.9403 L1585.0385,670.4975 L1595.1923,671.1339 L1605.3462,667.3382 L1615.5,671.0707 L1625.6538,668.4706 L1635.8077,670.6848 L1645.9615,667.9413 L1656.1154,669.0786 L1666.2692,671.2389 L1676.4231,669.1314 L1686.5769,669.5421 L1696.7308,670.1643 L1706.8846,670.3713 L1717.0385,669.2509 L1727.1923,670.0272 L1737.3462,667.7349 L1747.5,669.2613 L1747.5,669.2613 L1748.2584,669.2613 L1748.9619,658.8847 L1748.6854,648.5081 L1749.1347,638.1315 L1746.2118,627.7549 L1745.7608,617.3783 L1747.5,607.0016 L1747.3917,606.46 L1751.4897,606.1503 L1755.4657,605.2303 L1759.6188,605.1956 L1763.4695,603.6494 L1767.5,603.0016 L1767.4402,602.7026 L1763.5398,602.4006 L1759.3838,600.8204 L1755.4095,600.1492 L1751.6131,600.3673 L1747.5,599.0016 L1748.6618,599.0016 L1749.4586,588.5497 L1746.6419,578.0978 L1748.3512,567.6458 L1749.0745,557.1939 L1747.5,546.742 L1747.2031,546.4451 L1745.4397,544.6817 L1743.5792,542.8212 L1741.9097,541.1516 L1739.4974,538.7393 L1737.5,536.742 L1737.5,537.9755 L1727.34,535.2652 L1717.18,534.936 L1707.02,538.0849 L1696.86,534.8301 L1686.7,538.0992 L1676.54,537.293 L1666.38,536.0275 L1656.22,535.7986 L1646.06,537.9653 L1635.9,535.9438 L1625.74,538.3203 L1615.58,535.268 L1605.42,538.3884 L1595.26,538.0335 L1585.1,537.3952 L1574.94,536.8679 L1564.78,538.6796 L1554.62,538.3782 L1544.46,537.1933 L1534.3,537.4571 L1524.14,536.3946 L1513.98,538.6525 L1503.82,537.155 L1493.66,537.2022 L1483.5,536.742 L1483.5,536.742 " fill="none" style="stroke:#181818;stroke-width:4.0;"/><path d="M1737.5,536.742 L1737.6868,536.742 L1737.1317,538.742 L1737.6718,540.742 L1737.8553,542.742 L1736.8659,544.742 L1737.5,546.742 L1737.5,546.6729 L1739.5,546.3629 L1741.5,546.4011 L1743.5,546.6814 L1745.5,546.1274 L1747.5,546.742 L1747.848,547.09 L1745.1038,544.3458 L1743.3757,542.6177 L1741.7715,541.0135 L1739.4461,538.6881 L1737.5,536.742 " fill="none" style="stroke:#181818;stroke-width:4.0;"/><text fill="#000000" font-family="Chalkduster" font-size="24" lengthAdjust="spacing" textLength="151" x="1489.5" y="565.5829">If possible,</text><text fill="#000000" font-family="Chalkduster" font-size="24" lengthAdjust="spacing" textLength="187" x="1489.5" y="596.2127">extend an an</text><text fill="#000000" font-family="Chalkduster" font-size="24" lengthAdjust="spacing" textLength="231" x="1489.5" y="626.8425">existing package</text><text fill="#000000" font-family="Chalkduster" font-size="24" lengthAdjust="spacing" textLength="132" x="1489.5" y="657.4724">(eg NLTK)</text><polygon fill="#F1F1F1" points="1780,577.6867,1780,577.8969,1789.963,577.2724,1799.9259,577.88,1809.8889,578.0864,1819.8519,576.9733,1829.8148,577.609,1839.7778,577.2602,1849.7407,577.3032,1859.7037,577.6186,1869.6667,576.9954,1879.6296,578.2404,1889.5926,577.0564,1899.5556,577.489,1909.5185,578.1187,1919.4815,577.601,1929.4444,577.755,1939.4074,577.6548,1949.3704,577.8653,1959.3333,577.9259,1969.2963,578.2724,1979.2593,578.3578,1989.2222,578.366,1999.1852,577.9414,2009.1481,578.1503,2019.1111,578.389,2029.0741,576.9655,2039.037,578.3652,2049,577.6867,2048.9622,577.5954,2050.8359,578.5834,2052.4724,578.9987,2054.2946,579.8623,2056.1657,580.844,2057.8388,581.3479,2057.8238,581.3417,2058.6035,583.1291,2059.4076,584.9266,2060.1637,586.7043,2060.7666,588.4185,2061.5,590.1867,2061.5957,590.1867,2061.3092,595.3127,2061.5948,600.4387,2061.6827,605.5646,2061.6482,610.6906,2061.5,615.8166,2061.6888,615.8948,2060.619,617.5227,2059.8347,619.2689,2059.1119,621.0406,2058.5529,622.8801,2057.8388,624.6554,2057.8138,624.5949,2056.158,625.5975,2054.281,626.0661,2052.4918,626.7464,2050.7969,627.6546,2049,628.3166,2049,627.6497,2039.037,627.7974,2029.0741,628.9655,2019.1111,628.7522,2009.1481,629.0511,1999.1852,627.9948,1989.2222,628.6358,1979.2593,628.907,1969.2963,627.8442,1959.3333,628.2207,1949.3704,628.4425,1939.4074,628.9683,1929.4444,628.3124,1919.4815,628.7791,1909.5185,627.7628,1899.5556,627.6393,1889.5926,628.8202,1879.6296,627.5996,1869.6667,628.8255,1859.7037,628.5232,1849.7407,628.0486,1839.7778,627.9628,1829.8148,628.7753,1819.8519,628.0172,1809.8889,628.9084,1799.9259,627.7638,1789.963,628.934,1780,628.3166,1780.0618,628.4657,1778.2635,627.6598,1776.4705,626.8666,1774.7894,626.3436,1773.0072,625.5766,1771.1612,624.6554,1771.2133,624.677,1770.5115,622.9218,1769.6566,621.1032,1769.1851,619.4435,1768.2799,617.6041,1767.5,615.8166,1767.5575,615.8166,1767.2972,610.6906,1767.3649,605.5646,1767.6769,600.4387,1767.6433,595.3127,1767.5,590.1867,1767.4868,590.1813,1768.133,588.3779,1768.897,586.6233,1769.4854,584.7959,1770.5567,583.1686,1771.1612,581.3479,1771.2555,581.5757,1772.9961,580.7778,1774.7853,580.0974,1776.447,579.1091,1778.2434,578.4458,1780,577.6867" style="stroke:#181818;stroke-width:0.5;"/><text fill="#000000" font-family="Chalkduster" font-size="24" lengthAdjust="spacing" textLength="274" x="1777.5" y="611.5276">Write new library(s)</text><polygon fill="#F1F1F1" points="1819,472.7972,1819,473.0074,1829.0526,472.3829,1839.1053,472.9905,1849.1579,473.1969,1859.2105,472.0838,1869.2632,472.7195,1879.3158,472.3707,1889.3684,472.4137,1899.4211,472.7291,1909.4737,472.1059,1919.5263,473.3509,1929.5789,472.1669,1939.6316,472.5995,1949.6842,473.2292,1959.7368,472.7115,1969.7895,472.8655,1979.8421,472.7653,1989.8947,472.9758,1999.9474,473.0364,2010,472.7972,2010.1537,472.9176,2012.5761,475.9982,2014.9782,479.0628,2017.2668,482.0385,2019.7216,485.1445,2022,488.1121,2022.1843,488.2565,2019.4108,491.0269,2017.378,494.3776,2014.7222,497.2401,2012.5401,500.4738,2010,503.4271,2010,502.932,1999.9474,503.3586,1989.8947,504.1687,1979.8421,503.3783,1969.7895,503.5324,1959.7368,503.7657,1949.6842,503.8433,1939.6316,503.4232,1929.5789,503.7143,1919.5263,502.8546,1909.4737,503.7114,1899.4211,503.9753,1889.3684,503.8716,1879.3158,504.0401,1869.2632,502.944,1859.2105,502.7749,1849.1579,502.8057,1839.1053,503.3682,1829.0526,503.2305,1819,503.4271,1819.1788,503.5672,1816.5542,500.3282,1814.11,497.2306,1811.8599,494.285,1809.225,491.038,1807,488.1121,1806.8638,488.0054,1809.5703,485.1826,1811.9143,482.0757,1814.3927,479.0742,1816.5156,475.7941,1819,472.7972" style="stroke:#181818;stroke-width:0.5;"/><text fill="#000000" font-family="Chalkduster" font-size="24" lengthAdjust="spacing" textLength="35" x="1918.5" y="527.2679">no</text><text fill="#000000" font-family="Chalkduster" font-size="24" lengthAdjust="spacing" textLength="191" x="1819" y="496.6381">Libraries exist</text><text fill="#000000" font-family="Chalkduster" font-size="24" lengthAdjust="spacing" textLength="42" x="2022" y="481.3232">yes</text><polygon fill="#F1F1F1" points="1914.5,702.5762,1914.5495,702.6258,1916.8023,704.8786,1919.3456,707.4218,1921.7942,709.8704,1923.9319,712.0081,1926.5,714.5762,1926.4817,714.5579,1923.9995,716.8757,1921.6096,719.2858,1919.2839,721.7602,1916.737,724.0133,1914.5,726.5762,1914.6305,726.7067,1911.9514,724.0277,1909.6534,721.7296,1907.4018,719.478,1904.8798,716.956,1902.5,714.5762,1902.5161,714.5923,1904.8925,712.1687,1907.3421,709.8183,1909.7564,707.4326,1912.238,705.1143,1914.5,702.5762" style="stroke:#181818;stroke-width:0.5;"/><polygon fill="#F1F1F1" points="1755.5,746.5762,1755.5,746.7864,1765.4375,746.1619,1775.375,746.7695,1785.3125,746.9759,1795.25,745.8628,1805.1875,746.4985,1815.125,746.1497,1825.0625,746.1927,1835,746.5081,1844.9375,745.8849,1854.875,747.1299,1864.8125,745.9459,1874.75,746.3785,1884.6875,747.0082,1894.625,746.4905,1904.5625,746.6445,1914.5,746.5443,1924.4375,746.7548,1934.375,746.8154,1944.3125,747.1619,1954.25,747.2473,1964.1875,747.2555,1974.125,746.8309,1984.0625,747.0398,1994,747.2785,2003.9375,745.855,2013.875,747.2547,2023.8125,746.2797,2033.75,747.11,2043.6875,746.0812,2053.625,746.5077,2063.5625,747.3178,2073.5,746.5762,2073.4938,746.5612,2075.2812,747.3409,2077.0787,748.145,2078.8564,748.9011,2080.5706,749.504,2082.3388,750.2374,2082.4273,750.274,2082.8948,751.9321,2083.8909,753.8092,2084.7044,755.6106,2085.4047,757.3652,2086,759.0762,2086.613,759.0762,2085.5169,768.9528,2085.3478,778.8295,2085.3786,788.7061,2085.9411,798.5827,2085.8035,808.4593,2086.6814,818.3359,2085.8253,828.2125,2085.6569,838.0891,2086.2283,847.9657,2085.3332,857.8423,2085.4809,867.719,2086.649,877.5956,2086.4357,887.4722,2086.7345,897.3488,2086,907.2254,2085.9009,907.1843,2085.3661,909.0339,2084.7174,910.8362,2083.6578,912.4684,2083.0415,914.2842,2082.3388,916.0642,2082.3549,916.103,2080.6542,916.9972,2078.8028,917.5274,2077.0945,918.4034,2075.1971,918.8226,2073.5,919.7254,2073.5,919.0481,2063.5625,920.229,2053.625,919.0085,2043.6875,920.2344,2033.75,919.932,2023.8125,919.4575,2013.875,919.3716,2003.9375,920.1842,1994,919.4261,1984.0625,920.3173,1974.125,919.1727,1964.1875,920.3428,1954.25,920.2097,1944.3125,919.9704,1934.375,919.7726,1924.4375,920.452,1914.5,920.339,1904.5625,919.8947,1894.625,919.9936,1884.6875,919.5951,1874.75,920.4418,1864.8125,919.8803,1854.875,919.898,1844.9375,919.117,1835,919.3202,1825.0625,920.2561,1815.125,920.1552,1805.1875,919.6825,1795.25,919.4032,1785.3125,919.5065,1775.375,919.0392,1765.4375,920.1401,1755.5,919.7254,1755.5943,919.9532,1753.7994,919.1553,1752.0531,918.4749,1750.1793,917.4866,1748.4401,916.8233,1746.6612,916.0642,1746.5418,916.0148,1746.0164,914.3327,1745.2727,912.5602,1744.6346,910.8314,1743.6615,908.9639,1743,907.2254,1742.8656,907.2254,1743.4435,897.3488,1743.5673,887.4722,1742.4875,877.5956,1742.8061,867.719,1743.1493,857.8423,1742.3892,847.9657,1743.3534,838.0891,1743.258,828.2125,1742.8992,818.3359,1743.1422,808.4593,1743.7287,798.5827,1742.6871,788.7061,1743.315,778.8295,1743.2856,768.9528,1743,759.0762,1743.0357,759.091,1743.7756,757.3264,1744.4994,755.5552,1745.0045,753.6933,1745.8055,751.954,1746.6612,750.2374,1746.6023,750.0953,1748.4371,749.5248,1750.2079,748.8001,1751.9851,748.0905,1753.6951,747.2189,1755.5,746.5762" style="stroke:#181818;stroke-width:0.5;"/><text fill="#000000" font-family="Chalkduster" font-size="24" lengthAdjust="spacing" textLength="181" x="1753" y="780.4171">One or more:</text><text fill="#000000" font-family="Chalkduster" font-size="24" lengthAdjust="spacing" textLength="154" x="1753" y="811.0469">- Notebook</text><text fill="#000000" font-family="Chalkduster" font-size="24" lengthAdjust="spacing" textLength="190" x="1753" y="841.6768">- Repo plugin</text><text fill="#000000" font-family="Chalkduster" font-size="24" lengthAdjust="spacing" textLength="274" x="1753" y="872.3066">- Static deployment</text><text fill="#000000" font-family="Chalkduster" font-size="24" lengthAdjust="spacing" textLength="323" x="1753" y="902.9364">- Deployable Container</text><polygon fill="#F1F1F1" points="1048.5,941.7254,1048.5495,941.7749,1050.8023,944.0277,1053.3456,946.571,1055.7942,949.0196,1057.9319,951.1572,1060.5,953.7254,1060.4817,953.7071,1057.9995,956.0249,1055.6096,958.435,1053.2839,960.9093,1050.737,963.1624,1048.5,965.7254,1048.6305,965.8559,1045.9514,963.1768,1043.6534,960.8788,1041.4018,958.6272,1038.8798,956.1052,1036.5,953.7254,1036.5161,953.7415,1038.8925,951.3179,1041.3421,948.9675,1043.7564,946.5818,1046.238,944.2634,1048.5,941.7254" style="stroke:#181818;stroke-width:0.5;"/><polygon fill="none" points="1059.5608,999.401,1057.9484,1001.6042,1056.0412,1004.8311,1053.3136,1007.0058,1050.4474,1008.195,1048.162,1008.2982,1045.2247,1006.8109,1042.4532,1005.8393,1040.3495,1003.8666,1039.2461,1001.6082,1038.5917,999.8099,1037.9506,997.4611,1036.91,995.4399,1037.7096,993.4664,1038.4102,991.3046,1041.0393,989.5949,1042.889,987.3765,1045.1784,986.6398,1047.9001,986.0054,1051.3904,986.3824,1053.3021,987.2839,1055.5247,987.6926,1058.2272,990.4614,1059.1693,993.3843,1059.5786,995.3787,1059.115,998.6653" style="stroke:#222222;stroke-width:1.0;"/><polygon fill="#222222" points="1054.5331,998.1848,1053.6536,999.3866,1052.6134,1001.1467,1051.1256,1002.3329,1049.5622,1002.9815,1048.3156,1003.0378,1046.7135,1002.2266,1045.2017,1001.6966,1044.0543,1000.6206,1043.4524,999.3887,1043.0955,998.4079,1042.7458,997.1267,1042.1782,996.0242,1042.6143,994.9478,1042.9965,993.7686,1044.4305,992.836,1045.4394,991.626,1046.6882,991.2242,1048.1728,990.8781,1050.0766,991.0837,1051.1193,991.5755,1052.3317,991.7984,1053.8057,993.3087,1054.3196,994.903,1054.5429,995.9909,1054.29,997.7835" style="stroke:#222222;stroke-width:1.0;"/><path d="M611.75,433.1121 L611.75,433.3924 L601.6991,432.5597 L591.6481,433.3699 L581.5972,433.6451 L571.5463,432.161 L561.4954,433.0085 L551.4444,432.5435 L541.3935,432.6008 L531.3426,433.0213 L521.2917,432.1903 L511.2407,433.8503 L501.1898,432.2718 L491.1389,432.8485 L481.088,433.6881 L471.037,432.9978 L460.9861,433.2031 L450.9352,433.0695 L440.8843,433.3502 L430.8333,433.431 L420.7824,433.8931 L410.7315,434.0069 L400.6806,434.0178 L390.6296,433.4516 L380.5787,433.7303 L370.5278,434.0485 L360.4769,432.1506 L350.4259,434.0168 L340.375,432.7168 L330.3241,433.8239 L320.2731,432.4521 L310.2222,433.0208 L300.1713,434.101 L290.1204,433.0472 L280.0694,433.2525 L270.0185,433.5637 L259.9676,433.6671 L249.9167,433.1069 L239.8657,433.4951 L229.8148,432.3489 L219.7639,433.4913 L209.713,433.8431 L199.662,433.7049 L189.6111,433.9295 L179.5602,432.468 L169.5093,432.2426 L159.4583,432.2836 L149.4074,433.0336 L139.3565,432.8501 L129.3056,434.0207 L119.2546,432.8792 L109.2037,432.6547 L99.1528,433.4165 L89.1019,432.223 L79.0509,432.42 L69,433.1121 " fill="#181818" style="stroke:#181818;stroke-width:4.0;"/><path d="M69,433.1121 L69.2802,433.1121 L68.4476,442.9678 L69.2577,452.8234 L69.5329,462.679 L68.0488,472.5346 L68.8964,482.3902 L68.4313,492.2458 L68.4887,502.1015 L68.9091,511.9571 L68.0782,521.8127 L69.7382,531.6683 L68.1596,541.5239 L68.7363,551.3795 L69.5759,561.2352 L68.8856,571.0908 L69,580.9464 " fill="#181818" style="stroke:#181818;stroke-width:4.0;"/><polygon fill="#181818" points="65,570.9464,65.065,570.9724,65.6718,572.8951,66.6598,574.9703,67.5237,576.9959,67.9792,578.8581,69,580.9464,68.9759,580.9368,69.668,578.8936,70.4813,576.8989,71.3789,574.938,71.986,572.8608,73,570.9464,73.1305,571.0769,72.0514,571.5978,71.3534,572.4998,70.7018,573.4482,69.7798,574.1262,69,574.9464,69.0161,574.9625,68.1925,574.1389,67.4421,573.3885,66.6564,572.6028,65.938,571.8844,65,570.9464" style="stroke:#181818;stroke-width:1.0;"/><text fill="#000000" font-family="Chalkduster" font-size="24" lengthAdjust="spacing" textLength="375" x="69" y="500.2403">Compliant domain-specific</text><text fill="#000000" font-family="Chalkduster" font-size="24" lengthAdjust="spacing" textLength="209" x="69" y="530.8702">repo/app exists</text><path d="M832.75,433.1121 L832.75,433.3924 L842.8857,432.5597 L853.0214,433.3699 L863.1571,433.6451 L873.2929,432.161 L883.4286,433.0085 L893.5643,432.5435 L903.7,432.6008 L913.8357,433.0213 L923.9714,432.1903 L934.1071,433.8503 L944.2429,432.2718 L954.3786,432.8485 L964.5143,433.6881 L974.65,432.9978 L984.7857,433.2031 L994.9214,433.0695 L1005.0571,433.3502 L1015.1929,433.431 L1025.3286,433.8931 L1035.4643,434.0069 L1045.6,434.0178 L1055.7357,433.4516 L1065.8714,433.7303 L1076.0071,434.0485 L1086.1429,432.1506 L1096.2786,434.0168 L1106.4143,432.7168 L1116.55,433.8239 L1126.6857,432.4521 L1136.8214,433.0208 L1146.9571,434.101 L1157.0929,433.0472 L1167.2286,433.2525 L1177.3643,433.5637 L1187.5,433.1121 " fill="#181818" style="stroke:#181818;stroke-width:4.0;"/><path d="M1187.5,433.1121 L1187.7802,433.1121 L1186.9476,443.3159 L1187.7577,453.5197 L1188.0329,463.7235 L1186.5488,473.9272 L1187.3964,484.131 L1186.9313,494.3348 L1186.9887,504.5385 L1187.4091,514.7423 L1186.5782,524.9461 L1188.2382,535.1498 L1186.6596,545.3536 L1187.2363,555.5574 L1188.0759,565.7612 L1187.3856,575.9649 L1187.591,586.1687 L1187.4574,596.3725 L1187.5,606.5762 " fill="#181818" style="stroke:#181818;stroke-width:4.0;"/><polygon fill="#181818" points="1183.5,596.5762,1183.565,596.6022,1184.1718,598.5249,1185.1598,600.6002,1186.0237,602.6257,1186.4792,604.4879,1187.5,606.5762,1187.4759,606.5666,1188.168,604.5234,1188.9813,602.5288,1189.8789,600.5678,1190.486,598.4906,1191.5,596.5762,1191.6305,596.7067,1190.5514,597.2277,1189.8534,598.1296,1189.2018,599.078,1188.2798,599.756,1187.5,600.5762,1187.5161,600.5923,1186.6925,599.7687,1185.9421,599.0183,1185.1564,598.2326,1184.438,597.5143,1183.5,596.5762" style="stroke:#181818;stroke-width:1.0;"/><text fill="#000000" font-family="Chalkduster" font-size="24" lengthAdjust="spacing" textLength="246" x="1187.5" y="513.0552">Large/complex or</text><text fill="#000000" font-family="Chalkduster" font-size="24" lengthAdjust="spacing" textLength="116" x="1187.5" y="543.6851">Sensitive</text><path d="M578.5,433.1121 L578.7802,433.1121 L577.9476,442.8792 L578.7577,452.6462 L579.0329,462.4133 L577.5488,472.1803 L578.3964,481.9473 L577.9313,491.7144 L577.9887,501.4814 L578.4091,511.2484 L577.5782,521.0155 L579.2382,530.7825 L577.6596,540.5495 L578.5,550.3166 " fill="#181818" style="stroke:#181818;stroke-width:4.0;"/><polygon fill="#181818" points="574.5,540.3166,574.565,540.3426,575.1718,542.2653,576.1598,544.3405,577.0237,546.366,577.4792,548.2282,578.5,550.3166,578.4759,550.3069,579.168,548.2638,579.9813,546.2691,580.8789,544.3081,581.486,542.231,582.5,540.3166,582.6305,540.4471,581.5514,540.968,580.8534,541.8699,580.2018,542.8184,579.2798,543.4963,578.5,544.3166,578.5161,544.3326,577.6925,543.509,576.9421,542.7586,576.1564,541.9729,575.438,541.2546,574.5,540.3166" style="stroke:#181818;stroke-width:1.0;"/><text fill="#000000" font-family="Chalkduster" font-size="24" lengthAdjust="spacing" textLength="244" x="578.5" y="495.2403">Small-medium OA</text><path d="M69,631.5762 L69.2802,631.5762 L68.4476,641.4675 L69.2577,651.3587 L69.5329,661.2499 L68.0488,671.1411 L68.8964,681.0324 L68.4313,690.9236 L68.4887,700.8148 L68.9091,710.7061 L68.0782,720.5973 L69.7382,730.4885 L68.1596,740.3797 L68.7363,750.271 L69.5759,760.1622 L68.8856,770.0534 L69.091,779.9447 L69,789.8359 " fill="#181818" style="stroke:#181818;stroke-width:4.0;"/><path d="M69,789.8359 L69,790.1161 L79.0195,789.2835 L89.0391,790.0936 L99.0586,790.3688 L109.0781,788.8847 L119.0977,789.7323 L129.1172,789.2672 L139.1367,789.3246 L149.1563,789.745 L159.1758,788.9141 L169.1953,790.5741 L179.2148,788.9955 L189.2344,789.5722 L199.2539,790.4118 L209.2734,789.7215 L219.293,789.9269 L229.3125,789.7933 L239.332,790.0739 L249.3516,790.1547 L259.3711,790.6168 L269.3906,790.7306 L279.4102,790.7416 L289.4297,790.1754 L299.4492,790.454 L309.4688,790.7722 L319.4883,788.8743 L329.5078,790.7406 L339.5273,789.4406 L349.5469,790.5476 L359.5664,789.1759 L369.5859,789.7446 L379.6055,790.8247 L389.625,789.7709 L399.6445,789.9763 L409.6641,790.2874 L419.6836,790.3909 L429.7031,789.8307 L439.7227,790.2188 L449.7422,789.0727 L459.7617,790.2151 L469.7813,790.5668 L479.8008,790.4286 L489.8203,790.6533 L499.8398,789.1918 L509.8594,788.9663 L519.8789,789.0074 L529.8984,789.7574 L539.918,789.5739 L549.9375,790.7444 L559.957,789.603 L569.9766,789.3785 L579.9961,790.1403 L590.0156,788.9468 L600.0352,789.1437 L610.0547,790.7012 L620.0742,790.4168 L630.0938,790.8152 L640.1133,789.4068 L650.1328,790.2615 L660.1523,790.6231 L670.1719,789.206 L680.1914,789.7081 L690.2109,790.0039 L700.2305,790.7049 L710.25,789.8359 " fill="#181818" style="stroke:#181818;stroke-width:4.0;"/><polygon fill="#181818" points="700.25,785.8359,700.276,785.9009,702.1987,786.5077,704.2739,787.4957,706.2995,788.3596,708.1617,788.8151,710.25,789.8359,710.2404,789.8118,708.1972,790.5039,706.2025,791.3172,704.2416,792.2148,702.1644,792.8219,700.25,793.8359,700.3805,793.9664,700.9014,792.8873,701.8034,792.1893,702.7518,791.5377,703.4298,790.6157,704.25,789.8359,704.2661,789.852,703.4425,789.0284,702.6921,788.278,701.9064,787.4923,701.188,786.7739,700.25,785.8359" style="stroke:#181818;stroke-width:1.0;"/><path d="M1187.5,657.2061 L1187.7802,657.2061 L1186.9476,667.4084 L1187.7577,677.6107 L1188.0329,687.8129 L1186.5488,698.0152 L1187.3964,708.2175 L1186.9313,718.4198 L1186.9887,728.6221 L1187.4091,738.8244 L1186.5782,749.0267 L1188.2382,759.229 L1186.6596,769.4313 L1187.2363,779.6336 L1187.5,789.8359 " fill="#181818" style="stroke:#181818;stroke-width:4.0;"/><path d="M1187.5,789.8359 L1187.5,790.1161 L1177.4278,789.2835 L1167.3556,790.0936 L1157.2833,790.3688 L1147.2111,788.8847 L1137.1389,789.7323 L1127.0667,789.2672 L1116.9944,789.3246 L1106.9222,789.745 L1096.85,788.9141 L1086.7778,790.5741 L1076.7056,788.9955 L1066.6333,789.5722 L1056.5611,790.4118 L1046.4889,789.7215 L1036.4167,789.9269 L1026.3444,789.7933 L1016.2722,790.0739 L1006.2,790.1547 L996.1278,790.6168 L986.0556,790.7306 L975.9833,790.7416 L965.9111,790.1754 L955.8389,790.454 L945.7667,790.7722 L935.6944,788.8743 L925.6222,790.7406 L915.55,789.4406 L905.4778,790.5476 L895.4056,789.1759 L885.3333,789.7446 L875.2611,790.8247 L865.1889,789.7709 L855.1167,789.9763 L845.0444,790.2874 L834.9722,790.3909 L824.9,789.8307 L814.8278,790.2188 L804.7556,789.0727 L794.6833,790.2151 L784.6111,790.5668 L774.5389,790.4286 L764.4667,790.6533 L754.3944,789.1918 L744.3222,788.9663 L734.25,789.8359 " fill="#181818" style="stroke:#181818;stroke-width:4.0;"/><polygon fill="#181818" points="744.25,785.8359,744.276,785.9009,742.1987,786.5077,740.2739,787.4957,738.2995,788.3596,736.1617,788.8151,734.25,789.8359,734.2404,789.8118,736.1972,790.5039,738.2025,791.3172,740.2416,792.2148,742.1644,792.8219,744.25,793.8359,744.3805,793.9664,743.3014,792.8873,742.6034,792.1893,741.9518,791.5377,741.0298,790.6157,740.25,789.8359,740.2661,789.852,741.0425,789.0284,741.8921,788.278,742.7064,787.4923,743.588,786.7739,744.25,785.8359" style="stroke:#181818;stroke-width:1.0;"/><path d="M578.5,631.5762 L578.7802,631.5762 L577.9476,641.4675 L578.7577,651.3587 L579.0329,661.2499 L577.5488,671.1411 L578.3964,681.0324 L577.9313,690.9236 L577.9887,700.8148 L578.4091,710.7061 L577.5782,720.5973 L579.2382,730.4885 L577.6596,740.3797 L578.2363,750.271 L579.0759,760.1622 L578.3856,770.0534 L578.591,779.9447 L578.5,789.8359 " fill="#181818" style="stroke:#181818;stroke-width:4.0;"/><polygon fill="#181818" points="574.5,779.8359,574.565,779.8619,575.1718,781.7846,576.1598,783.8598,577.0237,785.8854,577.4792,787.7476,578.5,789.8359,578.4759,789.8263,579.168,787.7831,579.9813,785.7884,580.8789,783.8275,581.486,781.7503,582.5,779.8359,582.6305,779.9664,581.5514,780.4873,580.8534,781.3893,580.2018,782.3377,579.2798,783.0157,578.5,783.8359,578.5161,783.852,577.6925,783.0284,576.9421,782.278,576.1564,781.4923,575.438,780.7739,574.5,779.8359" style="stroke:#181818;stroke-width:1.0;"/><path d="M722.25,801.8359 L722.3434,801.8359 L722.0659,808.8359 L722.3359,815.8359 L722.4276,822.8359 L721.9329,829.8359 L722.25,836.8359 " fill="#181818" style="stroke:#181818;stroke-width:4.0;"/><polygon fill="#181818" points="718.25,826.8359,718.315,826.8619,718.9218,828.7846,719.9098,830.8598,720.7737,832.8854,721.2292,834.7476,722.25,836.8359,722.2259,836.8263,722.918,834.7831,723.7313,832.7884,724.6289,830.8275,725.236,828.7503,726.25,826.8359,726.3805,826.9664,725.3014,827.4873,724.6034,828.3893,723.9518,829.3377,723.0298,830.0157,722.25,830.8359,722.2661,830.852,721.4425,830.0284,720.6921,829.278,719.9064,828.4923,719.188,827.7739,718.25,826.8359" style="stroke:#181818;stroke-width:1.0;"/><path d="M1914.5,503.4271 L1914.7802,503.4271 L1913.9476,514.0356 L1914.7577,524.6441 L1915.0329,535.2526 L1913.5488,545.8612 L1914.3964,556.4697 L1913.9313,567.0782 L1914.5,577.6867 " fill="#181818" style="stroke:#181818;stroke-width:4.0;"/><polygon fill="#181818" points="1910.5,567.6867,1910.565,567.7127,1911.1718,569.6354,1912.1598,571.7107,1913.0237,573.7362,1913.4792,575.5984,1914.5,577.6867,1914.4759,577.6771,1915.168,575.6339,1915.9813,573.6393,1916.8789,571.6783,1917.486,569.6011,1918.5,567.6867,1918.6305,567.8172,1917.5514,568.3382,1916.8534,569.2401,1916.2018,570.1885,1915.2798,570.8665,1914.5,571.6867,1914.5161,571.7028,1913.6925,570.8792,1912.9421,570.1288,1912.1564,569.3431,1911.438,568.6248,1910.5,567.6867" style="stroke:#181818;stroke-width:1.0;"/><path d="M2022,488.1121 L2022,488.3924 L2031.9,487.5597 L2041.8,488.3699 L2051.7,488.6451 L2061.6,487.161 L2071.5,488.1121 " fill="#181818" style="stroke:#181818;stroke-width:4.0;"/><polygon fill="#181818" points="2067.5,591.3442,2067.565,591.3702,2068.1718,593.2929,2069.1598,595.3681,2070.0237,597.3937,2070.4792,599.2559,2071.5,601.3442,2071.4759,601.3346,2072.168,599.2914,2072.9813,597.2967,2073.8789,595.3358,2074.486,593.2586,2075.5,591.3442,2075.6305,591.4747,2074.5514,591.9956,2073.8534,592.8976,2073.2018,593.846,2072.2798,594.524,2071.5,595.3442,2071.5161,595.3603,2070.6925,594.5367,2069.9421,593.7863,2069.1564,593.0006,2068.438,592.2822,2067.5,591.3442" style="stroke:#181818;stroke-width:4.0;"/><path d="M2071.5,488.1121 L2071.7802,488.1121 L2070.9476,497.9584 L2071.7577,507.8047 L2072.0329,517.6509 L2070.5488,527.4972 L2071.3964,537.3435 L2070.9313,547.1897 L2070.9887,557.036 L2071.4091,566.8823 L2070.5782,576.7285 L2072.2382,586.5748 L2070.6596,596.4211 L2071.2363,606.2673 L2072.0759,616.1136 L2071.3856,625.9598 L2071.591,635.8061 L2071.4574,645.6524 L2071.738,655.4986 L2071.8188,665.3449 L2072.2809,675.1912 L2072.3947,685.0374 L2072.4057,694.8837 L2071.8395,704.73 L2071.5,714.5762 " fill="#181818" style="stroke:#181818;stroke-width:4.0;"/><path d="M2071.5,714.5762 L2071.5,714.8565 L2061.8333,714.0238 L2052.1667,714.8339 L2042.5,715.1091 L2032.8333,713.625 L2023.1667,714.4726 L2013.5,714.0076 L2003.8333,714.0649 L1994.1667,714.4854 L1984.5,713.6544 L1974.8333,715.3144 L1965.1667,713.7359 L1955.5,714.3125 L1945.8333,715.1522 L1936.1667,714.4619 L1926.5,714.5762 " fill="#181818" style="stroke:#181818;stroke-width:4.0;"/><polygon fill="#181818" points="1936.5,710.5762,1936.526,710.6413,1934.4487,711.248,1932.5239,712.236,1930.5495,713.0999,1928.4117,713.5554,1926.5,714.5762,1926.4904,714.5522,1928.4472,715.2442,1930.4525,716.0575,1932.4916,716.9551,1934.4144,717.5623,1936.5,718.5762,1936.6305,718.7067,1935.5514,717.6277,1934.8534,716.9296,1934.2018,716.278,1933.2798,715.356,1932.5,714.5762,1932.5161,714.5923,1933.2925,713.7687,1934.1421,713.0183,1934.9564,712.2326,1935.838,711.5143,1936.5,710.5762" style="stroke:#181818;stroke-width:1.0;"/><path d="M1914.5,628.3166 L1914.7802,628.3166 L1913.9476,638.9251 L1914.7577,649.5336 L1915.0329,660.1421 L1913.5488,670.7507 L1914.3964,681.3592 L1913.9313,691.9677 L1914.5,702.5762 " fill="#181818" style="stroke:#181818;stroke-width:4.0;"/><polygon fill="#181818" points="1910.5,692.5762,1910.565,692.6022,1911.1718,694.5249,1912.1598,696.6002,1913.0237,698.6257,1913.4792,700.4879,1914.5,702.5762,1914.4759,702.5666,1915.168,700.5234,1915.9813,698.5288,1916.8789,696.5678,1917.486,694.4906,1918.5,692.5762,1918.6305,692.7067,1917.5514,693.2277,1916.8534,694.1296,1916.2018,695.078,1915.2798,695.756,1914.5,696.5762,1914.5161,696.5923,1913.6925,695.7687,1912.9421,695.0183,1912.1564,694.2326,1911.438,693.5143,1910.5,692.5762" style="stroke:#181818;stroke-width:1.0;"/><path d="M1914.5,437.7972 L1914.5934,437.7972 L1914.3159,444.7972 L1914.5859,451.7972 L1914.6776,458.7972 L1914.1829,465.7972 L1914.5,472.7972 " fill="#181818" style="stroke:#181818;stroke-width:4.0;"/><polygon fill="#181818" points="1910.5,462.7972,1910.565,462.8232,1911.1718,464.7459,1912.1598,466.8212,1913.0237,468.8467,1913.4792,470.7089,1914.5,472.7972,1914.4759,472.7876,1915.168,470.7444,1915.9813,468.7498,1916.8789,466.7888,1917.486,464.7116,1918.5,462.7972,1918.6305,462.9277,1917.5514,463.4487,1916.8534,464.3506,1916.2018,465.299,1915.2798,465.977,1914.5,466.7972,1914.5161,466.8133,1913.6925,465.9897,1912.9421,465.2393,1912.1564,464.4536,1911.438,463.7353,1910.5,462.7972" style="stroke:#181818;stroke-width:1.0;"/><path d="M1914.5,726.5762 L1914.5934,726.5762 L1914.3159,730.5762 L1914.5859,734.5762 L1914.6776,738.5762 L1914.1829,742.5762 L1914.5,746.5762 " fill="#181818" style="stroke:#181818;stroke-width:4.0;"/><polygon fill="#181818" points="1910.5,736.5762,1910.565,736.6022,1911.1718,738.5249,1912.1598,740.6002,1913.0237,742.6257,1913.4792,744.4879,1914.5,746.5762,1914.4759,746.5666,1915.168,744.5234,1915.9813,742.5288,1916.8789,740.5678,1917.486,738.4906,1918.5,736.5762,1918.6305,736.7067,1917.5514,737.2277,1916.8534,738.1296,1916.2018,739.078,1915.2798,739.756,1914.5,740.5762,1914.5161,740.5923,1913.6925,739.7687,1912.9421,739.0183,1912.1564,738.2326,1911.438,737.5143,1910.5,736.5762" style="stroke:#181818;stroke-width:1.0;"/><path d="M822,222.0956 L822,222.3758 L812.025,221.5432 L802.05,222.3533 L792.075,222.6285 L782.1,221.1444 L772.125,221.992 L762.15,221.5269 L752.175,221.5842 L742.2,222.0047 L732.225,221.1738 L722.25,222.0956 " fill="#181818" style="stroke:#181818;stroke-width:4.0;"/><path d="M722.25,222.0956 L722.5302,222.0956 L721.6976,231.8807 L722.5077,241.6657 L722.7829,251.4508 L721.2988,261.2359 L722.1464,271.021 L721.6813,280.8061 L721.7387,290.5912 L722.1591,300.3762 L721.3282,310.1613 L722.9882,319.9464 L721.4096,329.7315 L721.9863,339.5166 L722.8259,349.3017 L722.1356,359.0867 L722.341,368.8718 L722.2074,378.6569 L722.488,388.442 L722.5688,398.2271 L723.0309,408.0121 L722.25,417.7972 " fill="#181818" style="stroke:#181818;stroke-width:4.0;"/><polygon fill="#181818" points="718.25,407.7972,718.315,407.8232,718.9218,409.7459,719.9098,411.8212,720.7737,413.8467,721.2292,415.7089,722.25,417.7972,722.2259,417.7876,722.918,415.7444,723.7313,413.7498,724.6289,411.7888,725.236,409.7116,726.25,407.7972,726.3805,407.9277,725.3014,408.4487,724.6034,409.3506,723.9518,410.299,723.0298,410.977,722.25,411.7972,722.2661,411.8133,721.4425,410.9897,720.6921,410.2393,719.9064,409.4536,719.188,408.7353,718.25,407.7972" style="stroke:#181818;stroke-width:1.0;"/><text fill="#000000" font-family="Chalkduster" font-size="24" lengthAdjust="spacing" textLength="175" x="722.25" y="307.1702">Data storage</text><text fill="#000000" font-family="Chalkduster" font-size="24" lengthAdjust="spacing" textLength="529" x="722.25" y="337.8">- choose compliant repo/cms solution</text><path d="M1275,222.0956 L1275,222.3758 L1284.9922,221.5432 L1294.9844,222.3533 L1304.9766,222.6285 L1314.9688,221.1444 L1324.9609,221.992 L1334.9531,221.5269 L1344.9453,221.5842 L1354.9375,222.0047 L1364.9297,221.1738 L1374.9219,222.8338 L1384.9141,221.2552 L1394.9063,221.8319 L1404.8984,222.6715 L1414.8906,221.9812 L1424.8828,222.1866 L1434.875,222.053 L1444.8672,222.3336 L1454.8594,222.4144 L1464.8516,222.8765 L1474.8438,222.9903 L1484.8359,223.0013 L1494.8281,222.4351 L1504.8203,222.7137 L1514.8125,223.0319 L1524.8047,221.134 L1534.7969,223.0003 L1544.7891,221.7002 L1554.7813,222.8073 L1564.7734,221.4355 L1574.7656,222.0042 L1584.7578,223.0844 L1594.75,222.0306 L1604.7422,222.236 L1614.7344,222.5471 L1624.7266,222.6506 L1634.7188,222.0904 L1644.7109,222.4785 L1654.7031,221.3324 L1664.6953,222.4748 L1674.6875,222.8265 L1684.6797,222.6883 L1694.6719,222.9129 L1704.6641,221.4515 L1714.6563,221.226 L1724.6484,221.267 L1734.6406,222.0171 L1744.6328,221.8335 L1754.625,223.0041 L1764.6172,221.8627 L1774.6094,221.6382 L1784.6016,222.3999 L1794.5938,221.2065 L1804.5859,221.4034 L1814.5781,222.9608 L1824.5703,222.6765 L1834.5625,223.0749 L1844.5547,221.6665 L1854.5469,222.5212 L1864.5391,222.8828 L1874.5313,221.4657 L1884.5234,221.9678 L1894.5156,222.2636 L1904.5078,222.9646 L1914.5,222.0956 " fill="#181818" style="stroke:#181818;stroke-width:4.0;"/><path d="M1914.5,222.0956 L1914.7802,222.0956 L1913.9476,231.8057 L1914.7577,241.5158 L1915.0329,251.2259 L1913.5488,260.936 L1914.3964,270.6461 L1913.9313,280.3562 L1913.9887,290.0663 L1914.4091,299.7764 L1913.5782,309.4865 L1915.2382,319.1966 L1913.6596,328.9068 L1914.2363,338.6169 L1915.0759,348.327 L1914.3856,358.0371 L1914.591,367.7472 L1914.4574,377.4573 L1914.5,387.1674 " fill="#181818" style="stroke:#181818;stroke-width:4.0;"/><polygon fill="#181818" points="1910.5,377.1674,1910.565,377.1934,1911.1718,379.1161,1912.1598,381.1913,1913.0237,383.2169,1913.4792,385.0791,1914.5,387.1674,1914.4759,387.1578,1915.168,385.1146,1915.9813,383.1199,1916.8789,381.159,1917.486,379.0818,1918.5,377.1674,1918.6305,377.2979,1917.5514,377.8188,1916.8534,378.7208,1916.2018,379.6692,1915.2798,380.3472,1914.5,381.1674,1914.5161,381.1835,1913.6925,380.3599,1912.9421,379.6095,1912.1564,378.8238,1911.438,378.1054,1910.5,377.1674" style="stroke:#181818;stroke-width:1.0;"/><text fill="#000000" font-family="Chalkduster" font-size="24" lengthAdjust="spacing" textLength="126" x="1914.5" y="307.1702">Analytics</text><path d="M722.25,887.4657 L722.5302,887.4657 L721.6976,896.9314 L722.5077,906.3971 L722.7829,915.8627 L721.2988,925.3284 L722.1464,934.7941 L721.6813,944.2597 L722.25,953.7254 " fill="#181818" style="stroke:#181818;stroke-width:4.0;"/><path d="M722.25,953.7254 L722.25,954.0056 L732.3871,953.173 L742.5242,953.9831 L752.6613,954.2583 L762.7984,952.7742 L772.9355,953.6218 L783.0726,953.1567 L793.2097,953.2141 L803.3468,953.6345 L813.4839,952.8036 L823.621,954.4636 L833.7581,952.885 L843.8952,953.4617 L854.0323,954.3013 L864.1694,953.611 L874.3065,953.8164 L884.4435,953.6828 L894.5806,953.9634 L904.7177,954.0442 L914.8548,954.5063 L924.9919,954.6201 L935.129,954.6311 L945.2661,954.0649 L955.4032,954.3435 L965.5403,954.6617 L975.6774,952.7638 L985.8145,954.6301 L995.9516,953.3301 L1006.0887,954.4371 L1016.2258,953.0654 L1026.3629,953.6341 L1036.5,953.7254 " fill="#181818" style="stroke:#181818;stroke-width:4.0;"/><polygon fill="#181818" points="1026.5,949.7254,1026.526,949.7904,1028.4487,950.3972,1030.5239,951.3852,1032.5495,952.2491,1034.4117,952.7046,1036.5,953.7254,1036.4904,953.7013,1034.4472,954.3934,1032.4525,955.2067,1030.4916,956.1043,1028.4144,956.7114,1026.5,957.7254,1026.6305,957.8559,1027.1514,956.7768,1028.0534,956.0788,1029.0018,955.4272,1029.6798,954.5052,1030.5,953.7254,1030.5161,953.7415,1029.6925,952.9179,1028.9421,952.1675,1028.1564,951.3818,1027.438,950.6634,1026.5,949.7254" style="stroke:#181818;stroke-width:1.0;"/><path d="M1914.5,919.7254 L1914.5934,919.7254 L1914.3159,926.5254 L1914.5859,933.3254 L1914.6776,940.1254 L1914.1829,946.9254 L1914.5,953.7254 " fill="#181818" style="stroke:#181818;stroke-width:4.0;"/><path d="M1914.5,953.7254 L1914.5,954.0056 L1904.4529,953.173 L1894.4059,953.9831 L1884.3588,954.2583 L1874.3118,952.7742 L1864.2647,953.6218 L1854.2176,953.1567 L1844.1706,953.2141 L1834.1235,953.6345 L1824.0765,952.8036 L1814.0294,954.4636 L1803.9824,952.885 L1793.9353,953.4617 L1783.8882,954.3013 L1773.8412,953.611 L1763.7941,953.8164 L1753.7471,953.6828 L1743.7,953.9634 L1733.6529,954.0442 L1723.6059,954.5063 L1713.5588,954.6201 L1703.5118,954.6311 L1693.4647,954.0649 L1683.4176,954.3435 L1673.3706,954.6617 L1663.3235,952.7638 L1653.2765,954.6301 L1643.2294,953.3301 L1633.1824,954.4371 L1623.1353,953.0654 L1613.0882,953.6341 L1603.0412,954.7142 L1592.9941,953.6604 L1582.9471,953.8658 L1572.9,954.1769 L1562.8529,954.2804 L1552.8059,953.7202 L1542.7588,954.1083 L1532.7118,952.9622 L1522.6647,954.1046 L1512.6176,954.4563 L1502.5706,954.3181 L1492.5235,954.5428 L1482.4765,953.0813 L1472.4294,952.8558 L1462.3824,952.8969 L1452.3353,953.6469 L1442.2882,953.4634 L1432.2412,954.6339 L1422.1941,953.4925 L1412.1471,953.268 L1402.1,954.0298 L1392.0529,952.8363 L1382.0059,953.0332 L1371.9588,954.5907 L1361.9118,954.3063 L1351.8647,954.7047 L1341.8176,953.2963 L1331.7706,954.151 L1321.7235,954.5126 L1311.6765,953.0955 L1301.6294,953.5976 L1291.5824,953.8934 L1281.5353,954.5944 L1271.4882,953.7198 L1261.4412,954.3422 L1251.3941,952.987 L1241.3471,952.8224 L1231.3,954.3969 L1221.2529,952.7695 L1211.2059,954.404 L1201.1588,954.0009 L1191.1118,953.3682 L1181.0647,953.2537 L1171.0176,954.3371 L1160.9706,953.3263 L1150.9235,954.5145 L1140.8765,952.9884 L1130.8294,954.5486 L1120.7824,954.3711 L1110.7353,954.052 L1100.6882,953.7884 L1090.6412,954.6942 L1080.5941,954.5435 L1070.5471,953.9511 L1060.5,953.7254 " fill="#181818" style="stroke:#181818;stroke-width:4.0;"/><polygon fill="#181818" points="1070.5,949.7254,1070.526,949.7904,1068.4487,950.3972,1066.5239,951.3852,1064.5495,952.2491,1062.4117,952.7046,1060.5,953.7254,1060.4904,953.7013,1062.4472,954.3934,1064.4525,955.2067,1066.4916,956.1043,1068.4144,956.7114,1070.5,957.7254,1070.6305,957.8559,1069.5514,956.7768,1068.8534,956.0788,1068.2018,955.4272,1067.2798,954.5052,1066.5,953.7254,1066.5161,953.7415,1067.2925,952.9179,1068.1421,952.1675,1068.9564,951.3818,1069.838,950.6634,1070.5,949.7254" style="stroke:#181818;stroke-width:1.0;"/><path d="M1048.5,130.521 L1048.7802,130.521 L1047.9476,139.647 L1048.7577,148.7729 L1049.0329,157.8989 L1047.5488,167.0249 L1048.5,176.1508 " fill="#181818" style="stroke:#181818;stroke-width:4.0;"/><polygon fill="#181818" points="1044.5,166.1508,1044.565,166.1768,1045.1718,168.0995,1046.1598,170.1748,1047.0237,172.2003,1047.4792,174.0625,1048.5,176.1508,1048.4759,176.1412,1049.168,174.098,1049.9813,172.1034,1050.8789,170.1424,1051.486,168.0652,1052.5,166.1508,1052.6305,166.2813,1051.5514,166.8023,1050.8534,167.7042,1050.2018,168.6526,1049.2798,169.3306,1048.5,170.1508,1048.5161,170.1669,1047.6925,169.3433,1046.9421,168.5929,1046.1564,167.8072,1045.438,167.0889,1044.5,166.1508" style="stroke:#181818;stroke-width:1.0;"/><path d="M1048.5,965.7254 L1048.5934,965.7254 L1048.3159,969.7254 L1048.5859,973.7254 L1048.6776,977.7254 L1048.1829,981.7254 L1048.5,985.7254 " fill="#181818" style="stroke:#181818;stroke-width:4.0;"/><polygon fill="#181818" points="1044.5,975.7254,1044.565,975.7514,1045.1718,977.6741,1046.1598,979.7493,1047.0237,981.7749,1047.4792,983.6371,1048.5,985.7254,1048.4759,985.7158,1049.168,983.6726,1049.9813,981.6779,1050.8789,979.717,1051.486,977.6398,1052.5,975.7254,1052.6305,975.8559,1051.5514,976.3768,1050.8534,977.2788,1050.2018,978.2272,1049.2798,978.9052,1048.5,979.7254,1048.5161,979.7415,1047.6925,978.9179,1046.9421,978.1675,1046.1564,977.3818,1045.438,976.6634,1044.5,975.7254" style="stroke:#181818;stroke-width:1.0;"/><!--SRC=[VLHHQzim47xthxYnXoGmDuyRwKF9aWNAIZsQbhu4XYoVdIEoP7HoMpFsttTIqZGfPSBWatI-x-xxxlo9h3PzXRzRPGUuc5OggDoeCkSm6BnegonGC3Y3TN1-cC5eiRoXUY3RZ411XRmBhWFduHbBK5sNPHoK3vbr0S5JimtPdBblkq3EpY1iYQCRoAj4YGBQMQOAFLPGInW93sIVa4EBDcJVKQkU4IZ0LiLFj6jHJ5z1SC2zW96Dy1Lny5Js0JEq5KHuIUMPWjx2U8sTyYf85HixjyeCWRGo0jrspWeCG-rTkx7Q6OCwI5fJbd9LWoS-aopJIb8PBuKYEDnlR0vwwnplFGqf6y1ZvwQwPM1d-bZt91DyuL5C-CoT5u368rgu4q-co2p0dmpWDU6vriWCKs394mKPPEtH5qUOohLIVCuTQgf9Rsp2ZUJYYx0X2SDXpHuIXPSdOTQjCYPliQA-XMB-phT1YvvqgcHZnzXCe6Xnfs1z6kD6-GQdgMvy4H4sTeqYPg0dV1VlxcudXvV7mzGT1kjmF8ahFwopm-BX7eeLh1V5hnzNL__tFogVp3sPOi-IOfr7Hl-aIYDS2FL5leWzSPdzFUZwsXby9jTgjVYw_0QFpk-uKngJJX9pHG8skhO1Ky_qgPyyZlP5KYtqKEcL9-Iz7XDfVf5yF20V14KJOQqx8UlHap1ZyHbC-deOy-G3sk2CX-iQf8sOfB8lvpVu4Y8doiRdtOsa5ETFQjh5HZ-x5SNXzkR-v-GZQjE6wZqDXSKuVgsKFel3S2i-fNExQCVkXixq3TcuNGSbxCe_epDkYDCT3vTfbqHPE1kd6NsKv4s_k6JQkdy0]--></g></svg>