<?xml version="1.0" encoding="us-ascii" standalone="no"?><svg xmlns="http://www.w3.org/2000/svg" xmlns:xlink="http://www.w3.org/1999/xlink" contentStyleType="text/css" height="984px" preserveAspectRatio="none" style="width:1874px;height:984px;background:#FFFFFF;" version="1.1" viewBox="0 0 1874 984" width="1874px" zoomAndPan="magnify"><defs/><g><text fill="#000000" font-family="Chalkduster" font-size="42" font-weight="bold" lengthAdjust="spacing" textLength="764" x="553.75" y="61.7215">Story: 'CDLifying' a desktop app</text><path d="M962.25,84.8912 L962.4368,84.8912 L961.8817,91.2171 L962.4218,97.5431 L962.6053,103.8691 L961.6159,110.195 L962.25,116.521 L962.2365,116.4533 L958.1757,116.9493 L954.1831,117.7867 L950.2381,118.8616 L946.1295,119.1184 L942.25,120.521 L942.3465,121.0036 L946.1401,120.7716 L950.2155,121.9486 L954.3253,123.2975 L958.235,123.6462 L962.25,124.521 L962.3107,124.521 L962.2216,130.847 L962.4087,137.1729 L962.4626,143.4989 L962.7706,149.8249 L962.25,156.1508 L962.25,156.1508 L962.25,157.9403 L972.2267,157.9622 L982.2035,156.8298 L992.1802,157.3871 L1002.157,158.0234 L1012.1337,154.2277 L1022.1105,157.9602 L1032.0872,155.3602 L1042.064,157.5743 L1052.0407,154.8308 L1062.0174,155.9682 L1071.9942,158.1284 L1081.9709,156.0209 L1091.9477,156.4316 L1101.9244,157.0538 L1111.9012,157.2608 L1121.8779,156.1404 L1131.8547,156.9167 L1141.8314,154.6244 L1151.8081,156.9092 L1161.7849,157.6127 L1171.7616,157.3362 L1181.7384,157.7856 L1191.7151,154.8626 L1201.6919,154.4117 L1211.6686,154.4938 L1221.6453,155.9938 L1231.6221,155.6268 L1241.5988,157.9679 L1251.5756,155.685 L1261.5523,155.236 L1271.5291,156.7595 L1281.5058,154.3726 L1291.4826,154.7665 L1301.4593,157.8814 L1311.436,157.3126 L1321.4128,158.1095 L1331.3895,155.2927 L1341.3663,157.002 L1351.343,157.7253 L1361.3198,154.8911 L1371.2965,155.8952 L1381.2733,156.4868 L1391.25,157.8889 L1401.2267,156.1397 L1411.2035,157.3843 L1421.1802,154.6741 L1431.157,154.3448 L1441.1337,157.4938 L1451.1105,154.239 L1461.0872,157.5081 L1471.064,156.7018 L1481.0407,155.4364 L1491.0174,155.2074 L1500.9942,157.3742 L1510.9709,155.3526 L1520.9477,157.7291 L1530.9244,154.6768 L1540.9012,157.7973 L1550.8779,157.4423 L1560.8547,156.8041 L1570.8314,156.2767 L1580.8081,158.0885 L1590.7849,157.787 L1600.7616,156.6022 L1610.7384,156.866 L1620.7151,155.8035 L1630.6919,158.0614 L1640.6686,156.5638 L1650.6453,156.611 L1660.6221,154.5286 L1670.5988,155.0702 L1680.5756,157.5662 L1690.5523,157.2969 L1700.5291,156.0363 L1710.5058,155.2917 L1720.4826,155.567 L1730.4593,154.321 L1740.436,157.2568 L1750.4128,158.123 L1760.3895,157.5545 L1770.3663,158.004 L1780.343,155.7862 L1790.3198,156.3834 L1800.2965,155.1172 L1810.2733,156.9083 L1820.25,156.1508 L1820.25,156.1508 L1820.908,156.1508 L1821.723,145.9409 L1819.6376,135.7309 L1819.8916,125.521 L1821.4326,115.311 L1821.7629,105.1011 L1820.25,94.8912 L1819.9279,94.569 L1818.1281,92.7693 L1816.3438,90.985 L1813.8661,88.5072 L1812.4721,87.1133 L1810.25,84.8912 L1810.25,85.5791 L1800.2735,84.6225 L1790.2971,85.2705 L1780.3206,86.8343 L1770.3441,84.0568 L1760.3676,85.7311 L1750.3912,85.6529 L1740.4147,85.1999 L1730.4382,85.267 L1720.4618,85.1938 L1710.4853,83.2267 L1700.5088,83.8223 L1690.5324,83.6604 L1680.5559,85.0614 L1670.5794,85.1262 L1660.6029,85.3225 L1650.6265,84.1152 L1640.65,84.7111 L1630.6735,84.5706 L1620.6971,86.4294 L1610.7206,86.0287 L1600.7441,83.5964 L1590.7676,84.6967 L1580.7912,83.3519 L1570.8147,85.6602 L1560.8382,86.5138 L1550.8618,86.3433 L1540.8853,83.7297 L1530.9088,86.1284 L1520.9324,82.9103 L1510.9559,85.4249 L1500.9794,84.093 L1491.0029,85.1491 L1481.0265,85.5321 L1471.05,86.1501 L1461.0735,82.9714 L1451.0971,86.1591 L1441.1206,85.3663 L1431.1441,85.8387 L1421.1676,86.8853 L1411.1912,84.9058 L1401.2147,85.3586 L1391.2382,85.4603 L1381.2618,85.4171 L1371.2853,84.889 L1361.3088,86.7864 L1351.3324,83.2652 L1341.3559,86.3986 L1331.3794,83.2272 L1321.4029,83.4503 L1311.4265,84.9979 L1301.45,84.9666 L1291.4735,83.5769 L1281.4971,85.9944 L1271.5206,85.1814 L1261.5441,86.8289 L1251.5676,86.6701 L1241.5912,83.6958 L1231.6147,83.83 L1221.6382,84.5467 L1211.6618,85.8392 L1201.6853,85.9658 L1191.7088,85.6942 L1181.7324,83.9793 L1171.7559,86.5881 L1161.7794,86.5813 L1151.8029,84.7651 L1141.8265,84.2537 L1131.85,83.8208 L1121.8735,84.3189 L1111.8971,85.2576 L1101.9206,84.7088 L1091.9441,83.777 L1081.9676,86.1908 L1071.9912,83.6673 L1062.0147,86.2308 L1052.0382,86.0305 L1042.0618,85.8828 L1032.0853,86.7378 L1022.1088,84.2355 L1012.1324,84.0894 L1002.1559,86.2748 L992.1794,83.2994 L982.2029,84.2672 L972.2265,85.1991 L962.25,84.8912 L962.25,84.8912 " fill="none" style="stroke:#181818;stroke-width:4.0;"/><path d="M1810.25,84.8912 L1810.4368,84.8912 L1809.8817,86.8912 L1810.4218,88.8912 L1810.6053,90.8912 L1809.6159,92.8912 L1810.25,94.8912 L1810.25,94.8221 L1812.25,94.5121 L1814.25,94.5503 L1816.25,94.8306 L1818.25,94.2766 L1820.25,94.8912 L1820.598,95.2391 L1817.8538,92.495 L1816.1257,90.7669 L1814.5215,89.1627 L1812.1961,86.8372 L1810.25,84.8912 " fill="none" style="stroke:#181818;stroke-width:4.0;"/><text fill="#000000" font-family="Chalkduster" font-size="24" lengthAdjust="spacing" textLength="837" x="968.25" y="113.732">Assumption: this app is being considered for CDL investment</text><text fill="#000000" font-family="Chalkduster" font-size="24" lengthAdjust="spacing" textLength="712" x="968.25" y="144.3619">Because it has become hard to sustain or distribute</text><polygon fill="#222222" points="942.3052,122.9534,940.8394,124.9563,939.1056,127.8898,936.626,129.8668,934.0203,130.9479,931.9427,131.0417,929.2724,129.6897,926.7529,128.8064,924.8405,127.013,923.8373,124.9599,923.2424,123.3251,922.6596,121.1898,921.7136,119.3523,922.4406,117.5583,923.0775,115.593,925.4675,114.0387,927.1491,112.022,929.2304,111.3523,931.7047,110.7756,934.8776,111.1182,936.6155,111.9378,938.6361,112.3093,941.0929,114.8264,941.9493,117.4837,942.3214,119.2968,941.9,122.2845" style="stroke:#222222;stroke-width:1.0;"/><polygon fill="#F1F1F1" points="717.75,176.1508,717.75,176.361,727.7267,175.7365,737.7035,176.3441,747.6802,176.5505,757.657,175.4374,767.6337,176.0731,777.6105,175.7243,787.5872,175.7673,797.564,176.0827,807.5407,175.4595,817.5174,176.7045,827.4942,175.5205,837.4709,175.9531,847.4477,176.5828,857.4244,176.0651,867.4012,176.2191,877.3779,176.1189,887.3547,176.3294,897.3314,176.39,907.3081,176.7365,917.2849,176.8219,927.2616,176.8301,937.2384,176.4055,947.2151,176.6144,957.1919,176.8531,967.1686,175.4296,977.1453,176.8293,987.1221,175.8543,997.0988,176.6846,1007.0756,175.6558,1017.0523,176.0823,1027.0291,176.8924,1037.0058,176.1021,1046.9826,176.2561,1056.9593,176.4895,1066.936,176.5671,1076.9128,176.1469,1086.8895,176.438,1096.8663,175.5784,1106.843,176.4352,1116.8198,176.699,1126.7965,176.5954,1136.7733,176.7639,1146.75,176.1508,1146.2826,176.0288,1148.519,185.175,1150.9488,194.3717,1153.893,203.7028,1156.1599,212.857,1158.75,222.0956,1159.4093,222.2678,1156.181,231.2404,1153.6181,240.3868,1151.7709,249.7201,1148.5048,258.6829,1146.75,268.0403,1146.75,267.5212,1136.7733,268.6893,1126.7965,268.476,1116.8198,268.7748,1106.843,267.7185,1096.8663,268.3595,1086.8895,268.6307,1076.9128,267.5679,1066.936,267.9445,1056.9593,268.1663,1046.9826,268.6921,1037.0058,268.0361,1027.0291,268.5029,1017.0523,267.4865,1007.0756,267.3631,997.0988,268.5439,987.1221,267.3234,977.1453,268.5493,967.1686,268.247,957.1919,267.7724,947.2151,267.6866,937.2384,268.4991,927.2616,267.741,917.2849,268.6322,907.3081,267.4876,897.3314,268.6578,887.3547,268.5246,877.3779,268.2853,867.4012,268.0875,857.4244,268.7669,847.4477,268.6539,837.4709,268.2096,827.4942,268.3085,817.5174,267.9101,807.5407,268.7568,797.564,268.1952,787.5872,268.2129,777.6105,267.432,767.6337,267.6351,757.657,268.5711,747.6802,268.4701,737.7035,267.9974,727.7267,267.7182,717.75,268.0403,717.5382,267.985,714.6861,258.678,713.3513,249.7672,711.2656,240.6604,708.6593,231.4176,705.75,222.0956,706.4224,222.2712,708.0177,212.8721,710.6344,203.7397,712.575,194.4308,715.6248,185.4116,717.75,176.1508" style="stroke:#181818;stroke-width:0.5;"/><text fill="#000000" font-family="Chalkduster" font-size="24" lengthAdjust="spacing" textLength="123" x="717.75" y="199.9917">Separate:</text><text fill="#000000" font-family="Chalkduster" font-size="24" lengthAdjust="spacing" textLength="395" x="717.75" y="230.6215">Analytical components from</text><text fill="#000000" font-family="Chalkduster" font-size="24" lengthAdjust="spacing" textLength="429" x="717.75" y="261.2514">collecting/storage components</text><polygon fill="#F1F1F1" points="479.75,387.2983,479.75,387.5085,489.6,386.884,499.45,387.4916,509.3,387.698,519.15,386.5849,529,387.2206,538.85,386.8718,548.7,386.9148,558.55,387.2302,568.4,386.607,578.25,387.852,588.1,386.6681,597.95,387.1006,607.8,387.7303,617.65,387.2126,627.5,387.3666,637.35,387.2664,647.2,387.4769,657.05,387.5375,666.9,387.884,676.75,387.2983,676.9261,387.4363,679.3282,390.501,681.6168,393.4767,684.0716,396.5826,686.5343,399.6946,688.75,402.6133,688.5608,402.465,686.528,405.8157,683.8722,408.6783,681.6901,411.9119,679.0201,414.7634,676.75,417.9282,676.75,417.8597,666.9,418.6698,657.05,417.8794,647.2,418.0335,637.35,418.2668,627.5,418.3444,617.65,417.9243,607.8,418.2154,597.95,417.3558,588.1,418.2126,578.25,418.4764,568.4,418.3727,558.55,418.5412,548.7,417.4451,538.85,417.276,529,417.3068,519.15,417.8693,509.3,417.7316,499.45,418.6096,489.6,417.7535,479.75,417.9282,479.66,417.8576,477.4099,414.9121,474.775,411.6651,472.4138,408.6325,470.3203,405.8097,467.75,402.6133,467.8643,402.7028,470.3427,399.7013,472.4656,396.4211,475.0338,393.4899,477.5049,390.4827,479.75,387.2983" style="stroke:#181818;stroke-width:0.5;"/><text fill="#000000" font-family="Chalkduster" font-size="24" lengthAdjust="spacing" textLength="197" x="479.75" y="411.1392">Access / scale</text><polygon fill="#F1F1F1" points="23.5,611.7072,23.5,611.9173,33.6429,611.2928,43.7857,611.9005,53.9286,612.1068,64.0714,610.9938,74.2143,611.6295,84.3571,611.2807,94.5,611.7072,94.4511,611.5891,96.2591,612.4184,97.9473,612.9587,99.8739,614.0744,101.4907,614.442,103.3388,615.3683,103.2779,615.3431,104.2041,617.1912,104.7769,618.8929,105.5565,620.6803,106.2579,622.4353,107,624.2072,107.0595,624.2072,107.0797,629.3331,107.1952,634.4591,107.2237,639.5851,107.2264,644.711,107,649.837,107.0784,649.8695,106.4105,651.6639,105.7518,653.4621,104.5812,655.0483,104.28,656.9946,103.3388,658.6758,103.301,658.5845,101.6392,659.5725,99.7402,659.9879,98.0268,660.8514,96.3624,661.8332,94.5,662.337,94.5,662.2883,84.3571,662.4423,74.2143,662.6756,64.0714,662.7532,53.9286,662.3331,43.7857,662.6242,33.6429,661.7646,23.5,662.337,23.5363,662.4246,21.8022,661.7736,20.0212,661.0094,18.2749,660.3291,16.3673,659.2593,14.6612,658.6758,14.4603,658.5926,13.7376,656.8288,13.1786,655.1328,12.4039,653.3475,11.9421,651.6917,11,649.837,10.9418,649.837,10.8856,644.711,11.0761,639.5851,10.7777,634.4591,10.827,629.3331,11,624.2072,11.1999,624.2899,11.8664,622.495,12.6907,620.7653,13.0976,618.8628,14.0272,617.1768,14.6612,615.3683,14.7365,615.5502,16.3687,614.4906,18.1845,613.8743,19.9805,613.2104,21.8154,612.6401,23.5,611.7072" style="stroke:#181818;stroke-width:0.5;"/><text fill="#000000" font-family="Chalkduster" font-size="24" lengthAdjust="spacing" textLength="76" x="21" y="645.5481">Use it</text><polygon fill="#F1F1F1" points="319.5,550.4475,319.5,550.6577,329.6818,550.0332,339.8636,550.6408,350.0455,550.8472,360.2273,549.7341,370.4091,550.3698,380.5909,550.021,390.7727,550.064,400.9545,550.3793,411.1364,549.7561,421.3182,551.0011,431.5,549.8172,441.6818,550.2497,451.8636,550.8794,462.0455,550.3617,472.2273,550.5157,482.4091,550.4156,492.5909,550.626,502.7727,550.6866,512.9545,551.0332,523.1364,551.1186,533.3182,551.1268,543.5,550.4475,543.5325,550.5259,545.3269,551.3225,547.1251,552.1282,548.7113,552.4221,550.6576,553.5854,552.3388,554.1087,552.2475,554.0708,553.2355,555.9445,553.6509,557.5811,554.5144,559.4032,555.4962,561.2743,556,562.9475,555.9513,562.9475,556.1053,572.3241,556.3386,581.7007,556.4162,591.0773,555.9961,600.4539,556.2872,609.8306,556,619.2072,555.8237,619.1341,555.3553,621.0112,554.7044,622.8126,553.9402,624.5672,553.2599,626.3564,552.3388,628.046,552.2772,627.8972,550.4879,628.5774,548.724,629.3191,547.028,630.2246,545.2427,630.9144,543.5,631.7072,543.5,632.3886,533.3182,631.5325,523.1364,631.3641,512.9545,631.9354,502.7727,631.0403,492.5909,631.188,482.4091,632.3561,472.2273,632.1428,462.0455,632.4417,451.8636,631.3854,441.6818,632.0264,431.5,632.2976,421.3182,631.2348,411.1364,631.6113,400.9545,631.8332,390.7727,632.3589,380.5909,631.703,370.4091,632.1697,360.2273,631.1534,350.0455,631.0299,339.8636,632.2108,329.6818,630.9902,319.5,631.7072,319.5649,631.8639,317.7586,631.0386,315.9303,630.1602,314.1516,629.4015,312.4875,628.9195,310.6612,628.046,310.569,628.0078,310.1112,626.3537,309.0265,624.44,308.6546,622.8215,307.8814,621.0367,307,619.2072,307.245,619.2072,307.0472,609.8306,307.7266,600.4539,307.6136,591.0773,307.1693,581.7007,307.2682,572.3241,307,562.9475,306.9599,562.9309,307.9529,561.2711,308.5122,559.4317,309.2498,557.6662,309.7416,555.7988,310.6612,554.1087,310.6095,553.9839,312.4966,553.5399,314.2515,552.7765,315.959,551.8987,317.6911,551.0805,319.5,550.4475" style="stroke:#181818;stroke-width:0.5;"/><text fill="#000000" font-family="Chalkduster" font-size="24" lengthAdjust="spacing" textLength="229" x="317" y="584.2884">Use generic repo</text><text fill="#000000" font-family="Chalkduster" font-size="24" lengthAdjust="spacing" textLength="182" x="317" y="614.9182">(eg) Omeka S</text><polygon fill="#F1F1F1" points="708,550.4475,708,550.6577,717.8,550.0332,727.6,550.6408,737.4,550.8472,747.2,549.7341,757,550.3698,766.8,550.021,776.6,550.064,786.4,550.3793,796.2,549.7561,806,551.0011,815.8,549.8172,825.6,550.2497,835.4,550.8794,845.2,550.3617,855,550.4475,855.0087,550.4685,856.7637,551.1699,858.5583,551.9669,860.3338,552.7178,862.1458,553.5568,863.8388,554.1087,864.0455,554.1943,864.7803,555.9631,865.3817,557.6767,866.1783,559.4711,866.984,561.2693,867.5,562.9475,867.2596,562.9475,867.7262,568.0735,867.4012,573.1994,867.6779,578.3254,867.335,583.4514,867.5,588.5773,867.4789,588.5686,866.9962,590.4397,866.0205,592.1067,865.3357,593.8941,864.6754,595.6916,863.8388,597.4162,863.8919,597.5444,862.0706,598.1472,860.3399,598.9691,858.4625,599.4366,856.804,600.4327,855,601.0773,855,601.6255,845.2,601.5219,835.4,601.6904,825.6,600.5943,815.8,600.4252,806,600.4559,796.2,601.0185,786.4,600.8808,776.6,601.7587,766.8,600.9027,757,600.7343,747.2,601.3056,737.4,600.4105,727.6,600.5582,717.8,601.7263,708,601.0773,708.0556,601.2115,706.3259,600.5713,704.4234,599.5138,702.7374,598.9789,701.0042,598.3302,699.1612,597.4162,699.0157,597.3559,698.3994,595.6362,697.7355,593.8967,697.1652,592.196,696.2309,590.3446,695.5,588.5773,695.6542,588.5773,695.3154,583.4514,695.2742,578.3254,695.6679,573.1994,695.261,568.0735,695.5,562.9475,695.6567,563.0124,696.2959,561.2061,696.882,559.3778,697.5878,557.5991,698.5702,555.935,699.1612,554.1087,699.123,554.0165,701.0044,553.5587,702.6262,552.474,704.5432,552.1021,706.294,551.3289,708,550.4475" style="stroke:#181818;stroke-width:0.5;"/><text fill="#000000" font-family="Chalkduster" font-size="24" lengthAdjust="spacing" textLength="152" x="705.5" y="584.2884">Use RRkive</text><polygon fill="#F1F1F1" points="578.25,757.337,578.2995,757.3865,580.5523,759.6393,583.0956,762.1826,585.5442,764.6312,587.6819,766.7689,590.25,769.337,590.2317,769.3187,587.7495,771.6365,585.3596,774.0466,583.0339,776.5209,580.487,778.774,578.25,781.337,578.3805,781.4675,575.7014,778.7884,573.4034,776.4904,571.1518,774.2388,568.6298,771.7168,566.25,769.337,566.2661,769.3531,568.6425,766.9295,571.0921,764.5791,573.5064,762.1934,575.988,759.875,578.25,757.337" style="stroke:#181818;stroke-width:0.5;"/><polygon fill="#F1F1F1" points="377.75,816.337,377.75,816.5472,387.775,815.9227,397.8,816.5303,407.825,816.7367,417.85,815.6236,427.875,816.2593,437.9,815.9105,447.925,815.9535,457.95,816.2688,467.975,815.6456,478,816.8906,488.025,815.7067,498.05,816.1392,508.075,816.7689,518.1,816.2512,528.125,816.4052,538.15,816.3051,548.175,816.5155,558.2,816.5761,568.225,816.9227,578.25,817.0081,588.275,817.0163,598.3,816.5916,608.325,816.8006,618.35,817.0392,628.375,815.6158,638.4,817.0155,648.425,816.0405,658.45,816.8708,668.475,815.842,678.5,816.2685,688.525,817.0786,698.55,816.2883,708.575,816.4423,718.6,816.6756,728.625,816.7532,738.65,816.3331,748.675,816.6242,758.7,815.7646,768.725,816.6214,778.75,816.337,778.8199,816.5058,780.5745,817.2061,782.3637,817.9903,783.9917,818.3849,785.7379,819.0651,787.5888,819.9982,787.3975,819.9189,788.3029,821.7584,788.9928,823.5086,789.9954,825.3884,790.464,827.047,791.25,828.837,790.9069,828.837,791.4783,838.2136,790.5832,847.5902,790.7309,856.9668,791.899,866.3434,791.6857,875.7201,791.25,885.0967,791.4762,885.1904,790.4187,886.8234,789.8838,888.6729,789.2351,890.4753,788.1756,892.1075,787.5888,893.9355,787.5766,893.906,785.8371,894.7065,784.1364,895.6007,782.285,896.1309,780.5768,897.0069,778.75,897.5967,778.75,897.0429,768.725,896.9194,758.7,898.1003,748.675,896.8797,738.65,898.1056,728.625,897.8033,718.6,897.3288,708.575,897.2429,698.55,898.0554,688.525,897.2973,678.5,898.1885,668.475,897.0439,658.45,898.2141,648.425,898.081,638.4,897.8416,628.375,897.6439,618.35,898.3233,608.325,898.2102,598.3,897.7659,588.275,897.8649,578.25,897.4664,568.225,898.3131,558.2,897.7515,548.175,897.7692,538.15,896.9883,528.125,897.1914,518.1,898.1274,508.075,898.0264,498.05,897.5537,488.025,897.2745,478,897.3777,467.975,896.9105,457.95,898.0114,447.925,898.3362,437.9,898.1231,427.875,898.2916,417.85,897.4599,407.825,897.6839,397.8,897.2091,387.775,897.8807,377.75,897.5967,377.7815,897.6727,376.0527,897.0345,374.1852,896.0615,372.4296,895.3586,370.7355,894.8043,368.9112,893.9355,369.0859,894.0079,368.0211,892.1024,367.387,890.3752,366.7604,888.6512,365.7941,886.7865,365.25,885.0967,365.6034,885.0967,365.508,875.7201,365.1492,866.3434,365.3922,856.9668,365.9787,847.5902,364.9371,838.2136,365.25,828.837,365.347,828.8772,366.0702,827.1057,366.7501,825.3162,367.4901,823.5517,368.2139,821.7804,368.9112,819.9982,368.8315,819.806,370.6278,819.1425,372.3878,818.3916,374.2226,817.8211,375.9935,817.0964,377.75,816.337" style="stroke:#181818;stroke-width:0.5;"/><text fill="#000000" font-family="Chalkduster" font-size="24" lengthAdjust="spacing" textLength="406" x="375.25" y="850.1779">Data preservable in RO-Crate</text><text fill="#000000" font-family="Chalkduster" font-size="24" lengthAdjust="spacing" textLength="222" x="375.25" y="880.8077">accsible via API</text><polygon fill="#F1F1F1" points="1457.5,356.6685,1457.5,356.8787,1467.4375,356.2542,1477.375,356.8618,1487.3125,357.0682,1497.25,355.9551,1507.1875,356.5908,1517.125,356.242,1527.0625,356.285,1537,356.6003,1546.9375,355.9771,1556.875,357.2221,1566.8125,356.0382,1576.75,356.4707,1586.6875,357.1004,1596.625,356.5827,1606.5625,356.7367,1616.5,356.6366,1626.4375,356.847,1636.375,356.9076,1646.3125,357.2542,1656.25,357.3396,1666.1875,357.3478,1676.125,356.9231,1686.0625,357.1321,1696,357.3707,1705.9375,355.9473,1715.875,357.347,1725.8125,356.372,1735.75,357.2023,1745.6875,356.1735,1755.625,356.6,1765.5625,357.4101,1775.5,356.6685,1775.4938,356.6535,1777.2812,357.4332,1779.0787,358.2373,1780.8564,358.9934,1782.5706,359.5962,1784.3388,360.3297,1784.4273,360.3663,1784.8948,362.0244,1785.8909,363.9015,1786.7044,365.7029,1787.4047,367.4574,1788,369.1685,1788.2043,369.1685,1787.839,374.2945,1787.7826,379.4204,1787.7929,384.5464,1787.9804,389.6724,1788,394.7983,1787.9395,394.7733,1787.4776,396.653,1786.4817,398.3116,1785.6977,400.0579,1785.1414,401.8985,1784.3388,403.6372,1784.2538,403.4318,1782.5048,404.2095,1780.8861,405.3015,1779.0911,405.968,1777.3615,406.7923,1775.5,407.2983,1775.5,406.9765,1765.5625,407.6175,1755.625,407.8888,1745.6875,406.8259,1735.75,407.2025,1725.8125,407.4243,1715.875,407.9501,1705.9375,407.2941,1696,407.7609,1686.0625,406.7445,1676.125,406.6211,1666.1875,407.8019,1656.25,406.5814,1646.3125,407.8073,1636.375,407.505,1626.4375,407.0304,1616.5,406.9446,1606.5625,407.7571,1596.625,406.999,1586.6875,407.8902,1576.75,406.7456,1566.8125,407.9158,1556.875,407.7826,1546.9375,407.5433,1537,407.3456,1527.0625,408.0249,1517.125,407.9119,1507.1875,407.4676,1497.25,407.5665,1487.3125,407.1681,1477.375,408.0148,1467.4375,407.4532,1457.5,407.2983,1457.522,407.3515,1455.6546,406.3788,1453.9128,405.7091,1452.2644,405.2651,1450.4838,404.5018,1448.6612,403.6372,1448.6479,403.6317,1447.8297,401.8283,1447.1293,400.0737,1446.2532,398.2463,1445.86,396.619,1445,394.7983,1445.2465,394.7983,1445.1755,389.6724,1445.2316,384.5464,1444.9544,379.4204,1445.0291,374.2945,1445,369.1685,1444.8806,369.1191,1445.8197,367.437,1446.5405,365.6644,1447.3668,363.9357,1447.8582,362.0681,1448.6612,360.3297,1448.644,360.2883,1450.4855,359.734,1452.2691,359.0399,1453.8991,357.9751,1455.7075,357.341,1457.5,356.6685" style="stroke:#181818;stroke-width:0.5;"/><text fill="#000000" font-family="Chalkduster" font-size="24" lengthAdjust="spacing" textLength="323" x="1455" y="390.5094">Find 'Intellectual core'</text><path d="M1185.5,506.2431 L1186.0605,506.2431 L1184.3951,516.4369 L1186.0154,526.6307 L1186.5658,536.8245 L1183.5976,547.0183 L1185.2928,557.2121 L1184.3627,567.4059 L1184.4773,577.5996 L1185.3182,587.7934 L1183.6563,597.9872 L1186.9764,608.181 L1183.8193,618.3748 L1184.9726,628.5686 L1185.5,638.7624 L1185.5,638.7624 L1185.5,639.9143 L1195.6538,638.5337 L1205.8077,638.9444 L1215.9615,638.6772 L1226.1154,639.2385 L1236.2692,639.4001 L1246.4231,640.3243 L1256.5769,640.5519 L1266.7308,640.5738 L1276.8846,639.4414 L1287.0385,639.9986 L1297.1923,640.635 L1307.3462,636.8393 L1317.5,640.5718 L1327.6538,637.9717 L1337.8077,640.1859 L1347.9615,637.4424 L1358.1154,638.5798 L1368.2692,640.74 L1378.4231,638.6325 L1388.5769,639.0432 L1398.7308,639.6654 L1408.8846,639.8724 L1419.0385,638.752 L1429.1923,639.5283 L1439.3462,637.236 L1449.5,638.7624 L1449.5,638.7624 L1450.2584,638.7624 L1450.9619,628.3858 L1450.6854,618.0092 L1451.1347,607.6326 L1448.2118,597.256 L1447.7608,586.8794 L1449.5,576.5028 L1449.3917,575.9611 L1453.4897,575.6514 L1457.4657,574.7315 L1461.6188,574.6967 L1465.4695,573.1505 L1469.5,572.5028 L1469.4402,572.2037 L1465.5398,571.9017 L1461.3838,570.3215 L1457.4095,569.6503 L1453.6131,569.8684 L1449.5,568.5028 L1450.6618,568.5028 L1451.4586,558.0508 L1448.6419,547.5989 L1450.3512,537.147 L1451.0745,526.695 L1449.5,516.2431 L1449.2031,515.9462 L1447.4397,514.1828 L1445.5792,512.3223 L1443.9097,510.6527 L1441.4974,508.2405 L1439.5,506.2431 L1439.5,507.4766 L1429.34,504.7663 L1419.18,504.4371 L1409.02,507.5861 L1398.86,504.3312 L1388.7,507.6003 L1378.54,506.7941 L1368.38,505.5286 L1358.22,505.2997 L1348.06,507.4664 L1337.9,505.4449 L1327.74,507.8214 L1317.58,504.7691 L1307.42,507.8896 L1297.26,507.5346 L1287.1,506.8963 L1276.94,506.369 L1266.78,508.1807 L1256.62,507.8793 L1246.46,506.6944 L1236.3,506.9583 L1226.14,505.8957 L1215.98,508.1536 L1205.82,506.6561 L1195.66,506.7033 L1185.5,506.2431 L1185.5,506.2431 " fill="none" style="stroke:#181818;stroke-width:4.0;"/><path d="M1439.5,506.2431 L1439.6868,506.2431 L1439.1317,508.2431 L1439.6718,510.2431 L1439.8553,512.2431 L1438.8659,514.2431 L1439.5,516.2431 L1439.5,516.174 L1441.5,515.864 L1443.5,515.9022 L1445.5,516.1825 L1447.5,515.6285 L1449.5,516.2431 L1449.848,516.5911 L1447.1038,513.8469 L1445.3757,512.1188 L1443.7715,510.5146 L1441.4461,508.1892 L1439.5,506.2431 " fill="none" style="stroke:#181818;stroke-width:4.0;"/><text fill="#000000" font-family="Chalkduster" font-size="24" lengthAdjust="spacing" textLength="151" x="1191.5" y="535.084">If possible,</text><text fill="#000000" font-family="Chalkduster" font-size="24" lengthAdjust="spacing" textLength="187" x="1191.5" y="565.7138">extend an an</text><text fill="#000000" font-family="Chalkduster" font-size="24" lengthAdjust="spacing" textLength="231" x="1191.5" y="596.3436">existing package</text><text fill="#000000" font-family="Chalkduster" font-size="24" lengthAdjust="spacing" textLength="132" x="1191.5" y="626.9735">(eg NLTK)</text><polygon fill="#F1F1F1" points="1482,547.1878,1482,547.398,1491.963,546.7735,1501.9259,547.3811,1511.8889,547.5875,1521.8519,546.4744,1531.8148,547.1101,1541.7778,546.7613,1551.7407,546.8043,1561.7037,547.1197,1571.6667,546.4965,1581.6296,547.7415,1591.5926,546.5576,1601.5556,546.9901,1611.5185,547.6198,1621.4815,547.1021,1631.4444,547.2561,1641.4074,547.1559,1651.3704,547.3664,1661.3333,547.427,1671.2963,547.7735,1681.2593,547.8589,1691.2222,547.8671,1701.1852,547.4425,1711.1481,547.6514,1721.1111,547.8901,1731.0741,546.4666,1741.037,547.8663,1751,547.1878,1750.9622,547.0965,1752.8359,548.0845,1754.4724,548.4999,1756.2946,549.3634,1758.1657,550.3452,1759.8388,550.849,1759.8238,550.8428,1760.6035,552.6302,1761.4076,554.4277,1762.1637,556.2054,1762.7666,557.9196,1763.5,559.6878,1763.5957,559.6878,1763.3092,564.8138,1763.5948,569.9398,1763.6827,575.0657,1763.6482,580.1917,1763.5,585.3177,1763.6888,585.3959,1762.619,587.0238,1761.8347,588.77,1761.1119,590.5417,1760.5529,592.3812,1759.8388,594.1565,1759.8138,594.096,1758.158,595.0986,1756.281,595.5672,1754.4918,596.2476,1752.7969,597.1557,1751,597.8177,1751,597.1508,1741.037,597.2985,1731.0741,598.4666,1721.1111,598.2533,1711.1481,598.5522,1701.1852,597.4959,1691.2222,598.1369,1681.2593,598.4081,1671.2963,597.3453,1661.3333,597.7218,1651.3704,597.9437,1641.4074,598.4694,1631.4444,597.8135,1621.4815,598.2802,1611.5185,597.2639,1601.5556,597.1404,1591.5926,598.3213,1581.6296,597.1007,1571.6667,598.3266,1561.7037,598.0243,1551.7407,597.5498,1541.7778,597.4639,1531.8148,598.2764,1521.8519,597.5183,1511.8889,598.4095,1501.9259,597.2649,1491.963,598.4351,1482,597.8177,1482.0618,597.9668,1480.2635,597.1609,1478.4705,596.3677,1476.7894,595.8447,1475.0072,595.0777,1473.1612,594.1565,1473.2133,594.1781,1472.5115,592.4229,1471.6566,590.6044,1471.1851,588.9446,1470.2799,587.1052,1469.5,585.3177,1469.5575,585.3177,1469.2972,580.1917,1469.3649,575.0657,1469.6769,569.9398,1469.6433,564.8138,1469.5,559.6878,1469.4868,559.6824,1470.133,557.879,1470.897,556.1244,1471.4854,554.297,1472.5567,552.6697,1473.1612,550.849,1473.2555,551.0768,1474.9961,550.2789,1476.7853,549.5985,1478.447,548.6102,1480.2434,547.9469,1482,547.1878" style="stroke:#181818;stroke-width:0.5;"/><text fill="#000000" font-family="Chalkduster" font-size="24" lengthAdjust="spacing" textLength="274" x="1479.5" y="581.0287">Write new library(s)</text><polygon fill="#F1F1F1" points="1521,442.2983,1521,442.5085,1531.0526,441.884,1541.1053,442.4916,1551.1579,442.698,1561.2105,441.5849,1571.2632,442.2206,1581.3158,441.8718,1591.3684,441.9148,1601.4211,442.2302,1611.4737,441.607,1621.5263,442.852,1631.5789,441.6681,1641.6316,442.1006,1651.6842,442.7303,1661.7368,442.2126,1671.7895,442.3666,1681.8421,442.2664,1691.8947,442.4769,1701.9474,442.5375,1712,442.2983,1712.1537,442.4187,1714.5761,445.4993,1716.9782,448.5639,1719.2668,451.5396,1721.7216,454.6456,1724,457.6133,1724.1843,457.7576,1721.4108,460.528,1719.378,463.8787,1716.7222,466.7412,1714.5401,469.9749,1712,472.9282,1712,472.4331,1701.9474,472.8597,1691.8947,473.6698,1681.8421,472.8794,1671.7895,473.0335,1661.7368,473.2668,1651.6842,473.3444,1641.6316,472.9243,1631.5789,473.2154,1621.5263,472.3558,1611.4737,473.2126,1601.4211,473.4764,1591.3684,473.3727,1581.3158,473.5412,1571.2632,472.4451,1561.2105,472.276,1551.1579,472.3068,1541.1053,472.8693,1531.0526,472.7316,1521,472.9282,1521.1788,473.0683,1518.5542,469.8293,1516.11,466.7317,1513.8599,463.7861,1511.225,460.5391,1509,457.6133,1508.8638,457.5065,1511.5703,454.6837,1513.9143,451.5769,1516.3927,448.5753,1518.5156,445.2952,1521,442.2983" style="stroke:#181818;stroke-width:0.5;"/><text fill="#000000" font-family="Chalkduster" font-size="24" lengthAdjust="spacing" textLength="35" x="1620.5" y="496.7691">no</text><text fill="#000000" font-family="Chalkduster" font-size="24" lengthAdjust="spacing" textLength="191" x="1521" y="466.1392">Libraries exist</text><text fill="#000000" font-family="Chalkduster" font-size="24" lengthAdjust="spacing" textLength="42" x="1724" y="450.8243">yes</text><polygon fill="#F1F1F1" points="1616.5,672.0773,1616.5495,672.1269,1618.8023,674.3797,1621.3456,676.9229,1623.7942,679.3715,1625.9319,681.5092,1628.5,684.0773,1628.4817,684.059,1625.9995,686.3768,1623.6096,688.7869,1621.2839,691.2613,1618.737,693.5144,1616.5,696.0773,1616.6305,696.2078,1613.9514,693.5288,1611.6534,691.2307,1609.4018,688.9791,1606.8798,686.4571,1604.5,684.0773,1604.5161,684.0934,1606.8925,681.6698,1609.3421,679.3194,1611.7564,676.9337,1614.238,674.6154,1616.5,672.0773" style="stroke:#181818;stroke-width:0.5;"/><polygon fill="#F1F1F1" points="1382,716.0773,1382,716.2875,1391.9787,715.663,1401.9574,716.2706,1411.9362,716.477,1421.9149,715.3639,1431.8936,715.9996,1441.8723,715.6508,1451.8511,715.6938,1461.8298,716.0092,1471.8085,715.386,1481.7872,716.631,1491.766,715.4471,1501.7447,715.8796,1511.7234,716.5093,1521.7021,715.9916,1531.6809,716.1456,1541.6596,716.0454,1551.6383,716.2559,1561.617,716.3165,1571.5957,716.663,1581.5745,716.7484,1591.5532,716.7566,1601.5319,716.332,1611.5106,716.5409,1621.4894,716.7796,1631.4681,715.3561,1641.4468,716.7558,1651.4255,715.7808,1661.4043,716.6111,1671.383,715.5823,1681.3617,716.0088,1691.3404,716.8189,1701.3191,716.0286,1711.2979,716.1826,1721.2766,716.416,1731.2553,716.4936,1741.234,716.0734,1751.2128,716.3645,1761.1915,715.5049,1771.1702,716.3617,1781.1489,716.6255,1791.1277,716.5219,1801.1064,716.6904,1811.0851,715.5943,1821.0638,715.4252,1831.0426,715.4559,1841.0213,716.0185,1851,716.0773,1850.9749,716.0168,1852.8547,717.0194,1854.5133,717.488,1856.2595,718.1684,1858.1002,719.0766,1859.8388,719.7385,1859.6335,719.6534,1860.4112,721.44,1861.5032,723.3568,1862.1697,725.0974,1862.994,726.9033,1863.5,728.5773,1863.1782,728.5773,1863.8192,738.3706,1864.0904,748.1639,1863.0276,757.9572,1863.4041,767.7504,1863.626,777.5437,1864.1518,787.337,1863.4958,797.1303,1863.9626,806.9236,1862.9462,816.7168,1862.8227,826.5101,1864.0036,836.3034,1863.5,846.0967,1863.2792,846.0052,1862.9245,847.9294,1862.0992,849.6586,1861.2208,851.3658,1860.4621,853.1226,1859.8388,854.9355,1859.8974,855.0768,1858.0329,855.5756,1856.3788,856.5822,1854.465,856.962,1852.8465,858.0546,1851,858.5967,1851,859.081,1841.0213,858.8416,1831.0426,858.6439,1821.0638,859.3233,1811.0851,859.2102,1801.1064,858.7659,1791.1277,858.8649,1781.1489,858.4664,1771.1702,859.3131,1761.1915,858.7515,1751.2128,858.7692,1741.234,857.9883,1731.2553,858.1914,1721.2766,859.1274,1711.2979,859.0264,1701.3191,858.5537,1691.3404,858.2745,1681.3617,858.3777,1671.383,857.9105,1661.4043,859.0114,1651.4255,859.3362,1641.4468,859.1231,1631.4681,859.2916,1621.4894,858.4599,1611.5106,858.6839,1601.5319,858.2091,1591.5532,858.8807,1581.5745,858.8434,1571.5957,859.1491,1561.617,858.367,1551.6383,858.4623,1541.6596,859.0401,1531.6809,859.164,1521.7021,858.0841,1511.7234,858.4028,1501.7447,858.7459,1491.766,857.9858,1481.7872,858.9501,1471.8085,858.8547,1461.8298,858.4959,1451.8511,858.7389,1441.8723,859.3253,1431.8936,858.2838,1421.9149,858.9117,1411.9362,858.8823,1401.9574,858.7124,1391.9787,858.7376,1382,858.5967,1382.0145,858.6316,1380.1526,857.6722,1378.4133,857.0088,1376.6378,856.2578,1374.9371,855.6874,1373.1612,854.9355,1373.1883,854.9467,1372.4787,853.1884,1371.6071,851.3629,1370.9437,849.6236,1370.1952,847.8491,1369.5,846.0967,1370.0769,846.0967,1369.9266,836.3034,1369.0145,826.5101,1369.4271,816.7168,1368.9228,806.9236,1369.7884,797.1303,1370.1085,787.337,1370.0446,777.5437,1369.0644,767.7504,1369.964,757.9572,1368.7572,748.1639,1369.7002,738.3706,1369.5,728.5773,1369.4078,728.5392,1370.262,726.8219,1371.0385,725.0725,1371.8421,723.3343,1372.2072,721.4144,1373.1612,719.7385,1373.2218,719.8849,1374.9517,719.0611,1376.742,718.3835,1378.5599,717.7721,1380.2329,716.8113,1382,716.0773" style="stroke:#181818;stroke-width:0.5;"/><text fill="#000000" font-family="Chalkduster" font-size="24" lengthAdjust="spacing" textLength="181" x="1379.5" y="749.9182">One or more:</text><text fill="#000000" font-family="Chalkduster" font-size="24" lengthAdjust="spacing" textLength="154" x="1379.5" y="780.5481">- Notebook</text><text fill="#000000" font-family="Chalkduster" font-size="24" lengthAdjust="spacing" textLength="474" x="1379.5" y="811.1779">- Repo plugin;- Static deployment</text><text fill="#000000" font-family="Chalkduster" font-size="24" lengthAdjust="spacing" textLength="323" x="1379.5" y="841.8077">- Deployable Container</text><polygon fill="#F1F1F1" points="932.25,907.5967,932.2995,907.6462,934.5523,909.899,937.0956,912.4422,939.5442,914.8909,941.6819,917.0285,944.25,919.5967,944.2317,919.5784,941.7495,921.8961,939.3596,924.3063,937.0339,926.7806,934.487,929.0337,932.25,931.5967,932.3805,931.7272,929.7014,929.0481,927.4034,926.7501,925.1518,924.4985,922.6298,921.9764,920.25,919.5967,920.2661,919.6128,922.6425,917.1891,925.0921,914.8387,927.5064,912.453,929.988,910.1347,932.25,907.5967" style="stroke:#181818;stroke-width:0.5;"/><polygon fill="none" points="943.3108,965.2723,941.6984,967.4755,939.7912,970.7024,937.0636,972.8771,934.1974,974.0663,931.912,974.1695,928.9747,972.6822,926.2032,971.7106,924.0995,969.7378,922.9961,967.4794,922.3417,965.6812,921.7006,963.3324,920.66,961.3111,921.4596,959.3377,922.1602,957.1759,924.7893,955.4661,926.639,953.2478,928.9284,952.5111,931.6501,951.8767,935.1404,952.2536,937.0521,953.1552,939.2747,953.5639,941.9772,956.3326,942.9193,959.2556,943.3286,961.25,942.865,964.5365" style="stroke:#222222;stroke-width:1.0;"/><polygon fill="#222222" points="938.2831,964.0561,937.4036,965.2578,936.3634,967.018,934.8756,968.2042,933.3122,968.8528,932.0656,968.9091,930.4635,968.0979,928.9517,967.5679,927.8043,966.4919,927.2024,965.26,926.8455,964.2791,926.4958,962.998,925.9282,961.8955,926.3643,960.819,926.7465,959.6399,928.1805,958.7073,929.1894,957.4973,930.4382,957.0955,931.9228,956.7494,933.8266,956.955,934.8693,957.4468,936.0817,957.6697,937.5557,959.1799,938.0696,960.7743,938.2929,961.8621,938.04,963.6548" style="stroke:#111111;stroke-width:1.0;"/><path d="M467.75,402.6133 L467.75,402.8935 L457.7805,402.0608 L447.811,402.871 L437.8415,403.1462 L427.872,401.6621 L417.9024,402.5096 L407.9329,402.0446 L397.9634,402.1019 L387.9939,402.5224 L378.0244,401.6914 L368.0549,403.3514 L358.0854,401.7729 L348.1159,402.3496 L338.1463,403.1892 L328.1768,402.4989 L318.2073,402.7042 L308.2378,402.5707 L298.2683,402.8513 L288.2988,402.9321 L278.3293,403.3942 L268.3598,403.508 L258.3902,403.5189 L248.4207,402.9528 L238.4512,403.2314 L228.4817,403.5496 L218.5122,401.6517 L208.5427,403.5179 L198.5732,402.2179 L188.6037,403.325 L178.6341,401.9532 L168.6646,402.5219 L158.6951,403.6021 L148.7256,402.5483 L138.7561,402.7537 L128.7866,403.0648 L118.8171,403.1682 L108.8476,402.608 L98.878,402.9962 L88.9085,401.85 L78.939,402.9924 L68.9695,403.3442 L59,402.6133 " fill="#181818" style="stroke:#181818;stroke-width:4.0;"/><path d="M59,402.6133 L59.2802,402.6133 L58.4476,412.5701 L59.2577,422.527 L59.5329,432.4838 L58.0488,442.4407 L58.8964,452.3975 L58.4313,462.3544 L58.4887,472.3112 L58.9091,482.2681 L58.0782,492.2249 L59.7382,502.1818 L58.1596,512.1386 L58.7363,522.0955 L59.5759,532.0523 L58.8856,542.0092 L59.091,551.966 L58.9574,561.9229 L59.238,571.8798 L59.3188,581.8366 L59.7809,591.7935 L59.8947,601.7503 L59,611.7072 " fill="#181818" style="stroke:#181818;stroke-width:4.0;"/><polygon fill="#181818" points="55,601.7072,55.065,601.7332,55.6718,603.6559,56.6598,605.7311,57.5237,607.7566,57.9792,609.6189,59,611.7072,58.9759,611.6975,59.668,609.6544,60.4813,607.6597,61.3789,605.6987,61.986,603.6216,63,601.7072,63.1305,601.8377,62.0514,602.3586,61.3534,603.2606,60.7018,604.209,59.7798,604.8869,59,605.7072,59.0161,605.7233,58.1925,604.8996,57.4421,604.1492,56.6564,603.3635,55.938,602.6452,55,601.7072" style="stroke:#181818;stroke-width:1.0;"/><text fill="#000000" font-family="Chalkduster" font-size="24" lengthAdjust="spacing" textLength="19" x="59" y="485.0563">C</text><text fill="#000000" font-family="Chalkduster" font-size="24" lengthAdjust="spacing" textLength="238" x="59" y="515.6862">specific repo/app</text><text fill="#000000" font-family="Chalkduster" font-size="24" lengthAdjust="spacing" textLength="74" x="59" y="546.316">exists</text><path d="M688.75,402.6133 L688.75,402.8935 L699.0556,402.0608 L709.3611,402.871 L719.6667,403.1462 L729.9722,401.6621 L740.2778,402.5096 L750.5833,402.0446 L760.8889,402.1019 L771.1944,402.5224 L781.5,402.6133 " fill="#181818" style="stroke:#181818;stroke-width:4.0;"/><path d="M781.5,402.6133 L781.7802,402.6133 L780.9476,412.4689 L781.7577,422.3245 L782.0329,432.1801 L780.5488,442.0357 L781.3964,451.8913 L780.9313,461.747 L780.9887,471.6026 L781.4091,481.4582 L780.5782,491.3138 L782.2382,501.1694 L780.6596,511.025 L781.2363,520.8807 L782.0759,530.7363 L781.3856,540.5919 L781.5,550.4475 " fill="#181818" style="stroke:#181818;stroke-width:4.0;"/><polygon fill="#181818" points="777.5,540.4475,777.565,540.4735,778.1718,542.3962,779.1598,544.4714,780.0237,546.497,780.4792,548.3592,781.5,550.4475,781.4759,550.4379,782.168,548.3947,782.9813,546.4,783.8789,544.4391,784.486,542.3619,785.5,540.4475,785.6305,540.578,784.5514,541.0989,783.8534,542.0009,783.2018,542.9493,782.2798,543.6273,781.5,544.4475,781.5161,544.4636,780.6925,543.64,779.9421,542.8896,779.1564,542.1039,778.438,541.3855,777.5,540.4475" style="stroke:#181818;stroke-width:1.0;"/><text fill="#000000" font-family="Chalkduster" font-size="24" lengthAdjust="spacing" textLength="374" x="781.5" y="485.0563">Large/complex or Sensitive</text><path d="M431.5,402.6133 L431.7802,402.6133 L430.9476,412.4689 L431.7577,422.3245 L432.0329,432.1801 L430.5488,442.0357 L431.3964,451.8913 L430.9313,461.747 L430.9887,471.6026 L431.4091,481.4582 L430.5782,491.3138 L432.2382,501.1694 L430.6596,511.025 L431.2363,520.8807 L432.0759,530.7363 L431.3856,540.5919 L431.5,550.4475 " fill="#181818" style="stroke:#181818;stroke-width:4.0;"/><polygon fill="#181818" points="427.5,540.4475,427.565,540.4735,428.1718,542.3962,429.1598,544.4714,430.0237,546.497,430.4792,548.3592,431.5,550.4475,431.4759,550.4379,432.168,548.3947,432.9813,546.4,433.8789,544.4391,434.486,542.3619,435.5,540.4475,435.6305,540.578,434.5514,541.0989,433.8534,542.0009,433.2018,542.9493,432.2798,543.6273,431.5,544.4475,431.5161,544.4636,430.6925,543.64,429.9421,542.8896,429.1564,542.1039,428.438,541.3855,427.5,540.4475" style="stroke:#181818;stroke-width:1.0;"/><text fill="#000000" font-family="Chalkduster" font-size="24" lengthAdjust="spacing" textLength="244" x="431.5" y="480.0563">Small-medium OA</text><path d="M59,662.337 L59.2802,662.337 L58.4476,672.0643 L59.2577,681.7915 L59.5329,691.5188 L58.0488,701.2461 L58.8964,710.9734 L58.4313,720.7006 L58.4887,730.4279 L58.9091,740.1552 L58.0782,749.8825 L59.7382,759.6097 L59,769.337 " fill="#181818" style="stroke:#181818;stroke-width:4.0;"/><path d="M59,769.337 L59,769.6172 L68.9461,768.7846 L78.8922,769.5947 L88.8382,769.8699 L98.7843,768.3858 L108.7304,769.2334 L118.6765,768.7683 L128.6225,768.8257 L138.5686,769.2461 L148.5147,768.4152 L158.4608,770.0752 L168.4069,768.4966 L178.3529,769.0733 L188.299,769.9129 L198.2451,769.2226 L208.1912,769.428 L218.1373,769.2944 L228.0833,769.575 L238.0294,769.6558 L247.9755,770.1179 L257.9216,770.2317 L267.8676,770.2427 L277.8137,769.6765 L287.7598,769.9551 L297.7059,770.2733 L307.652,768.3754 L317.598,770.2417 L327.5441,768.9417 L337.4902,770.0488 L347.4363,768.677 L357.3824,769.2457 L367.3284,770.3258 L377.2745,769.272 L387.2206,769.4774 L397.1667,769.7885 L407.1127,769.892 L417.0588,769.3318 L427.0049,769.72 L436.951,768.5738 L446.8971,769.7162 L456.8431,770.0679 L466.7892,769.9297 L476.7353,770.1544 L486.6814,768.6929 L496.6275,768.4674 L506.5735,768.5085 L516.5196,769.2585 L526.4657,769.075 L536.4118,770.2455 L546.3578,769.1041 L556.3039,768.8796 L566.25,769.337 " fill="#181818" style="stroke:#181818;stroke-width:4.0;"/><polygon fill="#181818" points="556.25,765.337,556.276,765.4021,558.1987,766.0088,560.2739,766.9968,562.2995,767.8607,564.1617,768.3162,566.25,769.337,566.2404,769.3129,564.1972,770.005,562.2025,770.8183,560.2416,771.7159,558.1644,772.323,556.25,773.337,556.3805,773.4675,556.9014,772.3884,557.8034,771.6904,558.7518,771.0388,559.4298,770.1168,560.25,769.337,560.2661,769.3531,559.4425,768.5295,558.6921,767.7791,557.9064,766.9934,557.188,766.275,556.25,765.337" style="stroke:#181818;stroke-width:1.0;"/><path d="M781.5,601.0773 L781.7802,601.0773 L780.9476,610.975 L781.7577,620.8726 L782.0329,630.7702 L780.5488,640.6678 L781.3964,650.5655 L780.9313,660.4631 L780.9887,670.3607 L781.4091,680.2584 L780.5782,690.156 L782.2382,700.0536 L780.6596,709.9512 L781.2363,719.8489 L782.0759,729.7465 L781.3856,739.6441 L781.591,749.5417 L781.4574,759.4394 L781.5,769.337 " fill="#181818" style="stroke:#181818;stroke-width:4.0;"/><path d="M781.5,769.337 L781.5,769.6172 L771.4342,768.7846 L761.3684,769.5947 L751.3026,769.8699 L741.2368,768.3858 L731.1711,769.2334 L721.1053,768.7683 L711.0395,768.8257 L700.9737,769.2461 L690.9079,768.4152 L680.8421,770.0752 L670.7763,768.4966 L660.7105,769.0733 L650.6447,769.9129 L640.5789,769.2226 L630.5132,769.428 L620.4474,769.2944 L610.3816,769.575 L600.3158,769.6558 L590.25,769.337 " fill="#181818" style="stroke:#181818;stroke-width:4.0;"/><polygon fill="#181818" points="600.25,765.337,600.276,765.4021,598.1987,766.0088,596.2739,766.9968,594.2995,767.8607,592.1617,768.3162,590.25,769.337,590.2404,769.3129,592.1972,770.005,594.2025,770.8183,596.2416,771.7159,598.1644,772.323,600.25,773.337,600.3805,773.4675,599.3014,772.3884,598.6034,771.6904,597.9518,771.0388,597.0298,770.1168,596.25,769.337,596.2661,769.3531,597.0425,768.5295,597.8921,767.7791,598.7064,766.9934,599.588,766.275,600.25,765.337" style="stroke:#181818;stroke-width:1.0;"/><path d="M431.5,631.7072 L431.7802,631.7072 L430.9476,641.5379 L431.7577,651.3686 L432.0329,661.1993 L430.5488,671.03 L431.3964,680.8607 L430.9313,690.6914 L430.9887,700.5221 L431.4091,710.3528 L430.5782,720.1835 L432.2382,730.0142 L430.6596,739.8449 L431.2363,749.6756 L432.0759,759.5063 L431.5,769.337 " fill="#181818" style="stroke:#181818;stroke-width:4.0;"/><polygon fill="#181818" points="427.5,759.337,427.565,759.363,428.1718,761.2857,429.1598,763.3609,430.0237,765.3865,430.4792,767.2487,431.5,769.337,431.4759,769.3274,432.168,767.2842,432.9813,765.2895,433.8789,763.3286,434.486,761.2514,435.5,759.337,435.6305,759.4675,434.5514,759.9884,433.8534,760.8904,433.2018,761.8388,432.2798,762.5168,431.5,763.337,431.5161,763.3531,430.6925,762.5295,429.9421,761.7791,429.1564,760.9934,428.438,760.275,427.5,759.337" style="stroke:#181818;stroke-width:1.0;"/><path d="M578.25,781.337 L578.3434,781.337 L578.0659,788.337 L578.3359,795.337 L578.4276,802.337 L577.9329,809.337 L578.25,816.337 " fill="#181818" style="stroke:#181818;stroke-width:4.0;"/><polygon fill="#181818" points="574.25,806.337,574.315,806.363,574.9218,808.2857,575.9098,810.3609,576.7737,812.3865,577.2292,814.2487,578.25,816.337,578.2259,816.3274,578.918,814.2842,579.7313,812.2895,580.6289,810.3286,581.236,808.2514,582.25,806.337,582.3805,806.4675,581.3014,806.9884,580.6034,807.8904,579.9518,808.8388,579.0298,809.5168,578.25,810.337,578.2661,810.3531,577.4425,809.5295,576.6921,808.7791,575.9064,807.9934,575.188,807.275,574.25,806.337" style="stroke:#181818;stroke-width:1.0;"/><path d="M1616.5,472.9282 L1616.7802,472.9282 L1615.9476,483.5367 L1616.7577,494.1452 L1617.0329,504.7537 L1615.5488,515.3623 L1616.3964,525.9708 L1615.9313,536.5793 L1616.5,547.1878 " fill="#181818" style="stroke:#181818;stroke-width:4.0;"/><polygon fill="#181818" points="1612.5,537.1878,1612.565,537.2139,1613.1718,539.1365,1614.1598,541.2118,1615.0237,543.2373,1615.4792,545.0995,1616.5,547.1878,1616.4759,547.1782,1617.168,545.135,1617.9813,543.1404,1618.8789,541.1794,1619.486,539.1022,1620.5,537.1878,1620.6305,537.3183,1619.5514,537.8393,1618.8534,538.7412,1618.2018,539.6896,1617.2798,540.3676,1616.5,541.1878,1616.5161,541.2039,1615.6925,540.3803,1614.9421,539.6299,1614.1564,538.8442,1613.438,538.1259,1612.5,537.1878" style="stroke:#181818;stroke-width:1.0;"/><path d="M1724,457.6133 L1724,457.8935 L1733.9,457.0608 L1743.8,457.871 L1753.7,458.1462 L1763.6,456.6621 L1773.5,457.6133 " fill="#181818" style="stroke:#181818;stroke-width:4.0;"/><polygon fill="#181818" points="1769.5,560.8453,1769.565,560.8713,1770.1718,562.794,1771.1598,564.8692,1772.0237,566.8948,1772.4792,568.757,1773.5,570.8453,1773.4759,570.8357,1774.168,568.7925,1774.9813,566.7978,1775.8789,564.8369,1776.486,562.7597,1777.5,560.8453,1777.6305,560.9758,1776.5514,561.4967,1775.8534,562.3987,1775.2018,563.3471,1774.2798,564.0251,1773.5,564.8453,1773.5161,564.8614,1772.6925,564.0378,1771.9421,563.2874,1771.1564,562.5017,1770.438,561.7833,1769.5,560.8453" style="stroke:#181818;stroke-width:4.0;"/><path d="M1773.5,457.6133 L1773.7802,457.6133 L1772.9476,467.4595 L1773.7577,477.3058 L1774.0329,487.152 L1772.5488,496.9983 L1773.3964,506.8446 L1772.9313,516.6908 L1772.9887,526.5371 L1773.4091,536.3834 L1772.5782,546.2296 L1774.2382,556.0759 L1772.6596,565.9222 L1773.2363,575.7684 L1774.0759,585.6147 L1773.3856,595.461 L1773.591,605.3072 L1773.4574,615.1535 L1773.738,624.9997 L1773.8188,634.846 L1774.2809,644.6923 L1774.3947,654.5385 L1774.4057,664.3848 L1773.8395,674.2311 L1773.5,684.0773 " fill="#181818" style="stroke:#181818;stroke-width:4.0;"/><path d="M1773.5,684.0773 L1773.5,684.3576 L1763.8333,683.5249 L1754.1667,684.335 L1744.5,684.6102 L1734.8333,683.1261 L1725.1667,683.9737 L1715.5,683.5087 L1705.8333,683.566 L1696.1667,683.9865 L1686.5,683.1555 L1676.8333,684.8155 L1667.1667,683.237 L1657.5,683.8136 L1647.8333,684.6533 L1638.1667,683.963 L1628.5,684.0773 " fill="#181818" style="stroke:#181818;stroke-width:4.0;"/><polygon fill="#181818" points="1638.5,680.0773,1638.526,680.1424,1636.4487,680.7491,1634.5239,681.7372,1632.5495,682.601,1630.4117,683.0565,1628.5,684.0773,1628.4904,684.0533,1630.4472,684.7453,1632.4525,685.5586,1634.4916,686.4562,1636.4144,687.0634,1638.5,688.0773,1638.6305,688.2078,1637.5514,687.1288,1636.8534,686.4307,1636.2018,685.7791,1635.2798,684.8571,1634.5,684.0773,1634.5161,684.0934,1635.2925,683.2698,1636.1421,682.5194,1636.9564,681.7337,1637.838,681.0154,1638.5,680.0773" style="stroke:#181818;stroke-width:1.0;"/><path d="M1616.5,597.8177 L1616.7802,597.8177 L1615.9476,608.4262 L1616.7577,619.0347 L1617.0329,629.6432 L1615.5488,640.2518 L1616.3964,650.8603 L1615.9313,661.4688 L1616.5,672.0773 " fill="#181818" style="stroke:#181818;stroke-width:4.0;"/><polygon fill="#181818" points="1612.5,662.0773,1612.565,662.1034,1613.1718,664.026,1614.1598,666.1013,1615.0237,668.1268,1615.4792,669.989,1616.5,672.0773,1616.4759,672.0677,1617.168,670.0245,1617.9813,668.0299,1618.8789,666.0689,1619.486,663.9917,1620.5,662.0773,1620.6305,662.2078,1619.5514,662.7288,1618.8534,663.6307,1618.2018,664.5791,1617.2798,665.2571,1616.5,666.0773,1616.5161,666.0934,1615.6925,665.2698,1614.9421,664.5194,1614.1564,663.7337,1613.438,663.0154,1612.5,662.0773" style="stroke:#181818;stroke-width:1.0;"/><path d="M1616.5,407.2983 L1616.5934,407.2983 L1616.3159,414.2983 L1616.5859,421.2983 L1616.6776,428.2983 L1616.1829,435.2983 L1616.5,442.2983 " fill="#181818" style="stroke:#181818;stroke-width:4.0;"/><polygon fill="#181818" points="1612.5,432.2983,1612.565,432.3244,1613.1718,434.247,1614.1598,436.3223,1615.0237,438.3478,1615.4792,440.21,1616.5,442.2983,1616.4759,442.2887,1617.168,440.2455,1617.9813,438.2509,1618.8789,436.2899,1619.486,434.2127,1620.5,432.2983,1620.6305,432.4288,1619.5514,432.9498,1618.8534,433.8517,1618.2018,434.8001,1617.2798,435.4781,1616.5,436.2983,1616.5161,436.3144,1615.6925,435.4908,1614.9421,434.7404,1614.1564,433.9547,1613.438,433.2364,1612.5,432.2983" style="stroke:#181818;stroke-width:1.0;"/><path d="M1616.5,696.0773 L1616.5934,696.0773 L1616.3159,700.0773 L1616.5859,704.0773 L1616.6776,708.0773 L1616.1829,712.0773 L1616.5,716.0773 " fill="#181818" style="stroke:#181818;stroke-width:4.0;"/><polygon fill="#181818" points="1612.5,706.0773,1612.565,706.1034,1613.1718,708.026,1614.1598,710.1013,1615.0237,712.1268,1615.4792,713.989,1616.5,716.0773,1616.4759,716.0677,1617.168,714.0245,1617.9813,712.0299,1618.8789,710.0689,1619.486,707.9917,1620.5,706.0773,1620.6305,706.2078,1619.5514,706.7288,1618.8534,707.6307,1618.2018,708.5791,1617.2798,709.2571,1616.5,710.0773,1616.5161,710.0934,1615.6925,709.2698,1614.9421,708.5194,1614.1564,707.7337,1613.438,707.0154,1612.5,706.0773" style="stroke:#181818;stroke-width:1.0;"/><path d="M705.75,222.0956 L705.75,222.3758 L695.9423,221.5432 L686.1346,222.3533 L676.3269,222.6285 L666.5192,221.1444 L656.7115,221.992 L646.9038,221.5269 L637.0962,221.5842 L627.2885,222.0047 L617.4808,221.1738 L607.6731,222.8338 L597.8654,221.2552 L588.0577,221.8319 L578.25,222.0956 " fill="#181818" style="stroke:#181818;stroke-width:4.0;"/><path d="M578.25,222.0956 L578.5302,222.0956 L577.6976,231.8134 L578.5077,241.5312 L578.7829,251.249 L577.2988,260.9668 L578.1464,270.6846 L577.6813,280.4024 L577.7387,290.1202 L578.1591,299.8381 L577.3282,309.5559 L578.9882,319.2737 L577.4096,328.9915 L577.9863,338.7093 L578.8259,348.4271 L578.1356,358.1449 L578.341,367.8627 L578.2074,377.5805 L578.25,387.2983 " fill="#181818" style="stroke:#181818;stroke-width:4.0;"/><polygon fill="#181818" points="574.25,377.2983,574.315,377.3244,574.9218,379.247,575.9098,381.3223,576.7737,383.3478,577.2292,385.21,578.25,387.2983,578.2259,387.2887,578.918,385.2455,579.7313,383.2509,580.6289,381.2899,581.236,379.2127,582.25,377.2983,582.3805,377.4288,581.3014,377.9498,580.6034,378.8517,579.9518,379.8001,579.0298,380.4781,578.25,381.2983,578.2661,381.3144,577.4425,380.4908,576.6921,379.7404,575.9064,378.9547,575.188,378.2364,574.25,377.2983" style="stroke:#181818;stroke-width:1.0;"/><text fill="#000000" font-family="Chalkduster" font-size="24" lengthAdjust="spacing" textLength="175" x="578.25" y="304.5387">Data storage</text><text fill="#000000" font-family="Chalkduster" font-size="24" lengthAdjust="spacing" textLength="455" x="578.25" y="335.1685">- choose compliant repo solition</text><path d="M1158.75,222.0956 L1158.75,222.3758 L1168.7011,221.5432 L1178.6522,222.3533 L1188.6033,222.6285 L1198.5543,221.1444 L1208.5054,221.992 L1218.4565,221.5269 L1228.4076,221.5842 L1238.3587,222.0047 L1248.3098,221.1738 L1258.2609,222.8338 L1268.212,221.2552 L1278.163,221.8319 L1288.1141,222.6715 L1298.0652,221.9812 L1308.0163,222.1866 L1317.9674,222.053 L1327.9185,222.3336 L1337.8696,222.4144 L1347.8207,222.8765 L1357.7717,222.9903 L1367.7228,223.0013 L1377.6739,222.4351 L1387.625,222.7137 L1397.5761,223.0319 L1407.5272,221.134 L1417.4783,223.0003 L1427.4293,221.7002 L1437.3804,222.8073 L1447.3315,221.4355 L1457.2826,222.0042 L1467.2337,223.0844 L1477.1848,222.0306 L1487.1359,222.236 L1497.087,222.5471 L1507.038,222.6506 L1516.9891,222.0904 L1526.9402,222.4785 L1536.8913,221.3324 L1546.8424,222.4748 L1556.7935,222.8265 L1566.7446,222.6883 L1576.6957,222.9129 L1586.6467,221.4515 L1596.5978,221.226 L1606.5489,221.267 L1616.5,222.0956 " fill="#181818" style="stroke:#181818;stroke-width:4.0;"/><path d="M1616.5,222.0956 L1616.7802,222.0956 L1615.9476,232.4473 L1616.7577,242.7991 L1617.0329,253.1509 L1615.5488,263.5026 L1616.3964,273.8544 L1615.9313,284.2062 L1615.9887,294.5579 L1616.4091,304.9097 L1615.5782,315.2614 L1617.2382,325.6132 L1615.6596,335.965 L1616.2363,346.3167 L1616.5,356.6685 " fill="#181818" style="stroke:#181818;stroke-width:4.0;"/><polygon fill="#181818" points="1612.5,346.6685,1612.565,346.6945,1613.1718,348.6172,1614.1598,350.6924,1615.0237,352.718,1615.4792,354.5802,1616.5,356.6685,1616.4759,356.6589,1617.168,354.6157,1617.9813,352.621,1618.8789,350.6601,1619.486,348.5829,1620.5,346.6685,1620.6305,346.799,1619.5514,347.3199,1618.8534,348.2219,1618.2018,349.1703,1617.2798,349.8483,1616.5,350.6685,1616.5161,350.6846,1615.6925,349.861,1614.9421,349.1106,1614.1564,348.3249,1613.438,347.6066,1612.5,346.6685" style="stroke:#181818;stroke-width:1.0;"/><text fill="#000000" font-family="Chalkduster" font-size="24" lengthAdjust="spacing" textLength="126" x="1616.5" y="304.5387">Analytics</text><path d="M578.25,897.5967 L578.3434,897.5967 L578.0659,901.9967 L578.3359,906.3967 L578.4276,910.7967 L577.9329,915.1967 L578.25,919.5967 " fill="#181818" style="stroke:#181818;stroke-width:4.0;"/><path d="M578.25,919.5967 L578.25,919.8769 L588.3088,919.0442 L598.3676,919.8544 L608.4265,920.1296 L618.4853,918.6455 L628.5441,919.493 L638.6029,919.028 L648.6618,919.0853 L658.7206,919.5058 L668.7794,918.6748 L678.8382,920.3349 L688.8971,918.7563 L698.9559,919.333 L709.0147,920.1726 L719.0735,919.4823 L729.1324,919.6877 L739.1912,919.5541 L749.25,919.8347 L759.3088,919.9155 L769.3676,920.3776 L779.4265,920.4914 L789.4853,920.5023 L799.5441,919.9362 L809.6029,920.2148 L819.6618,920.533 L829.7206,918.6351 L839.7794,920.5013 L849.8382,919.2013 L859.8971,920.3084 L869.9559,918.9366 L880.0147,919.5053 L890.0735,920.5855 L900.1324,919.5317 L910.1912,919.7371 L920.25,919.5967 " fill="#181818" style="stroke:#181818;stroke-width:4.0;"/><polygon fill="#181818" points="910.25,915.5967,910.276,915.6617,912.1987,916.2684,914.2739,917.2565,916.2995,918.1204,918.1617,918.5759,920.25,919.5967,920.2404,919.5726,918.1972,920.2647,916.2025,921.078,914.2416,921.9756,912.1644,922.5827,910.25,923.5967,910.3805,923.7272,910.9014,922.6481,911.8034,921.9501,912.7518,921.2985,913.4298,920.3764,914.25,919.5967,914.2661,919.6128,913.4425,918.7891,912.6921,918.0387,911.9064,917.253,911.188,916.5347,910.25,915.5967" style="stroke:#181818;stroke-width:1.0;"/><path d="M1616.5,858.5967 L1616.7802,858.5967 L1615.9476,868.7633 L1616.7577,878.93 L1617.0329,889.0967 L1615.5488,899.2633 L1616.3964,909.43 L1616.5,919.5967 " fill="#181818" style="stroke:#181818;stroke-width:4.0;"/><path d="M1616.5,919.5967 L1616.5,919.8769 L1606.4664,919.0442 L1596.4328,919.8544 L1586.3993,920.1296 L1576.3657,918.6455 L1566.3321,919.493 L1556.2985,919.028 L1546.2649,919.0853 L1536.2313,919.5058 L1526.1978,918.6748 L1516.1642,920.3349 L1506.1306,918.7563 L1496.097,919.333 L1486.0634,920.1726 L1476.0299,919.4823 L1465.9963,919.6877 L1455.9627,919.5541 L1445.9291,919.8347 L1435.8955,919.9155 L1425.8619,920.3776 L1415.8284,920.4914 L1405.7948,920.5023 L1395.7612,919.9362 L1385.7276,920.2148 L1375.694,920.533 L1365.6604,918.6351 L1355.6269,920.5013 L1345.5933,919.2013 L1335.5597,920.3084 L1325.5261,918.9366 L1315.4925,919.5053 L1305.459,920.5855 L1295.4254,919.5317 L1285.3918,919.7371 L1275.3582,920.0482 L1265.3246,920.1516 L1255.291,919.5915 L1245.2575,919.9796 L1235.2239,918.8334 L1225.1903,919.9758 L1215.1567,920.3276 L1205.1231,920.1894 L1195.0896,920.414 L1185.056,918.9526 L1175.0224,918.7271 L1164.9888,918.7681 L1154.9552,919.5182 L1144.9216,919.3346 L1134.8881,920.5052 L1124.8545,919.3638 L1114.8209,919.1393 L1104.7873,919.901 L1094.7537,918.7075 L1084.7201,918.9045 L1074.6866,920.4619 L1064.653,920.1776 L1054.6194,920.576 L1044.5858,919.1676 L1034.5522,920.0223 L1024.5187,920.3839 L1014.4851,918.9668 L1004.4515,919.4689 L994.4179,919.7646 L984.3843,920.4657 L974.3507,919.5911 L964.3172,920.2134 L954.2836,918.8583 L944.25,919.5967 " fill="#181818" style="stroke:#181818;stroke-width:4.0;"/><polygon fill="#181818" points="954.25,915.5967,954.276,915.6617,952.1987,916.2684,950.2739,917.2565,948.2995,918.1204,946.1617,918.5759,944.25,919.5967,944.2404,919.5726,946.1972,920.2647,948.2025,921.078,950.2416,921.9756,952.1644,922.5827,954.25,923.5967,954.3805,923.7272,953.3014,922.6481,952.6034,921.9501,951.9518,921.2985,951.0298,920.3764,950.25,919.5967,950.2661,919.6128,951.0425,918.7891,951.8921,918.0387,952.7064,917.253,953.588,916.5347,954.25,915.5967" style="stroke:#181818;stroke-width:1.0;"/><path d="M932.25,130.521 L932.5302,130.521 L931.6976,139.647 L932.5077,148.7729 L932.7829,157.8989 L931.2988,167.0249 L932.25,176.1508 " fill="#181818" style="stroke:#181818;stroke-width:4.0;"/><polygon fill="#181818" points="928.25,166.1508,928.315,166.1768,928.9218,168.0995,929.9098,170.1748,930.7737,172.2003,931.2292,174.0625,932.25,176.1508,932.2259,176.1412,932.918,174.098,933.7313,172.1034,934.6289,170.1424,935.236,168.0652,936.25,166.1508,936.3805,166.2813,935.3014,166.8023,934.6034,167.7042,933.9518,168.6526,933.0298,169.3306,932.25,170.1508,932.2661,170.1669,931.4425,169.3433,930.6921,168.5929,929.9064,167.8072,929.188,167.0889,928.25,166.1508" style="stroke:#181818;stroke-width:1.0;"/><path d="M932.25,931.5967 L932.3434,931.5967 L932.0659,935.5967 L932.3359,939.5967 L932.4276,943.5967 L931.9329,947.5967 L932.25,951.5967 " fill="#181818" style="stroke:#181818;stroke-width:4.0;"/><polygon fill="#181818" points="928.25,941.5967,928.315,941.6227,928.9218,943.5454,929.9098,945.6206,930.7737,947.6461,931.2292,949.5084,932.25,951.5967,932.2259,951.587,932.918,949.5439,933.7313,947.5492,934.6289,945.5882,935.236,943.5111,936.25,941.5967,936.3805,941.7272,935.3014,942.2481,934.6034,943.1501,933.9518,944.0985,933.0298,944.7764,932.25,945.5967,932.2661,945.6128,931.4425,944.7891,930.6921,944.0387,929.9064,943.253,929.188,942.5347,928.25,941.5967" style="stroke:#181818;stroke-width:1.0;"/><!--SRC=[NLDDR-8m4BtdLyoU06afzt1YgIfLYyeAThMNI2lZJC88PspP4qh-_Ou3RMcjIB4zNs_UF7yZjgwlyLzdU827HMt4p9qvp9CC3X-wkX0IXoNinSUXXCdwSKFDGDnEm42DwIG-W0cXA9AOA0LxGOZK7gLOfTHtGSXp2NAabDr0VmVKSB2U4zKOiOR6Hz2yG7p691so53_GcZuXaC3Hv13hEzHjh44yf5wB4OF6rPGaqg4NB91hoEKLoYk9FS9qZy548mg_uXKRDmXPuxHq5pnhcGHDz5t5rZk7LXJM8ccVfiKxdrbHMADGfe_A3Tpi5S_17hrFLqz7XWKY1iNc7UMUPmN06uwLjPWIB21fUTI4eEkQT5rn2cYf8Jl6BvIaYl6YRQNPw9TN-MVaOdaNkE-CS_CEQ-exsAw- -BR866yfAvvYEuDjXoS3-_iS6nDRN8mDu2MpkKSTYj0PlwJRxKvwcKCpTYNwsfdkov6L435XF9k3KvWCk-rydNcls5YRAD-UoS3gr_FonkNRD6uzba-amviyi-0uYNwSKiJ95IqrYfKEqKJ212CvCvKKCam7J3S-qUN4xE-W_usaQcHy1JT63zCqMxwRHwawR0JUh_9wRY3uDAB-_jc25yaQCvo_BnQ5b5KTZ3rb-NooAltmildzymFPkrHl1sgkD6mPynWwRRtC4djHduFtfxpVPNK5rxV4oxc-HwFqwGiCpW_voMINn_4qJc7jEJyHZClYOrnvgO33Vm00]--></g></svg>