<?xml version="1.0" encoding="us-ascii" standalone="no"?><svg xmlns="http://www.w3.org/2000/svg" xmlns:xlink="http://www.w3.org/1999/xlink" contentStyleType="text/css" height="1520px" preserveAspectRatio="none" style="width:905px;height:1520px;background:#FFFFFF;" version="1.1" viewBox="0 0 905 1520" width="905px" zoomAndPan="magnify"><defs/><g><text fill="#000000" font-family="Chalkduster" font-size="42" font-weight="bold" lengthAdjust="spacing" textLength="485" x="203" y="51.7215">Transforming Proxy</text><!--cluster t--><g id="cluster_t"><path d="M29,1336.0412 L29,1336.0412 L29.0347,1336.1279 L31.8222,1334.7139 L34.8132,1333.8084 L37.7378,1332.7373 L40.4447,1331.1218 L43.4531,1330.2599 L43.449,1330.2256 L46.3934,1329.7162 L49.3586,1329.3797 L52.3382,1329.1634 L55.2681,1328.5329 L58.2676,1328.4826 L58.2848,1328.728 L61.6445,1327.9648 L65.0544,1327.9183 L68.4705,1327.9592 L71.8508,1327.4914 L75.25,1327.2912 L75.2513,1327.3215 L78.6459,1327.1324 L82.0463,1327.0814 L85.444,1326.9638 L88.847,1326.9731 L92.2324,1326.5685 L92.2399,1326.8667 L95.2029,1326.7961 L98.161,1326.5332 L101.1263,1326.5518 L104.0918,1326.5836 L107.0469,1326.1974 L107.0434,1325.8769 L109.9408,1326.4677 L112.8267,1326.0031 L115.7213,1326.3409 L118.607,1325.8524 L121.5,1326.0412 L121.5,1326.0412 L121.4997,1326.0107 L124.3942,1326.402 L127.281,1326.082 L130.1724,1326.1817 L133.0641,1326.3167 L135.9531,1326.1974 L135.9578,1326.3823 L138.916,1326.2699 L141.8821,1326.4735 L144.8354,1326.1657 L147.8079,1326.6206 L150.7676,1326.5685 L150.7779,1326.8119 L154.1725,1326.9104 L157.5721,1327.1298 L160.9479,1326.7876 L164.3412,1326.857 L167.75,1327.2912 L167.7307,1327.0157 L171.1447,1327.5033 L174.5369,1327.6806 L177.9606,1328.3081 L181.3305,1328.1668 L184.7324,1328.4826 L184.7143,1328.3312 L187.7074,1328.9388 L190.6229,1328.8992 L193.5936,1329.3199 L196.6183,1330.1908 L199.5469,1330.2599 L199.6188,1330.4397 L202.5587,1331.7193 L205.275,1332.4396 L208.2714,1333.8604 L211.2068,1335.1286 L214,1336.0412 L212.7403,1336.0412 L213.7444,1345.893 L214.336,1355.7449 L215.738,1365.5968 L213.9888,1375.4487 L215.2335,1385.3005 L212.5232,1395.1524 L212.194,1405.0043 L215.343,1414.8562 L212.0882,1424.708 L215.3572,1434.5599 L214.551,1444.4118 L213.2856,1454.2637 L213.0566,1464.1155 L215.2234,1473.9674 L213.2018,1483.8193 L214,1493.6712 L214,1493.6712 L214.0977,1493.9154 L211.0181,1494.5993 L208.3207,1496.2384 L205.4081,1497.3398 L202.4779,1498.3972 L199.5469,1499.4524 L199.5494,1499.4732 L196.6225,1500.1285 L193.6536,1500.4341 L190.6672,1500.5935 L187.7095,1500.9926 L184.7324,1501.2298 L184.7284,1501.172 L181.3582,1501.7857 L177.9443,1501.775 L174.5483,1502.0211 L171.1276,1501.9132 L167.75,1502.4212 L167.7423,1502.2412 L164.3635,1502.8014 L160.9652,1502.9011 L157.5597,1502.8357 L154.158,1502.8562 L150.7676,1503.1438 L150.7651,1503.0465 L147.7971,1502.9132 L144.8464,1503.4765 L141.8871,1503.6951 L138.9219,1503.6746 L135.9531,1503.5149 L135.9565,1503.8238 L133.0618,1503.4854 L130.1723,1503.6162 L127.2794,1503.4364 L124.392,1503.7661 L121.5,1503.6712 L121.5,1503.6712 L121.5012,1503.7808 L118.612,1503.8854 L115.7176,1503.5066 L112.8275,1503.5177 L109.9396,1503.7432 L107.0469,1503.5149 L107.0532,1503.767 L104.0783,1503.213 L101.1189,1503.2803 L98.1599,1503.3586 L95.1885,1502.9466 L92.2324,1503.1438 L92.2391,1503.3007 L88.8408,1503.1138 L85.4375,1502.81 L82.0457,1502.7734 L78.6603,1502.8893 L75.25,1502.4212 L75.2403,1502.2824 L71.8633,1502.3225 L68.4659,1502.0712 L65.0641,1501.7576 L61.6684,1501.5305 L58.2676,1501.2298 L58.2736,1501.2798 L55.2716,1500.5989 L52.3206,1500.3419 L49.3545,1499.9597 L46.4194,1499.836 L43.4531,1499.4524 L43.4677,1499.4888 L40.5892,1498.3629 L37.6238,1497.0198 L34.7701,1495.9558 L31.8708,1494.7778 L29,1493.6712 L30.5383,1493.6712 L30.1375,1483.8193 L27.7052,1473.9674 L28.8055,1464.1155 L27.4607,1454.2637 L29.769,1444.4118 L30.6226,1434.5599 L30.4522,1424.708 L27.8385,1414.8562 L30.2372,1405.0043 L27.0192,1395.1524 L29.5337,1385.3005 L28.2018,1375.4487 L29.2579,1365.5968 L29.6409,1355.7449 L30.2589,1345.893 L29,1336.0412 " fill="#00FF7F" style="stroke:#181818;stroke-width:4.0;"/><path d="M29,1336.0412 L29,1336.0412 L29.0347,1336.1279 L31.8222,1337.0264 L34.8132,1338.4334 L37.7378,1339.6748 L40.4447,1340.3718 L43.4531,1341.8224 L43.449,1341.7881 L46.3934,1341.9897 L49.3586,1342.3641 L52.3382,1342.8587 L55.2681,1342.9392 L58.2676,1343.5998 L58.2848,1343.8452 L61.6445,1343.5586 L65.0544,1343.9886 L68.4705,1344.5061 L71.8508,1344.5149 L75.25,1344.7912 L75.2513,1344.8215 L78.6459,1344.9215 L82.0463,1345.1595 L85.444,1345.3309 L88.847,1345.6294 L92.2324,1345.5138 L92.2399,1345.812 L95.2029,1345.8898 L98.161,1345.7754 L101.1263,1345.9424 L104.0918,1346.1227 L107.0469,1345.8849 L107.0434,1345.5644 L109.9408,1346.2177 L112.8267,1345.8156 L115.7213,1346.2159 L118.607,1345.7899 L121.5,1346.0412 L121.5,1346.0412 L121.4997,1346.0107 L124.3942,1346.3395 L127.281,1345.957 L130.1724,1345.9942 L133.0641,1346.0667 L135.9531,1345.8849 L135.9578,1346.0698 L138.916,1345.809 L141.8821,1345.8641 L144.8354,1345.4079 L147.8079,1345.7144 L150.7676,1345.5138 L150.7779,1345.7572 L154.1725,1345.5667 L157.5721,1345.497 L160.9479,1344.8657 L164.3412,1344.6461 L167.75,1344.7912 L167.7307,1344.5157 L171.1447,1344.5268 L174.5369,1344.2275 L177.9606,1344.3784 L181.3305,1343.7606 L184.7324,1343.5998 L184.7143,1343.4484 L187.7074,1343.345 L190.6229,1342.5946 L193.5936,1342.3043 L196.6183,1342.4642 L199.5469,1341.8224 L199.6188,1342.0022 L202.5587,1340.9693 L205.275,1339.3771 L208.2714,1338.4854 L211.2068,1337.4411 L214,1336.0412 " fill="none" style="stroke:#181818;stroke-width:4.0;"/><text fill="#000000" font-family="Chalkduster" font-size="24" font-style="italic" lengthAdjust="spacing" textLength="169" x="37" y="1371.882">&#171;repository&#187;</text><text fill="#000000" font-family="Chalkduster" font-size="24" font-weight="bold" lengthAdjust="spacing" textLength="78" x="82.5" y="1402.5119">Trove</text></g><!--cluster trapi--><g id="cluster_trapi"><polygon fill="#FFC7D8" points="55.5,1052.7812,55.5,1052.9913,65.6111,1052.3668,75.7222,1052.9744,85.8333,1053.1808,95.9444,1052.0678,106.0556,1052.7034,116.1667,1052.3547,126.2778,1052.3977,136.3889,1052.713,146.5,1052.0898,156.6111,1053.3348,166.7222,1052.1509,176.8333,1052.5834,186.9444,1053.2131,197.0556,1052.6954,207.1667,1052.8494,217.2778,1052.7492,227.3889,1052.9597,237.5,1053.0203,247.6111,1053.3669,257.7222,1053.4522,267.8333,1053.4604,277.9444,1053.0358,288.0556,1053.2447,298.1667,1053.4834,308.2778,1052.06,318.3889,1053.4597,328.5,1052.4847,338.6111,1053.315,348.7222,1052.2861,358.8333,1052.7127,368.9444,1053.5228,379.0556,1052.7324,389.1667,1052.8865,399.2778,1053.1198,409.3889,1053.1974,419.5,1052.7812,419.4995,1052.78,419.8902,1053.0161,420.1341,1052.8978,420.5969,1053.3081,420.9841,1053.5358,421.2678,1053.5134,421.4047,1053.5701,421.603,1053.9451,421.4119,1054.1589,421.5063,1054.4909,421.6622,1054.8483,422,1055.2812,421.9411,1055.2812,421.8035,1065.1896,422.6814,1075.098,421.8253,1085.0064,421.6569,1094.9148,422.2283,1104.8233,421.3332,1114.7317,421.4809,1124.6401,422.649,1134.5485,422.4357,1144.457,422.7345,1154.3654,421.6782,1164.2738,422.3192,1174.1822,422.5904,1184.0906,421.5276,1193.9991,421.9041,1203.9075,422.126,1213.8159,422.6518,1223.7243,421.9958,1233.6327,422,1243.5412,422.1425,1243.6002,421.683,1243.8241,421.4985,1244.1619,421.7158,1244.6661,421.1934,1244.8639,421.2678,1245.3089,421.3327,1245.4657,420.9406,1245.519,420.5265,1245.5193,420.162,1245.6393,419.9121,1246.036,419.5,1246.0412,419.5,1245.7418,409.3889,1246.633,399.2778,1245.4884,389.1667,1246.6586,379.0556,1246.5255,368.9444,1246.2861,358.8333,1246.0884,348.7222,1246.7678,338.6111,1246.6547,328.5,1246.2104,318.3889,1246.3093,308.2778,1245.9109,298.1667,1246.7576,288.0556,1246.196,277.9444,1246.2137,267.8333,1245.4328,257.7222,1245.6359,247.6111,1246.5719,237.5,1246.4709,227.3889,1245.9982,217.2778,1245.719,207.1667,1245.8222,197.0556,1245.355,186.9444,1246.4559,176.8333,1246.7807,166.7222,1246.5676,156.6111,1246.7361,146.5,1245.9044,136.3889,1246.1284,126.2778,1245.6536,116.1667,1246.3252,106.0556,1246.2879,95.9444,1246.5935,85.8333,1245.8115,75.7222,1245.9068,65.6111,1246.4846,55.5,1246.0412,55.5724,1246.2159,55.0811,1245.7369,54.7682,1245.6886,54.4584,1245.6478,54.0079,1245.2673,53.7322,1245.3089,53.8411,1245.354,53.6652,1244.9883,53.4083,1244.589,53.3367,1244.2664,53.3708,1243.9877,53,1243.5412,52.6871,1243.5412,53.315,1233.6327,53.2856,1223.7243,53.1158,1213.8159,53.1409,1203.9075,53.1135,1193.9991,52.3758,1184.0906,52.5992,1174.1822,52.5385,1164.2738,53.0638,1154.3654,53.0881,1144.457,53.1617,1134.5485,52.709,1124.6401,52.9325,1114.7317,52.8798,1104.8233,53.5769,1094.9148,53.4266,1085.0064,52.5145,1075.098,52.9271,1065.1896,53,1055.2812,52.8222,1055.2075,53.2353,1054.9644,53.4803,1054.6517,53.607,1054.29,53.4517,1053.8114,53.7322,1053.5134,53.7914,1053.6563,53.991,1053.1382,54.4649,1053.2821,54.7547,1052.9819,55.1588,1052.9574,55.5,1052.7812" style="stroke:#181818;stroke-width:4.0;"/><text fill="#000000" font-family="Chalkduster" font-size="24" font-style="italic" lengthAdjust="spacing" textLength="175" x="150" y="1078.622">&#171;workspace&#187;</text><text fill="#000000" font-family="Chalkduster" font-size="24" font-weight="bold" lengthAdjust="spacing" textLength="249" x="113" y="1109.2519">Transforming API</text></g><!--cluster ws--><g id="cluster_ws"><polygon fill="#FFC7D8" points="283.5,83.8912,283.5,84.1013,293.5492,83.4768,303.5984,84.0844,313.6475,84.2908,323.6967,83.1778,333.7459,83.8134,343.7951,83.4647,353.8443,83.5077,363.8934,83.823,373.9426,83.1998,383.9918,84.4448,394.041,83.2609,404.0902,83.6934,414.1393,84.3231,424.1885,83.8054,434.2377,83.9594,444.2869,83.8592,454.3361,84.0697,464.3852,84.1303,474.4344,84.4769,484.4836,84.5622,494.5328,84.5704,504.582,84.1458,514.6311,84.3547,524.6803,84.5934,534.7295,83.17,544.7787,84.5697,554.8279,83.5947,564.877,84.425,574.9262,83.3961,584.9754,83.8227,595.0246,84.6328,605.0738,83.8424,615.123,83.9965,625.1721,84.2298,635.2213,84.3074,645.2705,83.8873,655.3197,84.1784,665.3689,83.3187,675.418,84.1755,685.4672,84.4394,695.5164,84.3357,705.5656,84.5042,715.6148,83.4081,725.6639,83.239,735.7131,83.2698,745.7623,83.8323,755.8115,83.6946,765.8607,84.5726,775.9098,83.7165,785.959,83.5481,796.0082,84.1194,806.0574,83.2243,816.1066,83.372,826.1557,84.5401,836.2049,84.3268,846.2541,84.6257,856.3033,83.5694,866.3525,84.2104,876.4016,84.4816,886.4508,83.4188,896.5,83.8912,896.4878,83.8616,896.8696,84.0764,897.2902,84.3848,897.5601,84.3292,897.9732,84.6194,898.2678,84.6234,898.0972,84.5528,898.2056,84.8906,898.7158,85.3947,898.4863,85.5926,899.0103,86.1025,899,86.3912,899.2066,86.3912,898.7321,96.243,898.6462,106.0949,899.4588,115.9468,898.7007,125.7987,899.5919,135.6505,898.4473,145.5024,899.6174,155.3543,899.4843,165.2062,899.245,175.058,899.0472,184.9099,899.7266,194.7618,899.6136,204.6137,899.1693,214.4655,899.2682,224.3174,898.8697,234.1693,899,244.0212,899.2206,244.1126,898.9012,244.3945,898.7603,244.7503,898.3733,245.0042,898.2894,245.3837,898.2678,245.7889,898.3355,245.9524,897.969,246.0677,897.5552,246.0686,897.166,246.1291,896.8256,246.3073,896.5,246.5212,896.5,245.835,886.4508,246.9359,876.4016,247.2607,866.3525,247.0476,856.3033,247.2161,846.2541,246.3844,836.2049,246.6084,826.1557,246.1336,816.1066,246.8052,806.0574,246.7679,796.0082,247.0735,785.959,246.2915,775.9098,246.3868,765.8607,246.9646,755.8115,247.0885,745.7623,246.0086,735.7131,246.3273,725.6639,246.6704,715.6148,245.9103,705.5656,246.8746,695.5164,246.7792,685.4672,246.4204,675.418,246.6634,665.3689,247.2498,655.3197,246.2083,645.2705,246.8361,635.2213,246.8068,625.1721,246.6369,615.123,246.6621,605.0738,246.6346,595.0246,245.897,584.9754,246.1203,574.9262,246.0596,564.877,246.585,554.8279,246.6093,544.7787,246.6829,534.7295,246.2302,524.6803,246.4536,514.6311,246.4009,504.582,247.098,494.5328,246.9477,484.4836,246.0356,474.4344,246.4482,464.3852,245.9439,454.3361,246.8095,444.2869,247.1296,434.2377,247.0657,424.1885,246.0856,414.1393,246.9851,404.0902,245.7784,394.041,246.7213,383.9918,246.2218,373.9426,246.6179,363.8934,246.7615,353.8443,246.9933,343.7951,245.8012,333.7459,246.9966,323.6967,246.6993,313.6475,246.8765,303.5984,247.269,293.5492,246.5266,283.5,246.5212,283.5224,246.5751,283.1737,246.4404,282.8181,246.289,282.4392,246.0816,282.1764,246.1542,281.7322,245.7889,281.5445,245.7111,281.7599,245.5075,281.2472,245.0022,281.1265,244.6593,281.1588,244.3798,281,244.0212,281.0283,244.0212,280.5072,234.1693,281.4137,224.3174,281.1089,214.4655,281.7267,204.6137,281.6671,194.7618,280.5517,184.9099,280.6021,175.058,280.8708,165.2062,281.3555,155.3543,281.403,145.5024,281.3012,135.6505,280.658,125.7987,281.6364,115.9468,281.6338,106.0949,280.9527,96.243,281,86.3912,280.9264,86.3607,281.0228,85.9864,281.2268,85.6567,281.4817,85.348,281.5647,84.9682,281.7322,84.6234,281.6789,84.4947,282.148,84.627,282.3808,84.1892,282.857,84.3388,283.2009,84.1692,283.5,83.8912" style="stroke:#181818;stroke-width:4.0;"/><text fill="#000000" font-family="Chalkduster" font-size="24" font-style="italic" lengthAdjust="spacing" textLength="175" x="502.5" y="109.732">&#171;workspace&#187;</text><text fill="#000000" font-family="Chalkduster" font-size="24" font-weight="bold" lengthAdjust="spacing" textLength="142" x="519" y="140.3619">Analytical</text></g><!--cluster tr--><g id="cluster_tr"><polygon fill="none" points="342.5,636.5212,342.5,636.7313,352.5,636.1068,362.5,636.7144,372.5,636.9208,382.5,635.8078,392.5,636.4434,402.5,636.0947,412.5,636.1377,422.5,636.453,432.5,635.8298,442.5,637.0748,452.5,635.8909,462.5,636.3234,472.5,636.9531,482.5,636.4354,492.5,636.5894,502.5,636.4892,512.5,636.6997,522.5,636.7603,532.5,637.1069,542.5,637.1922,552.5,637.2004,562.5,636.7758,572.5,636.9847,582.5,637.2234,592.5,635.8,602.5,637.1997,612.5,636.2247,622.5,637.055,632.5,636.0261,642.5,636.4527,652.5,637.2628,662.5,636.4724,672.5,636.6265,682.5,636.8598,692.5,636.9374,702.5,636.5173,712.5,636.8084,722.5,635.9487,732.5,636.8055,742.5,637.0694,752.5,636.9657,762.5,637.1342,772.5,636.0381,782.5,636.5212,782.4168,636.3203,782.7743,636.4762,783.1996,636.7959,783.5356,636.9,784.0011,637.3168,784.2678,637.2534,784.214,637.2311,784.3086,637.5632,784.631,637.9896,784.5017,638.229,784.6937,638.6014,785,639.0212,785.649,639.0212,785.4357,648.9487,785.7345,658.8762,784.6782,668.8037,785.3192,678.7312,785.5904,688.6587,784.5276,698.5862,784.9041,708.5137,785.126,718.4412,785.6518,728.3687,784.9958,738.2962,785.4626,748.2237,784.4462,758.1512,784.3227,768.0787,785.5036,778.0062,784.2831,787.9337,785.509,797.8612,785.2066,807.7887,784.7321,817.7162,784.6462,827.6437,785.4588,837.5712,784.7007,847.4987,785.5919,857.4262,784.4473,867.3537,785,877.2812,785.1901,877.3599,785.0027,877.6965,784.7825,878.0195,784.5752,878.3478,784.638,878.7881,784.2678,879.0489,784.346,879.2379,783.9358,879.2475,783.5949,879.4244,783.1905,879.4482,782.9449,879.8554,782.5,879.7812,782.5,879.936,772.5,879.9537,762.5,879.1728,752.5,879.3759,742.5,880.3119,732.5,880.2109,722.5,879.7382,712.5,879.459,702.5,879.5622,692.5,879.095,682.5,880.1959,672.5,880.5207,662.5,880.3076,652.5,880.4761,642.5,879.6444,632.5,879.8684,622.5,879.3936,612.5,880.0652,602.5,880.0279,592.5,880.3335,582.5,879.5515,572.5,879.6468,562.5,880.2246,552.5,880.3485,542.5,879.2686,532.5,879.5873,522.5,879.9304,512.5,879.1703,502.5,880.1346,492.5,880.0392,482.5,879.6804,472.5,879.9234,462.5,880.5098,452.5,879.4683,442.5,880.0961,432.5,880.0668,422.5,879.8969,412.5,879.9221,402.5,879.8946,392.5,879.157,382.5,879.3803,372.5,879.3196,362.5,879.845,352.5,879.8693,342.5,879.7812,342.5206,879.831,342.1093,879.5451,341.7843,879.4675,341.424,879.3048,341.1594,879.373,340.7322,879.0489,340.8636,879.1033,340.4363,878.6334,340.4169,878.3325,340.1151,877.9146,340.2353,877.6715,340,877.2812,340.6085,877.2812,340.5446,867.3537,339.5644,857.4262,340.464,847.4987,339.2572,837.5712,340.2002,827.6437,339.7007,817.7162,340.0967,807.7887,340.2403,797.8612,340.4721,787.9337,339.2801,778.0062,340.4755,768.0787,340.1782,758.1512,340.3553,748.2237,340.7478,738.2962,340.0055,728.3687,340.1753,718.4412,340.2134,708.5137,340.1972,698.5862,339.9992,688.6587,340.7107,678.7312,339.3903,668.8037,340.5653,658.8762,339.376,648.9487,340,639.0212,339.8336,638.9522,340.1588,638.6727,340.3016,638.3177,340.2876,637.8976,340.7132,637.6597,340.7322,637.2534,340.7461,637.2869,341.1785,637.3307,341.5244,637.1659,341.7357,636.676,342.0957,636.5451,342.5,636.5212" style="stroke:#181818;stroke-width:4.0;"/><text fill="#000000" font-family="Chalkduster" font-size="24" font-weight="bold" lengthAdjust="spacing" textLength="287" x="419" y="662.362">Transformed Results</text></g><!--entity tvapi--><g id="elem_tvapi"><polygon fill="none" points="111,1429.0412,111,1429.2513,121.6667,1428.6268,132.3333,1429.2344,143,1429.4408,153.6667,1428.3278,164.3333,1428.9634,175,1429.0412,174.9456,1428.9098,175.3046,1429.0695,175.6984,1429.3131,175.9725,1429.2676,176.4848,1429.7974,176.7678,1429.7734,176.5737,1429.693,176.8533,1430.1017,177.1937,1430.5356,177.1807,1430.8231,177.3746,1431.1963,177.5,1431.5412,177.4681,1431.5412,177.6785,1440.6671,177.7391,1449.7931,178.0857,1458.9191,178.1711,1468.045,177.5,1477.171,177.7092,1477.2576,177.432,1477.557,177.3499,1477.9372,177.2769,1478.3212,176.6921,1478.4932,176.7678,1478.9388,176.8543,1479.1477,176.3764,1478.9939,176.1288,1479.396,175.644,1479.2257,175.3448,1479.5035,175,1479.671,175,1480.4126,164.3333,1479.6223,153.6667,1479.7763,143,1480.0096,132.3333,1480.0872,121.6667,1479.6671,111,1479.671,111.0366,1479.7594,110.5734,1479.3483,110.3292,1479.4657,110.0093,1479.4005,109.6425,1479.2221,109.2322,1478.9388,109.421,1479.017,108.937,1478.5236,108.7385,1478.1485,108.6015,1477.7988,108.6283,1477.517,108.5,1477.171,108.3035,1477.171,109.1814,1468.045,108.3253,1458.9191,108.1569,1449.7931,108.7283,1440.6671,108.5,1431.5412,108.2946,1431.4561,108.4866,1431.1214,108.9927,1430.9168,109.0735,1430.5361,109.312,1430.2206,109.2322,1429.7734,109.1912,1429.6743,109.6265,1429.7252,110.0147,1429.6623,110.2326,1429.1886,110.6342,1429.1581,111,1429.0412" style="stroke:#181818;stroke-width:4.0;"/><text fill="#000000" font-family="Chalkduster" font-size="24" lengthAdjust="spacing" textLength="49" x="118.5" y="1462.882">API</text></g><!--entity tf--><g id="elem_tf"><polygon fill="none" points="98.5,1140.7812,98.5,1140.9913,108.4,1140.3668,118.3,1140.9744,128.2,1141.1808,138.1,1140.0678,148,1140.7034,157.9,1140.3547,167.8,1140.3977,177.7,1140.713,187.6,1140.0898,197.5,1141.3348,207.4,1140.1509,217.3,1140.5834,227.2,1141.2131,237.1,1140.6954,247,1140.8494,256.9,1140.7492,266.8,1140.9597,276.7,1141.0203,286.6,1141.3669,296.5,1141.4522,306.4,1141.4604,316.3,1141.0358,326.2,1141.2447,336.1,1141.4834,346,1140.06,355.9,1141.4597,365.8,1140.4847,375.7,1141.315,385.6,1140.2861,395.5,1140.7812,395.4913,1140.7601,395.9482,1141.156,396.2009,1141.059,396.5741,1141.2529,396.9574,1141.4712,397.2678,1141.5134,397.3959,1141.5665,397.413,1141.8664,397.6491,1142.2571,397.5308,1142.501,397.9411,1142.9639,398,1143.2812,398.5482,1143.2812,398.4445,1152.8136,398.613,1162.3461,397.5169,1171.8785,397.3478,1181.411,397.3786,1190.9435,397.9411,1200.4759,397.8035,1210.0084,398,1219.5408,398.2098,1219.6277,397.7998,1219.8721,397.6015,1220.2042,397.631,1220.6306,397.2089,1220.87,397.2678,1221.3086,397.2015,1221.1487,396.997,1221.6549,396.6162,1221.7357,396.3008,1221.9741,395.8125,1221.7953,395.5,1222.0408,395.5,1222.36,385.6,1222.6312,375.7,1221.5684,365.8,1221.945,355.9,1222.1668,346,1222.6926,336.1,1222.0366,326.2,1222.5034,316.3,1221.487,306.4,1221.3636,296.5,1222.5444,286.6,1221.3239,276.7,1222.5498,266.8,1222.2475,256.9,1221.7729,247,1221.6871,237.1,1222.4996,227.2,1221.7415,217.3,1222.6327,207.4,1221.4881,197.5,1222.6583,187.6,1222.5251,177.7,1222.2858,167.8,1222.088,157.9,1222.7674,148,1222.6544,138.1,1222.2101,128.2,1222.309,118.3,1221.9106,108.4,1222.7573,98.5,1222.0408,98.5198,1222.0885,98.1685,1221.9475,97.7153,1221.5606,97.3876,1221.4767,97.1535,1221.6185,96.7322,1221.3086,96.8646,1221.3634,96.5726,1220.9496,96.3401,1220.5604,96.2255,1220.22,95.9351,1219.8069,96,1219.5408,96.4147,1219.5408,96.7396,1210.0084,96.5264,1200.4759,96.6949,1190.9435,95.8633,1181.411,96.0872,1171.8785,95.6124,1162.3461,96.284,1152.8136,96,1143.2812,96.076,1143.3126,96.3166,1142.9981,96.2222,1142.5448,96.3979,1142.2034,96.7224,1141.9235,96.7322,1141.5134,96.8046,1141.6881,97.0204,1141.2091,97.4146,1141.1608,97.8119,1141.12,98.0685,1140.7395,98.5,1140.7812" style="stroke:#181818;stroke-width:4.0;"/><text fill="#000000" font-family="Chalkduster" font-size="24" lengthAdjust="spacing" textLength="173" x="106" y="1174.622">Transformer</text><text fill="#000000" font-family="Chalkduster" font-size="24" lengthAdjust="spacing" textLength="270" x="118" y="1205.2519">Eg Java based XSLT</text></g><!--entity nb--><g id="elem_nb"><polygon fill="none" points="730,171.8912,730,172.1013,740.1429,171.4768,750.2857,172.0844,760.4286,172.2908,770.5714,171.1778,780.7143,171.8134,790.8571,171.4647,801,171.5077,811.1429,171.823,821.2857,171.1998,831.4286,172.4448,841.5714,171.2609,851.7143,171.6934,861.8571,172.3231,872,171.8912,871.9891,171.8647,872.3623,172.0586,872.703,172.1742,873.0834,172.3855,873.4447,172.5506,873.7678,172.6234,873.9481,172.6981,874.1209,173.0625,874.2698,173.4171,874.2855,173.7165,874.4963,174.0967,874.5,174.3912,875.2022,174.3912,873.7788,183.5171,875.1785,192.6431,874.2035,201.7691,875.0338,210.895,874.5,220.021,874.3476,219.9578,874.3325,220.3658,874.4355,220.8227,874.0457,221.0754,873.9466,221.4486,873.7678,221.7888,873.811,221.893,873.4673,222.0634,873.0602,222.0805,872.7437,222.3166,872.2805,222.1983,872,222.521,872,222.8054,861.8571,223.0692,851.7143,222.9655,841.5714,223.134,831.4286,222.0379,821.2857,221.8688,811.1429,221.8996,801,222.4621,790.8571,222.3245,780.7143,223.2024,770.5714,222.3463,760.4286,222.1779,750.2857,222.7493,740.1429,221.8542,730,222.521,729.9338,222.3611,729.7292,222.5744,729.3485,222.3623,729.033,222.3078,728.5447,221.8361,728.2322,221.7888,728.3305,221.8295,728.2676,221.5105,727.7939,221.0214,727.7634,220.7159,727.6852,220.3906,727.5,220.021,728.1518,220.021,727.4958,210.895,727.9626,201.7691,726.9462,192.6431,726.8227,183.5171,727.5,174.3912,727.6551,174.4554,727.4257,173.9462,727.9496,173.749,728.003,173.3569,728.0033,172.9428,728.2322,172.6234,728.1871,172.5144,728.6443,172.6182,728.9012,172.2383,729.3684,172.3663,729.5759,171.8674,730,171.8912" style="stroke:#181818;stroke-width:4.0;"/><text fill="#000000" font-family="Chalkduster" font-size="24" lengthAdjust="spacing" textLength="127" x="737.5" y="205.732">Notebook</text></g><!--entity s1--><g id="elem_s1"><polygon fill="none" points="326.5,171.8912,326.5,172.1013,336.5833,171.4768,346.6667,172.0844,356.75,172.2908,366.8333,171.1778,376.9167,171.8134,387,171.4647,397.0833,171.5077,407.1667,171.823,417.25,171.1998,427.3333,172.4448,437.4167,171.2609,447.5,171.6934,457.5833,172.3231,467.6667,171.8054,477.75,171.9594,487.8333,171.8592,497.9167,172.0697,508,172.1303,518.0833,172.4769,528.1667,172.5622,538.25,172.5704,548.3333,172.1458,558.4167,172.3547,568.5,172.5934,578.5833,171.17,588.6667,172.5697,598.75,171.5947,608.8333,172.425,618.9167,171.3961,629,171.8227,639.0833,172.6328,649.1667,171.8424,659.25,171.9965,669.3333,172.2298,679.4167,172.3074,689.5,171.8912,689.4995,171.89,689.8902,172.1261,690.1341,172.0078,690.5969,172.4181,690.9841,172.6458,691.2678,172.6234,691.4047,172.6801,691.603,173.0551,691.4119,173.2689,691.5063,173.6009,691.6622,173.9583,692,174.3912,691.9411,174.3912,691.8035,183.5171,692.6814,192.6431,691.8253,201.7691,691.6569,210.895,692,220.021,692.0703,220.0501,691.6482,220.2895,691.5472,220.6619,691.7605,221.1644,691.5484,221.4908,691.2678,221.7888,691.3615,222.015,690.8732,221.8361,690.6014,222.18,690.2824,222.4099,689.7933,222.2291,689.5,222.521,689.5,222.4251,679.4167,222.647,669.3333,223.1728,659.25,222.5168,649.1667,222.9836,639.0833,221.9672,629,221.8437,618.9167,223.0246,608.8333,221.8041,598.75,223.03,588.6667,222.7276,578.5833,222.2531,568.5,222.1672,558.4167,222.9798,548.3333,222.2217,538.25,223.1129,528.1667,221.9682,518.0833,223.1384,508,223.0053,497.9167,222.766,487.8333,222.5682,477.75,223.2476,467.6667,223.1346,457.5833,222.6902,447.5,222.7892,437.4167,222.3907,427.3333,223.2374,417.25,222.6759,407.1667,222.6936,397.0833,221.9126,387,222.1158,376.9167,223.0517,366.8333,222.9508,356.75,222.4781,346.6667,222.1988,336.5833,222.3021,326.5,222.521,326.4125,222.3097,326.1994,222.5023,325.8872,222.4559,325.5065,222.2438,325.1744,222.1492,324.7322,221.7888,324.6901,221.7713,324.6126,221.4463,324.32,221.0322,324.3804,220.7643,324.2224,220.406,324,220.021,324.5524,220.021,323.7703,210.895,323.8656,201.7691,324.4435,192.6431,324.5673,183.5171,324,174.3912,323.8422,174.3258,324.0867,174.0129,324.3389,173.7031,324.2512,173.2526,324.6946,173.022,324.7322,172.6234,324.7651,172.7028,325.0729,172.4459,325.4575,172.3743,325.8858,172.4085,326.1065,171.9413,326.5,171.8912" style="stroke:#181818;stroke-width:4.0;"/><text fill="#000000" font-family="Chalkduster" font-size="24" lengthAdjust="spacing" textLength="336" x="334" y="205.732">Service: Eg Voyant tools</text></g><!--entity OAI-PMH--><g id="elem_OAI-PMH"><polygon fill="none" points="385.5,693.5212,385.5,693.7313,395.5769,693.1068,405.6538,693.7144,415.7308,693.9208,425.8077,692.8078,435.8846,693.4434,445.9615,693.0947,456.0385,693.1377,466.1154,693.453,476.1923,692.8298,486.2692,694.0748,496.3462,692.8909,506.4231,693.3234,516.5,693.5212,516.5551,693.6542,516.8426,693.6412,517.2158,693.8351,517.5566,693.9507,517.937,694.1619,518.2678,694.2534,518.3414,694.2839,518.5946,694.6817,518.7673,695.0461,518.9163,695.4007,518.932,695.7001,519,696.0212,519.4636,696.0212,519.7022,705.1471,518.2788,714.2731,519.6785,723.3991,518.7035,732.525,519,741.651,519.1644,741.7191,518.7011,741.9414,518.686,742.3494,518.789,742.8063,518.3992,743.059,518.2678,743.4188,518.2812,743.4512,517.9574,743.6695,517.6138,743.8398,517.2066,743.8569,516.8902,744.093,516.5,744.151,516.5,743.5786,506.4231,744.4354,496.3462,744.6992,486.2692,744.5955,476.1923,744.764,466.1154,743.6679,456.0385,743.4988,445.9615,743.5296,435.8846,744.0921,425.8077,743.9545,415.7308,744.8324,405.6538,743.9763,395.5769,743.8079,385.5,744.151,385.5291,744.2213,385.0614,743.7992,384.7267,743.6982,384.5221,743.9115,384.1414,743.6994,383.7322,743.4188,383.9584,743.5125,383.4867,743.0242,383.5376,742.7524,383.4747,742.4334,383.001,741.9443,383,741.651,382.9041,741.651,383.126,732.525,383.6518,723.3991,382.9958,714.2731,383.4626,705.1471,383,696.0212,382.8295,695.9505,382.9379,695.5812,383.448,695.3783,383.2186,694.869,383.7425,694.6719,383.7322,694.2534,383.7586,694.317,384.0516,694.0244,384.3942,693.8516,384.8514,693.9553,385.1083,693.5754,385.5,693.5212" style="stroke:#181818;stroke-width:4.0;"/><text fill="#000000" font-family="Chalkduster" font-size="24" lengthAdjust="spacing" textLength="116" x="393" y="727.362">OAI-PMH</text></g><!--entity RSS/Atom--><g id="elem_RSS/Atom"><polygon fill="none" points="556,693.5212,556,693.7313,566.2857,693.1068,576.5714,693.7144,586.8571,693.9208,597.1429,692.8078,607.4286,693.4434,617.7143,693.0947,628,693.1377,638.2857,693.453,648.5714,692.8298,658.8571,694.0748,669.1429,692.8909,679.4286,693.3234,689.7143,693.9531,700,693.5212,699.9891,693.4947,700.3623,693.6886,700.703,693.8042,701.0834,694.0155,701.4447,694.1806,701.7678,694.2534,701.9481,694.3281,702.1209,694.6925,702.2698,695.0471,702.2855,695.3465,702.4963,695.7267,702.5,696.0212,703.2022,696.0212,701.7788,705.1471,703.1785,714.2731,702.2035,723.3991,703.0338,732.525,702.5,741.651,702.3476,741.5878,702.3325,741.9958,702.4355,742.4527,702.0457,742.7054,701.9466,743.0786,701.7678,743.4188,701.811,743.523,701.4673,743.6934,701.0602,743.7105,700.7437,743.9466,700.2805,743.8283,700,744.151,700,744.4354,689.7143,744.6992,679.4286,744.5955,669.1429,744.764,658.8571,743.6679,648.5714,743.4988,638.2857,743.5296,628,744.0921,617.7143,743.9545,607.4286,744.8324,597.1429,743.9763,586.8571,743.8079,576.5714,744.3793,566.2857,743.4842,556,744.151,555.9338,743.9911,555.7292,744.2044,555.3485,743.9923,555.033,743.9378,554.5447,743.4661,554.2322,743.4188,554.3305,743.4595,554.2676,743.1405,553.7939,742.6514,553.7634,742.3459,553.6852,742.0206,553.5,741.651,554.1518,741.651,553.4958,732.525,553.9626,723.3991,552.9462,714.2731,552.8227,705.1471,553.5,696.0212,553.6551,696.0854,553.4257,695.5762,553.9496,695.379,554.003,694.9869,554.0033,694.5728,554.2322,694.2534,554.1871,694.1444,554.6443,694.2482,554.9012,693.8683,555.3684,693.9963,555.5759,693.4974,556,693.5212" style="stroke:#181818;stroke-width:4.0;"/><text fill="#000000" font-family="Chalkduster" font-size="24" lengthAdjust="spacing" textLength="129" x="563.5" y="727.362">RSS/Atom</text></g><!--entity TEI--><g id="elem_TEI"><polygon fill="none" points="374.5,805.1512,374.5,805.3613,383.7857,804.7368,393.0714,805.3444,402.3571,805.5508,411.6429,804.4378,420.9286,805.0734,430.2143,804.7247,439.5,805.1512,439.4511,805.0331,439.8449,805.2766,440.1189,805.2311,440.6313,805.761,440.8338,805.5428,441.2678,805.8834,441.2069,805.8582,441.5472,806.292,441.5342,806.5796,441.7281,806.9528,441.8437,807.2935,442,807.6512,442.1785,807.6512,442.2391,816.7771,442.5857,825.9031,442.6711,835.0291,442.6793,844.155,442,853.281,442.0784,853.3135,441.9963,853.6937,441.9234,854.0777,441.3386,854.2497,441.6232,854.7818,441.2678,855.0488,441.2299,854.9575,440.9823,855.3596,440.4975,855.1892,440.1984,855.467,439.9482,855.8629,439.5,855.781,439.5,855.7323,430.2143,855.8863,420.9286,856.1196,411.6429,856.1972,402.3571,855.7771,393.0714,856.0682,383.7857,855.2086,374.5,855.781,374.5363,855.8686,374.2164,855.8034,373.8496,855.625,373.5175,855.5304,373.0242,855.0464,372.7322,855.0488,372.5314,854.9656,372.3944,854.6159,372.4212,854.3341,372.2324,853.963,372.3563,853.7215,372,853.281,371.8253,853.281,371.6569,844.155,372.2283,835.0291,371.3332,825.9031,371.4809,816.7771,372,807.6512,372.1999,807.7339,372.2806,807.3532,372.5191,807.0377,372.3402,806.5495,372.6841,806.2777,372.7322,805.8834,372.8075,806.0652,373.0255,805.5915,373.4271,805.561,373.809,805.4829,374.2296,805.4983,374.5,805.1512" style="stroke:#181818;stroke-width:4.0;"/><text fill="#000000" font-family="Chalkduster" font-size="24" lengthAdjust="spacing" textLength="50" x="382" y="838.992">TEI</text></g><!--entity Linked Data / RDF--><g id="elem_Linked Data / RDF"><polygon fill="none" points="480,805.1512,480,805.3613,489.9286,804.7368,499.8571,805.3444,509.7857,805.5508,519.7143,804.4378,529.6429,805.0734,539.5714,804.7247,549.5,804.7677,559.4286,805.083,569.3571,804.4598,579.2857,805.7048,589.2143,804.5209,599.1429,804.9534,609.0714,805.5831,619,805.0654,628.9286,805.2194,638.8571,805.1192,648.7857,805.3297,658.7143,805.3903,668.6429,805.7369,678.5714,805.8222,688.5,805.8304,698.4286,805.4058,708.3571,805.6147,718.2857,805.8534,728.2143,804.43,738.1429,805.8297,748.0714,804.8547,758,805.1512,758.0681,805.3156,758.2904,805.1452,758.6984,805.423,759.1553,805.8189,759.408,805.7219,759.7678,805.8834,759.8002,805.8968,760.0185,806.2801,760.1888,806.6436,760.2059,806.9436,760.442,807.3342,760.5,807.6512,759.9276,807.6512,760.7844,816.7771,761.0482,825.9031,760.9445,835.0291,761.113,844.155,760.5,853.281,760.3512,853.2194,760.1527,853.5514,760.0157,853.9088,760.0425,854.3341,759.8537,854.6701,759.7678,855.0488,759.8547,855.2586,759.3919,855.1414,759.0169,855.236,758.7362,855.5584,758.2685,855.4292,758,855.781,758,855.2619,748.0714,856.4299,738.1429,856.2167,728.2143,856.5155,718.2857,855.4592,708.3571,856.1002,698.4286,856.3714,688.5,855.3086,678.5714,855.6851,668.6429,855.907,658.7143,856.4328,648.7857,855.7768,638.8571,856.2436,628.9286,855.2272,619,855.1037,609.0714,856.2846,599.1429,855.0641,589.2143,856.29,579.2857,855.9876,569.3571,855.5131,559.4286,855.4272,549.5,856.2398,539.5714,855.4817,529.6429,856.3729,519.7143,855.2282,509.7857,856.3984,499.8571,856.2653,489.9286,856.026,480,855.781,480.006,855.7955,479.7391,855.8583,479.3712,855.6771,478.9609,855.3938,478.62,855.2778,478.2322,855.0488,478.1921,855.0321,478.3064,854.7866,477.987,854.3614,477.846,854.0101,477.4591,853.5569,477.5,853.281,477.0948,853.281,478.0307,844.155,477.9298,835.0291,477.4571,825.9031,477.1778,816.7771,477.5,807.6512,477.4326,807.6232,477.4351,807.2101,477.9206,806.997,478.1671,806.6848,478.2479,806.3041,478.2322,805.8834,478.3209,806.0974,478.5683,805.6948,478.9505,805.6174,479.2435,805.3247,479.6827,805.3851,480,805.1512" style="stroke:#181818;stroke-width:4.0;"/><text fill="#000000" font-family="Chalkduster" font-size="24" lengthAdjust="spacing" textLength="263" x="487.5" y="838.992">Linked Data / RDF</text></g><!--link ws to trapi--><g id="link_ws_trapi"><path d="M280.9509,199.3094 L280.9642,199.4019 L279.843,199.2832 L278.8,199.7066 L277.7316,199.9534 L276.5794,199.6198 L275.5431,200.0897 L275.5379,200.0555 L272.6505,200.3373 L269.7893,200.7913 L266.9462,201.3649 L264.0405,201.5262 L261.2226,202.2651 L261.2622,202.5079 L257.5138,202.5863 L253.881,203.3737 L250.2623,204.2476 L246.5615,204.6182 L242.9039,205.2535 L242.9092,205.2834 L238.6,205.9982 L234.3149,206.8489 L230.0181,207.6341 L225.7435,208.5444 L221.3968,209.0467 L221.4531,209.3396 L216.6767,210.2612 L211.864,210.9938 L207.1044,212.0029 L202.3472,213.025 L197.5112,213.6365 L197.445,213.3229 L192.4827,215.0071 L187.3023,215.6588 L182.2877,217.0954 L177.1023,217.7236 L172.0569,219.0145 L172.0501,218.9848 L169.5178,219.9322 L166.8272,220.1862 L164.2299,220.8493 L161.6405,221.5468 L158.9946,221.9965 L159.038,222.1763 L156.364,222.63 L153.7642,223.3909 L151.0444,223.6547 L148.5036,224.6601 L145.8438,225.1724 L145.9043,225.4084 L143.2652,226.0376 L140.6562,226.7839 L137.9076,226.9858 L135.2613,227.5867 L132.7057,228.5413 L132.6328,228.2749 L130.0939,229.2282 L127.473,229.8813 L124.9711,230.9699 L122.2659,231.315 L119.6816,232.102 L119.6387,231.9557 L117.1483,232.9497 L114.4747,233.3182 L111.9314,234.1316 L109.5155,235.3801 L106.8726,235.8536 L106.9309,236.0383 L104.4724,236.9532 L101.8326,237.2938 L99.4198,238.3538 L96.9576,239.257 L94.3802,239.795 L94.3122,239.5964 L91.9514,240.5808 L89.5684,241.5001 L87.229,242.5472 L84.7197,243.0974 L82.3054,243.9252 L82.3773,244.1178 L79.908,244.5583 L77.5776,245.3705 L75.4502,246.7257 L72.9491,247.0811 L70.7495,248.2432 L70.8356,248.4524 L68.5973,249.229 L66.3298,249.935 L64.1281,250.8006 L62.0785,252.0354 L59.8137,252.7479 L59.7581,252.627 L57.8805,253.925 L55.6254,254.4007 L53.7995,255.8114 L51.7319,256.6957 L49.5992,257.4382 L49.6494,257.5348 L47.7305,258.4318 L45.9913,259.6748 L44.0897,260.6052 L42.1204,261.4049 L40.2074,262.3132 L40.2685,262.4155 L38.4841,263.2752 L36.9834,264.61 L35.1618,265.4074 L33.4723,266.4259 L31.7393,267.3718 L31.5737,267.1581 L28.877,269.3622 L26.3799,271.8238 L23.6005,273.9211 L20.7198,275.8878 L17.9796,278.0356 L17.8665,277.9478 L16.1328,280.2531 L14.1989,282.4028 L12.8153,284.9803 L11.1593,287.3461 L9.1299,289.4215 L9.3564,289.4801 L8.8029,291.9188 L7.8191,294.2462 L7.2895,296.691 L6.4592,299.0581 L6,301.5212 L6.3787,301.5212 L6.329,311.4677 L6.7365,321.4143 L5.6938,331.3609 L5.8208,341.3074 L6.5913,351.254 L6.7564,361.2006 L5.3166,371.1472 L5.7415,381.0937 L6.199,391.0403 L5.1855,400.9869 L6.4712,410.9334 L6.344,420.88 L5.8657,430.8266 L6.1897,440.7732 L6.9716,450.7197 L5.5828,460.6663 L6.42,470.6129 L6.3809,480.5594 L6.1544,490.506 L6.1879,500.4526 L6.1513,510.3992 L5.1678,520.3457 L5.4656,530.2923 L5.3846,540.2389 L6.0851,550.1854 L6.1175,560.132 L6.2157,570.0786 L5.612,580.0252 L5.91,589.9717 L5.8397,599.9183 L6.7691,609.8649 L6.5688,619.8114 L5.3526,629.758 L5.9028,639.7046 L5.2304,649.6512 L6.3845,659.5977 L6.8113,669.5443 L6.7261,679.4909 L5.4193,689.4374 L6.6186,699.384 L5.0096,709.3306 L6.2669,719.2772 L5.6009,729.2237 L6.129,739.1703 L6.3204,749.1169 L6.6295,759.0634 L5.0401,769.01 L6.634,778.9566 L6.2376,788.9032 L6.4738,798.8497 L6.9971,808.7963 L6.0073,818.7429 L6.2337,828.6894 L6.2846,838.636 L6.263,848.5826 L5.9989,858.5292 L6.9476,868.4757 L5.187,878.4223 L6.7537,888.3689 L5.168,898.3154 L5.2796,908.262 L6.0533,918.2086 L6.0377,928.1552 L5.3429,938.1017 L6.5516,948.0483 L6.1451,957.9949 L6.9689,967.9414 L6.8895,977.888 L5.4023,987.8346 L6,997.7812 L5.8233,997.7744 L6.0624,1000.9329 L6.3974,1004.095 L6.5383,1007.2497 L6.6129,1010.4019 L6.5989,1013.5508 L6.4478,1013.5347 L7.219,1016.7631 L7.5567,1019.9453 L7.5945,1023.0956 L7.8486,1026.269 L8.2931,1029.4626 L8.1171,1029.4334 L8.7261,1032.6268 L9.4076,1035.8321 L9.8446,1038.997 L10.2185,1042.1514 L10.9289,1045.3615 L11.1405,1045.4076 L11.4143,1048.4644 L12.5166,1051.7014 L13.1687,1054.8405 L13.8294,1057.9815 L14.3527,1061.0926 L14.6503,1061.171 L15.0586,1064.1464 L15.8467,1067.2218 L17.0105,1070.3962 L17.3426,1073.3515 L18.4107,1076.5007 L18.3112,1076.4705 L19.3675,1079.5017 L20.2554,1082.4817 L20.9815,1085.4125 L22.0233,1088.4393 L22.9494,1091.4309 L23.2626,1091.5375 L24.1953,1094.3832 L24.6447,1097.0644 L25.9017,1100.0205 L26.6256,1102.7951 L27.8149,1105.7282 L27.804,1105.7241 L28.9447,1108.4755 L30.0053,1111.1971 L30.5614,1113.7305 L32.0128,1116.5978 L32.8538,1119.2374 L32.8572,1119.2388 L33.6365,1121.6585 L34.6829,1124.1857 L36.0234,1126.8314 L37.0035,1129.3319 L37.9121,1131.8037 L37.9054,1131.8008 L38.6225,1133.9794 L40.1506,1136.5064 L40.7394,1138.6299 L41.6359,1140.8856 L42.8364,1143.2719 L42.8092,1143.2595 L44.0024,1145.4232 L44.9401,1147.471 L45.6325,1149.4074 L46.4844,1151.4162 L47.4729,1153.487 L47.5411,1153.5195 L48.3867,1155.2841 L48.9472,1156.9128 L50.156,1158.8504 L51.0532,1160.6395 L51.668,1162.2941 L51.5819,1162.2519 L51.689,1162.6029 L52.322,1163.2115 L52.2534,1163.4764 L52.4373,1163.865 L52.6297,1164.2577 L52.7489,1164.3165 L52.4192,1164.2259 L52.9347,1164.552 L52.7642,1164.5399 L53.0838,1164.7694 L52.8641,1164.7331 " fill="none" style="stroke:#181818;stroke-width:4.0;"/><polygon fill="#181818" points="52.8641,1164.7331,52.9341,1164.7359,52.6467,1162.7593,52.7697,1160.7993,52.759,1158.8339,52.3089,1156.8508,52.4671,1154.8922,52.4425,1154.8839,51.9692,1155.918,51.6195,1156.9941,51.3558,1158.0993,50.7959,1159.1041,50.6509,1160.2496,50.7101,1160.4244,49.5119,1159.6874,48.4868,1159.4607,47.4827,1159.2962,46.3558,1158.7695,45.2935,1158.4334,45.3081,1158.4509,46.8008,1159.6851,48.3598,1160.999,49.8868,1162.2745,51.4749,1163.6232,52.8641,1164.7331" style="stroke:#181818;stroke-width:4.0;"/><text fill="#000000" font-family="Chalkduster" font-size="24" lengthAdjust="spacing" textLength="342" x="7" y="543.362">Send 'normal' Trove call</text><text fill="#000000" font-family="Chalkduster" font-size="24" lengthAdjust="spacing" textLength="223" x="66.5" y="573.9919">w/ user API Key</text></g><!--reverse link tr to trapi--><g id="link_tr_trapi"><path d="M339.7693,726.3545 L339.8281,726.4271 L339.2356,726.5495 L338.9875,727.0976 L338.6273,727.5071 L337.8982,727.4607 L337.6797,728.0453 L337.6577,728.0187 L335.4751,729.6167 L333.4031,731.3491 L331.4081,733.1749 L329.1479,734.6788 L327.2592,736.6336 L327.4185,736.8211 L324.3993,738.6949 L321.8452,741.1162 L319.3478,743.6044 L316.5203,745.7038 L313.8664,748.0077 L313.8864,748.0305 L310.6712,750.7933 L307.5471,753.6599 L304.379,756.4765 L301.2948,759.3885 L297.9373,761.9892 L298.138,762.2097 L294.5346,765.4945 L290.8016,768.6369 L287.2582,771.9876 L283.7237,775.3481 L279.9077,778.3993 L279.6885,778.1655 L278.1807,780.4313 L275.9511,781.9272 L274.2702,784.0084 L272.0243,785.4868 L270.2415,787.4593 L270.2205,787.4373 L268.4639,789.6175 L266.2154,791.2838 L264.2572,793.2533 L262.3234,795.2482 L260.2137,797.0595 L260.3431,797.1917 L258.1455,799.0819 L256.1691,801.198 L253.8348,802.9486 L252.0342,805.2443 L249.8788,807.1776 L250.0513,807.3496 L247.9012,809.4398 L245.8367,811.6154 L243.3743,813.3941 L241.2035,815.4637 L239.2913,817.7912 L239.0933,817.5986 L237.1154,819.9903 L234.9144,822.165 L233.0369,824.6544 L230.6071,826.6065 L228.5056,828.8779 L228.3949,828.7731 L226.3933,831.2552 L223.9187,833.2892 L221.7805,835.6419 L219.9715,838.3064 L217.5762,840.4156 L217.7187,840.5468 L215.6127,843.03 L213.0636,845.1052 L211.0695,847.6914 L208.9545,850.1663 L206.5578,852.3818 L206.4012,852.2419 L204.3154,854.8279 L202.1783,857.3681 L200.1419,859.9983 L197.7139,862.2785 L195.5046,864.7542 L195.6601,864.8887 L193.1118,867.1445 L190.8637,869.6599 L189.0539,872.5545 L186.437,874.7509 L184.4713,877.5106 L184.6449,877.6556 L182.35,880.193 L179.9964,882.6814 L177.7753,885.2805 L175.8607,888.1356 L173.5124,890.6285 L173.4087,890.545 L171.5513,893.4848 L168.989,895.8573 L167.2281,898.8748 L165.016,901.5291 L162.6823,904.0856 L162.7684,904.1522 L160.5695,906.8532 L158.6791,909.7927 L156.5099,912.5168 L154.2243,915.1508 L152.0355,917.8596 L152.1313,917.9305 L149.9071,920.6389 L148.1279,923.6764 L145.8454,926.3417 L143.7699,929.1601 L141.6265,931.9282 L141.4056,931.7723 L139.456,934.6926 L137.7726,937.8005 L135.7126,940.6428 L133.5176,943.3899 L131.5098,946.2691 L131.3908,946.1894 L129.475,949.1331 L127.3485,951.9357 L125.8011,955.1261 L123.967,958.1246 L121.74,960.8599 L121.9377,960.9849 L120.1273,963.9886 L117.9412,966.7547 L116.1516,969.7716 L114.0995,972.6225 L112.3714,975.6782 L112.48,975.7426 L110.6832,978.7389 L109.0174,981.813 L106.9359,984.6403 L105.1898,987.6667 L103.4586,990.7019 L103.6311,990.7972 L101.9988,993.8651 L99.8982,996.6743 L98.3417,999.7842 L96.7947,1002.8992 L95.0561,1005.9085 L94.8143,1005.7851 L93.6285,1009.0533 L92.0232,1012.1074 L90.3136,1015.1084 L88.8423,1018.231 L87.2184,1021.2757 L87.512,1021.4124 L85.6487,1024.3181 L84.458,1027.537 L83.0025,1030.6325 L81.4903,1033.7018 L80,1036.7812 L80.0582,1036.8044 L79.158,1039.027 L77.9646,1041.1325 L77.168,1043.3964 L76.254,1045.6135 L75.5557,1047.9167 L75.5824,1047.9261 L75.3926,1048.5011 L75.2235,1049.0835 L74.8336,1049.5885 L74.7273,1050.1928 L74.5556,1050.7743 L74.505,1050.7572 L74.7018,1051.1437 L74.5417,1051.41 L74.0607,1051.5683 L74.1377,1051.9145 L74.0716,1052.2124 " fill="none" style="stroke:#181818;stroke-width:4.0;"/><polygon fill="#181818" points="339.7693,726.3545,339.7874,726.4222,337.8304,726.7282,335.9792,727.431,334.0935,728.0046,332.0946,728.1532,330.2524,728.8901,330.2497,728.8643,331.3622,728.8693,332.4887,729.0041,333.6248,729.2293,334.7276,729.1433,335.8771,729.493,336.0606,729.5127,335.5476,730.5956,335.5703,731.7359,335.6584,732.8832,335.3663,733.9897,335.2741,735.1177,335.2943,735.1281,336.1637,733.3602,337.1251,731.6396,338.0422,729.8962,339.044,728.1963,339.7693,726.3545" style="stroke:#181818;stroke-width:4.0;"/><text fill="#000000" font-family="Chalkduster" font-size="24" lengthAdjust="spacing" textLength="455" x="164" y="928.622">Send/receive 'normal' Trove call</text><text fill="#000000" font-family="Chalkduster" font-size="24" lengthAdjust="spacing" textLength="223" x="280" y="959.2519">w/ user API Key</text></g><!--reverse link ws to tr--><g id="link_ws_tr"><path d="M298.0531,246.6615 L298.1385,246.6993 L297.9125,246.6501 L298.1873,246.8223 L298.2991,246.9223 L297.8745,246.7854 L298.1923,246.9766 L298.1608,246.9624 L298.076,247.0244 L298.15,247.1579 L298.3343,247.3411 L298.1383,247.353 L298.4751,247.6048 L298.698,247.7089 L298.3378,247.7359 L298.6285,248.0669 L298.9986,248.4349 L298.9067,248.5872 L299.0578,248.853 L299.0846,248.8672 L299.5589,249.8182 L300.1554,250.8338 L300.6929,251.8183 L301.3428,252.8621 L301.6264,253.7124 L301.868,253.8872 L303.1457,255.6511 L304.2675,257.3022 L305.6175,259.1184 L306.9781,260.9424 L308,262.5212 L307.8092,262.2636 L310.7519,264.6697 L313.0663,266.2277 L315.8584,268.4304 L318.1585,269.9693 L320.8618,272.0523 L320.8531,272.0231 L323.9326,273.2556 L326.8088,273.8066 L329.8049,274.7597 L332.8111,275.7466 L335.7447,276.4899 L335.759,276.6743 L338.895,276.7333 L342.0555,277.1075 L345.1764,276.9717 L348.3564,277.5965 L351.4971,277.7157 L351.4987,277.9593 L354.5925,277.8924 L357.6871,277.9463 L360.7779,277.4383 L363.8715,277.3422 L366.9675,277.6112 L366.9587,277.3351 L369.7741,277.6743 L372.5795,277.7025 L375.3993,278.1819 L378.1946,277.8909 L381.0045,278.0579 L380.9673,277.91 L383.3196,278.7322 L385.513,278.9223 L387.8195,279.5618 L390.2365,280.6412 L392.4566,280.9374 L392.5886,281.079 L394.2223,282.615 L395.4453,283.7104 L397.1827,285.3575 L398.808,286.8845 L400.1722,288.1313 L399.9668,288.0879 L400.6961,290.8005 L401.3581,293.4988 L402.1523,296.2251 L402.4326,298.8428 L403,301.5212 L403.6168,301.5212 L402.2616,311.5012 L402.097,321.4812 L403.6715,331.4612 L402.0441,341.4412 L403.6786,351.4212 L403.2755,361.4012 L402.6428,371.3812 L402.5283,381.3612 L403.6117,391.3412 L402.6009,401.3212 L403.7891,411.3012 L402.263,421.2812 L403.8232,431.2612 L403.6457,441.2412 L403.3266,451.2212 L403.063,461.2012 L403.9688,471.1812 L403.8181,481.1612 L403.2257,491.1412 L403.3576,501.1212 L402.8263,511.1012 L403.9553,521.0812 L403.2065,531.0612 L403.2301,541.0412 L403,551.0212 L402.7317,550.988 L402.5189,553.4491 L402.6294,555.9501 L402.2825,558.3946 L401.7717,560.8189 L401.4882,563.2713 L401.357,563.2141 L400.5808,565.1115 L399.5722,566.9076 L399.2026,568.982 L398.5168,570.9187 L397.3972,572.6665 L397.5665,572.8279 L394.9698,575.6596 L392.0513,578.1844 L389.4724,581.033 L386.6688,583.6673 L384.1425,586.5662 L384.2219,586.6643 L382.6453,587.9197 L381.1646,589.2936 L379.3797,590.2918 L377.8401,591.593 L376.3115,592.9077 L376.4453,593.0524 L374.9337,594.525 L373.0589,595.6047 L371.606,597.1408 L370.1606,598.6849 L368.5666,600.0683 L368.3531,599.9006 L367.2915,601.9451 L365.8597,603.6985 L364.3358,605.3797 L363.0222,607.2261 L361.5739,608.9667 L361.8656,609.1074 L360.3339,611.2171 L359.4705,613.6493 L358.3439,615.9545 L357.1611,618.2326 L356,620.5212 L356.0603,620.5382 L355.1756,623.6197 L353.9873,626.6153 L353.2099,629.7272 L352.311,632.8047 L351.6354,635.9453 L351.6631,635.9515 L351.6517,636.0529 L351.6616,636.1591 L351.4432,636.2146 L351.5181,636.3353 L351.5254,636.4409 " fill="none" style="stroke:#181818;stroke-width:4.0;"/><polygon fill="#181818" points="298.0531,246.6615,298.1231,246.6618,297.9065,248.6307,298.1005,250.6013,298.1608,252.5713,297.7813,254.5395,298.0106,256.5103,297.9865,256.5009,298.2889,255.4045,298.7129,254.3555,299.2215,253.3394,299.4386,252.2098,300.0641,251.2393,300.1311,251.4112,301.042,251.4542,302.1485,251.9992,303.2789,252.6055,304.2705,252.8554,305.3351,253.2927,305.3504,253.3095,303.8715,251.9586,302.4623,250.6842,301.0195,249.3729,299.6409,248.1321,298.0531,246.6615" style="stroke:#181818;stroke-width:4.0;"/><text fill="#000000" font-family="Chalkduster" font-size="24" lengthAdjust="spacing" textLength="218" x="404" y="419.362">Receive TEI etc</text></g><!--link trapi to t--><g id="link_trapi_t"><path d="M61,1246.2826 L61.0934,1246.2826 L60.8159,1250.8043 L61.0859,1255.326 L61.1776,1259.8477 L60.6829,1264.3694 L61,1268.891 L60.8964,1268.891 L60.4313,1278.6916 L60.4887,1288.4921 L60.9091,1298.2926 L60.0782,1308.0931 L61,1317.8937 L61.2461,1317.8937 L60.7199,1319.1436 L60.9121,1320.3935 L61.192,1321.6434 L60.9619,1322.8933 L61,1324.1432 L61.0303,1324.1432 L60.9858,1324.4554 L61.0793,1324.7676 L61.1063,1325.0798 L61.2603,1325.392 L61,1325.7042 " fill="none" style="stroke:#181818;stroke-width:4.0;"/><polygon fill="#181818" points="61,1246.2826,61.064,1246.3111,60.0738,1248.0265,59.4589,1249.9088,58.7217,1251.7367,57.5827,1253.386,57,1255.2826,56.9817,1255.2643,57.6995,1254.3821,58.5096,1253.5922,59.3839,1252.8666,60.037,1251.9197,61,1251.2826,61.1305,1251.4131,61.6514,1251.9341,62.5534,1252.836,63.5018,1253.7844,64.1798,1254.4624,65,1255.2826,65.0208,1255.2919,64.1903,1253.4783,63.4544,1251.7068,62.6728,1249.915,61.9784,1248.1619,61,1246.2826" style="stroke:#181818;stroke-width:4.0;"/><polygon fill="#181818" points="61,1325.7042,61.064,1325.7326,61.6738,1323.8481,62.6589,1322.1303,63.5217,1320.3583,63.9827,1318.4076,65,1316.7042,64.9817,1316.6858,64.0995,1317.4036,63.3096,1318.2138,62.5839,1319.0881,61.637,1319.7412,61,1320.7042,61.1305,1320.8346,60.0514,1319.7556,59.3534,1319.0575,58.7018,1318.406,57.7798,1317.4839,57,1316.7042,57.0208,1316.7134,57.7903,1318.4998,58.6544,1320.3283,59.4728,1322.1365,60.3784,1323.9834,61,1325.7042" style="stroke:#181818;stroke-width:4.0;"/><text fill="#000000" font-family="Chalkduster" font-size="24" lengthAdjust="spacing" textLength="257" x="62" y="1294.882">Standard API Call</text></g><!--SRC=[ZL9FQy8m5B_dKxpruYcMNKM4iZdcvZQnPUpW9MsV4en9IT9sHVpkUsr5N96nwyllxtkvapfJPOum3dFX1LSYvSut2iU7d34llS8995PejpNs8FKELjPyDuorw5GuX22nfi80fbEBXN7I6zlCPY0SU3WoYvaNUgS85wqMGJUkH27PYLs__NAu02q1IRSsTkyAaI797c-oq6uqp7Vm8Ye1RQeSlk9b4a0dinsOHLgenijCg1vGkxzCtet7r9Xz5qcdGAy3lHXj9JFQ4oNuD8tG7hmnoa57SVSjvTHoRbUci6jqfVBkt9hWS0NyY1PyzVOSCBYUhkCuZBmv3CR9V36OBANUayKZtGj2M3y-1QmhGAqvpqsjEP-TLps167KE8qsfX1f1TrcWFQcDhaCe7ThsEF2Az05Op-6yB7g5CpqaRvJ4-vyCyNYlGIAKQKBBwFbK1T1d5wTfPzEwKBLSsBmJUI3P7m00]--></g></svg>