<svg xmlns="http://www.w3.org/2000/svg" xmlns:xlink="http://www.w3.org/1999/xlink" contentStyleType="text/css" data-diagram-type="DESCRIPTION" height="753px" preserveAspectRatio="none" style="width:2332px;height:753px;background:#FFFFFF;" version="1.1" viewBox="0 0 2332 753" width="2332px" zoomAndPan="magnify"><defs/><g><!--cluster infra--><g class="cluster" data-entity="infra" data-source-line="8" data-uid="ent0002" id="cluster_infra"><rect fill="none" height="739.73" rx="2.5" ry="2.5" style="stroke:#181818;stroke-width:4;" width="2319" x="7" y="7.5625"/><text fill="#000000" font-family="sans-serif" font-size="24" font-weight="bold" lengthAdjust="spacing" textLength="454.9219" x="939.0391" y="32.7656">Infrastructure classified by Use Case</text></g><!--cluster admin--><g class="cluster" data-entity="admin" data-source-line="11" data-uid="ent0003" id="cluster_admin"><rect fill="#CCE5FF" height="326.67" rx="2.5" ry="2.5" style="stroke:#181818;stroke-width:4;" width="1241" x="31" y="62.5625"/><text fill="#000000" font-family="sans-serif" font-size="12" font-style="italic" lengthAdjust="spacing" textLength="48.873" x="627.0635" y="76.1641">&#171;admin&#187;</text><text fill="#000000" font-family="sans-serif" font-size="24" font-weight="bold" lengthAdjust="spacing" textLength="292.1836" x="505.4082" y="101.8984">Administrative Systems</text></g><!--cluster cris--><g class="cluster" data-entity="cris" data-source-line="12" data-uid="ent0004" id="cluster_cris"><rect fill="none" height="233.67" rx="2.5" ry="2.5" style="stroke:#181818;stroke-width:4;" width="574" x="55" y="131.5625"/><text fill="#000000" font-family="sans-serif" font-size="24" font-weight="bold" lengthAdjust="spacing" textLength="558.6094" x="62.6953" y="156.7656">Current Research Information Systems (CRIS)</text></g><!--cluster repo--><g class="cluster" data-entity="repo" data-source-line="22" data-uid="ent0011" id="cluster_repo"><path d="M1296,98.4325 C1296,88.4325 1799,88.4325 1799,88.4325 C1799,88.4325 2302,88.4325 2302,98.4325 L2302,355.2325 C2302,365.2325 1799,365.2325 1799,365.2325 C1799,365.2325 1296,365.2325 1296,355.2325 L1296,98.4325" fill="#98FB98" style="stroke:#181818;stroke-width:4;"/><path d="M1296,98.4325 C1296,108.4325 1799,108.4325 1799,108.4325 C1799,108.4325 2302,108.4325 2302,98.4325" fill="none" style="stroke:#181818;stroke-width:4;"/><text fill="#000000" font-family="sans-serif" font-size="12" font-style="italic" lengthAdjust="spacing" textLength="71.7188" x="1763.1406" y="122.0341">&#171;repository&#187;</text><text fill="#000000" font-family="sans-serif" font-size="24" font-weight="bold" lengthAdjust="spacing" textLength="263.6133" x="1667.1934" y="147.7684">Archival Repositories</text></g><!--cluster ws--><g class="cluster" data-entity="ws" data-source-line="31" data-uid="ent0018" id="cluster_ws"><rect fill="#FFE4E1" height="310.06" rx="2.5" ry="2.5" style="stroke:#181818;stroke-width:4;" width="970" x="734" y="413.2325"/><text fill="#000000" font-family="sans-serif" font-size="12" font-style="italic" lengthAdjust="spacing" textLength="74.2441" x="1181.8779" y="426.8341">&#171;workspace&#187;</text><text fill="#000000" font-family="sans-serif" font-size="24" font-weight="bold" lengthAdjust="spacing" textLength="147.1055" x="1145.4473" y="452.5684">Workspaces</text></g><!--entity dmp--><g class="entity" data-entity="dmp" data-source-line="17" data-uid="ent0008" id="entity_dmp"><rect fill="none" height="48.2656" rx="2.5" ry="2.5" style="stroke:#181818;stroke-width:4;" width="338.75" x="644.63" y="178.5625"/><text fill="#000000" font-family="sans-serif" font-size="24" lengthAdjust="spacing" textLength="318.75" x="654.63" y="211.7656">Data Management Planning</text></g><!--entity rights--><g class="entity" data-entity="rights" data-source-line="18" data-uid="ent0009" id="entity_rights"><rect fill="none" height="76.5313" rx="2.5" ry="2.5" style="stroke:#181818;stroke-width:4;" width="237.582" x="1018.21" y="164.4325"/><text fill="#000000" font-family="sans-serif" font-size="24" lengthAdjust="spacing" textLength="217.582" x="1028.21" y="197.6356">Licence and Rights</text><text fill="#000000" font-family="sans-serif" font-size="24" lengthAdjust="spacing" textLength="150.0586" x="1028.21" y="225.9013">Management</text></g><!--entity auth--><g class="entity" data-entity="auth" data-source-line="19" data-uid="ent0010" id="entity_auth"><rect fill="none" height="48.2656" rx="2.5" ry="2.5" style="stroke:#181818;stroke-width:4;" width="381.9102" x="645.04" y="300.9625"/><text fill="#000000" font-family="sans-serif" font-size="24" lengthAdjust="spacing" textLength="361.9102" x="655.04" y="334.1656">Authentication &amp; Authorization</text></g><!--entity grants--><g class="entity" data-entity="grants" data-source-line="13" data-uid="ent0005" id="entity_grants"><rect fill="none" height="48.2656" rx="2.5" ry="2.5" style="stroke:#181818;stroke-width:4;" width="230.7148" x="162.64" y="178.5625"/><text fill="#000000" font-family="sans-serif" font-size="24" lengthAdjust="spacing" textLength="210.7148" x="172.64" y="211.7656">Grants &amp; Financial</text></g><!--entity ethics--><g class="entity" data-entity="ethics" data-source-line="14" data-uid="ent0006" id="entity_ethics"><rect fill="none" height="48.2656" rx="2.5" ry="2.5" style="stroke:#181818;stroke-width:4;" width="88.3438" x="428.83" y="178.5625"/><text fill="#000000" font-family="sans-serif" font-size="24" lengthAdjust="spacing" textLength="68.3438" x="438.83" y="211.7656">Ethics</text></g><!--entity metrics--><g class="entity" data-entity="metrics" data-source-line="15" data-uid="ent0007" id="entity_metrics"><rect fill="none" height="48.2656" rx="2.5" ry="2.5" style="stroke:#181818;stroke-width:4;" width="216.3125" x="169.84" y="300.9625"/><text fill="#000000" font-family="sans-serif" font-size="24" lengthAdjust="spacing" textLength="196.3125" x="179.84" y="334.1656">Research Metrics</text></g><!--entity ja--><g class="entity" data-entity="ja" data-source-line="23" data-uid="ent0012" id="entity_ja"><rect fill="none" height="48.2656" rx="2.5" ry="2.5" style="stroke:#181818;stroke-width:4;" width="443.9141" x="1312.04" y="178.5625"/><text fill="#000000" font-family="sans-serif" font-size="24" lengthAdjust="spacing" textLength="423.9141" x="1322.04" y="211.7656">Journals, books &amp; other publications</text></g><!--entity glam--><g class="entity" data-entity="glam" data-source-line="24" data-uid="ent0013" id="entity_glam"><rect fill="none" height="48.2656" rx="2.5" ry="2.5" style="stroke:#181818;stroke-width:4;" width="188.9609" x="1790.52" y="178.5625"/><text fill="#000000" font-family="sans-serif" font-size="24" lengthAdjust="spacing" textLength="168.9609" x="1800.52" y="211.7656">GLAM systems</text></g><!--entity irs--><g class="entity" data-entity="irs" data-source-line="25" data-uid="ent0014" id="entity_irs"><rect fill="none" height="76.5313" rx="2.5" ry="2.5" style="stroke:#181818;stroke-width:4;" width="271.5781" x="2014.21" y="164.4325"/><text fill="#000000" font-family="sans-serif" font-size="24" lengthAdjust="spacing" textLength="251.5781" x="2024.21" y="197.6356">Institutional Research</text><text fill="#000000" font-family="sans-serif" font-size="24" lengthAdjust="spacing" textLength="143.6484" x="2024.21" y="225.9013">Repositories</text></g><!--entity Domain Repositories--><g class="entity" data-entity="Domain Repositories" data-source-line="26" data-uid="ent0015" id="entity_Domain Repositories"><rect fill="none" height="48.2656" rx="2.5" ry="2.5" style="stroke:#181818;stroke-width:4;" width="261.4531" x="1403.27" y="300.9625"/><text fill="#000000" font-family="sans-serif" font-size="24" lengthAdjust="spacing" textLength="241.4531" x="1413.27" y="334.1656">Domain Repositories</text></g><!--entity pub--><g class="entity" data-entity="pub" data-source-line="27" data-uid="ent0016" id="entity_pub"><rect fill="none" height="48.2656" rx="2.5" ry="2.5" style="stroke:#181818;stroke-width:4;" width="240.6758" x="1699.66" y="300.9625"/><text fill="#000000" font-family="sans-serif" font-size="24" lengthAdjust="spacing" textLength="220.6758" x="1709.66" y="334.1656">Public Repositories</text></g><!--entity lib--><g class="entity" data-entity="lib" data-source-line="28" data-uid="ent0017" id="entity_lib"><rect fill="none" height="48.2656" rx="2.5" ry="2.5" style="stroke:#181818;stroke-width:4;" width="120.2773" x="1974.86" y="300.9625"/><text fill="#000000" font-family="sans-serif" font-size="24" lengthAdjust="spacing" textLength="100.2773" x="1984.86" y="334.1656">Libraries</text></g><!--entity new--><g class="entity" data-entity="new" data-source-line="33" data-uid="ent0019" id="entity_new"><path d="M766.1564,482.2652 C769.6435,476.0148 775.5199,477.2297 778.3326,482.951 C780.8874,477.7114 785.6324,476.9002 789.5133,481.4339 C793.1133,474.45 797.3828,474.5311 802.7119,479.5292 C805.3596,474.1659 810.8431,473.3963 814.2259,478.7386 C817.2193,473.1052 820.4622,472.79 824.2382,478.0171 C827.566,471.3782 832.4086,470.7221 836.9196,476.8409 C841.251,472.1395 845.1805,471.1461 848.8943,477.5092 C853.5423,472.9889 857.401,474.4677 860.1459,479.704 C863.7667,474.3812 869.912,474.3979 872.8884,480.4274 C876.3628,474.4404 880.9541,474.8337 884.5798,480.2726 C888.1613,476.1963 893.1714,476.7373 895.5528,481.7254 C905.1151,474.057 912.0217,477.843 913.7002,489.2325 C914.4197,489.2656 914.6812,489.587 914.4897,490.2962 C920.1931,494.2678 921.4564,500.1248 914.7502,504.3268 C922.2201,507.4858 922.9968,514.5714 916.908,519.6409 C922.8362,523.4192 922.9463,528.3057 917.2446,532.391 C923.3733,536.3482 923.9632,543.488 917.276,547.4719 C923.2448,551.5944 922.5366,557.6271 915.7955,560.2804 C923.3899,570.4172 919.9772,580.0416 906.7002,581.0294 C907.2117,581.0422 907.3412,581.379 907.1285,581.7963 C904.2505,587.2869 900.2244,586.7646 896.7738,582.3978 C893.847,589.2139 887.3975,589.8459 883.8349,582.9999 C881.0154,589.7469 874.9718,589.4721 871.616,583.5158 C869.1878,589.4333 865.6034,590.9078 860.7522,585.9325 C858.4113,590.7987 853.2,591.3 849.7993,587.2318 C846.0436,592.4891 840.0506,592.1614 837.1435,586.2686 C833.0652,592.0243 828.4604,591.0289 824.8597,585.7375 C821.854,590.3664 816.7903,589.8898 814.5843,584.8846 C811.2578,591.409 805.0919,591.8499 801.694,584.9532 C797.3488,589.322 792.5206,589.218 789.6845,583.2071 C785.2408,588.3799 780.8285,588.7831 777.7148,581.8879 C767.0425,589.4344 761.5187,584.8822 758.29,574.0294 C759.8642,573.7722 760.4498,574.6949 760.1512,576.1117 C752.3976,572.7083 751.7445,565.1464 758.5745,560.2897 C750.569,556.7403 749.7178,551.8071 756.2035,545.8742 C750.1521,542.703 750.2448,536.3294 755.965,532.9411 C749.293,528.5637 749.2602,521.6336 756.2889,517.5443 C751.0304,511.9554 752.3224,507.473 759.1852,504.5953 C750.8662,496.195 753.9613,485.2692 765.29,482.2325 C765.5956,481.8158 765.8823,481.8463 766.1564,482.2652" fill="none" style="stroke:#181818;stroke-width:4;"/><text fill="#000000" font-family="sans-serif" font-size="24" lengthAdjust="spacing" textLength="85.3828" x="765.29" y="512.4356">Novel /</text><text fill="#000000" font-family="sans-serif" font-size="24" lengthAdjust="spacing" textLength="141.4102" x="765.29" y="540.7013">non-archive</text><text fill="#000000" font-family="sans-serif" font-size="24" lengthAdjust="spacing" textLength="50.5898" x="765.29" y="568.9669">data</text></g><!--entity risk--><g class="entity" data-entity="risk" data-source-line="34" data-uid="ent0020" id="entity_risk"><path d="M956.52,498.8625 C956.52,488.8625 1142.0024,488.8625 1142.0024,488.8625 C1142.0024,488.8625 1327.4848,488.8625 1327.4848,498.8625 L1327.4848,564.3938 C1327.4848,574.3938 1142.0024,574.3938 1142.0024,574.3938 C1142.0024,574.3938 956.52,574.3938 956.52,564.3938 L956.52,498.8625" fill="none" style="stroke:#181818;stroke-width:4;"/><path d="M956.52,498.8625 C956.52,508.8625 1142.0024,508.8625 1142.0024,508.8625 C1142.0024,508.8625 1327.4848,508.8625 1327.4848,498.8625" fill="none" style="stroke:#181818;stroke-width:4;"/><text fill="#000000" font-family="sans-serif" font-size="24" lengthAdjust="spacing" textLength="350.9648" x="966.52" y="536.0656">At-risk needs-to-be-archived</text><text fill="#000000" font-family="sans-serif" font-size="24" lengthAdjust="spacing" textLength="276.4453" x="966.52" y="564.3313">data in working storage</text></g><!--entity comp--><g class="entity" data-entity="comp" data-source-line="35" data-uid="ent0021" id="entity_comp"><path d="M1371.6405,512.0641 C1377.496,499.861 1389.4819,500.2153 1395.9013,511.4813 C1402.9278,499.6548 1410.0196,498.889 1418.4524,510.1051 C1423.8655,499.1339 1430.1678,499.4565 1437.6567,508.0695 C1443.6783,497.0342 1454.2297,498.2047 1460.0748,508.2572 C1465.3511,496.8009 1473.4598,495.8351 1481.3759,505.6085 C1488.0555,492.6672 1496.94,495.0717 1504.853,504.3025 C1510.0402,491.5251 1518.5078,490.0971 1527.3025,500.8627 C1535.2823,490.2092 1543.8723,491.4354 1548.9198,503.6362 C1556.5932,493.1792 1565.5564,496.3492 1570.6328,506.3874 C1576.515,493.8639 1587.697,494.419 1594.4789,505.4777 C1602.543,497.5539 1611.5832,498.3418 1616.2201,509.4026 C1621.9112,499.6148 1631.6808,497.3335 1638.6522,507.9985 C1645.3748,497.6994 1655.2758,499.8334 1660.4199,509.7023 C1667.8027,499.1961 1675.8912,501.6584 1681.4149,511.6102 C1696.0729,514.0521 1699.0115,522.7141 1689.6806,534.0087 C1697.3939,544.1611 1694.5186,550.1711 1683.4899,554.7222 C1675.4439,566.6403 1667.9548,564.687 1660.1056,554.5139 C1654.794,566.8281 1647.3613,567.4718 1637.455,559.6935 C1630.5137,571.1061 1619.9418,567.4188 1614.8849,557.6825 C1609.6603,568.522 1599.6753,568.7395 1592.6566,559.6875 C1587.4289,569.9544 1576.4602,570.3676 1569.6042,561.6665 C1564.9697,569.6398 1555.9979,570.1233 1551.1833,561.8711 C1544.2398,575.2933 1535.4252,577.5425 1525.5837,564.6952 C1519.6218,573.0278 1509.229,572.9312 1504.2533,563.5104 C1497.1645,571.7781 1487.9605,570.948 1482.363,561.6518 C1473.8044,572.0659 1464.9701,572.1363 1459.249,558.8809 C1454.0149,570.048 1444.8151,571.8824 1437.3189,561.1457 C1429.3075,569.2955 1421.66,567.1582 1418.4062,556.3895 C1411.0505,569.1274 1399.4112,567.6093 1392.6124,555.8041 C1386.228,566.9895 1377.6238,567.4837 1370.7421,556.2902 C1358.4213,554.1332 1356.4736,543.0042 1363.4403,534.4105 C1353.7732,522.9779 1358.8114,515.2415 1371.6405,512.0641" fill="none" style="stroke:#181818;stroke-width:4;"/><text fill="#000000" font-family="sans-serif" font-size="24" lengthAdjust="spacing" textLength="295.7227" x="1377.14" y="540.6956">Computing Environments</text></g><!--entity survey--><g class="entity" data-entity="survey" data-source-line="36" data-uid="ent0022" id="entity_survey"><path d="M760.4126,658.3161 C762.1644,652.8441 767.3783,652.1067 771.2067,655.8958 C774.5444,650.9796 778.8374,651.0054 782.3164,655.7329 C785.5504,649.603 789.5473,649.0881 793.7549,654.7918 C795.0695,649.6845 799.1833,648.6283 802.8437,652.387 C806.2745,646.6949 811.2582,647.4814 814.5552,652.5328 C817.087,647.9829 822.4455,647.4487 825.4533,651.9604 C827.5432,645.9431 832.2534,645.2936 836.4678,649.7196 C840.8518,643.4277 845.1203,644.3801 848.8,650.4238 C851.9503,646.2218 856.2293,646.5545 858.6892,651.1958 C863.2626,645.6883 867.5028,647.352 869.9057,653.3177 C873.4612,649.2617 878.1329,648.9544 880.6248,654.5045 C885.1888,649.438 889.241,650.3618 891.8181,656.491 C895.9386,652.2284 900.664,651.7466 903.4036,658.0108 C906.519,653.0437 910.781,652.5988 913.8097,658.097 C926.9437,662.4785 928.838,669.3681 920.3223,680.1447 C928.2696,689.7955 924.7329,695.2032 914.8056,699.8496 C911.7,705.1681 908.599,705.428 904.6246,700.7331 C901.8365,705.991 896.9667,706.1568 893.5437,701.4384 C890.9795,707.5431 886.1257,708.307 881.5084,703.7578 C879.6314,709.226 874.8199,709.8438 871.2519,705.531 C868.035,711.2977 862.137,710.4775 858.9154,705.5364 C856.2327,710.7409 851.3004,711.9578 847.1963,707.2099 C844.531,712.0227 840.4822,712.2998 837.5456,707.4817 C833.9764,711.5089 828.5627,711.3052 826.4028,705.8292 C822.7194,712.0139 817.485,711.3545 814.1343,705.4904 C811.3217,709.4918 806.6281,709.4191 804.7128,704.5385 C799.9692,709.6594 796.704,709.1014 793.8376,702.7578 C790.2027,708.1477 785.9744,708.8373 782.2283,702.8714 C777.9389,707.8485 772.6929,707.5436 770.1167,701.0608 C767.2021,705.3597 762.6888,705.6176 760.5665,700.2759 C750.3831,695.949 749.4859,686.9446 757.0374,679.5918 C746.5902,670.4124 748.4929,663.9472 760.4126,658.3161" fill="none" style="stroke:#181818;stroke-width:4;"/><text fill="#000000" font-family="sans-serif" font-size="24" lengthAdjust="spacing" textLength="141.1992" x="765.4" y="687.2256">Survey tools</text></g><!--entity eln--><g class="entity" data-entity="eln" data-source-line="37" data-uid="ent0023" id="entity_eln"><path d="M965.8585,658.592 C971.7048,646.4054 983.6741,646.7581 990.0855,658.0079 C997.1011,646.1972 1004.1829,645.4317 1012.6051,656.6314 C1018.0093,645.6749 1024.3028,645.9964 1031.7822,654.5964 C1037.7944,643.5761 1048.3312,644.744 1054.169,654.7818 C1059.4368,643.3409 1067.5341,642.3756 1075.4402,652.1346 C1082.1094,639.2106 1090.9817,641.611 1098.8846,650.8283 C1104.0633,638.068 1112.5191,636.6411 1121.3027,647.3909 C1129.2724,636.7531 1137.8504,637.9785 1142.8897,650.1628 C1150.5535,639.7211 1159.5039,642.8877 1164.5722,652.9125 C1170.4473,640.407 1181.6135,640.9622 1188.385,652.0061 C1196.4389,644.094 1205.4665,644.8818 1210.0958,655.9278 C1215.7798,646.1542 1225.5358,643.877 1232.4965,654.5276 C1239.2108,644.2436 1249.0978,646.3756 1254.2337,656.2313 C1261.6074,645.7405 1269.6842,648.2002 1275.1992,658.1387 C1289.8557,660.5813 1292.7933,669.2427 1283.4627,680.5355 C1291.1761,690.6884 1288.3006,696.6986 1277.2715,701.2496 C1269.2377,713.1517 1261.7589,711.2018 1253.9198,701.0435 C1248.6167,713.3414 1241.1943,713.9848 1231.3009,706.2182 C1224.3703,717.6153 1213.813,713.9341 1208.7623,704.2119 C1203.5461,715.0368 1193.5749,715.2549 1186.5652,706.2161 C1181.3456,716.4693 1170.3923,716.8829 1163.5449,708.1945 C1158.9179,716.1571 1149.9588,716.6408 1145.1501,708.4008 C1138.2174,721.805 1129.4151,724.0519 1119.5861,711.2231 C1113.6318,719.5435 1103.2535,719.446 1098.2856,710.0379 C1091.2059,718.2935 1082.0148,717.4636 1076.426,708.1798 C1067.8783,718.5787 1059.0562,718.6481 1053.3442,705.4106 C1048.1167,716.5616 1038.9296,718.3927 1031.4449,707.6705 C1023.4436,715.8081 1015.8069,713.6728 1012.5589,702.9186 C1005.2124,715.6383 993.5894,714.1214 986.8009,702.332 C980.4246,713.5011 971.8324,713.9939 964.9613,702.8155 C952.6411,700.6584 950.6937,689.5299 957.6602,680.9367 C947.9934,669.5057 953.0307,661.7698 965.8585,658.592" fill="none" style="stroke:#181818;stroke-width:4;"/><text fill="#000000" font-family="sans-serif" font-size="24" lengthAdjust="spacing" textLength="295.2891" x="971.36" y="687.2256">Electronic Lab Notebooks</text></g><!--entity other--><g class="entity" data-entity="other" data-source-line="38" data-uid="ent0024" id="entity_other"><path d="M1326.8448,658.1612 C1332.5337,650.8286 1338.4855,649.2639 1344.2458,658.0842 C1348.354,648.9475 1355.3423,649.7837 1360.5837,656.9485 C1364.0888,646.5785 1372.7863,646.6522 1378.6223,654.6606 C1382.8298,643.9262 1391.9699,643.6427 1398.4755,652.3089 C1402.0238,643.8797 1408.9967,642.8491 1415.2363,649.2716 C1422.3243,640.1242 1429.0309,641.0731 1435.1295,650.3404 C1439.4145,642.6586 1444.4058,642.0801 1450.8224,647.8545 C1456.4019,640.2272 1465.7254,640.7305 1470.3928,648.979 C1475.841,641.1537 1482.1413,641.825 1486.2232,650.3055 C1493.0528,640.1019 1499.0494,642.0375 1505.3053,650.8803 C1512.4711,642.4234 1519.0868,643.5039 1524.3301,652.9259 C1529.822,644.1644 1537.5994,645.723 1542.1168,653.9464 C1548.2664,646.9498 1553.8179,648.1441 1558.3921,655.7073 C1565.56,648.1778 1574.357,648.5206 1578.9044,658.7365 C1590.1994,660.5281 1595.5417,667.048 1589.8597,678.3312 C1597.9193,690.961 1592.9561,700.3343 1578.4802,702.2366 C1571.8822,710.3808 1564.4916,711.7332 1559.2924,700.8277 C1554.4123,709.1503 1547.8543,710.7204 1542.0039,701.8006 C1536.4771,709.7615 1530.1333,709.5406 1524.3748,702.0652 C1519.1752,712.074 1510.2618,711.5473 1505.2948,701.8402 C1501.4616,712.3072 1493.8904,712.3561 1486.7084,705.4159 C1482.3567,713.4308 1473.8323,714.9418 1469.3819,705.5139 C1464.2331,714.5728 1456.5979,713.303 1452.1929,704.7865 C1446.8267,712.4233 1438.662,713.1936 1434.8274,703.2717 C1429.8702,714.0946 1423.0142,714.7157 1415.7443,705.471 C1409.1153,714.0419 1402.8356,711.2009 1398.3165,703.246 C1391.7861,712.4971 1384.837,711.2722 1379.5035,702.0284 C1373.4344,709.4235 1366.1978,709.4803 1361.3806,700.6317 C1358.0341,708.5264 1350.7654,710.4303 1345.1211,703.0829 C1338.0462,712.8644 1330.3058,713.2841 1324.5251,701.8278 C1308.1137,700.3949 1306.6954,690.9892 1313.0226,678.3947 C1308.8705,665.2525 1312.9884,659.0013 1326.8448,658.1612" fill="none" style="stroke:#181818;stroke-width:4;"/><text fill="#000000" font-family="sans-serif" font-size="24" lengthAdjust="spacing" textLength="237.5859" x="1331.21" y="687.2256">Other research tools</text></g><!--SRC=[PLF1Rjf04Btp5LCEKIi5yWDH94JIYWhI25JrmcMydi2MzIpQNKDfbN_lx1WdOFjYU_pU-CsRjvyi6rUN1EFnNOa9HmwBKKmdH-Fq9mtq2cGIyiOH36Vy6Z2cK9jK1mBZC4RxQgc4uWG_8y4K8mq18zYCX7z2Xml-fAmiMsc0oHu8LgUOg8f3kB_7_ENX8LFrKQWWrmLtMeT0d619aJ2OBOWO7ohfvBdj19-dozdgYoemmSP-bsy1EKMuWQ-MaOr5f-2DbhlWfxIr9Yg0zB4BUDUoe1HQQDKyA_QjotWKas61Z1kgyZGl3fajRvHPLlikVcuDiI50Bc5fDziKr_n1LrRGSfSugTDM4DOq1jr0BlXW_-gx4b4gWonn07dtXUnEU3AEFQ0Jd_S-sYGKQkOAKf1DXRP-adNr_Ftkwy3euYqKtk-oqLvq1DZNXJjhQRhznjvgvfC5n3OIUIaEgovenZ7PLES-gh7nVyqzjJRqB7dq5Kgohg1Tp8lgx0yl-lkhAGA-0vmj1chc1UAN3xkuHqCQyMFxriJysAOJu7mppjSb39_zWHpShPazZr3NGMlE6z8VCHrRmiNMqaZYlfEFLCPHygE2MchPSEL4GbOWMOCeWqc2pkc9k-l_Jtsr5uC5zyG76ppdf3L36dzEw3juLOS3dI1vxnf8rC8rwCc99z98Z9rZ0Sy-aQQZELcEhz4_D32XFLeVhJL9QlBWRV0V]--></g></svg>