<svg xmlns="http://www.w3.org/2000/svg" xmlns:xlink="http://www.w3.org/1999/xlink" contentStyleType="text/css" data-diagram-type="DESCRIPTION" height="717px" preserveAspectRatio="none" style="width:1861px;height:717px;background:#FFFFFF;" version="1.1" viewBox="0 0 1861 717" width="1861px" zoomAndPan="magnify"><defs/><g><!--cluster infra--><g class="cluster" data-entity="infra" data-source-line="8" data-uid="ent0002" id="cluster_infra"><rect fill="none" height="703.99" rx="2.5" ry="2.5" style="stroke:#181818;stroke-width:4;" width="1848" x="7" y="7.5625"/><text fill="#000000" font-family="sans-serif" font-size="24" font-weight="bold" lengthAdjust="spacing" textLength="171.8906" x="845.0547" y="32.7656">Infrastructure</text></g><!--cluster admin--><g class="cluster" data-entity="admin" data-source-line="11" data-uid="ent0003" id="cluster_admin"><rect fill="#CCE5FF" height="290.07" rx="2.5" ry="2.5" style="stroke:#181818;stroke-width:4;" width="824" x="31" y="63.4225"/><text fill="#000000" font-family="sans-serif" font-size="12" font-style="italic" lengthAdjust="spacing" textLength="48.873" x="418.5635" y="77.0241">&#171;admin&#187;</text><text fill="#000000" font-family="sans-serif" font-size="24" font-weight="bold" lengthAdjust="spacing" textLength="292.1836" x="296.9082" y="102.7584">Administrative Systems</text></g><!--cluster repo--><g class="cluster" data-entity="repo" data-source-line="19" data-uid="ent0009" id="cluster_repo"><path d="M879,72.5625 C879,62.5625 1355,62.5625 1355,62.5625 C1355,62.5625 1831,62.5625 1831,72.5625 L1831,343.4925 C1831,353.4925 1355,353.4925 1355,353.4925 C1355,353.4925 879,353.4925 879,343.4925 L879,72.5625" fill="#98FB98" style="stroke:#181818;stroke-width:4;"/><path d="M879,72.5625 C879,82.5625 1355,82.5625 1355,82.5625 C1355,82.5625 1831,82.5625 1831,72.5625" fill="none" style="stroke:#181818;stroke-width:4;"/><text fill="#000000" font-family="sans-serif" font-size="12" font-style="italic" lengthAdjust="spacing" textLength="71.7188" x="1319.1406" y="96.1641">&#171;repository&#187;</text><text fill="#000000" font-family="sans-serif" font-size="24" font-weight="bold" lengthAdjust="spacing" textLength="263.6133" x="1223.1934" y="121.8984">Archival Repositories</text></g><!--cluster ws--><g class="cluster" data-entity="ws" data-source-line="27" data-uid="ent0015" id="cluster_ws"><rect fill="#FFE4E1" height="310.06" rx="2.5" ry="2.5" style="stroke:#181818;stroke-width:4;" width="970" x="136" y="377.4925"/><text fill="#000000" font-family="sans-serif" font-size="12" font-style="italic" lengthAdjust="spacing" textLength="74.2441" x="583.8779" y="391.0941">&#171;workspace&#187;</text><text fill="#000000" font-family="sans-serif" font-size="24" font-weight="bold" lengthAdjust="spacing" textLength="147.1055" x="547.4473" y="416.8284">Workspaces</text></g><!--entity records--><g class="entity" data-entity="records" data-source-line="12" data-uid="ent0004" id="entity_records"><rect fill="none" height="48.2656" rx="2.5" ry="2.5" style="stroke:#181818;stroke-width:4;" width="382.4023" x="46.8" y="138.5625"/><text fill="#000000" font-family="sans-serif" font-size="24" lengthAdjust="spacing" textLength="362.4023" x="56.8" y="171.7656">Research Records Management</text></g><!--entity grants--><g class="entity" data-entity="grants" data-source-line="13" data-uid="ent0005" id="entity_grants"><rect fill="none" height="76.5313" rx="2.5" ry="2.5" style="stroke:#181818;stroke-width:4;" width="170.0586" x="463.97" y="124.4225"/><text fill="#000000" font-family="sans-serif" font-size="24" lengthAdjust="spacing" textLength="76.5234" x="473.97" y="157.6256">Grants</text><text fill="#000000" font-family="sans-serif" font-size="24" lengthAdjust="spacing" textLength="150.0586" x="473.97" y="185.8913">Management</text></g><!--entity ethics--><g class="entity" data-entity="ethics" data-source-line="14" data-uid="ent0006" id="entity_ethics"><rect fill="none" height="76.5313" rx="2.5" ry="2.5" style="stroke:#181818;stroke-width:4;" width="170.0586" x="668.97" y="124.4225"/><text fill="#000000" font-family="sans-serif" font-size="24" lengthAdjust="spacing" textLength="68.3438" x="678.97" y="157.6256">Ethics</text><text fill="#000000" font-family="sans-serif" font-size="24" lengthAdjust="spacing" textLength="150.0586" x="678.97" y="185.8913">Management</text></g><!--entity dmp--><g class="entity" data-entity="dmp" data-source-line="15" data-uid="ent0007" id="entity_dmp"><rect fill="none" height="48.2656" rx="2.5" ry="2.5" style="stroke:#181818;stroke-width:4;" width="338.75" x="68.63" y="275.0925"/><text fill="#000000" font-family="sans-serif" font-size="24" lengthAdjust="spacing" textLength="318.75" x="78.63" y="308.2956">Data Management Planning</text></g><!--entity rights--><g class="entity" data-entity="rights" data-source-line="16" data-uid="ent0008" id="entity_rights"><rect fill="none" height="76.5313" rx="2.5" ry="2.5" style="stroke:#181818;stroke-width:4;" width="237.582" x="442.21" y="260.9625"/><text fill="#000000" font-family="sans-serif" font-size="24" lengthAdjust="spacing" textLength="217.582" x="452.21" y="294.1656">Licence and Rights</text><text fill="#000000" font-family="sans-serif" font-size="24" lengthAdjust="spacing" textLength="150.0586" x="452.21" y="322.4313">Management</text></g><!--entity ja--><g class="entity" data-entity="ja" data-source-line="20" data-uid="ent0010" id="entity_ja"><rect fill="none" height="48.2656" rx="2.5" ry="2.5" style="stroke:#181818;stroke-width:4;" width="443.9141" x="895.04" y="138.5625"/><text fill="#000000" font-family="sans-serif" font-size="24" lengthAdjust="spacing" textLength="423.9141" x="905.04" y="171.7656">Journals, books &amp; other publications</text></g><!--entity glam--><g class="entity" data-entity="glam" data-source-line="21" data-uid="ent0011" id="entity_glam"><rect fill="none" height="48.2656" rx="2.5" ry="2.5" style="stroke:#181818;stroke-width:4;" width="188.9609" x="1373.52" y="138.5625"/><text fill="#000000" font-family="sans-serif" font-size="24" lengthAdjust="spacing" textLength="168.9609" x="1383.52" y="171.7656">GLAM systems</text></g><!--entity cd--><g class="entity" data-entity="cd" data-source-line="22" data-uid="ent0012" id="entity_cd"><rect fill="none" height="48.2656" rx="2.5" ry="2.5" style="stroke:#181818;stroke-width:4;" width="217.0273" x="1597.49" y="138.5625"/><text fill="#000000" font-family="sans-serif" font-size="24" lengthAdjust="spacing" textLength="197.0273" x="1607.49" y="171.7656">Curated datasets</text></g><!--entity irs--><g class="entity" data-entity="irs" data-source-line="23" data-uid="ent0013" id="entity_irs"><rect fill="none" height="76.5313" rx="2.5" ry="2.5" style="stroke:#181818;stroke-width:4;" width="271.5781" x="981.21" y="260.9625"/><text fill="#000000" font-family="sans-serif" font-size="24" lengthAdjust="spacing" textLength="251.5781" x="991.21" y="294.1656">Institutional Research</text><text fill="#000000" font-family="sans-serif" font-size="24" lengthAdjust="spacing" textLength="143.6484" x="991.21" y="322.4313">Repositories</text></g><!--entity Domain Repositories--><g class="entity" data-entity="Domain Repositories" data-source-line="24" data-uid="ent0014" id="entity_Domain Repositories"><rect fill="none" height="48.2656" rx="2.5" ry="2.5" style="stroke:#181818;stroke-width:4;" width="261.4531" x="1288.27" y="275.0925"/><text fill="#000000" font-family="sans-serif" font-size="24" lengthAdjust="spacing" textLength="241.4531" x="1298.27" y="308.2956">Domain Repositories</text></g><!--entity new--><g class="entity" data-entity="new" data-source-line="29" data-uid="ent0016" id="entity_new"><path d="M168.1564,446.5252 C171.6435,440.2748 177.5199,441.4897 180.3326,447.211 C182.8874,441.9714 187.6324,441.1602 191.5133,445.6939 C195.1133,438.71 199.3828,438.7911 204.7119,443.7892 C207.3596,438.4259 212.8431,437.6563 216.2259,442.9986 C219.2193,437.3652 222.4622,437.05 226.2382,442.2771 C229.566,435.6382 234.4086,434.9821 238.9196,441.1009 C243.251,436.3995 247.1805,435.4061 250.8943,441.7692 C255.5423,437.2489 259.401,438.7277 262.1459,443.964 C265.7667,438.6412 271.912,438.6579 274.8884,444.6874 C278.3628,438.7004 282.9541,439.0937 286.5798,444.5326 C290.1613,440.4563 295.1714,440.9973 297.5528,445.9854 C307.1151,438.317 314.0217,442.103 315.7002,453.4925 C316.4197,453.5256 316.6812,453.847 316.4897,454.5562 C322.1931,458.5278 323.4564,464.3848 316.7502,468.5868 C324.2201,471.7458 324.9968,478.8314 318.908,483.9009 C324.8362,487.6792 324.9463,492.5657 319.2446,496.651 C325.3733,500.6082 325.9632,507.748 319.276,511.7319 C325.2448,515.8544 324.5366,521.8871 317.7955,524.5404 C325.3899,534.6772 321.9772,544.3016 308.7002,545.2894 C309.2117,545.3022 309.3412,545.639 309.1285,546.0563 C306.2505,551.5469 302.2244,551.0246 298.7738,546.6578 C295.847,553.4739 289.3975,554.1059 285.8349,547.2599 C283.0154,554.0069 276.9718,553.7321 273.616,547.7758 C271.1878,553.6933 267.6034,555.1678 262.7522,550.1925 C260.4113,555.0587 255.2,555.56 251.7993,551.4918 C248.0436,556.7491 242.0506,556.4214 239.1435,550.5286 C235.0652,556.2843 230.4604,555.2889 226.8597,549.9975 C223.854,554.6264 218.7903,554.1498 216.5843,549.1446 C213.2578,555.669 207.0919,556.1099 203.694,549.2132 C199.3488,553.582 194.5206,553.478 191.6845,547.4671 C187.2408,552.6399 182.8285,553.0431 179.7148,546.1479 C169.0425,553.6944 163.5187,549.1422 160.29,538.2894 C161.8642,538.0322 162.4498,538.9549 162.1512,540.3717 C154.3976,536.9683 153.7445,529.4064 160.5745,524.5497 C152.569,521.0003 151.7178,516.0671 158.2035,510.1342 C152.1521,506.963 152.2448,500.5894 157.965,497.2011 C151.293,492.8237 151.2602,485.8936 158.2889,481.8043 C153.0304,476.2154 154.3224,471.733 161.1852,468.8553 C152.8662,460.455 155.9613,449.5292 167.29,446.4925 C167.5956,446.0758 167.8823,446.1063 168.1564,446.5252" fill="none" style="stroke:#181818;stroke-width:4;"/><text fill="#000000" font-family="sans-serif" font-size="24" lengthAdjust="spacing" textLength="85.3828" x="167.29" y="476.6956">Novel /</text><text fill="#000000" font-family="sans-serif" font-size="24" lengthAdjust="spacing" textLength="141.4102" x="167.29" y="504.9613">non-archive</text><text fill="#000000" font-family="sans-serif" font-size="24" lengthAdjust="spacing" textLength="50.5898" x="167.29" y="533.2269">data</text></g><!--entity risk--><g class="entity" data-entity="risk" data-source-line="30" data-uid="ent0017" id="entity_risk"><path d="M358.52,463.1225 C358.52,453.1225 544.0024,453.1225 544.0024,453.1225 C544.0024,453.1225 729.4848,453.1225 729.4848,463.1225 L729.4848,528.6538 C729.4848,538.6538 544.0024,538.6538 544.0024,538.6538 C544.0024,538.6538 358.52,538.6538 358.52,528.6538 L358.52,463.1225" fill="none" style="stroke:#181818;stroke-width:4;"/><path d="M358.52,463.1225 C358.52,473.1225 544.0024,473.1225 544.0024,473.1225 C544.0024,473.1225 729.4848,473.1225 729.4848,463.1225" fill="none" style="stroke:#181818;stroke-width:4;"/><text fill="#000000" font-family="sans-serif" font-size="24" lengthAdjust="spacing" textLength="350.9648" x="368.52" y="500.3256">At-risk needs-to-be-archived</text><text fill="#000000" font-family="sans-serif" font-size="24" lengthAdjust="spacing" textLength="276.4453" x="368.52" y="528.5913">data in working storage</text></g><!--entity comp--><g class="entity" data-entity="comp" data-source-line="31" data-uid="ent0018" id="entity_comp"><path d="M773.6405,476.3241 C779.496,464.121 791.4819,464.4753 797.9013,475.7413 C804.9278,463.9148 812.0196,463.149 820.4524,474.3651 C825.8655,463.3939 832.1678,463.7165 839.6567,472.3295 C845.6783,461.2942 856.2297,462.4647 862.0748,472.5172 C867.3511,461.0609 875.4598,460.0951 883.3759,469.8685 C890.0555,456.9272 898.94,459.3317 906.853,468.5625 C912.0402,455.7851 920.5078,454.3571 929.3025,465.1227 C937.2823,454.4692 945.8723,455.6954 950.9198,467.8962 C958.5932,457.4392 967.5564,460.6092 972.6328,470.6474 C978.515,458.1239 989.697,458.679 996.4789,469.7377 C1004.543,461.8139 1013.5832,462.6018 1018.2201,473.6626 C1023.9112,463.8748 1033.6808,461.5935 1040.6522,472.2585 C1047.3748,461.9594 1057.2758,464.0934 1062.4199,473.9623 C1069.8027,463.4561 1077.8912,465.9184 1083.4149,475.8702 C1098.0729,478.3121 1101.0115,486.9741 1091.6806,498.2687 C1099.3939,508.4211 1096.5186,514.4311 1085.4899,518.9822 C1077.4439,530.9003 1069.9548,528.947 1062.1056,518.7739 C1056.794,531.0881 1049.3613,531.7318 1039.455,523.9535 C1032.5137,535.3661 1021.9418,531.6788 1016.8849,521.9425 C1011.6603,532.782 1001.6753,532.9995 994.6566,523.9475 C989.4289,534.2144 978.4602,534.6276 971.6042,525.9265 C966.9697,533.8998 957.9979,534.3833 953.1833,526.1311 C946.2398,539.5533 937.4252,541.8025 927.5837,528.9552 C921.6218,537.2878 911.229,537.1912 906.2533,527.7704 C899.1645,536.0381 889.9605,535.208 884.363,525.9118 C875.8044,536.3259 866.9701,536.3963 861.249,523.1409 C856.0149,534.308 846.8151,536.1424 839.3189,525.4057 C831.3075,533.5555 823.66,531.4182 820.4062,520.6495 C813.0505,533.3874 801.4112,531.8693 794.6124,520.0641 C788.228,531.2495 779.6238,531.7437 772.7421,520.5502 C760.4213,518.3932 758.4736,507.2642 765.4403,498.6705 C755.7732,487.2379 760.8114,479.5015 773.6405,476.3241" fill="none" style="stroke:#181818;stroke-width:4;"/><text fill="#000000" font-family="sans-serif" font-size="24" lengthAdjust="spacing" textLength="295.7227" x="779.14" y="504.9556">Computing Environments</text></g><!--entity survey--><g class="entity" data-entity="survey" data-source-line="32" data-uid="ent0019" id="entity_survey"><path d="M162.4126,622.5761 C164.1644,617.1041 169.3783,616.3667 173.2067,620.1558 C176.5444,615.2396 180.8374,615.2654 184.3164,619.9929 C187.5504,613.863 191.5473,613.3481 195.7549,619.0518 C197.0695,613.9445 201.1833,612.8883 204.8437,616.647 C208.2745,610.9549 213.2582,611.7414 216.5552,616.7928 C219.087,612.2429 224.4455,611.7087 227.4533,616.2204 C229.5432,610.2031 234.2534,609.5536 238.4678,613.9796 C242.8518,607.6877 247.1203,608.6401 250.8,614.6838 C253.9503,610.4818 258.2293,610.8145 260.6892,615.4558 C265.2626,609.9483 269.5028,611.612 271.9057,617.5777 C275.4612,613.5217 280.1329,613.2144 282.6248,618.7645 C287.1888,613.698 291.241,614.6218 293.8181,620.751 C297.9386,616.4884 302.664,616.0066 305.4036,622.2708 C308.519,617.3037 312.781,616.8588 315.8097,622.357 C328.9437,626.7385 330.838,633.6281 322.3223,644.4047 C330.2696,654.0555 326.7329,659.4632 316.8056,664.1096 C313.7,669.4281 310.599,669.688 306.6246,664.9931 C303.8365,670.251 298.9667,670.4168 295.5437,665.6984 C292.9795,671.8031 288.1257,672.567 283.5084,668.0178 C281.6314,673.486 276.8199,674.1038 273.2519,669.791 C270.035,675.5577 264.137,674.7375 260.9154,669.7964 C258.2327,675.0009 253.3004,676.2178 249.1963,671.4699 C246.531,676.2827 242.4822,676.5598 239.5456,671.7417 C235.9764,675.7689 230.5627,675.5652 228.4028,670.0892 C224.7194,676.2739 219.485,675.6145 216.1343,669.7504 C213.3217,673.7518 208.6281,673.6791 206.7128,668.7985 C201.9692,673.9194 198.704,673.3614 195.8376,667.0178 C192.2027,672.4077 187.9744,673.0973 184.2283,667.1314 C179.9389,672.1085 174.6929,671.8036 172.1167,665.3208 C169.2021,669.6197 164.6888,669.8776 162.5665,664.5359 C152.3831,660.209 151.4859,651.2046 159.0374,643.8518 C148.5902,634.6724 150.4929,628.2072 162.4126,622.5761" fill="none" style="stroke:#181818;stroke-width:4;"/><text fill="#000000" font-family="sans-serif" font-size="24" lengthAdjust="spacing" textLength="141.1992" x="167.4" y="651.4856">Survey tools</text></g><!--entity eln--><g class="entity" data-entity="eln" data-source-line="33" data-uid="ent0020" id="entity_eln"><path d="M367.8585,622.852 C373.7048,610.6654 385.6741,611.0181 392.0855,622.2679 C399.1011,610.4572 406.1829,609.6917 414.6051,620.8914 C420.0093,609.9349 426.3028,610.2564 433.7822,618.8564 C439.7944,607.8361 450.3312,609.004 456.169,619.0418 C461.4368,607.6009 469.5341,606.6356 477.4402,616.3946 C484.1094,603.4706 492.9817,605.871 500.8846,615.0883 C506.0633,602.328 514.5191,600.9011 523.3027,611.6509 C531.2724,601.0131 539.8504,602.2385 544.8897,614.4228 C552.5535,603.9811 561.5039,607.1477 566.5722,617.1725 C572.4473,604.667 583.6135,605.2222 590.385,616.2661 C598.4389,608.354 607.4665,609.1418 612.0958,620.1878 C617.7798,610.4142 627.5358,608.137 634.4965,618.7876 C641.2108,608.5036 651.0978,610.6356 656.2337,620.4913 C663.6074,610.0005 671.6842,612.4602 677.1992,622.3987 C691.8557,624.8413 694.7933,633.5027 685.4627,644.7955 C693.1761,654.9484 690.3006,660.9586 679.2715,665.5096 C671.2377,677.4117 663.7589,675.4618 655.9198,665.3035 C650.6167,677.6014 643.1943,678.2448 633.3009,670.4782 C626.3703,681.8753 615.813,678.1941 610.7623,668.4719 C605.5461,679.2968 595.5749,679.5149 588.5652,670.4761 C583.3456,680.7293 572.3923,681.1429 565.5449,672.4545 C560.9179,680.4171 551.9588,680.9008 547.1501,672.6608 C540.2174,686.065 531.4151,688.3119 521.5861,675.4831 C515.6318,683.8035 505.2535,683.706 500.2856,674.2979 C493.2059,682.5535 484.0148,681.7236 478.426,672.4398 C469.8783,682.8387 461.0562,682.9081 455.3442,669.6706 C450.1167,680.8216 440.9296,682.6527 433.4449,671.9305 C425.4436,680.0681 417.8069,677.9328 414.5589,667.1786 C407.2124,679.8983 395.5894,678.3814 388.8009,666.592 C382.4246,677.7611 373.8324,678.2539 366.9613,667.0755 C354.6411,664.9184 352.6937,653.7899 359.6602,645.1967 C349.9934,633.7657 355.0307,626.0298 367.8585,622.852" fill="none" style="stroke:#181818;stroke-width:4;"/><text fill="#000000" font-family="sans-serif" font-size="24" lengthAdjust="spacing" textLength="295.2891" x="373.36" y="651.4856">Electronic Lab Notebooks</text></g><!--entity other--><g class="entity" data-entity="other" data-source-line="34" data-uid="ent0021" id="entity_other"><path d="M728.8448,622.4212 C734.5337,615.0886 740.4855,613.5239 746.2458,622.3442 C750.354,613.2075 757.3423,614.0437 762.5837,621.2085 C766.0888,610.8385 774.7863,610.9122 780.6223,618.9206 C784.8298,608.1862 793.9699,607.9027 800.4755,616.5689 C804.0238,608.1397 810.9967,607.1091 817.2363,613.5316 C824.3243,604.3842 831.0309,605.3331 837.1295,614.6004 C841.4145,606.9186 846.4058,606.3401 852.8224,612.1145 C858.4019,604.4872 867.7254,604.9905 872.3928,613.239 C877.841,605.4137 884.1413,606.085 888.2232,614.5655 C895.0528,604.3619 901.0494,606.2975 907.3053,615.1403 C914.4711,606.6834 921.0868,607.7639 926.3301,617.1859 C931.822,608.4244 939.5994,609.983 944.1168,618.2064 C950.2664,611.2098 955.8179,612.4041 960.3921,619.9673 C967.56,612.4378 976.357,612.7806 980.9044,622.9965 C992.1994,624.7881 997.5417,631.308 991.8597,642.5912 C999.9193,655.221 994.9561,664.5943 980.4802,666.4966 C973.8822,674.6408 966.4916,675.9932 961.2924,665.0877 C956.4123,673.4103 949.8543,674.9804 944.0039,666.0606 C938.4771,674.0215 932.1333,673.8006 926.3748,666.3252 C921.1752,676.334 912.2618,675.8073 907.2948,666.1002 C903.4616,676.5672 895.8904,676.6161 888.7084,669.6759 C884.3567,677.6908 875.8323,679.2018 871.3819,669.7739 C866.2331,678.8328 858.5979,677.563 854.1929,669.0465 C848.8267,676.6833 840.662,677.4536 836.8274,667.5317 C831.8702,678.3546 825.0142,678.9757 817.7443,669.731 C811.1153,678.3019 804.8356,675.4609 800.3165,667.506 C793.7861,676.7571 786.837,675.5322 781.5035,666.2884 C775.4344,673.6835 768.1978,673.7403 763.3806,664.8917 C760.0341,672.7864 752.7654,674.6903 747.1211,667.3429 C740.0462,677.1244 732.3058,677.5441 726.5251,666.0878 C710.1137,664.6549 708.6954,655.2492 715.0226,642.6547 C710.8705,629.5125 714.9884,623.2613 728.8448,622.4212" fill="none" style="stroke:#181818;stroke-width:4;"/><text fill="#000000" font-family="sans-serif" font-size="24" lengthAdjust="spacing" textLength="237.5859" x="733.21" y="651.4856">Other research tools</text></g><!--SRC=[RPF1Rjim38RlVWekXvtcz0MA0aKN32tITaWFk-H2IvoZHQOCKNOM57ttIRAzESvoIK9_lqJ-_Ft9iBAT9bYlRpG6B2rMfOIpfNNu7OhyyQG2Scq9Le_yqwC4twdGULe12fXKWlV8mGoyrurX4qaCfYTuEqkWHbPmUulfoTrTakQVKGemb-v82Bqwm8wKyrhW6HbhQeX3lj0FvQIQoxvvv21xNj1rBY_XJJWOTGrJBY_Xhz6NMHFmtIApuJfBTDCk-QrHn8e0MSFEr8V_TELpkO2F0Wf8lbSeoRKujkdHnj5R9oOuRqZ6eLiNpVDJ_HmTV5zU_EGwpsZb2rJE7GK-Wmi7yj1sbJKgRiBnSDell79lU_yCCcqf-MQnMK8FNLmdwTomK1X0fPVO8qimeKlNvL66TUxvQYZZhxrs3SPCNA15zca6_N3-A2qgoe4wJV-6K9raD0PW_5BMTHfMBwud2pTxPiSbPgTfpscMt0pJQHBC5X9AR-GO7vAMChYoeacg1stCFwGEOXv0OiDno-E6vNXv_uDhscXAv3RS6-yufM7qq8qf-Wk_TRwdCmJdx818Bbn26nizYGSP1LkiuCK5oeiVicpvadxDMV3Js_Nlw1oImUJYe_W3]--></g></svg>