<svg xmlns="http://www.w3.org/2000/svg" xmlns:xlink="http://www.w3.org/1999/xlink" contentStyleType="text/css" data-diagram-type="DESCRIPTION" height="662px" preserveAspectRatio="none" style="width:604px;height:662px;background:#FFFFFF;" version="1.1" viewBox="0 0 604 662" width="604px" zoomAndPan="magnify"><title>Research Data Activities</title><defs/><g><text fill="#000000" font-family="Chalkduster" font-size="42" font-weight="bold" lengthAdjust="spacing" textLength="576.4905" x="10" y="51.7215">Research Data Activities</text><!--cluster activities--><g class="cluster" data-entity="activities" data-source-line="7" data-uid="ent0002" id="cluster_activities"><polygon fill="#FFC7D8" points="27.7453,83.8912,27.7453,84.1013,37.6738,83.4768,47.6024,84.0844,57.531,84.2908,67.4596,83.1778,77.3881,83.8134,87.3167,83.4647,97.2453,83.5077,107.1738,83.823,117.1024,83.1998,127.031,84.4448,136.9596,83.2609,146.8881,83.6934,156.8167,84.3231,166.7453,83.8054,176.6738,83.9594,186.6024,83.8592,196.531,84.0697,206.4596,84.1303,216.3881,84.4769,226.3167,84.5622,236.2453,84.5704,246.1738,84.1458,256.1024,84.3547,266.031,84.5934,275.9596,83.17,285.8881,84.5697,295.8167,83.5947,305.7453,84.425,315.6738,83.3961,325.6024,83.8227,335.531,84.6328,345.4596,83.8424,355.3881,83.9965,365.3167,84.2298,375.2453,84.3074,385.1738,83.8873,395.1024,84.1784,405.031,83.3187,414.9596,84.1755,424.8881,84.4394,434.8167,84.3357,444.7453,84.5042,454.6738,83.4081,464.6024,83.239,474.531,83.2698,484.4596,83.8323,494.3881,83.6946,504.3167,84.5726,514.2453,83.7165,524.1738,83.5481,534.1024,84.1194,544.031,83.2243,553.9596,83.372,563.8881,84.5401,573.8167,84.3268,583.7453,83.8912,583.839,84.1174,584.0578,83.9385,584.4931,84.2824,584.8812,84.5123,585.0992,84.3315,585.513,84.6234,585.4835,84.6112,585.6983,84.993,586.0066,85.4136,585.9511,85.6835,586.2413,86.0966,586.2453,86.3912,585.6915,86.3912,585.568,96.3541,586.7489,106.3171,585.5283,116.2801,586.7542,126.2431,586.4519,136.2061,585.9774,146.1691,585.8915,156.132,586.704,166.095,585.9459,176.058,586.8371,186.021,585.6925,195.984,586.8627,205.947,586.7296,215.9099,586.4902,225.8729,586.2925,235.8359,586.9719,245.7989,586.8588,255.7619,586.4145,265.7248,586.5135,275.6878,586.115,285.6508,586.9617,295.6138,586.4001,305.5768,586.4178,315.5398,585.6369,325.5027,585.84,335.4657,586.776,345.4287,586.675,355.3917,586.2023,365.3547,585.9231,375.3177,586.0263,385.2806,585.5591,395.2436,586.66,405.2066,586.9848,415.1696,586.7717,425.1326,586.9402,435.0955,586.1085,445.0585,586.3325,455.0215,585.8577,464.9845,586.5293,474.9475,586.492,484.9105,586.7977,494.8734,586.0156,504.8364,586.1109,514.7994,586.6887,524.7624,586.8126,534.7254,585.7327,544.6884,586.0514,554.6513,586.3945,564.6143,585.6344,574.5773,586.5987,584.5403,586.5033,594.5033,586.1445,604.4662,586.3875,614.4292,586.9739,624.3922,585.9324,634.3552,586.5603,644.3182,586.2453,654.2812,586.3332,654.3176,586.1345,654.6495,585.9958,655.0062,585.8409,655.3563,585.4673,655.6158,585.513,656.0489,585.4619,655.9255,585.1006,656.0532,584.8141,656.3615,584.4636,656.5154,584.1195,656.6845,583.7453,656.7812,583.7453,656.4902,573.8167,656.7136,563.8881,656.6609,553.9596,657.358,544.031,657.2077,534.1024,656.2956,524.1738,656.7082,514.2453,656.2039,504.3167,657.0695,494.3881,657.3896,484.4596,657.3257,474.531,656.3456,464.6024,657.2451,454.6738,656.0384,444.7453,656.9813,434.8167,656.4818,424.8881,656.8779,414.9596,657.0215,405.031,657.2533,395.1024,656.0612,385.1738,657.2566,375.2453,656.9593,365.3167,657.1365,355.3881,657.529,345.4596,656.7866,335.531,656.9564,325.6024,656.9946,315.6738,656.9784,305.7453,656.7803,295.8167,657.4919,285.8881,656.1714,275.9596,657.3464,266.031,656.1572,256.1024,656.2408,246.1738,656.8212,236.2453,656.8094,226.3167,656.2883,216.3881,657.1949,206.4596,656.89,196.531,657.5078,186.6024,657.4483,176.6738,656.3329,166.7453,656.3832,156.8167,656.652,146.8881,657.1367,136.9596,657.1841,127.031,657.0823,117.1024,656.4392,107.1738,657.4175,97.2453,657.4149,87.3167,656.7339,77.3881,656.5421,67.4596,656.3798,57.531,656.5666,47.6024,656.9186,37.6738,656.7128,27.7453,656.7812,27.692,656.6525,27.4539,656.7848,26.9796,656.3469,26.7487,656.4965,26.3856,656.3269,25.9775,656.0489,26.092,656.0964,26.0443,655.7837,25.6089,655.3105,25.4456,654.9499,25.5515,654.7009,25.2453,654.2812,24.6484,654.2812,25.0113,644.3182,25.3608,634.3552,25.314,624.3922,24.8868,614.4292,25.2023,604.4662,25.9899,594.5033,25.8938,584.5403,24.649,574.5773,25.3238,564.6143,24.7314,554.6513,25.219,544.6884,25.5383,534.7254,25.6651,524.7624,24.5805,514.7994,25.6458,504.8364,25.2537,494.8734,24.6899,484.9105,24.7742,474.9475,25.5719,464.9845,25.4951,455.0215,25.2288,445.0585,24.5732,435.0955,25.9034,425.1326,24.9334,415.1696,24.7172,405.2066,25.1779,395.2436,25.835,385.2806,25.8607,375.3177,25.2804,365.3547,25.0941,355.3917,25.4151,345.4287,25.4315,335.4657,24.7375,325.5027,25.6592,315.5398,25.8041,305.5768,25.0295,295.6138,24.8161,285.6508,25.9199,275.6878,25.2663,265.7248,25.2451,255.7619,25.5443,245.7989,24.5996,235.8359,25.7752,225.8729,25.2298,215.9099,25.9141,205.947,25.0294,195.984,25.6543,186.021,24.8013,176.058,25.4903,166.095,25.6246,156.132,24.9179,146.1691,25.6083,136.2061,24.6738,126.2431,24.7748,116.2801,25.9281,106.3171,25.9297,96.3541,25.2453,86.3912,25.4203,86.4637,25.2807,85.9916,25.6565,85.7331,25.5392,85.2703,25.849,84.9844,25.9775,84.6234,25.9773,84.623,26.2976,84.3961,26.7632,84.5202,27.0947,84.3206,27.3508,83.9388,27.7453,83.8912" style="stroke:#181818;stroke-width:4;"/><text fill="#000000" font-family="Chalkduster" font-size="24" font-style="italic" lengthAdjust="spacing" textLength="174.126" x="218.6823" y="109.732">&#171;workspace&#187;</text><text fill="#000000" font-family="Chalkduster" font-size="24" font-weight="bold" lengthAdjust="spacing" textLength="545.1314" x="33.1796" y="140.3619">Research &amp; Data Management Activities</text></g><!--entity coll--><g class="entity" data-entity="coll" data-source-line="9" data-uid="ent0003" id="entity_coll"><polygon fill="none" points="304.2912,177.8371,303.1186,179.4394,301.7315,181.7862,299.7478,183.3678,297.6633,184.2327,296.0012,184.3078,293.865,183.2261,291.8493,182.5195,290.3194,181.0847,289.5169,179.4423,289.041,178.1345,288.5747,176.4262,287.8179,174.9562,288.3995,173.521,288.909,171.9488,290.8211,170.7053,292.1663,169.092,293.8313,168.5562,295.8108,168.0948,298.3491,168.369,299.7395,169.0246,301.3559,169.3218,303.3213,171.3355,304.0065,173.4613,304.3042,174.9118,303.967,177.302" style="stroke:#8B0000;stroke-width:4;"/><path d="M296.247,183.8912 L296.4339,183.8912 L295.8787,189.2912 L296.4188,194.6912 L296.6023,200.0912 L295.6129,205.4912 L296.247,210.8912 M283.247,191.8912 L283.247,191.8221 L288.447,191.5121 L293.647,191.5503 L298.847,191.8306 L304.047,191.2766 L309.247,191.8912 M296.247,210.8912 L296.6189,211.2135 L293.2237,213.5242 L290.9142,216.776 L288.7372,220.1426 L285.7894,222.8412 L283.247,225.8912 M296.247,210.8912 L296.2929,210.9309 L298.8256,213.8726 L301.567,216.9951 L304.2077,220.0304 L307.0405,223.2321 L309.247,225.8912" fill="none" style="stroke:#8B0000;stroke-width:4;"/><text fill="#000000" font-family="Chalkduster" font-size="24" lengthAdjust="spacing" textLength="100.1635" x="246.1653" y="254.732">Collect</text></g><!--entity prep--><g class="entity" data-entity="prep" data-source-line="10" data-uid="ent0004" id="entity_prep"><polygon fill="none" points="221.2887,367.4671,220.116,369.0694,218.729,371.4162,216.7453,372.9978,214.6608,373.8627,212.9987,373.9378,210.8625,372.8561,208.8468,372.1495,207.3169,370.7147,206.5144,369.0723,206.0384,367.7645,205.5722,366.0562,204.8154,364.5862,205.3969,363.151,205.9065,361.5788,207.8185,360.3353,209.1637,358.722,210.8288,358.1862,212.8082,357.7248,215.3466,357.999,216.7369,358.6546,218.3534,358.9518,220.3188,360.9655,221.004,363.0913,221.3016,364.5418,220.9645,366.932" style="stroke:#8B0000;stroke-width:4;"/><path d="M213.2445,373.5212 L213.4313,373.5212 L212.8762,378.9212 L213.4163,384.3212 L213.5998,389.7212 L212.6104,395.1212 L213.2445,400.5212 M200.2445,381.5212 L200.2445,381.4521 L205.4445,381.1421 L210.6445,381.1803 L215.8445,381.4606 L221.0445,380.9066 L226.2445,381.5212 M213.2445,400.5212 L213.6164,400.8435 L210.2211,403.1542 L207.9117,406.406 L205.7346,409.7726 L202.7869,412.4712 L200.2445,415.5212 M213.2445,400.5212 L213.2903,400.5609 L215.823,403.5026 L218.5644,406.6251 L221.2051,409.6604 L224.0379,412.8621 L226.2445,415.5212" fill="none" style="stroke:#8B0000;stroke-width:4;"/><text fill="#000000" font-family="Chalkduster" font-size="24" lengthAdjust="spacing" textLength="103.4785" x="161.5053" y="444.362">Prepare</text></g><!--entity dep--><g class="entity" data-entity="dep" data-source-line="11" data-uid="ent0005" id="entity_dep"><polygon fill="none" points="221.292,557.0971,220.1193,558.6994,218.7323,561.0462,216.7486,562.6278,214.664,563.4927,213.0019,563.5678,210.8657,562.4861,208.8501,561.7795,207.3201,560.3447,206.5176,558.7023,206.0417,557.3945,205.5754,555.6862,204.8187,554.2162,205.4002,552.781,205.9097,551.2088,207.8218,549.9653,209.167,548.352,210.832,547.8162,212.8115,547.3548,215.3499,547.629,216.7402,548.2846,218.3566,548.5818,220.3221,550.5955,221.0072,552.7213,221.3049,554.1718,220.9677,556.562" style="stroke:#8B0000;stroke-width:4;"/><path d="M213.2478,563.1512 L213.4346,563.1512 L212.8795,568.5512 L213.4196,573.9512 L213.603,579.3512 L212.6136,584.7512 L213.2478,590.1512 M200.2478,571.1512 L200.2478,571.0821 L205.4478,570.7721 L210.6478,570.8103 L215.8478,571.0906 L221.0478,570.5366 L226.2478,571.1512 M213.2478,590.1512 L213.6196,590.4735 L210.2244,592.7842 L207.9149,596.036 L205.7379,599.4026 L202.7901,602.1012 L200.2478,605.1512 M213.2478,590.1512 L213.2936,590.1909 L215.8263,593.1326 L218.5677,596.2551 L221.2084,599.2904 L224.0412,602.4921 L226.2478,605.1512" fill="none" style="stroke:#8B0000;stroke-width:4;"/><text fill="#000000" font-family="Chalkduster" font-size="24" lengthAdjust="spacing" textLength="60.305" x="183.0953" y="633.992">Keep</text></g><!--entity an--><g class="entity" data-entity="an" data-source-line="12" data-uid="ent0006" id="entity_an"><polygon fill="none" points="406.2884,367.4671,405.1158,369.0694,403.7287,371.4162,401.745,372.9978,399.6605,373.8627,397.9984,373.9378,395.8622,372.8561,393.8465,372.1495,392.3166,370.7147,391.5141,369.0723,391.0382,367.7645,390.5719,366.0562,389.8151,364.5862,390.3967,363.151,390.9062,361.5788,392.8183,360.3353,394.1635,358.722,395.8285,358.1862,397.8079,357.7248,400.3463,357.999,401.7366,358.6546,403.3531,358.9518,405.3185,360.9655,406.0037,363.0913,406.3014,364.5418,405.9642,366.932" style="stroke:#8B0000;stroke-width:4;"/><path d="M398.2442,373.5212 L398.431,373.5212 L397.8759,378.9212 L398.416,384.3212 L398.5995,389.7212 L397.6101,395.1212 L398.2442,400.5212 M385.2442,381.5212 L385.2442,381.4521 L390.4442,381.1421 L395.6442,381.1803 L400.8442,381.4606 L406.0442,380.9066 L411.2442,381.5212 M398.2442,400.5212 L398.6161,400.8435 L395.2208,403.1542 L392.9114,406.406 L390.7344,409.7726 L387.7866,412.4712 L385.2442,415.5212 M398.2442,400.5212 L398.2901,400.5609 L400.8228,403.5026 L403.5641,406.6251 L406.2049,409.6604 L409.0376,412.8621 L411.2442,415.5212" fill="none" style="stroke:#8B0000;stroke-width:4;"/><text fill="#000000" font-family="Chalkduster" font-size="24" lengthAdjust="spacing" textLength="104.7779" x="345.8553" y="444.362">Analyse</text></g><!--link coll to prep--><g class="link" data-entity-1="coll" data-entity-2="prep" data-source-line="17" data-uid="lnk7" id="link_coll_prep"><path d="M252.0353,261.9812 L252.1128,262.0332 L249.9451,264.765 L248.2321,267.802 L246.371,270.7397 L244.023,273.3505 L242.349,276.4137 L242.3186,276.3973 L240.5612,279.3456 L238.9573,282.3761 L237.4601,285.4638 L235.5952,288.3544 L234.2453,291.5212 L234.4726,291.6153 L232.8279,294.2108 L231.8469,297.0812 L230.9469,299.9851 L229.5758,302.6939 L228.4524,305.5053 L228.4813,305.5147 L227.5615,308.2178 L226.7731,310.9634 L225.9213,313.6885 L225.1905,316.4527 L224.0654,319.0896 L224.3553,319.1593 L223.7001,321.8995 L222.8578,324.5947 L222.2893,327.3558 L221.7337,330.1199 L220.7714,332.7863 L220.4557,332.7308 L220.5658,335.7027 L219.6363,338.4922 L219.497,341.4203 L218.544,344.2056 L218.258,347.1079" fill="none" style="stroke:#181818;stroke-width:4;"/><polygon fill="#181818" points="217.3653,353.0412,217.4243,353.0788,218.3077,351.306,219.5374,349.7539,220.6543,348.13,221.4004,346.2696,222.6598,344.7365,222.6444,344.7156,221.6652,345.2942,220.7636,345.9778,219.9159,346.7344,218.8824,347.2394,218.1092,348.0968,218.2576,348.2064,217.2681,347.0619,216.712,346.2374,216.2088,345.452,215.3979,344.4393,214.7488,343.5462,214.7708,343.5522,215.2618,345.4424,215.8528,347.36,216.3955,349.2644,217.0302,351.194,217.3653,353.0412" style="stroke:#181818;stroke-width:4;"/><text fill="#000000" font-family="Chalkduster" font-size="24" lengthAdjust="spacing" textLength="109.8166" x="235.2453" y="316.362">Describe</text></g><!--link prep to dep--><g class="link" data-entity-1="prep" data-entity-2="dep" data-source-line="18" data-uid="lnk8" id="link_prep_dep"><path d="M213.2453,451.1712 L213.5255,451.1712 L212.6928,460.6956 L213.503,470.22 L213.7782,479.7445 L212.2941,489.2689 L213.1417,498.7934 L212.6766,508.3178 L212.7339,517.8423 L213.1544,527.3667 L213.2453,536.8912" fill="none" style="stroke:#181818;stroke-width:4;"/><polygon fill="#181818" points="213.2453,542.8912,213.3093,542.9196,213.9191,541.0351,214.9041,539.3173,215.767,537.5453,216.228,535.5946,217.2453,533.8912,217.227,533.8728,216.3447,534.5906,215.5549,535.4008,214.8292,536.2751,213.8823,536.9282,213.2453,537.8912,213.3758,538.0217,212.2967,536.9426,211.5987,536.2445,210.9471,535.593,210.0251,534.6709,209.2453,533.8912,209.2661,533.9004,210.0355,535.6868,210.8996,537.5153,211.7181,539.3235,212.6237,541.1705,213.2453,542.8912" style="stroke:#181818;stroke-width:4;"/><text fill="#000000" font-family="Chalkduster" font-size="24" lengthAdjust="spacing" textLength="231.6199" x="214.2453" y="505.992">Publish / Deposit</text></g><!--link prep to an--><g class="link" data-entity-1="prep" data-entity-2="an" data-source-line="19" data-uid="lnk9" id="link_prep_an"><path d="M265.2753,402.3412 L265.2753,402.6214 L275.8996,401.7887 L286.5238,402.5989 L297.1481,402.8741 L307.7724,401.39 L318.3967,402.2375 L329.021,401.7725 L339.6453,402.3412" fill="none" style="stroke:#181818;stroke-width:4;"/><polygon fill="#181818" points="345.6453,402.3412,345.6737,402.4052,343.7892,401.415,342.0714,400.8,340.2994,400.0629,338.3487,398.9239,336.6453,398.3412,336.627,398.3228,337.3447,399.0406,338.1549,399.8508,339.0292,400.7251,339.6823,401.3782,340.6453,402.3412,340.7758,402.4717,339.6967,402.9926,338.9987,403.8945,338.3471,404.843,337.4251,405.5209,336.6453,406.3412,336.6545,406.3619,338.4409,405.5314,340.2694,404.7955,342.0776,404.014,343.9246,403.3196,345.6453,402.3412" style="stroke:#181818;stroke-width:4;"/><text fill="#000000" font-family="Chalkduster" font-size="24" lengthAdjust="spacing" textLength="44.1017" x="283.4253" y="392.182">Use</text></g><!--reverse link coll to an--><g class="link" data-entity-1="coll" data-entity-2="an" data-source-line="20" data-uid="lnk11" id="link_coll_an"><path d="M334.2903,266.8422 L334.3691,266.8924 L335.698,269.1954 L337.4887,271.7927 L339.1291,274.2941 L340.2749,276.4804 L342.1053,279.1029 L342.0753,279.0857 L343.369,281.4921 L344.8135,283.9853 L346.363,286.5388 L347.5509,288.8844 L349.2453,291.5212 L349.4624,291.6369 L350.6127,294.4198 L352.397,297.5406 L354.2587,300.7026 L355.6702,303.6247 L357.3186,306.673 L357.3458,306.6864 L358.8524,309.8044 L360.4829,312.9834 L362.0537,316.1329 L363.7384,319.3386 L365.0515,322.3612 L365.3222,322.4864 L366.7765,325.6226 L368.0562,328.6779 L369.5914,331.8516 L371.1386,335.0308 L372.3064,338.0343 L372.0129,337.9053 L373.9102,341.177 L374.8413,344.024 L376.5069,347.1939 L377.4161,350.0313 L378.9453,353.1412" fill="none" style="stroke:#181818;stroke-width:4;"/><polygon fill="#181818" points="330.9753,261.8412,331.0444,261.8528,331.1668,263.7605,331.6942,265.7365,332.0897,267.6903,332.0516,269.5709,332.6138,271.5528,332.5884,271.5476,332.6992,270.4157,332.9381,269.3097,333.2659,268.2218,333.2871,267.0717,333.7378,266.0087,333.7745,266.1896,334.8049,266.0276,335.9423,266.3937,337.0928,266.8242,338.1674,266.8799,339.2818,267.1327,339.2941,267.1519,337.6148,266.0654,335.9912,265.0663,334.3407,264.025,332.7415,263.0641,330.9753,261.8412" style="stroke:#181818;stroke-width:4;"/><text fill="#000000" font-family="Chalkduster" font-size="24" lengthAdjust="spacing" textLength="51.5271" x="365.3353" y="316.362">New</text></g><!--SRC=[JOv1JiCm44NtSueX2tPfzr4LgQ8xL5GXSO29FIGMhctPKqA5k3iJbm2xh_-Vt_ZE1UClbd6psLeIQZqDRP6hvury28WJpnq-Ss7APiA38hWtujwTE2w8018JIiGXYiGpMfTPvnW0ba1Xz8pDx_lxc-58WKO-Sv1_iWQf8FsvTxivvhUIo73VuoU0RZ5Zyn2zLtN5ZUQrFsLEbBdsIJEkmoDpggtbj7RxGFvQ5Av7zRTV0B3OiBLn3cr_KtHuu6Ao6nYX5kjgwtYw3DwL2RUAfLYS_43PZPCeHK6XbyAWeVNykdJrI8TFF0Dy0m00]--></g></svg>