<svg xmlns="http://www.w3.org/2000/svg" xmlns:xlink="http://www.w3.org/1999/xlink" contentStyleType="text/css" data-diagram-type="DESCRIPTION" height="432px" preserveAspectRatio="none" style="width:401px;height:432px;background:#FFFFFF;" version="1.1" viewBox="0 0 401 432" width="401px" zoomAndPan="magnify"><defs/><g><!--cluster activities--><g class="cluster" data-entity="activities" data-source-line="6" data-uid="ent0002" id="cluster_activities"><rect fill="none" height="418.59" rx="2.5" ry="2.5" style="stroke:#181818;stroke-width:4;" width="388" x="7" y="7.5625"/><text fill="#000000" font-family="sans-serif" font-size="24" font-weight="bold" lengthAdjust="spacing" textLength="115.1836" x="143.4082" y="32.7656">Activities</text></g><!--entity plan--><g class="entity" data-entity="plan" data-source-line="7" data-uid="ent0003" id="entity_plan"><ellipse cx="52.9997" cy="96.3553" fill="#CCE5FF" rx="8" ry="8" style="stroke:#4682B4;stroke-width:2;"/><path d="M52.9997,104.3553 L52.9997,131.3553 M39.9997,112.3553 L65.9997,112.3553 M52.9997,131.3553 L39.9997,146.3553 M52.9997,131.3553 L65.9997,146.3553" fill="none" style="stroke:#4682B4;stroke-width:2;"/><text fill="#000000" font-family="sans-serif" font-size="30" lengthAdjust="spacing" textLength="60.4395" x="22.78" y="178.3592">Plan</text><text fill="#000000" font-family="sans-serif" font-size="12" font-style="italic" lengthAdjust="spacing" textLength="48.873" x="28.5632" y="83.8241">&#171;admin&#187;</text></g><!--entity coll--><g class="entity" data-entity="coll" data-source-line="8" data-uid="ent0004" id="entity_coll"><ellipse cx="168.0046" cy="96.3553" fill="#F1F1F1" rx="8" ry="8" style="stroke:#8B0000;stroke-width:2;"/><path d="M168.0046,104.3553 L168.0046,131.3553 M155.0046,112.3553 L181.0046,112.3553 M168.0046,131.3553 L155.0046,146.3553 M168.0046,131.3553 L181.0046,146.3553" fill="none" style="stroke:#8B0000;stroke-width:2;"/><text fill="#000000" font-family="sans-serif" font-size="30" lengthAdjust="spacing" textLength="99.8291" x="118.09" y="178.3592">Collect</text><text fill="#000000" font-family="sans-serif" font-size="12" font-style="italic" lengthAdjust="spacing" textLength="74.2441" x="130.8825" y="83.8241">&#171;workspace&#187;</text></g><!--entity prep--><g class="entity" data-entity="prep" data-source-line="9" data-uid="ent0005" id="entity_prep"><ellipse cx="316.0034" cy="78.6953" fill="#F1F1F1" rx="8" ry="8" style="stroke:#8B0000;stroke-width:2;"/><path d="M316.0034,86.6953 L316.0034,113.6953 M303.0034,94.6953 L329.0034,94.6953 M316.0034,113.6953 L303.0034,128.6953 M316.0034,113.6953 L329.0034,128.6953" fill="none" style="stroke:#8B0000;stroke-width:2;"/><text fill="#000000" font-family="sans-serif" font-size="30" lengthAdjust="spacing" textLength="125.6836" x="252.81" y="160.6992">Process/</text><text fill="#000000" font-family="sans-serif" font-size="30" lengthAdjust="spacing" textLength="126.3867" x="252.81" y="196.0313">Describe</text><text fill="#000000" font-family="sans-serif" font-size="12" font-style="italic" lengthAdjust="spacing" textLength="74.2441" x="278.8813" y="66.1641">&#171;workspace&#187;</text></g><!--entity dep--><g class="entity" data-entity="dep" data-source-line="10" data-uid="ent0006" id="entity_dep"><ellipse cx="86.9961" cy="286.4853" fill="#008000" rx="8" ry="8" style="stroke:#008000;stroke-width:2;"/><path d="M86.9961,294.4853 L86.9961,321.4853 M73.9961,302.4853 L99.9961,302.4853 M86.9961,321.4853 L73.9961,336.4853 M86.9961,321.4853 L99.9961,336.4853" fill="none" style="stroke:#008000;stroke-width:2;"/><text fill="#000000" font-family="sans-serif" font-size="30" lengthAdjust="spacing" textLength="127.4121" x="23.29" y="368.4892">Deposit/</text><text fill="#000000" font-family="sans-serif" font-size="30" lengthAdjust="spacing" textLength="105.3369" x="23.29" y="403.8212">Publish</text><text fill="#000000" font-family="sans-serif" font-size="12" font-style="italic" lengthAdjust="spacing" textLength="71.7188" x="51.1367" y="273.9541">&#171;repository&#187;</text></g><!--entity an--><g class="entity" data-entity="an" data-source-line="11" data-uid="ent0007" id="entity_an"><ellipse cx="241.9982" cy="304.1553" fill="#F1F1F1" rx="8" ry="8" style="stroke:#8B0000;stroke-width:2;"/><path d="M241.9982,312.1553 L241.9982,339.1553 M228.9982,320.1553 L254.9982,320.1553 M241.9982,339.1553 L228.9982,354.1553 M241.9982,339.1553 L254.9982,354.1553" fill="none" style="stroke:#8B0000;stroke-width:2;"/><text fill="#000000" font-family="sans-serif" font-size="30" lengthAdjust="spacing" textLength="112.2363" x="185.88" y="386.1592">Analyse</text><text fill="#000000" font-family="sans-serif" font-size="12" font-style="italic" lengthAdjust="spacing" textLength="74.2441" x="204.8761" y="291.6241">&#171;workspace&#187;</text></g><!--SRC=[ROv1QiD034NtSmhL-pWN287G7207w4QU4QseCXf6IbjJSlV868fB-rVIrtyVFN7DSYi4uxWlwBWJd7Rciz3eNvwIQmDNcDHThr2uKtRMcj8oO7qLWk4KrWSxams01lYp0dmd28MZ7OQBO1tWSC1ovNeyBjaMrZRoh29HlAG-jRzRmqnhCiVbLrdNJ6Rxbtecovqd-WTgdHfigJCrDVQWBhT9sDuMgA-czdcb2hKjSweeiqNzt_vuFjrJw040]--></g></svg>