<svg xmlns="http://www.w3.org/2000/svg" xmlns:xlink="http://www.w3.org/1999/xlink" contentStyleType="text/css" data-diagram-type="DESCRIPTION" height="441px" preserveAspectRatio="none" style="width:604px;height:441px;background:#FFFFFF;" version="1.1" viewBox="0 0 604 441" width="604px" zoomAndPan="magnify"><title>Research Data Activities</title><defs/><g><text fill="#000000" font-family="Chalkduster" font-size="42" font-weight="bold" lengthAdjust="spacing" textLength="576.4905" x="10" y="51.7215">Research Data Activities</text><!--cluster activities--><g class="cluster" data-entity="activities" data-source-line="7" data-uid="ent0002" id="cluster_activities"><polygon fill="#FFC7D8" points="27.7453,83.8912,27.7453,84.1013,37.6738,83.4768,47.6024,84.0844,57.531,84.2908,67.4596,83.1778,77.3881,83.8134,87.3167,83.4647,97.2453,83.5077,107.1738,83.823,117.1024,83.1998,127.031,84.4448,136.9596,83.2609,146.8881,83.6934,156.8167,84.3231,166.7453,83.8054,176.6738,83.9594,186.6024,83.8592,196.531,84.0697,206.4596,84.1303,216.3881,84.4769,226.3167,84.5622,236.2453,84.5704,246.1738,84.1458,256.1024,84.3547,266.031,84.5934,275.9596,83.17,285.8881,84.5697,295.8167,83.5947,305.7453,84.425,315.6738,83.3961,325.6024,83.8227,335.531,84.6328,345.4596,83.8424,355.3881,83.9965,365.3167,84.2298,375.2453,84.3074,385.1738,83.8873,395.1024,84.1784,405.031,83.3187,414.9596,84.1755,424.8881,84.4394,434.8167,84.3357,444.7453,84.5042,454.6738,83.4081,464.6024,83.239,474.531,83.2698,484.4596,83.8323,494.3881,83.6946,504.3167,84.5726,514.2453,83.7165,524.1738,83.5481,534.1024,84.1194,544.031,83.2243,553.9596,83.372,563.8881,84.5401,573.8167,84.3268,583.7453,83.8912,583.839,84.1174,584.0578,83.9385,584.4931,84.2824,584.8812,84.5123,585.0992,84.3315,585.513,84.6234,585.4835,84.6112,585.6983,84.993,586.0066,85.4136,585.9511,85.6835,586.2413,86.0966,586.2453,86.3912,585.6915,86.3912,585.568,96.2843,586.7489,106.1774,585.5283,116.0706,586.7542,125.9637,586.4519,135.8569,585.9774,145.75,585.8915,155.6432,586.704,165.5363,585.9459,175.4294,586.8371,185.3226,585.6925,195.2157,586.8627,205.1089,586.7296,215.002,586.4902,224.8952,586.2925,234.7883,586.9719,244.6814,586.8588,254.5746,586.4145,264.4677,586.5135,274.3609,586.115,284.254,586.9617,294.1472,586.4001,304.0403,586.4178,313.9334,585.6369,323.8266,585.84,333.7197,586.776,343.6129,586.675,353.506,586.2023,363.3992,585.9231,373.2923,586.0263,383.1854,585.5591,393.0786,586.66,402.9717,586.9848,412.8649,586.7717,422.758,586.2453,432.6512,586.4593,432.7398,586.0567,432.9873,585.9792,433.3694,585.6866,433.6624,585.747,434.1016,585.513,434.4189,585.5445,434.4949,585.2299,434.7355,584.7766,434.6411,584.4352,434.8169,584.1554,435.1413,583.7453,435.1512,583.7453,435.7185,573.8167,434.6386,563.8881,434.9573,553.9596,435.3004,544.031,434.5403,534.1024,435.5046,524.1738,435.4092,514.2453,435.0504,504.3167,435.2934,494.3881,435.8798,484.4596,434.8383,474.531,435.4661,464.6024,435.4368,454.6738,435.2669,444.7453,435.2921,434.8167,435.2646,424.8881,434.527,414.9596,434.7503,405.031,434.6896,395.1024,435.215,385.1738,435.2393,375.2453,435.3129,365.3167,434.8602,355.3881,435.0836,345.4596,435.0309,335.531,435.728,325.6024,435.5777,315.6738,434.6656,305.7453,435.0782,295.8167,434.5739,285.8881,435.4395,275.9596,435.7596,266.031,435.6957,256.1024,434.7156,246.1738,435.6151,236.2453,434.4084,226.3167,435.3513,216.3881,434.8518,206.4596,435.2479,196.531,435.3915,186.6024,435.6233,176.6738,434.4312,166.7453,435.6266,156.8167,435.3293,146.8881,435.5065,136.9596,435.899,127.031,435.1566,117.1024,435.3264,107.1738,435.3646,97.2453,435.3484,87.3167,435.1503,77.3881,435.8619,67.4596,434.5414,57.531,435.7164,47.6024,434.5272,37.6738,434.6108,27.7453,435.1512,27.7504,435.1635,27.3953,435.0134,26.9753,434.7065,26.7374,434.8392,26.3449,434.5989,25.9775,434.4189,26.2013,434.5116,26.0365,434.1505,25.5466,433.6546,25.4156,433.3075,25.3519,432.9882,25.2453,432.6512,25.6008,432.6512,25.6483,422.758,25.5464,412.8649,24.9033,402.9717,25.8816,393.0786,25.8791,383.1854,25.198,373.2923,25.0062,363.3992,24.8439,353.506,25.0307,343.6129,25.3827,333.7197,25.1769,323.8266,24.8275,313.9334,25.7327,304.0403,24.7863,294.1472,25.7476,284.254,25.6725,274.3609,25.6171,264.4677,25.9378,254.5746,24.9994,244.6814,24.9446,234.7883,25.7642,224.8952,24.6484,215.002,25.0113,205.1089,25.3608,195.2157,25.314,185.3226,24.8868,175.4294,25.2023,165.5363,25.9899,155.6432,25.8938,145.75,24.649,135.8569,25.3238,125.9637,24.7314,116.0706,25.219,106.1774,25.5383,96.2843,25.2453,86.3912,25.3746,86.4447,25.187,85.9528,25.6615,85.7351,25.6872,85.3316,25.66,84.9061,25.9775,84.6234,25.9174,84.4783,26.3727,84.5775,26.7165,84.4074,27.0361,84.179,27.306,83.8306,27.7453,83.8912" style="stroke:#181818;stroke-width:4;"/><text fill="#000000" font-family="Chalkduster" font-size="24" font-style="italic" lengthAdjust="spacing" textLength="174.126" x="218.6823" y="109.732">&#171;workspace&#187;</text><text fill="#000000" font-family="Chalkduster" font-size="24" font-weight="bold" lengthAdjust="spacing" textLength="545.1314" x="33.1796" y="140.3619">Research &amp; Data Management Activities</text></g><!--entity coll--><g class="entity" data-entity="coll" data-source-line="9" data-uid="ent0003" id="entity_coll"><polygon fill="none" points="174.2912,177.8371,173.1186,179.4394,171.7315,181.7862,169.7478,183.3678,167.6633,184.2327,166.0012,184.3078,163.865,183.2261,161.8493,182.5195,160.3194,181.0847,159.5169,179.4423,159.041,178.1345,158.5747,176.4262,157.8179,174.9562,158.3995,173.521,158.909,171.9488,160.8211,170.7053,162.1663,169.092,163.8313,168.5562,165.8108,168.0948,168.3491,168.369,169.7395,169.0246,171.3559,169.3218,173.3213,171.3355,174.0065,173.4613,174.3042,174.9118,173.967,177.302" style="stroke:#8B0000;stroke-width:4;"/><path d="M166.247,183.8912 L166.4339,183.8912 L165.8787,189.2912 L166.4188,194.6912 L166.6023,200.0912 L165.6129,205.4912 L166.247,210.8912 M153.247,191.8912 L153.247,191.8221 L158.447,191.5121 L163.647,191.5503 L168.847,191.8306 L174.047,191.2766 L179.247,191.8912 M166.247,210.8912 L166.6189,211.2135 L163.2237,213.5242 L160.9142,216.776 L158.7372,220.1426 L155.7894,222.8412 L153.247,225.8912 M166.247,210.8912 L166.2929,210.9309 L168.8256,213.8726 L171.567,216.9951 L174.2077,220.0304 L177.0405,223.2321 L179.247,225.8912" fill="none" style="stroke:#8B0000;stroke-width:4;"/><text fill="#000000" font-family="Chalkduster" font-size="24" lengthAdjust="spacing" textLength="100.1635" x="116.1653" y="254.732">Collect</text></g><!--entity prep--><g class="entity" data-entity="prep" data-source-line="10" data-uid="ent0004" id="entity_prep"><polygon fill="none" points="311.2887,177.8371,310.116,179.4394,308.729,181.7862,306.7453,183.3678,304.6608,184.2327,302.9987,184.3078,300.8625,183.2261,298.8468,182.5195,297.3169,181.0847,296.5144,179.4423,296.0384,178.1345,295.5722,176.4262,294.8154,174.9562,295.3969,173.521,295.9065,171.9488,297.8185,170.7053,299.1637,169.092,300.8288,168.5562,302.8082,168.0948,305.3466,168.369,306.7369,169.0246,308.3534,169.3218,310.3188,171.3355,311.004,173.4613,311.3016,174.9118,310.9645,177.302" style="stroke:#8B0000;stroke-width:4;"/><path d="M303.2445,183.8912 L303.4313,183.8912 L302.8762,189.2912 L303.4163,194.6912 L303.5998,200.0912 L302.6104,205.4912 L303.2445,210.8912 M290.2445,191.8912 L290.2445,191.8221 L295.4445,191.5121 L300.6445,191.5503 L305.8445,191.8306 L311.0445,191.2766 L316.2445,191.8912 M303.2445,210.8912 L303.6164,211.2135 L300.2211,213.5242 L297.9117,216.776 L295.7346,220.1426 L292.7869,222.8412 L290.2445,225.8912 M303.2445,210.8912 L303.2903,210.9309 L305.823,213.8726 L308.5644,216.9951 L311.2051,220.0304 L314.0379,223.2321 L316.2445,225.8912" fill="none" style="stroke:#8B0000;stroke-width:4;"/><text fill="#000000" font-family="Chalkduster" font-size="24" lengthAdjust="spacing" textLength="103.4785" x="251.5053" y="254.732">Prepare</text></g><!--entity dep--><g class="entity" data-entity="dep" data-source-line="11" data-uid="ent0005" id="entity_dep"><polygon fill="none" points="380.2921,335.4671,379.1194,337.0694,377.7324,339.4162,375.7487,340.9978,373.6641,341.8627,372.0021,341.9378,369.8658,340.8561,367.8502,340.1495,366.3203,338.7147,365.5177,337.0723,365.0418,335.7645,364.5756,334.0562,363.8188,332.5862,364.4003,331.151,364.9098,329.5788,366.8219,328.3353,368.1671,326.722,369.8322,326.1862,371.8116,325.7248,374.35,325.999,375.7403,326.6546,377.3567,326.9518,379.3222,328.9655,380.0073,331.0913,380.305,332.5418,379.9678,334.932" style="stroke:#8B0000;stroke-width:4;"/><path d="M372.2479,341.5212 L372.4347,341.5212 L371.8796,346.9212 L372.4197,352.3212 L372.6031,357.7212 L371.6137,363.1212 L372.2479,368.5212 M359.2479,349.5212 L359.2479,349.4521 L364.4479,349.1421 L369.6479,349.1803 L374.8479,349.4606 L380.0479,348.9066 L385.2479,349.5212 M372.2479,368.5212 L372.6198,368.8435 L369.2245,371.1542 L366.915,374.406 L364.738,377.7726 L361.7903,380.4712 L359.2479,383.5212 M372.2479,368.5212 L372.2937,368.5609 L374.8264,371.5026 L377.5678,374.6251 L380.2085,377.6604 L383.0413,380.8621 L385.2479,383.5212" fill="none" style="stroke:#8B0000;stroke-width:4;"/><text fill="#000000" font-family="Chalkduster" font-size="24" lengthAdjust="spacing" textLength="96.2652" x="324.1153" y="412.362">Deposit</text></g><!--entity an--><g class="entity" data-entity="an" data-source-line="12" data-uid="ent0006" id="entity_an"><polygon fill="none" points="450.2884,177.8371,449.1158,179.4394,447.7287,181.7862,445.745,183.3678,443.6605,184.2327,441.9984,184.3078,439.8622,183.2261,437.8465,182.5195,436.3166,181.0847,435.5141,179.4423,435.0382,178.1345,434.5719,176.4262,433.8151,174.9562,434.3967,173.521,434.9062,171.9488,436.8183,170.7053,438.1635,169.092,439.8285,168.5562,441.8079,168.0948,444.3463,168.369,445.7366,169.0246,447.3531,169.3218,449.3185,171.3355,450.0037,173.4613,450.3014,174.9118,449.9642,177.302" style="stroke:#8B0000;stroke-width:4;"/><path d="M442.2442,183.8912 L442.431,183.8912 L441.8759,189.2912 L442.416,194.6912 L442.5995,200.0912 L441.6101,205.4912 L442.2442,210.8912 M429.2442,191.8912 L429.2442,191.8221 L434.4442,191.5121 L439.6442,191.5503 L444.8442,191.8306 L450.0442,191.2766 L455.2442,191.8912 M442.2442,210.8912 L442.6161,211.2135 L439.2208,213.5242 L436.9114,216.776 L434.7344,220.1426 L431.7866,222.8412 L429.2442,225.8912 M442.2442,210.8912 L442.2901,210.9309 L444.8228,213.8726 L447.5641,216.9951 L450.2049,220.0304 L453.0376,223.2321 L455.2442,225.8912" fill="none" style="stroke:#8B0000;stroke-width:4;"/><text fill="#000000" font-family="Chalkduster" font-size="24" lengthAdjust="spacing" textLength="104.7779" x="389.8553" y="254.732">Analyse</text></g><!--link coll to prep--><g class="link" data-entity-1="coll" data-entity-2="prep" data-source-line="17" data-uid="lnk7" id="link_coll_prep"><path d="M216.8153,212.7112 L216.8153,212.8046 L222.5033,212.527 L228.1913,212.7971 L233.8793,212.8888 L239.5673,212.3941 L245.2553,212.7112" fill="none" style="stroke:#181818;stroke-width:4;"/><polygon fill="#181818" points="251.2553,212.7112,251.2837,212.7752,249.3992,211.785,247.6814,211.17,245.9094,210.4329,243.9587,209.2939,242.2553,208.7112,242.237,208.6928,242.9547,209.4106,243.7649,210.2208,244.6392,211.0951,245.2923,211.7482,246.2553,212.7112,246.3858,212.8417,245.3067,213.3626,244.6087,214.2645,243.9571,215.213,243.0351,215.8909,242.2553,216.7112,242.2645,216.7319,244.0509,215.9014,245.8794,215.1655,247.6876,214.384,249.5346,213.6896,251.2553,212.7112" style="stroke:#181818;stroke-width:4;"/></g><!--link prep to dep--><g class="link" data-entity-1="prep" data-entity-2="dep" data-source-line="18" data-uid="lnk8" id="link_prep_dep"><path d="M324.5153,261.6712 L324.7715,261.7847 L328.0082,270.4648 L332.7467,279.8107 L336.9962,288.9398 L339.6374,297.3558 L344.4101,306.7168 L348.5027,315.7764" fill="none" style="stroke:#181818;stroke-width:4;"/><polygon fill="#181818" points="350.9353,321.2612,351.0053,321.2612,350.7987,319.2913,351.0028,317.3217,351.0731,315.352,350.7036,313.3819,350.943,311.4123,350.9188,311.403,350.4034,312.4168,350.0098,313.4776,349.7009,314.5711,349.1001,315.552,348.9082,316.6905,348.9745,316.8627,347.7769,316.0875,346.7732,315.8151,345.793,315.604,344.6753,315.036,343.63,314.6557,343.6452,314.6726,345.0839,315.9689,346.592,317.342,348.0666,318.6781,349.6051,320.0849,350.9353,321.2612" style="stroke:#181818;stroke-width:4;"/></g><!--link prep to an--><g class="link" data-entity-1="prep" data-entity-2="an" data-source-line="19" data-uid="lnk9" id="link_prep_an"><path d="M361.3653,212.7112 L361.3653,212.8046 L365.8213,212.527 L370.2773,212.7971 L374.7333,212.8888 L379.1893,212.3941 L383.6453,212.7112" fill="none" style="stroke:#181818;stroke-width:4;"/><polygon fill="#181818" points="355.3653,212.7112,355.3937,212.7752,357.1092,213.385,358.9914,214.37,360.8194,215.2329,362.4687,215.6939,364.3653,216.7112,364.347,216.6928,363.4647,215.8106,362.6749,215.0208,361.9492,214.2951,361.0023,213.3482,360.3653,212.7112,360.4958,212.8417,361.0167,211.7626,361.9187,211.0645,362.8671,210.413,363.5451,209.4909,364.3653,208.7112,364.3745,208.7319,362.5609,209.5014,360.7894,210.3655,358.9976,211.184,357.2446,212.0896,355.3653,212.7112" style="stroke:#181818;stroke-width:4;"/><polygon fill="#181818" points="389.6453,212.7112,389.6737,212.7752,387.7892,211.785,386.0714,211.17,384.2994,210.4329,382.3487,209.2939,380.6453,208.7112,380.627,208.6928,381.3447,209.4106,382.1549,210.2208,383.0292,211.0951,383.6823,211.7482,384.6453,212.7112,384.7758,212.8417,383.6967,213.3626,382.9987,214.2645,382.3471,215.213,381.4251,215.8909,380.6453,216.7112,380.6545,216.7319,382.4409,215.9014,384.2694,215.1655,386.0776,214.384,387.9246,213.6896,389.6453,212.7112" style="stroke:#181818;stroke-width:4;"/></g><!--link an to dep--><g class="link" data-entity-1="an" data-entity-2="dep" data-source-line="20" data-uid="lnk10" id="link_an_dep"><path d="M420.6753,261.6712 L420.9308,261.7861 L416.1134,270.4642 L412.7941,279.8163 L408.987,288.9489 L403.5755,297.3597 L400.2903,306.7271 L396.3267,315.7893" fill="none" style="stroke:#181818;stroke-width:4;"/><polygon fill="#181818" points="393.8653,321.2612,393.912,321.3134,395.2412,319.8449,396.8443,318.6825,398.3582,317.4204,399.5788,315.8305,401.2054,314.6944,401.1962,314.6701,400.0972,314.9628,399.0445,315.3776,398.024,315.8773,396.8925,316.0844,395.9165,316.7013,396.089,316.7668,395.3187,315.569,395.0521,314.5623,394.847,313.579,394.2842,312.46,393.9096,311.4124,393.9323,311.4125,393.8901,313.3821,393.9514,315.3522,393.9627,317.322,394.0694,319.2923,393.8653,321.2612" style="stroke:#181818;stroke-width:4;"/></g><!--SRC=[LOxBJWCn34Nt_Wep2tOPzcWqKaMtI8W_S1Dh6f76KMBw4EBVSLDDWTtLVHpx8MQVFWFZE3u5KdA9Tgxf9V6ePmMDclWPtxanLR_7hLLmupKUeqPkY00g1LLm9wfom10hMomPu2eeBubnkEyVRuHNohJmWRF-WGr83UcNFKqdgH-jaETvnYy0owJYy28f6RhNlUdLVwjSg7BtYsbSWoqNQV4s25nMUvCfNPhr-rrx-1i0ha1qDIvxTNF7G6Uv8ATiJbYDwLwoAUL_1VW1]--></g></svg>