<svg xmlns="http://www.w3.org/2000/svg" xmlns:xlink="http://www.w3.org/1999/xlink" contentStyleType="text/css" data-diagram-type="DESCRIPTION" height="1502px" preserveAspectRatio="none" style="width:1425px;height:1502px;background:#FFFFFF;" version="1.1" viewBox="0 0 1425 1502" width="1425px" zoomAndPan="magnify"><title>HASS Research Data Reference Model</title><defs/><g><text fill="#000000" font-family="Chalkduster" font-size="42" font-weight="bold" lengthAdjust="spacing" textLength="880.654" x="265.568" y="51.7215">HASS Research Data Reference Model</text><!--cluster activities--><g class="cluster" data-entity="activities" data-source-line="7" data-uid="ent0002" id="cluster_activities"><polygon fill="#FFC7D8" points="568.5,408.5579,568.5,408.7681,578.4286,408.1436,588.3571,408.7512,598.2857,408.9576,608.2143,407.8445,618.1429,408.4802,628.0714,408.1314,638,408.1744,647.9286,408.4897,657.8571,407.8665,667.7857,409.1115,677.7143,407.9276,687.6429,408.3601,697.5714,408.9898,707.5,408.4721,717.4286,408.6261,727.3571,408.5259,737.2857,408.7364,747.2143,408.797,757.1429,409.1436,767.0714,409.2289,777,409.2372,786.9286,408.8125,796.8571,409.0215,806.7857,409.2601,816.7143,407.8367,826.6429,409.2364,836.5714,408.2614,846.5,409.0917,856.4286,408.0629,866.3571,408.4894,876.2857,409.2995,886.2143,408.5092,896.1429,408.6632,906.0714,408.8965,916,408.9741,925.9286,408.554,935.8571,408.8451,945.7857,407.9855,955.7143,408.8423,965.6429,409.1061,975.5714,409.0024,985.5,409.1709,995.4286,408.0748,1005.3571,407.9057,1015.2857,407.9365,1025.2143,408.499,1035.1429,408.3614,1045.0714,409.2393,1055,408.3832,1064.9286,408.2148,1074.8571,408.7862,1084.7857,407.8911,1094.7143,408.0388,1104.6429,409.2068,1114.5714,408.9936,1124.5,408.5579,1124.5937,408.7841,1124.8125,408.6052,1125.2478,408.9491,1125.636,409.1791,1125.854,408.9982,1126.2678,409.2901,1126.2382,409.2779,1126.453,409.6598,1126.7614,410.0804,1126.7058,410.3503,1126.996,410.7633,1127,411.0579,1126.4462,411.0579,1126.3227,421.0209,1127.5036,430.9839,1126.2831,440.9468,1127.509,450.9098,1127.2066,460.8728,1126.7321,470.8358,1126.6462,480.7988,1127.4588,490.7618,1126.7007,500.7247,1127.5919,510.6877,1126.4473,520.6507,1127.6174,530.6137,1127.4843,540.5767,1127.245,550.5396,1127.0472,560.5026,1127.7266,570.4656,1127.6136,580.4286,1127.1693,590.3916,1127.2682,600.3546,1126.8697,610.3175,1127.7165,620.2805,1127.1549,630.2435,1127.1726,640.2065,1126.3916,650.1695,1126.5948,660.1325,1127.5307,670.0954,1127.4298,680.0584,1126.9571,690.0214,1126.6778,699.9844,1126.7811,709.9474,1126.3138,719.9104,1127.4147,729.8733,1127.7396,739.8363,1127.5264,749.7993,1127.6949,759.7623,1126.8633,769.7253,1127.0872,779.6882,1126.6124,789.6512,1127.284,799.6142,1127.2468,809.5772,1127.5524,819.5402,1126.7703,829.5032,1126.8656,839.4661,1127.4435,849.4291,1127.5673,859.3921,1126.4875,869.3551,1126.8061,879.3181,1127.1493,889.2811,1126.3892,899.244,1127.3534,909.207,1127.258,919.17,1126.8992,929.133,1127.1422,939.096,1127.7287,949.0589,1126.6871,959.0219,1127.315,968.9849,1127,978.9479,1127.088,978.9843,1126.8892,979.3162,1126.7505,979.673,1126.5956,980.023,1126.222,980.2825,1126.2678,980.7157,1126.2166,980.5922,1125.8553,980.72,1125.5688,981.0282,1125.2183,981.1821,1124.8742,981.3513,1124.5,981.4479,1124.5,981.1569,1114.5714,981.3804,1104.6429,981.3277,1094.7143,982.0247,1084.7857,981.8745,1074.8571,980.9624,1064.9286,981.375,1055,980.8707,1045.0714,981.7363,1035.1429,982.0564,1025.2143,981.9925,1015.2857,981.0123,1005.3571,981.9119,995.4286,980.7051,985.5,981.648,975.5714,981.1486,965.6429,981.5446,955.7143,981.6882,945.7857,981.92,935.8571,980.728,925.9286,981.9234,916,981.6261,906.0714,981.8032,896.1429,982.1957,886.2143,981.4534,876.2857,981.6232,866.3571,981.6613,856.4286,981.6451,846.5,981.4471,836.5714,982.1586,826.6429,980.8382,816.7143,982.0132,806.7857,980.8239,796.8571,980.9076,786.9286,981.4879,777,981.4762,767.0714,980.9551,757.1429,981.8616,747.2143,981.5567,737.2857,982.1746,727.3571,982.115,717.4286,980.9996,707.5,981.05,697.5714,981.3187,687.6429,981.8034,677.7143,981.8509,667.7857,981.7491,657.8571,981.1059,647.9286,982.0843,638,982.0817,628.0714,981.4006,618.1429,981.2088,608.2143,981.0465,598.2857,981.2333,588.3571,981.5853,578.4286,981.3795,568.5,981.4479,568.4467,981.3192,568.2086,981.4515,567.7344,981.0137,567.5034,981.1633,567.1403,980.9937,566.7322,980.7157,566.8468,980.7631,566.799,980.4504,566.3636,979.9772,566.2003,979.6167,566.3062,979.3676,566,978.9479,565.4031,978.9479,565.766,968.9849,566.1155,959.0219,566.0687,949.0589,565.6415,939.096,565.957,929.133,566.7446,919.17,566.6485,909.207,565.4037,899.244,566.0785,889.2811,565.4861,879.3181,565.9737,869.3551,566.293,859.3921,566.4199,849.4291,565.3353,839.4661,566.4005,829.5032,566.0084,819.5402,565.4447,809.5772,565.5289,799.6142,566.3266,789.6512,566.2499,779.6882,565.9836,769.7253,565.3279,759.7623,566.6581,749.7993,565.6882,739.8363,565.4719,729.8733,565.9327,719.9104,566.5897,709.9474,566.6154,699.9844,566.0351,690.0214,565.8488,680.0584,566.1698,670.0954,566.1862,660.1325,565.4922,650.1695,566.414,640.2065,566.5588,630.2435,565.7842,620.2805,565.5708,610.3175,566.6746,600.3546,566.021,590.3916,565.9998,580.4286,566.299,570.4656,565.3543,560.5026,566.53,550.5396,565.9846,540.5767,566.6688,530.6137,565.7841,520.6507,566.409,510.6877,565.556,500.7247,566.245,490.7618,566.3793,480.7988,565.6727,470.8358,566.363,460.8728,565.4286,450.9098,565.5295,440.9468,566.6828,430.9839,566.6844,421.0209,566,411.0579,566.1751,411.1304,566.0355,410.6584,566.4112,410.3998,566.294,409.937,566.6037,409.6511,566.7322,409.2901,566.7321,409.2897,567.0523,409.0629,567.5179,409.1869,567.8494,408.9873,568.1055,408.6056,568.5,408.5579" style="stroke:#181818;stroke-width:4;"/><text fill="#000000" font-family="Chalkduster" font-size="24" font-style="italic" lengthAdjust="spacing" textLength="174.126" x="759.437" y="434.3988">&#171;workspace&#187;</text><text fill="#000000" font-family="Chalkduster" font-size="24" font-weight="bold" lengthAdjust="spacing" textLength="545.1314" x="573.9343" y="465.0286">Research &amp; Data Management Activities</text></g><!--cluster repo--><g class="cluster" data-entity="repo" data-source-line="16" data-uid="ent0019" id="cluster_repo"><path d="M6,1125.4479 L6,1125.4479 L6.0156,1125.54 L9.8752,1124.6062 L13.826,1124.2123 L17.7472,1123.6426 L21.5706,1122.4946 L25.5293,1122.1471 L25.527,1122.1127 L27.5749,1121.8195 L29.6345,1121.7001 L31.7023,1121.7014 L33.742,1121.2866 L35.821,1121.4547 L35.834,1121.7004 L38.2307,1121.0463 L40.6654,1121.1097 L43.1047,1121.2606 L45.5171,1120.9022 L47.9436,1120.8117 L47.9448,1120.842 L53.7574,1120.5685 L59.5755,1120.4329 L65.391,1120.2309 L71.2115,1120.1558 L77.0156,1119.6666 L77.024,1119.9648 L83.9038,1119.7746 L90.7781,1119.3921 L97.6603,1119.2911 L104.543,1119.2032 L111.4138,1118.6974 L111.4071,1118.377 L119.0987,1118.8373 L126.7682,1118.2424 L134.4545,1118.4497 L142.1234,1117.831 L149.8066,1117.8893 L149.8062,1117.8589 L158.0231,1118.0865 L166.2287,1117.603 L174.4409,1117.5391 L182.6538,1117.5105 L190.8625,1117.2277 L190.8649,1117.4127 L199.34,1117.12 L207.8191,1117.1434 L216.2918,1116.6554 L224.7741,1116.9302 L233.25,1116.6979 L233.2563,1117.4288 L243.6856,1117.2003 L254.1179,1117.3346 L264.5357,1115.7828 L274.9641,1115.467 L285.3949,1115.4177 L295.8318,1116.0774 L306.2607,1115.8035 L316.6934,1115.9752 L316.698,1116.8838 L327.0909,1115.6893 L337.4885,1115.4118 L347.8911,1116.1206 L358.2837,1114.8741 L368.6834,1115.018 L379.0901,1116.5224 L389.4844,1115.6041 L389.4857,1116.185 L399.6316,1116.5611 L409.7736,1115.1304 L419.9206,1115.9628 L430.0665,1116.3021 L440.2084,1114.8627 L450.3546,1115.3424 L460.5,1115.4479 L460.5,1115.4479 L460.5004,1115.6159 L470.647,1116.3392 L480.7902,1115.487 L490.9366,1116.1316 L501.0787,1114.7988 L511.2235,1114.6565 L521.372,1116.2533 L531.5156,1115.6041 L531.5108,1114.6482 L541.9178,1116.3358 L552.3145,1115.9857 L562.71,1115.406 L573.1081,1115.3445 L583.5123,1116.4809 L593.9059,1115.5231 L604.3066,1115.9752 L604.3135,1116.7644 L614.7307,1115.3286 L625.1746,1116.9791 L635.6035,1116.8919 L646.0311,1116.6632 L656.4593,1116.4899 L666.8976,1117.486 L677.3267,1117.4256 L687.75,1116.6979 L687.7509,1116.7731 L696.229,1116.923 L704.7043,1116.8519 L713.1865,1117.3342 L721.6608,1117.1905 L730.1375,1117.2277 L730.1387,1117.3044 L738.3443,1117.0897 L746.5569,1117.3123 L754.7748,1117.8605 L762.9853,1117.948 L771.1934,1117.8893 L771.193,1117.8702 L778.8689,1117.9078 L786.5484,1118.1153 L794.2226,1118.0693 L801.9115,1118.7201 L809.5862,1118.6974 L809.5954,1119.026 L816.4724,1119.1251 L823.3542,1119.3938 L830.2234,1119.2182 L837.1058,1119.5115 L843.9844,1119.6666 L843.9776,1119.4945 L849.8037,1120.0218 L855.6175,1120.2342 L861.4372,1120.599 L867.238,1120.4807 L873.0564,1120.8117 L873.0532,1120.752 L875.4914,1121.1371 L877.9188,1121.3207 L880.3179,1120.97 L882.7499,1121.24 L885.179,1121.4547 L885.1834,1121.5209 L887.2191,1121.3223 L889.3062,1121.8884 L891.3617,1121.9845 L893.4094,1121.9639 L895.4707,1122.1471 L895.4812,1122.2095 L899.4305,1123.1266 L903.2592,1123.3303 L907.2116,1124.2656 L911.1153,1124.9129 L915,1125.4479 L915.3087,1125.4479 L915.3758,1135.4553 L915.3026,1145.4628 L913.3356,1155.4702 L913.9312,1165.4776 L913.7692,1175.485 L915.1702,1185.4925 L915.235,1195.4999 L915.4313,1205.5073 L914.2241,1215.5148 L914.82,1225.5222 L914.6794,1235.5296 L916.5383,1245.537 L916.1375,1255.5445 L913.7052,1265.5519 L914.8055,1275.5593 L913.4607,1285.5668 L915.769,1295.5742 L916.6226,1305.5816 L916.4522,1315.589 L913.8385,1325.5965 L916.2372,1335.6039 L913.0192,1345.6113 L915.5337,1355.6188 L914.2018,1365.6262 L915.2579,1375.6336 L915.6409,1385.641 L916.2589,1395.6485 L913.0802,1405.6559 L916.2679,1415.6633 L915.4751,1425.6708 L915.9475,1435.6782 L916.9941,1445.6856 L915.0146,1455.693 L915.4674,1465.7005 L915,1475.7079 L915,1475.7079 L915.0158,1475.8014 L911.1087,1476.4545 L907.1882,1477.0279 L903.3351,1477.9998 L899.3314,1478.0813 L895.4707,1479.0087 L895.4876,1479.2593 L893.3937,1478.8705 L891.3379,1479.0461 L889.2969,1479.4419 L887.2382,1479.5752 L885.179,1479.7011 L885.1674,1479.4824 L882.7642,1480.0133 L880.3325,1480.0066 L877.9225,1480.4094 L875.4966,1480.5116 L873.0564,1480.3441 L873.0486,1480.1451 L867.235,1480.3964 L861.4253,1480.7448 L855.6194,1481.189 L849.8058,1481.4391 L843.9844,1481.4891 L843.9881,1481.6229 L837.1005,1481.5311 L830.2331,1482.1596 L823.3534,1482.3523 L816.4652,1482.2435 L809.5862,1482.4584 L809.5839,1482.3522 L801.9039,1482.4417 L794.227,1482.6863 L786.5518,1483.0043 L778.8713,1483.0745 L771.1934,1483.2665 L771.1904,1483.0808 L762.9857,1483.6154 L754.7677,1483.3272 L746.5634,1483.8867 L738.3517,1483.9856 L730.1375,1483.9281 L730.1395,1484.0934 L721.6638,1484.3418 L713.1811,1484.0308 L704.7033,1484.1124 L696.2304,1484.5825 L687.75,1484.4579 L687.7431,1483.6621 L677.3169,1484.2362 L666.8905,1484.7925 L656.4595,1484.8205 L646.0242,1484.3413 L635.5974,1484.8523 L625.1761,1485.9926 L614.7445,1485.9548 L604.3066,1485.1806 L604.3026,1484.3855 L593.9085,1485.3383 L583.5057,1484.6014 L573.1103,1485.3045 L562.7138,1485.7833 L552.3159,1486.0054 L541.9098,1484.6123 L531.5156,1485.5516 L531.5168,1486.0857 L521.3706,1485.5852 L511.2238,1484.8558 L501.079,1484.9905 L490.9362,1486.0764 L480.7909,1485.9964 L470.645,1485.6636 L460.5,1485.7079 L460.5,1485.7079 L460.498,1484.8118 L450.3568,1486.5631 L440.2089,1485.2475 L430.0632,1484.9369 L419.9194,1485.5288 L409.7763,1486.3826 L399.6313,1486.3945 L389.4844,1485.5516 L389.4846,1485.5985 L379.0846,1485.2971 L368.6881,1485.672 L358.2895,1485.6409 L347.8861,1484.6626 L337.4936,1485.8385 L327.0959,1485.9786 L316.6934,1485.1806 L316.6909,1484.8929 L306.258,1484.518 L295.8403,1485.8994 L285.4023,1484.9376 L274.9717,1484.819 L264.5447,1485.1276 L254.1034,1483.7777 L243.6865,1485.2548 L233.25,1484.4579 L233.2499,1484.451 L224.7762,1484.6492 L216.2938,1484.1501 L207.8198,1484.3218 L199.3376,1483.8368 L190.8625,1483.9281 L190.8643,1484.037 L182.6541,1483.9643 L174.4378,1483.518 L166.2316,1483.6925 L158.0137,1483.1449 L149.8066,1483.2665 L149.8022,1483.0574 L142.1345,1483.4083 L134.4559,1483.2473 L126.7763,1483.0342 L119.089,1482.4599 L111.4138,1482.4584 L111.4186,1482.6291 L104.5283,1482.0548 L97.6553,1482.0965 L90.7749,1481.8763 L83.892,1481.5664 L77.0156,1481.4891 L77.0264,1481.7627 L71.209,1481.457 L65.3812,1480.8887 L59.5816,1481.036 L53.7596,1480.6139 L47.9436,1480.3441 L47.9299,1480.0851 L45.5136,1480.112 L43.0822,1479.8538 L40.6668,1479.8966 L38.2307,1479.5506 L35.821,1479.7011 L35.8031,1479.435 L33.7648,1479.5938 L31.7007,1479.3708 L29.6442,1479.2597 L27.5834,1479.0837 L25.5293,1479.0087 L25.5417,1479.082 L21.5823,1478.1053 L17.7294,1477.7585 L13.7567,1476.7025 L9.9278,1476.4978 L6,1475.7079 L7.5807,1475.7079 L7.3922,1465.7005 L6.9635,1455.693 L6.5126,1445.6856 L6.2819,1435.6782 L4.2932,1425.6708 L7.1908,1415.6633 L6.879,1405.6559 L5.591,1395.6485 L5.9846,1385.641 L5.4438,1375.6336 L6.5805,1365.6262 L7.8148,1355.6188 L5.0563,1345.6113 L7.2503,1335.6039 L5.7621,1325.5965 L4.9886,1315.589 L4.8483,1305.5816 L4.2808,1295.5742 L4.8243,1285.5668 L6.0968,1275.5593 L6.7279,1265.5519 L7.5365,1255.5445 L7.1203,1245.537 L4.103,1235.5296 L7.6508,1225.5222 L7.2964,1215.5148 L7.4419,1205.5073 L7.3916,1195.4999 L4.2423,1185.4925 L5.3127,1175.485 L6.8426,1165.4776 L4.716,1155.4702 L5.7257,1145.4628 L6.1786,1135.4553 L6,1125.4479" fill="#00FF7F" style="stroke:#181818;stroke-width:4;"/><path d="M6,1125.4479 L6,1125.4479 L6.0156,1125.54 L9.8752,1125.9265 L13.826,1126.8529 L17.7472,1127.6035 L21.5706,1127.7759 L25.5293,1128.7487 L25.527,1128.7142 L27.5749,1128.698 L29.6345,1128.8556 L31.7023,1129.1339 L33.742,1128.996 L35.821,1129.4411 L35.834,1129.6868 L38.2307,1129.29 L40.6654,1129.6105 L43.1047,1130.0186 L45.5171,1129.9175 L47.9436,1130.0841 L47.9448,1130.1144 L53.7574,1130.2989 L59.5755,1130.6214 L65.391,1130.8773 L71.2115,1131.2602 L77.0156,1131.2291 L77.024,1131.5273 L83.9038,1131.7248 L90.7781,1131.73 L97.6603,1132.0166 L104.543,1132.3165 L111.4138,1132.1984 L111.4071,1131.8779 L119.0987,1132.6615 L126.7682,1132.3899 L134.4545,1132.9204 L142.1234,1132.6249 L149.8066,1133.0065 L149.8062,1132.976 L158.0231,1133.4684 L166.2287,1133.2495 L174.4409,1133.4503 L182.6538,1133.6863 L190.8625,1133.6681 L190.8649,1133.8531 L199.34,1133.7723 L207.8191,1134.0077 L216.2918,1133.7316 L224.7741,1134.2183 L233.25,1134.1979 L233.2563,1134.9288 L243.6856,1134.8809 L254.1179,1135.1959 L264.5357,1133.8248 L274.9641,1133.6897 L285.3949,1133.8211 L295.8318,1134.6614 L306.2607,1134.5682 L316.6934,1134.9206 L316.698,1135.8291 L327.0909,1134.7407 L337.4885,1134.5692 L347.8911,1135.3839 L358.2837,1134.2435 L368.6834,1134.4935 L379.0901,1136.1039 L389.4844,1135.2916 L389.4857,1135.8725 L399.6316,1136.2933 L409.7736,1134.9072 L419.9206,1135.7842 L430.0665,1136.1682 L440.2084,1134.7734 L450.3546,1135.2978 L460.5,1135.4479 L460.5,1135.4479 L460.5004,1135.6159 L470.647,1136.2946 L480.7902,1135.3977 L490.9366,1135.9977 L501.0787,1134.6202 L511.2235,1134.4333 L521.372,1135.9854 L531.5156,1135.2916 L531.5108,1134.3357 L541.9178,1135.9172 L552.3145,1135.4611 L562.71,1134.7754 L573.1081,1134.6079 L583.5123,1135.6382 L593.9059,1134.5745 L604.3066,1134.9206 L604.3135,1135.7097 L614.7307,1134.0933 L625.1746,1135.5631 L635.6035,1135.2953 L646.0311,1134.8858 L656.4593,1134.5318 L666.8976,1135.3473 L677.3267,1135.1063 L687.75,1134.1979 L687.7509,1134.2731 L696.229,1134.2111 L704.7043,1133.9281 L713.1865,1134.1984 L721.6608,1133.8429 L730.1375,1133.6681 L730.1387,1133.7448 L738.3443,1133.2654 L746.5569,1133.2234 L754.7748,1133.507 L762.9853,1133.3298 L771.1934,1133.0065 L771.193,1132.9874 L778.8689,1132.7017 L786.5484,1132.586 L794.2226,1132.2167 L801.9115,1132.5443 L809.5862,1132.1984 L809.5954,1132.5269 L816.4724,1132.2384 L823.3542,1132.1194 L830.2234,1131.5561 L837.1058,1131.4617 L843.9844,1131.2291 L843.9776,1131.057 L849.8037,1131.1263 L855.6175,1130.8807 L861.4372,1130.7874 L867.238,1130.2111 L873.0564,1130.0841 L873.0532,1130.0245 L875.4914,1130.1523 L877.9188,1130.0787 L880.3179,1129.4709 L882.7499,1129.4837 L885.179,1129.4411 L885.1834,1129.5073 L887.2191,1129.0318 L889.3062,1129.3209 L891.3617,1129.1401 L893.4094,1128.8425 L895.4707,1128.7487 L895.4812,1128.811 L899.4305,1128.4078 L903.2592,1127.2913 L907.2116,1126.9062 L911.1153,1126.2332 L915,1125.4479" fill="none" style="stroke:#181818;stroke-width:4;"/><text fill="#000000" font-family="Chalkduster" font-size="24" font-style="italic" lengthAdjust="spacing" textLength="169.1404" x="375.9298" y="1161.2888">&#171;repository&#187;</text><text fill="#000000" font-family="Chalkduster" font-size="24" font-weight="bold" lengthAdjust="spacing" textLength="288.9547" x="316.0227" y="1191.9186">Archival Repositories</text></g><!--cluster Research Data Repositories--><g class="cluster" data-entity="Research Data Repositories" data-source-line="18" data-uid="ent0021" id="cluster_Research Data Repositories"><polygon fill="none" points="40.5,1226.4479,40.5,1226.6581,50.5488,1226.0336,60.5976,1226.6412,70.6463,1226.8476,80.6951,1225.7345,90.7439,1226.3702,100.7927,1226.0214,110.8415,1226.0644,120.8902,1226.3797,130.939,1225.7565,140.9878,1227.0015,151.0366,1225.8176,161.0854,1226.2501,171.1341,1226.8798,181.1829,1226.3621,191.2317,1226.5161,201.2805,1226.4159,211.3293,1226.6264,221.378,1226.687,231.4268,1227.0336,241.4756,1227.1189,251.5244,1227.1272,261.5732,1226.7025,271.622,1226.9115,281.6707,1227.1501,291.7195,1225.7267,301.7683,1227.1264,311.8171,1226.1514,321.8659,1226.9817,331.9146,1225.9529,341.9634,1226.3794,352.0122,1227.1895,362.061,1226.3992,372.1098,1226.5532,382.1585,1226.7865,392.2073,1226.8641,402.2561,1226.444,412.3049,1226.7351,422.3537,1225.8755,432.4024,1226.7323,442.4512,1226.9961,452.5,1226.4479,452.5567,1226.5848,452.9318,1226.7831,453.1455,1226.592,453.4775,1226.6864,453.8349,1226.8423,454.2678,1227.1801,454.2496,1227.1726,454.3537,1227.5086,454.7705,1227.9742,454.6533,1228.2185,454.7479,1228.5506,455,1228.9479,455.2283,1228.9479,454.3332,1239.0506,454.4809,1249.1533,455.649,1259.2561,455.4357,1269.3588,455.7345,1279.4615,454.6782,1289.5643,455.3192,1299.667,455.5904,1309.7697,454.5276,1319.8724,454.9041,1329.9752,455.126,1340.0779,455.6518,1350.1806,454.9958,1360.2833,455.4626,1370.3861,454.4462,1380.4888,454.3227,1390.5915,455.5036,1400.6943,454.2831,1410.797,455.509,1420.8997,455.2066,1431.0024,454.7321,1441.1052,455,1451.2079,454.8911,1451.1628,454.9948,1451.62,454.6149,1451.8768,454.7429,1452.3441,454.244,1452.5516,454.2678,1452.9757,454.3465,1453.1658,453.976,1453.2713,453.5919,1453.344,453.2131,1453.4295,452.9462,1453.7852,452.5,1453.7079,452.5,1454.3215,442.4512,1453.8772,432.4024,1453.9761,422.3537,1453.5776,412.3049,1454.4243,402.2561,1453.8628,392.2073,1453.8805,382.1585,1453.0995,372.1098,1453.3027,362.061,1454.2386,352.0122,1454.1377,341.9634,1453.665,331.9146,1453.3857,321.8659,1453.489,311.8171,1453.0217,301.7683,1454.1226,291.7195,1454.4475,281.6707,1454.2343,271.622,1454.4028,261.5732,1453.5712,251.5244,1453.7951,241.4756,1453.3203,231.4268,1453.9919,221.378,1453.9547,211.3293,1454.2603,201.2805,1453.4782,191.2317,1453.5735,181.1829,1454.1514,171.1341,1454.2752,161.0854,1453.1954,151.0366,1453.514,140.9878,1453.8572,130.939,1453.097,120.8902,1454.0613,110.8415,1453.9659,100.7927,1453.6071,90.7439,1453.8501,80.6951,1454.4366,70.6463,1453.395,60.5976,1454.0229,50.5488,1453.9935,40.5,1453.7079,40.5148,1453.7435,40.1644,1453.6048,39.8074,1453.4499,39.3597,1453.0763,39.0347,1452.9987,38.7322,1452.9757,38.5901,1452.9168,38.6054,1452.6303,38.4665,1452.2798,38.3427,1451.9356,38.0568,1451.5243,38,1451.2079,37.9325,1451.2079,37.8798,1441.1052,38.5769,1431.0024,38.4266,1420.8997,37.5145,1410.797,37.9271,1400.6943,37.4228,1390.5915,38.2884,1380.4888,38.6085,1370.3861,38.5446,1360.2833,37.5644,1350.1806,38.464,1340.0779,37.2572,1329.9752,38.2002,1319.8724,37.7007,1309.7697,38.0967,1299.667,38.2403,1289.5643,38.4721,1279.4615,37.2801,1269.3588,38.4755,1259.2561,38.1782,1249.1533,38.3553,1239.0506,38,1228.9479,38.2303,1229.0433,38.1481,1228.595,38.3469,1228.2631,38.5051,1227.9145,38.6465,1227.5588,38.7322,1227.1801,38.7321,1227.1799,39.1764,1227.2526,39.3616,1226.6995,39.865,1226.9149,40.0668,1226.4022,40.5,1226.4479" style="stroke:#181818;stroke-width:4;"/><text fill="#000000" font-family="Chalkduster" font-size="24" font-weight="bold" lengthAdjust="spacing" textLength="368.8575" x="62.0713" y="1252.2888">Research Data Repositories</text></g><!--entity coll--><g class="entity" data-entity="coll" data-source-line="9" data-uid="ent0003" id="entity_coll"><polygon fill="none" points="919.046,502.5038,917.8733,504.1061,916.4863,506.453,914.5026,508.0345,912.418,508.8994,910.7559,508.9745,908.6197,507.8928,906.6041,507.1862,905.0742,505.7515,904.2716,504.109,903.7957,502.8012,903.3295,501.093,902.5727,499.623,903.1542,498.1877,903.6637,496.6155,905.5758,495.3721,906.921,493.7587,908.5861,493.2229,910.5655,492.7616,913.1039,493.0357,914.4942,493.6914,916.1106,493.9886,918.0761,496.0022,918.7612,498.128,919.0589,499.5785,918.7217,501.9687" style="stroke:#8B0000;stroke-width:4;"/><path d="M911.0018,508.5579 L911.1886,508.5579 L910.6335,513.9579 L911.1736,519.3579 L911.357,524.7579 L910.3676,530.1579 L911.0018,535.5579 M898.0018,516.5579 L898.0018,516.4888 L903.2018,516.1788 L908.4018,516.217 L913.6018,516.4973 L918.8018,515.9433 L924.0018,516.5579 M911.0018,535.5579 L911.3737,535.8802 L907.9784,538.191 L905.6689,541.4428 L903.4919,544.8094 L900.5441,547.508 L898.0018,550.5579 M911.0018,535.5579 L911.0476,535.5976 L913.5803,538.5393 L916.3217,541.6618 L918.9624,544.6971 L921.7952,547.8989 L924.0018,550.5579" fill="none" style="stroke:#8B0000;stroke-width:4;"/><text fill="#000000" font-family="Chalkduster" font-size="24" lengthAdjust="spacing" textLength="100.1635" x="860.92" y="579.3988">Collect</text></g><!--entity prep--><g class="entity" data-entity="prep" data-source-line="10" data-uid="ent0004" id="entity_prep"><polygon fill="none" points="735.0434,692.1338,733.8708,693.7361,732.4837,696.083,730.5,697.6645,728.4155,698.5294,726.7534,698.6045,724.6172,697.5228,722.6015,696.8162,721.0716,695.3815,720.2691,693.739,719.7932,692.4312,719.3269,690.723,718.5701,689.253,719.1517,687.8177,719.6612,686.2455,721.5733,685.0021,722.9185,683.3887,724.5835,682.8529,726.563,682.3916,729.1013,682.6657,730.4916,683.3214,732.1081,683.6186,734.0735,685.6322,734.7587,687.758,735.0564,689.2085,734.7192,691.5987" style="stroke:#8B0000;stroke-width:4;"/><path d="M726.9992,698.1879 L727.1861,698.1879 L726.6309,703.5879 L727.171,708.9879 L727.3545,714.3879 L726.3651,719.7879 L726.9992,725.1879 M713.9992,706.1879 L713.9992,706.1188 L719.1992,705.8088 L724.3992,705.847 L729.5992,706.1273 L734.7992,705.5733 L739.9992,706.1879 M726.9992,725.1879 L727.3711,725.5102 L723.9759,727.821 L721.6664,731.0728 L719.4894,734.4394 L716.5416,737.138 L713.9992,740.1879 M726.9992,725.1879 L727.0451,725.2276 L729.5778,728.1693 L732.3191,731.2918 L734.9599,734.3271 L737.7926,737.5289 L739.9992,740.1879" fill="none" style="stroke:#8B0000;stroke-width:4;"/><text fill="#000000" font-family="Chalkduster" font-size="24" lengthAdjust="spacing" textLength="103.4785" x="675.26" y="769.0288">Prepare</text></g><!--entity dep--><g class="entity" data-entity="dep" data-source-line="11" data-uid="ent0005" id="entity_dep"><polygon fill="none" points="771.0467,881.7638,769.874,883.3661,768.487,885.713,766.5033,887.2945,764.4188,888.1594,762.7567,888.2345,760.6204,887.1528,758.6048,886.4462,757.0749,885.0115,756.2723,883.369,755.7964,882.0612,755.3302,880.353,754.5734,878.883,755.1549,877.4477,755.6644,875.8755,757.5765,874.6321,758.9217,873.0187,760.5868,872.4829,762.5662,872.0216,765.1046,872.2957,766.4949,872.9514,768.1114,873.2486,770.0768,875.2622,770.7619,877.388,771.0596,878.8385,770.7225,881.2287" style="stroke:#8B0000;stroke-width:4;"/><path d="M763.0025,887.8179 L763.1893,887.8179 L762.6342,893.2179 L763.1743,898.6179 L763.3578,904.0179 L762.3684,909.4179 L763.0025,914.8179 M750.0025,895.8179 L750.0025,895.7488 L755.2025,895.4388 L760.4025,895.477 L765.6025,895.7573 L770.8025,895.2033 L776.0025,895.8179 M763.0025,914.8179 L763.3744,915.1402 L759.9791,917.451 L757.6696,920.7028 L755.4926,924.0694 L752.5449,926.768 L750.0025,929.8179 M763.0025,914.8179 L763.0483,914.8576 L765.581,917.7993 L768.3224,920.9218 L770.9631,923.9571 L773.7959,927.1589 L776.0025,929.8179" fill="none" style="stroke:#8B0000;stroke-width:4;"/><text fill="#000000" font-family="Chalkduster" font-size="24" lengthAdjust="spacing" textLength="60.305" x="732.85" y="958.6588">Keep</text></g><!--entity an--><g class="entity" data-entity="an" data-source-line="12" data-uid="ent0006" id="entity_an"><polygon fill="none" points="920.0431,692.1338,918.8705,693.7361,917.4835,696.083,915.4998,697.6645,913.4152,698.5294,911.7531,698.6045,909.6169,697.5228,907.6013,696.8162,906.0713,695.3815,905.2688,693.739,904.7929,692.4312,904.3266,690.723,903.5699,689.253,904.1514,687.8177,904.6609,686.2455,906.573,685.0021,907.9182,683.3887,909.5832,682.8529,911.5627,682.3916,914.1011,682.6657,915.4914,683.3214,917.1078,683.6186,919.0733,685.6322,919.7584,687.758,920.0561,689.2085,919.7189,691.5987" style="stroke:#8B0000;stroke-width:4;"/><path d="M911.999,698.1879 L912.1858,698.1879 L911.6307,703.5879 L912.1708,708.9879 L912.3542,714.3879 L911.3648,719.7879 L911.999,725.1879 M898.999,706.1879 L898.999,706.1188 L904.199,705.8088 L909.399,705.847 L914.599,706.1273 L919.799,705.5733 L924.999,706.1879 M911.999,725.1879 L912.3708,725.5102 L908.9756,727.821 L906.6661,731.0728 L904.4891,734.4394 L901.5413,737.138 L898.999,740.1879 M911.999,725.1879 L912.0448,725.2276 L914.5775,728.1693 L917.3189,731.2918 L919.9596,734.3271 L922.7924,737.5289 L924.999,740.1879" fill="none" style="stroke:#8B0000;stroke-width:4;"/><text fill="#000000" font-family="Chalkduster" font-size="24" lengthAdjust="spacing" textLength="104.7779" x="859.61" y="769.0288">Analyse</text></g><!--entity Libraries--><g class="entity" data-entity="Libraries" data-source-line="17" data-uid="ent0020" id="entity_Libraries"><polygon fill="none" points="473.04,1275.4479,473.04,1275.6581,483.188,1275.0336,493.336,1275.6412,503.4839,1275.8476,513.6319,1274.7345,523.7799,1275.3702,533.9279,1275.0214,544.0759,1275.0644,554.2239,1275.3797,564.3718,1274.7565,574.5198,1276.0015,584.6678,1274.8176,594.8158,1275.2501,604.9638,1275.4479,605.0189,1275.5809,605.3064,1275.5679,605.6796,1275.7618,606.0204,1275.8774,606.4008,1276.0887,606.7315,1276.1801,606.8052,1276.2106,607.0583,1276.6084,607.2311,1276.9728,607.3801,1277.3274,607.3957,1277.6268,607.4638,1277.9479,607.9274,1277.9479,608.166,1287.0739,606.7426,1296.1998,608.1423,1305.3258,607.1673,1314.4518,607.4638,1323.5777,607.6282,1323.6458,607.1649,1323.8681,607.1498,1324.2761,607.2528,1324.733,606.863,1324.9857,606.7315,1325.3455,606.745,1325.3779,606.4212,1325.5962,606.0775,1325.7666,605.6704,1325.7836,605.354,1326.0197,604.9638,1326.0777,604.9638,1325.5053,594.8158,1326.3621,584.6678,1326.6259,574.5198,1326.5223,564.3718,1326.6908,554.2239,1325.5946,544.0759,1325.4255,533.9279,1325.4563,523.7799,1326.0188,513.6319,1325.8812,503.4839,1326.7591,493.336,1325.9031,483.188,1325.7347,473.04,1326.0777,473.0691,1326.148,472.6014,1325.7259,472.2667,1325.625,472.0621,1325.8382,471.6814,1325.6261,471.2722,1325.3455,471.4984,1325.4392,471.0267,1324.9509,471.0776,1324.6791,471.0147,1324.3601,470.541,1323.871,470.54,1323.5777,470.4441,1323.5777,470.666,1314.4518,471.1918,1305.3258,470.5358,1296.1998,471.0026,1287.0739,470.54,1277.9479,470.3695,1277.8773,470.4779,1277.508,470.988,1277.305,470.7586,1276.7958,471.2825,1276.5986,471.2722,1276.1801,471.2986,1276.2438,471.5916,1275.9512,471.9342,1275.7783,472.3914,1275.8821,472.6483,1275.5022,473.04,1275.4479" style="stroke:#181818;stroke-width:4;"/><text fill="#000000" font-family="Chalkduster" font-size="24" lengthAdjust="spacing" textLength="116.9238" x="480.54" y="1309.2888">Libraries</text></g><!--entity GLAM Holdings--><g class="entity" data-entity="GLAM Holdings" data-source-line="24" data-uid="ent0026" id="entity_GLAM Holdings"><polygon fill="none" points="644.85,1275.4479,644.85,1275.6581,655.045,1275.0336,665.2401,1275.6412,675.4351,1275.8476,685.6301,1274.7345,695.8251,1275.3702,706.0202,1275.0214,716.2152,1275.0644,726.4102,1275.3797,736.6053,1274.7565,746.8003,1276.0015,756.9953,1274.8176,767.1903,1275.2501,777.3854,1275.8798,787.5804,1275.3621,797.7754,1275.5161,807.9705,1275.4159,818.1655,1275.6264,828.3605,1275.687,838.5555,1276.0336,848.7506,1276.1189,858.9456,1276.1272,869.1406,1275.4479,869.1731,1275.5263,869.5533,1275.7371,869.9373,1275.957,870.1093,1275.6651,870.6414,1276.2426,870.9084,1276.1801,870.8171,1276.1423,871.2192,1276.6018,871.0488,1276.8241,871.3266,1277.2321,871.7226,1277.6889,871.6406,1277.9479,871.5919,1277.9479,871.7459,1287.0739,871.9792,1296.1998,872.0569,1305.3258,871.6367,1314.4518,871.6406,1323.5777,871.7291,1323.6144,871.3179,1323.8583,871.4353,1324.3211,871.3701,1324.7083,871.1917,1325.0486,870.9084,1325.3455,870.9866,1325.5343,870.4932,1325.3432,870.1181,1325.4375,869.7685,1325.5935,869.4867,1325.9131,869.1406,1326.0777,869.1406,1325.8812,858.9456,1326.7591,848.7506,1325.9031,838.5555,1325.7347,828.3605,1326.306,818.1655,1325.4109,807.9705,1325.5586,797.7754,1326.7267,787.5804,1326.5134,777.3854,1326.8122,767.1903,1325.7559,756.9953,1326.3969,746.8003,1326.6681,736.6053,1325.6053,726.4102,1325.9819,716.2152,1326.2037,706.0202,1326.7295,695.8251,1326.0735,685.6301,1326.5403,675.4351,1325.5239,665.2401,1325.4005,655.045,1326.5813,644.85,1326.0777,644.7585,1325.8569,644.5614,1326.088,644.1693,1325.8485,643.7552,1325.5559,643.3907,1325.383,643.0822,1325.3455,643.2235,1325.404,642.8436,1324.9538,642.9716,1324.7139,642.4727,1324.2143,642.6866,1324.01,642.35,1323.5777,642.8343,1323.5777,642.595,1314.4518,642.3972,1305.3258,643.0766,1296.1998,642.9636,1287.0739,642.35,1277.9479,642.4021,1277.9695,642.579,1277.6286,642.6028,1277.2242,643.01,1276.9786,642.9835,1276.5534,643.0822,1276.1801,643.1042,1276.2333,643.3582,1275.8463,643.7376,1275.7624,644.2106,1275.9042,644.5513,1275.7267,644.85,1275.4479" style="stroke:#181818;stroke-width:4;"/><text fill="#000000" font-family="Chalkduster" font-size="24" lengthAdjust="spacing" textLength="209.2906" x="652.35" y="1309.2888">GLAM Holdings</text></g><!--entity Institutional--><g class="entity" data-entity="Institutional" data-source-line="19" data-uid="ent0022" id="entity_Institutional"><polygon fill="none" points="56.01,1275.4479,56.01,1275.6581,66.0087,1275.0336,76.0073,1275.6412,86.006,1275.8476,96.0046,1274.7345,106.0033,1275.3702,116.002,1275.0214,126.0006,1275.0644,135.9993,1275.3797,145.998,1274.7565,155.9966,1276.0015,165.9953,1274.8176,175.9939,1275.2501,185.9926,1275.8798,195.9913,1275.3621,205.9899,1275.5161,215.9886,1275.4159,225.9873,1275.6264,235.9859,1275.687,245.9846,1275.4479,246.0593,1275.6283,246.4237,1275.801,246.7783,1275.95,247.0777,1275.9656,247.4579,1276.1764,247.7523,1276.1801,247.9686,1276.2697,247.6767,1276.4417,248.2542,1276.9738,248.1004,1277.203,248.5025,1277.6624,248.4846,1277.9479,247.9896,1277.9479,248.4161,1287.0739,249.2262,1296.1998,248.4358,1305.3258,248.5899,1314.4518,248.4846,1323.5777,248.5889,1323.6209,248.4663,1323.9844,248.1905,1324.2843,248.1337,1324.675,247.7225,1324.9189,247.7523,1325.3455,247.7886,1325.4331,247.4687,1325.6608,247.1019,1325.7753,246.7699,1325.9736,246.2765,1325.7825,245.9846,1326.0777,245.9846,1325.4255,235.9859,1325.4563,225.9873,1326.0188,215.9886,1325.8812,205.9899,1326.7591,195.9913,1325.9031,185.9926,1325.7347,175.9939,1326.306,165.9953,1325.4109,155.9966,1325.5586,145.998,1326.7267,135.9993,1326.5134,126.0006,1326.8122,116.002,1325.7559,106.0033,1326.3969,96.0046,1326.6681,86.006,1325.6053,76.0073,1325.9819,66.0087,1326.2037,56.01,1326.0777,56.0931,1326.2784,55.6559,1325.93,55.3619,1325.9273,54.8787,1325.4678,54.5094,1325.2834,54.2422,1325.3455,54.3973,1325.4097,53.875,1324.9005,54.1061,1324.7033,53.8665,1324.3112,53.5739,1323.8971,53.51,1323.5777,53.1562,1323.5777,53.9688,1314.4518,53.2107,1305.3258,54.1019,1296.1998,52.9573,1287.0739,53.51,1277.9479,53.7001,1278.0267,53.8056,1277.6561,53.8783,1277.272,53.9639,1276.8933,54.3196,1276.6264,54.2422,1276.1801,54.3205,1276.3691,54.6174,1276.0858,54.9836,1275.9698,55.2863,1275.7007,55.7478,1275.815,56.01,1275.4479" style="stroke:#181818;stroke-width:4;"/><text fill="#000000" font-family="Chalkduster" font-size="24" lengthAdjust="spacing" textLength="174.9746" x="63.51" y="1309.2888">Institutional</text></g><!--entity Discipline--><g class="entity" data-entity="Discipline" data-source-line="20" data-uid="ent0023" id="entity_Discipline"><polygon fill="none" points="286.01,1275.4479,286.01,1275.6581,295.7419,1275.0336,305.4739,1275.6412,315.2058,1275.8476,324.9377,1274.7345,334.6697,1275.3702,344.4016,1275.0214,354.1335,1275.0644,363.8655,1275.3797,373.5974,1274.7565,383.3293,1276.0015,393.0613,1274.8176,402.7932,1275.2501,412.5251,1275.8798,422.2571,1275.3621,431.989,1275.4479,431.9977,1275.4689,432.3385,1275.5845,432.7189,1275.7958,433.0802,1275.9609,433.4779,1276.2141,433.7568,1276.1801,433.9634,1276.2657,434.1124,1276.6203,434.1281,1276.9197,434.3389,1277.2999,434.5588,1277.6839,434.489,1277.9479,433.7678,1277.9479,435.1675,1287.0739,434.1925,1296.1998,435.0228,1305.3258,433.994,1314.4518,434.489,1323.5777,434.4679,1323.569,434.5709,1324.0259,434.1811,1324.2786,434.0821,1324.6518,434.0075,1325.0351,433.7568,1325.3455,433.8099,1325.4737,433.4027,1325.4907,433.0863,1325.7268,432.6231,1325.6086,432.3788,1326.0189,431.989,1326.0777,431.989,1326.6259,422.2571,1326.5223,412.5251,1326.6908,402.7932,1325.5946,393.0613,1325.4255,383.3293,1325.4563,373.5974,1326.0188,363.8655,1325.8812,354.1335,1326.7591,344.4016,1325.9031,334.6697,1325.7347,324.9377,1326.306,315.2058,1325.4109,305.4739,1325.5586,295.7419,1326.7267,286.01,1326.0777,286.0656,1326.2119,285.7501,1326.1575,285.2618,1325.6857,284.9901,1325.7367,284.6711,1325.6738,284.2422,1325.3455,284.0968,1325.2852,284.0663,1324.9797,283.9881,1324.6545,284.0036,1324.368,283.6552,1323.9307,283.51,1323.5777,283.9726,1323.5777,282.9562,1314.4518,282.8327,1305.3258,284.0136,1296.1998,282.7931,1287.0739,283.51,1277.9479,283.6667,1278.0128,283.7201,1277.6207,283.7204,1277.2066,283.8404,1276.8421,284.2371,1276.5922,284.2422,1276.1801,284.204,1276.0879,284.6713,1276.216,284.8788,1275.717,285.3817,1275.9309,285.7182,1275.7435,286.01,1275.4479" style="stroke:#181818;stroke-width:4;"/><text fill="#000000" font-family="Chalkduster" font-size="24" lengthAdjust="spacing" textLength="130.979" x="293.51" y="1309.2888">Discipline</text></g><!--entity Publisher--><g class="entity" data-entity="Publisher" data-source-line="21" data-uid="ent0024" id="entity_Publisher"><polygon fill="none" points="56.15,1387.0779,56.15,1387.2881,65.9861,1386.6636,75.8221,1387.2712,85.6582,1387.4776,95.4943,1386.3645,105.3303,1387.0002,115.1664,1386.6514,125.0025,1386.6944,134.8386,1387.0097,144.6746,1386.3865,154.5107,1387.6315,164.3468,1386.4476,174.1828,1386.8801,184.0189,1387.5098,193.855,1387.0779,193.844,1387.0515,194.2172,1387.2454,194.558,1387.3609,194.9384,1387.5722,195.2997,1387.7373,195.6227,1387.8101,195.8031,1387.8848,195.9759,1388.2493,196.1248,1388.6039,196.1405,1388.9033,196.3513,1389.2835,196.355,1389.5779,197.0572,1389.5779,195.6338,1398.7039,197.0335,1407.8298,196.0585,1416.9558,196.8888,1426.0818,196.355,1435.2077,196.2025,1435.1446,196.1874,1435.5525,196.2905,1436.0094,195.9006,1436.2622,195.8016,1436.6354,195.6227,1436.9755,195.6659,1437.0798,195.3223,1437.2501,194.9151,1437.2672,194.5987,1437.5033,194.1355,1437.385,193.855,1437.7077,193.855,1437.9921,184.0189,1438.2559,174.1828,1438.1523,164.3468,1438.3208,154.5107,1437.2246,144.6746,1437.0555,134.8386,1437.0863,125.0025,1437.6488,115.1664,1437.5112,105.3303,1438.3891,95.4943,1437.5331,85.6582,1437.3647,75.8221,1437.936,65.9861,1437.0409,56.15,1437.7077,56.0838,1437.5479,55.8792,1437.7611,55.4985,1437.549,55.183,1437.4946,54.6947,1437.0228,54.3822,1436.9755,54.4805,1437.0162,54.4176,1436.6973,53.9439,1436.2081,53.9134,1435.9026,53.8352,1435.5774,53.65,1435.2077,54.3018,1435.2077,53.6458,1426.0818,54.1126,1416.9558,53.0962,1407.8298,52.9727,1398.7039,53.65,1389.5779,53.8051,1389.6421,53.5757,1389.1329,54.0996,1388.9357,54.153,1388.5436,54.1533,1388.1295,54.3822,1387.8101,54.3371,1387.7012,54.7943,1387.805,55.0512,1387.4251,55.5184,1387.5531,55.7259,1387.0541,56.15,1387.0779" style="stroke:#181818;stroke-width:4;"/><text fill="#000000" font-family="Chalkduster" font-size="24" lengthAdjust="spacing" textLength="122.705" x="63.65" y="1420.9188">Publisher</text></g><!--entity International--><g class="entity" data-entity="International" data-source-line="22" data-uid="ent0025" id="entity_International"><polygon fill="none" points="233.69,1387.0779,233.69,1387.2881,243.8212,1386.6636,253.9524,1387.2712,264.0836,1387.4776,274.2149,1386.3645,284.3461,1387.0002,294.4773,1386.6514,304.6085,1386.6944,314.7397,1387.0097,324.8709,1386.3865,335.0022,1387.6315,345.1334,1386.4476,355.2646,1386.8801,365.3958,1387.5098,375.527,1386.9921,385.6582,1387.1461,395.7895,1387.0459,405.9207,1387.2564,416.0519,1387.317,426.1831,1387.6636,436.3143,1387.0779,436.3999,1387.2846,436.7545,1387.4335,437.0539,1387.4492,437.4341,1387.66,437.8181,1387.8799,438.0821,1387.8101,437.86,1387.7181,438.4375,1388.2502,438.2837,1388.4794,438.6858,1388.9389,438.5154,1389.1612,438.8143,1389.5779,438.7458,1389.5779,439.5559,1398.7039,438.7656,1407.8298,438.9196,1416.9558,439.1529,1426.0818,438.8143,1435.2077,438.9425,1435.2608,438.6667,1435.5608,438.6099,1435.9515,438.1987,1436.1954,438.3161,1436.6582,438.0821,1436.9755,438.152,1437.1443,437.7852,1437.2588,437.4532,1437.4572,436.9598,1437.2661,436.5847,1437.3604,436.3143,1437.7077,436.3143,1437.0863,426.1831,1437.6488,416.0519,1437.5112,405.9207,1438.3891,395.7895,1437.5331,385.6582,1437.3647,375.527,1437.936,365.3958,1437.0409,355.2646,1437.1886,345.1334,1438.3567,335.0022,1438.1434,324.8709,1438.4422,314.7397,1437.3859,304.6085,1438.0269,294.4773,1438.2981,284.3461,1437.2353,274.2149,1437.6119,264.0836,1437.8337,253.9524,1438.3595,243.8212,1437.7035,233.69,1437.7077,233.749,1437.8502,233.2658,1437.3907,232.8965,1437.2063,232.6936,1437.4235,232.1843,1436.9012,231.9222,1436.9755,232.079,1437.0404,231.8394,1436.6483,231.5468,1436.2342,231.3739,1435.8697,231.4777,1435.6198,231.19,1435.2077,230.8907,1435.2077,231.7819,1426.0818,230.6373,1416.9558,231.8074,1407.8298,231.6743,1398.7039,231.19,1389.5779,231.2654,1389.6091,231.351,1389.2304,231.7067,1388.9635,231.8183,1388.5955,231.8279,1388.1853,231.9222,1387.8101,231.9564,1387.8927,232.2592,1387.6236,232.7207,1387.7379,233.0026,1387.4185,233.3585,1387.2775,233.69,1387.0779" style="stroke:#181818;stroke-width:4;"/><text fill="#000000" font-family="Chalkduster" font-size="24" lengthAdjust="spacing" textLength="187.6243" x="241.19" y="1420.9188">International</text></g><!--entity new--><g class="entity" data-entity="new" data-source-line="8" data-uid="ent0012" id="entity_new"><path d="M830.4085,94.8247 L830.4085,94.8247 L830.415,94.9179 L832.9396,94.4651 L835.5019,94.5586 L838.052,94.4742 L840.5616,93.8048 L843.1272,93.9452 L843.1272,93.9452 L843.1248,93.9108 L845.9209,93.557 L848.7294,93.3769 L851.5464,93.3176 L854.3339,92.8421 L857.1628,92.9495 L857.1628,92.9495 L857.2212,93.1885 L859.6813,92.0454 L862.312,91.6002 L864.9635,91.2401 L867.4939,90.3847 L870.088,89.7898 L870.088,89.7898 L870.0902,89.82 L872.8544,89.5701 L875.6288,89.4579 L878.3983,89.2793 L881.1772,89.2274 L883.9254,88.7623 L883.9254,88.7623 L883.9277,89.0606 L886.9485,89.0412 L889.9678,88.8294 L892.9893,88.8992 L896.0109,88.9822 L899.0293,88.6471 L899.0293,88.6471 L899.0203,88.3267 L901.4561,88.8803 L903.8622,88.379 L906.2909,88.6797 L908.6963,88.1544 L911.1209,88.3061 L911.1209,88.3061 L911.1203,88.2757 L914.2527,88.6889 L917.373,88.391 L920.5004,88.5127 L923.6284,88.6696 L926.7521,88.5724 L926.7521,88.5724 L926.7662,88.7569 L929.4894,88.7806 L932.2367,89.1196 L934.9448,88.9486 L937.7114,89.5382 L940.4391,89.6221 L940.4391,89.6221 L940.4411,89.8658 L943.223,89.8428 L946.006,89.9409 L948.7842,89.4769 L951.5659,89.4249 L954.3506,89.7379 L954.3506,89.7379 L954.2819,89.4704 L956.8302,90.3505 L959.3011,90.9292 L961.8842,91.9451 L964.2758,92.2145 L966.7812,92.9277 L966.7812,92.9277 L966.7756,92.7753 L969.413,93.1256 L972.0265,92.8245 L974.657,92.9866 L977.3041,93.6019 L979.9216,93.4102 L979.9216,93.4102 L979.9776,93.5956 L982.5068,92.9711 L984.8621,91.77 L987.4353,91.2911 L989.9611,90.6549 L992.3762,89.652 L992.2145,89.518 L994.0037,91.628 L995.74,93.6941 L997.5803,95.8464 L999.0163,97.6635 L1000.6781,99.6679 L1000.6781,99.6679 L1000.8813,99.6988 L1000.5068,100.1046 L1000.5246,100.57 L1001.1155,101.1227 L1000.6513,101.5148 L1001.0384,102.0364 L1001.0384,102.0364 L1001.2621,102.0696 L1001.5617,104.9682 L1001.7855,107.8556 L1002.1802,110.7683 L1002.9699,113.7396 L1003.2007,116.628 L1003.2007,116.628 L1003.0678,116.6211 L1003.3,119.7724 L1002.6287,122.8766 L1002.9847,126.0344 L1002.7623,129.162 L1002.384,132.2815 L1002.384,132.2815 L1002.4913,132.3 L1002.8662,134.9621 L1003.6252,137.6905 L1004.0372,140.3591 L1004.304,143.0027 L1004.6914,145.667 L1004.6914,145.667 L1004.8104,145.6726 L1004.4864,148.8206 L1004.7151,151.9945 L1004.3186,155.1392 L1004.1793,158.2959 L1003.9555,161.4486 L1003.9555,161.4486 L1003.6851,161.4443 L1003.7244,164.6021 L1004.0894,167.7652 L1003.9936,170.9209 L1003.7325,174.0739 L1003.7007,177.2306 L1003.7007,177.2306 L1003.5589,177.2107 L1003.9949,180.0043 L1004.1799,182.7628 L1005.0551,185.618 L1005.5887,188.4253 L1005.6539,191.167 L1005.7767,191.3661 L1003.4209,192.9079 L1000.8316,194.0714 L998.4887,195.6342 L995.9828,196.9327 L993.6781,198.5574 L993.6781,198.5574 L993.8011,198.5858 L993.8777,198.9845 L994.1029,199.4174 L993.8571,199.7417 L993.9911,200.1536 L994.1421,200.5695 L994.1421,200.5695 L994.1572,200.766 L991.7448,200.6362 L989.2916,199.9731 L986.8858,199.9296 L984.4809,199.8971 L982.0592,199.6463 L982.0592,199.6463 L982.0196,199.3777 L979.1014,200.2411 L976.1144,200.6386 L973.1104,200.9203 L970.1454,201.4666 L967.1555,201.8436 L967.1555,201.8436 L967.1642,202.1673 L964.2881,201.6276 L961.4319,201.8295 L958.5679,201.7395 L955.7022,201.587 L952.8372,201.4586 L952.8372,201.4586 L952.8384,201.5212 L950.4057,201.4592 L947.9665,201.0817 L945.5361,201.1311 L943.103,201.0543 L940.6747,201.2096 L940.6747,201.2096 L940.6796,201.2376 L937.982,201.7167 L935.2881,202.2175 L932.5542,202.4878 L929.8717,203.0542 L927.1774,203.5522 L927.1774,203.5522 L927.1759,203.4988 L924.4374,203.7294 L921.6882,203.5834 L918.9292,203.0991 L916.1871,203.2032 L913.4407,203.1565 L913.4407,203.1565 L913.4251,202.9004 L910.437,203.1011 L907.4341,203.0599 L904.4209,202.8482 L901.3829,202.2302 L898.3832,202.2401 L898.3832,202.2401 L898.3893,202.4462 L895.6747,201.99 L892.9884,202.4888 L890.2831,202.3468 L887.5896,202.6026 L884.8896,202.6395 L884.8896,202.6395 L884.8898,202.7463 L881.9864,202.853 L879.0823,202.3269 L876.1794,202.8618 L873.2758,202.7334 L870.3722,202.6579 L870.3722,202.6579 L870.403,202.8128 L868.0161,202.5029 L865.531,201.6984 L863.1249,201.2914 L860.7074,200.8271 L858.268,200.2531 L858.268,200.2531 L858.2705,200.3408 L855.4848,200.1733 L852.7105,200.4099 L849.9105,199.7438 L847.1422,200.1863 L844.3517,199.8557 L844.3517,199.8557 L844.2947,199.5843 L841.4879,200.2119 L838.7266,201.0556 L835.9111,201.6417 L833.0491,202.0063 L830.2797,202.8119 L830.4236,202.9263 L828.5276,200.5911 L826.9526,198.5111 L825.1419,196.2437 L822.964,193.6843 L821.33,191.5574 L821.33,191.5574 L821.2108,191.4268 L821.7048,191.8923 L822.2636,192.4288 L822.6913,192.8217 L823.0743,193.1657 L823.3976,193.4441 L823.3976,193.4441 L823.2521,193.4004 L822.7342,190.4197 L821.7989,187.3135 L820.5748,184.1204 L819.5589,180.9899 L818.7264,177.9146 L818.7264,177.9146 L818.5512,177.8809 L818.0144,174.684 L817.5496,171.501 L816.8414,168.2712 L816.0706,165.0292 L815.6346,161.8518 L815.6346,161.8518 L815.845,161.9032 L814.692,158.7565 L814.3627,155.8109 L813.5859,152.7561 L812.8177,149.7033 L811.9127,146.6172 L811.9127,146.6172 L812.2113,146.6918 L812.5263,143.7108 L813.2222,140.825 L814.2951,138.0333 L814.5336,135.0332 L815.5105,132.2176 L815.5105,132.2176 L815.4082,132.199 L816.1635,128.9127 L816.7456,125.5949 L817.1614,122.2469 L817.9019,118.9579 L818.5233,115.6473 L818.5233,115.6473 L818.8488,115.7066 L818.2699,112.7534 L817.1887,109.7085 L816.9468,106.8167 L816.1508,103.8239 L815.8385,100.9193 L815.8321,100.9095 L818.4086,99.3777 L820.938,97.7744 L823.1706,95.7219 L825.9298,94.4667 L828.33,92.6679 L828.33,92.6679 L828.3327,92.6705 L828.568,92.928 L829.0107,93.3854 L829.6816,94.0627 L830.0728,94.4704 L830.4085,94.8247" fill="none" style="stroke:#181818;stroke-width:4;"/><text fill="#000000" font-family="Chalkduster" font-size="24" lengthAdjust="spacing" textLength="103.6111" x="828.33" y="123.5088">Novel /</text><text fill="#000000" font-family="Chalkduster" font-size="24" lengthAdjust="spacing" textLength="165.3481" x="828.33" y="154.1386">non-archive</text><text fill="#000000" font-family="Chalkduster" font-size="24" lengthAdjust="spacing" textLength="62.7978" x="828.33" y="184.7684">data</text></g><g class="entity" data-entity="GMN13" data-source-line="10" data-uid="ent0014" id="entity_GMN13"><path d="M513.63,109.9879 L514.1905,109.9879 L512.5251,120.1678 L514.1454,130.3478 L514.6958,140.5278 L511.7276,150.7077 L513.4228,160.8877 L512.4927,171.0676 L513.63,181.2476 L513.63,181.2476 L513.63,180.2249 L523.8123,181.0658 L533.9946,179.4039 L544.1768,182.7239 L554.3591,179.5668 L564.5414,180.7202 L574.7237,182.3994 L584.9059,181.0188 L595.0882,181.4295 L605.2705,181.1624 L615.4528,181.7236 L625.6351,181.8853 L635.8173,182.8094 L645.9996,183.037 L656.1819,183.0589 L666.3642,181.9266 L676.5464,182.4838 L686.7287,183.1202 L696.911,179.3244 L707.0933,183.0569 L717.2756,180.4569 L727.4578,182.6711 L737.6401,179.9275 L747.8224,181.0649 L758.0047,183.2252 L768.1869,181.1176 L778.3692,181.2476 L778.3692,181.2476 L778.4628,181.2476 L778.6702,174.9216 L778.7392,168.5957 L778.3658,162.2698 L778.6245,155.9438 L778.3692,149.6179 L778.3106,149.1125 L785.2945,149.069 L792.2177,148.5019 L799.1032,147.6104 L806.0166,146.9592 L812.85,145.6179 L812.8005,145.1914 L805.887,144.242 L798.994,143.4692 L792.1555,143.1659 L785.2453,142.2444 L778.3692,141.6179 L778.9749,141.6179 L778.214,137.2919 L778.0643,132.9659 L778.5721,128.6399 L777.7765,124.3139 L778.3692,119.9879 L778.0429,119.6616 L776.7771,118.3958 L774.6431,116.2617 L772.8309,114.4496 L770.167,111.7856 L768.3692,109.9879 L768.3692,110.8391 L758.1797,111.5623 L747.9901,108.7281 L737.8005,109.7323 L727.611,110.3239 L717.4214,111.7259 L707.2318,109.9767 L697.0422,111.2214 L686.8527,108.5111 L676.6631,108.1819 L666.4735,111.3309 L656.284,108.0761 L646.0944,111.3451 L635.9048,110.5389 L625.7153,109.2734 L615.5257,109.0445 L605.3361,111.2113 L595.1466,109.1897 L584.957,111.5662 L574.7674,108.5139 L564.5778,111.6344 L554.3883,111.2794 L544.1987,110.6411 L534.0091,110.1138 L523.8196,111.9255 L513.63,109.9879 L513.63,109.9879" fill="none" style="stroke:#181818;stroke-width:4;"/><path d="M768.3692,109.9879 L768.5561,109.9879 L768.0009,111.9879 L768.541,113.9879 L768.7245,115.9879 L767.7351,117.9879 L768.3692,119.9879 L768.3692,119.9188 L770.3692,119.6088 L772.3692,119.647 L774.3692,119.9273 L776.3692,119.3733 L778.3692,119.9879 L778.7172,120.3359 L775.9731,117.5917 L774.2449,115.8636 L772.6407,114.2594 L770.3153,111.934 L768.3692,109.9879" fill="none" style="stroke:#181818;stroke-width:4;"/><text fill="#000000" font-family="Chalkduster" font-size="24" lengthAdjust="spacing" textLength="176.0088" x="519.63" y="138.8288">Unmanaged/</text><text fill="#000000" font-family="Chalkduster" font-size="24" lengthAdjust="spacing" textLength="243.7392" x="519.63" y="169.4586">non-secure assets</text></g><g class="entity" data-entity="GMN16" data-source-line="11" data-uid="ent0017" id="entity_GMN16"><path d="M1043.2,109.9879 L1043.3868,109.9879 L1042.8317,116.3139 L1043.3718,122.6399 L1043.5553,128.9659 L1042.5659,135.2919 L1043.2,141.6179 L1043.1919,141.5493 L1036.3398,142.0414 L1029.5283,142.8793 L1022.7449,143.9577 L1015.8644,144.2075 L1009.12,145.6179 L1009.1774,146.1067 L1015.8707,145.8615 L1022.7315,147.0433 L1029.6128,148.3992 L1036.3751,148.7422 L1043.2,149.6179 L1043.2607,149.6179 L1043.1716,155.9438 L1043.3587,162.2698 L1043.4126,168.5957 L1043.7206,174.9216 L1043.2,181.2476 L1043.2,181.2476 L1043.2,183.037 L1053.0839,183.0589 L1062.9679,181.9266 L1072.8518,182.4838 L1082.7358,183.1202 L1092.6197,179.3244 L1102.5037,183.0569 L1112.3876,180.4569 L1122.2716,182.6711 L1132.1555,179.9275 L1142.0395,181.0649 L1151.9234,183.2252 L1161.8074,181.1176 L1171.6913,181.5284 L1181.5753,182.1506 L1191.4592,182.3575 L1201.3432,181.2371 L1211.2271,182.0135 L1221.1111,179.7211 L1230.995,182.0059 L1240.879,182.7094 L1250.7629,182.433 L1260.6469,182.8823 L1270.5308,179.9593 L1280.4148,179.5084 L1290.2987,179.5905 L1300.1827,181.0905 L1310.0666,180.7235 L1319.9506,183.0647 L1329.8345,180.7818 L1339.7185,180.3328 L1349.6024,181.8563 L1359.4864,179.4693 L1369.3703,179.8632 L1379.2543,182.9781 L1389.1382,182.4093 L1399.0222,183.2062 L1408.9061,180.3894 L1418.7901,181.2476 L1418.7901,181.2476 L1419.6413,181.2476 L1420.3645,171.0376 L1417.5303,160.8277 L1418.5344,150.6177 L1419.126,140.4078 L1420.5281,130.1978 L1418.7901,119.9879 L1418.7874,119.9853 L1417.0808,118.2786 L1414.442,115.6398 L1412.3644,113.5622 L1411.1066,112.3044 L1408.7901,109.9879 L1408.7901,108.0761 L1398.9092,111.3451 L1389.0284,110.5389 L1379.1476,109.2734 L1369.2668,109.0445 L1359.386,111.2113 L1349.5052,109.1897 L1339.6244,111.5662 L1329.7436,108.5139 L1319.8627,111.6344 L1309.9819,111.2794 L1300.1011,110.6411 L1290.2203,110.1138 L1280.3395,111.9255 L1270.4587,111.6241 L1260.5779,110.4392 L1250.6971,110.7031 L1240.8162,109.6405 L1230.9354,111.8984 L1221.0546,110.4009 L1211.1738,110.4481 L1201.293,108.3656 L1191.4122,108.9073 L1181.5314,111.4032 L1171.6506,111.1339 L1161.7697,109.8734 L1151.8889,109.1288 L1142.0081,109.4041 L1132.1273,108.1581 L1122.2465,111.0939 L1112.3657,111.9601 L1102.4849,111.3916 L1092.6041,111.841 L1082.7232,109.6233 L1072.8424,110.2205 L1062.9616,108.9543 L1053.0808,110.7453 L1043.2,109.9879 L1043.2,109.9879" fill="none" style="stroke:#181818;stroke-width:4;"/><path d="M1408.7901,109.9879 L1408.9769,109.9879 L1408.4218,111.9879 L1408.9619,113.9879 L1409.1453,115.9879 L1408.1559,117.9879 L1408.7901,119.9879 L1408.7901,119.9188 L1410.7901,119.6088 L1412.7901,119.647 L1414.7901,119.9273 L1416.7901,119.3733 L1418.7901,119.9879 L1419.138,120.3359 L1416.3939,117.5917 L1414.6658,115.8636 L1413.0616,114.2594 L1410.7361,111.934 L1408.7901,109.9879" fill="none" style="stroke:#181818;stroke-width:4;"/><text fill="#000000" font-family="Chalkduster" font-size="24" lengthAdjust="spacing" textLength="267.8188" x="1049.2" y="138.8288">Newly created data</text><text fill="#000000" font-family="Chalkduster" font-size="24" lengthAdjust="spacing" textLength="354.5901" x="1049.2" y="169.4586">surveys, obeservations etc</text></g><!--link coll to prep--><g class="link" data-entity-1="coll" data-entity-2="prep" data-source-line="17" data-uid="lnk7" id="link_coll_prep"><path d="M860.62,564.3379 L860.6682,564.4179 L858.7894,565.2256 L857.1931,566.5024 L855.5049,567.6265 L853.514,568.2482 L851.942,569.5653 L851.9235,569.5361 L850.0646,570.5304 L848.2989,571.6718 L846.598,572.9154 L844.6738,573.8067 L843.0623,575.1915 L843.1993,575.3959 L841.1132,576.1597 L839.427,577.5203 L837.7895,578.9538 L835.8682,579.9636 L834.0962,581.1962 L834.1138,581.2209 L832.3005,582.4572 L830.5672,583.806 L828.7954,585.1005 L827.0972,586.4986 L825.1588,587.5591 L825.3395,587.7964 L823.583,589.1394 L821.7099,590.3295 L820.0075,591.7436 L818.3131,593.1681 L816.3652,594.2601 L816.1616,594.0125 L814.8499,595.8967 L812.8677,596.9657 L811.3953,598.6545 L809.3979,599.705 L807.8308,601.2787 L807.8105,601.256 L806.4188,602.9873 L804.5523,604.189 L802.9659,605.7031 L801.4031,607.2436 L799.6706,608.5947 L799.8008,608.7262 L798.1353,610.1121 L796.6922,611.7227 L794.8893,612.9698 L793.623,614.7591 L792,616.1879 L792.1826,616.3492 L789.7637,619.0175 L787.4355,621.766 L784.6861,624.1423 L782.2454,626.7914 L780.0783,629.6821 L779.8575,629.5162 L777.9912,632.415 L775.8761,635.1268 L774.1219,638.1099 L771.7516,640.6299 L769.7475,643.4251 L769.6193,643.3425 L767.9975,646.3251 L765.8281,648.9544 L764.0481,651.835 L762.6492,654.9614 L760.5716,657.65 L760.7401,657.7454 L759.1644,660.7988 L757.0645,663.5555 L755.6211,666.6838 L754.0346,669.7312 L752.1149,672.5899" fill="none" style="stroke:#181818;stroke-width:4;"/><polygon fill="#181818" points="749.28,677.8779,749.323,677.9332,750.7508,676.5604,752.4306,675.5119,754.0284,674.3578,755.3563,672.8564,757.0577,671.8358,757.0502,671.811,755.9336,672.0268,754.8546,672.3676,753.802,672.7953,752.6589,672.9235,751.6424,673.4712,751.8191,673.5246,751.1142,672.3274,750.9251,671.286,750.799,670.2636,750.3067,669.1307,750.007,668.0559,750.0297,668.0576,749.851,670.0195,749.7755,671.9891,749.6503,673.955,749.6201,675.9279,749.28,677.8779" style="stroke:#181818;stroke-width:4;"/><text fill="#000000" font-family="Chalkduster" font-size="24" lengthAdjust="spacing" textLength="109.8166" x="793" y="641.0288">Describe</text></g><!--link prep to dep--><g class="link" data-entity-1="prep" data-entity-2="dep" data-source-line="18" data-uid="lnk8" id="link_prep_dep"><path d="M736.18,775.8379 L736.4552,775.8907 L737.4672,785.2702 L740.0927,794.9593 L742.1927,804.5476 L742.565,813.8043 L745.2271,823.5005 L746.6002,832.9492 L748.4863,842.4965 L750.729,852.1121 L752.648,861.6656" fill="none" style="stroke:#181818;stroke-width:4;"/><polygon fill="#181818" points="753.78,867.5579,753.8482,867.5738,754.0915,865.608,754.7348,863.7353,755.2479,861.8322,755.3325,859.8296,756.0102,857.9649,755.9887,857.9503,755.2578,858.8217,754.6349,859.7663,754.0873,860.7618,753.2806,861.5818,752.8367,862.6477,752.9402,862.8005,751.7822,861.8391,750.9266,861.3237,750.1077,860.8628,749.0744,860.0852,748.1538,859.4742,748.1725,859.4872,749.2703,861.0848,750.4531,862.7417,751.595,864.3699,752.815,866.0527,753.78,867.5579" style="stroke:#181818;stroke-width:4;"/><text fill="#000000" font-family="Chalkduster" font-size="24" lengthAdjust="spacing" textLength="231.6199" x="748.16" y="830.6588">Publish / Deposit</text></g><!--link prep to an--><g class="link" data-entity-1="prep" data-entity-2="an" data-source-line="19" data-uid="lnk9" id="link_prep_an"><path d="M779.03,727.0079 L779.03,727.2881 L789.6543,726.4555 L800.2786,727.2656 L810.9029,727.5408 L821.5271,726.0567 L832.1514,726.9043 L842.7757,726.4392 L853.4,727.0079" fill="none" style="stroke:#181818;stroke-width:4;"/><polygon fill="#181818" points="859.4,727.0079,859.4285,727.0719,857.5439,726.0817,855.8262,725.4668,854.0541,724.7296,852.1034,723.5906,850.4,723.0079,850.3817,722.9896,851.0995,723.7074,851.9096,724.5175,852.7839,725.3918,853.437,726.0449,854.4,727.0079,854.5305,727.1384,853.4514,727.6593,852.7534,728.5613,852.1018,729.5097,851.1798,730.1877,850.4,731.0079,850.4092,731.0287,852.1957,730.1982,854.0242,729.4623,855.8324,728.6807,857.6793,727.9863,859.4,727.0079" style="stroke:#181818;stroke-width:4;"/><text fill="#000000" font-family="Chalkduster" font-size="24" lengthAdjust="spacing" textLength="44.1017" x="797.18" y="716.8488">Use</text></g><!--reverse link coll to an--><g class="link" data-entity-1="coll" data-entity-2="an" data-source-line="20" data-uid="lnk11" id="link_coll_an"><path d="M911.282,592.2078 L911.5622,592.2093 L910.7805,601.7293 L911.6415,611.2581 L911.9676,620.784 L910.5344,630.3005 L911.4328,639.8295 L911.0187,649.3515 L911.1269,658.8763 L911.5982,668.403 L911.74,677.9279" fill="none" style="stroke:#181818;stroke-width:4;"/><polygon fill="#181818" points="911.25,586.2079,911.3142,586.236,910.3331,587.9567,909.7282,589.8422,909.0009,591.6741,907.8706,593.3294,907.2981,595.2291,907.2797,595.2109,907.9927,594.3249,908.7986,593.5307,909.6691,592.8004,910.3171,591.85,911.2767,591.2078,911.4065,591.339,911.9332,591.8542,912.8388,592.7524,913.7907,593.6973,914.4736,594.3704,915.298,595.1864,915.3187,595.1958,914.4787,593.3863,913.733,591.6195,912.9418,589.8321,912.2376,588.0838,911.25,586.2079" style="stroke:#181818;stroke-width:4;"/><text fill="#000000" font-family="Chalkduster" font-size="24" lengthAdjust="spacing" textLength="51.5271" x="912.56" y="641.0288">New</text></g><!--reverse link new to coll--><g class="link" data-entity-1="new" data-entity-2="coll" data-source-line="28" data-uid="lnk27" id="link_new_coll"><path d="M911,212.6579 L911.2802,212.6579 L910.4476,222.5008 L911.2577,232.3436 L911.5329,242.1865 L910.0488,252.0293 L910.8964,261.8722 L910.4313,271.715 L910.4887,281.5579 L910.9091,291.4008 L910.0782,301.2436 L911.7382,311.0865 L910.1596,320.9293 L910.7363,330.7722 L911.5759,340.615 L910.8856,350.4579 L911.091,360.3008 L910.9574,370.1436 L911.238,379.9865 L911.3188,389.8293 L911.7809,399.6722 L911.8947,409.515 L911.9057,419.3579 L911.3395,429.2008 L911.6181,439.0436 L911.9363,448.8865 L910.0384,458.7293 L911.9047,468.5722 L910.6047,478.415 L911,488.2579" fill="none" style="stroke:#181818;stroke-width:4;"/><polygon fill="#181818" points="911,206.6579,911.064,206.6863,910.0738,208.4018,909.4589,210.2841,908.7217,212.112,907.5827,213.7613,907,215.6579,906.9817,215.6396,907.6995,214.7574,908.5096,213.9675,909.3839,213.2418,910.037,212.2949,911,211.6579,911.1305,211.7884,911.6514,212.3093,912.5534,213.2113,913.5018,214.1597,914.1798,214.8377,915,215.6579,915.0208,215.6671,914.1903,213.8536,913.4544,212.0821,912.6728,210.2903,911.9784,208.5372,911,206.6579" style="stroke:#181818;stroke-width:4;"/><text fill="#000000" font-family="Chalkduster" font-size="24" lengthAdjust="spacing" textLength="321.7326" x="912" y="323.3988">Find / Discover / Elict</text></g><!--link coll to repo--><g class="link" data-entity-1="coll" data-entity-2="repo" data-source-line="29" data-uid="lnk29" id="link_coll_repo"><path d="M956.26,586.3879 L956.3339,586.445 L958.2906,589.0922 L960.6806,592.0741 L962.9295,594.9471 L964.7143,597.4615 L967.1415,600.4722 L967.1132,600.4524 L969.1389,603.4409 L971.3072,606.5293 L973.5747,609.687 L975.5004,612.6056 L977.9048,615.8591 L978.114,615.9887 L979.7136,619.0155 L981.9239,622.4206 L984.2086,625.8719 L986.0599,629.0546 L988.1392,632.3786 L988.1659,632.3928 L989.9855,635.8683 L991.9271,639.4086 L993.8098,642.9176 L995.8047,646.4862 L997.4337,649.8604 L997.7073,649.9793 L999.2994,653.6356 L1000.7152,657.2151 L1002.3892,660.9069 L1004.0753,664.604 L1005.3779,668.1344 L1005.0732,668.0347 L1006.9011,672.0074 L1007.7258,675.6518 L1009.3131,679.5458 L1010.1151,683.1828 L1011.5608,687.0304 L1011.531,687.0242 L1012.6857,690.9669 L1013.144,694.7652 L1014.0132,698.6486 L1014.9169,702.5393 L1015.5717,706.3783 L1015.7562,706.3917 L1015.8557,710.3041 L1016.2704,714.2394 L1016.175,718.1376 L1016.8404,722.0911 L1017,726.0079 L1017.7309,726.0079 L1017.5927,735.9904 L1017.8174,745.9729 L1016.3559,755.9554 L1016.1304,765.9379 L1016.1715,775.9204 L1016.9215,785.9029 L1016.738,795.8854 L1017.9085,805.8679 L1016.7671,815.8504 L1016.5426,825.8329 L1017.3044,835.8154 L1016.1109,845.7979 L1016.3078,855.7804 L1017.8653,865.7629 L1017.5809,875.7454 L1017.9793,885.7279 L1016.5709,895.7104 L1017.4256,905.6929 L1017.7872,915.6754 L1016.3701,925.6579 L1016.8722,935.6404 L1017.168,945.6229 L1017.869,955.6054 L1016.9944,965.5879 L1017.6168,975.5704 L1016.2616,985.5529 L1016.097,995.5354 L1017.6715,1005.5179 L1016.0441,1015.5004 L1017.6786,1025.4829 L1017.2755,1035.4654 L1017,1045.4479 L1016.881,1045.4447 L1016.7817,1047.7205 L1017.0815,1050.007 L1016.6835,1052.2747 L1017.0183,1054.5622 L1016.6941,1056.8319 L1016.4492,1056.8127 L1016.7893,1059.1343 L1016.5519,1061.4107 L1016.2675,1063.6835 L1016.0015,1065.9577 L1015.8021,1068.237 L1016.1225,1068.2775 L1015.7847,1070.5516 L1015.3009,1072.8073 L1015.0566,1075.0932 L1014.5929,1077.3514 L1014.3624,1079.6391 L1014.6763,1079.6928 L1014.0405,1081.9256 L1013.6584,1084.2018 L1012.9266,1086.4181 L1012.6257,1088.7083 L1012.4135,1091.0136 L1012.6441,1091.0629 L1012.1163,1093.3181 L1011.4269,1095.5387 L1010.8215,1097.7774 L1010.3824,1100.0515 L1009.9936,1102.3364 L1009.698,1102.2614 L1009.6018,1104.6311 L1009.1713,1106.9159 L1008.5091,1109.142 L1008.0112,1111.4097 L1007.1414,1113.5831 L1007.083,1113.5662 L1006.5293,1115.8233 L1005.6775,1117.9935 L1005.3148,1120.3063 L1004.6497,1122.5309 L1003.8951,1124.7295 L1004.1285,1124.8058 L1003.0777,1126.9021 L1002.3976,1129.1196 L1001.9214,1131.4037 L1001.2533,1133.6252 L1000.2933,1135.7512 L1000.079,1135.6739 L999.4284,1137.8965 L998.7881,1140.1227 L997.6865,1142.1827 L997.3058,1144.5026 L996.3743,1146.6239 L996.481,1146.6657 L995.4931,1148.7474 L994.7541,1150.9267 L994.1571,1153.1618 L992.8867,1155.1326 L992.1766,1157.3232 L992.3055,1157.3777 L991.4059,1159.473 L990.4488,1161.544 L989.5715,1163.6487 L988.6726,1165.7443 L987.7386,1167.825 L987.4857,1167.7109 L986.6482,1169.8077 L985.6956,1171.8526 L984.9805,1174.0046 L984.0623,1176.065 L983.0987,1178.1049 L983.1635,1178.1359 L982.0213,1180.0558 L981.1502,1182.1054 L980.1684,1184.102 L979.4872,1186.2425 L978.2953,1188.1386 L978.4645,1188.224 L977.117,1189.9939 L976.295,1192.0292 L975.1092,1193.8808 L974.467,1196.0068 L973.3669,1197.9017 L973.6059,1198.0283 L972.5778,1199.9086 L971.1898,1201.5984 L970.5401,1203.6792 L969.0632,1205.3218 L968.3519,1207.37 L968.4298,1207.4131 L967.2229,1209.1354 L966.3643,1211.0505 L965.4075,1212.9112 L964.485,1214.7909 L963.2887,1216.5191 L963.0128,1216.3572 L961.4476,1220.0748 L959.3102,1223.4567 L957.3546,1226.9453 L955.4817,1230.4823 L953.1716,1233.7628 L953.1736,1233.7641 L951.2678,1236.9393 L949.3124,1240.0834 L947.3365,1243.2147 L945.2922,1246.303 L943.3228,1249.4382 L943.5856,1249.6134 L941.2426,1252.0705 L939.8226,1255.1427 L937.5282,1257.632 L935.7045,1260.4352 L934.0497,1263.3509 L934.0643,1263.3612 L932.382,1265.7493 L930.5145,1268.0073 L929.1663,1270.6299 L927.3774,1272.9432 L925.6598,1275.3065 L925.9202,1275.4976 L924.459,1277.4428 L922.6195,1279.1101 L921.1977,1281.0842 L919.8541,1283.1157 L918.4605,1285.1104 L918.5865,1285.2058 L917.9919,1286.0255 L917.3444,1286.805 L916.5051,1287.4392 L916.2403,1288.5087 L915.4034,1289.1448 L915.6269,1289.3162 L916.0464,1288.2722 L916.6384,1287.3606 L917.2408,1286.457 L917.9663,1285.6478 L918.7017,1284.8462" fill="none" style="stroke:#181818;stroke-width:4;"/><polygon fill="#181818" points="915.0495,1289.6066,915.083,1289.6681,916.7139,1288.5441,918.541,1287.7808,920.3043,1286.9001,921.8574,1285.633,923.7014,1284.9007,923.698,1284.875,922.5611,1284.9075,921.4413,1285.0695,920.3334,1285.3215,919.1845,1285.2633,918.093,1285.6396,918.2759,1285.6637,917.7369,1284.4904,917.7321,1283.3876,917.7924,1282.2933,917.4735,1281.1491,917.3541,1280.0312,917.3762,1280.0365,916.8828,1281.9438,916.4901,1283.8753,916.0488,1285.7951,915.7002,1287.7372,915.0495,1289.6066" style="stroke:#181818;stroke-width:4;"/><text fill="#000000" font-family="Chalkduster" font-size="24" lengthAdjust="spacing" textLength="77.0387" x="1018" y="925.4788">Reuse</text></g><!--link dep to repo--><g class="link" data-entity-1="dep" data-entity-2="repo" data-source-line="30" data-uid="lnk30" id="link_dep_repo"><path d="M793.44,950.5379 L793.5113,950.5982 L795.6493,953.1959 L798.2054,956.1472 L800.6253,958.9834 L802.5975,961.4408 L805.1895,964.4225 L805.1625,964.4009 L807.5682,967.4516 L810.1098,970.6114 L812.7457,973.8469 L815.0563,976.8212 L817.8225,980.1613 L818.0177,980.3111 L818.9029,981.688 L820.358,983.5023 L821.8826,985.3699 L823.0026,986.927 L824.3355,988.6474 L824.3598,988.6655 L825.6384,990.41 L827.028,992.2369 L828.364,994.024 L829.8021,995.8868 L830.9074,997.5028 L831.15,997.6763 L832.4683,999.5171 L833.6303,1001.2459 L835.0212,1003.1385 L836.4229,1005.0389 L837.4844,1006.6959 L837.2203,1006.5144 L839.0386,1008.7666 L839.987,1010.4211 L841.5968,1012.53 L842.5256,1014.1709 L844.0125,1016.1954 L843.9871,1016.1787 L845.573,1018.3313 L846.5645,1020.0933 L847.9067,1022.0857 L849.2784,1024.0976 L850.4377,1025.9698 L850.5945,1026.0679 L851.6899,1027.9725 L853.0532,1030.0447 L853.983,1031.8456 L855.5595,1034.0512 L856.706,1035.9877 L856.9157,1036.1118 L858.0875,1038.1344 L859.3635,1040.2185 L860.1558,1042.0163 L861.3026,1044.024 L862.7635,1046.2176 L862.5222,1046.0834 L863.8992,1048.287 L865.0043,1050.3394 L866.5038,1052.6112 L867.3299,1054.5083 L868.5563,1056.6282 L868.4209,1056.558 L869.7411,1058.7868 L870.4827,1060.7157 L871.6358,1062.8579 L873.1915,1065.2087 L874.0302,1067.1879 L874.2049,1067.2714 L875.345,1069.4642 L875.9417,1071.3973 L877.219,1073.6556 L878.348,1075.8431 L879.1315,1077.8654 L878.9389,1077.7818 L880.0273,1080.0012 L881.0527,1082.1933 L882.2019,1084.4391 L882.8694,1086.4757 L883.8061,1088.6292 L883.9978,1088.7035 L884.4154,1090.704 L885.203,1092.8479 L886.5311,1095.2013 L886.8641,1097.169 L888,1099.4479 L888.2138,1099.5218 L888.7843,1101.4951 L889.2825,1103.4433 L889.944,1105.448 L890.9828,1107.5832 L891.4876,1109.5338" fill="none" style="stroke:#181818;stroke-width:4;"/><polygon fill="#181818" points="893.171,1115.2928,893.2404,1115.3022,893.297,1113.3222,893.7605,1111.3971,894.0916,1109.4541,893.9867,1107.4525,894.4853,1105.532,894.4625,1105.5196,893.8172,1106.4561,893.2863,1107.4553,892.8351,1108.4981,892.1095,1109.3906,891.7682,1110.4936,891.8568,1110.6555,890.6749,1109.7659,889.7519,1109.349,888.8604,1108.9897,887.7852,1108.2949,886.8066,1107.7765,886.8239,1107.7912,888.0713,1109.2729,889.3977,1110.8215,890.686,1112.3378,892.0471,1113.9157,893.171,1115.2928" style="stroke:#181818;stroke-width:4;"/><text fill="#000000" font-family="Chalkduster" font-size="24" lengthAdjust="spacing" textLength="96.2652" x="871.31" y="1053.2888">Deposit</text></g><!--SRC=[PL5DQoin3BpxLwXxhfDx2850-WLjAItl5YXUMqaCYhpOygPBUV-zsgJljMbziaSpmtXq4TbJ3VYwTpp0P38DJfmbrzeY0-54tiHSd77sAI1PvoNsKIAMILVtP8n48Pp1xVBb1PwneCj-1oirqzS6Cx97U1YbHe-dL0CqZwb7WkcQER4T1R77DOy96d0560zW32T18Dm8fCq8pU0FQn2tnV2fBEXhHbKKb7BYvxZTVGaUyK03-8nECC3el-PISuz3kOJKQjhSEuc92w3uCQ0vibfN49hbCPWZ_KYNIfIKzTV7W5a1cC_pFtnOBE3TAEp5yPPKUn_Rx8xyC_XdGTzzrK3FD_8T5ostZlaSDJ-dgrXyx2Wo_XezrPPYsM5kVbiAPdR_BV-UfRkvNpx0RQ8GUQl1TQngNOIkOsvjI0Us5dmYWXbSHmumXJ65BZFhzOgY5tEgnjhQVN6ViHOq0JluT5cS6fp1wjI0-G00]--></g></svg>