<svg xmlns="http://www.w3.org/2000/svg" xmlns:xlink="http://www.w3.org/1999/xlink" contentStyleType="text/css" data-diagram-type="DESCRIPTION" height="1126px" preserveAspectRatio="none" style="width:1036px;height:1126px;background:#FFFFFF;" version="1.1" viewBox="0 0 1036 1126" width="1036px" zoomAndPan="magnify"><title>Activities in Infrastructure Context (2)</title><defs/><g><text fill="#000000" font-family="Chalkduster" font-size="42" font-weight="bold" lengthAdjust="spacing" textLength="942.2386" x="39.8807" y="51.7215">Activities in Infrastructure Context (2)</text><!--cluster activities--><g class="cluster" data-entity="activities" data-source-line="7" data-uid="ent0002" id="cluster_activities"><polygon fill="#FFC7D8" points="9.5,119.7922,9.5,120.0024,19.4286,119.3779,29.3571,119.9855,39.2857,120.1919,49.2143,119.0788,59.1429,119.7145,69.0714,119.3657,79,119.4087,88.9286,119.7241,98.8571,119.1008,108.7857,120.3459,118.7143,119.1619,128.6429,119.5944,138.5714,120.2242,148.5,119.7064,158.4286,119.8604,168.3571,119.7603,178.2857,119.9707,188.2143,120.0313,198.1429,120.3779,208.0714,120.4633,218,120.4715,227.9286,120.0468,237.8571,120.2558,247.7857,120.4944,257.7143,119.071,267.6429,120.4707,277.5714,119.4957,287.5,120.326,297.4286,119.2972,307.3571,119.7237,317.2857,120.5338,327.2143,119.7435,337.1429,119.8975,347.0714,120.1308,357,120.2084,366.9286,119.7883,376.8571,120.0794,386.7857,119.2198,396.7143,120.0766,406.6429,120.3404,416.5714,120.2367,426.5,120.4052,436.4286,119.3091,446.3571,119.14,456.2857,119.1708,466.2143,119.7333,476.1429,119.5957,486.0714,120.4736,496,119.6175,505.9286,119.4492,515.8571,120.0205,525.7857,119.1254,535.7143,119.2731,545.6429,120.4412,555.5714,120.2279,565.5,119.7922,565.5937,120.0184,565.8125,119.8396,566.2478,120.1834,566.636,120.4134,566.854,120.2325,567.2678,120.5244,567.2382,120.5122,567.453,120.8941,567.7614,121.3147,567.7058,121.5846,567.996,121.9977,568,122.2922,567.4462,122.2922,567.3227,132.2139,568.5036,142.1356,567.2831,152.0574,568.509,161.9791,568.2066,171.9008,567.7321,181.8225,567.6462,191.7442,568.4588,201.6659,567.7007,211.5876,568.5919,221.5094,567.4473,231.4311,568.6174,241.3528,568.4843,251.2745,568.245,261.1962,568.0472,271.1179,568.7266,281.0396,568.6136,290.9614,568.1693,300.8831,568.2682,310.8048,567.8697,320.7265,568.7165,330.6482,568.1549,340.5699,568.1726,350.4916,567.3916,360.4134,567.5948,370.3351,568.5307,380.2568,568.4298,390.1785,567.9571,400.1002,567.6778,410.0219,567.7811,419.9436,567.3138,429.8654,568.4147,439.7871,568.7396,449.7088,568.5264,459.6305,568,469.5522,568.214,469.6409,567.8114,469.8883,567.734,470.2704,567.4413,470.5634,567.5017,471.0027,567.2678,471.32,567.2992,471.396,566.9847,471.6365,566.5314,471.5421,566.19,471.7179,565.9101,472.0423,565.5,472.0522,565.5,472.6195,555.5714,471.5397,545.6429,471.8583,535.7143,472.2015,525.7857,471.4414,515.8571,472.4056,505.9286,472.3102,496,471.9515,486.0714,472.1945,476.1429,472.7809,466.2143,471.7393,456.2857,472.3672,446.3571,472.3379,436.4286,472.168,426.5,472.1931,416.5714,472.1657,406.6429,471.4281,396.7143,471.6514,386.7857,471.5907,376.8571,472.116,366.9286,472.1403,357,472.214,347.0714,471.7612,337.1429,471.9847,327.2143,471.932,317.2857,472.6291,307.3571,472.4788,297.4286,471.5667,287.5,471.9793,277.5714,471.475,267.6429,472.3406,257.7143,472.6607,247.7857,472.5968,237.8571,471.6167,227.9286,472.5162,218,471.3094,208.0714,472.2524,198.1429,471.7529,188.2143,472.1489,178.2857,472.2925,168.3571,472.5243,158.4286,471.3323,148.5,472.5277,138.5714,472.2304,128.6429,472.4075,118.7143,472.8,108.7857,472.0577,98.8571,472.2275,88.9286,472.2657,79,472.2494,69.0714,472.0514,59.1429,472.7629,49.2143,471.4425,39.2857,472.6175,29.3571,471.4282,19.4286,471.5119,9.5,472.0522,9.5051,472.0645,9.1501,471.9145,8.73,471.6075,8.4921,471.7403,8.0997,471.4999,7.7322,471.32,7.956,471.4127,7.7912,471.0515,7.3013,470.5557,7.1703,470.2086,7.1067,469.8893,7,469.5522,7.3555,469.5522,7.403,459.6305,7.3012,449.7088,6.658,439.7871,7.6364,429.8654,7.6338,419.9436,6.9527,410.0219,6.7609,400.1002,6.5986,390.1785,6.7854,380.2568,7.1374,370.3351,6.9316,360.4134,6.5822,350.4916,7.4874,340.5699,6.5411,330.6482,7.5024,320.7265,7.4272,310.8048,7.3719,300.8831,7.6925,290.9614,6.7541,281.0396,6.6994,271.1179,7.5189,261.1962,6.4031,251.2745,6.766,241.3528,7.1155,231.4311,7.0687,221.5094,6.6415,211.5876,6.957,201.6659,7.7446,191.7442,7.6485,181.8225,6.4037,171.9008,7.0785,161.9791,6.4861,152.0574,6.9737,142.1356,7.293,132.2139,7,122.2922,7.1293,122.3458,6.9417,121.8539,7.4162,121.6362,7.4419,121.2326,7.4148,120.8072,7.7322,120.5244,7.6721,120.3794,8.1274,120.4786,8.4712,120.3085,8.7908,120.08,9.0607,119.7317,9.5,119.7922" style="stroke:#181818;stroke-width:4;"/><text fill="#000000" font-family="Chalkduster" font-size="24" font-style="italic" lengthAdjust="spacing" textLength="174.126" x="200.437" y="145.6331">&#171;workspace&#187;</text><text fill="#000000" font-family="Chalkduster" font-size="24" font-weight="bold" lengthAdjust="spacing" textLength="545.1314" x="14.9343" y="176.2629">Research &amp; Data Management Activities</text></g><!--cluster infrastructure--><g class="cluster" data-entity="infrastructure" data-source-line="9" data-uid="ent0011" id="cluster_infrastructure"><polygon fill="none" points="412.5,629.0522,412.5,629.2624,422.4194,628.6379,432.3387,629.2455,442.2581,629.4519,452.1774,628.3388,462.0968,628.9745,472.0161,628.6257,481.9355,628.6687,491.8548,628.9841,501.7742,628.3608,511.6935,629.6059,521.6129,628.4219,531.5323,628.8544,541.4516,629.4842,551.371,628.9664,561.2903,629.1204,571.2097,629.0203,581.129,629.2307,591.0484,629.2913,600.9677,629.6379,610.8871,629.7233,620.8065,629.7315,630.7258,629.3068,640.6452,629.5158,650.5645,629.7544,660.4839,628.331,670.4032,629.7307,680.3226,628.7557,690.2419,629.586,700.1613,628.5572,710.0806,628.9837,720,629.7938,729.9194,629.0035,739.8387,629.1575,749.7581,629.3908,759.6774,629.4684,769.5968,629.0483,779.5161,629.3394,789.4355,628.4798,799.3548,629.3366,809.2742,629.6004,819.1935,629.4967,829.1129,629.6652,839.0323,628.5691,848.9516,628.4,858.871,628.4308,868.7903,628.9933,878.7097,628.8557,888.629,629.7336,898.5484,628.8775,908.4677,628.7092,918.3871,629.2805,928.3065,628.3854,938.2258,628.5331,948.1452,629.7012,958.0645,629.4879,967.9839,629.7867,977.9032,628.7304,987.8226,629.3714,997.7419,629.6426,1007.6613,628.5798,1017.5806,628.9564,1027.5,629.0522,1027.5161,629.091,1027.9367,629.3994,1028.2066,629.3438,1028.6197,629.634,1028.8436,629.4675,1029.2678,629.7844,1029.0592,629.6981,1029.5693,630.2022,1029.3399,630.4001,1029.8638,630.91,1029.9172,631.225,1030,631.5522,1029.7321,631.5522,1029.6462,641.4714,1030.4588,651.3906,1029.7007,661.3098,1030.5919,671.2289,1029.4473,681.1481,1030.6174,691.0673,1030.4843,700.9865,1030.245,710.9057,1030.0472,720.8249,1030.7266,730.744,1030.6136,740.6632,1030.1693,750.5824,1030.2682,760.5016,1029.8697,770.4208,1030.7165,780.34,1030.1549,790.2591,1030.1726,800.1783,1029.3916,810.0975,1029.5948,820.0167,1030.5307,829.9359,1030.4298,839.8551,1029.9571,849.7743,1029.6778,859.6934,1029.7811,869.6126,1029.3138,879.5318,1030.4147,889.451,1030.7396,899.3702,1030.5264,909.2894,1030.6949,919.2085,1029.8633,929.1277,1030.0872,939.0469,1029.6124,948.9661,1030.284,958.8853,1030.2468,968.8045,1030.5524,978.7236,1029.7703,988.6428,1029.8656,998.562,1030.4435,1008.4812,1030.5673,1018.4004,1029.4875,1028.3196,1029.8061,1038.2387,1030.1493,1048.1579,1029.3892,1058.0771,1030.3534,1067.9963,1030.258,1077.9155,1029.8992,1087.8347,1030.1422,1097.7538,1030.7287,1107.673,1030,1117.5922,1029.9036,1117.5523,1029.9506,1117.9859,1029.7951,1118.3358,1029.5963,1118.6676,1029.4576,1119.0244,1029.2678,1119.36,1029.2822,1119.3949,1028.8346,1119.3142,1028.5095,1119.5294,1028.1482,1119.6572,1027.8617,1119.9654,1027.5,1120.0922,1027.5,1120.1803,1017.5806,1120.254,1007.6613,1119.8012,997.7419,1120.0247,987.8226,1119.972,977.9032,1120.6691,967.9839,1120.5188,958.0645,1119.6067,948.1452,1120.0193,938.2258,1119.515,928.3065,1120.3806,918.3871,1120.7007,908.4677,1120.6368,898.5484,1119.6567,888.629,1120.5562,878.7097,1119.3494,868.7903,1120.2924,858.871,1119.7929,848.9516,1120.1889,839.0323,1120.3325,829.1129,1120.5643,819.1935,1119.3723,809.2742,1120.5677,799.3548,1120.2704,789.4355,1120.4475,779.5161,1120.84,769.5968,1120.0977,759.6774,1120.2675,749.7581,1120.3057,739.8387,1120.2894,729.9194,1120.0914,720,1120.8029,710.0806,1119.4825,700.1613,1120.6575,690.2419,1119.4682,680.3226,1119.5519,670.4032,1120.1322,660.4839,1120.1205,650.5645,1119.5994,640.6452,1120.5059,630.7258,1120.2011,620.8065,1120.8189,610.8871,1120.7593,600.9677,1119.644,591.0484,1119.6943,581.129,1119.963,571.2097,1120.4477,561.2903,1120.4952,551.371,1120.3934,541.4516,1119.7503,531.5323,1120.7286,521.6129,1120.726,511.6935,1120.0449,501.7742,1119.8532,491.8548,1119.6908,481.9355,1119.8776,472.0161,1120.2296,462.0968,1120.0238,452.1774,1119.6744,442.2581,1120.5796,432.3387,1119.6333,422.4194,1120.5946,412.5,1120.0922,412.5545,1120.2238,412.1939,1120.0603,411.8812,1120.0126,411.408,1119.5771,411.0474,1119.4138,410.7322,1119.36,410.892,1119.4262,410.402,1118.9303,410.3673,1118.623,410.3285,1118.3141,410.1676,1117.9545,410,1117.5922,409.6415,1117.5922,409.957,1107.673,410.7446,1097.7538,410.6485,1087.8347,409.4037,1077.9155,410.0785,1067.9963,409.4861,1058.0771,409.9737,1048.1579,410.293,1038.2387,410.4199,1028.3196,409.3353,1018.4004,410.4005,1008.4812,410.0084,998.562,409.4447,988.6428,409.5289,978.7236,410.3266,968.8045,410.2499,958.8853,409.9836,948.9661,409.3279,939.0469,410.6581,929.1277,409.6882,919.2085,409.4719,909.2894,409.9327,899.3702,410.5897,889.451,410.6154,879.5318,410.0351,869.6126,409.8488,859.6934,410.1698,849.7743,410.1862,839.8551,409.4922,829.9359,410.414,820.0167,410.5588,810.0975,409.7842,800.1783,409.5708,790.2591,410.6746,780.34,410.021,770.4208,409.9998,760.5016,410.299,750.5824,409.3543,740.6632,410.53,730.744,409.9846,720.8249,410.6688,710.9057,409.7841,700.9865,410.409,691.0673,409.556,681.1481,410.245,671.2289,410.3793,661.3098,409.6727,651.3906,410.363,641.4714,410,631.5522,409.824,631.4793,410.0016,631.1386,410.5032,630.9322,410.6501,630.5789,410.7609,630.2105,410.7322,629.7844,410.6863,629.6735,411.1348,629.7563,411.3791,629.3462,411.8003,629.363,412.1463,629.1983,412.5,629.0522" style="stroke:#181818;stroke-width:4;"/><text fill="#000000" font-family="Chalkduster" font-size="24" font-weight="bold" lengthAdjust="spacing" textLength="295.9823" x="572.0089" y="654.8931">Storage Infrastucture</text></g><!--cluster Access and authentication services--><g class="cluster" data-entity="Access and authentication services" data-source-line="11" data-uid="ent0012" id="cluster_Access and authentication services"><polygon fill="none" points="436.5,686.0522,436.5,686.2624,446.4474,685.6379,456.3947,686.2455,466.3421,686.4519,476.2895,685.3388,486.2368,685.9745,496.1842,685.6257,506.1316,685.6687,516.0789,685.9841,526.0263,685.3608,535.9737,686.6059,545.9211,685.4219,555.8684,685.8544,565.8158,686.4842,575.7632,685.9664,585.7105,686.1204,595.6579,686.0203,605.6053,686.2307,615.5526,686.2913,625.5,686.6379,635.4474,686.7233,645.3947,686.7315,655.3421,686.3068,665.2895,686.5158,675.2368,686.7544,685.1842,685.331,695.1316,686.7307,705.0789,685.7557,715.0263,686.586,724.9737,685.5572,734.9211,685.9837,744.8684,686.7938,754.8158,686.0035,764.7632,686.1575,774.7105,686.3908,784.6579,686.4684,794.6053,686.0483,804.5526,686.3394,814.5,685.4798,824.4474,686.3366,834.3947,686.6004,844.3421,686.4967,854.2895,686.6652,864.2368,685.5691,874.1842,685.4,884.1316,685.4308,894.0789,685.9933,904.0263,685.8557,913.9737,686.7336,923.9211,685.8775,933.8684,685.7092,943.8158,686.2805,953.7632,685.3854,963.7105,685.5331,973.6579,686.7012,983.6053,686.4879,993.5526,686.7867,1003.5,686.0522,1003.459,685.9531,1003.8943,686.297,1004.2824,686.5269,1004.5004,686.3461,1004.902,686.6085,1005.2678,686.7844,1005.3066,686.8005,1005.6149,687.2211,1005.5594,687.491,1005.8496,687.9041,1005.683,688.128,1006,688.5522,1005.3227,688.5522,1006.5036,698.4312,1005.2831,708.3103,1006.509,718.1893,1006.2066,728.0683,1005.7321,737.9473,1005.6462,747.8264,1006.4588,757.7054,1005.7007,767.5844,1006.5919,777.4634,1005.4473,787.3425,1006.6174,797.2215,1006.4843,807.1005,1006.245,816.9795,1006.0472,826.8586,1006.7266,836.7376,1006.6136,846.6166,1006.1693,856.4956,1006.2682,866.3747,1005.8697,876.2537,1006.7165,886.1327,1006.1549,896.0117,1006.1726,905.8907,1005.3916,915.7698,1005.5948,925.6488,1006.5307,935.5278,1006.4298,945.4068,1005.9571,955.2859,1005.6778,965.1649,1005.7811,975.0439,1005.3138,984.9229,1006.4147,994.802,1006.7396,1004.681,1006.5264,1014.56,1006.6949,1024.439,1005.8633,1034.3181,1006.0872,1044.1971,1005.6124,1054.0761,1006.284,1063.9551,1006.2468,1073.8342,1006.5524,1083.7132,1006,1093.5922,1005.9293,1093.5629,1005.8122,1093.9286,1005.8437,1094.3559,1005.7354,1094.7252,1005.2564,1094.941,1005.2678,1095.36,1005.243,1095.3003,1004.9333,1095.5524,1004.4827,1095.4648,1004.2522,1095.9081,1003.8865,1096.0252,1003.5,1096.0922,1003.5,1095.9915,993.5526,1096.2345,983.6053,1096.8209,973.6579,1095.7793,963.7105,1096.4072,953.7632,1096.3779,943.8158,1096.208,933.8684,1096.2331,923.9211,1096.2057,913.9737,1095.4681,904.0263,1095.6914,894.0789,1095.6307,884.1316,1096.156,874.1842,1096.1803,864.2368,1096.254,854.2895,1095.8012,844.3421,1096.0247,834.3947,1095.972,824.4474,1096.6691,814.5,1096.5188,804.5526,1095.6067,794.6053,1096.0193,784.6579,1095.515,774.7105,1096.3806,764.7632,1096.7007,754.8158,1096.6368,744.8684,1095.6567,734.9211,1096.5562,724.9737,1095.3494,715.0263,1096.2924,705.0789,1095.7929,695.1316,1096.1889,685.1842,1096.3325,675.2368,1096.5643,665.2895,1095.3723,655.3421,1096.5677,645.3947,1096.2704,635.4474,1096.4475,625.5,1096.84,615.5526,1096.0977,605.6053,1096.2675,595.6579,1096.3057,585.7105,1096.2894,575.7632,1096.0914,565.8158,1096.8029,555.8684,1095.4825,545.9211,1096.6575,535.9737,1095.4682,526.0263,1095.5519,516.0789,1096.1322,506.1316,1096.1205,496.1842,1095.5994,486.2368,1096.5059,476.2895,1096.2011,466.3421,1096.8189,456.3947,1096.7593,446.4474,1095.644,436.5,1096.0922,436.4492,1095.9697,436.13,1095.906,435.8382,1095.9088,435.4907,1095.777,435.1242,1095.5992,434.7322,1095.36,434.6269,1095.3164,434.7818,1095.0876,434.6345,1094.7337,434.2783,1094.2933,434.0728,1093.9153,434,1093.5922,433.5986,1093.5922,433.7854,1083.7132,434.1374,1073.8342,433.9316,1063.9551,433.5822,1054.0761,434.4874,1044.1971,433.5411,1034.3181,434.5024,1024.439,434.4272,1014.56,434.3719,1004.681,434.6925,994.802,433.7541,984.9229,433.6994,975.0439,434.5189,965.1649,433.4031,955.2859,433.766,945.4068,434.1155,935.5278,434.0687,925.6488,433.6415,915.7698,433.957,905.8907,434.7446,896.0117,434.6485,886.1327,433.4037,876.2537,434.0785,866.3747,433.4861,856.4956,433.9737,846.6166,434.293,836.7376,434.4199,826.8586,433.3353,816.9795,434.4005,807.1005,434.0084,797.2215,433.4447,787.3425,433.5289,777.4634,434.3266,767.5844,434.2499,757.7054,433.9836,747.8264,433.3279,737.9473,434.6581,728.0683,433.6882,718.1893,433.4719,708.3103,433.9327,698.4312,434,688.5522,434.1816,688.6274,434.336,688.2772,434.3037,687.8496,434.3928,687.4723,434.6381,687.1597,434.7322,686.7844,434.756,686.8418,435.021,686.4816,435.4921,686.619,435.8642,686.5172,436.1189,686.1322,436.5,686.0522" style="stroke:#181818;stroke-width:4;"/><text fill="#000000" font-family="Chalkduster" font-size="24" font-weight="bold" lengthAdjust="spacing" textLength="480.5039" x="479.7481" y="711.8931">Access and authentication services</text></g><!--entity coll--><g class="entity" data-entity="coll" data-source-line="9" data-uid="ent0003" id="entity_coll"><polygon fill="none" points="434.046,213.7381,432.8733,215.3404,431.4863,217.6873,429.5026,219.2689,427.418,220.1337,425.7559,220.2088,423.6197,219.1272,421.6041,218.4205,420.0742,216.9858,419.2716,215.3433,418.7957,214.0355,418.3295,212.3273,417.5727,210.8573,418.1542,209.422,418.6637,207.8498,420.5758,206.6064,421.921,204.993,423.5861,204.4573,425.5655,203.9959,428.1039,204.27,429.4942,204.9257,431.1106,205.2229,433.0761,207.2366,433.7612,209.3624,434.0589,210.8128,433.7217,213.203" style="stroke:#8B0000;stroke-width:4;"/><path d="M426.0018,219.7922 L426.1886,219.7922 L425.6335,225.1922 L426.1736,230.5922 L426.357,235.9922 L425.3676,241.3922 L426.0018,246.7922 M413.0018,227.7922 L413.0018,227.7231 L418.2018,227.4131 L423.4018,227.4513 L428.6018,227.7316 L433.8018,227.1777 L439.0018,227.7922 M426.0018,246.7922 L426.3737,247.1145 L422.9784,249.4253 L420.6689,252.6771 L418.4919,256.0437 L415.5441,258.7423 L413.0018,261.7922 M426.0018,246.7922 L426.0476,246.8319 L428.5803,249.7736 L431.3217,252.8961 L433.9624,255.9314 L436.7952,259.1332 L439.0018,261.7922" fill="none" style="stroke:#8B0000;stroke-width:4;"/><text fill="#000000" font-family="Chalkduster" font-size="24" lengthAdjust="spacing" textLength="100.1635" x="375.92" y="290.6331">Collect</text></g><!--entity prep--><g class="entity" data-entity="prep" data-source-line="10" data-uid="ent0004" id="entity_prep"><polygon fill="none" points="158.0434,213.7381,156.8708,215.3404,155.4837,217.6873,153.5,219.2689,151.4155,220.1337,149.7534,220.2088,147.6172,219.1272,145.6015,218.4205,144.0716,216.9858,143.2691,215.3433,142.7932,214.0355,142.3269,212.3273,141.5701,210.8573,142.1517,209.422,142.6612,207.8498,144.5733,206.6064,145.9185,204.993,147.5835,204.4573,149.563,203.9959,152.1013,204.27,153.4916,204.9257,155.1081,205.2229,157.0735,207.2366,157.7587,209.3624,158.0564,210.8128,157.7192,213.203" style="stroke:#8B0000;stroke-width:4;"/><path d="M149.9992,219.7922 L150.1861,219.7922 L149.6309,225.1922 L150.171,230.5922 L150.3545,235.9922 L149.3651,241.3922 L149.9992,246.7922 M136.9992,227.7922 L136.9992,227.7231 L142.1992,227.4131 L147.3992,227.4513 L152.5992,227.7316 L157.7992,227.1777 L162.9992,227.7922 M149.9992,246.7922 L150.3711,247.1145 L146.9759,249.4253 L144.6664,252.6771 L142.4894,256.0437 L139.5416,258.7423 L136.9992,261.7922 M149.9992,246.7922 L150.0451,246.8319 L152.5778,249.7736 L155.3191,252.8961 L157.9599,255.9314 L160.7926,259.1332 L162.9992,261.7922" fill="none" style="stroke:#8B0000;stroke-width:4;"/><text fill="#000000" font-family="Chalkduster" font-size="24" lengthAdjust="spacing" textLength="103.4785" x="98.26" y="290.6331">Prepare</text></g><!--entity dep--><g class="entity" data-entity="dep" data-source-line="11" data-uid="ent0005" id="entity_dep"><polygon fill="none" points="158.0468,372.3681,156.8741,373.9704,155.4871,376.3173,153.5034,377.8989,151.4189,378.7637,149.7568,378.8388,147.6206,377.7572,145.6049,377.0505,144.075,375.6158,143.2725,373.9733,142.7965,372.6655,142.3303,370.9573,141.5735,369.4873,142.1551,368.052,142.6646,366.4798,144.5766,365.2364,145.9218,363.623,147.5869,363.0873,149.5663,362.6259,152.1047,362.9,153.495,363.5557,155.1115,363.8529,157.0769,365.8666,157.7621,367.9924,158.0597,369.4428,157.7226,371.833" style="stroke:#8B0000;stroke-width:4;"/><path d="M150.0026,378.4222 L150.1894,378.4222 L149.6343,383.8222 L150.1744,389.2222 L150.3579,394.6222 L149.3685,400.0222 L150.0026,405.4222 M137.0026,386.4222 L137.0026,386.3531 L142.2026,386.0431 L147.4026,386.0813 L152.6026,386.3616 L157.8026,385.8077 L163.0026,386.4222 M150.0026,405.4222 L150.3745,405.7445 L146.9792,408.0553 L144.6698,411.3071 L142.4927,414.6737 L139.545,417.3723 L137.0026,420.4222 M150.0026,405.4222 L150.0484,405.4619 L152.5811,408.4036 L155.3225,411.5261 L157.9632,414.5614 L160.796,417.7632 L163.0026,420.4222" fill="none" style="stroke:#8B0000;stroke-width:4;"/><text fill="#000000" font-family="Chalkduster" font-size="24" lengthAdjust="spacing" textLength="96.2652" x="101.87" y="449.2631">Deposit</text></g><!--entity an--><g class="entity" data-entity="an" data-source-line="12" data-uid="ent0006" id="entity_an"><polygon fill="none" points="297.0431,213.7381,295.8705,215.3404,294.4835,217.6873,292.4998,219.2689,290.4152,220.1337,288.7531,220.2088,286.6169,219.1272,284.6013,218.4205,283.0713,216.9858,282.2688,215.3433,281.7929,214.0355,281.3266,212.3273,280.5699,210.8573,281.1514,209.422,281.6609,207.8498,283.573,206.6064,284.9182,204.993,286.5832,204.4573,288.5627,203.9959,291.1011,204.27,292.4914,204.9257,294.1078,205.2229,296.0733,207.2366,296.7584,209.3624,297.0561,210.8128,296.7189,213.203" style="stroke:#8B0000;stroke-width:4;"/><path d="M288.999,219.7922 L289.1858,219.7922 L288.6307,225.1922 L289.1708,230.5922 L289.3542,235.9922 L288.3648,241.3922 L288.999,246.7922 M275.999,227.7922 L275.999,227.7231 L281.199,227.4131 L286.399,227.4513 L291.599,227.7316 L296.799,227.1777 L301.999,227.7922 M288.999,246.7922 L289.3708,247.1145 L285.9756,249.4253 L283.6661,252.6771 L281.4891,256.0437 L278.5413,258.7423 L275.999,261.7922 M288.999,246.7922 L289.0448,246.8319 L291.5775,249.7736 L294.3189,252.8961 L296.9596,255.9314 L299.7924,259.1332 L301.999,261.7922" fill="none" style="stroke:#8B0000;stroke-width:4;"/><text fill="#000000" font-family="Chalkduster" font-size="24" lengthAdjust="spacing" textLength="104.7779" x="236.61" y="290.6331">Analyse</text></g><g class="entity" data-entity="GMN15" data-source-line="21" data-uid="ent0016" id="entity_GMN15"><path d="M649.67,886.3122 L650.2305,886.3122 L648.5651,896.5111 L650.1854,906.71 L650.7358,916.9089 L647.7676,927.1078 L649.4628,937.3067 L648.5327,947.5056 L648.6473,957.7045 L649.4882,967.9034 L647.8263,978.1023 L651.1464,988.3012 L647.9893,998.5001 L649.1426,1008.6989 L650.8219,1018.8978 L649.4413,1029.0967 L649.852,1039.2956 L649.5848,1049.4945 L650.1461,1059.6934 L650.3077,1069.8923 L649.67,1080.0912 L649.67,1080.0912 L649.67,1081.6531 L659.6895,1081.8807 L669.7091,1081.9026 L679.7286,1080.7702 L689.7481,1081.3274 L699.7677,1081.9638 L709.7872,1078.168 L719.8067,1081.9006 L729.8263,1079.3005 L739.8458,1081.5147 L749.8653,1078.7711 L759.8848,1079.9085 L769.9044,1082.0688 L779.9239,1079.9613 L789.9434,1080.372 L799.963,1080.9942 L809.9825,1081.2012 L820.002,1080.0808 L830.0216,1080.8571 L840.0411,1078.5648 L850.0606,1080.8496 L860.0802,1081.5531 L870.0997,1081.2766 L880.1192,1081.7259 L890.1388,1078.803 L900.1583,1078.3521 L910.1778,1078.4341 L920.1973,1079.9342 L930.2169,1079.5671 L940.2364,1081.9083 L950.2559,1079.6254 L960.2755,1079.1764 L970.295,1080.6999 L980.3145,1078.313 L990.3341,1080.0912 L990.3341,1080.0912 L988.9497,1080.0912 L992.0646,1069.8813 L991.4958,1059.6713 L992.2927,1049.4614 L989.4759,1039.2514 L991.1853,1029.0415 L991.9085,1018.8315 L989.0743,1008.6216 L990.0784,998.4117 L990.67,988.2017 L992.0721,977.9918 L990.3229,967.7818 L991.5676,957.5719 L988.8573,947.3619 L988.528,937.152 L991.677,926.942 L988.4222,916.7321 L991.6913,906.5222 L990.3341,896.3122 L990.4639,896.4421 L988.1657,894.1438 L986.1117,892.0899 L984.6224,890.6006 L982.1459,888.1241 L980.3341,886.3122 L980.3341,887.8905 L970.1821,884.8382 L960.0301,887.9587 L949.878,887.6037 L939.726,886.9655 L929.574,886.4381 L919.422,888.2498 L909.27,887.9484 L899.118,886.7636 L888.966,887.0274 L878.814,885.9648 L868.662,888.2227 L858.51,886.3122 L858.9067,886.427 L861.8704,876.3534 L862.7883,865.688 L866.227,855.7519 L871.5429,846.3589 L874.2025,836.1974 L876.02,825.7922 L875.9145,825.7477 L871.5841,834.1042 L868.1935,842.8569 L863.401,851.0186 L862.462,860.8046 L859.6159,869.7868 L855.4478,878.2117 L850.51,886.3122 L850.51,888.1654 L840.468,885.9476 L830.426,886.5448 L820.384,885.2786 L810.342,887.0697 L800.3,886.9702 L790.258,887.7852 L780.216,885.6998 L770.174,885.9538 L760.132,887.4948 L750.09,887.8251 L740.048,884.9455 L730.006,885.7952 L719.964,886.7102 L709.922,884.6833 L699.88,887.2546 L689.838,887.0002 L679.796,886.0435 L669.754,886.6915 L659.712,888.2553 L649.67,886.3122 L649.67,886.3122" fill="none" style="stroke:#181818;stroke-width:4;"/><path d="M980.3341,886.3122 L980.5209,886.3122 L979.9658,888.3122 L980.5059,890.3122 L980.6893,892.3122 L979.6999,894.3122 L980.3341,896.3122 L980.3341,896.2431 L982.3341,895.9331 L984.3341,895.9713 L986.3341,896.2516 L988.3341,895.6977 L990.3341,896.3122 L990.682,896.6602 L987.9379,893.9161 L986.2098,892.1879 L984.6056,890.5837 L982.2801,888.2583 L980.3341,886.3122" fill="none" style="stroke:#181818;stroke-width:4;"/><text fill="#000000" font-family="Chalkduster" font-size="24" lengthAdjust="spacing" textLength="319.6641" x="655.67" y="915.1531">Collections eg websites</text><text fill="#000000" font-family="Chalkduster" font-size="24" lengthAdjust="spacing" textLength="188.4729" x="655.67" y="945.7829">Working data</text><text fill="#000000" font-family="Chalkduster" font-size="24" lengthAdjust="spacing" textLength="189.0829" x="655.67" y="976.4128">Bibliographies</text><text fill="#000000" font-family="Chalkduster" font-size="24" lengthAdjust="spacing" textLength="70.3293" x="655.67" y="1007.0426">Code</text><text fill="#000000" font-family="Chalkduster" font-size="24" lengthAdjust="spacing" textLength="288.1061" x="655.67" y="1037.6724">Desktop computation</text><text fill="#000000" font-family="Chalkduster" font-size="24" lengthAdjust="spacing" textLength="24.4243" x="655.67" y="1068.3023">...</text></g><!--entity repo--><g class="entity" data-entity="repo" data-source-line="13" data-uid="ent0013" id="entity_repo"><path d="M449.52,745.0522 L449.52,745.0522 L449.5616,745.1359 L450.7655,744.2272 L452.2133,743.8088 L453.5817,743.2308 L454.689,742.1277 L456.1577,741.7514 L456.1529,741.7172 L459.631,741.0677 L463.1335,740.5905 L466.6531,740.2332 L470.1141,739.4628 L473.6571,739.271 L473.6774,739.5162 L475.9722,738.7979 L478.3264,738.7957 L480.6878,738.8807 L483.0071,738.4576 L485.3485,738.3017 L485.3504,738.332 L487.9574,738.1259 L490.573,738.0577 L493.1845,737.9229 L495.8039,737.915 L498.3976,737.4936 L498.4117,737.7915 L501.2027,737.6628 L503.9847,737.342 L506.7799,737.3025 L509.5758,737.2761 L512.3518,736.832 L512.3401,736.5117 L515.2443,737.0274 L518.1097,736.4884 L521.0047,736.7512 L523.8692,736.1883 L526.7587,736.3022 L526.7579,736.2718 L532.4393,736.4872 L538.1025,735.9915 L543.7765,735.9154 L549.4514,735.8745 L555.1197,735.5796 L555.1225,735.7645 L560.0678,735.5036 L565.0179,735.5588 L569.9602,735.1025 L574.914,735.4091 L579.8603,735.2085 L579.8618,735.4521 L584.689,735.3748 L589.5169,735.4184 L594.3411,734.9 L599.168,734.7936 L603.9973,735.0522 L603.9973,735.0522 L603.9956,734.776 L608.8246,735.0573 L613.6516,735.0274 L618.4816,735.4488 L623.3065,735.0996 L628.1344,735.2085 L628.1321,735.056 L633.084,735.3841 L638.0262,735.0606 L642.9753,735.2004 L647.9312,735.7937 L652.8749,735.5796 L652.8799,735.7731 L658.5555,736.0504 L664.2157,735.7256 L669.8952,736.155 L675.5705,736.42 L681.236,736.3022 L681.2283,736.0924 L684.1158,736.3656 L687.0008,736.5701 L689.8907,736.9096 L692.7614,736.7242 L695.6428,736.832 L695.6526,737.0374 L698.422,736.7185 L701.2103,736.796 L704.026,737.4525 L706.7911,737.043 L709.5971,737.4936 L709.6111,737.7194 L712.2126,737.7469 L714.8094,737.698 L717.4168,737.8215 L720.049,738.3436 L722.6462,738.3017 L722.6352,738.1691 L725.0062,738.7577 L727.3025,738.4446 L729.6837,739.1567 L732.0171,739.2916 L734.3376,739.271 L734.3529,739.3788 L737.8404,739.7878 L741.3827,740.5829 L744.8755,741.0292 L748.3477,741.3298 L751.837,741.7514 L751.8901,741.8582 L753.1387,742.3597 L754.6338,743.3569 L755.8502,743.7935 L757.1813,744.4607 L758.4747,745.0522 L756.8524,745.0522 L757.3941,755.0893 L759.89,765.1264 L759.6207,775.1635 L758.3602,785.2006 L757.6156,795.2377 L757.8909,805.2748 L758.4747,815.3119 L758.4747,815.3119 L758.3389,815.0388 L757.2292,816.1371 L755.966,816.9265 L754.5962,817.5018 L753.302,818.2291 L751.837,818.6127 L751.8285,818.5525 L748.3425,819.1471 L744.8131,819.4343 L741.3551,820.2259 L737.8529,820.7056 L734.3376,821.0931 L734.3579,821.3378 L731.9909,821.1853 L729.6561,821.4213 L727.339,821.8711 L725.0053,822.1198 L722.6462,822.0624 L722.6321,821.835 L720.031,822.138 L717.4307,822.4518 L714.7999,822.2763 L712.2166,822.8656 L709.5971,822.8705 L709.6025,822.985 L706.8041,822.9581 L704.0184,823.1983 L701.2399,823.5909 L698.4271,823.2609 L695.6428,823.5321 L695.648,823.672 L692.7661,823.7649 L689.882,823.7954 L687.001,823.9126 L684.1192,824.0063 L681.236,824.0619 L681.2289,823.7846 L675.5593,824.0283 L669.8864,824.1459 L664.2201,824.5238 L658.5481,824.6792 L652.8749,824.7845 L652.876,824.8564 L647.9249,824.7294 L642.9783,824.903 L638.0298,824.9538 L633.0864,825.3378 L628.1344,825.1556 L628.1357,825.3452 L623.3056,824.9711 L618.4794,825.1857 L613.6505,824.9928 L608.8256,825.4088 L603.9973,825.3119 L603.9973,825.3119 L603.9991,825.5823 L599.1715,825.5227 L594.3413,825.0558 L589.5164,825.4243 L584.6855,824.8567 L579.8603,825.1556 L579.8616,825.2446 L574.9102,824.9484 L569.9647,825.0502 L565.0176,825.0398 L560.071,825.0686 L555.1197,824.7845 L555.1116,824.4647 L549.4529,824.8513 L543.7773,824.5746 L538.1071,824.5088 L532.4394,824.5387 L526.7587,824.0619 L526.7588,824.0643 L523.8802,824.0338 L520.9994,823.9448 L518.1178,823.8316 L515.2332,823.6377 L512.3518,823.5321 L512.3668,823.8476 L509.5482,823.1291 L506.782,823.5184 L503.9662,822.8581 L501.1771,822.7629 L498.3976,822.8705 L498.3987,822.8882 L495.7886,822.7214 L493.1644,822.3286 L490.5795,822.5691 L487.9613,822.2723 L485.3485,822.0624 L485.3752,822.3842 L483.0347,822.164 L480.6555,821.4761 L478.319,821.3046 L475.9906,821.2298 L473.6571,821.0931 L473.6793,821.2496 L470.1823,820.7744 L466.6761,820.2335 L463.1361,819.4544 L459.6973,819.3888 L456.1577,818.6127 L456.2831,818.8649 L454.8208,817.9337 L453.4553,817.1972 L452.0956,816.4725 L450.8051,815.8866 L449.52,815.3119 L449.8864,815.3119 L449.3376,805.2748 L448.4059,795.2377 L450.8197,785.2006 L448.2962,775.1635 L450.8597,765.1264 L450.6593,755.0893 L449.52,745.0522" fill="#00FF7F" style="stroke:#181818;stroke-width:4;"/><path d="M449.52,745.0522 L449.52,745.0522 L449.5616,745.1359 L450.7655,745.5475 L452.2133,746.4494 L453.5817,747.1917 L454.689,747.4089 L456.1577,748.353 L456.1529,748.3188 L459.631,748.6614 L463.1335,749.1764 L466.6531,749.8113 L470.1141,750.0331 L473.6571,750.8335 L473.6774,751.0787 L475.9722,750.7481 L478.3264,751.1336 L480.6878,751.6063 L483.0071,751.5709 L485.3485,751.8027 L485.3504,751.833 L487.9574,751.9501 L490.573,752.2051 L493.1845,752.3936 L495.8039,752.709 L498.3976,752.6108 L498.4117,752.9087 L501.2027,753.0447 L503.9847,752.9885 L506.7799,753.2136 L509.5758,753.4519 L512.3518,753.2724 L512.3401,752.9521 L515.2443,753.6797 L518.1097,753.3526 L521.0047,753.8274 L523.8692,753.4764 L526.7587,753.8022 L526.7579,753.7718 L532.4393,754.2762 L538.1025,754.0696 L543.7765,754.2826 L549.4514,754.5308 L555.1197,754.5249 L555.1225,754.7098 L560.0678,754.5974 L565.0179,754.8009 L569.9602,754.4931 L574.914,754.9481 L579.8603,754.896 L579.8618,755.1396 L584.689,755.1248 L589.5169,755.2309 L594.3411,754.775 L599.168,754.7311 L603.9973,755.0522 L603.9973,755.0522 L603.9956,754.776 L608.8246,754.9948 L613.6516,754.9024 L618.4816,755.2613 L623.3065,754.8496 L628.1344,754.896 L628.1321,754.7435 L633.084,754.9232 L638.0262,754.4512 L642.9753,754.4426 L647.9312,754.8875 L652.8749,754.5249 L652.8799,754.7184 L658.5555,754.7067 L664.2157,754.0928 L669.8952,754.2331 L675.5705,754.2091 L681.236,753.8022 L681.2283,753.5924 L684.1158,753.6537 L687.0008,753.6463 L689.8907,753.7738 L692.7614,753.3765 L695.6428,753.2724 L695.6526,753.4778 L698.422,752.8943 L701.2103,752.7071 L704.026,753.099 L706.7911,752.4248 L709.5971,752.6108 L709.6111,752.8366 L712.2126,752.5408 L714.8094,752.1687 L717.4168,751.969 L720.049,752.1678 L722.6462,751.8027 L722.6352,751.6701 L725.0062,751.871 L727.3025,751.1702 L729.6837,751.4946 L732.0171,751.2418 L734.3376,750.8335 L734.3529,750.9413 L737.8404,750.3581 L741.3827,750.161 L744.8755,749.6152 L748.3477,748.9236 L751.837,748.353 L751.8901,748.4597 L753.1387,747.641 L754.6338,747.3178 L755.8502,746.4342 L757.1813,745.781 L758.4747,745.0522" fill="none" style="stroke:#181818;stroke-width:4;"/><text fill="#000000" font-family="Chalkduster" font-size="24" font-style="italic" lengthAdjust="spacing" textLength="169.1404" x="519.4272" y="782.8931">&#171;repository&#187;</text><text fill="#000000" font-family="Chalkduster" font-size="24" lengthAdjust="spacing" textLength="288.9547" x="459.52" y="813.5229">Archival Repositories</text></g><!--entity comp--><g class="entity" data-entity="comp" data-source-line="17" data-uid="ent0014" id="entity_comp"><path d="M793.94,745.0522 L793.94,745.0522 L793.973,745.1396 L796.9395,743.7237 L800.0993,742.8201 L803.1961,741.7497 L806.0859,740.1306 L809.2623,739.271 L809.2585,739.2366 L812.3821,738.7271 L815.5253,738.3907 L818.6822,738.1745 L821.7921,737.5438 L824.9677,737.4936 L824.984,737.7391 L828.55,736.9758 L832.1634,736.9294 L835.7827,736.9703 L839.3682,736.5025 L842.9715,736.3022 L842.9727,736.3325 L846.5717,736.1435 L850.1762,736.0924 L853.778,735.9748 L857.3849,735.9842 L860.9752,735.5796 L860.9823,735.8777 L864.1235,735.8071 L867.2601,735.5443 L870.4034,735.5629 L873.5469,735.5947 L876.6806,735.2085 L876.6774,734.888 L879.7482,735.4788 L882.8082,735.0142 L885.8765,735.3519 L888.9363,734.8635 L892.003,735.0522 L892.003,735.0522 L892.0027,735.0218 L895.0708,735.413 L898.1317,735.0931 L901.1969,735.1928 L904.2624,735.3277 L907.3253,735.2085 L907.3297,735.3934 L910.4664,735.2809 L913.6105,735.4845 L916.7426,735.1768 L919.8926,735.6317 L923.0307,735.5796 L923.0405,735.823 L926.6394,735.9215 L930.2432,736.1409 L933.8244,735.7986 L937.4221,735.8681 L941.0345,736.3022 L941.0162,736.0266 L944.6335,736.5144 L948.2302,736.6916 L951.8567,737.3192 L955.4324,737.1779 L959.0382,737.4936 L959.0211,737.3421 L962.1907,737.9499 L965.2871,737.9101 L968.4355,738.3308 L971.635,739.2021 L974.7436,739.271 L974.812,739.4521 L977.9233,740.7326 L980.8221,741.4496 L983.9871,742.8724 L987.0941,744.1415 L990.066,745.0522 L988.8062,745.0522 L989.8104,755.0893 L990.4019,765.1264 L991.804,775.1635 L990.0548,785.2006 L991.2995,795.2377 L988.5892,805.2748 L990.066,815.3119 L990.066,815.3119 L989.9597,815.0303 L987.0805,816.6775 L983.8246,817.3263 L980.9524,818.9923 L977.8405,820.0228 L974.7436,821.0931 L974.7302,820.9748 L971.5849,821.2924 L968.4844,822.0067 L965.3054,822.0273 L962.2089,822.7764 L959.0382,822.8705 L959.022,822.6253 L955.4556,823.3826 L951.8509,823.5618 L948.2432,823.694 L944.6366,823.8445 L941.0345,824.0619 L941.0474,824.3846 L937.4447,824.4789 L933.836,824.4261 L930.237,824.6146 L926.6292,824.5822 L923.0307,824.7845 L923.0383,825.1029 L919.8913,824.9276 L916.7504,825.0096 L913.6011,824.7369 L910.4622,824.9014 L907.3253,825.1556 L907.3277,825.3915 L904.2628,825.3779 L901.1962,825.199 L898.1305,825.1062 L895.0665,825.1833 L892.003,825.3119 L892.003,825.3119 L891.9999,825.0069 L888.9404,825.4649 L885.8774,825.5781 L882.812,825.4521 L879.7483,825.4957 L876.6806,825.1556 L876.6792,825.0949 L873.5405,825.1202 L870.3944,824.835 L867.2604,825.0592 L864.1189,824.9684 L860.9752,824.7845 L860.9851,825.0298 L857.3704,824.538 L853.7713,824.4358 L850.1809,824.5479 L846.5824,824.4584 L842.9715,824.0619 L842.9565,823.8346 L839.3651,823.7376 L835.7744,823.6515 L832.1513,823.0761 L828.5789,823.2655 L824.9677,822.8705 L824.9806,822.9844 L821.8216,822.4705 L818.6927,822.2224 L815.5809,822.1259 L812.3878,821.3104 L809.2623,821.0931 L809.3118,821.2241 L806.2427,820.0557 L803.1516,818.8288 L800.091,817.683 L797.0223,816.5153 L793.94,815.3119 L792.2756,815.3119 L792.8712,805.2748 L792.7092,795.2377 L794.1102,785.2006 L794.175,775.1635 L794.3713,765.1264 L793.1641,755.0893 L793.94,745.0522" fill="#FFC7D8" style="stroke:#181818;stroke-width:4;"/><path d="M793.94,745.0522 L793.94,745.0522 L793.973,745.1396 L796.9395,746.0362 L800.0993,747.4451 L803.1961,748.6872 L806.0859,749.3806 L809.2623,750.8335 L809.2585,750.7991 L812.3821,751.0006 L815.5253,751.375 L818.6822,751.8698 L821.7921,751.95 L824.9677,752.6108 L824.984,752.8563 L828.55,752.5696 L832.1634,752.9997 L835.7827,753.5172 L839.3682,753.5259 L842.9715,753.8022 L842.9727,753.8325 L846.5717,753.9326 L850.1762,754.1706 L853.778,754.342 L857.3849,754.6404 L860.9752,754.5249 L860.9823,754.823 L864.1235,754.9009 L867.2601,754.7864 L870.4034,754.9535 L873.5469,755.1338 L876.6806,754.896 L876.6774,754.5755 L879.7482,755.2288 L882.8082,754.8267 L885.8765,755.2269 L888.9363,754.801 L892.003,755.0522 L892.003,755.0522 L892.0027,755.0218 L895.0708,755.3505 L898.1317,754.9681 L901.1969,755.0053 L904.2624,755.0777 L907.3253,754.896 L907.3297,755.0809 L910.4664,754.82 L913.6105,754.8751 L916.7426,754.419 L919.8926,754.7254 L923.0307,754.5249 L923.0405,754.7683 L926.6394,754.5777 L930.2432,754.508 L933.8244,753.8767 L937.4221,753.6571 L941.0345,753.8022 L941.0162,753.5266 L944.6335,753.5378 L948.2302,753.2385 L951.8567,753.3896 L955.4324,752.7716 L959.0382,752.6108 L959.0211,752.4593 L962.1907,752.3561 L965.2871,751.6054 L968.4355,751.3151 L971.635,751.4755 L974.7436,750.8335 L974.812,751.0146 L977.9233,749.9826 L980.8221,748.3871 L983.9871,747.4974 L987.0941,746.454 L990.066,745.0522" fill="none" style="stroke:#181818;stroke-width:4;"/><text fill="#000000" font-family="Chalkduster" font-size="24" font-style="italic" lengthAdjust="spacing" textLength="174.126" x="804.94" y="782.8931">&#171;workspace&#187;</text><text fill="#000000" font-family="Chalkduster" font-size="24" lengthAdjust="spacing" textLength="155.8807" x="814.0627" y="813.5229">Workspaces</text></g><!--entity cur--><g class="entity" data-entity="cur" data-source-line="32" data-uid="ent0020" id="entity_cur"><polygon fill="none" points="831.0413,213.7381,829.8687,215.3404,828.4816,217.6873,826.4979,219.2689,824.4134,220.1337,822.7513,220.2088,820.6151,219.1272,818.5994,218.4205,817.0695,216.9858,816.267,215.3433,815.7911,214.0355,815.3248,212.3273,814.568,210.8573,815.1496,209.422,815.6591,207.8498,817.5712,206.6064,818.9164,204.993,820.5814,204.4573,822.5609,203.9959,825.0992,204.27,826.4895,204.9257,828.106,205.2229,830.0714,207.2366,830.7566,209.3624,831.0543,210.8128,830.7171,213.203" style="stroke:#8B0000;stroke-width:4;"/><path d="M822.9971,219.7922 L823.184,219.7922 L822.6288,225.1922 L823.1689,230.5922 L823.3524,235.9922 L822.363,241.3922 L822.9971,246.7922 M809.9971,227.7922 L809.9971,227.7231 L815.1971,227.4131 L820.3971,227.4513 L825.5971,227.7316 L830.7971,227.1777 L835.9971,227.7922 M822.9971,246.7922 L823.369,247.1145 L819.9738,249.4253 L817.6643,252.6771 L815.4873,256.0437 L812.5395,258.7423 L809.9971,261.7922 M822.9971,246.7922 L823.043,246.8319 L825.5757,249.7736 L828.317,252.8961 L830.9578,255.9314 L833.7905,259.1332 L835.9971,261.7922" fill="none" style="stroke:#8B0000;stroke-width:4;"/><text fill="#000000" font-family="Chalkduster" font-size="24" lengthAdjust="spacing" textLength="44.2343" x="800.88" y="290.6331">cur</text></g><!--link coll to prep--><g class="link" data-entity-1="coll" data-entity-2="prep" data-source-line="17" data-uid="lnk7" id="link_coll_prep"><path d="M416.15,199.3822 L416.2392,199.41 L415.0588,196.3849 L414.4013,193.5226 L413.5736,190.6072 L412.1859,187.5177 L411.5733,184.6693 L411.5409,184.6571 L410.2534,181.5616 L409.1289,178.5274 L408.1177,175.5357 L406.716,172.3973 L405.8613,169.4644 L406.0849,169.5669 L404.2148,166.3115 L402.9978,163.3554 L401.8604,160.4358 L400.2595,157.3037 L398.9023,154.2834 L398.9287,154.2984 L397.2265,151.3482 L395.6444,148.4661 L394.0043,145.5512 L392.4748,142.699 L390.585,139.6422 L390.827,139.8165 L388.8725,137.1016 L386.7619,134.2741 L384.8798,131.6113 L383.0084,128.9562 L380.7977,126.0566 L380.5648,125.8363 L378.7429,123.8611 L376.1544,121.1604 L374.1486,119.0112 L371.5427,116.2941 L369.4288,114.0425 L369.4103,114.0183 L367.0158,112.3196 L364.1908,110.0546 L361.6198,108.1237 L359.0702,106.2209 L356.3667,104.1158 L356.4485,104.2817 L353.3926,102.6495 L350.4764,101.3009 L347.3343,99.4934 L344.5292,98.3703 L341.5,96.7922 L341.58,97.0223 L338.5082,95.9164 L335.4762,94.9246 L332.2596,93.402 L329.1782,92.2685 L326.2168,91.4799 L326.1417,91.2141 L323.523,90.6958 L320.8197,89.878 L318.2391,89.4946 L315.449,88.3695 L312.7834,87.6853 L312.7555,87.5355 L310.362,87.3297 L307.8491,86.4833 L305.4211,86.0925 L303.0763,86.1475 L300.5834,85.4086 L300.5961,85.6018 L298.2881,85.5826 L295.9407,84.9623 L293.6426,85.0948 L291.3338,85.0633 L289,84.6497 L288.9863,84.4402 L286.6805,84.759 L284.3703,85.0091 L282.0689,85.3941 L279.7332,85.255 L277.4166,85.4086 L277.4543,85.6107 L274.9314,85.622 L272.4814,86.0234 L270.1376,86.9947 L267.5981,86.9168 L265.2166,87.6853 L265.2781,87.903 L262.5549,88.5326 L259.8109,89.0886 L257.1138,89.8107 L254.5253,90.9172 L251.7832,91.4799 L251.7396,91.3542 L248.813,92.7908 L245.5893,93.3728 L242.7034,94.9265 L239.6273,95.9331 L236.5,96.7922 L236.5548,96.8863 L234.5138,97.9728 L232.669,99.3963 L230.647,100.5154 L228.5508,101.5072 L226.5162,102.6047 L226.6085,102.6802 L224.9682,104.4056 L223.7562,106.4813 L222.0598,108.1608 L220.5626,110.0033 L219,111.7922 L218.7837,111.63 L217.3546,113.6861 L216.1861,115.9377 L214.6488,117.9128 L212.9794,119.7887 L211.4933,121.8021 L211.3754,121.721 L210.0179,123.7753 L208.4515,125.686 L207.4594,127.9917 L206.1831,130.1018 L204.517,131.9439 L204.7147,132.069 L203.4808,134.1577 L201.8714,136.0085 L200.6584,138.1103 L199.183,140.0459 L198.0314,142.1866 L198.1403,142.2504 L196.9191,144.3046 L195.8295,146.4358 L194.3226,148.3229 L193.1522,150.4068 L191.9969,152.4996 L192.1701,152.5937 L191.0939,154.6904 L189.5476,156.5318 L188.5474,158.6699 L187.5569,160.8131 L186.374,162.8519 L186.1318,162.7292 L185.4639,164.9951 L184.3759,167.0481 L183.1835,169.0482 L182.2296,171.1692 L181.1231,173.2128 L181.4155,173.3519 L180.0138,175.2208 L179.2821,177.4084 L178.2866,179.4705 L177.2347,181.5058 L176.2045,183.5514 L176.2617,183.5771 L175.3254,185.6292 L174.1012,187.5519 L173.2666,189.6497 L172.3169,191.6957 L171.5788,193.837" fill="none" style="stroke:#181818;stroke-width:4;"/><polygon fill="#181818" points="169.17,199.3322,169.2172,199.384,170.5323,197.9028,172.1241,196.725,173.6258,195.4485,174.8311,193.8469,176.4467,192.6952,176.4373,192.6711,175.3411,192.9743,174.2925,193.3992,173.2768,193.9086,172.1474,194.1267,171.1773,194.7528,171.3493,194.82,170.5701,193.6226,170.2929,192.6211,170.0769,191.6436,169.5046,190.527,169.1197,189.4835,169.1425,189.4836,169.1191,191.4532,169.1993,193.4233,169.2296,195.3931,169.3552,197.3635,169.17,199.3322" style="stroke:#181818;stroke-width:4;"/></g><!--link prep to dep--><g class="link" data-entity-1="prep" data-entity-2="dep" data-source-line="18" data-uid="lnk8" id="link_prep_dep"><path d="M150,297.8822 L150.2802,297.8822 L149.4476,308.7302 L150.2577,319.5782 L150.5329,330.4262 L149.0488,341.2742 L150,352.1222" fill="none" style="stroke:#181818;stroke-width:4;"/><polygon fill="#181818" points="150,358.1222,150.064,358.1507,150.6738,356.2661,151.6589,354.5484,152.5217,352.7763,152.9827,350.8256,154,349.1222,153.9817,349.1039,153.0995,349.8217,152.3096,350.6318,151.5839,351.5061,150.637,352.1593,150,353.1222,150.1305,353.2527,149.0514,352.1737,148.3534,351.4756,147.7018,350.824,146.7798,349.902,146,349.1222,146.0208,349.1314,146.7903,350.9179,147.6544,352.7464,148.4728,354.5546,149.3784,356.4015,150,358.1222" style="stroke:#181818;stroke-width:4;"/></g><!--link prep to an--><g class="link" data-entity-1="prep" data-entity-2="an" data-source-line="19" data-uid="lnk9" id="link_prep_an"><path d="M208.12,248.6122 L208.12,248.7056 L212.576,248.4281 L217.032,248.6981 L221.488,248.7898 L225.944,248.2951 L230.4,248.6122" fill="none" style="stroke:#181818;stroke-width:4;"/><polygon fill="#181818" points="202.12,248.6122,202.1485,248.6762,203.8639,249.286,205.7462,250.2711,207.5741,251.134,209.2234,251.5949,211.12,252.6122,211.1017,252.5939,210.2195,251.7117,209.4296,250.9218,208.7039,250.1961,207.757,249.2493,207.12,248.6122,207.2505,248.7427,207.7714,247.6637,208.6734,246.9656,209.6218,246.314,210.2998,245.392,211.12,244.6122,211.1292,244.633,209.3157,245.4025,207.5442,246.2666,205.7524,247.0851,203.9993,247.9906,202.12,248.6122" style="stroke:#181818;stroke-width:4;"/><polygon fill="#181818" points="236.4,248.6122,236.4285,248.6762,234.5439,247.686,232.8262,247.0711,231.0541,246.334,229.1034,245.1949,227.4,244.6122,227.3817,244.5939,228.0995,245.3117,228.9096,246.1218,229.7839,246.9961,230.437,247.6493,231.4,248.6122,231.5305,248.7427,230.4514,249.2637,229.7534,250.1656,229.1018,251.114,228.1798,251.792,227.4,252.6122,227.4092,252.633,229.1957,251.8025,231.0242,251.0666,232.8324,250.2851,234.6793,249.5906,236.4,248.6122" style="stroke:#181818;stroke-width:4;"/></g><!--link an to dep--><g class="link" data-entity-1="an" data-entity-2="dep" data-source-line="20" data-uid="lnk10" id="link_an_dep"><path d="M246.16,297.8822 L246.3696,298.0682 L238.6785,305.48 L232.2161,313.9823 L225.3536,322.1295 L217.1752,329.1089 L210.7408,337.636 L203.3247,345.2918 L196.6817,353.6337" fill="none" style="stroke:#181818;stroke-width:4;"/><polygon fill="#181818" points="192.7,358.1222,192.729,358.186,194.4358,357.1808,196.3126,356.5496,198.1341,355.7965,199.7734,354.6432,201.6648,354.044,201.6633,354.0181,200.527,353.9696,199.3985,354.0515,198.2754,354.224,197.1336,354.0842,196.0181,354.3818,196.2023,354.3928,195.7408,353.2399,195.8171,352.1192,195.9591,351.0024,195.7192,349.8627,195.6802,348.7351,195.7019,348.7419,195.074,350.6093,194.5448,352.5079,193.968,354.3915,193.4821,356.3039,192.7,358.1222" style="stroke:#181818;stroke-width:4;"/></g><!--reverse link coll to repo--><g class="link" data-entity-1="coll" data-entity-2="repo" data-source-line="31" data-uid="lnk19" id="link_coll_repo"><path d="M481.2557,284.163 L481.3122,284.2373 L483.6793,285.9442 L486.3779,288.087 L488.9685,290.0879 L491.2042,291.622 L493.9312,293.8022 L493.9086,293.7761 L496.1337,295.673 L498.4728,297.7015 L500.8911,299.8215 L503.0364,301.6262 L505.5641,303.8726 L505.739,304.0457 L507.5479,305.8816 L509.8675,308.2229 L512.2494,310.6258 L514.2688,312.6701 L516.4789,314.903 L516.5021,314.9225 L518.5722,317.3977 L520.7481,319.9617 L522.8729,322.4829 L525.095,325.0858 L527,327.4222 L527.2373,327.6029 L528.9286,329.8222 L530.4669,331.9249 L532.2293,334.1983 L534.0021,336.4796 L535.4423,338.5076 L535.1831,338.319 L537.1892,340.7505 L538.3419,342.561 L540.1434,344.8435 L541.2768,346.6399 L542.9578,348.8348 L542.9327,348.8175 L544.5633,350.9618 L545.6077,352.7031 L546.998,354.6822 L548.4173,356.6812 L549.6271,358.5363 L549.7829,358.6361 L550.8064,360.377 L552.0961,362.2886 L552.9552,363.924 L554.4566,365.9712 L555.5309,367.7447 L555.7408,367.8685 L556.7449,369.6147 L557.8531,371.4223 L558.4773,372.9444 L559.4563,374.6758 L560.7498,376.5927 L560.5063,376.4623 L561.6496,378.3043 L562.5186,379.9995 L563.7855,381.9077 L564.3729,383.4521 L565.3643,385.2128 L565.2254,385.1499 L567.0043,388.672 L568.1896,391.9253 L569.797,395.3697 L571.8176,399.0013 L573.1025,402.2997 L573.285,402.3643 L574.6678,405.962 L575.4828,409.3587 L577.009,413.007 L578.3802,416.6006 L579.3904,420.0664 L579.1891,420.0068 L579.9099,421.9482 L580.5648,423.8701 L581.3492,425.8303 L581.6299,427.6416 L582.192,429.536 L582.3906,429.5891 L582.4904,431.48 L582.9735,433.4733 L584.0167,435.6163 L584.0288,437.4838 L584.8728,439.5735 L585.0925,439.6275 L585.4901,441.7429 L585.8134,443.8401 L586.3045,445.9785 L587.1833,448.2123 L587.5134,450.3112 L587.3838,450.2812 L588.3059,452.6847 L588.3465,454.884 L589.3893,457.3155 L589.8679,459.6163 L590.1944,461.8818 L590.3007,461.9054 L591.376,467.1204 L592.8319,472.4199 L593.944,477.6431 L594.9123,482.8344 L596,488.0522 L596.1168,488.0758 L596.5999,491.2919 L597.6254,494.6175 L598.0374,497.8193 L598.7017,501.072 L599.2832,504.3079 L599.0166,504.2629 L599.6659,507.593 L600.6363,510.9774 L601.1524,514.285 L601.5055,517.565 L602.0846,520.8833 L601.9428,520.8635 L602.4583,524.2303 L602.7226,527.5621 L603.6773,530.9903 L604.2903,534.3708 L604.4348,537.6858 L604.6673,537.7123 L605.1277,541.1082 L605.1464,544.4537 L605.6313,547.8524 L605.8076,551.2159 L606.3647,554.6228 L606.4904,554.6342 L606.782,558.0285 L607.2253,561.4366 L607.1872,564.801 L607.5374,568.2006 L607.9049,571.6018 L608.1015,571.6155 L608.3927,575.005 L608.1502,578.3573 L608.5277,581.7528 L608.9161,585.1491 L609.0862,588.5302 L608.8151,588.5164 L609.4137,591.8952 L609.542,595.2501 L609.5534,598.599 L609.8318,601.9615 L609.9393,605.3153 L610.263,605.3262 L609.9115,608.6205 L610.3015,611.9398 L610.3996,615.2492 L610.4353,618.5566 L610.495,621.8647 L610.5576,621.8658 L610.6032,625.1098 L610.3332,628.3482 L610.4903,631.5941 L610.5211,634.8379 L610.784,638.0857 L610.8123,638.0858 L610.8337,641.2459 L610.877,644.406 L610.6864,647.5653 L610.7963,650.7257 L610.8369,653.8858 L610.7835,653.8853 L611.0628,656.9457 L610.9656,660.0023 L610.5298,663.0556 L610.6827,666.1147 L610.6846,669.1724 L610.4281,669.1667 L610.7474,672.1113 L610.8243,675.0506 L610.7305,677.986 L610.2296,680.9124 L610.3578,683.8528 L610.5639,683.8598 L609.9337,686.6381 L610.2585,689.4485 L609.9425,692.2374 L610.0243,695.0397 L609.8872,697.8346 L609.9939,697.8394 L609.9801,700.482 L609.3341,703.0967 L609.7481,705.7583 L609.4994,708.3906 L609.3036,711.0252 L609.4612,711.0344 L609.3586,715.772 L608.7526,720.4801 L608.5512,725.212 L608.2914,729.9403 L607.92,734.6622" fill="none" style="stroke:#181818;stroke-width:4;"/><polygon fill="#181818" points="476.39,280.6522,476.4505,280.6875,477.2623,282.2847,478.4289,284.0886,479.4799,285.8252,480.1509,287.3404,481.348,289.1621,481.3224,289.158,481.027,288.0225,480.8605,286.908,480.7836,285.8079,480.3979,284.6579,480.4447,283.5778,480.4742,283.76,481.528,283.1898,482.6679,283.1514,483.8183,283.178,484.9076,282.827,486.029,282.6745,486.0337,282.6968,484.099,282.2597,482.1856,281.9239,480.262,281.5392,478.3579,281.2477,476.39,280.6522" style="stroke:#181818;stroke-width:4;"/><text fill="#000000" font-family="Chalkduster" font-size="24" lengthAdjust="spacing" textLength="77.0387" x="606.95" y="528.3931">Reuse</text></g><!--link cur to repo--><g class="link" data-entity-1="cur" data-entity-2="repo" data-source-line="32" data-uid="lnk21" id="link_cur_repo"><path d="M803.18,297.5422 L803.439,297.6493 L798.8715,306.5153 L795.8221,316.009 L792.2784,325.2983 L787.1089,333.9153 L784.0941,343.4234 L779.8663,352.4298 L776.1213,361.6359 L772.7118,370.9807 L768.1459,379.8473 L765.8819,389.6659 L760.6251,398.2468 L757.36,407.6513 L754.3379,417.1563 L749.9019,426.0767 L746.2937,435.3393 L742.3722,444.4724 L738.8335,453.7638 L735.1102,462.9789 L731.7391,472.3396 L728.0463,481.5673 L724.2584,490.7556 L719.9371,499.7234 L716.3966,509.014 L712.8926,518.3198 L707.3407,526.7786 L705.2673,536.676 L700.2679,545.3633 L697.493,554.9706 L692.4273,563.6305 L689.1548,573.032 L686.3549,582.6289 L681.5831,591.4104 L677.9748,600.673 L674.4643,609.9761 L670.7619,619.1998 L666.4462,628.1698 L663.0069,637.5023 L658.1497,646.2485 L655.4073,655.8692 L651.9344,665.1878 L648.0086,674.3191 L644.4182,683.5891 L639.2696,692.2148 L635.2632,701.3128 L631.5031,710.5126 L628.3982,719.9834 L624.6727,729.1975" fill="none" style="stroke:#181818;stroke-width:4;"/><polygon fill="#181818" points="622.38,734.7422,622.4283,734.793,623.7119,733.2844,625.2786,732.0735,626.7531,730.7656,627.9245,729.1391,629.5155,727.9537,629.5056,727.9298,628.4161,728.256,627.3766,728.7028,626.3719,729.2335,625.2473,729.4752,624.2906,730.1216,624.4611,730.1924,623.663,728.9961,623.3625,728.0064,623.1228,727.0419,622.5298,725.9307,622.1226,724.8967,622.1454,724.8973,622.1635,726.8655,622.2851,728.8365,622.3567,730.8061,622.5237,732.7782,622.38,734.7422" style="stroke:#181818;stroke-width:4;"/><text fill="#000000" font-family="Chalkduster" font-size="24" lengthAdjust="spacing" textLength="96.2652" x="725.22" y="528.3931">Deposit</text></g><!--link an to repo--><g class="link" data-entity-1="an" data-entity-2="repo" data-source-line="33" data-uid="lnk22" id="link_an_repo"><path d="M265.5,297.7622 L265.5862,297.7981 L264.3102,300.1391 L263.5396,302.6907 L262.6045,305.1737 L261.128,307.4312 L260.4008,310.0009 L260.3686,309.9883 L259.1924,312.5816 L258.1784,315.2381 L257.2772,317.9385 L255.9873,320.4875 L255.2419,323.2486 L255.4734,323.3319 L253.96,325.9823 L253.1226,328.8761 L252.3676,331.7995 L251.1328,334.5502 L250.1504,337.3917 L250.1792,337.4012 L249.1575,340.3723 L248.267,343.3865 L247.3133,346.3799 L246.4803,349.4129 L245.2536,352.3167 L245.5398,352.4007 L244.6283,355.5204 L243.5323,358.5859 L242.7064,361.7307 L241.8932,364.8792 L240.6788,367.91 L240.3682,367.8307 L240.1459,371.2143 L238.9009,374.3366 L238.4333,377.6575 L237.1652,380.7739 L236.5532,384.058 L236.5235,384.0516 L236.1657,387.4447 L235.1124,390.689 L234.4695,394.0212 L233.8611,397.3607 L233.0041,400.647 L233.1866,400.6777 L232.4333,404.03 L231.9919,407.4347 L231.046,410.7547 L230.8525,414.2011 L230.1588,417.5635 L230.4007,417.5919 L229.9521,421.0126 L229.6236,424.4474 L228.7369,427.8166 L228.2594,431.2339 L228.1444,434.6938 L227.8687,434.6769 L227.907,438.1383 L227.6347,441.5807 L227.8129,445.0507 L227.2219,448.4735 L227.0882,451.9244 L226.9357,451.9242 L227.1955,455.368 L226.8035,458.8108 L226.875,462.2544 L227.4001,465.6987 L227.1175,469.1417 L227.3106,469.1557 L227.6915,472.5834 L227.4717,475.9675 L228.0042,479.4062 L228.3728,482.833 L228.3595,486.2321 L228.152,486.2003 L228.8338,489.5956 L229.4477,492.9805 L230.1951,496.3858 L230.4233,499.7116 L230.9416,503.0819 L231.1412,503.1309 L231.5124,506.3223 L232.2689,509.6084 L233.5885,513.0327 L233.8715,516.2025 L234.9908,519.5776 L235.2042,519.6527 L236.2062,522.8137 L237.136,525.9492 L238.2287,529.1421 L239.6981,532.4677 L240.6345,535.6056 L240.5145,535.5483 L242.3451,538.8081 L243.359,541.6785 L245.3015,544.9917 L246.7212,548.0555 L248,551.0522 L248.0937,551.1076 L249.9373,554.31 L252.1165,557.7108 L253.9925,560.9324 L255.7417,564.079 L257.5962,567.2879 L257.6947,567.355 L259.6626,570.3568 L262.0877,573.6703 L263.9957,576.6312 L266.1165,579.7371 L268.1673,582.7955 L267.9536,582.6299 L270.3174,585.6442 L272.9386,588.858 L275.1955,591.7896 L277.3219,594.62 L279.6294,597.5907 L279.5213,597.4967 L282.0097,600.3466 L284.3068,603.0301 L287.1296,606.171 L289.6923,609.0855 L291.8981,611.6895 L292.0662,611.8523 L294.7182,614.588 L297.051,617.0145 L299.7207,619.7673 L302.1674,622.3042 L304.8894,625.1076 L304.9757,625.1998 L307.6903,627.7383 L310.509,630.3882 L312.9975,632.685 L315.7524,635.2666 L318.5191,637.8608 L318.6471,638.0108 L321.5196,640.4735 L324.0449,642.5292 L326.9736,645.0578 L329.9094,647.5946 L332.7032,649.965 L332.5359,649.7512 L335.7308,652.3828 L338.6355,654.6436 L341.4681,656.8122 L344.4655,659.1915 L347.3574,661.4358 L347.5469,661.6985 L350.2841,663.4938 L353.4554,665.8907 L356.4558,668.0508 L359.4197,670.1603 L362.3976,672.2893 L362.4324,672.3413 L365.494,674.3815 L368.3803,676.1593 L371.5039,678.2922 L374.5573,680.3201 L377.7397,682.541 L377.7547,682.5651 L380.8723,684.5075 L384.0016,686.4684 L387.0073,688.2307 L390.1717,690.2483 L393.2995,692.2069 L393.2727,692.1607 L396.5668,694.2479 L399.672,696.0093 L402.6074,697.4778 L405.838,699.4556 L408.9929,701.3028 L408.8706,701.0773 L412.2026,703.1238 L415.4191,704.9572 L418.5541,706.6405 L421.4949,707.966 L424.7358,709.8444 L424.8294,710.0282 L427.7276,711.1509 L431.0595,713.125 L434.1003,714.5278 L437.3219,716.2853 L440.444,717.8476 L440.4902,717.9439 L443.6527,719.5329 L446.5413,720.5514 L449.8891,722.5265 L452.9498,723.9035 L456.0334,725.3282 L456.0986,725.4721 L459.2479,727.0257 L462.1889,728.1199 L465.2974,729.5834 L468.3817,730.9936 L471.4198,732.302" fill="none" style="stroke:#181818;stroke-width:4;"/><polygon fill="#181818" points="476.91,734.7222,476.9619,734.7693,475.4834,733.1713,474.309,731.8493,473.0355,730.4375,471.4365,728.7299,470.2882,727.4317,470.264,727.4223,470.565,728.435,470.9877,729.4949,471.495,730.5877,471.7106,731.5672,472.3348,732.7054,472.4016,732.8774,471.2041,732.9188,470.2015,733.4626,469.2227,734.0676,468.1056,734.316,467.0612,734.752,467.0613,734.7748,469.0309,734.7354,471.0009,734.7996,472.9707,734.8138,474.9408,734.9234,476.91,734.7222" style="stroke:#181818;stroke-width:4;"/><text fill="#000000" font-family="Chalkduster" font-size="24" lengthAdjust="spacing" textLength="123.421" x="291.2983" y="512.8931">Publish /</text><text fill="#000000" font-family="Chalkduster" font-size="24" lengthAdjust="spacing" textLength="208.0177" x="249" y="543.5229">Archive Results</text></g><!--link an to comp--><g class="link" data-entity-1="an" data-entity-2="comp" data-source-line="34" data-uid="lnk23" id="link_an_comp"><path d="M327.46,297.8222 L327.5339,297.8794 L330.2344,301.4846 L333.368,305.4249 L336.3606,309.2561 L338.8894,312.7285 L342.0602,316.6975 L342.0327,316.6766 L345.1101,320.7929 L348.3261,325.0146 L351.6384,329.3095 L354.6187,333.3519 L358.0641,337.748 L358.2614,337.895 L361.244,342.1483 L364.8026,346.8309 L368.4315,351.5658 L371.6515,355.996 L375.0865,360.5865 L375.111,360.6043 L378.6062,365.426 L382.213,370.329 L385.766,375.1927 L389.4217,380.1313 L392.7425,384.826 L392.9858,384.9985 L396.5697,390.0512 L399.9966,394.9928 L403.6532,400.0972 L407.3206,405.2092 L410.6469,410.0793 L410.3827,409.8979 L414.4491,415.4261 L417.6454,420.3568 L421.5032,425.7417 L424.6798,430.659 L428.4147,435.9596 L428.3894,435.9427 L430.4313,438.7534 L431.8816,441.1692 L433.681,443.8181 L435.5097,446.4865 L437.127,449.0138 L437.2819,449.1149 L438.8323,451.626 L440.6474,454.3099 L442.0342,456.7141 L444.0598,459.5355 L445.6607,462.0795 L445.8662,462.2105 L447.4887,464.7915 L449.2133,467.4376 L450.4639,469.7815 L452.062,472.3469 L453.9678,475.1085 L453.7331,474.9629 L455.552,477.6834 L457.1065,480.2399 L459.0444,483.0344 L460.3276,485.4225 L462,488.0522 L461.8652,487.981 L463.1036,490.019 L463.7658,491.7525 L464.8378,493.7025 L466.3108,495.8644 L467.0697,497.649 L467.2504,497.7185 L468.0512,499.5262 L468.2898,501.1176 L469.2325,502.9798 L470.0219,504.783 L470.4538,506.4488 L470.2517,506.3917 L471.307,509.6009 L472.2961,512.7914 L473.4152,516.0186 L474.029,519.103 L474.925,522.2672 L475.1148,522.3461 L475.8995,525.065 L477.0505,527.9361 L478.7369,531.0297 L479.4378,533.7137 L480.9338,536.7281 L481.1009,536.8806 L483.6148,539.6549 L486.0723,542.3775 L488.6573,545.2166 L491.5374,548.3248 L494,551.0522 L493.92,550.9459 L496.0372,552.6765 L497.6103,553.6841 L499.8021,555.5138 L501.6455,556.8806 L503.3951,558.1227 L503.4556,558.2132 L505.256,559.3752 L507.2729,560.8613 L509.0942,562.0545 L510.8337,563.1254 L512.6411,564.2978 L512.7014,564.4007 L514.4334,565.3154 L516.4453,566.7077 L518.1407,567.5599 L519.9663,568.6343 L521.7491,569.6356 L521.6267,569.3945 L523.4638,570.3868 L525.4483,571.6694 L527.2242,572.5411 L528.9254,573.2655 L530.7303,574.1942 L530.6773,574.0611 L534.2196,575.506 L537.6681,576.7154 L541.3742,578.5723 L544.9528,580.1087 L548.3566,581.2055 L548.4168,581.4316 L551.8866,582.4221 L555.2422,582.983 L558.7183,583.9973 L562.1147,584.7115 L565.6095,585.7961 L565.6289,585.9209 L569.0201,586.4313 L572.4347,587.0924 L575.7751,587.2757 L579.1753,587.8444 L582.5782,588.4302 L582.5916,588.6268 L585.95,588.9101 L589.2722,588.6597 L592.6365,589.0293 L596.0016,589.4099 L599.3519,589.572 L599.35,589.3006 L602.6865,589.7519 L606.0198,589.7322 L609.3523,589.5956 L612.6866,589.7263 L616.0198,589.6859 L616.0285,590.0096 L619.3463,589.4569 L622.6842,589.6458 L626.0141,589.5428 L629.3423,589.3774 L632.6713,589.236 L632.6733,589.2986 L636.0178,589.1765 L639.3518,588.7389 L642.6999,588.7283 L646.0439,588.5914 L649.3955,588.6866 L649.3958,588.7149 L652.7732,588.6888 L656.1508,588.6846 L659.5258,588.4465 L662.9042,588.5088 L666.2817,588.5019 L666.2797,588.4485 L669.7189,588.887 L673.1439,588.9491 L676.5562,588.6729 L679.9905,588.985 L683.4193,589.1463 L683.391,588.8913 L686.929,589.6612 L690.4403,590.1901 L693.9328,590.5494 L697.3804,590.504 L700.8973,591.0839 L700.939,591.2859 L704.4122,591.4996 L708.0785,592.6491 L711.6152,593.1707 L715.2323,594.0822 L718.8052,594.7791 L718.8379,594.8808 L722.5547,596.1623 L726.0781,596.8412 L729.9259,598.5305 L733.5709,599.588 L737.2321,600.696 L737.2929,600.8418 L739.2473,601.7901 L741.0074,602.273 L742.9237,603.1299 L744.8174,603.9329 L746.6681,604.6327 L746.7064,604.7116 L748.5877,605.5657 L750.6458,606.7833 L752.3091,607.1888 L754.4573,608.5917 L756.2673,609.299 L756.1321,609.0568 L758.105,610.18 L760.1854,611.496 L762.1376,612.5822 L763.9794,613.4708 L766.0409,614.7528 L766.1392,614.9082 L768.0586,616.0536 L770.1972,617.5455 L772.1748,618.783 L773.9017,619.624 L776,621.0522 L775.8947,620.9101 L779.0189,623.2689 L782.2002,625.7048 L785.2658,627.9846 L788.2919,630.2111 L791.2652,632.3664 L791.1645,632.2526 L794.2743,635.0775 L797.0951,637.576 L799.7159,639.8489 L802.4809,642.2845 L805.3729,644.8634 L805.2447,644.7393 L807.901,647.4781 L810.6099,650.268 L813.1408,652.8854 L815.6259,655.4584 L818.3558,658.2686 L818.5211,658.4086 L820.5784,660.9446 L823.2827,664.0285 L825.6354,666.8147 L827.9949,669.6066 L830.247,672.3075 L830.4929,672.4925 L832.3261,675.1214 L834.4731,677.9864 L836.9306,681.0849 L838.7008,683.6664 L841.0792,686.7054 L840.9931,686.6471 L843.083,689.6307 L845.027,692.5155 L846.831,695.3056 L848.9084,698.2807 L850.8855,701.1879 L851.1671,701.3616 L852.8934,704.1976 L854.1851,706.7657 L856.203,709.7816 L857.7415,712.5018 L859.6986,715.4802 L859.6884,715.4744 L861.3824,718.31 L863.002,721.1034 L864.1534,723.6309 L866.1357,726.6302 L867.5515,729.3078" fill="none" style="stroke:#181818;stroke-width:4;"/><polygon fill="#181818" points="870.43,734.5722,870.4998,734.578,870.1307,732.5977,870.1709,730.6512,870.0779,728.6938,869.5464,726.7002,869.6218,724.7566,869.5969,724.7493,869.1673,725.8023,868.8629,726.8921,868.6456,728.0074,868.1282,729.0347,868.0312,730.1852,868.0831,730.3623,866.8864,729.6655,865.8412,729.4857,864.8145,729.369,863.6803,728.8853,862.6026,728.5946,862.6164,728.6127,864.1616,729.7817,865.7697,731.033,867.3474,732.2445,868.983,733.5319,870.43,734.5722" style="stroke:#181818;stroke-width:4;"/><text fill="#000000" font-family="Chalkduster" font-size="24" lengthAdjust="spacing" textLength="51.5271" x="515.3934" y="512.8931">Use,</text><text fill="#000000" font-family="Chalkduster" font-size="24" lengthAdjust="spacing" textLength="92.3138" x="495" y="543.5229">extend</text></g><!--reverse link cur to comp--><g class="link" data-entity-1="cur" data-entity-2="comp" data-source-line="35" data-uid="lnk24" id="link_cur_comp"><path d="M830.0153,303.4919 L830.2932,303.5281 L830.7743,313.4496 L832.8845,323.5834 L834.4643,333.648 L834.2995,343.4853 L836.4468,353.6239 L837.2925,363.5929 L838.6562,373.6294 L840.38,383.7128 L840.8629,393.6345 L843.8158,403.8781 L843.5573,413.7032 L845.436,423.8068 L847.5755,433.9443 L848.1978,443.8842 L849.7083,453.9398 L850.8827,463.9516 L852.4678,474.017 L853.8548,484.0565 L855.6199,494.1453 L857.0396,504.1891 L858.3573,514.2196 L859.1027,524.1755 L860.6858,534.2405 L862.3082,544.3107 L861.7331,554.0946 L864.8906,564.3648 L864.9083,574.2259 L867.313,584.398 L867.2595,594.2499 L869.1303,604.3524 L871.5083,614.5211 L871.7702,624.414 L873.2807,634.4696 L874.896,644.5389 L876.3055,654.5813 L877.0569,664.538 L878.7486,674.6172 L878.9189,684.4982 L881.3586,694.6749 L883.0142,704.7494 L884.184,714.7606 L885.7137,724.8187 L886.21,734.7422" fill="none" style="stroke:#181818;stroke-width:4;"/><polygon fill="#181818" points="829.24,297.5422,829.3072,297.5622,828.5469,299.3912,828.1803,301.3371,827.6856,303.245,826.7692,305.0276,826.4364,306.9836,826.4159,306.9678,827.0137,306.0003,827.715,305.1123,828.4882,304.2798,829.0135,303.2564,829.8861,302.5003,829.9986,302.6466,830.6546,303.0237,831.6392,303.8279,832.6638,304.6842,833.4553,305.2373,834.3694,305.9499,834.3888,305.9618,833.3344,304.2628,832.3684,302.6178,831.3598,300.9468,830.4325,299.3254,829.24,297.5422" style="stroke:#181818;stroke-width:4;"/><text fill="#000000" font-family="Chalkduster" font-size="24" lengthAdjust="spacing" textLength="114.0332" x="863.26" y="528.3931">Preserve</text></g><!--SRC=[NP5FImGn3CNl_HHnJmhE21wNPS4_5s-YY1T1CfquM-oqGvFkkeZVtRJhYElqC92yttj9U-A2zRcdrn737jhseaV1ncFNiEmzjV8XvkH8CyQUV8DMtDQ98swdF7fZn8cd9Lpzri45k0jl2LbIjf8JmKqCGXy2fvTdfdo9h60OFC7YKMB2WMRY02m0YysHn-SHTcKjCGE67Z3BXe8uY-9Y0AQqTTfS50BALXro8PBTk2rwUA0fijDOLqGQbBG0grMQw_lrkh9V0A2_FnxFCRtpXFO7j76S5DpDrSf1eGviY4BGHP4uGdohSdCJlTSrT5866c17dMOIcsBjmb33pBNhl8j3mccZGohJaxabVfSuLPSiTLVJjgqXlO8IPBxqcBfBq-IfQTOgzHwMkd1cCZOdRVHn5xHJPKkuFQniCC2_pdtM2NW35o_XS76aDfozS17FHZL3xs09JqpdBq7VMCUfKQjPCYlk4vMdeMy0]--></g></svg>