<svg xmlns="http://www.w3.org/2000/svg" xmlns:xlink="http://www.w3.org/1999/xlink" contentStyleType="text/css" data-diagram-type="DESCRIPTION" height="579px" preserveAspectRatio="none" style="width:671px;height:579px;background:#FFFFFF;" version="1.1" viewBox="0 0 671 579" width="671px" zoomAndPan="magnify"><defs/><g><!--cluster activities--><g class="cluster" data-entity="activities" data-source-line="6" data-uid="ent0002" id="cluster_activities"><rect fill="none" height="565.59" rx="2.5" ry="2.5" style="stroke:#181818;stroke-width:4;" width="658" x="7" y="7.5625"/><text fill="#000000" font-family="sans-serif" font-size="24" font-weight="bold" lengthAdjust="spacing" textLength="115.1836" x="278.4082" y="32.7656">Activities</text></g><!--entity plan--><g class="entity" data-entity="plan" data-source-line="7" data-uid="ent0003" id="entity_plan"><ellipse cx="52.9997" cy="96.3553" fill="#CCE5FF" rx="8" ry="8" style="stroke:#4682B4;stroke-width:2;"/><path d="M52.9997,104.3553 L52.9997,131.3553 M39.9997,112.3553 L65.9997,112.3553 M52.9997,131.3553 L39.9997,146.3553 M52.9997,131.3553 L65.9997,146.3553" fill="none" style="stroke:#4682B4;stroke-width:2;"/><text fill="#000000" font-family="sans-serif" font-size="30" lengthAdjust="spacing" textLength="60.4395" x="22.78" y="178.3592">Plan</text><text fill="#000000" font-family="sans-serif" font-size="12" font-style="italic" lengthAdjust="spacing" textLength="48.873" x="28.5632" y="83.8241">&#171;admin&#187;</text></g><!--entity coll--><g class="entity" data-entity="coll" data-source-line="8" data-uid="ent0004" id="entity_coll"><ellipse cx="209.0046" cy="96.3553" fill="#F1F1F1" rx="8" ry="8" style="stroke:#8B0000;stroke-width:2;"/><path d="M209.0046,104.3553 L209.0046,131.3553 M196.0046,112.3553 L222.0046,112.3553 M209.0046,131.3553 L196.0046,146.3553 M209.0046,131.3553 L222.0046,146.3553" fill="none" style="stroke:#8B0000;stroke-width:2;"/><text fill="#000000" font-family="sans-serif" font-size="30" lengthAdjust="spacing" textLength="99.8291" x="159.09" y="178.3592">Collect</text><text fill="#000000" font-family="sans-serif" font-size="12" font-style="italic" lengthAdjust="spacing" textLength="74.2441" x="171.8825" y="83.8241">&#171;workspace&#187;</text></g><!--entity prep--><g class="entity" data-entity="prep" data-source-line="9" data-uid="ent0005" id="entity_prep"><ellipse cx="398.0034" cy="78.6953" fill="#F1F1F1" rx="8" ry="8" style="stroke:#8B0000;stroke-width:2;"/><path d="M398.0034,86.6953 L398.0034,113.6953 M385.0034,94.6953 L411.0034,94.6953 M398.0034,113.6953 L385.0034,128.6953 M398.0034,113.6953 L411.0034,128.6953" fill="none" style="stroke:#8B0000;stroke-width:2;"/><text fill="#000000" font-family="sans-serif" font-size="30" lengthAdjust="spacing" textLength="125.6836" x="334.81" y="160.6992">Process/</text><text fill="#000000" font-family="sans-serif" font-size="30" lengthAdjust="spacing" textLength="126.3867" x="334.81" y="196.0313">Describe</text><text fill="#000000" font-family="sans-serif" font-size="12" font-style="italic" lengthAdjust="spacing" textLength="74.2441" x="360.8813" y="66.1641">&#171;workspace&#187;</text></g><!--entity dep--><g class="entity" data-entity="dep" data-source-line="10" data-uid="ent0006" id="entity_dep"><ellipse cx="303.9961" cy="433.4853" fill="#008000" rx="8" ry="8" style="stroke:#008000;stroke-width:2;"/><path d="M303.9961,441.4853 L303.9961,468.4853 M290.9961,449.4853 L316.9961,449.4853 M303.9961,468.4853 L290.9961,483.4853 M303.9961,468.4853 L316.9961,483.4853" fill="none" style="stroke:#008000;stroke-width:2;"/><text fill="#000000" font-family="sans-serif" font-size="30" lengthAdjust="spacing" textLength="127.4121" x="240.29" y="515.4892">Deposit/</text><text fill="#000000" font-family="sans-serif" font-size="30" lengthAdjust="spacing" textLength="105.3369" x="240.29" y="550.8213">Publish</text><text fill="#000000" font-family="sans-serif" font-size="12" font-style="italic" lengthAdjust="spacing" textLength="71.7188" x="268.1367" y="420.9541">&#171;repository&#187;</text></g><!--entity an--><g class="entity" data-entity="an" data-source-line="11" data-uid="ent0007" id="entity_an"><ellipse cx="592.9982" cy="96.3553" fill="#F1F1F1" rx="8" ry="8" style="stroke:#8B0000;stroke-width:2;"/><path d="M592.9982,104.3553 L592.9982,131.3553 M579.9982,112.3553 L605.9982,112.3553 M592.9982,131.3553 L579.9982,146.3553 M592.9982,131.3553 L605.9982,146.3553" fill="none" style="stroke:#8B0000;stroke-width:2;"/><text fill="#000000" font-family="sans-serif" font-size="30" lengthAdjust="spacing" textLength="112.2363" x="536.88" y="178.3592">Analyse</text><text fill="#000000" font-family="sans-serif" font-size="12" font-style="italic" lengthAdjust="spacing" textLength="74.2441" x="555.8761" y="83.8241">&#171;workspace&#187;</text></g><!--link plan to coll--><g class="link" data-entity-1="plan" data-entity-2="coll" data-source-line="8" data-uid="lnk8" id="link_plan_coll"><path d="M83.45,128.4525 C104.82,128.4525 127.89,128.4525 152.67,128.4525" fill="none" id="plan-to-coll" style="stroke:#8B0000;stroke-width:1;"/><polygon fill="#8B0000" points="158.67,128.4525,149.67,124.4525,153.67,128.4525,149.67,132.4525,158.67,128.4525" style="stroke:#8B0000;stroke-width:1;"/><text fill="#000000" font-family="sans-serif" font-size="18" lengthAdjust="spacing" textLength="39.1025" x="101.65" y="120.8548">then</text></g><!--link coll to prep--><g class="link" data-entity-1="coll" data-entity-2="prep" data-source-line="9" data-uid="lnk9" id="link_coll_prep"><path d="M259.15,128.4525 C282.23,128.4525 303.86,128.4525 328.38,128.4525" fill="none" id="coll-to-prep" style="stroke:#8B0000;stroke-width:1;"/><polygon fill="#8B0000" points="334.38,128.4525,325.38,124.4525,329.38,128.4525,325.38,132.4525,334.38,128.4525" style="stroke:#8B0000;stroke-width:1;"/><text fill="#000000" font-family="sans-serif" font-size="18" lengthAdjust="spacing" textLength="39.1025" x="277.36" y="120.8548">then</text></g><!--link prep to dep--><g class="link" data-entity-1="prep" data-entity-2="dep" data-source-line="10" data-uid="lnk10" id="link_prep_dep"><path d="M378.52,202.5525 C362.42,263.0025 341.1948,342.6448 325.0748,403.1448" fill="none" id="prep-to-dep" style="stroke:#8B0000;stroke-width:1;"/><polygon fill="#8B0000" points="323.53,408.9425,329.7123,401.2758,324.8173,404.1111,321.982,399.2161,323.53,408.9425" style="stroke:#8B0000;stroke-width:1;"/><text fill="#000000" font-family="sans-serif" font-size="18" lengthAdjust="spacing" textLength="39.1025" x="354.71" y="312.7548">then</text></g><!--link prep to an--><g class="link" data-entity-1="prep" data-entity-2="an" data-source-line="11" data-uid="lnk11" id="link_prep_an"><path d="M461.58,128.4525 C485.7,128.4525 506.98,128.4525 530.41,128.4525" fill="none" id="prep-to-an" style="stroke:#8B0000;stroke-width:1;"/><polygon fill="#8B0000" points="536.41,128.4525,527.41,124.4525,531.41,128.4525,527.41,132.4525,536.41,128.4525" style="stroke:#8B0000;stroke-width:1;"/><text fill="#000000" font-family="sans-serif" font-size="18" lengthAdjust="spacing" textLength="39.1025" x="479.54" y="120.8548">then</text></g><!--reverse link prep to an--><g class="link" data-entity-1="prep" data-entity-2="an" data-source-line="12" data-uid="lnk13" id="link_prep_an"><path d="M467.3738,152.679 C486.0038,156.869 500.61,157.7125 519.54,154.4525 C525.14,153.4925 530.88,152.1525 536.56,150.5725" fill="none" id="prep-backto-an" style="stroke:#8B0000;stroke-width:1;"/><polygon fill="#8B0000" points="461.52,151.3625,469.423,157.2398,466.3981,152.4596,471.1784,149.4348,461.52,151.3625" style="stroke:#8B0000;stroke-width:1;"/><text fill="#000000" font-family="sans-serif" font-size="18" lengthAdjust="spacing" textLength="39.1025" x="479.54" y="149.8548">then</text></g><!--reverse link coll to dep--><g class="link" data-entity-1="coll" data-entity-2="dep" data-source-line="13" data-uid="lnk15" id="link_coll_dep"><path d="M225.5096,190.7663 C241.7796,251.2063 266.33,342.3525 284.27,409.0025" fill="none" id="coll-backto-dep" style="stroke:#8B0000;stroke-width:1;"/><polygon fill="#8B0000" points="223.95,184.9725,222.427,194.7029,225.2497,189.8006,230.152,192.6234,223.95,184.9725" style="stroke:#8B0000;stroke-width:1;"/><text fill="#000000" font-family="sans-serif" font-size="18" lengthAdjust="spacing" textLength="39.1025" x="260.24" y="312.7548">then</text></g><!--SRC=[NOrB3i8m34JtEOLx08Sz2ww2J6ne9EUZrWLw-vQehKIz6iqRptGn1vrOxedo3DvVc8nGwO6ZpIhUlkQwlqmgB8eKBBwZHHbzdPAwTbKf0mxnrHlU81HLk8BrabtJ1wc3r9qqZSZbat55V2Rxpzgy-RyDbUTHjFdWk3LD5K_ZRW40]--></g></svg>