<svg xmlns="http://www.w3.org/2000/svg" xmlns:xlink="http://www.w3.org/1999/xlink" contentStyleType="text/css" data-diagram-type="DESCRIPTION" height="952px" preserveAspectRatio="none" style="width:1263px;height:952px;background:#FFFFFF;" version="1.1" viewBox="0 0 1263 952" width="1263px" zoomAndPan="magnify"><defs/><g><!--cluster activities--><g class="cluster" data-entity="activities" data-source-line="6" data-uid="ent0002" id="cluster_activities"><rect fill="none" height="241.8" rx="2.5" ry="2.5" style="stroke:#181818;stroke-width:4;" width="698" x="352" y="46.2969"/><text fill="#000000" font-family="sans-serif" font-size="24" font-weight="bold" lengthAdjust="spacing" textLength="115.1836" x="643.4082" y="71.5">Activities</text></g><!--cluster infra--><g class="cluster" data-entity="infra" data-source-line="11" data-uid="ent0008" id="cluster_infra"><rect fill="none" height="287.53" rx="2.5" ry="2.5" style="stroke:#181818;stroke-width:4;" width="1250" x="7" y="488.0969"/><text fill="#000000" font-family="sans-serif" font-size="24" font-weight="bold" lengthAdjust="spacing" textLength="171.8906" x="546.0547" y="513.3">Infrastructure</text></g><!--cluster ws--><g class="cluster" data-entity="ws" data-source-line="16" data-uid="ent0011" id="cluster_ws"><rect fill="#FFE4E1" height="208.53" rx="2.5" ry="2.5" style="stroke:#181818;stroke-width:4;" width="599" x="634" y="543.0969"/><text fill="#000000" font-family="sans-serif" font-size="12" font-style="italic" lengthAdjust="spacing" textLength="74.2441" x="896.3779" y="556.6984">&#171;workspace&#187;</text><text fill="#000000" font-family="sans-serif" font-size="24" font-weight="bold" lengthAdjust="spacing" textLength="147.1055" x="859.9473" y="582.4328">Workspaces</text></g><!--entity plan--><g class="entity" data-entity="plan" data-source-line="7" data-uid="ent0003" id="entity_plan"><ellipse cx="397.9997" cy="166.0997" fill="#CCE5FF" rx="8" ry="8" style="stroke:#4682B4;stroke-width:2;"/><path d="M397.9997,174.0997 L397.9997,201.0997 M384.9997,182.0997 L410.9997,182.0997 M397.9997,201.0997 L384.9997,216.0997 M397.9997,201.0997 L410.9997,216.0997" fill="none" style="stroke:#4682B4;stroke-width:2;"/><text fill="#000000" font-family="sans-serif" font-size="30" lengthAdjust="spacing" textLength="60.4395" x="367.78" y="248.1036">Plan</text><text fill="#000000" font-family="sans-serif" font-size="12" font-style="italic" lengthAdjust="spacing" textLength="48.873" x="373.5632" y="153.5684">&#171;admin&#187;</text></g><!--entity coll--><g class="entity" data-entity="coll" data-source-line="8" data-uid="ent0004" id="entity_coll"><ellipse cx="676.0046" cy="166.0997" fill="#F1F1F1" rx="8" ry="8" style="stroke:#8B0000;stroke-width:2;"/><path d="M676.0046,174.0997 L676.0046,201.0997 M663.0046,182.0997 L689.0046,182.0997 M676.0046,201.0997 L663.0046,216.0997 M676.0046,201.0997 L689.0046,216.0997" fill="none" style="stroke:#8B0000;stroke-width:2;"/><text fill="#000000" font-family="sans-serif" font-size="30" lengthAdjust="spacing" textLength="99.8291" x="626.09" y="248.1036">Collect</text><text fill="#000000" font-family="sans-serif" font-size="12" font-style="italic" lengthAdjust="spacing" textLength="74.2441" x="638.8825" y="153.5684">&#171;workspace&#187;</text></g><!--entity prep--><g class="entity" data-entity="prep" data-source-line="9" data-uid="ent0005" id="entity_prep"><ellipse cx="824.0034" cy="148.4297" fill="#F1F1F1" rx="8" ry="8" style="stroke:#8B0000;stroke-width:2;"/><path d="M824.0034,156.4297 L824.0034,183.4297 M811.0034,164.4297 L837.0034,164.4297 M824.0034,183.4297 L811.0034,198.4297 M824.0034,183.4297 L837.0034,198.4297" fill="none" style="stroke:#8B0000;stroke-width:2;"/><text fill="#000000" font-family="sans-serif" font-size="30" lengthAdjust="spacing" textLength="125.6836" x="760.81" y="230.4336">Process/</text><text fill="#000000" font-family="sans-serif" font-size="30" lengthAdjust="spacing" textLength="126.3867" x="760.81" y="265.7656">Describe</text><text fill="#000000" font-family="sans-serif" font-size="12" font-style="italic" lengthAdjust="spacing" textLength="74.2441" x="786.8813" y="135.8984">&#171;workspace&#187;</text></g><!--entity dep--><g class="entity" data-entity="dep" data-source-line="10" data-uid="ent0006" id="entity_dep"><ellipse cx="526.9961" cy="148.4297" fill="#008000" rx="8" ry="8" style="stroke:#008000;stroke-width:2;"/><path d="M526.9961,156.4297 L526.9961,183.4297 M513.9961,164.4297 L539.9961,164.4297 M526.9961,183.4297 L513.9961,198.4297 M526.9961,183.4297 L539.9961,198.4297" fill="none" style="stroke:#008000;stroke-width:2;"/><text fill="#000000" font-family="sans-serif" font-size="30" lengthAdjust="spacing" textLength="127.4121" x="463.29" y="230.4336">Deposit/</text><text fill="#000000" font-family="sans-serif" font-size="30" lengthAdjust="spacing" textLength="105.3369" x="463.29" y="265.7656">Publish</text><text fill="#000000" font-family="sans-serif" font-size="12" font-style="italic" lengthAdjust="spacing" textLength="71.7188" x="491.1367" y="135.8984">&#171;repository&#187;</text></g><!--entity an--><g class="entity" data-entity="an" data-source-line="11" data-uid="ent0007" id="entity_an"><ellipse cx="977.9982" cy="166.0997" fill="#F1F1F1" rx="8" ry="8" style="stroke:#8B0000;stroke-width:2;"/><path d="M977.9982,174.0997 L977.9982,201.0997 M964.9982,182.0997 L990.9982,182.0997 M977.9982,201.0997 L964.9982,216.0997 M977.9982,201.0997 L990.9982,216.0997" fill="none" style="stroke:#8B0000;stroke-width:2;"/><text fill="#000000" font-family="sans-serif" font-size="30" lengthAdjust="spacing" textLength="112.2363" x="921.88" y="248.1036">Analyse</text><text fill="#000000" font-family="sans-serif" font-size="12" font-style="italic" lengthAdjust="spacing" textLength="74.2441" x="940.8761" y="153.5684">&#171;workspace&#187;</text></g><!--entity admin--><g class="entity" data-entity="admin" data-source-line="12" data-uid="ent0009" id="entity_admin"><rect fill="#CCE5FF" height="62.3984" rx="2.5" ry="2.5" style="stroke:#181818;stroke-width:4;" width="291.1133" x="23.44" y="661.1569"/><text fill="#000000" font-family="sans-serif" font-size="12" font-style="italic" lengthAdjust="spacing" textLength="48.873" x="144.5601" y="682.7584">&#171;admin&#187;</text><text fill="#000000" font-family="sans-serif" font-size="24" lengthAdjust="spacing" textLength="271.1133" x="33.44" y="708.4928">Administrative Systems</text></g><!--entity repo--><g class="entity" data-entity="repo" data-source-line="14" data-uid="ent0010" id="entity_repo"><path d="M349.82,666.6569 C349.82,656.6569 481.9997,656.6569 481.9997,656.6569 C481.9997,656.6569 614.1794,656.6569 614.1794,666.6569 L614.1794,718.0553 C614.1794,728.0553 481.9997,728.0553 481.9997,728.0553 C481.9997,728.0553 349.82,728.0553 349.82,718.0553 L349.82,666.6569" fill="#98FB98" style="stroke:#181818;stroke-width:4;"/><path d="M349.82,666.6569 C349.82,676.6569 481.9997,676.6569 481.9997,676.6569 C481.9997,676.6569 614.1794,676.6569 614.1794,666.6569" fill="none" style="stroke:#181818;stroke-width:4;"/><text fill="#000000" font-family="sans-serif" font-size="12" font-style="italic" lengthAdjust="spacing" textLength="71.7188" x="446.1403" y="692.2584">&#171;repository&#187;</text><text fill="#000000" font-family="sans-serif" font-size="24" lengthAdjust="spacing" textLength="244.3594" x="359.82" y="717.9928">Archival Repositories</text></g><!--entity risk--><g class="entity" data-entity="risk" data-source-line="17" data-uid="ent0012" id="entity_risk"><path d="M649.56,673.7269 C649.56,663.7269 754.9975,663.7269 754.9975,663.7269 C754.9975,663.7269 860.435,663.7269 860.435,673.7269 L860.435,710.9925 C860.435,720.9925 754.9975,720.9925 754.9975,720.9925 C754.9975,720.9925 649.56,720.9925 649.56,710.9925 L649.56,673.7269" fill="none" style="stroke:#181818;stroke-width:4;"/><path d="M649.56,673.7269 C649.56,683.7269 754.9975,683.7269 754.9975,683.7269 C754.9975,683.7269 860.435,683.7269 860.435,673.7269" fill="none" style="stroke:#181818;stroke-width:4;"/><text fill="#000000" font-family="sans-serif" font-size="24" lengthAdjust="spacing" textLength="190.875" x="659.56" y="710.93">Working storage</text></g><!--entity comp--><g class="entity" data-entity="comp" data-source-line="18" data-uid="ent0013" id="entity_comp"><path d="M904.0277,658.3846 C909.5629,647.1516 918.304,647.1216 925.0615,657.1769 C933.4217,648.5245 942.3343,646.3884 948.5147,659.5234 C953.8504,648.3592 963.741,650.303 969.4864,659.0929 C975.1864,648.2878 982.3892,646.568 991.6414,655.0023 C997.9267,643.4353 1008.7816,642.5786 1014.8709,655.1905 C1020.7099,645.1321 1031.8199,644.8203 1037.3097,655.567 C1043.1201,646.5327 1052.9587,645.7004 1057.2586,657.0456 C1064.2213,645.7197 1070.5477,646.5187 1077.8875,656.6836 C1085.7389,645.1074 1093.0741,645.3237 1102.0806,655.3926 C1110.4531,644.1988 1120.4358,646.2983 1125.4198,658.7388 C1132.1,649.3423 1139.0818,650.4617 1145.2607,659.2846 C1150.8809,648.9031 1160.669,649.3308 1166.164,659.4125 C1172.7857,648.3571 1180.6126,650.0593 1187.1581,659.4904 C1194.1565,648.0892 1203.6907,649.7959 1209.0565,661.0672 C1229.6059,668.7692 1229.4095,681.2564 1216.7032,696.197 C1229.6385,710.8983 1229.3946,721.5408 1209.9478,729.7159 C1205.0693,739.8408 1197.7763,740.2205 1190.1947,732.7505 C1183.11,741.699 1175.2287,743.4199 1168.3373,732.5375 C1162.2534,742.3382 1152.7913,743.0147 1145.375,734.1794 C1140.105,745.8961 1131.0642,749.7826 1121.8794,738.1125 C1116.7116,748.3541 1106.599,748.5502 1100.8402,738.7323 C1095.3299,749.2461 1088.3521,747.0931 1081.8501,739.7893 C1075.6062,750.3341 1064.7207,750.1395 1058.1532,740.163 C1052.405,748.1436 1042.7407,747.9089 1038.0427,738.9186 C1031.0113,748.3798 1019.3357,750.5138 1013.7142,737.3991 C1006.9021,749.4113 998.5013,749.2271 990.5904,738.5174 C981.7085,745.8143 973.3433,747.1144 968.6951,733.9803 C963.3254,742.3116 956.2484,742.3162 950.4338,734.4828 C941.8528,743.9582 934.511,744.363 927.0693,733.1934 C919.5371,743.0007 909.4681,741.1808 903.8895,730.9352 C885.4734,722.2591 885.753,705.7974 902.6265,695.8509 C886.7326,685.1095 884.4923,667.801 904.0277,658.3846" fill="none" style="stroke:#181818;stroke-width:4;"/><text fill="#000000" font-family="sans-serif" font-size="24" lengthAdjust="spacing" textLength="241.125" x="910.11" y="687.3">Applications, tools &amp;</text><text fill="#000000" font-family="sans-serif" font-size="24" lengthAdjust="spacing" textLength="291.7734" x="910.11" y="715.5656">computing environments</text></g><!--entity new--><g class="entity" data-entity="new" data-source-line="23" data-uid="ent0014" id="entity_new"><path d="M170.1564,148.8295 C173.6435,142.5792 179.5199,143.7941 182.3326,149.5154 C184.8874,144.2758 189.6324,143.4646 193.5133,147.9982 C197.1133,141.0144 201.3828,141.0954 206.7119,146.0935 C209.3596,140.7303 214.8431,139.9607 218.2259,145.303 C221.2193,139.6696 224.4622,139.3543 228.2382,144.5815 C231.566,137.9426 236.4086,137.2865 240.9196,143.4053 C245.251,138.7039 249.1805,137.7105 252.8943,144.0736 C257.5423,139.5532 261.401,141.0321 264.1459,146.2684 C267.7667,140.9456 273.912,140.9623 276.8884,146.9917 C280.3628,141.0047 284.9541,141.398 288.5798,146.8369 C292.1613,142.7607 297.1714,143.3017 299.5528,148.2897 C309.1151,140.6214 316.0217,144.4074 317.7002,155.7969 C318.4197,155.83 318.6812,156.1514 318.4897,156.8606 C324.1931,160.8322 325.4564,166.6891 318.7502,170.8912 C326.2201,174.0502 326.9968,181.1358 320.908,186.2053 C326.8362,189.9836 326.9463,194.87 321.2446,198.9554 C327.3733,202.9126 327.9632,210.0523 321.276,214.0363 C327.2448,218.1588 326.5366,224.1914 319.7955,226.8448 C327.3899,236.9816 323.9772,246.606 310.7002,247.5938 C311.2117,247.6066 311.3412,247.9434 311.1285,248.3607 C308.2505,253.8513 304.2244,253.3289 300.7738,248.9622 C297.847,255.7783 291.3975,256.4102 287.8349,249.5643 C285.0154,256.3113 278.9718,256.0365 275.616,250.0802 C273.1878,255.9976 269.6034,257.4722 264.7522,252.4968 C262.4113,257.3631 257.2,257.8644 253.7993,253.7962 C250.0436,259.0535 244.0506,258.7258 241.1435,252.833 C237.0652,258.5887 232.4604,257.5933 228.8597,252.3019 C225.854,256.9308 220.7903,256.4542 218.5843,251.449 C215.2578,257.9733 209.0919,258.4143 205.694,251.5176 C201.3488,255.8864 196.5206,255.7824 193.6845,249.7714 C189.2408,254.9443 184.8285,255.3474 181.7148,248.4522 C171.0425,255.9988 165.5187,251.4465 162.29,240.5938 C163.8642,240.3366 164.4498,241.2593 164.1512,242.676 C156.3976,239.2726 155.7445,231.7108 162.5745,226.8541 C154.569,223.3046 153.7178,218.3715 160.2035,212.4386 C154.1521,209.2673 154.2448,202.8938 159.965,199.5055 C153.293,195.1281 153.2602,188.198 160.2889,184.1087 C155.0304,178.5198 156.3224,174.0373 163.1852,171.1597 C154.8662,162.7594 157.9613,151.8336 169.29,148.7969 C169.5956,148.3802 169.8823,148.4106 170.1564,148.8295" fill="none" style="stroke:#181818;stroke-width:4;"/><text fill="#000000" font-family="sans-serif" font-size="24" lengthAdjust="spacing" textLength="85.3828" x="169.29" y="179">Novel /</text><text fill="#000000" font-family="sans-serif" font-size="24" lengthAdjust="spacing" textLength="141.4102" x="169.29" y="207.2656">non-archive</text><text fill="#000000" font-family="sans-serif" font-size="24" lengthAdjust="spacing" textLength="50.5898" x="169.29" y="235.5313">data</text></g><g class="entity" data-entity="GMN15" data-source-line="26" data-uid="ent0016" id="entity_GMN15"><path d="M627.04,822.6269 L627.04,945.6894 A0,0 0 0 0 627.04,945.6894 L882.9658,945.6894 A0,0 0 0 0 882.9658,945.6894 L882.9658,832.6269 L872.9658,822.6269 L759,822.6269 L755,721.3669 L751,822.6269 L627.04,822.6269 A0,0 0 0 0 627.04,822.6269" fill="#FFFFE0" style="stroke:#181818;stroke-width:4;"/><path d="M872.9658,822.6269 L872.9658,832.6269 L882.9658,832.6269 L872.9658,822.6269" fill="#FFFFE0" style="stroke:#181818;stroke-width:4;"/><text fill="#000000" font-family="sans-serif" font-size="24" lengthAdjust="spacing" textLength="165.2461" x="633.04" y="850.83">-Unmanaged/</text><text fill="#000000" font-family="sans-serif" font-size="24" lengthAdjust="spacing" textLength="214.3008" x="633.04" y="879.0956">non-secure assets</text><text fill="#000000" font-family="sans-serif" font-size="24" lengthAdjust="spacing" textLength="234.9258" x="633.04" y="907.3613">-Newly created data</text><text fill="#000000" font-family="sans-serif" font-size="24" lengthAdjust="spacing" textLength="144.8672" x="633.04" y="935.6269">-Data in use</text></g><!--link an to comp--><g class="link" data-entity-1="an" data-entity-2="comp" data-source-line="28" data-uid="lnk18" id="link_an_comp"><path d="M987.7387,260.623 C1003.4687,359.923 1034.2406,554.0509 1048.3406,643.0009" fill="none" id="an-comp" style="stroke:#8B0000;stroke-width:10;"/><polygon fill="#8B0000" points="986.8,254.6969,984.2574,264.2119,987.5823,259.6353,992.1589,262.9602,986.8,254.6969" style="stroke:#8B0000;stroke-width:10;"/><polygon fill="#8B0000" points="1049.28,648.9269,1051.8216,639.4116,1048.4972,643.9885,1043.9203,640.6641,1049.28,648.9269" style="stroke:#8B0000;stroke-width:10;"/><text fill="#000000" font-family="sans-serif" font-size="18" lengthAdjust="spacing" textLength="31.6758" x="1012.39" y="394.9992">Use</text></g><!--link prep to comp--><g class="link" data-entity-1="prep" data-entity-2="comp" data-source-line="29" data-uid="lnk19" id="link_prep_comp"><path d="M861.0385,277.774 C910.2085,382.074 993.762,559.3195 1033.372,643.3595" fill="none" id="prep-comp" style="stroke:#8B0000;stroke-width:5;"/><polygon fill="#8B0000" points="858.48,272.3469,858.6997,282.1933,860.6121,276.8695,865.9359,278.7819,858.48,272.3469" style="stroke:#8B0000;stroke-width:5;"/><polygon fill="#8B0000" points="1035.93,648.7869,1035.7112,638.9404,1033.7983,644.2641,1028.4747,642.3512,1035.93,648.7869" style="stroke:#8B0000;stroke-width:5;"/><text fill="#000000" font-family="sans-serif" font-size="18" lengthAdjust="spacing" textLength="31.6758" x="924.32" y="394.9992">Use</text></g><!--link plan to admin--><g class="link" data-entity-1="plan" data-entity-2="admin" data-source-line="30" data-uid="lnk20" id="link_plan_admin"><path d="M372.18,254.6969 C323.75,358.7769 223.3313,574.597 185.6913,655.487" fill="none" id="plan-to-admin" style="stroke:#8B0000;stroke-width:5;"/><polygon fill="#8B0000" points="183.16,660.9269,190.5836,654.4546,185.2694,656.3936,183.3304,651.0795,183.16,660.9269" style="stroke:#8B0000;stroke-width:5;"/><text fill="#000000" font-family="sans-serif" font-size="18" lengthAdjust="spacing" textLength="31.6758" x="321.24" y="394.9992">Use</text></g><!--link new to coll--><g class="link" data-entity-1="new" data-entity-2="coll" data-source-line="31" data-uid="lnk21" id="link_new_coll"><path d="M266.11,140.3769 C284.77,106.6069 313.42,66.9269 352,47.5269 C402.83,21.9769 560.21,16.6669 608,47.5269 C640.06,68.2369 655.5977,102.3038 664.6377,135.8238" fill="none" id="new-to-coll" style="stroke:#8B0000;stroke-width:1;"/><polygon fill="#8B0000" points="666.2,141.6169,667.7185,131.8858,664.8981,136.7894,659.9945,133.9689,666.2,141.6169" style="stroke:#8B0000;stroke-width:1;"/><text fill="#000000" font-family="sans-serif" font-size="18" lengthAdjust="spacing" textLength="299.7422" x="326.5" y="25.6992">Import data from external sources</text></g><!--link coll to risk--><g class="link" data-entity-1="coll" data-entity-2="risk" data-source-line="32" data-uid="lnk23" id="link_coll_risk"><path d="M685.8611,260.621 C702.7311,365.701 736.8688,578.4028 749.5388,657.3128" fill="none" id="coll-risk" style="stroke:#8B0000;stroke-width:1;"/><polygon fill="#8B0000" points="684.91,254.6969,682.3872,264.2171,685.7026,259.6337,690.2861,262.949,684.91,254.6969" style="stroke:#8B0000;stroke-width:1;"/><polygon fill="#8B0000" points="750.49,663.2369,753.0126,653.7166,749.6973,658.3001,745.1138,654.9848,750.49,663.2369" style="stroke:#8B0000;stroke-width:1;"/><text fill="#000000" font-family="sans-serif" font-size="18" lengthAdjust="spacing" textLength="96.082" x="736.3522" y="384.4992">Store / use</text><text fill="#000000" font-family="sans-serif" font-size="18" lengthAdjust="spacing" textLength="147.1465" x="710.82" y="405.6984">in-progress data</text></g><!--reverse link coll to repo--><g class="link" data-entity-1="coll" data-entity-2="repo" data-source-line="33" data-uid="lnk25" id="link_coll_repo"><path d="M651.9197,260.2789 C611.6397,362.4689 529.02,572.0569 495.78,656.3969" fill="none" id="coll-backto-repo" style="stroke:#8B0000;stroke-width:1;"/><polygon fill="#8B0000" points="654.12,254.6969,647.0983,261.6031,652.2865,259.3486,654.541,264.5367,654.12,254.6969" style="stroke:#8B0000;stroke-width:1;"/><text fill="#000000" font-family="sans-serif" font-size="18" lengthAdjust="spacing" textLength="62.2002" x="611.12" y="394.9992">Re-use</text></g><!--link dep to repo--><g class="link" data-entity-1="dep" data-entity-2="repo" data-source-line="34" data-uid="lnk26" id="link_dep_repo"><path d="M520.31,272.3469 C510.48,379.8569 493.0563,570.4418 485.7563,650.2818" fill="none" id="dep-to-repo" style="stroke:#8B0000;stroke-width:1;"/><polygon fill="#8B0000" points="485.21,656.2569,490.0129,647.6585,485.6653,651.2776,482.0461,646.93,485.21,656.2569" style="stroke:#8B0000;stroke-width:1;"/><text fill="#000000" font-family="sans-serif" font-size="18" lengthAdjust="spacing" textLength="64.7227" x="512.72" y="394.9992">Archive</text></g><!--SRC=[PLAnRjim4Dtv5HSFcKgx6Re4he42NR9aI11qg8g2fiuoOUeey4vMX2B_tYDjet6gHTBTU_VUu_4ca8zZYxzxHpCibwlMYRFHRItB774fhs9khZ1zQZ5QvoKSWmJavJ3sqLoUZ5uSTH5XyK2xx5Zow6NCk03744e9_XXu1_lMze62ufnEH7YUMR3d1QpNhdGscqAidmOC57jRnuMN_JuSNOGd7187ILdDL9Mi1QNdIttM6QhvTYNx8-K33yvZbPekVoUvYGkXFly42oDG1wmZNNSAb0CVpa0VqzYghM68mMkMHFm99AN8SDkGJ_qmIg4Z7KDEr2F9oMvfLNVcpPZpbCTqn0YhXYYHTJKfDbIyL0hX17hOb0HXcqHI3sbNpTo3VI7TanfiptH6h-UlD4RXXkmZJd46dz49jZMV5h_hIzS38wCnZc1jVye- -0CXyzUxpx_iflg4UtXHnA1dUmtvyX4HTSX_WBh6Cw9ai3Q7RY-sScFKpaC_f2pL5Uoovi9NmKowPavZrcsPabArxJYyepthJX1MnNv3WUoGKvTLjWuozK9yO3oXBLbR3M9jcoRILiLfxtIrz23-0W00]--></g></svg>