<svg xmlns="http://www.w3.org/2000/svg" xmlns:xlink="http://www.w3.org/1999/xlink" contentStyleType="text/css" data-diagram-type="DESCRIPTION" height="838px" preserveAspectRatio="none" style="width:355px;height:838px;background:#FFFFFF;" version="1.1" viewBox="0 0 355 838" width="355px" zoomAndPan="magnify"><defs/><g><!--cluster activities--><g class="cluster" data-entity="activities" data-source-line="6" data-uid="ent0002" id="cluster_activities"><rect fill="none" height="824.52" rx="2.5" ry="2.5" style="stroke:#181818;stroke-width:4;" width="342" x="7" y="7.5625"/><text fill="#000000" font-family="sans-serif" font-size="24" font-weight="bold" lengthAdjust="spacing" textLength="115.1836" x="120.4082" y="32.7656">Activities</text></g><!--entity plan--><g class="entity" data-entity="plan" data-source-line="7" data-uid="ent0003" id="entity_plan"><ellipse cx="183.9997" cy="78.6953" fill="#CCE5FF" rx="8" ry="8" style="stroke:#4682B4;stroke-width:2;"/><path d="M183.9997,86.6953 L183.9997,113.6953 M170.9997,94.6953 L196.9997,94.6953 M183.9997,113.6953 L170.9997,128.6953 M183.9997,113.6953 L196.9997,128.6953" fill="none" style="stroke:#4682B4;stroke-width:2;"/><text fill="#000000" font-family="sans-serif" font-size="30" lengthAdjust="spacing" textLength="60.4395" x="153.78" y="160.6992">Plan</text><text fill="#000000" font-family="sans-serif" font-size="12" font-style="italic" lengthAdjust="spacing" textLength="48.873" x="159.5632" y="66.1641">&#171;admin&#187;</text></g><!--entity coll--><g class="entity" data-entity="coll" data-source-line="8" data-uid="ent0004" id="entity_coll"><ellipse cx="184.0046" cy="251.1553" fill="#F1F1F1" rx="8" ry="8" style="stroke:#8B0000;stroke-width:2;"/><path d="M184.0046,259.1553 L184.0046,286.1553 M171.0046,267.1553 L197.0046,267.1553 M184.0046,286.1553 L171.0046,301.1553 M184.0046,286.1553 L197.0046,301.1553" fill="none" style="stroke:#8B0000;stroke-width:2;"/><text fill="#000000" font-family="sans-serif" font-size="30" lengthAdjust="spacing" textLength="99.8291" x="134.09" y="333.1592">Collect</text><text fill="#000000" font-family="sans-serif" font-size="12" font-style="italic" lengthAdjust="spacing" textLength="74.2441" x="146.8825" y="238.6241">&#171;workspace&#187;</text></g><!--entity prep--><g class="entity" data-entity="prep" data-source-line="9" data-uid="ent0005" id="entity_prep"><ellipse cx="86.0034" cy="423.6253" fill="#F1F1F1" rx="8" ry="8" style="stroke:#8B0000;stroke-width:2;"/><path d="M86.0034,431.6253 L86.0034,458.6253 M73.0034,439.6253 L99.0034,439.6253 M86.0034,458.6253 L73.0034,473.6253 M86.0034,458.6253 L99.0034,473.6253" fill="none" style="stroke:#8B0000;stroke-width:2;"/><text fill="#000000" font-family="sans-serif" font-size="30" lengthAdjust="spacing" textLength="125.6836" x="22.81" y="505.6292">Process/</text><text fill="#000000" font-family="sans-serif" font-size="30" lengthAdjust="spacing" textLength="126.3867" x="22.81" y="540.9613">Describe</text><text fill="#000000" font-family="sans-serif" font-size="12" font-style="italic" lengthAdjust="spacing" textLength="74.2441" x="48.8813" y="411.0941">&#171;workspace&#187;</text></g><!--entity dep--><g class="entity" data-entity="dep" data-source-line="10" data-uid="ent0006" id="entity_dep"><ellipse cx="177.9961" cy="692.4153" fill="#008000" rx="8" ry="8" style="stroke:#008000;stroke-width:2;"/><path d="M177.9961,700.4153 L177.9961,727.4153 M164.9961,708.4153 L190.9961,708.4153 M177.9961,727.4153 L164.9961,742.4153 M177.9961,727.4153 L190.9961,742.4153" fill="none" style="stroke:#008000;stroke-width:2;"/><text fill="#000000" font-family="sans-serif" font-size="30" lengthAdjust="spacing" textLength="127.4121" x="114.29" y="774.4192">Deposit/</text><text fill="#000000" font-family="sans-serif" font-size="30" lengthAdjust="spacing" textLength="105.3369" x="114.29" y="809.7513">Publish</text><text fill="#000000" font-family="sans-serif" font-size="12" font-style="italic" lengthAdjust="spacing" textLength="71.7188" x="142.1367" y="679.8841">&#171;repository&#187;</text></g><!--entity an--><g class="entity" data-entity="an" data-source-line="11" data-uid="ent0007" id="entity_an"><ellipse cx="239.9982" cy="441.2853" fill="#F1F1F1" rx="8" ry="8" style="stroke:#8B0000;stroke-width:2;"/><path d="M239.9982,449.2853 L239.9982,476.2853 M226.9982,457.2853 L252.9982,457.2853 M239.9982,476.2853 L226.9982,491.2853 M239.9982,476.2853 L252.9982,491.2853" fill="none" style="stroke:#8B0000;stroke-width:2;"/><text fill="#000000" font-family="sans-serif" font-size="30" lengthAdjust="spacing" textLength="112.2363" x="183.88" y="523.2892">Analyse</text><text fill="#000000" font-family="sans-serif" font-size="12" font-style="italic" lengthAdjust="spacing" textLength="74.2441" x="202.8761" y="428.7541">&#171;workspace&#187;</text></g><!--link plan to coll--><g class="link" data-entity-1="plan" data-entity-2="coll" data-source-line="5" data-uid="lnk8" id="link_plan_coll"><path d="M184,167.1325 C184,186.1925 184,201.5225 184,220.6025" fill="none" id="plan-to-coll" style="stroke:#8B0000;stroke-width:1;"/><polygon fill="#8B0000" points="184,226.6025,188,217.6025,184,221.6025,180,217.6025,184,226.6025" style="stroke:#8B0000;stroke-width:1;"/></g><!--link coll to prep--><g class="link" data-entity-1="coll" data-entity-2="prep" data-source-line="6" data-uid="lnk9" id="link_coll_prep"><path d="M154.99,339.9425 C145.34,358.4625 137.2128,374.0716 126.9728,393.7216" fill="none" id="coll-to-prep" style="stroke:#8B0000;stroke-width:1;"/><polygon fill="#8B0000" points="124.2,399.0425,131.9064,392.9097,126.5107,394.6084,124.812,389.2127,124.2,399.0425" style="stroke:#8B0000;stroke-width:1;"/></g><!--link prep to dep--><g class="link" data-entity-1="prep" data-entity-2="dep" data-source-line="7" data-uid="lnk10" id="link_prep_dep"><path d="M111.26,547.6425 C124.19,585.1325 137.9237,624.9604 150.8437,662.4204" fill="none" id="prep-to-dep" style="stroke:#8B0000;stroke-width:1;"/><polygon fill="#8B0000" points="152.8,668.0925,153.6469,658.2801,151.1697,663.3657,146.0841,660.8885,152.8,668.0925" style="stroke:#8B0000;stroke-width:1;"/></g><!--link prep to an--><g class="link" data-entity-1="prep" data-entity-2="an" data-source-line="8" data-uid="lnk11" id="link_prep_an"><path d="M149.46,527.1025 C160.78,529.9625 166.4943,531.3718 177.8143,527.0518" fill="none" id="prep-to-an" style="stroke:#8B0000;stroke-width:1;"/><polygon fill="#8B0000" points="183.42,524.9125,173.5853,524.3843,178.7486,526.6952,176.4377,531.8585,183.42,524.9125" style="stroke:#8B0000;stroke-width:1;"/></g><!--reverse link prep to an--><g class="link" data-entity-1="prep" data-entity-2="an" data-source-line="9" data-uid="lnk13" id="link_prep_an"><path d="M155.2772,418.2028 C166.5972,415.3428 172.1,417.5425 183.42,421.8625" fill="none" id="prep-backto-an" style="stroke:#8B0000;stroke-width:1;"/><polygon fill="#8B0000" points="149.46,419.6725,159.1656,421.3461,154.3077,418.4477,157.206,413.5898,149.46,419.6725" style="stroke:#8B0000;stroke-width:1;"/></g><!--reverse link coll to dep--><g class="link" data-entity-1="coll" data-entity-2="dep" data-source-line="10" data-uid="lnk15" id="link_coll_dep"><path d="M239.0763,316.7887 C268.3063,336.8587 297.6,363.0425 314,399.4925 C340.95,459.3925 333.78,484.6425 314,547.2825 C299.52,593.1625 269.86,637.6025 241.93,672.3425" fill="none" id="coll-backto-dep" style="stroke:#8B0000;stroke-width:1;"/><polygon fill="#8B0000" points="234.13,313.3925,239.2853,321.7844,238.2519,316.2227,243.8136,315.1893,234.13,313.3925" style="stroke:#8B0000;stroke-width:1;"/></g><!--SRC=[LOp13S8m303_dY8Tm643La4cDX39IQpM1RezJLIG-DpZTBefrwGhowLGtKAC9oOdLBhYufjAzBV3zDUKng98oVCpUvObsbeK04of1kJsgdWEgQb2ny_OB1PWyAjOx10uv_l3SNVx0_e7LMv3z01uHAlXiVu0]--></g></svg>