<?xml version="1.0" encoding="us-ascii" standalone="no"?><svg xmlns="http://www.w3.org/2000/svg" xmlns:xlink="http://www.w3.org/1999/xlink" contentStyleType="text/css" height="818px" preserveAspectRatio="none" style="width:1541px;height:818px;background:#FFFFFF;" version="1.1" viewBox="0 0 1541 818" width="1541px" zoomAndPan="magnify"><defs/><g><text fill="#000000" font-family="Chalkduster" font-size="42" font-weight="bold" lengthAdjust="spacing" textLength="1275" x="126" y="51.7215">FAIRification of Trove and other GLAM repositories</text><!--cluster ro--><g id="cluster_ro"><path d="M680.5,347.5212 L680.5,348.0816 L690.375,346.4163 L700.25,348.0366 L710.125,348.587 L720,345.6188 L729.875,347.3139 L739.75,346.3838 L749.625,346.4985 L759.5,347.3394 L769.375,345.6775 L779.25,348.9975 L789.125,345.8404 L799,346.9938 L808.875,348.673 L818.75,347.2924 L828.625,347.7031 L838.5,347.5212 L841,350.0212 L840.973,350.0123 L842.5508,354.344 L844.002,358.6343 L845.6947,363.0037 L847.1668,367.3008 L848,371.3886 L848,373.1999 L857.9688,372.0676 L867.9375,372.6248 L877.9063,373.2612 L887.875,369.4654 L897.8438,373.1979 L907.8125,370.5979 L917.7813,372.8121 L927.75,370.0685 L937.7188,371.2059 L947.6875,373.3662 L957.6563,371.2586 L967.625,371.6694 L977.5938,372.2916 L987.5625,372.4985 L997.5313,371.3781 L1007.5,371.3886 L1010,373.8886 L1010.7659,373.8886 L1008.4736,383.8622 L1010.7584,393.8358 L1011.4619,403.8094 L1011.1854,413.7831 L1011.6347,423.7567 L1008.7118,433.7303 L1008.2608,443.7039 L1008.3429,453.6775 L1010,463.6512 L1007.5,466.1512 L1007.5,465.9941 L997.5909,465.6271 L987.6818,467.9683 L977.7727,465.6854 L967.8636,465.2364 L957.9545,466.7599 L948.0455,464.3729 L938.1364,464.7668 L928.2273,467.8817 L918.3182,467.3129 L908.4091,468.1098 L898.5,465.293 L888.5909,467.0024 L878.6818,467.7256 L868.7727,464.8914 L858.8636,465.8955 L848.9545,466.4871 L839.0455,467.8892 L829.1364,466.14 L819.2273,467.3847 L809.3182,464.6744 L799.4091,464.3451 L789.5,467.4941 L779.5909,464.2393 L769.6818,467.5084 L759.7727,466.7022 L749.8636,465.4367 L739.9545,465.2078 L730.0455,467.3745 L720.1364,465.3529 L710.2273,467.7295 L700.3182,464.6772 L690.4091,467.7976 L680.5,466.1512 L678,463.6512 L679.2915,463.6512 L678.6532,453.3212 L678.1259,442.9912 L679.9376,432.6612 L679.6362,422.3312 L678.4513,412.0012 L678.7152,401.6712 L677.6526,391.3412 L679.9105,381.0112 L678.413,370.6812 L678.4602,360.3512 L678,350.0212 L680.5,347.5212 " fill="none" style="stroke:#000000;stroke-width:1.5;"/><path d="M678,371.3886 L678,371.6688 L688,370.8361 L698,371.6463 L708,371.9215 L718,370.4374 L728,371.2849 L738,370.8199 L748,370.8772 L758,371.2977 L768,370.4667 L778,372.1268 L788,370.5482 L798,371.1249 L808,371.9645 L818,371.2742 L828,371.4795 L838,371.346 L848,371.3886 " fill="none" style="stroke:#000000;stroke-width:1.5;"/><text fill="#000000" font-family="Chalkduster" font-size="14" font-weight="bold" lengthAdjust="spacing" textLength="157" x="682" y="363.4283">FAIR Digital Object</text></g><!--cluster ws--><g id="cluster_ws"><polygon fill="#FFC7D8" points="424.5,83.8912,424.5,84.1013,434.4545,83.4768,444.4091,84.0844,454.3636,84.2908,464.3182,83.1778,474.2727,83.8134,484.2273,83.4647,494.1818,83.5077,504.1364,83.823,514.0909,83.1998,524.0455,84.4448,534,83.2609,543.9545,83.6934,553.9091,84.3231,563.8636,83.8054,573.8182,83.9594,583.7727,83.8592,593.7273,84.0697,603.6818,84.1303,613.6364,84.4769,623.5909,84.5622,633.5455,84.5704,643.5,83.8912,643.5325,83.9696,643.9127,84.1804,644.2967,84.4003,644.4687,84.1084,645.0008,84.6859,645.2678,84.6234,645.1765,84.5856,645.5786,85.045,645.4082,85.2674,645.686,85.6753,646.0819,86.1322,646,86.3912,645.9513,86.3912,646.1053,96.4928,646.3386,106.5944,646.4162,116.696,645.9961,126.7976,646.2872,136.8993,645.4276,147.0009,646.2844,157.1025,646.5482,167.2041,646.4445,177.3058,646.613,187.4074,645.5169,197.509,645.3478,207.6106,645.3786,217.7122,645.9411,227.8139,645.8035,237.9155,646.6814,248.0171,645.8253,258.1187,645.6569,268.2204,646.2283,278.322,645.3332,288.4236,645.4809,298.5252,646.649,308.6268,646.4357,318.7285,646.7345,328.8301,645.6782,338.9317,646.3192,349.0333,646.5904,359.1349,645.5276,369.2366,645.9041,379.3382,646.126,389.4398,646.6518,399.5414,645.9958,409.6431,646.4626,419.7447,645.4462,429.8463,645.3227,439.9479,646.5036,450.0495,646,460.1512,645.7792,460.0597,646.0103,460.5696,645.7707,460.8846,645.4782,461.1776,645.3053,461.5202,645.2678,461.9189,645.3263,462.0602,644.876,461.9732,644.6362,462.3941,644.1366,462.188,643.9323,462.6949,643.5,462.6512,643.5,463.1355,633.5455,462.8961,623.5909,462.6984,613.6364,463.3778,603.6818,463.2647,593.7273,462.8204,583.7727,462.9193,573.8182,462.5209,563.8636,463.3676,553.9091,462.806,543.9545,462.8237,534,462.0428,524.0455,462.2459,514.0909,463.1819,504.1364,463.0809,494.1818,462.6082,484.2273,462.329,474.2727,462.4322,464.3182,461.965,454.3636,463.0659,444.4091,463.3907,434.4545,463.1776,424.5,462.6512,424.5886,462.8652,424.129,462.4626,423.804,462.3851,423.3899,462.0925,423.122,462.1528,422.7322,461.9189,422.8082,461.9504,422.7559,461.6358,422.3686,461.1825,422.2515,460.8411,422.283,460.5613,422,460.1512,422.5673,460.1512,421.4875,450.0495,421.8061,439.9479,422.1493,429.8463,421.3892,419.7447,422.3534,409.6431,422.258,399.5414,421.8992,389.4398,422.1422,379.3382,422.7287,369.2366,421.6871,359.1349,422.315,349.0333,422.2856,338.9317,422.1158,328.8301,422.1409,318.7285,422.1135,308.6268,421.3758,298.5252,421.5992,288.4236,421.5385,278.322,422.0638,268.2204,422.0881,258.1187,422.1617,248.0171,421.709,237.9155,421.9325,227.8139,421.8798,217.7122,422.5769,207.6106,422.4266,197.509,421.5145,187.4074,421.9271,177.3058,421.4228,167.2041,422.2884,157.1025,422.6085,147.0009,422.5446,136.8993,421.5644,126.7976,422.464,116.696,421.2572,106.5944,422.2002,96.4928,422,86.3912,421.9078,86.353,422.1762,86.0499,422.3669,85.7147,422.5847,85.3907,422.3641,84.8851,422.7322,84.6234,422.7929,84.7698,423.1085,84.5318,423.4847,84.4399,423.8883,84.4143,424.1471,84.0393,424.5,83.8912" style="stroke:#181818;stroke-width:4.0;"/><text fill="#000000" font-family="Chalkduster" font-size="24" font-style="italic" lengthAdjust="spacing" textLength="175" x="446.5" y="109.732">&#171;workspace&#187;</text><text fill="#000000" font-family="Chalkduster" font-size="24" font-weight="bold" lengthAdjust="spacing" textLength="157" x="455.5" y="140.3619">Workspaces</text></g><!--cluster rr--><g id="cluster_rr"><polygon fill="none" points="680.5,610.1512,680.5,610.3613,690.5235,609.7368,700.5471,610.3444,710.5706,610.5508,720.5941,609.4378,730.6176,610.0734,740.6412,609.7247,750.6647,609.7677,760.6882,610.083,770.7118,609.4598,780.7353,610.7048,790.7588,609.5209,800.7824,609.9534,810.8059,610.5831,820.8294,610.0654,830.8529,610.2194,840.8765,610.1192,850.9,610.3297,860.9235,610.3903,870.9471,610.7369,880.9706,610.8222,890.9941,610.8304,901.0176,610.4058,911.0412,610.6147,921.0647,610.8534,931.0882,609.43,941.1118,610.8297,951.1353,609.8547,961.1588,610.685,971.1824,609.6561,981.2059,610.0827,991.2294,610.8928,1001.2529,610.1024,1011.2765,610.2565,1021.3,610.4898,1031.3235,610.5674,1041.3471,610.1473,1051.3706,610.4384,1061.3941,609.5787,1071.4176,610.4355,1081.4412,610.6994,1091.4647,610.5957,1101.4882,610.7642,1111.5118,609.6681,1121.5353,609.499,1131.5588,609.5298,1141.5824,610.0923,1151.6059,609.9546,1161.6294,610.8326,1171.6529,609.9765,1181.6765,609.8081,1191.7,610.3794,1201.7235,609.4843,1211.7471,609.632,1221.7706,610.8001,1231.7941,610.5868,1241.8176,610.8857,1251.8412,609.8294,1261.8647,610.4704,1271.8882,610.7416,1281.9118,609.6788,1291.9353,610.0553,1301.9588,610.2771,1311.9824,610.8029,1322.0059,610.147,1332.0294,610.6137,1342.0529,609.5974,1352.0765,609.4739,1362.1,610.6548,1372.1235,609.4342,1382.1471,610.6601,1392.1706,610.3578,1402.1941,609.8832,1412.2176,609.7974,1422.2412,610.6099,1432.2647,609.8518,1442.2882,610.743,1452.3118,609.5984,1462.3353,610.7686,1472.3588,610.6355,1482.3824,610.3961,1492.4059,610.1984,1502.4294,610.8778,1512.4529,610.7647,1522.4765,610.3204,1532.5,610.1512,1532.5342,610.2338,1532.8369,610.2575,1533.2985,610.6647,1533.5804,610.6382,1533.9362,610.7901,1534.2678,610.8834,1534.0804,610.8058,1534.2894,611.1853,1534.7241,611.6582,1534.8395,611.9989,1534.8403,612.2921,1535,612.6512,1534.6778,612.6512,1534.7811,622.4957,1534.3138,632.3402,1535.4147,642.1847,1535.7396,652.0292,1535.5264,661.8737,1535.6949,671.7182,1534.8633,681.5627,1535.0872,691.4072,1534.6124,701.2517,1535.284,711.0962,1535.2468,720.9407,1535.5524,730.7852,1534.7703,740.6297,1534.8656,750.4742,1535.4435,760.3187,1535.5673,770.1632,1534.4875,780.0077,1534.8061,789.8522,1535.1493,799.6967,1535,809.5412,1534.8119,809.4632,1534.9624,809.9398,1534.7866,810.2812,1534.5296,810.589,1534.458,810.9735,1534.2678,811.3089,1534.3607,811.5333,1533.8743,811.359,1533.6008,811.6988,1533.2435,811.8362,1532.8683,811.9304,1532.5,812.0412,1532.5,812.1821,1522.4765,812.1546,1512.4529,811.417,1502.4294,811.6403,1492.4059,811.5796,1482.3824,812.105,1472.3588,812.1293,1462.3353,812.2029,1452.3118,811.7502,1442.2882,811.9736,1432.2647,811.9209,1422.2412,812.618,1412.2176,812.4677,1402.1941,811.5556,1392.1706,811.9682,1382.1471,811.4639,1372.1235,812.3295,1362.1,812.6496,1352.0765,812.5857,1342.0529,811.6056,1332.0294,812.5051,1322.0059,811.2984,1311.9824,812.2413,1301.9588,811.7418,1291.9353,812.1379,1281.9118,812.2815,1271.8882,812.5133,1261.8647,811.3212,1251.8412,812.5166,1241.8176,812.2193,1231.7941,812.3965,1221.7706,812.789,1211.7471,812.0466,1201.7235,812.2164,1191.7,812.2546,1181.6765,812.2384,1171.6529,812.0403,1161.6294,812.7519,1151.6059,811.4314,1141.5824,812.6064,1131.5588,811.4172,1121.5353,811.5008,1111.5118,812.0812,1101.4882,812.0694,1091.4647,811.5483,1081.4412,812.4549,1071.4176,812.15,1061.3941,812.7678,1051.3706,812.7083,1041.3471,811.5929,1031.3235,811.6432,1021.3,811.912,1011.2765,812.3967,1001.2529,812.4441,991.2294,812.3423,981.2059,811.6992,971.1824,812.6775,961.1588,812.6749,951.1353,811.9939,941.1118,811.8021,931.0882,811.6398,921.0647,811.8266,911.0412,812.1786,901.0176,811.9728,890.9941,811.6234,880.9706,812.5285,870.9471,811.5822,860.9235,812.5435,850.9,812.4684,840.8765,812.413,830.8529,812.7337,820.8294,811.7953,810.8059,811.7405,800.7824,812.56,790.7588,811.4443,780.7353,811.8072,770.7118,812.1567,760.6882,812.1098,750.6647,811.6827,740.6412,811.9982,730.6176,812.7858,720.5941,812.6896,710.5706,811.4449,700.5471,812.1197,690.5235,811.5273,680.5,812.0412,680.4966,812.0331,680.1838,811.9849,679.8465,811.8776,679.3545,811.3971,679.1369,811.5787,678.7322,811.3089,678.7348,811.31,678.4148,810.8845,678.2943,810.5417,678.3935,810.2899,678.2234,809.9266,678,809.5412,677.9836,809.5412,677.3279,799.6967,678.6581,789.8522,677.6882,780.0077,677.4719,770.1632,677.9327,760.3187,678.5897,750.4742,678.6154,740.6297,678.0351,730.7852,677.8488,720.9407,678.1698,711.0962,678.1862,701.2517,677.4922,691.4072,678.414,681.5627,678.5588,671.7182,677.7842,661.8737,677.5708,652.0292,678.6746,642.1847,678.021,632.3402,677.9998,622.4957,678,612.6512,678.0921,612.6893,677.9476,612.2152,678.4561,612.0117,678.4346,611.5885,678.7918,611.3223,678.7322,610.8834,678.7047,610.8169,679.138,610.8629,679.3827,610.4538,679.8241,610.5195,680.1948,610.4144,680.5,610.1512" style="stroke:#181818;stroke-width:4.0;"/><text fill="#000000" font-family="Chalkduster" font-size="24" font-weight="bold" lengthAdjust="spacing" textLength="26" x="1093.5" y="635.992">rr</text></g><!--cluster repos--><g id="cluster_repos"><path d="M232,555.7812 L232,555.7812 L232.0333,555.8684 L233.6616,554.949 L235.4854,554.5411 L237.2454,553.9666 L238.7962,552.8444 L240.6367,552.4804 L240.6321,552.4461 L242.5939,552.0254 L244.579,551.7773 L246.5802,551.6491 L248.5258,551.1075 L250.5493,551.1449 L250.5711,551.39 L253.0959,550.6369 L255.6843,550.5994 L258.2805,550.6491 L260.8315,550.1909 L263.4063,549.9999 L263.4082,550.0302 L266.4478,549.7919 L269.4963,549.6914 L272.5404,549.5244 L275.5927,549.4843 L278.6187,549.0307 L278.6328,549.3286 L282.0288,549.1706 L285.4156,548.8205 L288.8158,548.7516 L292.2167,548.6959 L295.5977,548.2226 L295.586,547.9023 L299.24,548.3916 L302.8556,547.8262 L306.5003,548.0627 L310.115,547.4734 L313.7544,547.5609 L313.7535,547.5305 L317.5128,547.7845 L321.252,547.3274 L325.0031,547.2899 L328.7551,547.2876 L332.5,547.0312 L332.5036,547.2161 L339.8804,546.8849 L347.2634,546.8697 L354.6364,546.3432 L362.0243,546.5794 L369.4023,546.3085 L369.4052,546.5521 L375.8429,546.4318 L382.282,546.4325 L388.7147,545.8712 L395.1521,545.7218 L401.5938,545.9374 L401.5924,545.6612 L407.8749,545.88 L414.1558,545.7876 L420.439,546.1465 L426.7184,545.7348 L433,545.7812 L433,545.7812 L432.9992,545.6287 L439.2818,545.9139 L445.561,545.5473 L451.8426,545.6442 L458.1264,546.1946 L464.4063,545.9374 L464.4085,546.131 L470.8483,546.338 L477.2812,545.9428 L483.7227,546.3019 L490.1624,546.4967 L496.5977,546.3085 L496.5935,546.0986 L503.9773,546.4104 L511.3597,546.6535 L518.7447,547.0317 L526.1195,546.8848 L533.5,547.0312 L533.5058,547.2367 L537.2422,546.8911 L540.9897,546.9422 L544.7537,547.5728 L548.4875,547.1365 L552.2456,547.5609 L552.2538,547.787 L555.8803,547.785 L559.504,547.7066 L563.1339,547.8008 L566.7784,548.294 L570.4023,548.2226 L570.396,548.0897 L573.8107,548.6469 L577.1823,548.3004 L580.6028,548.9815 L583.9958,549.0841 L587.3813,549.0307 L587.3883,549.1393 L590.4252,549.2455 L593.4868,549.7407 L596.5261,549.8844 L599.5561,549.8811 L602.5938,549.9999 L602.6043,550.1186 L605.16,550.1712 L607.7648,550.7751 L610.314,550.7555 L612.8861,550.9923 L615.4507,551.1449 L615.4146,550.877 L617.4092,551.2335 L619.4472,551.9129 L621.4237,552.1355 L623.3782,552.1944 L625.3633,552.4804 L625.3122,552.3466 L627.0559,553.0496 L628.7091,553.5158 L630.6111,554.633 L632.39,555.428 L634,555.7812 L635.4037,555.7812 L635.8532,565.852 L633.6354,575.9229 L634.2326,585.9938 L632.9664,596.0646 L634.7574,606.1355 L634.658,616.2064 L635.473,626.2772 L633.3876,636.3481 L633.6416,646.419 L635.1826,656.4899 L635.5129,666.5607 L632.6332,676.6316 L633.483,686.7025 L634.398,696.7733 L632.3711,706.8442 L634.9424,716.9151 L634.688,726.9859 L633.7313,737.0568 L634.3793,747.1277 L635.9431,757.1986 L633.1657,767.2694 L634.84,777.3403 L634,787.4112 L634,787.4112 L634.0453,787.5297 L632.291,788.1194 L630.5677,788.79 L628.836,789.4387 L626.9916,789.7927 L625.3633,790.7119 L625.3395,790.5354 L623.3534,790.7757 L621.402,791.2742 L619.421,791.552 L617.4428,791.8515 L615.4507,792.0474 L615.4392,791.9186 L612.8766,792.2465 L610.3032,792.4522 L607.7593,792.9898 L605.182,793.1522 L602.5938,793.1924 L602.58,792.9771 L599.5492,793.3539 L596.4925,793.3241 L593.4745,793.9019 L590.441,794.2377 L587.3813,794.1616 L587.3929,794.4034 L583.9763,794.1299 L580.5995,794.6909 L577.1783,794.3167 L573.8024,794.897 L570.4023,794.9698 L570.3975,794.8368 L566.7726,795.145 L563.1435,795.3411 L559.5159,795.5764 L555.8653,795.1793 L552.2456,795.6314 L552.2516,795.8426 L548.4987,795.8165 L544.7518,796.0012 L541.0076,796.2815 L537.2492,796.0576 L533.5,796.1612 L533.5015,796.239 L526.1214,796.4005 L518.7408,796.5379 L511.3586,796.5944 L503.9843,797.0551 L496.5977,796.8838 L496.5945,796.6128 L490.1623,797.2093 L483.7179,796.7549 L477.28,796.8663 L470.8447,797.1985 L464.4063,797.2549 L464.4063,797.2675 L458.1239,797.0671 L451.8447,797.5013 L445.5627,797.397 L439.2829,797.7029 L433,797.4112 L433,797.4112 L433.0015,797.7076 L426.7178,797.1807 L420.4366,797.1718 L414.156,797.26 L407.8758,797.4442 L401.5938,797.2549 L401.5958,797.434 L395.157,797.3145 L388.7154,796.9545 L382.2822,797.3151 L375.8439,797.2397 L369.4023,796.8838 L369.4019,796.8628 L362.0198,796.6331 L354.6379,796.4164 L347.2591,796.3549 L339.8817,796.3668 L332.5,796.1612 L332.4991,796.1308 L328.7456,795.8696 L325.0079,796.1658 L321.2469,795.6394 L317.5098,795.9605 L313.7544,795.6314 L313.7613,795.8211 L310.1291,795.6642 L306.5029,795.6743 L302.8564,795.1252 L299.2241,794.9685 L295.5977,794.9698 L295.6086,795.2001 L292.1892,794.5431 L288.8011,794.5426 L285.4127,794.5362 L282.0159,794.3538 L278.6187,794.1616 L278.6085,794.0027 L275.575,793.9487 L272.5547,794.1042 L269.5095,793.8677 L266.4319,793.1218 L263.4063,793.1924 L263.4093,793.2272 L260.8146,792.7359 L258.2624,792.7228 L255.7036,792.6351 L253.1373,792.4623 L250.5493,792.0474 L250.5099,791.7546 L248.5906,791.9567 L246.5848,791.5169 L244.5688,791.0015 L242.5913,790.7716 L240.6367,790.7119 L240.6885,790.8475 L238.949,790.1555 L237.1794,789.3848 L235.348,788.4524 L233.8318,788.3446 L232,787.4112 L231.1684,787.4112 L230.5918,777.3403 L231.8205,767.2694 L233.5726,757.1986 L233.6411,747.1277 L232.0937,737.0568 L231.5969,726.9859 L232.4528,716.9151 L232.4966,706.8442 L230.6459,696.7733 L233.1039,686.7025 L233.4901,676.6316 L231.4246,666.5607 L230.8555,656.4899 L233.7991,646.419 L232.056,636.3481 L231.9996,626.2772 L232.7974,616.2064 L230.2782,606.1355 L233.4133,596.0646 L231.9588,585.9938 L233.7835,575.9229 L231.4244,565.852 L232,555.7812 " fill="#00FF7F" style="stroke:#181818;stroke-width:4.0;"/><path d="M232,555.7812 L232,555.7812 L232.0333,555.8684 L233.6616,556.2693 L235.4854,557.1817 L237.2454,557.9276 L238.7962,558.1256 L240.6367,559.0819 L240.6321,559.0477 L242.5939,559.1612 L244.579,559.4472 L246.5802,559.8532 L248.5258,559.8458 L250.5493,560.4174 L250.5711,560.6625 L253.0959,560.3674 L255.6843,560.7878 L258.2805,561.2956 L260.8315,561.2954 L263.4063,561.5624 L263.4082,561.5927 L266.4478,561.7421 L269.4963,562.0293 L272.5404,562.25 L275.5927,562.5976 L278.6187,562.5316 L278.6328,562.8296 L282.0288,562.9948 L285.4156,562.9679 L288.8158,563.2223 L292.2167,563.4899 L295.5977,563.3398 L295.586,563.0194 L299.24,563.7734 L302.8556,563.4727 L306.5003,563.9738 L310.115,563.6492 L313.7544,564.0014 L313.7535,563.9709 L317.5128,564.4368 L321.252,564.1916 L325.0031,564.366 L328.7551,564.5756 L332.5,564.5312 L332.5036,564.7161 L339.8804,564.674 L347.2634,564.9478 L354.6364,564.7104 L362.0243,565.2357 L369.4023,565.2538 L369.4052,565.4974 L375.8429,565.5256 L382.282,565.6747 L388.7147,565.2618 L395.1521,565.2609 L401.5938,565.6249 L401.5924,565.3487 L407.8749,565.63 L414.1558,565.6001 L420.439,566.0215 L426.7184,565.6723 L433,565.7812 L433,565.7812 L432.9992,565.6287 L439.2818,565.8514 L445.561,565.4223 L451.8426,565.4567 L458.1264,565.9446 L464.4063,565.6249 L464.4085,565.8185 L470.8483,565.8771 L477.2812,565.3335 L483.7227,565.5441 L490.1624,565.5904 L496.5977,565.2538 L496.5935,565.0439 L503.9773,565.0667 L511.3597,565.0207 L518.7447,565.1098 L526.1195,564.6738 L533.5,564.5312 L533.5058,564.7367 L537.2422,564.1792 L540.9897,564.0184 L544.7537,564.437 L548.4875,563.7888 L552.2456,564.0014 L552.2538,564.2274 L555.8803,563.9608 L559.504,563.6177 L563.1339,563.4473 L566.7784,563.6758 L570.4023,563.3398 L570.396,563.2069 L573.8107,563.4409 L577.1823,562.7711 L580.6028,563.129 L583.9958,562.9083 L587.3813,562.5316 L587.3883,562.6403 L590.4252,562.3587 L593.4868,562.4662 L596.5261,562.2223 L599.5561,561.8313 L602.5938,561.5624 L602.6043,561.6811 L605.16,561.2757 L607.7648,561.4216 L610.314,560.944 L612.8861,560.7228 L615.4507,560.4174 L615.4146,560.1494 L617.4092,559.9718 L619.4472,560.117 L621.4237,559.8054 L623.3782,559.3301 L625.3633,559.0819 L625.3122,558.9482 L627.0559,558.3309 L628.7091,557.4768 L630.6111,557.2737 L632.39,556.7484 L634,555.7812 " fill="none" style="stroke:#181818;stroke-width:4.0;"/><text fill="#000000" font-family="Chalkduster" font-size="24" font-style="italic" lengthAdjust="spacing" textLength="169" x="348.5" y="591.622">&#171;repository&#187;</text><text fill="#000000" font-family="Chalkduster" font-size="24" font-weight="bold" lengthAdjust="spacing" textLength="386" x="240" y="622.2519">Data Repositories &amp; Indices</text></g><!--cluster Public GLAM--><g id="cluster_Public GLAM"><polygon fill="none" points="393.5,648.7812,393.5,648.9913,403.4048,648.3668,413.3095,648.9744,423.2143,649.1808,433.119,648.0678,443.0238,648.7034,452.9286,648.3547,462.8333,648.3977,472.7381,648.713,482.6429,648.0898,492.5476,649.3348,502.4524,648.1509,512.3571,648.5834,522.2619,649.2131,532.1667,648.6954,542.0714,648.8494,551.9762,648.7492,561.881,648.9597,571.7857,649.0203,581.6905,649.3669,591.5952,649.4522,601.5,648.7812,601.5866,648.9903,601.886,649.006,602.2662,649.2168,602.6502,649.4368,602.8222,649.1449,603.2678,649.5134,603.4767,649.5999,603.3229,649.8291,603.7251,650.2886,603.5547,650.5109,603.8325,650.9189,604,651.2812,604.7416,651.2812,603.9513,661.2503,604.1053,671.2195,604.3386,681.1887,604.4162,691.1578,603.9961,701.127,604.2872,711.0962,603.4276,721.0653,604.2844,731.0345,604.5482,741.0037,604.4445,750.9728,604.613,760.942,604,770.9112,603.8512,770.8495,603.6527,771.1815,603.5157,771.539,603.5425,771.9643,603.3537,772.3003,603.2678,772.6789,603.3547,772.8888,602.8919,772.7716,602.5169,772.8662,602.2362,773.1886,601.7685,773.0594,601.5,773.4112,601.5,772.892,591.5952,774.0601,581.6905,773.8468,571.7857,774.1457,561.881,773.0894,551.9762,773.7304,542.0714,774.0016,532.1667,772.9388,522.2619,773.3153,512.3571,773.5371,502.4524,774.0629,492.5476,773.407,482.6429,773.8737,472.7381,772.8574,462.8333,772.7339,452.9286,773.9148,443.0238,772.6942,433.119,773.9201,423.2143,773.6178,413.3095,773.1432,403.4048,773.0574,393.5,773.4112,393.5585,773.5524,393.1083,773.1725,392.8684,773.3005,392.3688,772.8016,392.1645,773.0155,391.7322,772.6789,391.8814,772.7407,391.6612,772.3566,391.4539,771.9778,391.5167,771.711,391.3354,771.343,391,770.9112,391.1693,770.9112,391.2682,760.942,390.8697,750.9728,391.7165,741.0037,391.1549,731.0345,391.1726,721.0653,390.3916,711.0962,390.5948,701.127,391.5307,691.1578,391.4298,681.1887,390.9571,671.2195,390.6778,661.2503,391,651.2812,390.9326,651.2532,390.9351,650.8401,391.4206,650.627,391.6671,650.3148,391.7479,649.9341,391.7322,649.5134,391.8209,649.7274,392.0683,649.3248,392.4505,649.2474,392.7435,648.9547,393.1827,649.0151,393.5,648.7812" style="stroke:#181818;stroke-width:4.0;"/><text fill="#000000" font-family="Chalkduster" font-size="24" font-weight="bold" lengthAdjust="spacing" textLength="174" x="410.5" y="674.622">Public GLAM</text></g><!--entity Metadata--><g id="elem_Metadata"><polygon fill="none" points="841,391.5212,841,391.7313,851.1429,391.1068,861.2857,391.7144,871.4286,391.9208,881.5714,390.8078,891.7143,391.4434,901.8571,391.0947,912,391.1377,922.1429,391.453,932.2857,390.8298,942.4286,392.0748,952.5714,390.8909,962.7143,391.3234,972.8571,391.9531,983,391.5212,982.9891,391.4947,983.3623,391.6886,983.703,391.8042,984.0834,392.0155,984.4447,392.1806,984.7678,392.2534,984.9481,392.3281,985.1209,392.6925,985.2698,393.0471,985.2855,393.3465,985.4963,393.7267,985.5,394.0212,986.2022,394.0212,984.7788,403.1471,986.1785,412.2731,985.2035,421.3991,986.0338,430.525,985.5,439.651,985.3476,439.5878,985.3325,439.9958,985.4355,440.4527,985.0457,440.7054,984.9466,441.0786,984.7678,441.4188,984.811,441.523,984.4673,441.6934,984.0602,441.7105,983.7437,441.9466,983.2805,441.8283,983,442.151,983,442.4354,972.8571,442.6992,962.7143,442.5955,952.5714,442.764,942.4286,441.6679,932.2857,441.4988,922.1429,441.5296,912,442.0921,901.8571,441.9545,891.7143,442.8324,881.5714,441.9763,871.4286,441.8079,861.2857,442.3793,851.1429,441.4842,841,442.151,840.9338,441.9911,840.7292,442.2044,840.3485,441.9923,840.033,441.9378,839.5447,441.4661,839.2322,441.4188,839.3305,441.4595,839.2676,441.1405,838.7939,440.6514,838.7634,440.3459,838.6852,440.0206,838.5,439.651,839.1518,439.651,838.4958,430.525,838.9626,421.3991,837.9462,412.2731,837.8227,403.1471,838.5,394.0212,838.6551,394.0854,838.4257,393.5762,838.9496,393.379,839.003,392.9869,839.0033,392.5728,839.2322,392.2534,839.1871,392.1444,839.6443,392.2482,839.9012,391.8683,840.3684,391.9963,840.5759,391.4974,841,391.5212" style="stroke:#181818;stroke-width:4.0;"/><text fill="#000000" font-family="Chalkduster" font-size="24" lengthAdjust="spacing" textLength="127" x="848.5" y="425.362">Metadata</text></g><!--entity Data--><g id="elem_Data"><polygon fill="none" points="723.5,391.5212,723.5,391.7313,733.125,391.1068,742.75,391.7144,752.375,391.9208,762,390.8078,771.625,391.4434,781.25,391.0947,790.875,391.1377,800.5,391.5212,800.4913,391.5002,800.7654,391.4547,801.2777,391.9846,801.4803,391.7664,801.889,392.046,802.2678,392.2534,802.4008,392.3085,802.3878,392.596,802.5817,392.9692,802.6973,393.31,802.9085,393.6904,803,394.0212,803.2391,394.0212,803.5857,403.1471,803.6711,412.2731,803.6793,421.3991,803.2546,430.525,803,439.651,803.1428,439.7101,803.0698,440.0941,802.485,440.2661,802.7696,440.7982,802.3229,441.0274,802.2678,441.4188,802.3359,441.5832,801.8511,441.4128,801.5519,441.6906,801.3017,442.0865,800.8473,441.9895,800.5,442.151,800.5,442.2563,790.875,442.4896,781.25,442.5672,771.625,442.1471,762,442.4382,752.375,441.5786,742.75,442.4354,733.125,442.6992,723.5,442.151,723.5567,442.2879,723.2246,442.1933,722.7313,441.7093,722.3561,441.5108,722.0065,441.3738,721.7322,441.4188,721.7141,441.4113,721.5253,441.0401,721.6492,440.7986,721.2391,440.3358,721.0408,439.9608,721,439.651,721.2283,439.651,720.3332,430.525,720.4809,421.3991,721.649,412.2731,721.4357,403.1471,721,394.0212,721.2262,394.1149,721.0473,393.6266,721.3912,393.3548,721.6212,393.0358,721.4403,392.5467,721.7322,392.2534,721.72,392.2239,722.1019,392.1457,722.5225,392.1612,722.7924,391.8128,723.2055,391.8101,723.5,391.5212" style="stroke:#181818;stroke-width:4.0;"/><text fill="#000000" font-family="Chalkduster" font-size="24" lengthAdjust="spacing" textLength="62" x="731" y="425.362">Data</text></g><!--entity res--><g id="elem_res"><polygon fill="none" points="542.0442,177.8371,540.8715,179.4394,539.4845,181.7862,537.5008,183.3678,535.4163,184.2327,533.7542,184.3078,531.618,183.2261,529.6023,182.5195,528.0724,181.0847,527.2699,179.4423,526.7939,178.1345,526.3277,176.4262,525.5709,174.9562,526.1525,173.521,526.662,171.9488,528.574,170.7053,529.9192,169.092,531.5843,168.5562,533.5637,168.0948,536.1021,168.369,537.4924,169.0246,539.1089,169.3218,541.0743,171.3355,541.7595,173.4613,542.0571,174.9118,541.72,177.302" style="stroke:#8B0000;stroke-width:4.0;"/><path d="M534,183.8912 L534.1868,183.8912 L533.6317,189.2912 L534.1718,194.6912 L534.3553,200.0912 L533.3659,205.4912 L534,210.8912 M521,191.8912 L521,191.8221 L526.2,191.5121 L531.4,191.5503 L536.6,191.8306 L541.8,191.2766 L547,191.8912 M534,210.8912 L534.3719,211.2135 L530.9766,213.5242 L528.6672,216.776 L526.4901,220.1426 L523.5424,222.8412 L521,225.8912 M534,210.8912 L534.0458,210.9309 L536.5785,213.8726 L539.3199,216.9951 L541.9606,220.0304 L544.7934,223.2321 L547,225.8912 " fill="none" style="stroke:#8B0000;stroke-width:4.0;"/><text fill="#000000" font-family="Chalkduster" font-size="24" lengthAdjust="spacing" textLength="149" x="459.5" y="254.732">Researcher</text></g><!--entity Trove--><g id="elem_Trove"><path d="M439,397.0212 L439,397.0212 L439.0563,397.0957 L440.4203,395.718 L442.1143,394.7772 L443.7008,393.6942 L444.9339,392.1431 L446.6563,391.2399 L446.6503,391.2059 L449.9921,390.4595 L453.3642,389.8846 L456.7572,389.4288 L460.0779,388.5623 L463.5,388.2712 L463.5159,388.5167 L466.8506,387.7729 L470.2318,387.7459 L473.6187,387.8065 L476.9725,387.3581 L480.3438,387.1774 L480.3444,387.2077 L481.8747,387.132 L483.4079,387.1942 L484.9397,387.1899 L486.4741,387.3127 L488,387.0212 L488,387.0212 L488.0061,387.3193 L489.5374,387.3542 L491.0648,387.1968 L492.598,387.3209 L494.1314,387.4582 L495.6563,387.1774 L495.6355,386.8576 L499.0445,387.6971 L502.3852,387.4834 L505.7779,388.0704 L509.117,387.8329 L512.5,388.2712 L512.4947,388.2412 L515.926,389.1895 L519.2337,389.4373 L522.6144,390.0985 L526.0011,390.7944 L529.3438,391.2399 L529.4552,391.3875 L530.874,392.3948 L532.4832,393.6543 L533.7842,394.5056 L535.5449,395.9658 L537,397.0212 L537.4873,397.0212 L537.3951,404.9471 L537.5449,412.8731 L536.5706,420.7991 L536.4203,428.725 L537,436.651 L537,436.651 L536.8336,436.4306 L535.453,437.7864 L533.8849,438.8938 L532.5887,440.3614 L530.8282,441.214 L529.3438,442.4322 L529.3173,442.2821 L525.9926,443.1259 L522.5548,443.3279 L519.1975,443.9863 L515.9188,445.0913 L512.5,445.401 L512.5125,445.5942 L509.1524,445.9455 L505.7532,445.6958 L502.4029,446.1988 L499.042,446.5379 L495.6563,446.4947 L495.652,446.2848 L494.1241,446.4834 L492.5949,446.6132 L491.0684,446.8781 L489.5312,446.6179 L488,446.651 L488,446.651 L488.0042,446.8565 L486.4637,446.3737 L484.9314,446.2876 L483.4108,446.781 L481.8685,446.2074 L480.3438,446.4947 L480.3584,446.7205 L476.981,446.3676 L473.5985,445.9384 L470.2273,445.6816 L466.882,445.8232 L463.5,445.401 L463.4769,445.27 L460.1769,445.0663 L456.7199,443.9716 L453.4414,443.89 L450.0624,443.238 L446.6563,442.4322 L446.7219,442.5191 L445.1376,441.2927 L443.7884,440.3775 L442.2268,439.1811 L440.5766,437.8673 L439,436.651 L439.2384,436.651 L438.8842,428.725 L439.6368,420.7991 L439.1377,412.8731 L439.1534,404.9471 L439,397.0212 " fill="none" style="stroke:#181818;stroke-width:4.0;"/><path d="M439,397.0212 L439,397.0212 L439.0563,397.0957 L440.4203,398.0305 L442.1143,399.4022 L443.7008,400.6317 L444.9339,401.3931 L446.6563,402.8024 L446.6503,402.7684 L449.9921,403.2095 L453.3642,403.8221 L456.7572,404.5538 L460.0779,404.8748 L463.5,405.7712 L463.5159,406.0167 L466.8506,405.7104 L470.2318,406.1209 L473.6187,406.619 L476.9725,406.6081 L480.3438,406.8649 L480.3444,406.8952 L481.8747,406.882 L483.4079,407.0067 L484.9397,407.0649 L486.4741,407.2502 L488,407.0212 L488,407.0212 L488.0061,407.3193 L489.5374,407.2917 L491.0648,407.0718 L492.598,407.1334 L494.1314,407.2082 L495.6563,406.8649 L495.6355,406.5451 L499.0445,406.9471 L502.3852,406.2959 L505.7779,406.4454 L509.117,405.7704 L512.5,405.7712 L512.4947,405.7412 L515.926,405.502 L519.2337,404.5623 L522.6144,404.036 L526.0011,403.5444 L529.3438,402.8024 L529.4552,402.95 L530.874,401.6448 L532.4832,400.5918 L533.7842,399.1306 L535.5449,398.2783 L537,397.0212 " fill="none" style="stroke:#181818;stroke-width:4.0;"/><text fill="#000000" font-family="Chalkduster" font-size="24" lengthAdjust="spacing" textLength="78" x="449" y="434.862">Trove</text></g><!--entity LDaCA/ATAP--><g id="elem_LDaCA/ATAP"><path d="M1317.5,707.7812 L1317.5,707.7812 L1317.5334,707.8684 L1320.4497,706.453 L1323.562,705.5489 L1326.6105,704.4783 L1329.449,702.8601 L1332.5781,701.9999 L1332.5742,701.9656 L1335.6475,701.4561 L1338.7407,701.1196 L1341.8477,700.9034 L1344.9071,700.2728 L1348.0332,700.2226 L1348.0497,700.4681 L1351.5578,699.7048 L1355.114,699.6583 L1358.6762,699.6993 L1362.2041,699.2314 L1365.75,699.0312 L1365.7512,699.0615 L1369.2928,698.8724 L1372.84,698.8214 L1376.3844,698.7038 L1379.934,698.7131 L1383.4668,698.3085 L1383.474,698.6067 L1386.5651,698.5361 L1389.6515,698.2732 L1392.7448,698.2918 L1395.8384,698.3236 L1398.9219,697.9374 L1398.9186,697.6169 L1401.9406,698.2077 L1404.9518,697.7431 L1407.9712,698.0809 L1410.9821,697.5924 L1414,697.7812 L1414,697.7812 L1413.9997,697.7507 L1417.019,698.142 L1420.031,697.822 L1423.0474,697.9217 L1426.0641,698.0567 L1429.0781,697.9374 L1429.0826,698.1223 L1432.1691,698.0099 L1435.2632,698.2135 L1438.3451,697.9057 L1441.4452,698.3606 L1444.5332,698.3085 L1444.5431,698.5519 L1448.0846,698.6504 L1451.631,698.8698 L1455.1545,698.5276 L1458.6948,698.597 L1462.25,699.0312 L1462.2315,698.7556 L1465.7916,699.2433 L1469.3309,699.4206 L1472.9004,700.0482 L1476.4182,699.9068 L1479.9668,700.2226 L1479.9494,700.0711 L1483.0694,700.6788 L1486.115,700.6391 L1489.2135,701.0598 L1492.3638,701.931 L1495.4219,701.9999 L1495.4912,702.1807 L1498.5544,703.461 L1501.4019,704.1789 L1504.5195,705.6011 L1507.5783,706.8699 L1510.5,707.7812 L1510.0801,707.7812 L1510.4148,715.7071 L1510.612,723.6331 L1511.0793,731.5591 L1510.4963,739.485 L1510.5,747.411 L1510.5,747.411 L1510.5736,747.603 L1507.3963,748.3374 L1504.361,749.4424 L1501.5333,751.0887 L1498.3234,751.7385 L1495.4219,753.1922 L1495.4477,753.417 L1492.3414,753.6389 L1489.2262,753.7849 L1486.1309,754.1024 L1483.0811,754.8167 L1479.9668,754.9696 L1479.9579,754.8369 L1476.4411,755.4703 L1472.8636,755.201 L1469.3551,755.9582 L1465.8078,756.1375 L1462.25,756.161 L1462.2544,756.2698 L1458.7075,756.3265 L1455.1764,756.7727 L1451.631,756.8671 L1448.0796,756.8143 L1444.5332,756.8837 L1444.5361,757.0028 L1441.4408,756.9 L1438.3588,757.3504 L1435.2618,757.1751 L1432.171,757.2572 L1429.0781,757.2547 L1429.0753,756.9844 L1426.0606,757.1059 L1423.0493,757.5531 L1420.0332,757.5395 L1417.0154,757.3607 L1414,757.411 L1414,757.411 L1413.9985,757.2678 L1410.9834,757.2824 L1407.9656,757.0435 L1404.955,757.5016 L1401.9409,757.6147 L1398.9219,757.2547 L1398.9275,757.4886 L1395.8383,757.4893 L1392.7384,757.0456 L1389.6498,757.0708 L1386.5537,756.7857 L1383.4668,756.8837 L1383.4719,757.0098 L1379.9279,756.8487 L1376.3901,756.8399 L1372.8326,756.3481 L1369.2909,756.2458 L1365.75,756.161 L1365.7632,756.3576 L1362.2236,756.1743 L1358.648,755.4572 L1355.1141,755.3602 L1351.581,755.2741 L1348.0332,754.9696 L1348.0022,754.6999 L1344.9601,754.7702 L1341.8643,754.3726 L1338.755,753.8587 L1335.6764,753.6105 L1332.5781,753.1922 L1332.6941,753.4946 L1329.5127,751.9062 L1326.597,751.0105 L1323.5767,749.842 L1320.534,748.6153 L1317.5,747.411 L1317.6253,747.411 L1317.6009,739.485 L1316.9452,731.5591 L1317.1437,723.6331 L1317.0897,715.7071 L1317.5,707.7812 " fill="none" style="stroke:#181818;stroke-width:4.0;"/><path d="M1317.5,707.7812 L1317.5,707.7812 L1317.5334,707.8684 L1320.4497,708.7655 L1323.562,710.1739 L1326.6105,711.4158 L1329.449,712.1101 L1332.5781,713.5624 L1332.5742,713.5281 L1335.6475,713.7296 L1338.7407,714.104 L1341.8477,714.5987 L1344.9071,714.679 L1348.0332,715.3398 L1348.0497,715.5853 L1351.5578,715.2985 L1355.114,715.7286 L1358.6762,716.2461 L1362.2041,716.2548 L1365.75,716.5312 L1365.7512,716.5615 L1369.2928,716.6615 L1372.84,716.8995 L1376.3844,717.0709 L1379.934,717.3694 L1383.4668,717.2538 L1383.474,717.552 L1386.5651,717.6298 L1389.6515,717.5154 L1392.7448,717.6825 L1395.8384,717.8627 L1398.9219,717.6249 L1398.9186,717.3044 L1401.9406,717.9577 L1404.9518,717.5556 L1407.9712,717.9559 L1410.9821,717.5299 L1414,717.7812 L1414,717.7812 L1413.9997,717.7507 L1417.019,718.0795 L1420.031,717.697 L1423.0474,717.7342 L1426.0641,717.8067 L1429.0781,717.6249 L1429.0826,717.8098 L1432.1691,717.549 L1435.2632,717.6041 L1438.3451,717.1479 L1441.4452,717.4544 L1444.5332,717.2538 L1444.5431,717.4973 L1448.0846,717.3067 L1451.631,717.237 L1455.1545,716.6057 L1458.6948,716.3861 L1462.25,716.5312 L1462.2315,716.2556 L1465.7916,716.2668 L1469.3309,715.9674 L1472.9004,716.1185 L1476.4182,715.5006 L1479.9668,715.3398 L1479.9494,715.1883 L1483.0694,715.0851 L1486.115,714.3344 L1489.2135,714.0441 L1492.3638,714.2044 L1495.4219,713.5624 L1495.4912,713.7432 L1498.5544,712.711 L1501.4019,711.1164 L1504.5195,710.2261 L1507.5783,709.1824 L1510.5,707.7812 " fill="none" style="stroke:#181818;stroke-width:4.0;"/><text fill="#000000" font-family="Chalkduster" font-size="24" lengthAdjust="spacing" textLength="173" x="1327.5" y="745.622">LDaCA/ATAP</text></g><!--entity ADA--><g id="elem_ADA"><path d="M1209.5,707.7812 L1209.5,707.7812 L1209.5665,707.8468 L1210.5095,706.4956 L1211.8424,705.529 L1213.0483,704.4372 L1213.8368,702.9335 L1215.2031,701.9999 L1215.1952,701.9663 L1217.6689,701.2217 L1220.1826,700.6465 L1222.7243,700.1892 L1225.1699,699.3259 L1227.75,699.0312 L1227.7668,699.2766 L1231.3809,698.5017 L1235.044,698.4435 L1238.7131,698.4727 L1242.3474,697.9931 L1246,697.7812 L1246,697.7812 L1246.0021,697.8114 L1249.649,698.017 L1253.3054,698.3603 L1256.9573,698.6372 L1260.6178,699.0409 L1264.25,699.0312 L1264.3187,699.3214 L1266.8289,699.9187 L1269.2948,700.3288 L1271.8256,701.0129 L1274.3594,701.7099 L1276.7969,701.9999 L1276.5687,701.7748 L1278.1522,703.3679 L1278.9843,704.2199 L1280.3876,705.6353 L1281.2027,706.4704 L1282.5,707.7812 L1282.4391,707.7812 L1283.1592,715.7071 L1282.4567,723.6331 L1282.5936,731.5591 L1282.801,739.485 L1282.5,747.411 L1282.5,747.411 L1282.6317,747.5409 L1281.3581,748.566 L1280.3096,749.8131 L1278.897,750.7011 L1278.0275,752.1248 L1276.7969,753.1922 L1276.853,753.4293 L1274.333,753.9783 L1271.8409,754.6449 L1269.2193,754.7646 L1266.6926,755.2852 L1264.25,756.161 L1264.2311,755.8855 L1260.5982,756.3849 L1256.944,756.5739 L1253.3207,757.2131 L1249.6447,757.0835 L1246,757.411 L1246,757.411 L1245.9896,757.2589 L1242.3569,757.2622 L1238.6797,756.6153 L1235.0342,756.4308 L1231.4197,756.6987 L1227.75,756.161 L1227.7946,756.3494 L1225.3158,755.8849 L1222.6983,754.8343 L1220.2545,754.5178 L1217.7729,754.0414 L1215.2031,753.1922 L1215.0537,753.0448 L1214.0322,752.0061 L1212.9617,750.9191 L1211.9875,749.9269 L1210.6393,748.5659 L1209.5,747.411 L1209.9112,747.411 L1209.0077,739.485 L1208.898,731.5591 L1209.9477,723.6331 L1208.8627,715.7071 L1209.5,707.7812 " fill="none" style="stroke:#181818;stroke-width:4.0;"/><path d="M1209.5,707.7812 L1209.5,707.7812 L1209.5665,707.8468 L1210.5095,708.8081 L1211.8424,710.154 L1213.0483,711.3747 L1213.8368,712.1835 L1215.2031,713.5624 L1215.1952,713.5288 L1217.6689,713.9717 L1220.1826,714.584 L1222.7243,715.3142 L1225.1699,715.6384 L1227.75,716.5312 L1227.7668,716.7766 L1231.3809,716.5017 L1235.044,716.9435 L1238.7131,717.4727 L1242.3474,717.4931 L1246,717.7812 L1246,717.7812 L1246.0021,717.8114 L1249.649,717.517 L1253.3054,717.3603 L1256.9573,717.1372 L1260.6178,717.0409 L1264.25,716.5312 L1264.3187,716.8214 L1266.8289,716.2312 L1269.2948,715.4538 L1271.8256,714.9504 L1274.3594,714.4599 L1276.7969,713.5624 L1276.5687,713.3373 L1278.1522,712.6179 L1278.9843,711.1574 L1280.3876,710.2603 L1281.2027,708.7829 L1282.5,707.7812 " fill="none" style="stroke:#181818;stroke-width:4.0;"/><text fill="#000000" font-family="Chalkduster" font-size="24" lengthAdjust="spacing" textLength="53" x="1219.5" y="745.622">ADA</text></g><!--entity hr--><g id="elem_hr"><path d="M959.5,677.1512 L959.5,677.1512 L959.5304,677.2395 L962.7994,675.8208 L966.2467,674.9199 L969.6359,673.8504 L972.8343,672.2264 L976.2969,671.3699 L976.2933,671.3356 L979.7208,670.8259 L983.1661,670.4894 L986.6238,670.2734 L990.0388,669.6424 L993.5137,669.5926 L993.5285,669.8382 L997.4441,669.0747 L1001.4029,669.0283 L1005.367,669.0694 L1009.3004,668.6014 L1013.25,668.4012 L1013.2511,668.4315 L1017.1967,668.2424 L1021.1474,668.1914 L1025.0957,668.0738 L1029.0486,668.0832 L1032.9863,667.6785 L1032.9928,667.9767 L1036.4362,667.9061 L1039.8755,667.6432 L1043.3208,667.6618 L1046.7665,667.6937 L1050.2031,667.3074 L1050.2001,666.9869 L1053.5653,667.5777 L1056.9206,667.1131 L1060.2835,667.4509 L1063.6386,666.9624 L1067,667.1512 L1067,667.1512 L1066.9997,667.1207 L1070.3624,667.512 L1073.7185,667.192 L1077.0786,667.2917 L1080.4389,667.4267 L1083.7969,667.3074 L1083.8009,667.4924 L1087.2402,667.3799 L1090.6863,667.5835 L1094.1215,667.2757 L1097.573,667.7307 L1101.0137,667.6785 L1101.0226,667.922 L1104.9682,668.0205 L1108.9182,668.2398 L1112.8476,667.8975 L1116.7921,667.967 L1120.75,668.4012 L1120.7334,668.1255 L1124.6957,668.6133 L1128.6393,668.7905 L1132.61,669.4183 L1136.5344,669.2768 L1140.4863,669.5926 L1140.4707,669.4409 L1143.9401,670.049 L1147.3426,670.0087 L1150.7927,670.4295 L1154.2894,671.3013 L1157.7031,671.3699 L1157.7661,671.553 L1161.1687,672.8348 L1164.3753,673.5472 L1167.8274,674.9728 L1171.226,676.243 L1174.5,677.1512 L1173.2403,677.1512 L1174.2444,687.2401 L1174.836,697.3291 L1176.238,707.418 L1174.4888,717.507 L1175.7335,727.5959 L1173.0232,737.6849 L1172.694,747.7738 L1175.843,757.8628 L1172.5882,767.9517 L1174.5,778.0407 L1174.5,778.0407 L1174.5736,778.2546 L1171.1705,779.2837 L1167.7425,780.2406 L1164.3707,781.3607 L1161.1289,782.8585 L1157.7031,783.8219 L1157.6895,783.6896 L1154.2868,784.439 L1150.7912,784.2885 L1147.4012,785.1613 L1143.9518,785.4579 L1140.4863,785.5993 L1140.4929,785.7079 L1136.5403,785.8585 L1132.6113,786.3982 L1128.661,786.5863 L1124.7018,786.6275 L1120.75,786.7907 L1120.7544,786.9098 L1116.8006,786.8773 L1112.8671,787.3979 L1108.9107,787.293 L1104.9637,787.4454 L1101.0137,787.5133 L1101.0078,787.243 L1097.5664,787.4075 L1094.132,787.8976 L1090.6877,787.9269 L1087.2398,787.7911 L1083.7969,787.8844 L1083.7955,787.7412 L1080.4366,787.8184 L1077.0753,787.642 L1073.7205,788.1625 L1070.3624,788.3381 L1067,788.0407 L1067,788.0407 L1067.0022,788.2746 L1063.6435,788.3183 L1060.2807,787.9174 L1056.9222,787.9857 L1053.5609,787.7434 L1050.2031,787.8844 L1050.2058,788.0106 L1046.7621,787.9198 L1043.3217,787.9814 L1039.8708,787.5597 L1036.4284,787.5278 L1032.9863,787.5133 L1032.9935,787.7103 L1029.0483,787.6208 L1025.0835,786.9966 L1021.1414,786.9936 L1017.1997,787.0015 L1013.25,786.7907 L1013.2336,786.5197 L1009.3122,786.7092 L1005.3624,786.4286 L1001.4055,786.0311 L997.4647,785.9006 L993.5137,785.5993 L993.5469,785.9214 L990.056,785.1055 L986.6413,785.0276 L983.1966,784.6591 L979.7455,784.2286 L976.2969,783.8219 L976.3173,783.8811 L972.9539,782.7133 L969.4878,781.2471 L966.1608,780.1847 L962.7926,779.003 L959.5,778.0407 L959.6702,778.0407 L959.735,767.9517 L959.9313,757.8628 L958.7241,747.7738 L959.32,737.6849 L959.1794,727.5959 L961.0383,717.507 L960.6375,707.418 L958.2052,697.3291 L959.3055,687.2401 L959.5,677.1512 " fill="none" style="stroke:#181818;stroke-width:4.0;"/><path d="M959.5,677.1512 L959.5,677.1512 L959.5304,677.2395 L962.7994,678.1333 L966.2467,679.5449 L969.6359,680.7879 L972.8343,681.4764 L976.2969,682.9324 L976.2933,682.8981 L979.7208,683.0993 L983.1661,683.4738 L986.6238,683.9687 L990.0388,684.0486 L993.5137,684.7098 L993.5285,684.9554 L997.4441,684.6684 L1001.4029,685.0986 L1005.367,685.6162 L1009.3004,685.6248 L1013.25,685.9012 L1013.2511,685.9315 L1017.1967,686.0315 L1021.1474,686.2695 L1025.0957,686.441 L1029.0486,686.7394 L1032.9863,686.6238 L1032.9928,686.922 L1036.4362,686.9999 L1039.8755,686.8854 L1043.3208,687.0525 L1046.7665,687.2327 L1050.2031,686.9949 L1050.2001,686.6744 L1053.5653,687.3277 L1056.9206,686.9256 L1060.2835,687.3259 L1063.6386,686.8999 L1067,687.1512 L1067,687.1512 L1066.9997,687.1207 L1070.3624,687.4495 L1073.7185,687.067 L1077.0786,687.1042 L1080.4389,687.1767 L1083.7969,686.9949 L1083.8009,687.1799 L1087.2402,686.919 L1090.6863,686.9741 L1094.1215,686.5179 L1097.573,686.8244 L1101.0137,686.6238 L1101.0226,686.8673 L1104.9682,686.6767 L1108.9182,686.607 L1112.8476,685.9757 L1116.7921,685.756 L1120.75,685.9012 L1120.7334,685.6255 L1124.6957,685.6368 L1128.6393,685.3374 L1132.61,685.4886 L1136.5344,684.8705 L1140.4863,684.7098 L1140.4707,684.5581 L1143.9401,684.4552 L1147.3426,683.704 L1150.7927,683.4138 L1154.2894,683.5748 L1157.7031,682.9324 L1157.7661,683.1155 L1161.1687,682.0848 L1164.3753,680.4847 L1167.8274,679.5978 L1171.226,678.5555 L1174.5,677.1512 " fill="none" style="stroke:#181818;stroke-width:4.0;"/><text fill="#000000" font-family="Chalkduster" font-size="24" lengthAdjust="spacing" textLength="57" x="969.5" y="714.992">HASS</text><text fill="#000000" font-family="Chalkduster" font-size="24" lengthAdjust="spacing" textLength="195" x="969.5" y="745.6219">Research Data</text><text fill="#000000" font-family="Chalkduster" font-size="24" lengthAdjust="spacing" textLength="137" x="969.5" y="776.2517">repository</text></g><!--entity Zeondo et al--><g id="elem_Zeondo et al"><path d="M721.5,707.7812 L721.5,707.7812 L721.532,707.8689 L724.6088,706.4519 L727.8732,705.5494 L731.0765,704.4793 L734.0789,702.8583 L737.3594,701.9999 L737.3556,701.9656 L740.5899,701.456 L743.8432,701.1195 L747.1096,700.9034 L750.3307,700.2726 L753.6152,700.2226 L753.6309,700.4681 L757.3243,699.7047 L761.0635,699.6583 L764.8083,699.6993 L768.5206,699.2314 L772.25,699.0312 L772.2512,699.0615 L775.9764,698.8724 L779.707,698.8214 L783.435,698.7038 L787.1679,698.7131 L790.8848,698.3085 L790.8916,698.6067 L794.1428,698.5361 L797.3897,698.2732 L800.643,698.2918 L803.8966,698.3237 L807.1406,697.9374 L807.1375,697.6169 L810.3155,698.2077 L813.4831,697.7431 L816.6586,698.0809 L819.826,697.5924 L823,697.7812 L823,697.7812 L822.9997,697.7507 L826.1751,698.142 L829.3435,697.822 L832.5161,697.9217 L835.689,698.0567 L838.8594,697.9374 L838.8636,698.1224 L842.1105,698.0099 L845.3646,698.2135 L848.6071,697.9057 L851.8669,698.3606 L855.1152,698.3085 L855.1247,698.552 L858.8498,698.6505 L862.5797,698.8698 L866.2878,698.5276 L870.0118,698.597 L873.75,699.0312 L873.7324,698.7555 L877.4753,699.2433 L881.1983,699.4206 L884.9502,700.0482 L888.6529,699.9068 L892.3848,700.2226 L892.3682,700.071 L895.647,700.6789 L898.8549,700.6389 L902.1132,701.0596 L905.4208,701.9312 L908.6406,701.9999 L908.7069,702.1818 L911.9243,703.4629 L914.9354,704.178 L918.2048,705.6019 L921.418,706.8714 L924.5,707.7812 L924.0801,707.7812 L924.4148,715.7071 L924.612,723.6331 L925.0793,731.5591 L924.4963,739.485 L924.5,747.411 L924.5,747.411 L924.5704,747.6041 L921.2438,748.336 L918.0532,749.4407 L915.061,751.09 L911.7034,751.7366 L908.6406,753.1922 L908.6652,753.4171 L905.3994,753.639 L902.1253,753.7848 L898.87,754.1023 L895.6581,754.8168 L892.3848,754.9696 L892.3763,754.8368 L888.6746,755.4704 L884.9152,755.201 L881.2214,755.9583 L877.4907,756.1375 L873.75,756.161 L873.7542,756.2698 L870.0239,756.3265 L866.3086,756.7728 L862.5797,756.8671 L858.8451,756.8143 L855.1152,756.8837 L855.118,757.0028 L851.8627,756.9 L848.6202,757.3504 L845.3633,757.1751 L842.1123,757.2572 L838.8594,757.2547 L838.8567,756.9844 L835.6857,757.1059 L832.5179,757.5531 L829.3456,757.5395 L826.1717,757.3607 L823,757.411 L823,757.411 L822.9986,757.2678 L819.8272,757.2824 L816.6532,757.0435 L813.4862,757.5016 L810.3157,757.6147 L807.1406,757.2547 L807.146,757.4886 L803.8965,757.4893 L800.6369,757.0456 L797.388,757.0708 L794.132,756.7856 L790.8848,756.8837 L790.8897,757.0098 L787.1621,756.8487 L783.4404,756.8399 L779.7,756.3481 L775.9746,756.2458 L772.25,756.161 L772.2626,756.3577 L768.5391,756.1743 L764.7816,755.4571 L761.0636,755.3602 L757.3464,755.2741 L753.6152,754.9696 L753.5857,754.6997 L750.3811,754.7703 L747.1254,754.3726 L743.8569,753.8587 L740.6174,753.6106 L737.3594,753.1922 L737.4703,753.4965 L734.1399,751.9053 L731.0636,751.0113 L727.8872,749.8428 L724.6895,748.6156 L721.5,747.411 L721.6253,747.411 L721.6009,739.485 L720.9452,731.5591 L721.1437,723.6331 L721.0897,715.7071 L721.5,707.7812 " fill="none" style="stroke:#181818;stroke-width:4.0;"/><path d="M721.5,707.7812 L721.5,707.7812 L721.532,707.8689 L724.6088,708.7644 L727.8732,710.1744 L731.0765,711.4168 L734.0789,712.1083 L737.3594,713.5624 L737.3556,713.5281 L740.5899,713.7294 L743.8432,714.1039 L747.1096,714.5987 L750.3307,714.6788 L753.6152,715.3398 L753.6309,715.5853 L757.3243,715.2985 L761.0635,715.7286 L764.8083,716.2462 L768.5206,716.2548 L772.25,716.5312 L772.2512,716.5615 L775.9764,716.6615 L779.707,716.8995 L783.435,717.071 L787.1679,717.3694 L790.8848,717.2538 L790.8916,717.552 L794.1428,717.6298 L797.3897,717.5154 L800.643,717.6825 L803.8966,717.8627 L807.1406,717.6249 L807.1375,717.3044 L810.3155,717.9577 L813.4831,717.5556 L816.6586,717.9559 L819.826,717.5299 L823,717.7812 L823,717.7812 L822.9997,717.7507 L826.1751,718.0795 L829.3435,717.697 L832.5161,717.7342 L835.689,717.8067 L838.8594,717.6249 L838.8636,717.8099 L842.1105,717.549 L845.3646,717.6041 L848.6071,717.1479 L851.8669,717.4544 L855.1152,717.2538 L855.1247,717.4973 L858.8498,717.3067 L862.5797,717.237 L866.2878,716.6057 L870.0118,716.3861 L873.75,716.5312 L873.7324,716.2555 L877.4753,716.2668 L881.1983,715.9674 L884.9502,716.1185 L888.6529,715.5006 L892.3848,715.3398 L892.3682,715.1882 L895.647,715.0851 L898.8549,714.3342 L902.1132,714.044 L905.4208,714.2046 L908.6406,713.5624 L908.7069,713.7443 L911.9243,712.7129 L914.9354,711.1155 L918.2048,710.2269 L921.418,709.1839 L924.5,707.7812 " fill="none" style="stroke:#181818;stroke-width:4.0;"/><text fill="#000000" font-family="Chalkduster" font-size="24" lengthAdjust="spacing" textLength="183" x="731.5" y="745.622">Zeondo et al</text></g><!--entity dn--><g id="elem_dn"><path d="M544,707.7812 L544,707.7812 L544.0582,707.8543 L546.0854,705.8871 L548.4535,704.3484 L550.7106,702.6702 L552.6026,700.533 L555,699.0312 L554.9961,698.9968 L557.1786,698.5928 L559.3808,698.3618 L561.5966,698.2511 L563.7653,697.7259 L566,697.7812 L566,697.7812 L566.0278,698.0257 L568.1684,697.7528 L570.3901,698.1938 L572.6217,698.7219 L574.7957,698.7433 L577,699.0312 L577.0189,699.0549 L579.1912,700.77 L581.4494,702.5933 L583.6662,704.3643 L585.962,706.2349 L588,707.7812 L588.5965,707.7812 L588.6038,715.7071 L588.2263,723.6331 L588.4121,731.5591 L588.6242,739.485 L588,747.411 L588,747.411 L587.8005,747.1601 L585.9877,749.397 L583.518,750.8079 L581.5477,752.8467 L579.063,754.2388 L577,756.161 L576.9966,756.1307 L574.8372,756.7385 L572.5976,756.6395 L570.4053,756.9575 L568.217,757.3105 L566,757.411 L566,757.411 L566.0209,757.5948 L563.7998,757.1593 L561.6144,757.0378 L559.3713,756.4082 L557.2143,756.5366 L555,756.161 L555.1517,756.3517 L552.923,754.5656 L550.7696,752.8742 L548.2663,750.743 L546.0196,748.9341 L544,747.411 L543.4476,747.411 L543.9477,739.485 L543.8253,731.5591 L544.6057,723.6331 L543.8447,715.7071 L544,707.7812 " fill="none" style="stroke:#181818;stroke-width:4.0;"/><path d="M544,707.7812 L544,707.7812 L544.0582,707.8543 L546.0854,709.3871 L548.4535,711.3484 L550.7106,713.1702 L552.6026,714.533 L555,716.5312 L554.9961,716.4968 L557.1786,716.5928 L559.3808,716.8618 L561.5966,717.2511 L563.7653,717.2259 L566,717.7812 L566,717.7812 L566.0278,718.0257 L568.1684,717.2528 L570.3901,717.1938 L572.6217,717.2219 L574.7957,716.7433 L577,716.5312 L577.0189,716.5549 L579.1912,714.77 L581.4494,713.0933 L583.6662,711.3643 L585.962,709.7349 L588,707.7812 " fill="none" style="stroke:#181818;stroke-width:4.0;"/><text fill="#000000" font-family="Chalkduster" font-size="24" lengthAdjust="spacing" textLength="24" x="554" y="745.622">...</text></g><!--entity a1--><g id="elem_a1"><path d="M406.5,707.7812 L406.5,707.7812 L406.5661,707.8472 L408.1198,705.901 L410.0607,704.3419 L411.8756,702.6568 L413.2758,700.557 L415.25,699.0312 L415.2451,698.997 L416.9732,698.5935 L418.7259,698.3624 L420.4957,698.2512 L422.2065,697.727 L424,697.7812 L424,697.7812 L424.0348,698.0248 L425.7104,697.7539 L427.4876,698.1941 L429.2771,698.7212 L430.9946,698.7434 L432.75,699.0312 L432.7714,699.0526 L434.49,700.7711 L436.3061,702.5873 L438.0752,704.3563 L439.9341,706.2152 L441.5,707.7812 L442.0965,707.7812 L442.1038,715.7071 L441.7263,723.6331 L441.9121,731.5591 L442.1242,739.485 L441.5,747.411 L441.5,747.411 L441.2734,747.1843 L439.9632,749.3742 L437.9068,750.8178 L436.4178,752.8288 L434.3444,754.2554 L432.75,756.161 L432.7457,756.1309 L431.0466,756.7373 L429.2469,756.6396 L427.5066,756.9573 L425.7713,757.31 L424,757.411 L424,757.411 L424.0262,757.5941 L422.2498,757.1593 L420.5181,757.0374 L418.714,756.4091 L417.0179,756.5361 L415.25,756.161 L415.4223,756.3333 L413.6397,754.5507 L411.9427,752.8536 L409.8482,750.7592 L408.045,748.956 L406.5,747.411 L405.9476,747.411 L406.4477,739.485 L406.3253,731.5591 L407.1057,723.6331 L406.3447,715.7071 L406.5,707.7812 " fill="none" style="stroke:#181818;stroke-width:4.0;"/><path d="M406.5,707.7812 L406.5,707.7812 L406.5661,707.8472 L408.1198,709.401 L410.0607,711.3419 L411.8756,713.1568 L413.2758,714.557 L415.25,716.5312 L415.2451,716.497 L416.9732,716.5935 L418.7259,716.8624 L420.4957,717.2512 L422.2065,717.227 L424,717.7812 L424,717.7812 L424.0348,718.0248 L425.7104,717.2539 L427.4876,717.1941 L429.2771,717.2212 L430.9946,716.7434 L432.75,716.5312 L432.7714,716.5526 L434.49,714.7711 L436.3061,713.0873 L438.0752,711.3563 L439.9341,709.7152 L441.5,707.7812 " fill="none" style="stroke:#181818;stroke-width:4.0;"/><text fill="#000000" font-family="Chalkduster" font-size="24" lengthAdjust="spacing" textLength="15" x="416.5" y="745.622">1</text></g><!--entity a2--><g id="elem_a2"><path d="M476.5,707.7812 L476.5,707.7812 L476.5484,707.861 L479.7046,705.6237 L483.1445,703.8546 L486.4921,701.9331 L489.5357,699.51 L493,697.7812 L493,697.7812 L492.9821,697.7516 L496.2018,699.6191 L499.5117,701.6354 L502.8843,703.7553 L506.0407,705.5184 L509.5,707.7812 L509.9921,707.7812 L508.9398,715.7071 L509.3242,723.6331 L509.884,731.5591 L509.4238,739.485 L509.5,747.411 L509.5,747.411 L509.5157,747.4369 L506.1926,749.3989 L502.9411,751.4788 L499.6551,753.5019 L496.4349,755.6336 L493,757.411 L493,757.411 L493.1546,757.6661 L489.8565,755.6692 L486.4587,753.5078 L483.2068,751.5872 L479.9618,749.6779 L476.5,747.411 L475.8589,747.411 L477.1031,739.485 L476.2364,731.5591 L476.9745,723.6331 L476.06,715.7071 L476.5,707.7812 " fill="none" style="stroke:#181818;stroke-width:4.0;"/><path d="M476.5,707.7812 L476.5,707.7812 L476.5484,707.861 L479.7046,709.6237 L483.1445,711.8546 L486.4921,713.9331 L489.5357,715.51 L493,717.7812 L493,717.7812 L492.9821,717.7516 L496.2018,715.6191 L499.5117,713.6354 L502.8843,711.7553 L506.0407,709.5184 L509.5,707.7812 " fill="none" style="stroke:#181818;stroke-width:4.0;"/><text fill="#000000" font-family="Chalkduster" font-size="24" lengthAdjust="spacing" textLength="13" x="486.5" y="745.622">2</text></g><g id="elem_GMN5"><path d="M6,365.8912 L6.5605,365.8912 L4.8951,376.0801 L6.5154,386.2691 L7.0658,396.458 L4.0976,406.647 L5.7928,416.8359 L4.8627,427.0249 L4.9773,437.2138 L5.8182,447.4028 L4.1563,457.5917 L6,467.7807 L6,469.257 L15.95,466.0999 L25.9,467.2533 L35.85,468.9325 L45.8,467.5519 L55.75,467.9626 L65.7,467.6955 L75.65,468.2567 L85.6,468.4184 L95.55,469.3425 L105.5,469.5701 L115.45,469.592 L125.4,468.4597 L135.35,469.0169 L145.3,469.6533 L155.25,465.8575 L165.2,469.59 L175.15,466.99 L185.1,469.2042 L195.05,466.4606 L205,467.598 L214.95,469.7583 L224.9,467.6507 L234.85,468.0615 L244.8,468.6837 L254.75,468.8906 L264.7,467.7702 L274.65,468.5466 L284.6,466.2542 L294.55,468.539 L304.5,469.2425 L314.45,468.9661 L324.4,469.4154 L334.35,466.4924 L344.3,466.0415 L354.25,466.1236 L364.2,467.6236 L374.15,467.2566 L384.1,469.5978 L394.05,467.3149 L404,467.7807 L403.0852,467.7807 L404.6087,457.5707 L402.2218,447.3608 L402.6157,437.1508 L405.7305,426.9409 L405.1618,416.7309 L405.9586,406.521 L403.1419,396.311 L404.8512,386.1011 L404,375.8912 L404.3711,376.2623 L401.7031,373.5942 L399.9397,371.8309 L398.0792,369.9703 L396.4097,368.3008 L394,365.8912 L394,365.88 L384.0513,367.1247 L374.1026,364.4144 L364.1538,364.0851 L354.2051,367.2341 L344.2564,363.9793 L334.3077,367.2484 L324.359,366.4422 L314.4103,365.1767 L304.4615,364.9478 L294.5128,367.1145 L284.5641,365.0929 L274.6154,367.4695 L264.6667,364.4172 L254.7179,367.5376 L244.7692,367.1826 L234.8205,366.5444 L224.8718,366.0171 L214.9231,367.8288 L204.9744,367.5274 L195.0256,366.3425 L185.0769,366.6063 L175.1282,365.5438 L165.1795,367.8017 L155.2308,366.3041 L145.2821,366.3514 L135.3333,364.2689 L125.3846,364.8106 L115.4359,367.3065 L105.4872,367.0372 L95.5385,365.7767 L85.5897,365.032 L75.641,365.3074 L65.6923,364.0614 L55.7436,366.9971 L45.7949,367.8633 L35.8462,367.2949 L25.8974,367.7443 L15.9487,365.5266 L6,365.8912 " fill="none" style="stroke:#181818;stroke-width:4.0;"/><path d="M394,365.8912 L394.1868,365.8912 L393.6317,367.8912 L394.1718,369.8912 L394.3553,371.8912 L393.3659,373.8912 L394,375.8912 L394,375.8221 L396,375.5121 L398,375.5503 L400,375.8306 L402,375.2766 L404,375.8912 L404.348,376.2391 L401.6038,373.495 L399.8757,371.7669 L398.2715,370.1627 L395.9461,367.8372 L394,365.8912 " fill="none" style="stroke:#181818;stroke-width:1.0;"/><text fill="#000000" font-family="Chalkduster" font-size="24" lengthAdjust="spacing" textLength="377" x="12" y="394.732">Data is labelled as a static</text><text fill="#000000" font-family="Chalkduster" font-size="24" lengthAdjust="spacing" textLength="207" x="12" y="425.3619">Trove snapshot</text><text fill="#000000" font-family="Chalkduster" font-size="24" lengthAdjust="spacing" textLength="330" x="12" y="455.9917">as per forthcoming MOU</text></g><!--link GMN5 to Metadata--><g id="link_GMN5_Metadata"><path d="M282.17,365.4312 L282.2169,365.5119 L285.5017,363.283 L289.0615,361.5276 L292.5317,359.6179 L295.7074,357.2012 L299.2908,355.4865 L299.2742,355.4562 L302.8396,353.3201 L306.4888,351.3366 L310.1963,349.4593 L313.7029,347.2163 L317.4909,345.4854 L317.6052,345.7033 L319.2508,344.2466 L321.23,343.4262 L323.2499,342.6833 L325.0331,341.4889 L326.9407,340.5319 L326.9544,340.559 L328.865,339.5421 L330.838,338.6485 L332.7809,337.6954 L334.7812,336.8556 L336.5943,335.6463 L336.7249,335.9144 L338.6936,334.9595 L340.5781,333.8318 L342.5858,332.9571 L344.5993,332.0944 L346.4298,330.8557 L346.2941,330.5652 L348.5564,330.1952 L350.3721,328.869 L352.5273,328.2697 L354.3329,326.9217 L356.425,326.1874 L356.4126,326.1596 L358.5858,325.5847 L360.4694,324.3602 L362.5239,323.519 L364.5927,322.71 L366.5581,321.6688 L366.6302,321.8392 L368.6071,320.7989 L370.7074,320.0497 L372.6081,318.8296 L374.8064,318.3119 L376.8069,317.3272 L376.8974,317.5534 L378.9488,316.6831 L381.0452,315.9252 L382.9328,314.6454 L384.9734,313.7481 L387.1496,313.1897 L387.0526,312.9311 L389.2233,312.384 L391.2847,311.5456 L393.5046,311.1297 L395.4539,309.9923 L397.5641,309.2838 L397.5139,309.1398 L399.6903,308.6502 L401.6522,307.5451 L403.7667,306.8777 L406.0304,306.6385 L408.0283,305.6367 L408.0874,305.8211 L410.2263,305.2754 L412.1815,304.1561 L414.3669,303.7552 L416.5021,303.1978 L418.5204,302.2757 L418.4619,302.0741 L420.6081,301.6253 L422.7352,301.1104 L424.8999,300.7253 L426.9182,299.8358 L429.0183,299.2281 L429.0697,299.4272 L431.0531,298.4484 L433.1357,297.8539 L435.3633,297.8207 L437.324,296.754 L439.5,296.5212 L439.5476,296.7423 L442.766,295.9128 L445.9685,295.0085 L449.2072,294.2731 L452.5298,293.928 L455.7337,293.0306 L455.7108,292.8995 L459.5691,292.6277 L463.2718,291.4647 L467.1514,291.315 L470.9314,290.5948 L474.6846,289.7208 L474.7001,289.8285 L478.942,289.1279 L483.2394,288.8132 L487.4867,288.1498 L491.7129,287.3408 L495.9565,286.6527 L495.9706,286.7711 L500.589,286.0422 L505.273,285.8628 L509.8828,285.0619 L514.5231,284.5166 L519.1534,283.8874 L519.1273,283.6183 L524.0812,283.2278 L529.0666,283.1616 L534.0074,282.6366 L538.9323,281.9472 L543.8793,281.4859 L543.8684,281.3431 L549.0437,280.9935 L554.1996,280.3911 L559.4086,280.4836 L564.5914,280.2322 L569.7381,279.5091 L569.7512,279.7426 L575.0745,279.5192 L580.3729,278.852 L585.6976,278.6531 L591.0049,278.1442 L596.3337,278.018 L596.3381,278.1441 L601.7248,277.9387 L607.1168,277.8856 L612.4919,277.3494 L617.8806,277.2028 L623.27,277.0737 L623.2736,277.2707 L625.9691,277.2762 L628.6547,276.7467 L631.3517,276.8387 L634.049,276.9415 L636.7422,276.8256 L636.7404,276.5541 L639.425,276.9649 L642.1065,276.9048 L644.7872,276.7277 L647.4697,276.818 L650.151,276.7371 L650.1529,277.0609 L652.8094,276.6138 L655.4702,276.9085 L658.1294,276.9112 L660.7881,276.8515 L663.447,276.8157 L663.4482,276.8784 L666.0747,276.9169 L668.6951,276.6398 L671.3238,276.7897 L673.95,276.8134 L676.5807,277.0692 L676.5816,277.0976 L679.1663,277.1955 L681.7518,277.3154 L684.3294,277.2015 L686.9171,277.3879 L689.5024,277.5051 L689.4998,277.4517 L692.0472,277.8864 L694.576,277.9449 L697.088,277.6652 L699.6292,277.9735 L702.1629,278.1311 L702.1458,277.8751 L704.6413,278.4237 L707.1207,278.7304 L709.5887,278.8668 L712.0296,278.5968 L714.5124,278.9547 L714.53,279.1602 L716.882,278.8316 L719.3157,279.4549 L721.6945,279.4395 L724.1074,279.8207 L726.5016,279.9837 L726.513,280.0899 L728.8398,280.4407 L731.0991,280.1623 L733.4717,280.9389 L735.7734,281.0559 L738.0808,281.2255 L738.1014,281.3821 L740.3481,281.8475 L742.5291,281.8129 L744.7629,282.1802 L746.9891,282.4895 L749.2007,282.688 L749.2145,282.7745 L751.3228,283.0257 L753.4948,283.6761 L755.5246,283.4347 L757.729,284.2886 L759.8116,284.3786 L759.7594,284.1062 L761.777,284.528 L763.836,285.1666 L765.8455,285.5468 L767.8124,285.7046 L769.8642,286.305 L769.9091,286.4833 L773.5224,287.2701 L777.2358,288.4545 L780.8757,289.3469 L784.401,289.7844 L788.096,290.8957 L788.0353,290.7296 L791.1571,291.9669 L794.3118,293.2943 L797.3998,294.4392 L800.4651,295.5218 L803.5,296.5212 L803.4286,296.387 L806.7846,298.4492 L809.9357,300.1267 L812.9451,301.5379 L816.0567,303.1412 L819.2583,304.9134 L819.1555,304.7675 L822.1545,306.9137 L825.1958,309.1198 L828.0943,311.1233 L830.9561,313.0745 L834.0142,315.3046 L834.1562,315.4682 L836.6181,317.5265 L839.6357,320.225 L842.3514,322.5757 L845.0729,324.933 L847.7021,327.1841 L847.9223,327.3991 L850.1348,329.6792 L852.6282,332.2336 L855.3996,335.0594 L857.5556,337.2844 L860.2563,340.0412 L860.1771,339.9737 L862.5662,342.7392 L864.8213,345.3905 L866.9477,347.9322 L869.3254,350.6879 L871.6108,353.3651 L871.8743,353.5653 L873.8582,356.1955 L875.4355,358.5168 L877.6922,361.3543 L879.5004,363.851 L881.7002,366.6452 L881.6905,366.6386 L883.5591,369.2642 L885.3572,371.8413 L886.7118,374.1131 L888.8534,376.9266 L890.4585,379.3708 L890.4616,379.3728 L891.7221,381.5711 L893.226,383.9232 L894.9981,386.4445 L896.4416,388.7584 L897.82,391.0312 " fill="none" style="stroke:#181818;stroke-width:4.0;stroke-dasharray:7.0,7.0;"/></g><!--link res to Trove--><g id="link_res_Trove"><path d="M492.54,261.8212 L492.6211,261.8675 L490.7266,264.6264 L489.3076,267.6567 L487.7338,270.5987 L485.6506,273.25 L484.2725,276.3037 L484.2406,276.2905 L482.8428,279.2749 L481.6059,282.3257 L480.481,285.4226 L478.9704,288.3606 L478,291.5212 L478.2381,291.5833 L477.1443,293.6899 L476.7457,295.978 L476.4318,298.2882 L475.6245,300.4696 L475.0768,302.7187 L475.1067,302.7234 L474.7029,305.0281 L474.4356,307.354 L474.1024,309.6697 L473.8948,312.005 L473.2778,314.2765 L473.5753,314.2972 L473.4158,316.6451 L473.0643,318.9796 L472.9938,321.3337 L472.9364,323.6887 L472.4618,326.0147 L472.1413,326.014 L472.7685,328.3632 L472.3403,330.71 L472.7145,333.0586 L472.2624,335.4054 L472.4875,337.7537 L472.4571,337.7518 L472.9616,340.0863 L472.7563,342.3763 L472.9698,344.6925 L473.2185,347.011 L473.2135,349.3135 L473.3973,349.3346 L473.4687,351.5536 L473.8543,353.8085 L473.7317,356.0052 L474.367,358.2888 L474.4984,360.5146 L474.739,360.553 L475.0341,362.6782 L475.4485,364.8225 L475.308,366.8782 L475.5743,368.9989 L476.2011,371.1771 L475.9302,371.1232 L476.5712,373.1608 L476.907,375.1377 L477.6854,377.2026 L477.7081,379.1172 L478.18,381.1212 " fill="none" style="stroke:#181818;stroke-width:4.0;"/><polygon fill="#181818" points="479.45,385.7212,479.5187,385.7347,479.6942,383.7617,480.2727,381.8679,480.7199,379.9484,480.7356,377.944,481.3486,376.057,481.3267,376.0433,480.6262,376.9392,480.0362,377.9047,479.5231,378.9185,478.7452,379.7658,478.3382,380.8463,478.4364,381.0026,477.2685,380.0664,476.3874,379.5864,475.5412,379.162,474.4915,378.4138,473.5489,377.8359,473.5671,377.8496,474.7206,379.4066,475.957,381.0257,477.1534,382.6148,478.4261,384.2611,479.45,385.7212" style="stroke:#181818;stroke-width:4.0;"/><text fill="#000000" font-family="Chalkduster" font-size="24" lengthAdjust="spacing" textLength="155" x="479" y="316.362">Select data</text></g><!--link res to ro--><g id="link_res_ro"><path d="M608.89,260.7012 L608.9514,260.7716 L610.4072,261.9904 L612.2228,263.622 L613.9212,265.1192 L615.2343,266.1743 L617.0808,267.8413 L617.0569,267.8164 L618.5181,269.2108 L620.0999,270.7308 L621.7656,272.3381 L623.1423,273.6446 L624.9237,275.3724 L625.1039,275.5401 L626.1894,276.7617 L627.8008,278.4727 L629.4764,280.2435 L630.7787,281.6668 L632.2773,283.2729 L632.3009,283.292 L633.6109,284.9136 L635.0279,286.6223 L636.3933,288.289 L637.8572,290.036 L639,291.5212 L639.2444,291.692 L640.5077,293.497 L641.6134,295.1918 L642.9498,297.0479 L644.2971,298.9116 L645.3016,300.5357 L645.0273,300.3699 L646.7135,302.6011 L647.4965,304.2865 L648.9662,306.3868 L649.7287,308.0598 L651.0708,310.0831 L651.0439,310.0688 L652.4131,312.2233 L653.1536,314.0451 L654.265,316.0632 L655.4077,318.0978 L656.3256,320.0135 L656.4931,320.0919 L657.2757,322.0455 L658.3445,324.1331 L658.9502,326.0038 L660.2467,328.198 L661.0839,330.1771 L661.3087,330.271 L662.1222,332.3026 L663.0472,334.3809 L663.4537,336.2425 L664.2403,338.2629 L665.3637,340.424 L665.1051,340.327 L666.103,342.4509 L666.8096,344.4655 L667.9387,346.6386 L668.3463,348.5411 L669.1829,350.6044 L669.0385,350.5555 L669.9543,352.6298 L670.2528,354.4949 L670.9903,356.5088 L672.1573,358.6682 L672.5594,360.5684 L672.7445,360.6253 L673.4618,362.5839 L673.6034,364.3655 L674.4661,366.3688 L675.1717,368.3237 L675.5113,370.1662 L675.3094,370.1083 L675.7347,371.0774 L676.094,372.0275 L676.5831,373.0148 L676.5673,373.8574 L676.8335,374.7809 L677.0316,374.8357 L676.721,375.1658 L676.7929,375.6018 L677.4234,376.1925 L677.0254,376.4984 L677.4572,377.034 L677.6755,377.0934 L677.6063,377.2805 L677.4634,377.4475 L677.4871,377.6599 L677.896,377.9771 L677.7598,378.146 L677.6314,378.1113 L678.0436,378.3249 L677.5823,378.3028 L678.1142,378.5488 L678.0869,378.6438 L677.9088,378.6982 " fill="none" style="stroke:#181818;stroke-width:4.0;"/><polygon fill="#181818" points="677.9088,378.6982,677.9781,378.709,678.0772,376.7308,678.5821,374.8161,678.9549,372.8807,678.8931,370.8772,679.4328,368.9679,679.4104,368.955,678.745,369.8774,678.1928,370.8649,677.7192,371.8978,676.9746,372.7745,676.6096,373.8699,676.7017,374.0298,675.5244,373.1232,674.6159,372.6835,673.7403,372.3008,672.6738,371.5866,671.7076,371.0467,671.7253,371.061,672.9396,372.5703,674.2343,374.1448,675.4903,375.6878,676.8203,377.2908,677.9088,378.6982" style="stroke:#181818;stroke-width:4.0;"/><text fill="#000000" font-family="Chalkduster" font-size="24" lengthAdjust="spacing" textLength="292" x="658" y="316.362">Create data package</text></g><!--link ro to rr--><g id="link_ro_rr"><path d="M686,467.4466 L686.2802,467.4466 L685.4476,477.9247 L686.2577,488.4028 L686.5329,498.8809 L685.0488,509.3589 L685.8964,519.837 L685.4313,530.3151 L685.4887,540.7932 L685.9091,551.2713 L685.0782,561.7493 L686,572.2274 L686.2461,572.2274 L685.7199,577.8978 L685.9121,583.5681 L686.192,589.2385 L685.9619,594.9088 L686,600.5792 L686.0303,600.5792 L685.9858,601.9765 L686.0793,603.3739 L686.1063,604.7712 L686.2603,606.1686 L686,607.5659 L686.2982,607.5659 L686.3019,607.9133 L686.1132,608.2606 L686.206,608.608 L686.3121,608.9553 L686,609.3026 " fill="none" style="stroke:#181818;stroke-width:4.0;"/><polygon fill="#181818" points="686,609.3026,686.064,609.3311,686.6738,607.4465,687.6589,605.7288,688.5217,603.9567,688.9827,602.006,690,600.3026,689.9817,600.2843,689.0995,601.0021,688.3096,601.8122,687.5839,602.6866,686.637,603.3397,686,604.3026,686.1305,604.4331,685.0514,603.3541,684.3534,602.656,683.7018,602.0044,682.7798,601.0824,682,600.3026,682.0208,600.3119,682.7903,602.0983,683.6544,603.9268,684.4728,605.735,685.3784,607.5819,686,609.3026" style="stroke:#181818;stroke-width:4.0;"/><text fill="#000000" font-family="Chalkduster" font-size="24" lengthAdjust="spacing" textLength="317" x="687" y="522.622">Deposit in a FAIR repo</text></g><!--reverse link Trove to a1--><g id="link_Trove_a1"><path d="M479.12,452.4012 L479.2107,452.4237 L477.979,456.2286 L477.2787,460.1656 L476.4055,464.0596 L474.963,467.8122 L474.3084,471.7605 L474.2749,471.7524 L473.0865,476.0071 L472.0674,480.3027 L471.1659,484.6268 L469.859,488.8528 L469.12,493.2162 L469.3596,493.272 L467.8035,497.6312 L466.947,502.1535 L466.1759,506.6956 L464.9081,511.122 L463.9016,515.6093 L463.9312,515.6158 L462.9074,520.0406 L462.0184,524.4952 L461.0644,528.9354 L460.2345,533.403 L459,537.7812 L459.292,537.842 L458.4001,542.1387 L457.32,546.3962 L456.5155,550.7111 L455.724,555.0288 L454.523,559.2611 L454.2087,559.1982 L453.9405,563.7113 L452.6373,568.0174 L452.1209,572.4809 L450.7942,576.7824 L450.1317,581.2166 L450.1018,581.2109 L448.7979,589.981 L446.7953,598.6179 L445.2049,607.3334 L443.6492,616.0554 L441.8438,624.7299 L442.0258,624.7629 L440.3956,632.7179 L439.0764,640.7292 L437.254,648.6494 L436.1822,656.7056 L434.6114,664.6713 L434.8514,664.7131 L433.6658,671.2492 L432.5993,677.806 L430.979,684.2664 L429.7647,690.7974 L428.91,697.3912 " fill="none" style="stroke:#181818;stroke-width:4.0;"/><polygon fill="#181818" points="480.53,447.8212,480.5851,447.8645,479.2034,449.2838,478.1445,450.957,476.9805,452.5476,475.4709,453.8662,474.4397,455.5612,474.4265,455.539,475.3392,454.8604,476.3187,454.294,477.3446,453.8056,478.2105,453.0483,479.3005,452.6676,479.4591,452.762,479.6987,453.5323,480.4013,454.5782,481.1604,455.6578,481.5908,456.5416,482.1941,457.5284,482.2165,457.5323,481.8508,455.5852,481.5871,453.6556,481.2742,451.7175,481.0552,449.7956,480.53,447.8212" style="stroke:#181818;stroke-width:4.0;"/></g><!--reverse link Trove to a2--><g id="link_Trove_a2"><path d="M488.56,452.6112 L488.8402,452.6157 L488.1731,462.8018 L489.1485,473.0145 L489.5891,483.2186 L488.2706,493.3941 L489.2835,503.6074 L488.9839,513.7994 L489.2067,524 L489.7925,534.2064 L489.127,544.3925 L490.9523,554.619 L489.5393,564.793 L490.2813,575.0019 L491.2863,585.2151 L490.7615,595.4035 L491.1322,605.6064 L491.1641,615.8038 L491.6101,626.0079 L491.8563,636.2088 L492.4837,646.4159 L492.763,656.6173 L492.9393,666.8171 L492.5386,677.0075 L492.9826,687.2116 L492.53,697.4012 " fill="none" style="stroke:#181818;stroke-width:4.0;"/><polygon fill="#181818" points="488.47,447.8812,488.5345,447.9085,487.5738,449.6407,486.9913,451.5332,486.2856,453.3735,485.175,455.0421,484.6249,456.9484,484.6062,456.9304,485.3088,456.036,486.1053,455.2324,486.967,454.4918,487.6038,453.5339,488.5557,452.8804,488.6839,453.0131,489.2233,453.5155,490.1371,454.4054,491.0965,455.3425,491.7902,456.0045,492.6237,456.8113,492.6443,456.8209,491.7833,455.0208,491.0162,453.2643,490.2037,451.4868,489.4778,449.7495,488.47,447.8812" style="stroke:#181818;stroke-width:4.0;"/></g><!--SRC=[VL9DImCn4BtdLunxyDOLUoobiBZu0HQbLGJfPPfCssXCIX8j8ltlJh9jtIxKmEvXvitCUs_cJ5jfFXL1UQ4mOi_Wl1VYjw7oGmaHTJGqWElgRg8NMcBKpe9Rm9DtNmHe5RYu8WytzzKOFArTqD5vJK7mMwDynoL1aSgXraiTqS33_8raB003U0S_0lXvZg1T6iQEAM8YKdGJTGeoFiUtOYkiYmI65Z4HsfSD8E501s0XP0ofD0WXHEOkPxOX7Yokmyh5cUNaclald8yhwJwqNSBuuPd9joQ_EFyUM0o5p7eJO3ZSx6EZ4ND2oQgXc50Wz98DQUIn3Vn1JxcDxOrsfWrWIeQRGw9xb6Sx1d3b2LbNIiBEGDOgE7U0UORLZTUWBOlB_YRtXKXrSmmxls3IMWcSmvrLUYyZRukL7BRsdQLqNC-jsrsQMjyWC_flv7sDLzL5zLGz5YbnsDKnggghudJsjffEPtRlPDxcpFvnpEDN_bJrApch7504DCKnQDkLzlWvDrhcqorsmbkTyhB-uLcMPUQYx6dCPKRWPHVHWlHvHCBqkvZcdrQVNdCwm-O4k6Ctq1U_]--></g></svg>