<?xml version="1.0" encoding="us-ascii" standalone="no"?><svg xmlns="http://www.w3.org/2000/svg" xmlns:xlink="http://www.w3.org/1999/xlink" contentStyleType="text/css" height="641px" preserveAspectRatio="none" style="width:1728px;height:641px;background:#FFFFFF;" version="1.1" viewBox="0 0 1728 641" width="1728px" zoomAndPan="magnify"><defs/><g><text fill="#000000" font-family="Chalkduster" font-size="42" font-weight="bold" lengthAdjust="spacing" textLength="1003" x="355.5" y="51.7215">ARDC Skills Landscape mapping for HCDL</text><!--cluster dc--><g id="cluster_dc"><polygon fill="none" points="9.5,407.2322,9.5,407.4424,19.5,406.8179,29.5,407.4255,39.5,407.6319,49.5,406.5188,59.5,407.1545,69.5,406.8057,79.5,406.8487,89.5,407.1641,99.5,406.5408,109.5,407.7859,119.5,406.6019,129.5,407.0344,139.5,407.6642,149.5,407.1464,159.5,407.3004,169.5,407.2003,179.5,407.4107,189.5,407.4713,199.5,407.8179,209.5,407.9033,219.5,407.9115,229.5,407.4868,239.5,407.6958,249.5,407.9344,259.5,406.511,269.5,407.9107,279.5,406.9357,289.5,407.766,299.5,406.7372,309.5,407.1637,319.5,407.9738,329.5,407.1835,339.5,407.3375,349.5,407.5708,359.5,407.6484,369.5,407.2283,379.5,407.5194,389.5,406.6598,399.5,407.5166,409.5,407.7804,419.5,407.6767,429.5,407.8452,439.5,406.7491,449.5,406.58,459.5,406.6108,469.5,407.1733,479.5,407.0357,489.5,407.9136,499.5,407.0575,509.5,406.8892,519.5,407.4605,529.5,406.5654,539.5,406.7131,549.5,407.8812,559.5,407.6679,569.5,407.9667,579.5,406.9104,589.5,407.5514,599.5,407.8226,609.5,406.7598,619.5,407.1364,629.5,407.3582,639.5,407.884,649.5,407.228,659.5,407.6948,669.5,406.6784,679.5,406.555,689.5,407.7358,699.5,406.5153,709.5,407.7412,719.5,407.4388,729.5,406.9643,739.5,406.8784,749.5,407.691,759.5,406.9329,769.5,407.8241,779.5,406.6795,789.5,407.8496,799.5,407.7165,809.5,407.4772,819.5,407.2794,829.5,407.9588,839.5,407.8458,849.5,407.4015,859.5,407.5004,869.5,407.1019,879.5,407.9487,889.5,407.3871,899.5,407.4048,909.5,406.6239,919.5,406.827,929.5,407.763,939.5,407.662,949.5,407.1893,959.5,406.91,969.5,407.0133,979.5,406.546,989.5,407.6469,999.5,407.9718,1009.5,407.7586,1019.5,407.9271,1029.5,407.0955,1039.5,407.3194,1049.5,406.8446,1059.5,407.5163,1069.5,407.479,1079.5,407.7846,1089.5,407.0026,1099.5,407.0978,1109.5,407.6757,1119.5,407.7995,1129.5,406.7197,1139.5,407.0383,1149.5,407.3815,1159.5,406.6214,1169.5,407.5856,1179.5,407.4902,1189.5,407.1315,1199.5,407.3745,1209.5,407.9609,1219.5,406.9193,1229.5,407.5472,1239.5,407.5179,1249.5,407.348,1259.5,407.3731,1269.5,407.3457,1279.5,406.6081,1289.5,406.8314,1299.5,406.7707,1309.5,407.296,1319.5,407.3203,1329.5,407.394,1339.5,406.9412,1349.5,407.1647,1359.5,407.112,1369.5,407.8091,1379.5,407.6588,1389.5,406.7467,1399.5,407.1593,1409.5,406.655,1419.5,407.5206,1429.5,407.8407,1439.5,407.7768,1449.5,406.7967,1459.5,407.6962,1469.5,406.4894,1479.5,407.4324,1489.5,406.9329,1499.5,407.3289,1509.5,407.4725,1519.5,407.7043,1529.5,406.5123,1539.5,407.7077,1549.5,407.4104,1559.5,407.5875,1569.5,407.98,1579.5,407.2377,1589.5,407.4075,1599.5,407.4457,1609.5,407.4294,1619.5,407.2314,1629.5,407.9429,1639.5,406.6225,1649.5,407.7975,1659.5,406.6082,1669.5,406.6919,1679.5,407.2722,1689.5,407.2605,1699.5,406.7394,1709.5,407.6459,1719.5,407.2322,1719.5139,407.2657,1719.9462,407.6024,1720.2922,407.7305,1720.5035,407.5335,1720.8635,407.6955,1721.2678,407.9644,1721.228,407.948,1721.5237,408.3633,1721.6848,408.723,1721.7999,409.0635,1721.7482,409.335,1722,409.7322,1722.6364,409.7322,1722.6338,419.8972,1721.9527,430.0622,1721.7609,440.2272,1721.5986,450.3922,1721.7854,460.5572,1722.1374,470.7222,1721.9316,480.8872,1721.5822,491.0522,1722.4874,501.2172,1721.5411,511.3822,1722.5024,521.5472,1722.4272,531.7122,1722.3719,541.8772,1722.6925,552.0422,1721.7541,562.2072,1721.6994,572.3722,1722.5189,582.5372,1721.4031,592.7022,1721.766,602.8672,1722.1155,613.0322,1722.0687,623.1972,1722,633.3622,1721.8896,633.3165,1721.8403,633.7103,1721.9364,634.1643,1721.7604,634.5056,1721.2306,634.7004,1721.2678,635.13,1721.2778,635.1542,1720.8487,635.1182,1720.5573,635.4148,1720.2445,635.6595,1719.9071,635.8451,1719.5,635.8622,1719.5,635.1975,1709.5,636.2628,1699.5,635.8706,1689.5,635.3069,1679.5,635.3912,1669.5,636.1888,1659.5,636.1121,1649.5,635.8458,1639.5,635.1901,1629.5,636.5204,1619.5,635.5504,1609.5,635.3342,1599.5,635.7949,1589.5,636.4519,1579.5,636.4776,1569.5,635.8973,1559.5,635.711,1549.5,636.032,1539.5,636.0484,1529.5,635.3544,1519.5,636.2762,1509.5,636.421,1499.5,635.6465,1489.5,635.433,1479.5,636.5369,1469.5,635.8832,1459.5,635.8621,1449.5,636.1612,1439.5,635.2165,1429.5,636.3922,1419.5,635.8468,1409.5,636.531,1399.5,635.6464,1389.5,636.2712,1379.5,635.4182,1369.5,636.1072,1359.5,636.2415,1349.5,635.5349,1339.5,636.2252,1329.5,635.2908,1319.5,635.3917,1309.5,636.545,1299.5,636.5466,1289.5,636.4307,1279.5,635.5018,1269.5,636.2464,1259.5,635.3902,1249.5,635.9204,1239.5,635.861,1229.5,635.5998,1219.5,636.4781,1209.5,636.3055,1199.5,635.5415,1189.5,636.3888,1179.5,635.9541,1169.5,635.2786,1159.5,635.6289,1149.5,635.3369,1139.5,635.7231,1129.5,635.2332,1119.5,635.2621,1109.5,635.9325,1099.5,635.7418,1089.5,635.8036,1079.5,635.719,1069.5,636.0295,1059.5,635.3071,1049.5,636.0223,1039.5,635.1191,1029.5,636.1582,1019.5,636.455,1009.5,636.3843,999.5,636.2235,989.5,636.0544,979.5,635.9679,969.5,635.2222,959.5,636.3087,949.5,636.1919,939.5,635.7088,929.5,635.8564,919.5,635.6536,909.5,636.0799,899.5,636.5428,889.5,635.5083,879.5,636.3311,869.5,635.773,859.5,635.4829,849.5,635.4303,839.5,635.2175,829.5,635.4213,819.5,635.8985,809.5,636.1352,799.5,636.4384,789.5,636.2823,779.5,635.1508,769.5,636.4812,759.5,636.3483,749.5,636.4029,739.5,636.3841,729.5,635.2031,719.5,635.6045,709.5,636.1782,699.5,635.3807,689.5,635.7593,679.5,635.9292,669.5,636.1883,659.5,635.908,649.5,636.607,639.5,636.2736,629.5,636.1183,619.5,635.3223,609.5,636.201,599.5,635.2877,589.5,636.1679,579.5,635.87,569.5,636.1617,559.5,635.7748,549.5,635.6661,539.5,635.1213,529.5,635.6478,519.5,635.1573,509.5,635.6161,499.5,636.3001,489.5,636.0229,479.5,635.4107,469.5,636.1081,459.5,635.9278,449.5,636.4055,439.5,636.4272,429.5,635.9559,419.5,635.6832,409.5,635.6478,399.5,635.8558,389.5,636.5314,379.5,635.1885,369.5,635.6983,359.5,636.129,349.5,636.5939,339.5,636.0741,329.5,635.664,319.5,635.1243,309.5,635.4384,299.5,635.6403,289.5,636.202,279.5,636.2317,269.5,635.914,259.5,635.7293,249.5,635.1426,239.5,635.9912,229.5,636.2976,219.5,636.5451,209.5,635.9605,199.5,635.9422,189.5,635.642,179.5,636.1109,169.5,635.3923,159.5,636.3783,149.5,635.5565,139.5,635.332,129.5,636.1191,119.5,636.3341,109.5,635.9195,99.5,635.7411,89.5,636.0201,79.5,635.8375,69.5,635.7671,59.5,635.9391,49.5,635.5302,39.5,636.2518,29.5,636.5497,19.5,635.5086,9.5,635.8622,9.4701,635.79,9.0867,635.5715,8.8231,635.6423,8.4274,635.394,8.1561,635.4462,7.7322,635.13,7.6398,635.0917,7.4753,634.7306,7.5307,634.4607,7.2237,634.0407,7.2286,633.7498,7,633.3622,7.2796,633.3622,7.4358,623.1972,6.5152,613.0322,7.088,602.8672,7.5351,592.7022,6.4569,582.5372,7.5044,572.3722,6.6604,562.2072,7.1567,552.0422,7.6528,541.8772,6.3696,531.7122,7.7221,521.5472,6.9216,511.3822,6.6741,501.2172,7.7313,491.0522,6.3123,480.8872,7.6056,470.7222,6.5987,460.5572,7.2901,450.3922,7.73,440.2272,6.8515,430.0622,6.5728,419.8972,7,409.7322,6.885,409.6846,7.0903,409.3554,7.3841,409.0629,7.2683,408.6007,7.7433,408.3832,7.7322,407.9644,7.8042,408.1383,7.9962,407.6018,8.4211,407.6276,8.7339,407.3826,9.1684,407.4317,9.5,407.2322" style="stroke:#181818;stroke-width:4.0;"/><text fill="#000000" font-family="Chalkduster" font-size="24" font-weight="bold" lengthAdjust="spacing" textLength="232" x="748.5" y="433.0731">Data Capabilities</text></g><!--cluster Data Management--><g id="cluster_Data Management"><polygon fill="none" points="33.5,480.2322,33.5,480.4424,43.5,479.8179,53.5,480.4255,63.5,480.6319,73.5,479.5188,83.5,480.1545,93.5,479.8057,103.5,479.8487,113.5,480.1641,123.5,479.5408,133.5,480.7859,143.5,479.6019,153.5,480.0344,163.5,480.6642,173.5,480.1464,183.5,480.3004,193.5,480.2003,203.5,480.4107,213.5,480.4713,223.5,480.8179,233.5,480.9033,243.5,480.9115,253.5,480.4868,263.5,480.6958,273.5,480.9344,283.5,479.511,293.5,480.9107,303.5,479.9357,313.5,480.766,323.5,479.7372,333.5,480.1637,343.5,480.9738,353.5,480.1835,363.5,480.3375,373.5,480.5708,383.5,480.6484,393.5,480.2283,403.5,480.5194,413.5,479.6598,423.5,480.5166,433.5,480.7804,443.5,480.6767,453.5,480.8452,463.5,479.7491,473.5,479.58,483.5,479.6108,493.5,480.1733,503.5,480.0357,513.5,480.9136,523.5,480.0575,533.5,479.8892,543.5,480.4605,553.5,479.5654,563.5,479.7131,573.5,480.8812,583.5,480.6679,593.5,480.9667,603.5,479.9104,613.5,480.5514,623.5,480.8226,633.5,479.7598,643.5,480.1364,653.5,480.3582,663.5,480.884,673.5,480.228,683.5,480.6948,693.5,479.6784,703.5,479.555,713.5,480.7358,723.5,479.5153,733.5,480.7412,743.5,480.4388,753.5,479.9643,763.5,479.8784,773.5,480.691,783.5,479.9329,793.5,480.8241,803.5,479.6795,813.5,480.8496,823.5,480.7165,833.5,480.4772,843.5,480.2794,853.5,480.9588,863.5,480.8458,873.5,480.4015,883.5,480.5004,893.5,480.1019,903.5,480.9487,913.5,480.3871,923.5,480.4048,933.5,479.6239,943.5,479.827,953.5,480.763,963.5,480.2322,963.5548,480.3646,963.8481,480.3654,964.166,480.4259,964.5327,480.6041,964.8267,480.6067,965.2678,480.9644,965.3955,481.0173,965.642,481.4123,965.7228,481.7387,965.9211,482.1138,965.8114,482.3612,966,482.7322,966.0872,482.7322,965.6124,492.7895,966.284,502.8468,966.2468,512.904,966.5524,522.9613,965.7703,533.0186,965.8656,543.0758,966.4435,553.1331,966.5673,563.1904,965.4875,573.2477,965.8061,583.3049,966,593.3622,966.046,593.3813,965.6654,593.6378,965.8159,594.1144,965.6401,594.4558,965.3832,594.7636,965.2678,595.13,965.2859,595.1738,965.0072,595.5008,964.5207,595.3265,964.2473,595.6663,963.89,595.8037,963.5,595.8622,963.5,595.978,953.5,596.0031,943.5,595.9757,933.5,595.2381,923.5,595.4614,913.5,595.4007,903.5,595.926,893.5,595.9503,883.5,596.024,873.5,595.5712,863.5,595.7947,853.5,595.742,843.5,596.4391,833.5,596.2888,823.5,595.3767,813.5,595.7893,803.5,595.285,793.5,596.1506,783.5,596.4707,773.5,596.4068,763.5,595.4267,753.5,596.3262,743.5,595.1194,733.5,596.0624,723.5,595.5629,713.5,595.9589,703.5,596.1025,693.5,596.3343,683.5,595.1423,673.5,596.3377,663.5,596.0404,653.5,596.2175,643.5,596.61,633.5,595.8677,623.5,596.0375,613.5,596.0757,603.5,596.0594,593.5,595.8614,583.5,596.5729,573.5,595.2525,563.5,596.4275,553.5,595.2382,543.5,595.3219,533.5,595.9022,523.5,595.8905,513.5,595.3694,503.5,596.2759,493.5,595.9711,483.5,596.5889,473.5,596.5293,463.5,595.414,453.5,595.4643,443.5,595.733,433.5,596.2177,423.5,596.2652,413.5,596.1634,403.5,595.5203,393.5,596.4986,383.5,596.496,373.5,595.8149,363.5,595.6232,353.5,595.4608,343.5,595.6476,333.5,595.9996,323.5,595.7938,313.5,595.4444,303.5,596.3496,293.5,595.4033,283.5,596.3646,273.5,596.2894,263.5,596.2341,253.5,596.5547,243.5,595.6163,233.5,595.5616,223.5,596.3811,213.5,595.2653,203.5,595.6282,193.5,595.9777,183.5,595.9309,173.5,595.5038,163.5,595.8192,153.5,596.6068,143.5,596.5107,133.5,595.2659,123.5,595.9407,113.5,595.3483,103.5,595.8359,93.5,596.1552,83.5,596.2821,73.5,595.1975,63.5,596.2628,53.5,595.8706,43.5,595.3069,33.5,595.8622,33.4399,595.7171,33.1881,595.8163,32.8248,595.6463,32.4372,595.4178,32.0001,595.0694,31.7322,595.13,31.9349,595.2139,31.4898,594.7366,31.2767,594.3555,31.2722,594.0607,31.3281,593.791,31,593.3622,31.6154,593.3622,31.0351,583.3049,30.8488,573.2477,31.1698,563.1904,31.1862,553.1331,30.4922,543.0758,31.414,533.0186,31.5588,522.9613,30.7842,512.904,30.5708,502.8468,31.6746,492.7895,31,482.7322,31.0065,482.7349,31.1464,482.3786,31.385,482.0632,31.2405,481.5892,31.749,481.3856,31.7322,480.9644,31.7303,480.9597,32.1711,481.024,32.4118,480.6051,32.8451,480.6511,33.0898,480.2419,33.5,480.2322" style="stroke:#181818;stroke-width:4.0;"/><text fill="#000000" font-family="Chalkduster" font-size="24" font-weight="bold" lengthAdjust="spacing" textLength="245" x="376" y="506.0731">Data Management</text></g><!--cluster use--><g id="cluster_use"><polygon fill="none" points="1000.5,472.2322,1000.5,472.4424,1010.4565,471.8179,1020.413,472.4255,1030.3696,472.6319,1040.3261,471.5188,1050.2826,472.1545,1060.2391,471.8057,1070.1957,471.8487,1080.1522,472.1641,1090.1087,471.5408,1100.0652,472.7859,1110.0217,471.6019,1119.9783,472.0344,1129.9348,472.6642,1139.8913,472.1464,1149.8478,472.3004,1159.8043,472.2003,1169.7609,472.4107,1179.7174,472.4713,1189.6739,472.8179,1199.6304,472.9033,1209.587,472.9115,1219.5435,472.4868,1229.5,472.6958,1239.4565,472.9344,1249.413,471.511,1259.3696,472.9107,1269.3261,471.9357,1279.2826,472.766,1289.2391,471.7372,1299.1957,472.1637,1309.1522,472.9738,1319.1087,472.1835,1329.0652,472.3375,1339.0217,472.5708,1348.9783,472.6484,1358.9348,472.2283,1368.8913,472.5194,1378.8478,471.6598,1388.8043,472.5166,1398.7609,472.7804,1408.7174,472.6767,1418.6739,472.8452,1428.6304,471.7491,1438.587,471.58,1448.5435,471.6108,1458.5,472.1733,1468.4565,472.0357,1478.413,472.9136,1488.3696,472.0575,1498.3261,471.8892,1508.2826,472.4605,1518.2391,471.5654,1528.1957,471.7131,1538.1522,472.8812,1548.1087,472.6679,1558.0652,472.9667,1568.0217,471.9104,1577.9783,472.5514,1587.9348,472.8226,1597.8913,471.7598,1607.8478,472.1364,1617.8043,472.3582,1627.7609,472.884,1637.7174,472.228,1647.6739,472.6948,1657.6304,471.6784,1667.587,471.555,1677.5435,472.7358,1687.5,472.2322,1687.4085,472.0114,1687.9185,472.5354,1688.2335,472.5887,1688.5265,472.589,1688.8691,472.709,1689.2678,472.9644,1689.409,473.023,1689.322,473.2798,1689.7429,473.747,1689.5369,473.9546,1690.0437,474.4574,1690,474.7322,1690.4843,474.7322,1690.245,484.473,1690.0472,494.2137,1690.7266,503.9545,1690.6136,513.6953,1690.1693,523.4361,1690.2682,533.1768,1689.8697,542.9176,1690.7165,552.6584,1690.1549,562.3991,1690.1726,572.1399,1689.3916,581.8807,1689.5948,591.6214,1690,601.3622,1690.1634,601.4299,1689.9859,601.7706,1689.6939,602.0638,1689.4614,602.3818,1689.3468,602.7485,1689.2678,603.13,1689.1802,602.9187,1688.9671,603.4041,1688.655,603.6506,1688.2743,603.7314,1687.9422,603.9298,1687.5,603.8622,1687.5,603.7255,1677.5435,603.9494,1667.587,603.4746,1657.6304,604.1463,1647.6739,604.109,1637.7174,604.4146,1627.7609,603.6326,1617.8043,603.7278,1607.8478,604.3057,1597.8913,604.4295,1587.9348,603.3497,1577.9783,603.6683,1568.0217,604.0115,1558.0652,603.2514,1548.1087,604.2156,1538.1522,604.1202,1528.1957,603.7615,1518.2391,604.0045,1508.2826,604.5909,1498.3261,603.5493,1488.3696,604.1772,1478.413,604.1479,1468.4565,603.978,1458.5,604.0031,1448.5435,603.9757,1438.587,603.2381,1428.6304,603.4614,1418.6739,603.4007,1408.7174,603.926,1398.7609,603.9503,1388.8043,604.024,1378.8478,603.5712,1368.8913,603.7947,1358.9348,603.742,1348.9783,604.4391,1339.0217,604.2888,1329.0652,603.3767,1319.1087,603.7893,1309.1522,603.285,1299.1957,604.1506,1289.2391,604.4707,1279.2826,604.4068,1269.3261,603.4267,1259.3696,604.3262,1249.413,603.1194,1239.4565,604.0624,1229.5,603.5629,1219.5435,603.9589,1209.587,604.1025,1199.6304,604.3343,1189.6739,603.1423,1179.7174,604.3377,1169.7609,604.0404,1159.8043,604.2175,1149.8478,604.61,1139.8913,603.8677,1129.9348,604.0375,1119.9783,604.0757,1110.0217,604.0594,1100.0652,603.8614,1090.1087,604.5729,1080.1522,603.2525,1070.1957,604.4275,1060.2391,603.2382,1050.2826,603.3219,1040.3261,603.9022,1030.3696,603.8905,1020.413,603.3694,1010.4565,604.2759,1000.5,603.8622,1000.5139,603.8957,1000.2391,603.9395,999.878,603.7748,999.3822,603.2848,999.035,603.1539,998.7322,603.13,998.6925,603.1135,998.6953,602.8218,998.5634,602.4743,998.3856,602.1077,998.0411,601.6721,998,601.3622,998.6364,601.3622,998.6338,591.6214,997.9527,581.8807,997.7609,572.1399,997.5986,562.3991,997.7854,552.6584,998.1374,542.9176,997.9316,533.1768,997.5822,523.4361,998.4874,513.6953,997.5411,503.9545,998.5024,494.2137,998.4272,484.473,998,474.7322,998.1145,474.7796,998.3597,474.467,998.2172,473.9937,998.3468,473.6332,998.7456,473.3842,998.7322,472.9644,998.6561,472.7806,999.0559,472.7459,999.4541,472.7071,999.8017,472.5463,1000.1007,472.2683,1000.5,472.2322" style="stroke:#181818;stroke-width:4.0;"/><text fill="#000000" font-family="Chalkduster" font-size="24" font-weight="bold" lengthAdjust="spacing" textLength="356" x="1166" y="498.0731">Data Generation and Use</text></g><!--entity work--><g id="elem_work"><polygon fill="none" points="676,529.2322,676,529.4424,686.0741,528.8179,696.1481,529.4255,706.2222,529.6319,716.2963,528.5188,726.3704,529.1545,736.4444,528.8057,746.5185,528.8487,756.5926,529.1641,766.6667,528.5408,776.7407,529.7859,786.8148,528.6019,796.8889,529.0344,806.963,529.6642,817.037,529.1464,827.1111,529.3004,837.1852,529.2003,847.2593,529.4107,857.3333,529.4713,867.4074,529.8179,877.4815,529.9033,887.5556,529.9115,897.6296,529.4868,907.7037,529.6958,917.7778,529.9344,927.8519,528.511,937.9259,529.9107,948,529.2322,947.9622,529.1409,948.4216,529.5431,948.644,529.3727,949.0519,529.6505,949.5088,530.0464,949.7678,529.9644,949.7528,529.9582,949.9466,530.3314,950.1649,530.7147,950.3353,531.0782,950.3524,531.3782,950.5,531.7322,950.7872,531.7322,949.9276,540.8582,950.7844,549.9841,951.0482,559.1101,950.9445,568.2361,950.5,577.362,950.6888,577.4402,950.2048,577.654,950.0063,577.986,949.8693,578.3434,949.8961,578.7687,949.7678,579.1298,949.7427,579.0693,949.5011,579.4861,949.0384,579.3689,948.6633,579.4635,948.3827,579.7859,948,579.862,948,579.1952,937.9259,579.3429,927.8519,580.511,917.7778,580.2977,907.7037,580.5965,897.6296,579.5402,887.5556,580.1812,877.4815,580.4525,867.4074,579.3896,857.3333,579.7662,847.2593,579.988,837.1852,580.5138,827.1111,579.8579,817.037,580.3246,806.963,579.3083,796.8889,579.1848,786.8148,580.3657,776.7407,579.1451,766.6667,580.371,756.5926,580.0687,746.5185,579.5941,736.4444,579.5083,726.3704,580.3208,716.2963,579.5627,706.2222,580.4539,696.1481,579.3093,686.0741,580.4795,676,579.862,676.0618,580.0112,675.6777,579.791,675.2989,579.5837,675.032,579.6465,674.6641,579.4652,674.2322,579.1298,674.2844,579.1514,674.1684,578.8105,673.8992,578.4061,674.0135,578.1605,673.6941,577.7354,673.5,577.362,673.6726,577.362,672.8916,568.2361,673.0948,559.1101,674.0307,549.9841,673.9298,540.8582,673.5,531.7322,673.4868,531.7267,673.5472,531.3376,673.7255,530.9972,673.728,530.584,674.2135,530.3709,674.2322,529.9644,674.3266,530.1922,674.6529,529.9801,675.028,529.8856,675.2755,529.483,675.6576,529.4055,676,529.2322" style="stroke:#181818;stroke-width:4.0;"/><text fill="#000000" font-family="Chalkduster" font-size="24" lengthAdjust="spacing" textLength="257" x="683.5" y="563.0731">Working with data</text></g><!--entity FAIR--><g id="elem_FAIR"><polygon fill="none" points="49.5,529.2322,49.5,529.4424,59.3438,528.8179,69.1875,529.4255,79.0313,529.6319,88.875,528.5188,98.7188,529.1545,108.5625,528.8057,118.4063,528.8487,128.25,529.1641,138.0938,528.5408,147.9375,529.7859,157.7813,528.6019,167.625,529.0344,177.4688,529.6642,187.3125,529.1464,197.1563,529.3004,207,529.2003,216.8438,529.4107,226.6875,529.4713,236.5313,529.8179,246.375,529.9033,256.2188,529.9115,266.0625,529.4868,275.9063,529.6958,285.75,529.9344,295.5938,528.511,305.4375,529.9107,315.2813,528.9357,325.125,529.766,334.9688,528.7372,344.8125,529.1637,354.6563,529.9738,364.5,529.2322,364.4938,529.2172,364.867,529.4111,365.2503,529.6294,365.6138,529.7997,365.9137,529.8168,366.2678,529.9644,366.3562,530.0011,366.2379,530.245,366.6482,530.7078,366.8759,531.095,366.9905,531.4354,367,531.7322,367.613,531.7322,366.5169,540.8582,366.3478,549.9841,366.3786,559.1101,366.9411,568.2361,367,577.362,366.9395,577.337,367.0634,577.8025,366.6533,578.0469,366.455,578.3789,366.4845,578.8054,366.2678,579.1298,366.1827,578.9245,365.848,579.1164,365.6434,579.6226,365.2627,579.7033,364.9472,579.9418,364.5,579.862,364.5,579.5402,354.6563,580.1812,344.8125,580.4525,334.9688,579.3896,325.125,579.7662,315.2813,579.988,305.4375,580.5138,295.5938,579.8579,285.75,580.3246,275.9063,579.3083,266.0625,579.1848,256.2188,580.3657,246.375,579.1451,236.5313,580.371,226.6875,580.0687,216.8438,579.5941,207,579.5083,197.1563,580.3208,187.3125,579.5627,177.4688,580.4539,167.625,579.3093,157.7813,580.4795,147.9375,580.3463,138.0938,580.107,128.25,579.9093,118.4063,580.5887,108.5625,580.4756,98.7188,580.0313,88.875,580.1302,79.0313,579.7318,69.1875,580.5785,59.3438,580.0169,49.5,579.862,49.522,579.9152,49.0688,579.5282,48.7412,579.4444,48.507,579.5862,48.1406,579.4086,47.7322,579.1298,47.719,579.1243,47.4866,578.7352,47.3719,578.3948,47.0816,577.9816,47.2742,577.7685,47,577.362,47.7396,577.362,47.5264,568.2361,47.6949,559.1101,46.8633,549.9841,47.0872,540.8582,47,531.7322,46.8806,531.6828,47.2339,531.4149,47.3689,531.0566,47.6095,530.742,47.5151,530.2887,47.7322,529.9644,47.7151,529.9231,48.1424,529.9546,48.5117,529.8463,48.7275,529.3673,49.1217,529.3189,49.5,529.2322" style="stroke:#181818;stroke-width:4.0;"/><text fill="#000000" font-family="Chalkduster" font-size="24" lengthAdjust="spacing" textLength="300" x="57" y="563.0731">FAIR Implementation</text></g><!--entity pres--><g id="elem_pres"><polygon fill="none" points="404,529.2322,404,529.4424,414.087,528.8179,424.1739,529.4255,434.2609,529.6319,444.3478,528.5188,454.4348,529.1545,464.5217,528.8057,474.6087,528.8487,484.6957,529.1641,494.7826,528.5408,504.8696,529.7859,514.9565,528.6019,525.0435,529.0344,535.1304,529.6642,545.2174,529.1464,555.3043,529.3004,565.3913,529.2003,575.4783,529.4107,585.5652,529.4713,595.6522,529.8179,605.7391,529.9033,615.8261,529.9115,625.913,529.4868,636,529.2322,636.0591,529.375,636.4431,529.5949,636.6151,529.303,637.1472,529.8805,637.3764,529.7267,637.7678,529.9644,637.9322,530.0325,637.7618,530.2549,638.0396,530.6628,638.4355,531.1197,638.3385,531.3724,638.5,531.7322,638.6053,531.7322,638.8386,540.8582,638.9162,549.9841,638.4961,559.1101,638.7872,568.2361,638.5,577.362,638.3237,577.289,638.4411,577.7519,638.3759,578.1391,638.1976,578.4794,638.103,578.8545,637.7678,579.1298,637.7061,578.981,637.331,579.0754,636.9814,579.2313,636.6996,579.551,636.3285,579.6551,636,579.862,636,580.5435,625.913,579.6874,615.8261,579.519,605.7391,580.0903,595.6522,579.1952,585.5652,579.3429,575.4783,580.511,565.3913,580.2977,555.3043,580.5965,545.2174,579.5402,535.1304,580.1812,525.0435,580.4525,514.9565,579.3896,504.8696,579.7662,494.7826,579.988,484.6957,580.5138,474.6087,579.8579,464.5217,580.3246,454.4348,579.3083,444.3478,579.1848,434.2609,580.3657,424.1739,579.1451,414.087,580.371,404,579.862,404.0264,579.9257,403.6123,579.6331,403.2478,579.4602,402.9979,579.564,402.5476,579.1841,402.2322,579.1298,402.4145,579.2053,401.9156,578.7057,402.1295,578.5015,401.942,578.1309,401.7219,577.7468,401.5,577.362,401.5472,577.362,402.2266,568.2361,402.1136,559.1101,401.6693,549.9841,401.7682,540.8582,401.5,531.7322,401.4599,531.7156,401.8671,531.47,401.8406,531.0449,401.9925,530.6936,401.8984,530.2404,402.2322,529.9644,402.1805,529.8397,402.6535,529.9814,402.9942,529.8039,403.2874,529.5119,403.6054,529.2794,404,529.2322" style="stroke:#181818;stroke-width:4.0;"/><text fill="#000000" font-family="Chalkduster" font-size="24" lengthAdjust="spacing" textLength="217" x="411.5" y="563.0731">Preserving Data</text></g><!--entity Data Methods--><g id="elem_Data Methods"><polygon fill="none" points="1466,529.2322,1466,529.4424,1475.9,528.8179,1485.8,529.4255,1495.7,529.6319,1505.6,528.5188,1515.5,529.1545,1525.4,528.8057,1535.3,528.8487,1545.2,529.1641,1555.1,528.5408,1565,529.7859,1574.9,528.6019,1584.8,529.0344,1594.7,529.6642,1604.6,529.1464,1614.5,529.3004,1624.4,529.2003,1634.3,529.4107,1644.2,529.4713,1654.1,529.8179,1664,529.2322,1664.0856,529.4389,1664.4402,529.5878,1664.7396,529.6035,1665.1198,529.8143,1665.5038,530.0343,1665.7678,529.9644,1665.5457,529.8724,1666.1232,530.4045,1665.9693,530.6337,1666.3715,531.0932,1666.2011,531.3155,1666.5,531.7322,1666.4315,531.7322,1667.2416,540.8582,1666.4513,549.9841,1666.6053,559.1101,1666.8386,568.2361,1666.5,577.362,1666.6282,577.4151,1666.3524,577.7151,1666.2956,578.1058,1665.8844,578.3497,1666.0018,578.8125,1665.7678,579.1298,1665.8377,579.2986,1665.4709,579.4132,1665.1389,579.6115,1664.6455,579.4204,1664.2704,579.5148,1664,579.862,1664,579.2406,1654.1,579.8032,1644.2,579.6655,1634.3,580.5435,1624.4,579.6874,1614.5,579.519,1604.6,580.0903,1594.7,579.1952,1584.8,579.3429,1574.9,580.511,1565,580.2977,1555.1,580.5965,1545.2,579.5402,1535.3,580.1812,1525.4,580.4525,1515.5,579.3896,1505.6,579.7662,1495.7,579.988,1485.8,580.5138,1475.9,579.8579,1466,579.862,1466.059,580.0045,1465.5758,579.5451,1465.2065,579.3606,1465.0036,579.5778,1464.4943,579.0555,1464.2322,579.1298,1464.389,579.1947,1464.1494,578.8026,1463.8568,578.3885,1463.6839,578.024,1463.7877,577.7741,1463.5,577.362,1463.2007,577.362,1464.0919,568.2361,1462.9473,559.1101,1464.1174,549.9841,1463.9843,540.8582,1463.5,531.7322,1463.5754,531.7635,1463.661,531.3847,1464.0167,531.1178,1464.1283,530.7498,1464.1379,530.3396,1464.2322,529.9644,1464.2664,530.047,1464.5692,529.7779,1465.0307,529.8922,1465.3126,529.5728,1465.6685,529.4318,1466,529.2322" style="stroke:#181818;stroke-width:4.0;"/><text fill="#000000" font-family="Chalkduster" font-size="24" lengthAdjust="spacing" textLength="183" x="1473.5" y="563.0731">Data Methods</text></g><!--entity Using Data Infrastructures--><g id="elem_Using Data Infrastructures"><polygon fill="none" points="1044,529.2322,1044,529.4424,1054.0526,528.8179,1064.1053,529.4255,1074.1579,529.6319,1084.2105,528.5188,1094.2632,529.1545,1104.3158,528.8057,1114.3684,528.8487,1124.4211,529.1641,1134.4737,528.5408,1144.5263,529.7859,1154.5789,528.6019,1164.6316,529.0344,1174.6842,529.6642,1184.7368,529.1464,1194.7895,529.3004,1204.8421,529.2003,1214.8947,529.4107,1224.9474,529.4713,1235,529.8179,1245.0526,529.9033,1255.1053,529.9115,1265.1579,529.4868,1275.2105,529.6958,1285.2632,529.9344,1295.3158,528.511,1305.3684,529.9107,1315.4211,528.9357,1325.4737,529.766,1335.5263,528.7372,1345.5789,529.1637,1355.6316,529.9738,1365.6842,529.1835,1375.7368,529.3375,1385.7895,529.5708,1395.8421,529.6484,1405.8947,529.2283,1415.9474,529.5194,1426,529.2322,1425.927,529.0559,1426.3898,529.4662,1426.777,529.6939,1427.1174,529.8084,1427.4924,530.0068,1427.7678,529.9644,1427.619,529.9028,1427.7134,530.2348,1427.8693,530.5923,1428.189,531.0176,1428.293,531.3536,1428.5,531.7322,1429.1814,531.7322,1428.3253,540.8582,1428.1569,549.9841,1428.7283,559.1101,1427.8332,568.2361,1428.5,577.362,1428.3401,577.2958,1428.5534,577.7984,1428.3413,578.1247,1428.2869,578.5164,1427.8151,578.7352,1427.7678,579.1298,1427.8085,579.2281,1427.4895,579.4581,1427.0004,579.2772,1426.6949,579.5396,1426.3696,579.7544,1426,579.862,1426,580.5138,1415.9474,579.8579,1405.8947,580.3246,1395.8421,579.3083,1385.7895,579.1848,1375.7368,580.3657,1365.6842,579.1451,1355.6316,580.371,1345.5789,580.0687,1335.5263,579.5941,1325.4737,579.5083,1315.4211,580.3208,1305.3684,579.5627,1295.3158,580.4539,1285.2632,579.3093,1275.2105,580.4795,1265.1579,580.3463,1255.1053,580.107,1245.0526,579.9093,1235,580.5887,1224.9474,580.4756,1214.8947,580.0313,1204.8421,580.1302,1194.7895,579.7318,1184.7368,580.5785,1174.6842,580.0169,1164.6316,580.0346,1154.5789,579.2537,1144.5263,579.4568,1134.4737,580.3928,1124.4211,580.2918,1114.3684,579.8191,1104.3158,579.5399,1094.2632,579.6431,1084.2105,579.1759,1074.1579,580.2768,1064.1053,580.6016,1054.0526,580.3884,1044,579.862,1044.0886,580.0761,1043.629,579.6735,1043.304,579.596,1042.8899,579.3033,1042.622,579.3637,1042.2322,579.1298,1042.3082,579.1613,1042.2559,578.8467,1041.8686,578.3934,1041.7515,578.052,1041.783,577.7722,1041.5,577.362,1042.0673,577.362,1040.9875,568.2361,1041.3061,559.1101,1041.6493,549.9841,1040.8892,540.8582,1041.5,531.7322,1041.6088,531.7773,1041.7259,531.4116,1041.7619,531.0123,1041.9831,530.6897,1042.3102,530.4109,1042.2322,529.9644,1042.1923,529.8681,1042.626,529.915,1042.9758,529.7595,1043.3077,529.5608,1043.6644,529.4221,1044,529.2322" style="stroke:#181818;stroke-width:4.0;"/><text fill="#000000" font-family="Chalkduster" font-size="24" lengthAdjust="spacing" textLength="367" x="1051.5" y="563.0731">Using Data Infrastructures</text></g><!--entity us--><g id="elem_us"><polygon fill="none" points="208.0442,90.5481,206.8715,92.1504,205.4845,94.4973,203.5008,96.0789,201.4163,96.9437,199.7542,97.0188,197.618,95.9372,195.6023,95.2305,194.0724,93.7958,193.2699,92.1533,192.7939,90.8455,192.3277,89.1373,191.5709,87.6673,192.1525,86.232,192.662,84.6598,194.574,83.4164,195.9192,81.803,197.5843,81.2673,199.5637,80.8059,202.1021,81.08,203.4924,81.7357,205.1089,82.0329,207.0743,84.0466,207.7595,86.1724,208.0571,87.6228,207.72,90.013" style="stroke:#8B0000;stroke-width:4.0;"/><path d="M200,96.6022 L200.1868,96.6022 L199.6317,102.0022 L200.1718,107.4022 L200.3553,112.8022 L199.3659,118.2022 L200,123.6022 M187,104.6022 L187,104.5331 L192.2,104.2231 L197.4,104.2613 L202.6,104.5416 L207.8,103.9877 L213,104.6022 M200,123.6022 L200.3719,123.9245 L196.9766,126.2353 L194.6672,129.4871 L192.4901,132.8537 L189.5424,135.5523 L187,138.6022 M200,123.6022 L200.0458,123.6419 L202.5785,126.5836 L205.3199,129.7061 L207.9606,132.7414 L210.7934,135.9432 L213,138.6022 " fill="none" style="stroke:#8B0000;stroke-width:4.0;"/><text fill="#000000" font-family="Chalkduster" font-size="24" lengthAdjust="spacing" textLength="385" x="7.5" y="167.4431">Research Software Engineer</text></g><!--entity res--><g id="elem_res"><polygon fill="none" points="950.0442,90.5481,948.8715,92.1504,947.4845,94.4973,945.5008,96.0789,943.4163,96.9437,941.7542,97.0188,939.618,95.9372,937.6023,95.2305,936.0724,93.7958,935.2699,92.1533,934.7939,90.8455,934.3277,89.1373,933.5709,87.6673,934.1525,86.232,934.662,84.6598,936.574,83.4164,937.9192,81.803,939.5843,81.2673,941.5637,80.8059,944.1021,81.08,945.4924,81.7357,947.1089,82.0329,949.0743,84.0466,949.7595,86.1724,950.0571,87.6228,949.72,90.013" style="stroke:#8B0000;stroke-width:4.0;"/><path d="M942,96.6022 L942.1868,96.6022 L941.6317,102.0022 L942.1718,107.4022 L942.3553,112.8022 L941.3659,118.2022 L942,123.6022 M929,104.6022 L929,104.5331 L934.2,104.2231 L939.4,104.2613 L944.6,104.5416 L949.8,103.9877 L955,104.6022 M942,123.6022 L942.3719,123.9245 L938.9766,126.2353 L936.6672,129.4871 L934.4901,132.8537 L931.5424,135.5523 L929,138.6022 M942,123.6022 L942.0458,123.6419 L944.5785,126.5836 L947.3199,129.7061 L949.9606,132.7414 L952.7934,135.9432 L955,138.6022 " fill="none" style="stroke:#8B0000;stroke-width:4.0;"/><text fill="#000000" font-family="Chalkduster" font-size="24" lengthAdjust="spacing" textLength="149" x="867.5" y="167.4431">Researcher</text></g><!--entity lib--><g id="elem_lib"><polygon fill="none" points="535.0442,90.5481,533.8715,92.1504,532.4845,94.4973,530.5008,96.0789,528.4163,96.9437,526.7542,97.0188,524.618,95.9372,522.6023,95.2305,521.0724,93.7958,520.2699,92.1533,519.7939,90.8455,519.3277,89.1373,518.5709,87.6673,519.1525,86.232,519.662,84.6598,521.574,83.4164,522.9192,81.803,524.5843,81.2673,526.5637,80.8059,529.1021,81.08,530.4924,81.7357,532.1089,82.0329,534.0743,84.0466,534.7595,86.1724,535.0571,87.6228,534.72,90.013" style="stroke:#8B0000;stroke-width:4.0;"/><path d="M527,96.6022 L527.1868,96.6022 L526.6317,102.0022 L527.1718,107.4022 L527.3553,112.8022 L526.3659,118.2022 L527,123.6022 M514,104.6022 L514,104.5331 L519.2,104.2231 L524.4,104.2613 L529.6,104.5416 L534.8,103.9877 L540,104.6022 M527,123.6022 L527.3719,123.9245 L523.9766,126.2353 L521.6672,129.4871 L519.4901,132.8537 L516.5424,135.5523 L514,138.6022 M527,123.6022 L527.0458,123.6419 L529.5785,126.5836 L532.3199,129.7061 L534.9606,132.7414 L537.7934,135.9432 L540,138.6022 " fill="none" style="stroke:#8B0000;stroke-width:4.0;"/><text fill="#000000" font-family="Chalkduster" font-size="24" lengthAdjust="spacing" textLength="199" x="427.5" y="167.4431">Data Librarian</text></g><!--link us to FAIR--><g id="link_us_FAIR"><path d="M200.79,174.5822 L201.0702,174.5868 L200.4008,184.5349 L201.374,194.5099 L201.8123,204.4761 L200.4915,214.4135 L201.5021,224.3891 L201.2003,234.3432 L201.4207,244.3058 L202.0043,254.2744 L201.3366,264.2225 L203.1595,274.2114 L201.7443,284.1473 L202.4841,294.1185 L203.4867,304.0939 L202.9596,314.0443 L203.3281,324.0094 L203.3577,333.9689 L203.8014,343.9353 L204.0454,353.8983 L204.6705,363.8676 L204.9475,373.8311 L205.1216,383.793 L204.7186,393.7455 L205.1603,403.7118 L205.6416,413.6787 L203.9071,423.6093 L205.9363,433.6016 L204.7996,443.542 L206.0697,453.5219 L204.8612,463.4611 L205.593,473.4321 L206.8361,483.4115 L205.9456,493.356 L206.3141,503.3211 L206.7883,513.2879 L206.5,523.2422 " fill="none" style="stroke:#181818;stroke-width:4.0;"/><polygon fill="#181818" points="206.6,528.1422,206.6645,528.1696,207.2419,526.2748,208.1974,524.5405,209.0297,522.7539,209.4572,520.7956,210.4451,519.075,210.4265,519.057,209.5567,519.7898,208.7809,520.6133,208.0703,521.5,207.1347,522.1692,206.5143,523.1429,206.6425,523.2757,205.5547,522.2057,204.8413,521.5232,204.1736,520.888,203.2401,519.9777,202.4463,519.2121,202.4669,519.2217,203.2674,520.9936,204.1618,522.8092,205.0108,524.6038,205.9463,526.4385,206.6,528.1422" style="stroke:#181818;stroke-width:4.0;"/><text fill="#000000" font-family="Chalkduster" font-size="24" lengthAdjust="spacing" textLength="257" x="205" y="291.0731">Design and deploy</text><text fill="#000000" font-family="Chalkduster" font-size="24" lengthAdjust="spacing" textLength="192" x="237.5" y="321.7029">infrastructure</text></g><!--link res to work--><g id="link_res_work"><path d="M871.28,174.5122 L871.3409,174.583 L868.9969,176.232 L867.0099,178.2961 L864.9066,180.2251 L862.4211,181.7093 L860.4647,183.8091 L860.4412,183.7838 L858.1855,185.6665 L856.0482,187.6768 L853.9932,189.7758 L851.6545,191.5692 L849.7133,193.7906 L849.8884,193.9635 L847.4138,195.7205 L845.4504,197.9823 L843.5494,200.3057 L841.2855,202.2707 L839.2124,204.4242 L839.235,204.4444 L837.1891,206.6653 L835.2461,208.9783 L833.2534,211.2469 L831.3555,213.6001 L829.1488,215.6772 L829.3819,215.8631 L827.4969,218.2334 L825.4613,220.4837 L823.646,222.9096 L821.841,225.3437 L819.709,227.5171 L819.446,227.334 L818.2307,230.1682 L816.1492,232.3995 L814.7262,235.0892 L812.6251,237.3067 L811.0798,239.9113 L811.0536,239.8958 L809.8372,242.6621 L808.0084,245.0666 L806.541,247.6846 L805.1039,250.3206 L803.4479,252.8272 L803.6147,252.9074 L802.1568,255.5074 L800.9838,258.2445 L799.3499,260.7599 L798.4035,263.606 L797,266.2322 L797.2282,266.3175 L795.9407,269.6322 L794.7665,272.9893 L793.0658,276.1496 L791.751,279.4542 L790.7781,282.8865 L790.5123,282.8115 L789.7828,286.3174 L788.7538,289.7388 L788.1591,293.2827 L786.8228,296.6174 L785.9274,300.0765 L785.778,300.046 L785.3094,303.6155 L784.2023,307.0548 L783.5493,310.5867 L783.3406,314.2092 L782.3407,317.6703 L782.5325,317.6964 L782.1782,321.2875 L781.2271,324.7974 L781.0234,328.409 L780.6569,331.9984 L779.9109,335.5363 L779.7016,335.5202 L779.5925,339.1343 L779.4148,342.743 L779.3718,346.3621 L778.8052,349.9411 L778.5311,353.5425 L778.7366,353.5475 L778.1976,357.1395 L778.0553,360.7411 L778.4926,364.3567 L777.8629,367.9465 L778.094,371.5572 L778.3202,371.5622 L778.2656,375.1375 L778.1344,378.7111 L778.176,382.2885 L778.6168,385.8748 L778.4927,389.4485 L778.3599,389.44 L778.9807,392.9925 L778.6985,396.4873 L779.4429,400.0477 L779.6093,403.5712 L779.62,407.0847 L779.7283,407.0957 L779.9907,410.5367 L780.6408,414.017 L780.9406,417.4618 L781.0939,420.8917 L781.3689,424.334 L781.487,424.3499 L781.7642,427.6723 L782.5898,431.0688 L782.7951,434.3815 L783.2556,437.7286 L783.6322,441.0644 L783.3655,441.0201 L783.9887,444.2509 L784.9332,447.5351 L785.4231,450.7437 L785.75,453.9252 L786.303,457.1444 L786.1624,457.1171 L786.8017,460.1853 L787.192,463.2052 L788.2666,466.358 L789.0025,469.4451 L789.2741,472.4419 L789.5026,472.4922 L790.2086,475.3849 L790.4804,478.1822 L791.2105,481.0802 L791.6373,483.9116 L792.4384,486.8253 L792.561,486.8552 L793.195,489.5187 L793.9771,492.2183 L794.2895,494.8035 L794.9807,497.481 L795.6889,500.1626 L795.8794,500.2132 L796.5785,502.6593 L796.7605,504.968 L797.5433,507.4363 L798.3366,509.9073 L798.9184,512.3222 L798.6574,512.2476 L799.6898,514.5354 L800.2693,516.6937 L800.7363,518.8199 L801.4605,521.0196 L802.02,523.1722 " fill="none" style="stroke:#181818;stroke-width:4.0;"/><polygon fill="#181818" points="803.73,527.8422,803.7995,527.851,803.8393,525.8706,804.2866,523.9417,804.6013,521.996,804.4795,519.9953,804.9618,518.0707,804.939,518.0584,804.3015,519.0003,803.7791,520.004,803.3367,521.0506,802.6187,521.9492,802.2867,523.0551,802.374,523.2177,801.1905,522.3349,800.2618,521.9269,799.3642,521.5769,798.2857,520.8898,797.3023,520.38,797.3196,520.3948,798.5798,521.8655,799.9185,523.4037,801.2193,524.9093,802.5924,526.4772,803.73,527.8422" style="stroke:#181818;stroke-width:4.0;"/><text fill="#000000" font-family="Chalkduster" font-size="24" lengthAdjust="spacing" textLength="142" x="852.5" y="291.0731">Operate in</text><text fill="#000000" font-family="Chalkduster" font-size="24" lengthAdjust="spacing" textLength="251" x="798" y="321.7029">HCDL environment</text></g><!--link res to use--><g id="link_res_use"><path d="M996.38,174.6122 L996.4483,174.6759 L998.0383,176.4087 L1000.0286,178.515 L1001.8886,180.4997 L1003.3198,182.0843 L1005.3446,184.2227 L1005.3185,184.2 L1006.9895,186.1487 L1008.7918,188.2118 L1010.6853,190.3545 L1012.2644,192.223 L1014.2839,194.4755 L1014.4754,194.63 L1015.8152,196.467 L1017.7141,198.7551 L1019.6812,201.0983 L1021.2514,203.1212 L1023.0304,205.3126 L1023.0548,205.3306 L1024.6961,207.5768 L1026.4486,209.905 L1028.1474,212.1937 L1029.9485,214.5579 L1031.4163,216.676 L1031.6647,216.841 L1033.2393,219.2093 L1034.6536,221.4712 L1036.3024,223.8889 L1037.9623,226.314 L1039.2738,228.5076 L1038.9972,228.3458 L1040.9665,231.1083 L1042.0248,233.3379 L1043.7756,235.9726 L1044.8132,238.1901 L1046.4355,240.7496 L1046.4082,240.7359 L1047.9899,243.4158 L1048.9353,245.7775 L1050.2561,248.327 L1051.6084,250.8922 L1052.7334,253.3438 L1052.9047,253.4137 L1053.7851,255.9208 L1054.9582,258.5474 L1055.6579,260.9806 L1057.0637,263.7023 L1058,266.2322 L1058.2343,266.2989 L1059.1637,269.7091 L1060.2094,273.1524 L1060.7146,276.4419 L1061.616,279.8442 L1062.8684,283.3463 L1062.5929,283.3268 L1063.0401,286.1481 L1063.1769,288.9475 L1063.764,291.7787 L1063.5822,294.5556 L1063.8575,297.3647 L1063.7064,297.3441 L1063.5701,300.2189 L1062.788,303.0055 L1062.4651,305.8548 L1062.5915,308.7655 L1061.9178,311.5669 L1062.1068,311.6088 L1061.4529,315.1706 L1060.2111,318.6021 L1059.7056,322.1968 L1059.0397,325.756 L1058,329.2322 L1057.7979,329.1752 L1057.3226,331.4783 L1056.7811,333.7626 L1056.3696,336.0836 L1055.4526,338.2621 L1054.8179,340.5203 L1055.0079,340.599 L1053.831,342.2583 L1053.0207,344.0695 L1052.7458,346.1028 L1051.4851,347.7273 L1051.0198,349.6816 L1051.2144,349.797 L1049.3486,352.6776 L1047.417,355.5191 L1045.634,358.4487 L1044.1943,361.5821 L1042.2688,364.4272 L1042.1559,364.3568 L1040.6649,367.496 L1038.4061,370.1565 L1037.0203,373.3613 L1035.143,376.2596 L1033.1333,379.0753 L1033.2317,379.1219 L1032.2965,380.8922 L1031.7137,382.8293 L1030.8126,384.6157 L1029.7784,386.3391 L1028.8547,388.1148 L1028.9673,388.1538 L1028.0291,390.3193 L1027.6137,392.6661 L1026.6069,394.8078 L1025.8434,397.0339 L1025,399.2322 L1024.7388,399.1625 L1024.1604,401.6802 L1023.8967,404.2819 L1023.1877,406.7648 L1022.3192,409.2051 L1021.672,411.7044 L1021.5324,411.6726 L1020.9942,414.2445 L1020.2087,416.7601 L1020.1029,419.4304 L1019.6607,422.0241 L1018.7572,424.5128 L1018.9869,424.5575 L1018.5546,427.1702 L1017.686,429.6979 L1017.2779,432.3152 L1016.565,434.8732 L1016.2283,437.5045 L1016.3528,437.5252 L1015.9024,440.1269 L1015.6023,442.7536 L1014.8253,445.3009 L1014.433,447.9122 L1014.0578,450.5264 L1014.2529,450.5543 L1013.9396,453.1419 L1013.0965,455.654 L1012.8688,458.2539 L1012.6519,460.8553 L1012.2184,463.4258 L1011.949,463.3917 L1012.2134,464.7166 L1012.0105,465.9825 L1011.6915,467.2337 L1011.6378,468.5184 L1011.4143,469.7816 L1011.7358,469.8203 L1011.2383,470.0802 L1011.4774,470.4287 L1011.4266,470.7424 L1011.3137,471.0485 L1011.2247,471.3576 L1011.2869,471.365 L1011.2561,471.5207 L1010.912,471.6393 L1010.9919,471.8081 L1010.9465,471.9621 L1011.1316,472.1434 " fill="none" style="stroke:#181818;stroke-width:4.0;"/><polygon fill="#181818" points="1011.1316,472.1434,1011.1918,472.1792,1012.018,470.379,1013.1974,468.7884,1014.2618,467.1295,1014.948,465.2462,1016.1577,463.6736,1016.1417,463.6532,1015.1815,464.2628,1014.3022,464.9749,1013.4792,465.7583,1012.4623,466.296,1011.7169,467.1778,1011.8618,467.2921,1010.8512,466.1595,1010.2635,465.3607,1009.7274,464.6025,1008.8911,463.6075,1008.2127,462.737,1008.2344,462.7438,1008.7863,464.6152,1009.4371,466.5172,1010.0402,468.4045,1010.7343,470.32,1011.1316,472.1434" style="stroke:#181818;stroke-width:4.0;"/></g><!--link lib to pres--><g id="link_lib_pres"><path d="M526.21,174.5822 L526.4902,174.5868 L525.4945,184.5349 L526.1414,194.5099 L526.2534,204.4761 L524.6064,214.4135 L525.2907,224.3891 L524.6626,234.3432 L524.5567,244.3058 L524.814,254.2744 L523.82,264.2225 L525.3167,274.2114 L523.5752,284.1473 L523.9886,294.1185 L524.665,304.0939 L523.8116,314.0443 L523.8538,324.0094 L523.5571,333.9689 L523.6746,343.9353 L523.5922,353.8983 L523.8911,363.8676 L523.8418,373.8311 L523.6896,383.793 L522.9603,393.7455 L523.0757,403.7118 L523.2308,413.6787 L521.17,423.6093 L522.8728,433.6016 L521.4099,443.542 L522.3537,453.5219 L520.8189,463.4611 L521.2244,473.4321 L522.1412,483.4115 L520.9245,493.356 L520.9667,503.3211 L521.1146,513.2879 L520.5,523.2422 " fill="none" style="stroke:#181818;stroke-width:4.0;"/><polygon fill="#181818" points="520.4,528.1422,520.4635,528.1718,521.1055,526.2979,522.1199,524.5973,523.013,522.8403,523.5073,520.8978,524.5537,519.2121,524.5357,519.1935,523.6413,519.896,522.8377,520.6925,522.0971,521.5543,521.1392,522.191,520.4857,523.1429,520.6184,523.2712,519.5484,522.1834,518.866,521.4699,518.2307,520.8022,517.3205,519.8687,516.5549,519.075,516.5758,519.0839,517.3141,520.8843,518.1477,522.7251,518.9353,524.5464,519.8107,526.405,520.4,528.1422" style="stroke:#181818;stroke-width:4.0;"/><text fill="#000000" font-family="Chalkduster" font-size="24" lengthAdjust="spacing" textLength="202" x="534" y="291.0731">Maintain data,</text><text fill="#000000" font-family="Chalkduster" font-size="24" lengthAdjust="spacing" textLength="220" x="525" y="321.7029">metadata &amp;  ID</text></g><!--SRC=[PL7BRi8m4BpxAxOvzDJGEuTAYFGH2TGAX7hXiacMiCBPHBP3X2h-lNQ0AWq-MPxPsPdn0qkksu9WyboWmrXZ5bjtqZIf2kNOQPh2R9NCONrWhIqiK0gROqDGOTEmbB2h3NpCauN2tFbhj29BQF8zhEkTwz0Gl4h9GcGYG0kj7HElWA4_9F5EOC6PGSCeFQevKyfGxb1AJLVA71lCMBDZiZshoE7dZhL4mP8g4XTv50RmTsqE8KB7RWyXVY_I-LS5_WoORxDq1MdLw5u77TSNM-5zpFtoISWSWt1oqsn2klETjNSIChqQ-5vXO-dQ4GMd_rGlKSZjwy968snZRyiWbPr1wqoRkzRlZFpIi_AdjH37HTr97B_qhc4A2LakBviBQdHzsWh_6_T-XsEX63_ssGJF12nR2HyF94SsjOHcHXCXYF9VDtWAJNYH9RBlaQMl_MdhXns6Apm2f8dw1G00]--></g></svg>