<?xml version="1.0" encoding="us-ascii" standalone="no"?><svg xmlns="http://www.w3.org/2000/svg" xmlns:xlink="http://www.w3.org/1999/xlink" contentStyleType="text/css" height="633px" preserveAspectRatio="none" style="width:541px;height:633px;background:#FFFFFF;" version="1.1" viewBox="0 0 541 633" width="541px" zoomAndPan="magnify"><defs/><g><!--cluster Standards--><g id="cluster_Standards"><rect fill="none" height="620.95" rx="2.5" ry="2.5" style="stroke:#181818;stroke-width:1.0;" width="528" x="7" y="7"/><text fill="#000000" font-family="sans-serif" font-size="14" font-style="italic" lengthAdjust="spacing" textLength="82" x="230" y="22.5352">&#171;standards&#187;</text><text fill="#000000" font-family="sans-serif" font-size="14" font-weight="bold" lengthAdjust="spacing" textLength="71" x="235.5" y="39.0234">Standards</text></g><!--cluster ro--><g id="cluster_ro"><path d="M224.5,74 L294.5,74 A3.75,3.75 0 0 1 297,76.5 L304,96.4883 L500.5,96.4883 A2.5,2.5 0 0 1 503,98.9883 L503,174.99 A2.5,2.5 0 0 1 500.5,177.49 L224.5,177.49 A2.5,2.5 0 0 1 222,174.99 L222,76.5 A2.5,2.5 0 0 1 224.5,74 " fill="none" style="stroke:#000000;stroke-width:1.5;"/><line style="stroke:#000000;stroke-width:1.5;" x1="222" x2="304" y1="96.4883" y2="96.4883"/><text fill="#000000" font-family="sans-serif" font-size="14" font-weight="bold" lengthAdjust="spacing" textLength="69" x="226" y="89.5352">RO-Crate</text></g><!--cluster PIDs--><g id="cluster_PIDs"><rect fill="none" height="103.49" rx="2.5" ry="2.5" style="stroke:#181818;stroke-width:1.0;" width="268" x="224" y="492.46"/><text fill="#000000" font-family="sans-serif" font-size="14" font-weight="bold" lengthAdjust="spacing" textLength="33" x="341.5" y="507.9952">PIDs</text></g><!--cluster Profiles--><g id="cluster_Profiles"><rect fill="none" height="200.97" rx="2.5" ry="2.5" style="stroke:#181818;stroke-width:1.0;" width="189" x="192" y="226.49"/><text fill="#000000" font-family="sans-serif" font-size="14" font-weight="bold" lengthAdjust="spacing" textLength="56" x="258.5" y="242.0252">Profiles</text></g><!--cluster Formats--><g id="cluster_Formats"><rect fill="none" height="87.49" rx="2.5" ry="2.5" style="stroke:#181818;stroke-width:1.0;" width="159" x="31" y="82"/><text fill="#000000" font-family="sans-serif" font-size="14" font-weight="bold" lengthAdjust="spacing" textLength="59" x="81" y="97.5352">Formats</text></g><!--entity ifm--><g id="elem_ifm"><rect fill="#F1F1F1" height="36.4883" rx="2.5" ry="2.5" style="stroke:#181818;stroke-width:0.5;" width="102" x="23" y="366.97"/><text fill="#000000" font-family="sans-serif" font-size="14" lengthAdjust="spacing" textLength="82" x="33" y="390.5052">IIIF Manifest</text></g><!--entity wann--><g id="elem_wann"><rect fill="#F1F1F1" height="36.4883" rx="2.5" ry="2.5" style="stroke:#181818;stroke-width:0.5;" width="132" x="68" y="535.46"/><text fill="#000000" font-family="sans-serif" font-size="14" lengthAdjust="spacing" textLength="112" x="78" y="558.9952">W3C Annotation</text></g><!--entity Schema.org--><g id="elem_Schema.org"><rect fill="#F1F1F1" height="36.4883" rx="2.5" ry="2.5" style="stroke:#181818;stroke-width:0.5;" width="101" x="377.5" y="117"/><text fill="#000000" font-family="sans-serif" font-size="14" lengthAdjust="spacing" textLength="81" x="387.5" y="140.5352">Schema.org</text></g><!--entity JSON-LD--><g id="elem_JSON-LD"><rect fill="#F1F1F1" height="36.4883" rx="2.5" ry="2.5" style="stroke:#181818;stroke-width:0.5;" width="78" x="265" y="117"/><text fill="#000000" font-family="sans-serif" font-size="14" lengthAdjust="spacing" textLength="58" x="275" y="140.5352">JSON-LD</text></g><!--entity DOI--><g id="elem_DOI"><rect fill="#F1F1F1" height="36.4883" rx="2.5" ry="2.5" style="stroke:#181818;stroke-width:0.5;" width="45" x="403.5" y="535.46"/><text fill="#000000" font-family="sans-serif" font-size="14" lengthAdjust="spacing" textLength="25" x="413.5" y="558.9952">DOI</text></g><!--entity ARK--><g id="elem_ARK"><rect fill="#F1F1F1" height="36.4883" rx="2.5" ry="2.5" style="stroke:#181818;stroke-width:0.5;" width="120" x="248" y="535.46"/><text fill="#000000" font-family="sans-serif" font-size="14" lengthAdjust="spacing" textLength="100" x="258" y="558.9952">Managed URLs</text></g><!--entity ldac--><g id="elem_ldac"><rect fill="#F1F1F1" height="36.4883" rx="2.5" ry="2.5" style="stroke:#181818;stroke-width:0.5;" width="122" x="216" y="269.49"/><text fill="#000000" font-family="sans-serif" font-size="14" lengthAdjust="spacing" textLength="102" x="226" y="293.0252">Language Data</text></g><!--entity ifa--><g id="elem_ifa"><rect fill="#F1F1F1" height="36.4883" rx="2.5" ry="2.5" style="stroke:#181818;stroke-width:0.5;" width="95" x="229.5" y="366.97"/><text fill="#000000" font-family="sans-serif" font-size="14" lengthAdjust="spacing" textLength="75" x="239.5" y="390.5052">IIIF Archive</text></g><!--entity TEI--><g id="elem_TEI"><rect fill="#F1F1F1" height="36.4883" rx="2.5" ry="2.5" style="stroke:#181818;stroke-width:0.5;" width="41" x="133.5" y="117"/><text fill="#000000" font-family="sans-serif" font-size="14" lengthAdjust="spacing" textLength="21" x="143.5" y="140.5352">TEI</text></g><!--entity other--><g id="elem_other"><rect fill="#F1F1F1" height="36.4883" rx="2.5" ry="2.5" style="stroke:#181818;stroke-width:0.5;" width="52" x="47" y="117"/><text fill="#000000" font-family="sans-serif" font-size="14" lengthAdjust="spacing" textLength="32" x="57" y="140.5352">etc...</text></g><!--link ldac to ifa--><!--link ifa to wann--><!--link ifa to wann--><g id="link_ifa_wann"><path d="M266.42,403.94 C257.45,417.23 243.3,434.6 226,443.46 C210.69,451.3 161.43,439.57 149,451.46 C128.38,471.2 127.73,506.03 130.11,529.25 " fill="none" id="ifa-to-wann-1" style="stroke:#181818;stroke-width:1.0;"/><polygon fill="#181818" points="130.81,534.17,133.7263,524.7628,130.2233,529.2045,125.7816,525.7015,130.81,534.17" style="stroke:#181818;stroke-width:1.0;"/><text fill="#000000" font-family="sans-serif" font-size="13" lengthAdjust="spacing" textLength="68" x="150" y="465.0284">References</text></g><!--link ifa to ifm--><g id="link_ifa_ifm"><path d="M229.05,385.22 C199.73,385.22 162.04,385.22 131.17,385.22 " fill="none" id="ifa-to-ifm" style="stroke:#181818;stroke-width:1.0;"/><polygon fill="#181818" points="126.49,385.22,135.49,389.22,131.49,385.22,135.49,381.22,126.49,385.22" style="stroke:#181818;stroke-width:1.0;"/><text fill="#000000" font-family="sans-serif" font-size="13" lengthAdjust="spacing" textLength="68" x="143.25" y="378.7884">References</text></g><!--link ifa to ARK--><g id="link_ifa_ARK"><path d="M280.26,403.72 C285.89,433.95 297.43,495.92 303.7,529.63 " fill="none" id="ifa-to-ARK" style="stroke:#181818;stroke-width:1.0;"/><polygon fill="#181818" points="304.74,534.19,307.0263,524.6102,303.8255,529.2743,299.1613,526.0735,304.74,534.19" style="stroke:#181818;stroke-width:1.0;"/><text fill="#000000" font-family="sans-serif" font-size="13" lengthAdjust="spacing" textLength="29" x="292" y="465.0284">uses</text></g><!--link ro to Profiles--><g id="link_ro_Profiles"><path d="M237.5544,177.5098 C237.5964,177.6031 237.6385,177.6964 237.6809,177.7895 C240.3944,183.7513 244.0575,189.28 249,193.49 C284.99,224.14 319.2,178.49 354,210.49 C357.1125,213.3525 359.7498,216.6397 361.9815,220.2067 C363.0973,221.9903 364.1117,223.8438 365.0333,225.7491 C365.1485,225.9873 365.2622,226.2263 365.3746,226.466 " fill="none" id="ro-to-Profiles" style="stroke:#181818;stroke-width:1.0;"/><polygon fill="#181818" points="365.3746,226.466,365.1786,216.6191,363.2534,221.9383,357.9342,220.013,365.3746,226.466" style="stroke:#181818;stroke-width:1.0;"/></g><!--link Profiles to PIDs--><!--SRC=[TP8zRy8m48Rt_8fJzcJfLg58Y1Gfb1OKMdMeEfpi2uaQxCesPQZuxxqOahe1F3XsdjVlVTY6X4ErRGdY3Iya6cbZc4nilyao-8c0Xv- -K7pYbiNbAfaPT1G3MZ3whEc62Hn5JJjCjTd6r_1YitfEblc97QDeX8kYcCCJggOYwtoSfjgDHMztCvWgfHswHYklEg1IOzcwoBciFia0vAiYllpBKRbA2Q_bqdhFQVbu8ykrqLNJKk3-3o_vk-ywbgD3RzLA5DUKljof4NNpJUTgST1rXo2H-g3UwqPAKXz9DWYEuvpcskpGXIdzGOXV7eQImqFaH9gcFh9sDPd0cWDT11-wxE5f3_TGKaM6b20RGhwu6wnpPG7tbmLxooWwTeyjuZVLmxx5KR-0Ysow-_q5]--></g></svg>