<?xml version="1.0" encoding="us-ascii" standalone="no"?><svg xmlns="http://www.w3.org/2000/svg" xmlns:xlink="http://www.w3.org/1999/xlink" contentStyleType="text/css" height="615px" preserveAspectRatio="none" style="width:1278px;height:615px;background:#FFFFFF;" version="1.1" viewBox="0 0 1278 615" width="1278px" zoomAndPan="magnify"><defs/><g><text fill="#000000" font-family="Chalkduster" font-size="42" font-weight="bold" lengthAdjust="spacing" textLength="1136" x="64" y="51.7215">Trove architecture showing repository vs index</text><!--cluster Trove--><g id="cluster_Trove"><path d="M6,90.6022 L6,90.6022 L6.0226,90.6928 L7.3648,90.0715 L8.8397,89.9815 L10.2713,89.7184 L11.5609,88.8864 L13.0471,88.842 L13.0445,88.8075 L17.0157,88.3449 L21.0003,88.0558 L24.9942,87.8874 L28.956,87.3032 L32.9629,87.3014 L32.9749,87.5472 L35.7911,86.8831 L38.6423,86.9367 L41.4977,87.0777 L44.3283,86.7094 L47.172,86.609 L47.1732,86.6393 L50.5189,86.4662 L53.8698,86.4311 L57.2183,86.3294 L60.5715,86.3547 L63.9089,85.966 L63.9174,86.2641 L71.9451,86.0387 L79.9673,85.6211 L87.9976,85.4849 L96.0282,85.3619 L104.0469,84.821 L104.0273,83.8596 L113.5636,85.5316 L123.0354,84.038 L132.5563,84.951 L142.0266,83.3857 L151.5383,83.8517 L151.5369,83.7604 L162.1547,84.6788 L172.74,83.4635 L183.3444,83.5072 L193.9505,83.6567 L204.5449,83.0436 L204.5514,83.5986 L213.9921,82.9281 L223.4438,83.206 L232.8777,81.9496 L242.3382,82.9817 L251.7896,83.2231 L261.2283,82.382 L261.2336,82.9747 L270.9893,83.111 L280.7297,81.5613 L290.4813,81.2476 L300.2353,81.2003 L309.9957,81.862 L319.75,81.8522 L319.7484,81.5902 L329.3561,82.7005 L338.9494,81.4989 L348.5484,81.2142 L358.1536,81.9157 L367.7465,80.662 L377.3482,80.7987 L386.9584,82.2959 L396.557,81.9513 L406.16,82.2895 L415.7515,80.8209 L425.3573,81.6154 L434.9551,81.1296 L434.958,81.9168 L445.0026,80.4626 L455.0542,80.9275 L465.1051,81.1862 L475.1575,81.8501 L485.2041,80.9384 L495.2562,81.5237 L505.301,80.1314 L515.3502,79.9297 L525.4058,81.467 L535.4531,80.7585 L535.4516,79.8025 L545.2589,81.4215 L555.0629,81.0027 L564.8666,80.3544 L574.6711,80.2243 L584.4775,81.292 L594.2806,80.2656 L604.0872,81.4382 L613.8895,79.8965 L623.6966,81.4411 L633.5,80.6022 L633.5,80.6022 L633.501,81.2479 L643.3052,80.9445 L653.1095,80.6964 L662.9156,81.6179 L672.7201,81.4828 L682.5238,80.906 L692.3287,81.0535 L702.1325,80.5379 L711.939,81.6825 L721.7425,80.9493 L731.5469,80.7585 L731.5477,80.9886 L741.5937,79.9844 L751.6445,80.2924 L761.6989,81.5774 L771.7482,81.4799 L781.7957,80.8868 L791.8441,80.5516 L801.8944,80.7263 L811.9419,80.1404 L821.9972,81.6454 L832.0449,81.1296 L832.0511,82.1156 L841.6497,81.8916 L851.2516,82.1766 L860.845,81.1279 L870.4473,81.4867 L880.0438,80.9139 L889.6498,81.8696 L899.2499,81.8801 L908.8529,82.3478 L918.4468,81.3653 L928.048,81.5526 L937.6533,82.3833 L947.25,81.8522 L947.2568,82.6086 L956.9974,81.2572 L966.7549,81.7703 L976.5127,82.3161 L986.2571,81.391 L996.0224,82.7649 L1005.7717,82.382 L1005.7757,82.726 L1015.2174,82.3579 L1024.6684,82.7922 L1034.1247,83.6843 L1043.5558,82.4059 L1053.0128,83.3533 L1062.4551,83.0436 L1062.4609,83.4244 L1073.0587,83.3596 L1083.6606,83.5547 L1094.2613,83.6798 L1104.8477,82.858 L1115.4617,83.8517 L1115.4508,83.3174 L1124.9474,83.4303 L1134.46,84.3245 L1143.9589,84.5507 L1153.4592,84.8427 L1162.9531,84.821 L1162.9494,84.6917 L1170.9799,85.02 L1179.0068,85.2256 L1187.0432,85.7642 L1195.0689,85.9265 L1203.0911,85.966 L1203.0828,85.7503 L1206.4372,86.0622 L1209.776,85.9668 L1213.1381,86.4799 L1216.491,86.7506 L1219.828,86.609 L1219.8398,86.8507 L1222.6604,86.5541 L1225.5217,87.0919 L1228.3374,86.6947 L1231.1996,87.2518 L1234.0371,87.3014 L1234.0269,87.1688 L1238.0236,87.6524 L1242.0117,88.0241 L1246.0028,88.4349 L1249.9451,88.2148 L1253.9529,88.842 L1254.0041,89.047 L1255.3815,89.2708 L1256.81,89.6993 L1258.2617,90.2206 L1259.5912,90.2525 L1261,90.6022 L1261.4674,90.6022 L1261.5692,100.5682 L1261.526,110.5342 L1260.9978,120.5002 L1262.8952,130.4662 L1259.374,140.4322 L1262.5074,150.3982 L1259.336,160.3642 L1259.5592,170.3302 L1261.1067,180.2962 L1261.0754,190.2622 L1259.6858,200.2282 L1262.1032,210.1942 L1261.2903,220.1602 L1262.9378,230.1262 L1262.7789,240.0922 L1259.8046,250.0582 L1259.9389,260.0242 L1260.6555,269.9902 L1261.9481,279.9562 L1262.0746,289.9222 L1261.8031,299.8882 L1260.0881,309.8542 L1262.6969,319.8202 L1262.6901,329.7862 L1260.8739,339.7522 L1260.3625,349.7182 L1259.9296,359.6842 L1260.4278,369.6502 L1261.3664,379.6162 L1260.8176,389.5822 L1259.8859,399.5482 L1262.2997,409.5142 L1259.7762,419.4802 L1262.3397,429.4462 L1262.1393,439.4122 L1261.9916,449.3782 L1262.8467,459.3442 L1260.3443,469.3102 L1260.1983,479.2762 L1262.3837,489.2422 L1259.4083,499.2082 L1260.376,509.1742 L1261.308,519.1402 L1261.1832,529.1062 L1260.0441,539.0722 L1260.8854,549.0382 L1262.9856,559.0042 L1262.7293,568.9702 L1259.4099,578.9362 L1261,588.9022 L1261,588.9022 L1261.0085,588.9361 L1259.5352,589.0327 L1258.1783,589.595 L1256.8033,590.0847 L1255.4075,590.4915 L1253.9529,590.6625 L1253.9301,590.3679 L1249.9835,591.1481 L1245.9869,591.2824 L1241.9844,591.3407 L1238.0041,591.6862 L1234.0371,592.203 L1234.0442,592.348 L1231.2007,592.4524 L1228.3531,592.4727 L1225.4971,592.3201 L1222.684,593.0491 L1219.828,592.8954 L1219.8227,592.7569 L1216.4716,592.7895 L1213.1321,593.1227 L1209.7959,593.5431 L1206.4489,593.6832 L1203.0911,593.5384 L1203.0915,593.554 L1195.0616,593.7003 L1187.038,594.0719 L1179.0107,594.3082 L1170.9743,594.2289 L1162.9531,594.6835 L1162.9644,595.2353 L1153.47,595.6222 L1143.9507,594.7835 L1134.4466,594.6929 L1124.9783,596.3582 L1115.4617,595.6527 L1115.4621,595.6807 L1104.8603,595.8141 L1094.2651,596.3746 L1083.6446,595.2767 L1073.0672,597.0057 L1062.4551,596.4608 L1062.4548,596.4402 L1053.0183,597.4628 L1043.5573,596.3936 L1034.1198,597.3369 L1024.6593,596.3099 L1015.2228,597.3388 L1005.7717,597.1224 L1005.7763,597.6281 L996.0142,596.7743 L986.2689,597.783 L976.504,596.6254 L966.7516,596.8483 L957.0119,598.4743 L947.25,597.6522 L947.2557,598.5647 L937.6543,598.4704 L928.0461,597.2922 L918.4519,598.3452 L908.8444,597.2637 L899.2484,598.0309 L889.6475,598.0119 L880.0448,597.7239 L870.4518,598.9552 L860.8499,598.7852 L851.2431,597.8268 L841.6497,599.0168 L832.0449,598.3749 L832.0454,598.4974 L821.9922,597.6339 L811.9442,598.138 L801.8929,597.7858 L791.845,598.3379 L781.7928,597.7218 L771.7431,597.7973 L761.6966,598.7284 L751.6459,598.5112 L741.5964,598.6308 L731.5469,598.746 L731.5466,598.555 L721.7425,598.9847 L711.9363,598.0371 L702.1332,599.0062 L692.3265,597.8176 L682.5241,599.2188 L672.72,599.6301 L662.9152,599.5515 L653.1101,599.3527 L643.3051,599.1429 L633.5,598.9022 L633.5,598.9022 L633.5002,599.0432 L623.694,598.0332 L613.8916,599.4663 L604.0866,599.2949 L594.2809,598.6352 L584.4766,598.8164 L574.6714,598.5304 L564.8677,599.0831 L555.0639,599.6846 L545.2571,598.2897 L535.4531,598.746 L535.4554,599.3711 L525.4029,598.5899 L515.3516,598.1661 L505.3016,598.0588 L495.2507,597.738 L485.2019,597.9726 L475.1545,598.5717 L465.1058,598.8502 L455.0575,599.2174 L445.007,598.9721 L434.9551,598.3749 L434.9491,597.4264 L425.3598,599.14 L415.7583,598.9026 L406.1583,598.9151 L396.5578,598.8298 L386.9474,597.1949 L377.3504,597.6699 L367.7548,598.3746 L358.1477,597.2511 L348.5504,597.6957 L338.9514,597.862 L329.3532,598.1472 L319.75,597.6522 L319.7506,597.7133 L310.0054,598.5569 L300.2477,598.0241 L290.4922,597.7287 L280.729,596.5792 L270.986,597.6624 L261.2283,597.1224 L261.2193,596.3565 L251.7858,597.4197 L242.3339,596.9123 L232.8913,597.1909 L223.438,596.5648 L213.9891,596.3096 L204.5449,596.4608 L204.5299,595.4731 L193.9392,596.0133 L183.328,595.1978 L172.736,595.6478 L162.1485,596.3981 L151.5383,595.6527 L151.5427,595.8669 L142.0278,594.8569 L132.5484,595.5927 L123.0452,595.1586 L113.5599,595.6015 L104.0469,594.6835 L104.054,594.9344 L96.0205,594.4961 L87.9894,594.1459 L79.9614,593.9012 L71.9364,593.7646 L63.9089,593.5384 L63.9204,593.8356 L60.5501,593.1106 L57.2114,593.2085 L53.8713,593.2711 L50.5319,593.349 L47.172,592.8954 L47.1766,592.9895 L44.3259,592.669 L41.4724,592.2909 L38.6374,592.2918 L35.7999,592.243 L32.9629,592.203 L32.9745,592.3536 L28.9924,592.0586 L24.9984,591.6097 L21.0089,591.2198 L17.0056,590.6517 L13.0471,590.6625 L13.061,590.7181 L11.6846,590.4982 L10.3018,590.2528 L8.8294,589.6487 L7.418,589.2887 L6,588.9022 L5.4129,588.9022 L6.6632,578.9362 L4.7468,568.9702 L7.3761,559.0042 L5.1849,549.0382 L4.5862,539.0722 L6.6851,529.1062 L7.2582,519.1402 L6.1528,509.1742 L5.6769,499.2082 L6.421,489.2422 L5.9342,479.2762 L5.7464,469.3102 L6.205,459.3442 L5.1147,449.3782 L7.0388,439.4122 L7.8333,429.4462 L5.0571,419.4802 L5.375,409.5142 L4.7504,399.5482 L6.6318,389.5822 L5.7499,379.6162 L7.4704,369.6502 L5.1994,359.6842 L5.043,349.7182 L6.7915,339.7522 L5.4013,329.7862 L6.7118,319.8202 L6.7457,309.8542 L7.1622,299.8882 L4.7071,289.9222 L6.2347,279.9562 L7.4268,269.9902 L4.5518,260.0242 L7.345,250.0582 L5.0945,240.0922 L6.4179,230.1262 L7.7407,220.1602 L4.3189,210.1942 L7.9257,200.2282 L5.791,190.2622 L5.1309,180.2962 L7.9502,170.3302 L4.1661,160.3642 L7.615,150.3982 L4.9298,140.4322 L6.7737,130.4662 L7.9468,120.5002 L5.6039,110.5342 L4.8607,100.5682 L6,90.6022 " fill="none" style="stroke:#181818;stroke-width:4.0;"/><path d="M6,90.6022 L6,90.6022 L6.0226,90.6928 L7.3648,90.7756 L8.8397,91.3897 L10.2713,91.8307 L11.5609,91.7028 L13.0471,92.3625 L13.0445,92.328 L17.0157,92.4816 L21.0003,92.8087 L24.9942,93.2566 L28.956,93.2885 L32.9629,93.903 L32.9749,94.1488 L35.7911,93.7617 L38.6423,94.0922 L41.4977,94.5102 L44.3283,94.4189 L47.172,94.5954 L47.1732,94.6257 L50.5189,94.7098 L53.8698,94.9319 L57.2183,95.0874 L60.5715,95.37 L63.9089,95.2384 L63.9174,95.5366 L71.9451,95.7692 L79.9673,95.8096 L87.9976,96.1314 L96.0282,96.4664 L104.0469,96.3835 L104.0273,95.4221 L113.5636,97.4818 L123.0354,96.3759 L132.5563,97.6766 L142.0266,96.499 L151.5383,97.3527 L151.5369,97.2614 L162.1547,98.503 L172.74,97.611 L183.3444,97.9779 L193.9505,98.4506 L204.5449,98.1608 L204.5514,98.7157 L213.9921,98.2659 L223.4438,98.7643 L232.8777,97.7284 L242.3382,98.981 L251.7896,99.443 L261.2283,98.8224 L261.2336,99.4151 L270.9893,99.7281 L280.7297,98.3549 L290.4813,98.2178 L300.2353,98.3471 L309.9957,99.1854 L319.75,99.3522 L319.7484,99.0902 L329.3561,100.321 L338.9494,99.2398 L348.5484,99.0755 L358.1536,99.8974 L367.7465,98.7642 L377.3482,99.0214 L386.9584,100.639 L396.557,100.4149 L406.16,100.8735 L415.7515,99.5254 L425.3573,100.4402 L434.9551,100.0749 L434.958,100.8621 L445.0026,99.4821 L455.0542,100.0213 L465.1051,100.3542 L475.1575,101.0923 L485.2041,100.2548 L495.2562,100.9143 L505.301,99.5963 L515.3502,99.4687 L525.4058,101.0803 L535.4531,100.446 L535.4516,99.49 L545.2589,101.1402 L555.0629,100.7527 L564.8666,100.1356 L574.6711,100.0368 L584.4775,101.1358 L594.2806,100.1406 L604.0872,101.3445 L613.8895,99.834 L623.6966,101.4098 L633.5,100.6022 L633.5,100.6022 L633.501,101.2479 L643.3052,100.9132 L653.1095,100.6339 L662.9156,101.5241 L672.7201,101.3578 L682.5238,100.7498 L692.3287,100.866 L702.1325,100.3191 L711.939,101.4325 L721.7425,100.6681 L731.5469,100.446 L731.5477,100.6761 L741.5937,99.5977 L751.6445,99.8314 L761.6989,101.0423 L771.7482,100.8705 L781.7957,100.2032 L791.8441,99.7937 L801.8944,99.8943 L811.9419,99.2342 L821.9972,100.665 L832.0449,100.0749 L832.0511,101.0609 L841.6497,100.7165 L851.2516,100.881 L860.845,99.7119 L870.4473,99.9503 L880.0438,99.257 L889.6498,100.0923 L899.2499,99.9823 L908.8529,100.3296 L918.4468,99.2267 L928.048,99.2934 L937.6533,100.0037 L947.25,99.3522 L947.2568,100.1086 L956.9974,98.5806 L966.7549,98.9171 L976.5127,99.2863 L986.2571,98.1846 L996.0224,99.3819 L1005.7717,98.8224 L1005.7757,99.1664 L1015.2174,98.5778 L1024.6684,98.7915 L1034.1247,99.4631 L1043.5558,97.9642 L1053.0128,98.691 L1062.4551,98.1608 L1062.4609,98.5416 L1073.0587,98.1535 L1083.6606,98.0254 L1094.2613,97.8272 L1104.8477,96.6822 L1115.4617,97.3527 L1115.4508,96.8184 L1124.9474,96.5436 L1134.46,97.0501 L1143.9589,96.8886 L1153.4592,96.7929 L1162.9531,96.3835 L1162.9494,96.2542 L1170.9799,96.1245 L1179.0068,95.872 L1187.0432,95.9527 L1195.0689,95.657 L1203.0911,95.2384 L1203.0828,95.0228 L1206.4372,95.0775 L1209.776,94.7249 L1213.1381,94.9807 L1216.491,94.9943 L1219.828,94.5954 L1219.8398,94.8372 L1222.6604,94.2636 L1225.5217,94.5244 L1228.3374,93.8502 L1231.1996,94.1303 L1234.0371,93.903 L1234.0269,93.7704 L1238.0236,93.6377 L1242.0117,93.3933 L1246.0028,93.1879 L1249.9451,92.3516 L1253.9529,92.3625 L1254.0041,92.5675 L1255.3815,92.0872 L1256.81,91.8116 L1258.2617,91.6288 L1259.5912,90.9566 L1261,90.6022 " fill="none" style="stroke:#181818;stroke-width:4.0;"/><text fill="#000000" font-family="Chalkduster" font-size="24" font-weight="bold" lengthAdjust="spacing" textLength="78" x="594.5" y="126.4431">Trove</text></g><!--cluster repos--><g id="cluster_repos"><polygon fill="#00FF7F" points="40.5,395.2722,40.5,395.4824,50.4664,394.8579,60.4328,395.4655,70.3992,395.6719,80.3655,394.5588,90.3319,395.1945,100.2983,394.8457,110.2647,394.8887,120.2311,395.2041,130.1975,394.5808,140.1639,395.8259,150.1303,394.6419,160.0966,395.0744,170.063,395.7042,180.0294,395.1864,189.9958,395.3404,199.9622,395.2403,209.9286,395.4507,219.895,395.5113,229.8613,395.8579,239.8277,395.9433,249.7941,395.9515,259.7605,395.5268,269.7269,395.7358,279.6933,395.9744,289.6597,394.551,299.6261,395.9507,309.5924,394.9757,319.5588,395.806,329.5252,394.7772,339.4916,395.2037,349.458,396.0138,359.4244,395.2235,369.3908,395.3775,379.3571,395.6108,389.3235,395.6884,399.2899,395.2683,409.2563,395.5594,419.2227,394.6998,429.1891,395.5566,439.1555,395.8204,449.1218,395.7167,459.0882,395.8852,469.0546,394.7891,479.021,394.62,488.9874,394.6508,498.9538,395.2133,508.9202,395.0757,518.8866,395.9536,528.8529,395.0975,538.8193,394.9292,548.7857,395.5005,558.7521,394.6054,568.7185,394.7531,578.6849,395.9212,588.6513,395.7079,598.6176,396.0067,608.584,394.9504,618.5504,395.5914,628.5168,395.8626,638.4832,394.7998,648.4496,395.1764,658.416,395.3982,668.3824,395.924,678.3487,395.268,688.3151,395.7348,698.2815,394.7184,708.2479,394.595,718.2143,395.7758,728.1807,394.5553,738.1471,395.7812,748.1134,395.4788,758.0798,395.0043,768.0462,394.9184,778.0126,395.731,787.979,394.9729,797.9454,395.8641,807.9118,394.7195,817.8782,395.8896,827.8445,395.7565,837.8109,395.5172,847.7773,395.3194,857.7437,395.9988,867.7101,395.8858,877.6765,395.4415,887.6429,395.5404,897.6092,395.1419,907.5756,395.9887,917.542,395.4271,927.5084,395.4448,937.4748,394.6639,947.4412,394.867,957.4076,395.803,967.3739,395.702,977.3403,395.2293,987.3067,394.95,997.2731,395.0533,1007.2395,394.586,1017.2059,395.6869,1027.1723,396.0118,1037.1387,395.7986,1047.105,395.9671,1057.0714,395.1355,1067.0378,395.3594,1077.0042,394.8846,1086.9706,395.5563,1096.937,395.519,1106.9034,395.8246,1116.8697,395.0426,1126.8361,395.1378,1136.8025,395.7157,1146.7689,395.8395,1156.7353,394.7597,1166.7017,395.0783,1176.6681,395.4215,1186.6345,394.6614,1196.6008,395.6256,1206.5672,395.5302,1216.5336,395.1715,1226.5,395.2722,1226.5181,395.316,1226.9465,395.6431,1227.1672,395.4688,1227.6008,395.8086,1227.9507,395.946,1228.2678,396.0044,1228.3034,396.0192,1228.4576,396.376,1228.5956,396.726,1228.5149,396.9855,1228.7301,397.3675,1229,397.7722,1228.5385,397.7722,1229.0638,407.574,1229.0881,417.3757,1229.1617,427.1775,1228.709,436.9793,1228.9325,446.781,1228.8798,456.5828,1229.5769,466.3846,1229.4266,476.1863,1228.5145,485.9881,1228.9271,495.7899,1228.4228,505.5916,1229.2884,515.3934,1229.6085,525.1952,1229.5446,534.9969,1228.5644,544.7987,1229.464,554.6004,1229,564.4022,1228.7712,564.3075,1228.9152,564.7813,1228.6149,565.0711,1228.5904,565.4752,1228.4882,565.8471,1228.2678,566.17,1228.328,566.3154,1227.8224,566.0947,1227.6213,566.6093,1227.2298,566.6642,1226.8989,566.8652,1226.5,566.9022,1226.5,567.65,1216.5336,566.9077,1206.5672,567.0775,1196.6008,567.1157,1186.6345,567.0994,1176.6681,566.9014,1166.7017,567.6129,1156.7353,566.2925,1146.7689,567.4675,1136.8025,566.2782,1126.8361,566.3619,1116.8697,566.9422,1106.9034,566.9305,1096.937,566.4094,1086.9706,567.3159,1077.0042,567.0111,1067.0378,567.6289,1057.0714,567.5693,1047.105,566.454,1037.1387,566.5043,1027.1723,566.773,1017.2059,567.2577,1007.2395,567.3052,997.2731,567.2034,987.3067,566.5603,977.3403,567.5386,967.3739,567.536,957.4076,566.8549,947.4412,566.6632,937.4748,566.5008,927.5084,566.6876,917.542,567.0396,907.5756,566.8338,897.6092,566.4844,887.6429,567.3896,877.6765,566.4433,867.7101,567.4046,857.7437,567.3294,847.7773,567.2741,837.8109,567.5947,827.8445,566.6563,817.8782,566.6016,807.9118,567.4211,797.9454,566.3053,787.979,566.6682,778.0126,567.0177,768.0462,566.9709,758.0798,566.5438,748.1134,566.8592,738.1471,567.6468,728.1807,567.5507,718.2143,566.3059,708.2479,566.9807,698.2815,566.3883,688.3151,566.8759,678.3487,567.1952,668.3824,567.3221,658.416,566.2375,648.4496,567.3028,638.4832,566.9106,628.5168,566.3469,618.5504,566.4312,608.584,567.2288,598.6176,567.1521,588.6513,566.8858,578.6849,566.2301,568.7185,567.5604,558.7521,566.5904,548.7857,566.3742,538.8193,566.8349,528.8529,567.4919,518.8866,567.5176,508.9202,566.9373,498.9538,566.751,488.9874,567.072,479.021,567.0884,469.0546,566.3944,459.0882,567.3162,449.1218,567.461,439.1555,566.6865,429.1891,566.473,419.2227,567.5769,409.2563,566.9232,399.2899,566.9021,389.3235,567.2012,379.3571,566.2565,369.3908,567.4322,359.4244,566.8868,349.458,567.571,339.4916,566.6864,329.5252,567.3112,319.5588,566.4582,309.5924,567.1472,299.6261,567.2815,289.6597,566.5749,279.6933,567.2652,269.7269,566.3308,259.7605,566.4317,249.7941,567.585,239.8277,567.5866,229.8613,567.4707,219.895,566.5418,209.9286,567.2864,199.9622,566.4302,189.9958,566.9604,180.0294,566.901,170.063,566.6398,160.0966,567.5181,150.1303,567.3455,140.1639,566.5815,130.1975,567.4288,120.2311,566.9941,110.2647,566.3186,100.2983,566.6689,90.3319,566.3769,80.3655,566.7631,70.3992,566.2732,60.4328,566.3021,50.4664,566.9725,40.5,566.9022,40.4846,566.8651,40.139,566.7377,39.7746,566.5652,39.4607,566.5144,39.015,566.1455,38.7322,566.17,38.7815,566.1904,38.3569,565.7216,38.5305,565.5006,38.4754,565.1849,38.3072,564.8224,38,564.4022,38.3613,564.4022,38.1922,554.6004,38.1057,544.7987,37.36,534.9969,38.4465,525.1952,38.3296,515.3934,37.8466,505.5916,37.9942,495.7899,37.7914,485.9881,38.2177,476.1863,38.6805,466.3846,37.6461,456.5828,38.4689,446.781,37.9108,436.9793,37.6207,427.1775,37.5681,417.3757,37.3553,407.574,38,397.7722,37.8642,397.716,38.1576,397.4233,38.377,397.0999,38.6168,396.7851,38.7152,396.4116,38.7322,396.0044,38.6415,395.7854,39.1648,396.0486,39.5014,395.8613,39.8619,395.7316,40.213,395.5794,40.5,395.2722" style="stroke:#181818;stroke-width:4.0;"/><text fill="#000000" font-family="Chalkduster" font-size="24" font-style="italic" lengthAdjust="spacing" textLength="169" x="549" y="421.1131">&#171;repository&#187;</text><text fill="#000000" font-family="Chalkduster" font-size="24" font-weight="bold" lengthAdjust="spacing" textLength="506" x="380.5" y="451.7429">NLA governed content (Repositories)</text></g><!--cluster Indices--><g id="cluster_Indices"><polygon fill="none" points="146.5,171.1222,146.5,171.3324,156.5375,170.7079,166.575,171.3155,176.6125,171.5219,186.65,170.4088,196.6875,171.0445,206.725,170.6957,216.7625,170.7387,226.8,171.0541,236.8375,170.4308,246.875,171.6759,256.9125,170.4919,266.95,170.9244,276.9875,171.5542,287.025,171.0364,297.0625,171.1904,307.1,171.0903,317.1375,171.3007,327.175,171.3613,337.2125,171.7079,347.25,171.7933,357.2875,171.8015,367.325,171.3768,377.3625,171.5858,387.4,171.8244,397.4375,170.401,407.475,171.8007,417.5125,170.8257,427.55,171.656,437.5875,170.6272,447.625,171.0537,457.6625,171.8638,467.7,171.0735,477.7375,171.2275,487.775,171.4608,497.8125,171.5384,507.85,171.1183,517.8875,171.4094,527.925,170.5498,537.9625,171.4066,548,171.6704,558.0375,171.5667,568.075,171.7352,578.1125,170.6391,588.15,170.47,598.1875,170.5008,608.225,171.0633,618.2625,170.9257,628.3,171.8036,638.3375,170.9475,648.375,170.7792,658.4125,171.3505,668.45,170.4554,678.4875,170.6031,688.525,171.7712,698.5625,171.5579,708.6,171.8567,718.6375,170.8004,728.675,171.4414,738.7125,171.7126,748.75,170.6498,758.7875,171.0264,768.825,171.2482,778.8625,171.774,788.9,171.118,798.9375,171.5848,808.975,170.5684,819.0125,170.445,829.05,171.6258,839.0875,170.4053,849.125,171.6312,859.1625,171.3288,869.2,170.8543,879.2375,170.7684,889.275,171.581,899.3125,170.8229,909.35,171.7141,919.3875,170.5695,929.425,171.7396,939.4625,171.6065,949.5,171.1222,949.5312,171.1977,949.8596,171.2832,950.2998,171.6389,950.6389,171.7505,950.9358,171.7601,951.2678,171.8544,951.3504,171.8887,951.3741,172.1914,951.7813,172.6529,951.7548,172.9349,951.9067,173.2907,952,173.6222,951.3916,173.6222,951.5948,183.3101,952.5307,192.9979,952.4298,202.6858,951.9571,212.3736,951.6778,222.0615,951.7811,231.7494,951.3138,241.4372,952.4147,251.1251,952.7396,260.8129,952.5264,270.5008,952.6949,280.1886,951.8633,289.8765,952.0872,299.5644,952,309.2522,951.8806,309.2028,951.941,309.642,951.7831,309.9908,951.7308,310.3833,951.3435,310.6371,951.2678,311.02,951.2506,310.9786,950.9708,311.303,950.633,311.4876,950.1417,311.3015,949.8288,311.5461,949.5,311.7522,949.5,311.9015,939.4625,311.1414,929.425,312.1056,919.3875,312.0102,909.35,311.6515,899.3125,311.8945,889.275,312.4809,879.2375,311.4393,869.2,312.0672,859.1625,312.0379,849.125,311.868,839.0875,311.8931,829.05,311.8657,819.0125,311.1281,808.975,311.3514,798.9375,311.2907,788.9,311.816,778.8625,311.8403,768.825,311.914,758.7875,311.4612,748.75,311.6847,738.7125,311.632,728.675,312.3291,718.6375,312.1788,708.6,311.2667,698.5625,311.6793,688.525,311.175,678.4875,312.0406,668.45,312.3607,658.4125,312.2968,648.375,311.3167,638.3375,312.2162,628.3,311.0094,618.2625,311.9524,608.225,311.4529,598.1875,311.8489,588.15,311.9925,578.1125,312.2243,568.075,311.0323,558.0375,312.2277,548,311.9304,537.9625,312.1075,527.925,312.5,517.8875,311.7577,507.85,311.9275,497.8125,311.9657,487.775,311.9494,477.7375,311.7514,467.7,312.4629,457.6625,311.1425,447.625,312.3175,437.5875,311.1282,427.55,311.2119,417.5125,311.7922,407.475,311.7805,397.4375,311.2594,387.4,312.1659,377.3625,311.8611,367.325,312.4789,357.2875,312.4193,347.25,311.304,337.2125,311.3543,327.175,311.623,317.1375,312.1077,307.1,312.1552,297.0625,312.0534,287.025,311.4103,276.9875,312.3886,266.95,312.386,256.9125,311.7049,246.875,311.5132,236.8375,311.3508,226.8,311.5376,216.7625,311.8896,206.725,311.6838,196.6875,311.3344,186.65,312.2396,176.6125,311.2933,166.575,312.2546,156.5375,312.1794,146.5,311.7522,146.5474,311.8667,146.2348,311.819,145.7615,311.3836,145.401,311.2203,145.152,311.3262,144.7322,311.02,144.5484,310.9438,144.5137,310.6366,144.4749,310.3276,144.314,309.9681,144.0361,309.56,144,309.2522,143.957,309.2522,144.7446,299.5644,144.6485,289.8765,143.4037,280.1886,144.0785,270.5008,143.4861,260.8129,143.9737,251.1251,144.293,241.4372,144.4199,231.7494,143.3353,222.0615,144.4005,212.3736,144.0084,202.6858,143.4447,192.9979,143.5289,183.3101,144,173.6222,144.1006,173.6639,144.2234,173.3005,144.2878,172.913,144.2324,172.4758,144.7885,172.292,144.7322,171.8544,144.6925,171.7584,145.0184,171.5454,145.4308,171.5408,145.8681,171.5967,146.225,171.4582,146.5,171.1222" style="stroke:#181818;stroke-width:4.0;"/><text fill="#000000" font-family="Chalkduster" font-size="24" font-weight="bold" lengthAdjust="spacing" textLength="246" x="425" y="196.9631">Harvested Indices</text></g><!--class API--><g id="elem_API"><polygon fill="#F1F1F1" points="24,144.6022,24,144.8124,34,144.1879,44,144.7955,54,145.0019,64,143.8888,74,144.5245,84,144.1757,94,144.2187,104,144.5341,114,144.6022,113.9118,144.3893,114.4242,144.9192,114.6267,144.701,115.0354,144.9806,115.4693,145.321,115.7678,145.3344,115.7414,145.3235,115.9352,145.6967,116.0508,146.0375,116.2621,146.4179,116.4272,146.7792,116.5,147.1022,117.0857,147.1022,117.1711,157.1783,117.1793,167.2544,116.7546,177.3305,116.9636,187.4066,117.2022,197.4827,115.7788,207.5588,117.1785,217.6349,116.2035,227.7109,117.0338,237.787,116.005,247.8631,116.4315,257.9392,117.2416,268.0153,116.4513,278.0914,116.6053,288.1675,116.8386,298.2436,116.9162,308.3197,116.4961,318.3958,116.7872,328.4719,115.9276,338.548,116.7844,348.6241,117.0482,358.7001,116.5,368.7762,116.6369,368.8329,116.5423,369.208,116.0583,369.4217,115.8598,369.7537,115.7228,370.1112,115.7678,370.544,115.7603,370.5259,115.3891,370.6299,115.1476,371.0467,114.6848,370.9296,114.3098,371.0241,114,371.2762,114,371.5045,104,370.6094,94,370.7571,84,371.9252,74,371.7119,64,372.0107,54,370.9544,44,371.5954,34,371.8667,24,371.2762,23.9397,371.1308,23.6342,371.1003,23.309,371.0221,23.0225,371.0376,22.5853,370.6892,22.2322,370.544,22.3747,370.603,21.9152,370.1198,21.7308,369.7505,21.948,369.5476,21.4257,369.0383,21.5,368.7762,22.009,368.7762,21.7066,358.7001,21.2321,348.6241,21.1462,338.548,21.9588,328.4719,21.2007,318.3958,22.0919,308.3197,20.9473,298.2436,22.1174,288.1675,21.9843,278.0914,21.745,268.0153,21.5472,257.9392,22.2266,247.8631,22.1136,237.787,21.6693,227.7109,21.7682,217.6349,21.3697,207.5588,22.2165,197.4827,21.6549,187.4066,21.6726,177.3305,20.8916,167.2544,21.0948,157.1783,21.5,147.1022,21.6634,147.1699,21.7788,146.8035,21.7797,146.3896,21.8401,146.0005,22.0184,145.6601,22.2322,145.3344,22.1447,145.1231,22.6387,145.3157,23.0337,145.2693,23.36,145.0572,23.7351,144.9627,24,144.6022" style="stroke:#181818;stroke-width:0.5;"/><polygon fill="#B4A7E5" points="63.3108,163.2778,61.6984,165.481,59.7912,168.7079,57.0636,170.8826,54.1974,172.0718,51.912,172.175,48.9747,170.6878,46.2032,169.7161,44.0995,167.7434,42.9961,165.485,42.3417,163.6867,41.7006,161.3379,40.66,159.3167,41.4596,157.3432,42.1602,155.1814,44.7893,153.4717,46.639,151.2533,48.9284,150.5167,51.6501,149.8823,55.1404,150.2592,57.0521,151.1607,59.2747,151.5694,61.9772,154.3382,62.9193,157.2612,63.3286,159.2556,62.865,162.5421" style="stroke:#181818;stroke-width:1.0;"/><path d="M48.6777,156.8673 L48.6777,154.7091 L56.0571,154.7091 L56.0571,156.8673 L53.5918,156.8673 L53.5918,164.944 L56.0571,164.944 L56.0571,167.1022 L48.6777,167.1022 L48.6777,164.944 L51.1431,164.944 L51.1431,156.8673 Z " fill="#000000"/><text fill="#000000" font-family="Chalkduster" font-size="14" font-style="italic" lengthAdjust="spacing" textLength="28" x="69.75" y="165.5757">API</text><path d="M22.5,176.6022 L22.5,176.8825 L32.8333,176.0498 L43.1667,176.8599 L53.5,177.1351 L63.8333,175.651 L74.1667,176.4986 L84.5,176.0336 L94.8333,176.0909 L105.1667,176.5113 L115.5,176.6022 " fill="#F1F1F1" style="stroke:#181818;stroke-width:0.5;"/><text fill="#000000" font-family="Chalkduster" font-size="14" lengthAdjust="spacing" textLength="81" x="27.5" y="194.5094">newspaper</text><text fill="#000000" font-family="Chalkduster" font-size="14" lengthAdjust="spacing" textLength="59" x="27.5" y="212.3768">gazette</text><text fill="#000000" font-family="Chalkduster" font-size="14" lengthAdjust="spacing" textLength="39" x="27.5" y="230.2442">book</text><text fill="#000000" font-family="Chalkduster" font-size="14" lengthAdjust="spacing" textLength="54" x="27.5" y="248.1116">article</text><text fill="#000000" font-family="Chalkduster" font-size="14" lengthAdjust="spacing" textLength="56" x="27.5" y="265.979">picture</text><text fill="#000000" font-family="Chalkduster" font-size="14" lengthAdjust="spacing" textLength="46" x="27.5" y="283.8464">music</text><text fill="#000000" font-family="Chalkduster" font-size="14" lengthAdjust="spacing" textLength="33" x="27.5" y="301.7138">map</text><text fill="#000000" font-family="Chalkduster" font-size="14" lengthAdjust="spacing" textLength="83" x="27.5" y="319.5812">collection</text><text fill="#000000" font-family="Chalkduster" font-size="14" lengthAdjust="spacing" textLength="26" x="27.5" y="337.4486">list</text><text fill="#000000" font-family="Chalkduster" font-size="14" lengthAdjust="spacing" textLength="53" x="27.5" y="355.316">people</text><path d="M22.5,363.2762 L22.5,363.5565 L32.8333,362.7238 L43.1667,363.534 L53.5,363.8091 L63.8333,362.325 L74.1667,363.1726 L84.5,362.7076 L94.8333,362.7649 L105.1667,363.1854 L115.5,363.2762 " fill="#F1F1F1" style="stroke:#181818;stroke-width:0.5;"/></g><!--entity Newspapers and Gazettes--><g id="elem_Newspapers and Gazettes"><path d="M831.5,493.2722 L831.5,493.2722 L831.5356,493.3586 L833.0326,492.4418 L834.7382,492.0313 L836.3759,491.456 L837.7902,490.3384 L839.5137,489.9714 L839.5087,489.9372 L841.3259,489.5168 L843.1682,489.2686 L845.0278,489.1402 L846.8275,488.599 L848.7112,488.636 L848.7347,488.8809 L851.0703,488.1281 L853.4746,488.0905 L855.8872,488.1401 L858.2511,487.682 L860.6406,487.491 L860.6427,487.5212 L863.4627,487.2829 L866.2921,487.1824 L869.1169,487.0155 L871.9504,486.9753 L874.7556,486.5217 L874.7709,486.8196 L877.9219,486.6616 L881.0631,486.3115 L884.2187,486.2426 L887.3749,486.1869 L890.5098,485.7136 L890.4972,485.3933 L893.891,485.8826 L897.2434,485.3173 L900.6272,485.5537 L903.9787,484.9645 L907.3567,485.052 L907.3558,485.0216 L910.8454,485.2755 L914.3134,484.8184 L917.7941,484.7809 L921.2759,484.7786 L924.75,484.5222 L924.7539,484.7072 L931.598,484.3759 L938.4488,484.3608 L945.2888,483.8343 L952.1449,484.0705 L958.9902,483.7996 L958.9933,484.0432 L964.9665,483.9229 L970.9413,483.9236 L976.9091,483.3622 L982.8819,483.2128 L988.8594,483.4285 L988.8579,483.1523 L994.6874,483.371 L1000.5152,483.2786 L1006.3454,483.6376 L1012.1715,483.2258 L1018,483.2722 L1018,483.2722 L1017.9992,483.1197 L1023.8287,483.4049 L1029.6547,483.0383 L1035.4831,483.1352 L1041.314,483.6856 L1047.1406,483.4285 L1047.143,483.6221 L1053.1185,483.8291 L1059.0865,483.4339 L1065.0639,483.793 L1071.0392,483.9877 L1077.0098,483.7996 L1077.0053,483.5896 L1083.8569,483.9015 L1090.707,484.1446 L1097.56,484.5228 L1104.4019,484.3758 L1111.25,484.5222 L1111.2563,484.7277 L1114.7212,484.3822 L1118.1982,484.4333 L1121.6928,485.0638 L1125.1549,484.6275 L1128.6433,485.052 L1128.6522,485.278 L1132.0163,485.2761 L1135.3774,485.1977 L1138.7453,485.2919 L1142.1289,485.785 L1145.4902,485.7136 L1145.4834,485.5808 L1148.6545,486.1379 L1151.7793,485.7915 L1154.9568,486.4725 L1158.1046,486.5751 L1161.2444,486.5217 L1161.2518,486.6303 L1164.0688,486.7365 L1166.9125,487.2316 L1169.7321,487.3753 L1172.5415,487.3722 L1175.3594,487.491 L1175.3708,487.6096 L1177.7397,487.6623 L1180.1616,488.2659 L1182.5236,488.2465 L1184.9103,488.4833 L1187.2888,488.636 L1187.25,488.3684 L1189.1024,488.7248 L1191.0017,489.4036 L1192.8348,489.6263 L1194.6441,489.6855 L1196.4863,489.9714 L1196.4318,489.839 L1198.052,490.5416 L1199.5756,491.0098 L1201.3647,492.1223 L1203.0224,492.916 L1204.5,493.2722 L1204.9679,493.2722 L1205.1177,501.1982 L1204.3785,509.1241 L1204.5775,517.0501 L1204.1555,524.9761 L1204.5,532.902 L1204.5,532.902 L1204.5481,533.0188 L1202.939,533.6636 L1201.388,534.4494 L1199.6529,534.7881 L1198.0663,535.4874 L1196.4863,536.2028 L1196.5146,536.3979 L1194.6831,536.7194 L1192.7746,536.5116 L1190.9554,536.9188 L1189.1379,537.3368 L1187.2888,537.5383 L1187.2629,537.268 L1184.9179,537.9236 L1182.528,538.1104 L1180.1269,538.1807 L1177.7513,538.5172 L1175.3594,538.6833 L1175.3816,539.0064 L1172.5269,538.7384 L1169.723,539.2107 L1166.8991,539.3915 L1164.0709,539.51 L1161.2444,539.6525 L1161.2476,539.7151 L1158.0961,539.8645 L1154.9285,539.6987 L1151.7828,539.9595 L1148.6306,540.0942 L1145.4902,540.4606 L1145.4913,540.489 L1142.1224,540.6321 L1138.7543,540.7971 L1135.377,540.7284 L1132.0115,540.9599 L1128.6433,541.1223 L1128.6417,541.0689 L1125.1725,541.4845 L1121.6918,541.5237 L1118.2008,541.2244 L1114.7277,541.5137 L1111.25,541.652 L1111.2446,541.3956 L1104.4047,541.9247 L1097.5596,542.2115 L1090.711,542.3276 L1083.8537,542.0366 L1077.0098,542.3747 L1077.0123,542.5809 L1071.0318,542.1188 L1065.0632,542.6121 L1059.0866,542.4643 L1053.115,542.7146 L1047.1406,542.7458 L1047.1412,542.8526 L1041.3136,542.9869 L1035.4827,542.4883 L1029.6574,543.0509 L1023.8285,542.95 L1018,542.902 L1018,542.902 L1018.0008,543.06 L1012.1737,543.2031 L1006.3438,542.842 L1000.516,542.8862 L994.688,542.8719 L988.8594,542.7458 L988.8605,542.8334 L982.8855,542.6712 L976.9156,542.9132 L970.9345,542.2522 L964.9672,542.7001 L958.9902,542.3747 L958.9844,542.0974 L952.1371,541.9901 L945.2945,542.1034 L938.4464,541.9537 L931.5934,541.5776 L924.75,541.652 L924.7556,541.8358 L921.2728,541.5944 L917.8025,541.7629 L914.323,541.6305 L910.8293,541.0291 L907.3567,541.1223 L907.3497,540.9455 L903.9851,540.9326 L900.6241,541.0155 L897.2556,540.9043 L893.8844,540.7267 L890.5098,540.4606 L890.502,540.3089 L887.3734,540.5815 L884.2225,540.4187 L881.0562,539.9548 L877.901,539.708 L874.7556,539.6525 L874.7434,539.4746 L871.9261,539.3635 L869.1138,539.3258 L866.2845,539.0407 L863.4509,538.6919 L860.6406,538.6833 L860.6613,538.8989 L858.2352,538.2513 L855.8902,538.4475 L853.5011,538.1853 L851.1129,537.9318 L848.7112,537.5383 L848.7554,537.8429 L846.856,537.163 L845.013,536.8719 L843.2258,536.9652 L841.3151,536.2074 L839.5137,536.2028 L839.4741,536.1067 L837.9305,535.5901 L836.3198,534.9107 L834.6448,534.0751 L833.0955,533.5445 L831.5,532.902 L832.1619,532.902 L832.0764,524.9761 L830.97,517.0501 L831.5698,509.1241 L831.0432,501.1982 L831.5,493.2722 " fill="none" style="stroke:#181818;stroke-width:4.0;"/><path d="M831.5,493.2722 L831.5,493.2722 L831.5356,493.3586 L833.0326,493.7621 L834.7382,494.672 L836.3759,495.4169 L837.7902,495.6197 L839.5137,496.573 L839.5087,496.5388 L841.3259,496.6525 L843.1682,496.9385 L845.0278,497.3443 L846.8275,497.3373 L848.7112,497.9084 L848.7347,498.1534 L851.0703,497.8586 L853.4746,498.279 L855.8872,498.7866 L858.2511,498.7865 L860.6406,499.0535 L860.6427,499.0837 L863.4627,499.2331 L866.2921,499.5203 L869.1169,499.741 L871.9504,500.0885 L874.7556,500.0227 L874.7709,500.3206 L877.9219,500.4858 L881.0631,500.459 L884.2187,500.7133 L887.3749,500.9809 L890.5098,500.8308 L890.4972,500.5105 L893.891,501.2645 L897.2434,500.9638 L900.6272,501.4648 L903.9787,501.1403 L907.3567,501.4924 L907.3558,501.462 L910.8454,501.9278 L914.3134,501.6827 L917.7941,501.8571 L921.2759,502.0667 L924.75,502.0222 L924.7539,502.2072 L931.598,502.165 L938.4488,502.4389 L945.2888,502.2015 L952.1449,502.7267 L958.9902,502.7449 L958.9933,502.9885 L964.9665,503.0166 L970.9413,503.1657 L976.9091,502.7528 L982.8819,502.7519 L988.8594,503.116 L988.8579,502.8398 L994.6874,503.121 L1000.5152,503.0911 L1006.3454,503.5126 L1012.1715,503.1633 L1018,503.2722 L1018,503.2722 L1017.9992,503.1197 L1023.8287,503.3424 L1029.6547,502.9133 L1035.4831,502.9477 L1041.314,503.4356 L1047.1406,503.116 L1047.143,503.3096 L1053.1185,503.3682 L1059.0865,502.8245 L1065.0639,503.0352 L1071.0392,503.0815 L1077.0098,502.7449 L1077.0053,502.535 L1083.8569,502.5577 L1090.707,502.5118 L1097.56,502.6009 L1104.4019,502.1649 L1111.25,502.0222 L1111.2563,502.2277 L1114.7212,501.6702 L1118.1982,501.5094 L1121.6928,501.9281 L1125.1549,501.2799 L1128.6433,501.4924 L1128.6522,501.7185 L1132.0163,501.4519 L1135.3774,501.1088 L1138.7453,500.9383 L1142.1289,501.1669 L1145.4902,500.8308 L1145.4834,500.6979 L1148.6545,500.9319 L1151.7793,500.2622 L1154.9568,500.62 L1158.1046,500.3993 L1161.2444,500.0227 L1161.2518,500.1313 L1164.0688,499.8498 L1166.9125,499.9572 L1169.7321,499.7132 L1172.5415,499.3224 L1175.3594,499.0535 L1175.3708,499.1721 L1177.7397,498.7668 L1180.1616,498.9124 L1182.5236,498.435 L1184.9103,498.2138 L1187.2888,497.9084 L1187.25,497.6409 L1189.1024,497.4631 L1191.0017,497.6077 L1192.8348,497.2962 L1194.6441,496.8212 L1196.4863,496.573 L1196.4318,496.4406 L1198.052,495.8229 L1199.5756,494.9707 L1201.3647,494.763 L1203.0224,494.2363 L1204.5,493.2722 " fill="none" style="stroke:#181818;stroke-width:4.0;"/><text fill="#000000" font-family="Chalkduster" font-size="24" lengthAdjust="spacing" textLength="353" x="841.5" y="531.1131">Newspapers and Gazettes</text></g><!--entity Websites--><g id="elem_Websites"><path d="M666,493.2722 L666,493.2722 L666.0462,493.3534 L667.9402,491.9559 L670.105,491.0344 L672.1816,489.9578 L673.9681,488.3717 L676.1563,487.491 L676.1504,487.4569 L678.2064,486.9486 L680.2916,486.612 L682.3972,486.3947 L684.4327,485.7662 L686.5664,485.7136 L686.5909,485.9585 L688.9253,485.1966 L691.3311,485.1496 L693.7456,485.1898 L696.1095,484.7226 L698.5,484.5222 L698.5018,484.5525 L700.8859,484.3635 L703.2782,484.3123 L705.6666,484.1947 L708.0626,484.2039 L710.4336,483.7996 L710.4442,484.0976 L712.5264,484.027 L714.6017,483.7642 L716.687,483.7828 L718.7728,483.8146 L720.8438,483.4285 L720.8388,483.108 L722.8796,483.6987 L724.9042,483.2342 L726.9411,483.5719 L728.9654,483.0835 L731,483.2722 L731,483.2722 L730.9995,483.2418 L733.0363,483.633 L735.0622,483.3131 L737.0945,483.4128 L739.1273,483.5477 L741.1563,483.4285 L741.1628,483.6133 L743.2382,483.5009 L745.3249,483.7045 L747.3933,483.3969 L749.4889,483.8516 L751.5664,483.7996 L751.5811,484.0428 L753.9651,484.1413 L756.3563,484.3606 L758.7136,484.0188 L761.0958,484.0884 L763.5,484.5222 L763.4726,484.2474 L765.8841,484.7345 L768.2648,484.9119 L770.6902,485.5384 L773.0392,485.3981 L775.4336,485.7136 L775.4079,485.5633 L777.5327,486.1691 L779.5478,486.1324 L781.6409,486.5526 L783.8103,487.4198 L785.8438,487.491 L785.9395,487.6592 L788.0365,488.9309 L789.8355,489.6792 L792.0077,491.083 L794.0986,492.344 L796,493.2722 L795.5801,493.2722 L795.9148,501.1982 L796.112,509.1241 L796.5793,517.0501 L795.9963,524.9761 L796,532.902 L796,532.902 L796.1017,533.0807 L793.847,533.8444 L791.7886,534.953 L790.017,536.5653 L787.7174,537.2501 L785.8438,538.6833 L785.8818,538.9063 L783.7772,539.1293 L781.6596,539.2769 L779.5712,539.5947 L777.5499,540.3062 L775.4336,540.4606 L775.4204,540.3283 L773.073,540.9607 L770.6358,540.6928 L768.3007,541.4485 L765.9081,541.6279 L763.5,541.652 L763.5066,541.7607 L761.1145,541.8175 L758.7461,542.2635 L756.3563,542.3578 L753.9577,542.3053 L751.5664,542.3747 L751.5707,542.4938 L749.4823,542.3911 L747.4137,542.8414 L745.3228,542.6661 L743.241,542.7482 L741.1563,542.7458 L741.1521,542.4754 L739.1222,542.597 L737.0974,543.0442 L735.0654,543.0305 L733.031,542.8517 L731,542.902 L731,542.902 L730.9978,542.7589 L728.9673,542.7735 L726.9328,542.5346 L724.9091,542.9926 L722.8801,543.1057 L720.8438,542.7458 L720.8521,542.9796 L718.7727,542.9802 L716.6775,542.5366 L714.599,542.5619 L712.5095,542.2768 L710.4336,542.3747 L710.4412,542.5007 L708.0535,542.3396 L705.675,542.3307 L703.2673,541.8392 L700.8831,541.7369 L698.5,541.652 L698.5196,541.8482 L696.1383,541.6647 L693.7039,540.9488 L691.3313,540.8515 L688.9597,540.7649 L686.5664,540.4606 L686.5207,540.193 L684.5108,540.26 L682.4216,539.8627 L680.3128,539.3501 L678.2489,539.1011 L676.1563,538.6833 L676.3165,538.9647 L674.0562,537.4062 L672.163,536.4925 L670.1253,535.3249 L668.0567,534.103 L666,532.902 L666.1253,532.902 L666.1009,524.9761 L665.4452,517.0501 L665.6437,509.1241 L665.5897,501.1982 L666,493.2722 " fill="none" style="stroke:#181818;stroke-width:4.0;"/><path d="M666,493.2722 L666,493.2722 L666.0462,493.3534 L667.9402,494.2684 L670.105,495.6594 L672.1816,496.8953 L673.9681,497.6217 L676.1563,499.0535 L676.1504,499.0194 L678.2064,499.2221 L680.2916,499.5964 L682.3972,500.09 L684.4327,500.1724 L686.5664,500.8308 L686.5909,501.0757 L688.9253,500.7903 L691.3311,501.2199 L693.7456,501.7367 L696.1095,501.746 L698.5,502.0222 L698.5018,502.0525 L700.8859,502.1526 L703.2782,502.3905 L705.6666,502.5619 L708.0626,502.8602 L710.4336,502.7449 L710.4442,503.0429 L712.5264,503.1208 L714.6017,503.0064 L716.687,503.1734 L718.7728,503.3536 L720.8438,503.116 L720.8388,502.7955 L722.8796,503.4487 L724.9042,503.0467 L726.9411,503.4469 L728.9654,503.021 L731,503.2722 L731,503.2722 L730.9995,503.2418 L733.0363,503.5705 L735.0622,503.1881 L737.0945,503.2253 L739.1273,503.2977 L741.1563,503.116 L741.1628,503.3008 L743.2382,503.04 L745.3249,503.0951 L747.3933,502.6391 L749.4889,502.9454 L751.5664,502.7449 L751.5811,502.9881 L753.9651,502.7975 L756.3563,502.7278 L758.7136,502.097 L761.0958,501.8774 L763.5,502.0222 L763.4726,501.7474 L765.8841,501.7579 L768.2648,501.4587 L770.6902,501.6087 L773.0392,500.9918 L775.4336,500.8308 L775.4079,500.6805 L777.5327,500.5753 L779.5478,499.8277 L781.6409,499.537 L783.8103,499.6932 L785.8438,499.0535 L785.9395,499.2217 L788.0365,498.1809 L789.8355,496.6167 L792.0077,495.708 L794.0986,494.6565 L796,493.2722 " fill="none" style="stroke:#181818;stroke-width:4.0;"/><text fill="#000000" font-family="Chalkduster" font-size="24" lengthAdjust="spacing" textLength="110" x="676" y="531.1131">Websites</text></g><!--entity Trove Digital Libraries--><g id="elem_Trove Digital Libraries"><path d="M301.5,493.2722 L301.5,493.2722 L301.5395,493.3569 L302.8358,492.4452 L304.3637,492.0297 L305.8162,491.4527 L307.0205,490.3443 L308.5684,489.9714 L308.5638,489.9372 L312.2703,489.2874 L315.9998,488.8103 L319.7452,488.4531 L323.4356,487.6825 L327.2031,487.491 L327.2222,487.7363 L329.6714,487.0178 L332.1763,487.0156 L334.688,487.1008 L337.1601,486.6776 L339.6531,486.5217 L339.6548,486.552 L342.4314,486.3459 L345.216,486.2777 L347.9967,486.143 L350.7848,486.1351 L353.5488,485.7136 L353.5621,486.0116 L356.5342,485.8829 L359.4977,485.562 L362.4738,485.5225 L365.4504,485.4961 L368.4084,485.052 L368.3974,484.7317 L371.4872,485.2474 L374.5405,484.7084 L377.6216,484.9712 L380.6741,484.4083 L383.75,484.5222 L383.7493,484.4918 L389.7981,484.7072 L395.83,484.2115 L401.8718,484.1354 L407.9145,484.0945 L413.9512,483.7996 L413.9538,483.9845 L419.2203,483.7236 L424.4913,483.7788 L429.755,483.3225 L435.0295,483.6291 L440.2969,483.4285 L440.2984,483.6721 L445.4387,483.5948 L450.5798,483.6384 L455.7174,483.12 L460.8576,483.0136 L466,483.2722 L466,483.2722 L465.9983,482.996 L471.1405,483.2773 L476.2807,483.2474 L481.4237,483.6688 L486.562,483.3196 L491.7031,483.4285 L491.701,483.276 L496.9737,483.6041 L502.2372,483.2806 L507.5073,483.4204 L512.7837,484.0137 L518.0488,483.7996 L518.0535,483.9931 L524.0969,484.2704 L530.1259,483.9456 L536.1729,484.375 L542.216,484.64 L548.25,484.5222 L548.2428,484.3124 L551.3168,484.5856 L554.3886,484.7901 L557.4649,485.1296 L560.5232,484.9442 L563.5916,485.052 L563.6007,485.2574 L566.5525,484.9384 L569.522,485.0159 L572.5173,485.6726 L575.4651,485.263 L578.4512,485.7136 L578.4643,485.9394 L581.2357,485.9669 L584.0026,485.918 L586.7795,486.0415 L589.5796,486.5637 L592.3469,486.5217 L592.3366,486.3891 L594.8573,486.9778 L597.3078,486.6645 L599.8382,487.3768 L602.3236,487.5117 L604.7969,487.491 L604.8112,487.5989 L608.5266,488.0079 L612.2934,488.8033 L616.0137,489.2496 L619.7146,489.5499 L623.4316,489.9714 L623.4821,490.0794 L624.8208,490.5791 L626.3937,491.5803 L627.7018,492.0143 L629.1188,492.6815 L630.5,493.2722 L629.9592,493.2722 L630.1398,501.1982 L630.9718,509.1241 L630.882,517.0501 L630.4618,524.9761 L630.5,532.902 L630.5,532.902 L630.4394,532.7723 L629.0452,533.474 L627.5436,533.946 L626.337,535.0495 L624.9844,535.8405 L623.4316,536.2028 L623.4625,536.4347 L619.7454,537.0051 L615.9697,537.1348 L612.2559,537.7295 L608.5011,538.0164 L604.7969,538.6833 L604.8067,538.8092 L602.3154,538.9865 L599.8359,539.3158 L597.319,539.1631 L594.8323,539.3991 L592.3469,539.6525 L592.3584,539.8493 L589.5824,540.0659 L586.7754,539.7484 L584.0045,540.0514 L581.2342,540.3652 L578.4512,540.4606 L578.4391,540.1894 L575.4862,540.7499 L572.5124,540.8398 L569.5334,540.8129 L566.5663,541.0531 L563.5916,541.1223 L563.6027,541.4459 L560.5184,541.0892 L557.4598,541.4741 L554.391,541.567 L551.3201,541.5975 L548.25,541.652 L548.2515,541.7147 L542.211,541.847 L536.1629,541.6638 L530.125,541.9075 L524.0842,542.0251 L518.0488,542.3747 L518.0492,542.4031 L512.7802,542.4881 L507.5116,542.595 L502.2396,542.468 L496.9718,542.6416 L491.7031,542.7458 L491.7028,542.6924 L486.5641,543.0334 L481.423,542.9979 L476.2799,542.6238 L471.1404,542.8384 L466,542.902 L466,542.902 L465.9984,542.6455 L460.8602,542.999 L455.7204,543.11 L450.5796,543.0503 L445.4363,542.5835 L440.2969,542.7458 L440.2998,542.952 L435.0231,542.3415 L429.7598,542.6863 L424.4876,542.3901 L419.2209,542.4919 L413.9512,542.3747 L413.9537,542.4815 L407.916,542.4399 L401.863,541.7658 L395.8355,542.1524 L389.7921,541.8757 L383.75,541.652 L383.7555,541.8099 L380.6932,541.8782 L377.6135,541.4426 L374.5478,541.412 L371.48,541.323 L368.4084,541.1223 L368.4123,541.2098 L365.4365,540.9896 L362.4786,541.1732 L359.4806,540.4546 L356.5319,540.8439 L353.5488,540.4606 L353.5327,540.1838 L350.7557,540.0593 L347.9916,540.1551 L345.2121,539.9883 L342.4195,539.5955 L339.6531,539.6525 L339.6673,539.8359 L337.1668,539.5069 L334.6982,539.5868 L332.2061,539.3666 L329.6777,538.6785 L327.2031,538.6833 L327.1798,538.508 L323.4686,538.1303 L319.7701,537.8477 L316.0459,537.3725 L312.313,536.8316 L308.5684,536.2028 L308.5041,536.0651 L307.2744,535.7989 L305.8602,535.1377 L304.3185,534.2033 L302.8687,533.4659 L301.5,532.902 L301.1432,532.902 L301.3093,524.9761 L301.6221,517.0501 L301.4392,509.1241 L301.1286,501.1982 L301.5,493.2722 " fill="none" style="stroke:#181818;stroke-width:4.0;"/><path d="M301.5,493.2722 L301.5,493.2722 L301.5395,493.3569 L302.8358,493.7655 L304.3637,494.6704 L305.8162,495.4136 L307.0205,495.6256 L308.5684,496.573 L308.5638,496.5388 L312.2703,496.8812 L315.9998,497.3962 L319.7452,498.0312 L323.4356,498.2528 L327.2031,499.0535 L327.2222,499.2988 L329.6714,498.968 L332.1763,499.3535 L334.688,499.8264 L337.1601,499.7908 L339.6531,500.0227 L339.6548,500.053 L342.4314,500.1701 L345.216,500.4252 L347.9967,500.6137 L350.7848,500.9291 L353.5488,500.8308 L353.5621,501.1288 L356.5342,501.2647 L359.4977,501.2085 L362.4738,501.4336 L365.4504,501.6719 L368.4084,501.4924 L368.3974,501.1721 L371.4872,501.8998 L374.5405,501.5726 L377.6216,502.0474 L380.6741,501.6964 L383.75,502.0222 L383.7493,501.9918 L389.7981,502.4963 L395.83,502.2896 L401.8718,502.5026 L407.9145,502.7508 L413.9512,502.7449 L413.9538,502.9298 L419.2203,502.8174 L424.4913,503.0209 L429.755,502.7131 L435.0295,503.1681 L440.2969,503.116 L440.2984,503.3596 L445.4387,503.3448 L450.5798,503.4509 L455.7174,502.995 L460.8576,502.9511 L466,503.2722 L466,503.2722 L465.9983,502.996 L471.1405,503.2148 L476.2807,503.1224 L481.4237,503.4813 L486.562,503.0696 L491.7031,503.116 L491.701,502.9635 L496.9737,503.1432 L502.2372,502.6712 L507.5073,502.6626 L512.7837,503.1075 L518.0488,502.7449 L518.0535,502.9384 L524.0969,502.9267 L530.1259,502.3128 L536.1729,502.4531 L542.216,502.4291 L548.25,502.0222 L548.2428,501.8124 L551.3168,501.8737 L554.3886,501.8663 L557.4649,501.9938 L560.5232,501.5965 L563.5916,501.4924 L563.6007,501.6978 L566.5525,501.1142 L569.522,500.9271 L572.5173,501.3191 L575.4651,500.6448 L578.4512,500.8308 L578.4643,501.0566 L581.2357,500.7609 L584.0026,500.3887 L586.7795,500.189 L589.5796,500.3879 L592.3469,500.0227 L592.3366,499.8901 L594.8573,500.0911 L597.3078,499.3901 L599.8382,499.7147 L602.3236,499.4619 L604.7969,499.0535 L604.8112,499.1614 L608.5266,498.5782 L612.2934,498.3814 L616.0137,497.8355 L619.7146,497.1437 L623.4316,496.573 L623.4821,496.681 L624.8208,495.8604 L626.3937,495.5412 L627.7018,494.6549 L629.1188,494.0019 L630.5,493.2722 " fill="none" style="stroke:#181818;stroke-width:4.0;"/><text fill="#000000" font-family="Chalkduster" font-size="24" lengthAdjust="spacing" textLength="309" x="311.5" y="531.1131">Trove Digital Libraries</text></g><!--entity Annotations--><g id="elem_Annotations"><path d="M81,493.2722 L81,493.2722 L81.0345,493.359 L83.8382,491.9449 L86.8443,491.0395 L89.7844,489.9685 L92.5078,488.3526 L95.5313,487.491 L95.5272,487.4567 L98.4877,486.9473 L101.4689,486.6108 L104.4644,486.3945 L107.4105,485.764 L110.4258,485.7136 L110.4429,485.9591 L113.8211,485.1959 L117.2494,485.1494 L120.6837,485.1903 L124.0825,484.7225 L127.5,484.5222 L127.5013,484.5525 L130.9142,484.3635 L134.333,484.3124 L137.749,484.1948 L141.1704,484.2042 L144.5742,483.7996 L144.5816,484.0977 L147.5606,484.0271 L150.5348,483.7642 L153.5161,483.7829 L156.4976,483.8147 L159.4688,483.4285 L159.4653,483.108 L162.3782,483.6988 L165.2798,483.2342 L168.1901,483.5719 L171.0914,483.0835 L174,483.2722 L174,483.2722 L173.9997,483.2418 L176.9098,483.633 L179.8123,483.3131 L182.7193,483.4128 L185.6266,483.5477 L188.5313,483.4285 L188.5359,483.6134 L191.5101,483.5009 L194.4922,483.7045 L197.4616,483.3968 L200.45,483.8517 L203.4258,483.7996 L203.4361,484.043 L206.849,484.1415 L210.267,484.3608 L213.6612,484.0186 L217.0729,484.0881 L220.5,484.5222 L220.4808,484.2467 L223.913,484.7344 L227.3236,484.9116 L230.7656,485.5392 L234.154,485.3979 L237.5742,485.7136 L237.5562,485.5622 L240.5651,486.1698 L243.4969,486.1303 L246.4836,486.5509 L249.524,487.4219 L252.4688,487.491 L252.5403,487.6709 L255.4957,488.9505 L258.2284,489.6706 L261.2399,491.0915 L264.1908,492.3598 L267,493.2722 L266.5801,493.2722 L266.9148,501.1982 L267.112,509.1241 L267.5793,517.0501 L266.9963,524.9761 L267,532.902 L267,532.902 L267.076,533.0931 L264.0028,533.8296 L261.0762,534.9349 L258.364,536.5788 L255.2572,537.231 L252.4688,538.6833 L252.4956,538.9079 L249.5007,539.13 L246.4968,539.276 L243.5134,539.5936 L240.5773,540.3076 L237.5742,540.4606 L237.565,540.3279 L234.1777,540.9613 L230.7274,540.6921 L227.3488,541.4492 L223.9298,541.6285 L220.5,541.652 L220.5046,541.7608 L217.086,541.8175 L213.684,542.2638 L210.267,542.3581 L206.8438,542.3053 L203.4258,542.3747 L203.4288,542.4939 L200.4454,542.391 L197.4759,542.8415 L194.4908,542.6662 L191.5121,542.7483 L188.5313,542.7458 L188.5283,542.4754 L185.6231,542.597 L182.7213,543.0442 L179.8146,543.0305 L176.906,542.8517 L174,542.902 L174,542.902 L173.9985,542.7589 L171.0927,542.7735 L168.1842,542.5346 L165.2832,542.9926 L162.3785,543.1057 L159.4688,542.7458 L159.4746,542.9797 L156.4975,542.9803 L153.5094,542.5366 L150.533,542.5619 L147.5488,542.2767 L144.5742,542.3747 L144.5796,542.5008 L141.164,542.3397 L137.7549,542.3309 L134.3254,541.8391 L130.9123,541.7369 L127.5,541.652 L127.5137,541.8487 L124.1027,541.6653 L120.6545,540.9482 L117.2495,540.8512 L113.8452,540.7651 L110.4258,540.4606 L110.3936,540.1911 L107.4655,540.2611 L104.4816,539.8636 L101.4838,539.3498 L98.5176,539.1015 L95.5313,538.6833 L95.651,538.9842 L92.5736,537.3978 L89.7705,536.5009 L86.8594,535.3325 L83.9253,534.1061 L81,532.902 L81.1253,532.902 L81.1009,524.9761 L80.4452,517.0501 L80.6437,509.1241 L80.5897,501.1982 L81,493.2722 " fill="none" style="stroke:#181818;stroke-width:4.0;"/><path d="M81,493.2722 L81,493.2722 L81.0345,493.359 L83.8382,494.2574 L86.8443,495.6645 L89.7844,496.906 L92.5078,497.6026 L95.5313,499.0535 L95.5272,499.0192 L98.4877,499.2207 L101.4689,499.5952 L104.4644,500.0898 L107.4105,500.1702 L110.4258,500.8308 L110.4429,501.0763 L113.8211,500.7896 L117.2494,501.2197 L120.6837,501.7372 L124.0825,501.7459 L127.5,502.0222 L127.5013,502.0525 L130.9142,502.1526 L134.333,502.3905 L137.749,502.562 L141.1704,502.8604 L144.5742,502.7449 L144.5816,503.043 L147.5606,503.1209 L150.5348,503.0064 L153.5161,503.1735 L156.4976,503.3537 L159.4688,503.116 L159.4653,502.7955 L162.3782,503.4488 L165.2798,503.0467 L168.1901,503.4469 L171.0914,503.021 L174,503.2722 L174,503.2722 L173.9997,503.2418 L176.9098,503.5705 L179.8123,503.1881 L182.7193,503.2253 L185.6266,503.2977 L188.5313,503.116 L188.5359,503.3009 L191.5101,503.04 L194.4922,503.0951 L197.4616,502.639 L200.45,502.9454 L203.4258,502.7449 L203.4361,502.9883 L206.849,502.7977 L210.267,502.728 L213.6612,502.0968 L217.0729,501.8771 L220.5,502.0222 L220.4808,501.7467 L223.913,501.7578 L227.3236,501.4585 L230.7656,501.6095 L234.154,500.9916 L237.5742,500.8308 L237.5562,500.6794 L240.5651,500.5761 L243.4969,499.8256 L246.4836,499.5353 L249.524,499.6953 L252.4688,499.0535 L252.5403,499.2334 L255.4957,498.2005 L258.2284,496.6081 L261.2399,495.7165 L264.1908,494.6723 L267,493.2722 " fill="none" style="stroke:#181818;stroke-width:4.0;"/><text fill="#000000" font-family="Chalkduster" font-size="24" lengthAdjust="spacing" textLength="166" x="91" y="531.1131">Annotations</text></g><!--entity Bibliographic Database--><g id="elem_Bibliographic Database"><path d="M600,238.1222 L600,238.1222 L600.0396,238.2068 L601.3313,237.2953 L602.8552,236.8797 L604.3035,236.3026 L605.503,235.1945 L607.0469,234.8214 L607.0423,234.7872 L610.7374,234.1375 L614.4556,233.6603 L618.1897,233.3031 L621.8687,232.5325 L625.625,232.341 L625.6442,232.5863 L628.0856,231.8678 L630.583,231.8656 L633.0872,231.9508 L635.5517,231.5276 L638.0371,231.3717 L638.0389,231.402 L640.807,231.1959 L643.5831,231.1277 L646.3554,230.993 L649.1351,230.9851 L651.8906,230.5636 L651.9039,230.8616 L654.867,230.7329 L657.8215,230.412 L660.7885,230.3725 L663.7561,230.3461 L666.7051,229.902 L666.694,229.5817 L669.7745,230.0974 L672.8185,229.5584 L675.8902,229.8212 L678.9334,229.2583 L682,229.3722 L681.9993,229.3418 L688.0298,229.5572 L694.0432,229.0615 L700.0667,228.9854 L706.0911,228.9445 L712.1094,228.6496 L712.112,228.8345 L717.3625,228.5736 L722.6174,228.6288 L727.8652,228.1725 L733.1237,228.4791 L738.375,228.2785 L738.3765,228.5221 L743.5012,228.4448 L748.6267,228.4884 L753.7487,227.97 L758.8732,227.8636 L764,228.1222 L764,228.1222 L763.9983,227.846 L769.1248,228.1273 L774.2495,228.0974 L779.3768,228.5188 L784.4995,228.1696 L789.625,228.2785 L789.6228,228.126 L794.8796,228.4541 L800.1271,228.1306 L805.3811,228.2704 L810.6416,228.8637 L815.8906,228.6496 L815.8953,228.8431 L821.9203,229.1204 L827.9309,228.7956 L833.9597,229.225 L839.9844,229.49 L846,229.3722 L845.9927,229.1624 L849.0575,229.4356 L852.1199,229.6401 L855.187,229.9796 L858.2359,229.7942 L861.2949,229.902 L861.3041,230.1074 L864.2468,229.7884 L867.2073,229.8659 L870.1936,230.5226 L873.1323,230.113 L876.1094,230.5636 L876.1225,230.7894 L878.8854,230.8169 L881.6438,230.768 L884.4123,230.8915 L887.2041,231.4136 L889.9629,231.3717 L889.9525,231.2391 L892.4658,231.8278 L894.9086,231.5145 L897.4315,232.2268 L899.9093,232.3617 L902.375,232.341 L902.3894,232.4489 L906.0934,232.8579 L909.849,233.6532 L913.558,234.0995 L917.2475,234.3999 L920.9531,234.8214 L921.0037,234.9294 L922.3379,235.4292 L923.9069,236.4301 L925.2104,236.8642 L926.6232,237.5315 L928,238.1222 L927.4592,238.1222 L927.6398,246.0482 L928.4718,253.9741 L928.382,261.9001 L927.9618,269.8261 L928,277.752 L928,277.752 L927.9393,277.6224 L926.5494,278.3241 L925.0519,278.7962 L923.8501,279.8994 L922.5019,280.6903 L920.9531,281.0528 L920.9841,281.2847 L917.2784,281.8551 L913.5138,281.9848 L909.8114,282.5795 L906.0678,282.8665 L902.375,283.5333 L902.3848,283.6592 L899.9011,283.8365 L897.4293,284.1658 L894.9198,284.0131 L892.4407,284.2491 L889.9629,284.5025 L889.9744,284.6993 L887.2069,284.9159 L884.4082,284.5984 L881.6458,284.9014 L878.8839,285.2152 L876.1094,285.3106 L876.0973,285.0394 L873.1535,285.5999 L870.1887,285.6898 L867.2187,285.6629 L864.2606,285.9031 L861.2949,285.9723 L861.3061,286.2959 L858.2311,285.9392 L855.1818,286.3241 L852.1224,286.417 L849.0608,286.4475 L846,286.502 L846.0015,286.5647 L839.9793,286.697 L833.9496,286.5138 L827.9301,286.7575 L821.9076,286.8751 L815.8906,287.2247 L815.891,287.2531 L810.6381,287.3381 L805.3854,287.445 L800.1294,287.318 L794.8777,287.4916 L789.625,287.5958 L789.6247,287.5424 L784.5016,287.8834 L779.3762,287.8479 L774.2487,287.4738 L769.1248,287.6884 L764,287.752 L764,287.752 L763.9984,287.4955 L758.8758,287.849 L753.7516,287.96 L748.6265,287.9003 L743.4988,287.4335 L738.375,287.5958 L738.3779,287.802 L733.1172,287.1915 L727.87,287.5363 L722.6137,287.2401 L717.3631,287.3419 L712.1094,287.2247 L712.1119,287.3315 L706.0925,287.2899 L700.0579,286.6158 L694.0488,287.0024 L688.0238,286.7257 L682,286.502 L682.0055,286.6599 L678.9525,286.7282 L675.8821,286.2926 L672.8257,286.262 L669.7673,286.173 L666.7051,285.9723 L666.709,286.0598 L663.7422,285.8396 L660.7934,286.0232 L657.8043,285.3046 L654.8647,285.6939 L651.8906,285.3106 L651.8745,285.0338 L649.1059,284.9093 L646.3503,285.0051 L643.5792,284.8383 L640.7951,284.4455 L638.0371,284.5025 L638.0514,284.6858 L635.5585,284.3569 L633.0974,284.4368 L630.6129,284.2166 L628.0919,283.5285 L625.625,283.5333 L625.6016,283.358 L621.9018,282.9803 L618.2147,282.6977 L614.5018,282.2225 L610.7802,281.6816 L607.0469,281.0528 L606.9824,280.9152 L605.7575,280.6488 L604.3476,279.9876 L602.8098,279.0533 L601.3643,278.316 L600,277.752 L599.6432,277.752 L599.8093,269.8261 L600.1221,261.9001 L599.9392,253.9741 L599.6286,246.0482 L600,238.1222 " fill="none" style="stroke:#181818;stroke-width:4.0;"/><path d="M600,238.1222 L600,238.1222 L600.0396,238.2068 L601.3313,238.6156 L602.8552,239.5203 L604.3035,240.2635 L605.503,240.4757 L607.0469,241.423 L607.0423,241.3888 L610.7374,241.7312 L614.4556,242.2462 L618.1897,242.8812 L621.8687,243.1028 L625.625,243.9035 L625.6442,244.1488 L628.0856,243.818 L630.583,244.2035 L633.0872,244.6764 L635.5517,244.6408 L638.0371,244.8727 L638.0389,244.903 L640.807,245.0201 L643.5831,245.2752 L646.3554,245.4637 L649.1351,245.779 L651.8906,245.6808 L651.9039,245.9788 L654.867,246.1147 L657.8215,246.0585 L660.7885,246.2836 L663.7561,246.5219 L666.7051,246.3424 L666.694,246.0221 L669.7745,246.7498 L672.8185,246.4226 L675.8902,246.8974 L678.9334,246.5464 L682,246.8722 L681.9993,246.8418 L688.0298,247.3462 L694.0432,247.1396 L700.0667,247.3526 L706.0911,247.6008 L712.1094,247.5949 L712.112,247.7798 L717.3625,247.6674 L722.6174,247.8709 L727.8652,247.5631 L733.1237,248.0181 L738.375,247.966 L738.3765,248.2096 L743.5012,248.1948 L748.6267,248.3009 L753.7487,247.845 L758.8732,247.8011 L764,248.1222 L764,248.1222 L763.9983,247.846 L769.1248,248.0648 L774.2495,247.9724 L779.3768,248.3313 L784.4995,247.9196 L789.625,247.966 L789.6228,247.8135 L794.8796,247.9932 L800.1271,247.5212 L805.3811,247.5126 L810.6416,247.9575 L815.8906,247.5949 L815.8953,247.7884 L821.9203,247.7767 L827.9309,247.1628 L833.9597,247.3031 L839.9844,247.2791 L846,246.8722 L845.9927,246.6624 L849.0575,246.7237 L852.1199,246.7163 L855.187,246.8438 L858.2359,246.4465 L861.2949,246.3424 L861.3041,246.5478 L864.2468,245.9642 L867.2073,245.7771 L870.1936,246.1691 L873.1323,245.4948 L876.1094,245.6808 L876.1225,245.9066 L878.8854,245.6109 L881.6438,245.2387 L884.4123,245.039 L887.2041,245.2379 L889.9629,244.8727 L889.9525,244.7401 L892.4658,244.9411 L894.9086,244.2401 L897.4315,244.5647 L899.9093,244.3119 L902.375,243.9035 L902.3894,244.0114 L906.0934,243.4282 L909.849,243.2314 L913.558,242.6855 L917.2475,241.9936 L920.9531,241.423 L921.0037,241.5309 L922.3379,240.7104 L923.9069,240.391 L925.2104,239.5049 L926.6232,238.8518 L928,238.1222 " fill="none" style="stroke:#181818;stroke-width:4.0;"/><text fill="#000000" font-family="Chalkduster" font-size="24" lengthAdjust="spacing" textLength="308" x="610" y="275.9631">Bibliographic Database</text></g><!--entity People and Organizations--><g id="elem_People and Organizations"><path d="M187,238.1222 L187,238.1222 L187.0352,238.2088 L188.5549,237.2915 L190.2808,236.8815 L191.9395,236.3063 L193.3775,235.1879 L195.1211,234.8214 L195.1162,234.7872 L196.9584,234.3667 L198.8252,234.1185 L200.7093,233.9902 L202.5342,233.4489 L204.4419,233.486 L204.4651,233.7309 L206.8334,232.9781 L209.2693,232.9405 L211.7136,232.9901 L214.1098,232.532 L216.5313,232.341 L216.5333,232.3712 L219.3911,232.1329 L222.2583,232.0324 L225.121,231.8655 L227.9922,231.8253 L230.8354,231.3717 L230.8505,231.6696 L234.0438,231.5116 L237.2273,231.1615 L240.4251,231.0926 L243.6235,231.0369 L246.8008,230.5636 L246.7884,230.2433 L250.227,230.7326 L253.6248,230.1673 L257.0536,230.4037 L260.4505,229.8145 L263.8735,229.902 L263.8726,229.8716 L267.4087,230.1255 L270.9235,229.6684 L274.4508,229.6309 L277.9792,229.6286 L281.5,229.3722 L281.5039,229.5572 L288.4398,229.2259 L295.3823,229.2108 L302.3142,228.6843 L309.262,228.9205 L316.1992,228.6496 L316.2022,228.8932 L322.2555,228.7729 L328.3104,228.7736 L334.3583,228.2122 L340.4113,228.0628 L346.4688,228.2785 L346.4673,228.0023 L352.3749,228.221 L358.2808,228.1286 L364.1891,228.4876 L370.0933,228.0758 L376,228.1222 L376,228.1222 L375.9992,227.9697 L381.9068,228.2549 L387.8109,227.8883 L393.7175,227.9852 L399.6265,228.5356 L405.5313,228.2785 L405.5336,228.4721 L411.5892,228.6791 L417.6373,228.2839 L423.6947,228.643 L429.7501,228.8377 L435.8008,228.6496 L435.7964,228.4396 L442.7397,228.7515 L449.6816,228.9946 L456.6263,229.3728 L463.5601,229.2258 L470.5,229.3722 L470.5062,229.5777 L474.0179,229.2322 L477.5415,229.2833 L481.0826,229.9138 L484.5916,229.4775 L488.1265,229.902 L488.1352,230.128 L491.5446,230.1261 L494.951,230.0477 L498.364,230.1419 L501.7926,230.635 L505.1992,230.5636 L505.1925,230.4308 L508.4056,230.988 L511.5729,230.6415 L514.7923,231.3225 L517.9824,231.4251 L521.1646,231.3717 L521.1719,231.4803 L524.0268,231.5865 L526.9081,232.0816 L529.7655,232.2253 L532.613,232.2222 L535.4688,232.341 L535.48,232.4596 L537.8812,232.5123 L540.3345,233.116 L542.7289,233.0965 L545.1475,233.3333 L547.5581,233.486 L547.5198,233.2183 L549.3967,233.5748 L551.3199,234.2537 L553.1777,234.4763 L555.012,234.5355 L556.8789,234.8214 L556.825,234.6888 L558.4665,235.3914 L560.0125,235.8592 L561.821,236.9727 L563.4995,237.7666 L565,238.1222 L565.4679,238.1222 L565.6177,246.0482 L564.8785,253.9741 L565.0775,261.9001 L564.6555,269.8261 L565,277.752 L565,277.752 L565.0475,277.869 L563.4171,278.5138 L561.844,279.2998 L560.0889,279.638 L558.4806,280.3373 L556.8789,281.0528 L556.9069,281.2479 L555.0505,281.5695 L553.1183,281.3615 L551.2742,281.7688 L549.4317,282.1869 L547.5581,282.3883 L547.5325,282.118 L545.155,282.7736 L542.7332,282.9604 L540.3003,283.0307 L537.8926,283.3672 L535.4688,283.5333 L535.4906,283.8564 L532.5985,283.5884 L529.7565,284.0607 L526.8948,284.2415 L524.0289,284.36 L521.1646,284.5025 L521.1677,284.5651 L517.974,284.7145 L514.7644,284.5487 L511.5763,284.8095 L508.3819,284.9442 L505.1992,285.3106 L505.2003,285.339 L501.7862,285.4821 L498.3729,285.6471 L494.9506,285.5784 L491.5399,285.8099 L488.1265,285.9723 L488.1249,285.9189 L484.6089,286.3345 L481.0816,286.3737 L477.5441,286.0744 L474.0243,286.3637 L470.5,286.502 L470.4947,286.2456 L463.5628,286.7747 L456.6259,287.0615 L449.6855,287.1776 L442.7366,286.8866 L435.8008,287.2247 L435.8033,287.4309 L429.7428,286.9688 L423.6941,287.4621 L417.6374,287.3143 L411.5857,287.5646 L405.5313,287.5958 L405.5318,287.7026 L399.6261,287.8369 L393.7171,287.3383 L387.8136,287.9009 L381.9067,287.8 L376,287.752 L376,287.752 L376.0008,287.91 L370.0955,288.0531 L364.1875,287.692 L358.2817,287.7362 L352.3755,287.7219 L346.4688,287.5958 L346.4698,287.6834 L340.4148,287.5212 L334.3648,287.7632 L328.3037,287.1022 L322.2562,287.5501 L316.1992,287.2247 L316.1934,286.9474 L309.2544,286.8401 L302.3199,286.9534 L295.3799,286.8037 L288.4353,286.4276 L281.5,286.502 L281.5055,286.6858 L277.9762,286.4444 L274.4591,286.6129 L270.933,286.4805 L267.3928,285.8791 L263.8735,285.9723 L263.8667,285.7955 L260.4568,285.7826 L257.0506,285.8655 L253.6368,285.7543 L250.2205,285.5767 L246.8008,285.3106 L246.7931,285.1589 L243.622,285.4315 L240.4289,285.2687 L237.2205,284.8048 L234.0231,284.558 L230.8354,284.5025 L230.8234,284.3245 L227.9682,284.2135 L225.1179,284.1758 L222.2509,283.8907 L219.3795,283.5419 L216.5313,283.5333 L216.5517,283.7489 L214.0941,283.1012 L211.7166,283.2976 L209.2955,283.0353 L206.8753,282.7818 L204.4419,282.3883 L204.4855,282.6929 L202.5622,282.013 L200.6946,281.7218 L198.8821,281.8153 L196.9476,281.0573 L195.1211,281.0528 L195.0819,280.9565 L193.5162,280.4402 L191.8842,279.7608 L190.1885,278.9248 L188.617,278.3945 L187,277.752 L187.6619,277.752 L187.5764,269.8261 L186.47,261.9001 L187.0698,253.9741 L186.5432,246.0482 L187,238.1222 " fill="none" style="stroke:#181818;stroke-width:4.0;"/><path d="M187,238.1222 L187,238.1222 L187.0352,238.2088 L188.5549,238.6118 L190.2808,239.5221 L191.9395,240.2672 L193.3775,240.4691 L195.1211,241.423 L195.1162,241.3888 L196.9584,241.5024 L198.8252,241.7885 L200.7093,242.1943 L202.5342,242.1872 L204.4419,242.7584 L204.4651,243.0034 L206.8334,242.7086 L209.2693,243.1289 L211.7136,243.6366 L214.1098,243.6365 L216.5313,243.9035 L216.5333,243.9337 L219.3911,244.0831 L222.2583,244.3703 L225.121,244.591 L227.9922,244.9386 L230.8354,244.8727 L230.8505,245.1706 L234.0438,245.3358 L237.2273,245.309 L240.4251,245.5633 L243.6235,245.8309 L246.8008,245.6808 L246.7884,245.3605 L250.227,246.1145 L253.6248,245.8138 L257.0536,246.3148 L260.4505,245.9903 L263.8735,246.3424 L263.8726,246.312 L267.4087,246.7778 L270.9235,246.5327 L274.4508,246.7071 L277.9792,246.9167 L281.5,246.8722 L281.5039,247.0572 L288.4398,247.015 L295.3823,247.2889 L302.3142,247.0515 L309.262,247.5767 L316.1992,247.5949 L316.2022,247.8385 L322.2555,247.8666 L328.3104,248.0157 L334.3583,247.6028 L340.4113,247.6019 L346.4688,247.966 L346.4673,247.6898 L352.3749,247.971 L358.2808,247.9411 L364.1891,248.3626 L370.0933,248.0133 L376,248.1222 L376,248.1222 L375.9992,247.9697 L381.9068,248.1924 L387.8109,247.7633 L393.7175,247.7977 L399.6265,248.2856 L405.5313,247.966 L405.5336,248.1596 L411.5892,248.2182 L417.6373,247.6745 L423.6947,247.8852 L429.7501,247.9315 L435.8008,247.5949 L435.7964,247.385 L442.7397,247.4077 L449.6816,247.3618 L456.6263,247.4509 L463.5601,247.0149 L470.5,246.8722 L470.5062,247.0777 L474.0179,246.5202 L477.5415,246.3594 L481.0826,246.7781 L484.5916,246.1299 L488.1265,246.3424 L488.1352,246.5685 L491.5446,246.3019 L494.951,245.9588 L498.364,245.7883 L501.7926,246.0169 L505.1992,245.6808 L505.1925,245.5479 L508.4056,245.7819 L511.5729,245.1122 L514.7923,245.47 L517.9824,245.2493 L521.1646,244.8727 L521.1719,244.9813 L524.0268,244.6998 L526.9081,244.8072 L529.7655,244.5632 L532.613,244.1724 L535.4688,243.9035 L535.48,244.0221 L537.8812,243.6168 L540.3345,243.7625 L542.7289,243.285 L545.1475,243.0638 L547.5581,242.7584 L547.5198,242.4908 L549.3967,242.3131 L551.3199,242.4578 L553.1777,242.1462 L555.012,241.6712 L556.8789,241.423 L556.825,241.2903 L558.4665,240.6727 L560.0125,239.8202 L561.821,239.6133 L563.4995,239.0869 L565,238.1222 " fill="none" style="stroke:#181818;stroke-width:4.0;"/><text fill="#000000" font-family="Chalkduster" font-size="24" lengthAdjust="spacing" textLength="358" x="197" y="275.9631">People and Organizations</text></g><!--link Indices to repos--><!--SRC=[RL1BImD13BxFhuXxqaFrBgLG4LGGBI9u40_PcRWDJYVBJDhweF_TJBkb5SnX9kJnFNB2oSTb83Y_2AWuYjYEYdv5Eby4vvGrqYKyPraHOFPpLlAwp0HbBcjE7MJgfR1A_e9L0Kw1FXt6AEi5VrhVgVIW0gseoW82PzjdISvLjXOBGRD5Rm1-dEEabD_H4qndTrO0IBGkFVQKBU_mcrJ9ibRampxCoZxMGizRMPOjbeLz_R6trqkC0oD0vA9rbgItfOshMZ1rqJGyt4-XCnavKR0bav4KJf_svfZAMGFZyS7jP09OTkwhy8ERXxtW0fW2tEmqbwPEROxcNgWrf5q3BFuqTmU_veuL8znpcx5g-7Tscf8eLejxaespE39tYtb5HStPNGhiAuvf7t9REM1TSHjPkepzd3rS3_K6ZaPcs-jjlJtc3XD_3zokKhizwYZ8EhtEEGHARwF9S2ddVW40]--></g></svg>