<?xml version="1.0" encoding="us-ascii" standalone="no"?><svg xmlns="http://www.w3.org/2000/svg" xmlns:xlink="http://www.w3.org/1999/xlink" contentStyleType="text/css" height="1421px" preserveAspectRatio="none" style="width:1588px;height:1421px;background:#FFFFFF;" version="1.1" viewBox="0 0 1588 1421" width="1588px" zoomAndPan="magnify"><defs/><g><text fill="#000000" font-family="Chalkduster" font-size="42" font-weight="bold" lengthAdjust="spacing" textLength="1396" x="89" y="51.7215">Initial deployment of IAW and IA as fixed-term services</text><!--cluster tdg--><g id="cluster_tdg"><polygon fill="#FFFF00" points="688.5,83.8912,688.5,84.1013,698.5,83.4768,708.5,84.0844,718.5,84.2908,728.5,83.1778,738.5,83.8134,748.5,83.4647,758.5,83.5077,768.5,83.823,778.5,83.1998,788.5,84.4448,798.5,83.2609,808.5,83.6934,818.5,84.3231,828.5,83.8054,838.5,83.9594,848.5,83.8592,858.5,84.0697,868.5,84.1303,878.5,84.4769,888.5,84.5622,898.5,84.5704,908.5,84.1458,918.5,84.3547,928.5,84.5934,938.5,83.17,948.5,84.5697,958.5,83.5947,968.5,84.425,978.5,83.3961,988.5,83.8227,998.5,84.6328,1008.5,83.8424,1018.5,83.9965,1028.5,84.2298,1038.5,84.3074,1048.5,83.8873,1058.5,84.1784,1068.5,83.8912,1068.427,83.7149,1068.8898,84.1252,1069.277,84.3529,1069.6174,84.4674,1069.9924,84.6657,1070.2678,84.6234,1070.119,84.5618,1070.2134,84.8938,1070.3693,85.2512,1070.689,85.6765,1070.793,86.0125,1071,86.3912,1071.6814,86.3912,1070.8253,96.5076,1070.6569,106.624,1071.2283,116.7404,1070.3332,126.8569,1070.4809,136.9733,1071.649,147.0897,1071.4357,157.2062,1071.7345,167.3226,1070.6782,177.439,1071.3192,187.5554,1071.5904,197.6719,1070.5276,207.7883,1070.9041,217.9047,1071,228.0212,1071.0388,228.0372,1071.0543,228.4579,1070.7058,228.7277,1070.7031,229.1408,1070.2437,229.3647,1070.2678,229.7889,1070.1814,229.5804,1069.9785,230.0905,1069.4692,229.861,1069.272,230.385,1068.8799,230.4383,1068.5,230.5212,1068.5,230.2532,1058.5,230.1674,1048.5,230.9799,1038.5,230.2218,1028.5,231.113,1018.5,229.9684,1008.5,231.1386,998.5,231.0055,988.5,230.7661,978.5,230.5684,968.5,231.2478,958.5,231.1347,948.5,230.6904,938.5,230.7893,928.5,230.3909,918.5,231.2376,908.5,230.676,898.5,230.6937,888.5,229.9128,878.5,230.1159,868.5,231.0519,858.5,230.9509,848.5,230.4782,838.5,230.199,828.5,230.3022,818.5,229.835,808.5,230.9359,798.5,231.2607,788.5,231.0476,778.5,231.2161,768.5,230.3844,758.5,230.6084,748.5,230.1336,738.5,230.8052,728.5,230.7679,718.5,231.0735,708.5,230.2915,698.5,230.3868,688.5,230.5212,688.5566,230.6577,688.2188,230.5494,687.7275,230.0704,687.4146,230.0221,687.1048,229.9813,686.7322,229.7889,686.5441,229.711,686.6946,229.4805,686.5188,229.1147,686.2619,228.7154,686.1903,228.3929,686,228.0212,686.7287,228.0212,685.6871,217.9047,686.315,207.7883,686.2856,197.6719,686.1158,187.5554,686.1409,177.439,686.1135,167.3226,685.3758,157.2062,685.5992,147.0897,685.5385,136.9733,686.0638,126.8569,686.0881,116.7404,686.1617,106.624,685.709,96.5076,686,86.3912,685.9792,86.3825,686.1094,86.0223,686.4705,85.7576,686.5707,85.3849,686.4363,84.915,686.7322,84.6234,686.7229,84.6009,687.0122,84.2992,687.4761,84.4193,687.8705,84.3714,688.2159,84.2053,688.5,83.8912" style="stroke:#181818;stroke-width:4.0;"/><text fill="#000000" font-family="Chalkduster" font-size="24" font-style="italic" lengthAdjust="spacing" textLength="131" x="813" y="109.732">&#171;support&#187;</text><text fill="#000000" font-family="Chalkduster" font-size="24" font-weight="bold" lengthAdjust="spacing" textLength="250" x="753.5" y="140.3619">Trove Data Guide</text></g><!--cluster Hosted Fixed-term Services--><g id="cluster_Hosted Fixed-term Services"><polygon fill="none" points="257.5,355.5212,257.5,355.7313,267.5091,355.1068,277.5182,355.7144,287.5273,355.9208,297.5364,354.8078,307.5455,355.4434,317.5545,355.0947,327.5636,355.1377,337.5727,355.453,347.5818,354.8298,357.5909,356.0748,367.6,354.8909,377.6091,355.3234,387.6182,355.9531,397.6273,355.4354,407.6364,355.5894,417.6455,355.4892,427.6545,355.6997,437.6636,355.7603,447.6727,356.1069,457.6818,356.1922,467.6909,356.2004,477.7,355.7758,487.7091,355.9847,497.7182,356.2234,507.7273,354.8,517.7364,356.1997,527.7455,355.2247,537.7545,356.055,547.7636,355.0261,557.7727,355.4527,567.7818,356.2628,577.7909,355.4724,587.8,355.6265,597.8091,355.8598,607.8182,355.9374,617.8273,355.5173,627.8364,355.8084,637.8455,354.9487,647.8545,355.8055,657.8636,356.0694,667.8727,355.9657,677.8818,356.1342,687.8909,355.0381,697.9,354.869,707.9091,354.8998,717.9182,355.4623,727.9273,355.3246,737.9364,356.2026,747.9455,355.3465,757.9545,355.1781,767.9636,355.7494,777.9727,354.8543,787.9818,355.002,797.9909,356.1701,808,355.9568,818.0091,356.2557,828.0182,355.1994,838.0273,355.8404,848.0364,356.1116,858.0455,355.0488,868.0545,355.4253,878.0636,355.6471,888.0727,356.1729,898.0818,355.517,908.0909,355.9837,918.1,354.9674,928.1091,354.8439,938.1182,356.0248,948.1273,354.8042,958.1364,356.0301,968.1455,355.7278,978.1545,355.2532,988.1636,355.1674,998.1727,355.9799,1008.1818,355.2218,1018.1909,356.113,1028.2,354.9684,1038.2091,356.1386,1048.2182,356.0055,1058.2273,355.7661,1068.2364,355.5684,1078.2455,356.2478,1088.2545,356.1347,1098.2636,355.6904,1108.2727,355.7893,1118.2818,355.3909,1128.2909,356.2376,1138.3,355.676,1148.3091,355.6937,1158.3182,354.9128,1168.3273,355.1159,1178.3364,356.0519,1188.3455,355.9509,1198.3545,355.4782,1208.3636,355.199,1218.3727,355.3022,1228.3818,354.835,1238.3909,355.9359,1248.4,356.2607,1258.4091,356.0476,1268.4182,356.2161,1278.4273,355.3844,1288.4364,355.6084,1298.4455,355.1336,1308.4545,355.8052,1318.4636,355.7679,1328.4727,356.0735,1338.4818,355.2915,1348.4909,355.3868,1358.5,355.5212,1358.5566,355.6577,1358.9259,355.8423,1359.1417,355.6562,1359.5359,355.9008,1359.9333,356.1529,1360.2678,356.2534,1360.0797,356.1755,1360.523,356.652,1360.6401,356.9934,1360.6761,357.3012,1360.8974,357.6858,1361,358.0212,1361.7287,358.0212,1360.6871,368.2064,1361.315,378.3916,1361.2856,388.5768,1361.1158,398.762,1361.1409,408.9472,1361.1135,419.1324,1360.3758,429.3176,1360.5992,439.5028,1360.5385,449.688,1361.0638,459.8732,1361.0881,470.0584,1361.1617,480.2436,1360.709,490.4288,1360.9325,500.614,1360.8798,510.7992,1361.5769,520.9844,1361.4266,531.1696,1360.5145,541.3548,1360.9271,551.54,1360.4228,561.7252,1361.2884,571.9104,1361.6085,582.0956,1361.5446,592.2808,1360.5644,602.466,1361,612.6512,1361.1429,612.7103,1360.6248,612.91,1360.7687,613.3838,1360.4685,613.6736,1360.444,614.0777,1360.2678,614.4189,1360.2984,614.4929,1359.9744,614.7108,1359.4688,614.4901,1359.2678,615.0047,1358.8763,615.0596,1358.5,615.1512,1358.5,615.5065,1348.4909,615.899,1338.4818,615.1566,1328.4727,615.3264,1318.4636,615.3646,1308.4545,615.3484,1298.4455,615.1503,1288.4364,615.8619,1278.4273,614.5414,1268.4182,615.7164,1258.4091,614.5272,1248.4,614.6108,1238.3909,615.1912,1228.3818,615.1794,1218.3727,614.6583,1208.3636,615.5649,1198.3545,615.26,1188.3455,615.8778,1178.3364,615.8183,1168.3273,614.7029,1158.3182,614.7532,1148.3091,615.022,1138.3,615.5067,1128.2909,615.5541,1118.2818,615.4523,1108.2727,614.8092,1098.2636,615.7875,1088.2545,615.7849,1078.2455,615.1039,1068.2364,614.9121,1058.2273,614.7498,1048.2182,614.9366,1038.2091,615.2886,1028.2,615.0828,1018.1909,614.7334,1008.1818,615.6385,998.1727,614.6922,988.1636,615.6535,978.1545,615.5784,968.1455,615.523,958.1364,615.8437,948.1273,614.9053,938.1182,614.8505,928.1091,615.67,918.1,614.5543,908.0909,614.9172,898.0818,615.2667,888.0727,615.2198,878.0636,614.7927,868.0545,615.1082,858.0455,615.8958,848.0364,615.7996,838.0273,614.5549,828.0182,615.2297,818.0091,614.6373,808,615.1248,797.9909,615.4442,787.9818,615.571,777.9727,614.4864,767.9636,615.5517,757.9545,615.1596,747.9455,614.5958,737.9364,614.6801,727.9273,615.4778,717.9182,615.401,707.9091,615.1347,697.9,614.4791,687.8909,615.8093,677.8818,614.8393,667.8727,614.6231,657.8636,615.0838,647.8545,615.7409,637.8455,615.7666,627.8364,615.1863,617.8273,615,607.8182,615.3209,597.8091,615.3374,587.8,614.6434,577.7909,615.5651,567.7818,615.71,557.7727,614.9354,547.7636,614.722,537.7545,615.8258,527.7455,615.1722,517.7364,615.151,507.7273,615.4502,497.7182,614.5055,487.7091,615.6811,477.7,615.1357,467.6909,615.82,457.6818,614.9353,447.6727,615.5602,437.6636,614.7072,427.6545,615.3962,417.6455,615.5305,407.6364,614.8238,397.6273,615.5142,387.6182,614.5797,377.6091,614.6807,367.6,615.834,357.5909,615.8355,347.5818,615.7197,337.5727,614.7908,327.5636,615.5354,317.5545,614.6791,307.5455,615.2093,297.5364,615.1499,287.5273,614.8887,277.5182,615.7671,267.5091,615.5944,257.5,615.1512,257.4591,615.0524,257.2136,615.1669,256.8046,614.8866,256.3649,614.5321,256.056,614.4935,255.7322,614.4189,255.5705,614.3519,255.543,614.0476,255.2456,613.6316,255.1081,613.2817,255.1681,613.0137,255,612.6512,254.8796,612.6512,254.9414,602.466,254.8568,592.2808,255.1673,582.0956,254.4449,571.9104,255.1601,561.7252,254.2569,551.54,255.296,541.3548,255.5928,531.1696,255.5221,520.9844,255.3613,510.7992,255.1922,500.614,255.1057,490.4288,254.36,480.2436,255.4465,470.0584,255.3296,459.8732,254.8466,449.688,254.9942,439.5028,254.7914,429.3176,255.2177,419.1324,255.6805,408.9472,254.6461,398.762,255.4689,388.5768,254.9108,378.3916,254.6207,368.2064,255,358.0212,254.867,357.9661,254.9479,357.5854,255.1571,357.2578,255.4505,356.9651,255.6699,356.6418,255.7322,356.2534,255.8057,356.4308,256.1394,356.2363,256.3486,355.7414,256.8719,356.0047,257.2085,355.8173,257.5,355.5212" style="stroke:#181818;stroke-width:4.0;"/><text fill="#000000" font-family="Chalkduster" font-size="24" font-weight="bold" lengthAdjust="spacing" textLength="373" x="621.5" y="381.362">Hosted Fixed-term Services</text></g><!--cluster iaw--><g id="cluster_iaw"><polygon fill="#FFC7D8" points="289.5,420.5212,289.5,420.7313,299.5185,420.1068,309.537,420.7144,319.5556,420.9208,329.5741,419.8078,339.5926,420.4434,349.6111,420.0947,359.6296,420.1377,369.6481,420.453,379.6667,419.8298,389.6852,421.0748,399.7037,419.8909,409.7222,420.3234,419.7407,420.9531,429.7593,420.4354,439.7778,420.5894,449.7963,420.4892,459.8148,420.6997,469.8333,420.7603,479.8519,421.1069,489.8704,421.1922,499.8889,421.2004,509.9074,420.7758,519.9259,420.9847,529.9444,421.2234,539.963,419.8,549.9815,421.1997,560,420.2247,570.0185,421.055,580.037,420.0261,590.0556,420.4527,600.0741,421.2628,610.0926,420.4724,620.1111,420.6265,630.1296,420.8598,640.1481,420.9374,650.1667,420.5173,660.1852,420.8084,670.2037,419.9487,680.2222,420.8055,690.2407,421.0694,700.2593,420.9657,710.2778,421.1342,720.2963,420.0381,730.3148,419.869,740.3333,419.8998,750.3519,420.4623,760.3704,420.3246,770.3889,421.2026,780.4074,420.3465,790.4259,420.1781,800.4444,420.7494,810.463,419.8543,820.4815,420.002,830.5,420.5212,830.5828,420.721,830.9091,420.8018,831.3008,421.0402,831.5196,420.8614,831.9549,421.2052,832.2678,421.2534,832.4496,421.3287,832.2687,421.5467,832.5311,421.9483,832.7459,422.3301,833.0543,422.7507,833,423.0212,832.9958,423.0212,833.4626,432.873,832.4462,442.7249,832.3227,452.5768,833.5036,462.4287,832.2831,472.2805,833.509,482.1324,833.2066,491.9843,832.7321,501.8362,832.6462,511.688,833.4588,521.5399,832.7007,531.3918,833.5919,541.2437,832.4473,551.0955,833.6174,560.9474,833.4843,570.7993,833,580.6512,833.0754,580.6824,832.8681,581.0107,832.9309,581.451,832.7496,581.7901,832.4663,582.087,832.2678,582.4189,832.302,582.5015,831.8976,582.5253,831.6521,582.9325,831.2269,582.906,830.8756,583.0579,830.5,583.1512,830.5,582.5428,820.4815,582.7459,810.463,583.6819,800.4444,583.5809,790.4259,583.1082,780.4074,582.829,770.3889,582.9322,760.3704,582.465,750.3519,583.5659,740.3333,583.8907,730.3148,583.6776,720.2963,583.8461,710.2778,583.0144,700.2593,583.2384,690.2407,582.7636,680.2222,583.4352,670.2037,583.3979,660.1852,583.7035,650.1667,582.9215,640.1481,583.0168,630.1296,583.5946,620.1111,583.7185,610.0926,582.6386,600.0741,582.9573,590.0556,583.3004,580.037,582.5403,570.0185,583.5046,560,583.4092,549.9815,583.0504,539.963,583.2934,529.9444,583.8798,519.9259,582.8383,509.9074,583.4661,499.8889,583.4368,489.8704,583.2669,479.8519,583.2921,469.8333,583.2646,459.8148,582.527,449.7963,582.7503,439.7778,582.6896,429.7593,583.215,419.7407,583.2393,409.7222,583.3129,399.7037,582.8602,389.6852,583.0836,379.6667,583.0309,369.6481,583.728,359.6296,583.5777,349.6111,582.6656,339.5926,583.0782,329.5741,582.5739,319.5556,583.4395,309.537,583.7596,299.5185,583.6957,289.5,583.1512,289.4444,583.017,289.2056,583.1476,288.6981,582.6295,288.4649,582.7735,288.0476,582.4732,287.7322,582.4189,287.762,582.4313,287.6598,582.096,287.5847,581.772,287.0712,581.2664,287.2929,581.0654,287,580.6512,287.1782,580.6512,287.3553,570.7993,287.7478,560.9474,287.0055,551.0955,287.1753,541.2437,287.2134,531.3918,287.1972,521.5399,286.9992,511.688,287.7107,501.8362,286.3903,491.9843,287.5653,482.1324,286.376,472.2805,286.4597,462.4287,287.04,452.5768,287.0283,442.7249,286.5072,432.873,287,423.0212,287.1274,423.0739,287.18,422.6815,287.5167,422.4067,287.6448,422.0456,287.4477,421.5498,287.7322,421.2534,287.6815,421.1308,288.0693,421.0672,288.4847,421.07,288.8443,420.9382,289.1849,420.7604,289.5,420.5212" style="stroke:#181818;stroke-width:4.0;"/><text fill="#000000" font-family="Chalkduster" font-size="24" font-style="italic" lengthAdjust="spacing" textLength="175" x="472.5" y="446.362">&#171;workspace&#187;</text><text fill="#000000" font-family="Chalkduster" font-size="24" font-weight="bold" lengthAdjust="spacing" textLength="530" x="295" y="476.9919">Image Annotation Workbench (Utility)</text></g><!--cluster ia--><g id="cluster_ia"><polygon fill="#FFC7D8" points="875.5,420.5212,875.5,420.7313,885.5222,420.1068,895.5444,420.7144,905.5667,420.9208,915.5889,419.8078,925.6111,420.4434,935.6333,420.0947,945.6556,420.1377,955.6778,420.453,965.7,419.8298,975.7222,421.0748,985.7444,419.8909,995.7667,420.3234,1005.7889,420.9531,1015.8111,420.4354,1025.8333,420.5894,1035.8556,420.4892,1045.8778,420.6997,1055.9,420.7603,1065.9222,421.1069,1075.9444,421.1922,1085.9667,421.2004,1095.9889,420.7758,1106.0111,420.9847,1116.0333,421.2234,1126.0556,419.8,1136.0778,421.1997,1146.1,420.2247,1156.1222,421.055,1166.1444,420.0261,1176.1667,420.4527,1186.1889,421.2628,1196.2111,420.4724,1206.2333,420.6265,1216.2556,420.8598,1226.2778,420.9374,1236.3,420.5173,1246.3222,420.8084,1256.3444,419.9487,1266.3667,420.8055,1276.3889,421.0694,1286.4111,420.9657,1296.4333,421.1342,1306.4556,420.0381,1316.4778,419.869,1326.5,420.5212,1326.4207,420.3298,1326.846,420.6495,1327.182,420.7535,1327.6476,421.1703,1327.8919,421.0532,1328.2678,421.2534,1328.1621,421.2096,1328.4845,421.6361,1328.3553,421.8754,1328.5472,422.2478,1329.0534,422.7504,1329,423.0212,1329.4357,423.0212,1329.7345,432.873,1328.6782,442.7249,1329.3192,452.5768,1329.5904,462.4287,1328.5276,472.2805,1328.9041,482.1324,1329.126,491.9843,1329.6518,501.8362,1328.9958,511.688,1329.4626,521.5399,1328.4462,531.3918,1328.3227,541.2437,1329.5036,551.0955,1328.2831,560.9474,1329.509,570.7993,1329,580.6512,1329.0636,580.6775,1328.771,580.9705,1328.5982,581.3131,1328.7019,581.7703,1328.322,582.0272,1328.2678,582.4189,1328.3433,582.6012,1327.8437,582.3952,1327.6394,582.902,1327.2689,583.0074,1326.8848,583.0802,1326.5,583.1512,1326.5,583.1984,1316.4778,583.8778,1306.4556,583.7647,1296.4333,583.3204,1286.4111,583.4193,1276.3889,583.0209,1266.3667,583.8676,1256.3444,583.306,1246.3222,583.3237,1236.3,582.5428,1226.2778,582.7459,1216.2556,583.6819,1206.2333,583.5809,1196.2111,583.1082,1186.1889,582.829,1176.1667,582.9322,1166.1444,582.465,1156.1222,583.5659,1146.1,583.8907,1136.0778,583.6776,1126.0556,583.8461,1116.0333,583.0144,1106.0111,583.2384,1095.9889,582.7636,1085.9667,583.4352,1075.9444,583.3979,1065.9222,583.7035,1055.9,582.9215,1045.8778,583.0168,1035.8556,583.5946,1025.8333,583.7185,1015.8111,582.6386,1005.7889,582.9573,995.7667,583.3004,985.7444,582.5403,975.7222,583.5046,965.7,583.4092,955.6778,583.0504,945.6556,583.2934,935.6333,583.8798,925.6111,582.8383,915.5889,583.4661,905.5667,583.4368,895.5444,583.2669,885.5222,583.2921,875.5,583.1512,875.5145,583.1861,875.0668,582.8125,874.7418,582.7348,874.3805,582.5697,874.0939,582.585,873.7322,582.4189,873.7594,582.4302,873.6356,582.086,873.3497,581.6747,873.2721,581.3497,873.1094,580.9894,873,580.6512,873.5769,580.6512,873.4266,570.7993,872.5145,560.9474,872.9271,551.0955,872.4228,541.2437,873.2884,531.3918,873.6085,521.5399,873.5446,511.688,872.5644,501.8362,873.464,491.9843,872.2572,482.1324,873.2002,472.2805,872.7007,462.4287,873.0967,452.5768,873.2403,442.7249,873.4721,432.873,873,423.0212,872.7783,422.9293,873.2929,422.7283,873.3478,422.3368,873.5488,422.0058,873.8161,421.7023,873.7322,421.2534,873.7329,421.2551,874.1081,421.1609,874.4666,421.0262,874.8181,420.8748,875.1463,420.6674,875.5,420.5212" style="stroke:#181818;stroke-width:4.0;"/><text fill="#000000" font-family="Chalkduster" font-size="24" font-style="italic" lengthAdjust="spacing" textLength="175" x="1013.5" y="446.362">&#171;workspace&#187;</text><text fill="#000000" font-family="Chalkduster" font-size="24" font-weight="bold" lengthAdjust="spacing" textLength="440" x="881" y="476.9919">Intelligent Archive (Stylometry)</text></g><!--cluster Archival Repositories--><g id="cluster_Archival Repositories"><polygon fill="none" points="356.5,834.1512,356.5,834.3613,366.5182,833.7368,376.5364,834.3444,386.5545,834.5508,396.5727,833.4378,406.5909,834.0734,416.6091,833.7247,426.6273,833.7677,436.6455,834.083,446.6636,833.4598,456.6818,834.7048,466.7,833.5209,476.7182,833.9534,486.7364,834.5831,496.7545,834.0654,506.7727,834.2194,516.7909,834.1192,526.8091,834.3297,536.8273,834.3903,546.8455,834.7369,556.8636,834.8222,566.8818,834.8304,576.9,834.4058,586.9182,834.6147,596.9364,834.8534,606.9545,833.43,616.9727,834.8297,626.9909,833.8547,637.0091,834.685,647.0273,833.6561,657.0455,834.0827,667.0636,834.8928,677.0818,834.1024,687.1,834.2565,697.1182,834.4898,707.1364,834.5674,717.1545,834.1473,727.1727,834.4384,737.1909,833.5787,747.2091,834.4355,757.2273,834.6994,767.2455,834.5957,777.2636,834.7642,787.2818,833.6681,797.3,833.499,807.3182,833.5298,817.3364,834.0923,827.3545,833.9546,837.3727,834.8326,847.3909,833.9765,857.4091,833.8081,867.4273,834.3794,877.4455,833.4843,887.4636,833.632,897.4818,834.8001,907.5,834.5868,917.5182,834.8857,927.5364,833.8294,937.5545,834.4704,947.5727,834.7416,957.5909,833.6788,967.6091,834.0553,977.6273,834.2771,987.6455,834.8029,997.6636,834.147,1007.6818,834.6137,1017.7,833.5974,1027.7182,833.4739,1037.7364,834.6548,1047.7545,833.4342,1057.7727,834.6601,1067.7909,834.3578,1077.8091,833.8832,1087.8273,833.7974,1097.8455,834.6099,1107.8636,833.8518,1117.8818,834.743,1127.9,833.5984,1137.9182,834.7686,1147.9364,834.6355,1157.9545,834.3961,1167.9727,834.1984,1177.9909,834.8778,1188.0091,834.7647,1198.0273,834.3204,1208.0455,834.4193,1218.0636,834.0209,1228.0818,834.8676,1238.1,834.306,1248.1182,834.3237,1258.1364,833.5428,1268.1545,833.7459,1278.1727,834.6819,1288.1909,834.5809,1298.2091,834.1082,1308.2273,833.829,1318.2455,833.9322,1328.2636,833.465,1338.2818,834.5659,1348.3,834.8907,1358.3182,834.6776,1368.3364,834.8461,1378.3545,834.0144,1388.3727,834.2384,1398.3909,833.7636,1408.4091,834.4352,1418.4273,834.3979,1428.4455,834.7035,1438.4636,833.9215,1448.4818,834.0168,1458.5,834.1512,1458.5566,834.2877,1458.9259,834.4723,1459.1417,834.2862,1459.5359,834.5308,1459.9333,834.7829,1460.2678,834.8834,1460.0797,834.8055,1460.523,835.282,1460.6401,835.6234,1460.6761,835.9312,1460.8974,836.3158,1461,836.6512,1461.7287,836.6512,1460.6871,846.5898,1461.315,856.5284,1461.2856,866.467,1461.1158,876.4056,1461.1409,886.3443,1461.1135,896.2829,1460.3758,906.2215,1460.5992,916.1601,1460.5385,926.0987,1461.0638,936.0374,1461.0881,945.976,1461.1617,955.9146,1460.709,965.8532,1460.9325,975.7919,1460.8798,985.7305,1461.5769,995.6691,1461.4266,1005.6077,1460.5145,1015.5463,1460.9271,1025.485,1460.4228,1035.4236,1461.2884,1045.3622,1461.6085,1055.3008,1461.5446,1065.2394,1460.5644,1075.1781,1461.464,1085.1167,1460.2572,1095.0553,1461.2002,1104.9939,1460.7007,1114.9325,1461.0967,1124.8712,1461.2403,1134.8098,1461.4721,1144.7484,1460.2801,1154.687,1461.4755,1164.6256,1461.1782,1174.5643,1461.3553,1184.5029,1461.7478,1194.4415,1461.0055,1204.3801,1461.1753,1214.3187,1461.2134,1224.2574,1461.1972,1234.196,1460.9992,1244.1346,1461.7107,1254.0732,1460.3903,1264.0119,1461.5653,1273.9505,1460.376,1283.8891,1460.4597,1293.8277,1461.04,1303.7663,1461.0283,1313.705,1460.5072,1323.6436,1461.4137,1333.5822,1461.1089,1343.5208,1461.7267,1353.4594,1461.6671,1363.3981,1460.5517,1373.3367,1460.6021,1383.2753,1460.8708,1393.2139,1461.3555,1403.1525,1461,1413.0912,1461.1241,1413.1426,1460.9463,1413.4831,1460.6018,1413.7546,1460.7566,1414.233,1460.6094,1414.5862,1460.2678,1414.8589,1460.2617,1414.8444,1459.8837,1414.9318,1459.5095,1415.0282,1459.1797,1415.2322,1458.8711,1415.487,1458.5,1415.5912,1458.5,1415.5228,1448.4818,1415.1734,1438.4636,1416.0785,1428.4455,1415.1322,1418.4273,1416.0935,1408.4091,1416.0184,1398.3909,1415.963,1388.3727,1416.2837,1378.3545,1415.3453,1368.3364,1415.2905,1358.3182,1416.11,1348.3,1414.9943,1338.2818,1415.3572,1328.2636,1415.7067,1318.2455,1415.6598,1308.2273,1415.2327,1298.2091,1415.5482,1288.1909,1416.3358,1278.1727,1416.2396,1268.1545,1414.9949,1258.1364,1415.6697,1248.1182,1415.0773,1238.1,1415.5648,1228.0818,1415.8842,1218.0636,1416.011,1208.0455,1414.9264,1198.0273,1415.9917,1188.0091,1415.5996,1177.9909,1415.0358,1167.9727,1415.1201,1157.9545,1415.9178,1147.9364,1415.841,1137.9182,1415.5747,1127.9,1414.9191,1117.8818,1416.2493,1107.8636,1415.2793,1097.8455,1415.0631,1087.8273,1415.5238,1077.8091,1416.1809,1067.7909,1416.2066,1057.7727,1415.6263,1047.7545,1415.44,1037.7364,1415.7609,1027.7182,1415.7774,1017.7,1415.0834,1007.6818,1416.0051,997.6636,1416.15,987.6455,1415.3754,977.6273,1415.162,967.6091,1416.2658,957.5909,1415.6122,947.5727,1415.591,937.5545,1415.8902,927.5364,1414.9455,917.5182,1416.1211,907.5,1415.5757,897.4818,1416.26,887.4636,1415.3753,877.4455,1416.0002,867.4273,1415.1472,857.4091,1415.8362,847.3909,1415.9705,837.3727,1415.2638,827.3545,1415.9542,817.3364,1415.0197,807.3182,1415.1207,797.3,1416.274,787.2818,1416.2755,777.2636,1416.1597,767.2455,1415.2308,757.2273,1415.9754,747.2091,1415.1191,737.1909,1415.6493,727.1727,1415.5899,717.1545,1415.3287,707.1364,1416.2071,697.1182,1416.0344,687.1,1415.2704,677.0818,1416.1178,667.0636,1415.683,657.0455,1415.0076,647.0273,1415.3578,637.0091,1415.0659,626.9909,1415.4521,616.9727,1414.9622,606.9545,1414.991,596.9364,1415.6615,586.9182,1415.4708,576.9,1415.5326,566.8818,1415.448,556.8636,1415.7585,546.8455,1415.0361,536.8273,1415.7512,526.8091,1414.848,516.7909,1415.8872,506.7727,1416.1839,496.7545,1416.1133,486.7364,1415.9525,476.7182,1415.7834,466.7,1415.6969,456.6818,1414.9511,446.6636,1416.0377,436.6455,1415.9208,426.6273,1415.4378,416.6091,1415.5854,406.5909,1415.3826,396.5727,1415.8089,386.5545,1416.2717,376.5364,1415.2373,366.5182,1416.06,356.5,1415.5912,356.4886,1415.5637,356.0981,1415.3279,355.7378,1415.1653,355.3571,1414.9533,355.0295,1414.8696,354.7322,1414.8589,354.7434,1414.8636,354.6699,1414.5402,354.6168,1414.2253,354.4223,1413.8519,353.9274,1413.354,354,1413.0912,354.619,1413.0912,354.4861,1403.1525,354.5407,1393.2139,354.5219,1383.2753,353.3409,1373.3367,353.7423,1363.3981,354.316,1353.4594,353.5185,1343.5208,353.8971,1333.5822,354.067,1323.6436,354.3261,1313.705,354.0458,1303.7663,354.7447,1293.8277,354.4114,1283.8891,354.2561,1273.9505,353.4601,1264.0119,354.3388,1254.0732,353.4255,1244.1346,354.3057,1234.196,354.0078,1224.2574,354.2995,1214.3187,353.9126,1204.3801,353.8039,1194.4415,353.2591,1184.5029,353.7856,1174.5643,353.2951,1164.6256,353.7539,1154.687,354.4379,1144.7484,354.1607,1134.8098,353.5485,1124.8712,354.2458,1114.9325,354.0656,1104.9939,354.5433,1095.0553,354.5649,1085.1167,354.0937,1075.1781,353.821,1065.2394,353.7855,1055.3008,353.9936,1045.3622,354.6691,1035.4236,353.3263,1025.485,353.8361,1015.5463,354.2668,1005.6077,354.7317,995.6691,354.2119,985.7305,353.8018,975.7919,353.2621,965.8532,353.5762,955.9146,353.7781,945.976,354.3398,936.0374,354.3695,926.0987,354.0518,916.1601,353.867,906.2215,353.2804,896.2829,354.129,886.3443,354.4354,876.4056,354.6829,866.467,354.0983,856.5284,354.0799,846.5898,354,836.6512,353.9322,836.6231,354.223,836.3293,354.1482,835.8841,354.5983,835.6563,354.4916,835.198,354.7322,834.8834,354.6646,834.7201,355.1186,834.8161,355.4995,834.7358,355.8002,834.4617,356.131,834.2603,356.5,834.1512" style="stroke:#181818;stroke-width:4.0;"/><text fill="#000000" font-family="Chalkduster" font-size="24" font-weight="bold" lengthAdjust="spacing" textLength="289" x="763" y="859.992">Archival Repositories</text></g><!--cluster trove--><g id="cluster_trove"><polygon fill="#00FF7F" points="1006.5,1244.9612,1006.5,1245.1713,1016.4535,1244.5468,1026.407,1245.1544,1036.3605,1245.3608,1046.314,1244.2478,1056.2674,1244.8834,1066.2209,1244.5347,1076.1744,1244.5777,1086.1279,1244.893,1096.0814,1244.2698,1106.0349,1245.5148,1115.9884,1244.3309,1125.9419,1244.7634,1135.8953,1245.3931,1145.8488,1244.8754,1155.8023,1245.0294,1165.7558,1244.9292,1175.7093,1245.1397,1185.6628,1245.2003,1195.6163,1245.5469,1205.5698,1245.6322,1215.5233,1245.6404,1225.4767,1245.2158,1235.4302,1245.4247,1245.3837,1245.6634,1255.3372,1244.24,1265.2907,1245.6397,1275.2442,1244.6647,1285.1977,1245.495,1295.1512,1244.4661,1305.1047,1244.8927,1315.0581,1245.7028,1325.0116,1244.9124,1334.9651,1245.0665,1344.9186,1245.2998,1354.8721,1245.3774,1364.8256,1244.9573,1374.7791,1245.2484,1384.7326,1244.3887,1394.686,1245.2455,1404.6395,1245.5094,1414.593,1245.4057,1424.5465,1245.5742,1434.5,1244.9612,1434.4384,1244.8124,1434.7704,1244.9068,1435.1278,1245.0627,1435.5531,1245.3824,1435.8891,1245.4864,1436.2678,1245.6934,1436.4776,1245.7803,1436.3604,1246.0247,1436.455,1246.3567,1436.7774,1246.7832,1436.6482,1247.0225,1437,1247.4612,1436.4809,1247.4612,1437.649,1257.5776,1437.4357,1267.694,1437.7345,1277.8104,1436.6782,1287.9269,1437.3192,1298.0433,1437.5904,1308.1597,1436.5276,1318.2762,1436.9041,1328.3926,1437.126,1338.509,1437.6518,1348.6254,1436.9958,1358.7419,1437.4626,1368.8583,1436.4462,1378.9747,1437,1389.0912,1436.7914,1389.0048,1437.0086,1389.509,1436.4863,1389.7068,1436.7174,1390.2167,1436.4778,1390.5317,1436.2678,1390.8589,1436.2336,1390.7764,1435.8691,1390.8964,1435.6192,1391.2931,1435.1689,1391.2061,1434.9291,1391.627,1434.5,1391.5912,1434.5,1391.0384,1424.5465,1392.2086,1414.593,1392.0755,1404.6395,1391.8361,1394.686,1391.6384,1384.7326,1392.3178,1374.7791,1392.2047,1364.8256,1391.7604,1354.8721,1391.8593,1344.9186,1391.4609,1334.9651,1392.3076,1325.0116,1391.746,1315.0581,1391.7637,1305.1047,1390.9828,1295.1512,1391.1859,1285.1977,1392.1219,1275.2442,1392.0209,1265.2907,1391.5482,1255.3372,1391.269,1245.3837,1391.3722,1235.4302,1390.905,1225.4767,1392.0059,1215.5233,1392.3307,1205.5698,1392.1176,1195.6163,1392.2861,1185.6628,1391.4544,1175.7093,1391.6784,1165.7558,1391.2036,1155.8023,1391.8752,1145.8488,1391.8379,1135.8953,1392.1435,1125.9419,1391.3615,1115.9884,1391.4568,1106.0349,1392.0346,1096.0814,1392.1585,1086.1279,1391.0786,1076.1744,1391.3973,1066.2209,1391.7404,1056.2674,1390.9803,1046.314,1391.9446,1036.3605,1391.8492,1026.407,1391.4904,1016.4535,1391.7334,1006.5,1391.5912,1006.593,1391.8156,1006.1065,1391.3484,1005.8331,1391.3953,1005.4758,1391.2398,1005.1006,1391.041,1004.7322,1390.8589,1004.7756,1390.8769,1004.6207,1390.5198,1004.2471,1390.0722,1004.1695,1389.7471,1004.0043,1389.3858,1004,1389.0912,1004.0638,1389.0912,1004.0881,1378.9747,1004.1617,1368.8583,1003.709,1358.7419,1003.9325,1348.6254,1003.8798,1338.509,1004.5769,1328.3926,1004.4266,1318.2762,1003.5145,1308.1597,1003.9271,1298.0433,1003.4228,1287.9269,1004.2884,1277.8104,1004.6085,1267.694,1004.5446,1257.5776,1004,1247.4612,1003.8659,1247.4056,1004.2893,1247.1668,1004.0641,1246.6593,1004.501,1246.426,1004.4936,1246.0088,1004.7322,1245.6934,1004.7446,1245.7232,1005.1164,1245.621,1005.4996,1245.5459,1005.7011,1245.0323,1006.2071,1245.254,1006.5,1244.9612" style="stroke:#181818;stroke-width:4.0;"/><text fill="#000000" font-family="Chalkduster" font-size="24" font-style="italic" lengthAdjust="spacing" textLength="169" x="1136" y="1270.802">&#171;repository&#187;</text><text fill="#000000" font-family="Chalkduster" font-size="24" font-weight="bold" lengthAdjust="spacing" textLength="78" x="1181.5" y="1301.4319">Trove</text></g><!--cluster Australian Text Analytics Platform (ATAP) repository--><g id="cluster_Australian Text Analytics Platform (ATAP) repository"><polygon fill="#00FF7F" points="380.5,891.1512,380.5,891.3613,390.5267,890.7368,400.5533,891.3444,410.58,891.5508,420.6067,890.4378,430.6333,891.0734,440.66,890.7247,450.6867,890.7677,460.7133,891.083,470.74,890.4598,480.7667,891.7048,490.7933,890.5209,500.82,890.9534,510.8467,891.5831,520.8733,891.0654,530.9,891.2194,540.9267,891.1192,550.9533,891.3297,560.98,891.3903,571.0067,891.7369,581.0333,891.8222,591.06,891.8304,601.0867,891.4058,611.1133,891.6147,621.14,891.8534,631.1667,890.43,641.1933,891.8297,651.22,890.8547,661.2467,891.685,671.2733,890.6561,681.3,891.0827,691.3267,891.8928,701.3533,891.1024,711.38,891.2565,721.4067,891.4898,731.4333,891.5674,741.46,891.1473,751.4867,891.4384,761.5133,890.5787,771.54,891.4355,781.5667,891.6994,791.5933,891.5957,801.62,891.7642,811.6467,890.6681,821.6733,890.499,831.7,890.5298,841.7267,891.0923,851.7533,890.9546,861.78,891.8326,871.8067,890.9765,881.8333,890.8081,891.86,891.3794,901.8867,890.4843,911.9133,890.632,921.94,891.8001,931.9667,891.5868,941.9933,891.8857,952.02,890.8294,962.0467,891.4704,972.0733,891.7416,982.1,890.6788,992.1267,891.0553,1002.1533,891.2771,1012.18,891.8029,1022.2067,891.147,1032.2333,891.6137,1042.26,890.5974,1052.2867,890.4739,1062.3133,891.6548,1072.34,890.4342,1082.3667,891.6601,1092.3933,891.3578,1102.42,890.8832,1112.4467,890.7974,1122.4733,891.6099,1132.5,891.1512,1132.4618,891.059,1132.9291,891.4799,1133.1366,891.2738,1133.6394,891.7806,1133.976,891.8861,1134.2678,891.8834,1134.3432,891.9146,1134.4288,892.243,1134.7844,892.6832,1134.8961,893.0223,1134.9057,893.3192,1135,893.6512,1135.2682,893.6512,1134.8697,903.7676,1135.7165,913.884,1135.1549,924.0004,1135.1726,934.1169,1134.3916,944.2333,1134.5948,954.3497,1135.5307,964.4662,1135.4298,974.5826,1134.9571,984.699,1134.6778,994.8154,1134.7811,1004.9319,1134.3138,1015.0483,1135.4147,1025.1647,1135,1035.2812,1135.2278,1035.3755,1135.0157,1035.7019,1134.9211,1036.0769,1134.5186,1036.3244,1134.4411,1036.7065,1134.2678,1037.0489,1134.2183,1036.9296,1133.9504,1037.2828,1133.5921,1037.4178,1133.2776,1037.6584,1132.8243,1037.564,1132.5,1037.7812,1132.5,1037.6468,1122.4733,1038.2246,1112.4467,1038.3485,1102.42,1037.2686,1092.3933,1037.5873,1082.3667,1037.9304,1072.34,1037.1703,1062.3133,1038.1346,1052.2867,1038.0392,1042.26,1037.6804,1032.2333,1037.9234,1022.2067,1038.5098,1012.18,1037.4683,1002.1533,1038.0961,992.1267,1038.0668,982.1,1037.8969,972.0733,1037.9221,962.0467,1037.8946,952.02,1037.157,941.9933,1037.3803,931.9667,1037.3196,921.94,1037.845,911.9133,1037.8693,901.8867,1037.9429,891.86,1037.4902,881.8333,1037.7136,871.8067,1037.6609,861.78,1038.358,851.7533,1038.2077,841.7267,1037.2956,831.7,1037.7082,821.6733,1037.2039,811.6467,1038.0695,801.62,1038.3896,791.5933,1038.3257,781.5667,1037.3456,771.54,1038.2451,761.5133,1037.0384,751.4867,1037.9813,741.46,1037.4818,731.4333,1037.8779,721.4067,1038.0215,711.38,1038.2533,701.3533,1037.0612,691.3267,1038.2566,681.3,1037.9593,671.2733,1038.1365,661.2467,1038.529,651.22,1037.7866,641.1933,1037.9564,631.1667,1037.9946,621.14,1037.9784,611.1133,1037.7803,601.0867,1038.4919,591.06,1037.1714,581.0333,1038.3464,571.0067,1037.1572,560.98,1037.2408,550.9533,1037.8212,540.9267,1037.8094,530.9,1037.2883,520.8733,1038.1949,510.8467,1037.89,500.82,1038.5078,490.7933,1038.4483,480.7667,1037.3329,470.74,1037.3832,460.7133,1037.652,450.6867,1038.1367,440.66,1038.1841,430.6333,1038.0823,420.6067,1037.4392,410.58,1038.4175,400.5533,1038.4149,390.5267,1037.7339,380.5,1037.7812,380.4695,1037.7075,380.0952,1037.5111,379.7655,1037.4222,379.4569,1037.3841,379.0771,1037.1743,378.7322,1037.0489,378.6036,1036.9956,378.7359,1036.7575,378.298,1036.2833,378.4476,1036.0524,378.278,1035.6892,378,1035.2812,378.3719,1035.2812,378.6925,1025.1647,377.7541,1015.0483,377.6994,1004.9319,378.5189,994.8154,377.4031,984.699,377.766,974.5826,378.1155,964.4662,378.0687,954.3497,377.6415,944.2333,377.957,934.1169,378.7446,924.0004,378.6485,913.884,377.4037,903.7676,378,893.6512,378.0242,893.6612,377.9882,893.2321,378.2848,892.9407,378.5296,892.6279,378.7151,892.2905,378.7322,891.8834,378.6474,891.6787,379.1369,891.8603,379.4404,891.5931,379.7221,891.273,380.0864,891.1525,380.5,891.1512" style="stroke:#181818;stroke-width:4.0;"/><text fill="#000000" font-family="Chalkduster" font-size="24" font-style="italic" lengthAdjust="spacing" textLength="169" x="672" y="916.992">&#171;repository&#187;</text><text fill="#000000" font-family="Chalkduster" font-size="24" font-weight="bold" lengthAdjust="spacing" textLength="741" x="386" y="947.6219">Australian Text Analytics Platform (ATAP) repository</text></g><!--entity examples--><g id="elem_examples"><polygon fill="none" points="913.5,163.8912,913.5,164.1013,923.4286,163.4768,933.3571,164.0844,943.2857,164.2908,953.2143,163.1778,963.1429,163.8134,973.0714,163.4647,983,163.5077,992.9286,163.823,1002.8571,163.1998,1012.7857,164.4448,1022.7143,163.2609,1032.6429,163.6934,1042.5714,164.3231,1052.5,163.8912,1052.4891,163.8647,1052.8623,164.0586,1053.203,164.1742,1053.5834,164.3855,1053.9447,164.5506,1054.2678,164.6234,1054.4481,164.6981,1054.6209,165.0625,1054.7698,165.4171,1054.7855,165.7165,1054.9963,166.0967,1055,166.3912,1055.7022,166.3912,1054.2788,175.5171,1055.6785,184.6431,1054.7035,193.7691,1055.5338,202.895,1055,212.021,1054.8476,211.9578,1054.8325,212.3658,1054.9355,212.8227,1054.5457,213.0754,1054.4466,213.4486,1054.2678,213.7888,1054.311,213.893,1053.9673,214.0634,1053.5602,214.0805,1053.2437,214.3166,1052.7805,214.1983,1052.5,214.521,1052.5,214.8054,1042.5714,215.0692,1032.6429,214.9655,1022.7143,215.134,1012.7857,214.0379,1002.8571,213.8688,992.9286,213.8996,983,214.4621,973.0714,214.3245,963.1429,215.2024,953.2143,214.3463,943.2857,214.1779,933.3571,214.7493,923.4286,213.8542,913.5,214.521,913.4338,214.3611,913.2292,214.5744,912.8485,214.3623,912.533,214.3078,912.0447,213.8361,911.7322,213.7888,911.8305,213.8295,911.7676,213.5105,911.2939,213.0214,911.2634,212.7159,911.1852,212.3906,911,212.021,911.6518,212.021,910.9958,202.895,911.4626,193.7691,910.4462,184.6431,910.3227,175.5171,911,166.3912,911.1551,166.4554,910.9257,165.9462,911.4496,165.749,911.503,165.3569,911.5033,164.9428,911.7322,164.6234,911.6871,164.5144,912.1443,164.6182,912.4012,164.2383,912.8684,164.3663,913.0759,163.8674,913.5,163.8912" style="stroke:#181818;stroke-width:4.0;"/><text fill="#000000" font-family="Chalkduster" font-size="24" lengthAdjust="spacing" textLength="124" x="921" y="197.732">examples</text></g><!--entity description--><g id="elem_description"><polygon fill="none" points="705,163.8912,705,164.1013,714.8824,163.4768,724.7647,164.0844,734.6471,164.2908,744.5294,163.1778,754.4118,163.8134,764.2941,163.4647,774.1765,163.5077,784.0588,163.823,793.9412,163.1998,803.8235,164.4448,813.7059,163.2609,823.5882,163.6934,833.4706,164.3231,843.3529,163.8054,853.2353,163.9594,863.1176,163.8592,873,163.8912,873.0228,163.9461,873.3841,164.1113,873.7818,164.3644,874.1463,164.5372,874.5009,164.6861,874.7678,164.6234,874.8462,164.6559,875.057,165.0361,875.2769,165.4201,874.985,165.5921,875.5625,166.1242,875.5,166.3912,875.2035,166.3912,876.0338,175.5171,875.005,184.6431,875.4315,193.7691,876.2416,202.895,875.5,212.021,875.485,212.0148,875.386,212.388,875.3114,212.7713,875.1888,213.1347,874.913,213.4347,874.7678,213.7888,874.8044,213.8772,874.3412,213.7589,874.0969,214.1692,873.777,214.3969,873.4103,214.5114,873,214.521,873,215.134,863.1176,214.0379,853.2353,213.8688,843.3529,213.8996,833.4706,214.4621,823.5882,214.3245,813.7059,215.2024,803.8235,214.3463,793.9412,214.1779,784.0588,214.7493,774.1765,213.8542,764.2941,214.0019,754.4118,215.1699,744.5294,214.9567,734.6471,215.2555,724.7647,214.1992,714.8824,214.8402,705,214.521,705.0753,214.7028,704.5862,214.2291,704.2807,214.1986,703.9554,214.1205,703.6689,214.1359,703.2322,213.7888,703.2309,213.7882,703.2282,213.4942,702.7688,213.011,702.5843,212.6417,702.8015,212.4388,702.5,212.021,701.7831,212.021,703.009,202.895,702.7066,193.7691,702.2321,184.6431,702.1462,175.5171,702.5,166.3912,702.6413,166.4497,702.5543,165.9994,702.9752,165.7596,702.7691,165.26,703.2759,165.0557,703.2322,164.6234,703.294,164.7725,703.617,164.5524,703.9454,164.345,704.3856,164.4078,704.7247,164.2266,705,163.8912" style="stroke:#181818;stroke-width:4.0;"/><text fill="#000000" font-family="Chalkduster" font-size="24" lengthAdjust="spacing" textLength="153" x="712.5" y="197.732">description</text></g><!--entity iaadapt--><g id="elem_iaadapt"><polygon fill="none" points="313.5,508.5212,313.5,508.7313,323.3214,508.1068,333.1429,508.7144,342.9643,508.9208,352.7857,507.8078,362.6071,508.4434,372.4286,508.0947,382.25,508.1377,392.0714,508.453,401.8929,507.8298,411.7143,509.0748,421.5357,507.8909,431.3571,508.3234,441.1786,508.9531,451,508.4354,460.8214,508.5894,470.6429,508.4892,480.4643,508.6997,490.2857,508.7603,500.1071,509.1069,509.9286,509.1922,519.75,509.2004,529.5714,508.7758,539.3929,508.9847,549.2143,509.2234,559.0357,507.8,568.8571,509.1997,578.6786,508.2247,588.5,508.5212,588.5681,508.6856,588.7904,508.5152,589.1984,508.793,589.6553,509.1889,589.908,509.0919,590.2678,509.2534,590.3002,509.2668,590.5185,509.6501,590.6888,510.0136,590.7059,510.3136,590.942,510.7042,591,511.0212,590.4276,511.0212,591.2844,520.1471,591.5482,529.2731,591.4445,538.3991,591.613,547.525,591,556.651,590.8512,556.5894,590.6527,556.9214,590.5157,557.2788,590.5425,557.7041,590.3537,558.0401,590.2678,558.4188,590.3547,558.6286,589.8919,558.5114,589.5169,558.606,589.2362,558.9284,588.7685,558.7992,588.5,559.151,588.5,558.6319,578.6786,559.7999,568.8571,559.5867,559.0357,559.8855,549.2143,558.8292,539.3929,559.4702,529.5714,559.7414,519.75,558.6786,509.9286,559.0551,500.1071,559.277,490.2857,559.8028,480.4643,559.1468,470.6429,559.6136,460.8214,558.5972,451,558.4737,441.1786,559.6546,431.3571,558.4341,421.5357,559.66,411.7143,559.3576,401.8929,558.8831,392.0714,558.7972,382.25,559.6098,372.4286,558.8517,362.6071,559.7429,352.7857,558.5982,342.9643,559.7684,333.1429,559.6353,323.3214,559.396,313.5,559.151,313.506,559.1655,313.2391,559.2283,312.8712,559.0471,312.4609,558.7638,312.12,558.6478,311.7322,558.4188,311.6921,558.4021,311.8064,558.1566,311.487,557.7314,311.346,557.3801,310.9591,556.9269,311,556.651,310.5948,556.651,311.5307,547.525,311.4298,538.3991,310.9571,529.2731,310.6778,520.1471,311,511.0212,310.9326,510.9932,310.9351,510.5801,311.4206,510.367,311.6671,510.0548,311.7479,509.6741,311.7322,509.2534,311.8209,509.4674,312.0683,509.0648,312.4505,508.9874,312.7435,508.6947,313.1827,508.7551,313.5,508.5212" style="stroke:#181818;stroke-width:4.0;"/><text fill="#000000" font-family="Chalkduster" font-size="24" lengthAdjust="spacing" textLength="260" x="321" y="542.362">Trove API adaptor</text></g><!--entity Web UI--><g id="elem_Web UI"><polygon fill="none" points="1193.5,508.5212,1193.5,508.7313,1203.4091,508.1068,1213.3182,508.7144,1223.2273,508.9208,1233.1364,507.8078,1243.0455,508.4434,1252.9545,508.0947,1262.8636,508.1377,1272.7727,508.453,1282.6818,507.8298,1292.5909,509.0748,1302.5,508.5212,1302.4196,508.3271,1302.8283,508.6067,1303.2622,508.9471,1303.5497,508.9341,1303.9229,509.128,1304.2678,509.2534,1304.2579,509.2493,1304.4692,509.6297,1304.6343,509.991,1304.8875,510.3888,1305.0602,510.7532,1305,511.0212,1305.6793,511.0212,1305.2546,520.1471,1305.4636,529.2731,1305.7022,538.3991,1304.2788,547.525,1305,556.651,1305.209,556.7375,1304.7622,556.9667,1304.8715,557.4262,1304.4082,557.6485,1304.3931,558.0565,1304.2678,558.4188,1304.3624,558.6471,1303.908,558.5502,1303.5741,558.7441,1303.2503,558.9624,1302.9066,559.1327,1302.5,559.151,1302.5,559.1471,1292.5909,559.4382,1282.6818,558.5786,1272.7727,559.4354,1262.8636,559.6992,1252.9545,559.5955,1243.0455,559.764,1233.1364,558.6679,1223.2273,558.4988,1213.3182,558.5296,1203.4091,559.0921,1193.5,559.151,1193.4749,559.0905,1193.2334,559.2144,1192.7706,558.8043,1192.3956,558.606,1192.1149,558.6355,1191.7322,558.4188,1191.5269,558.3337,1191.4259,557.999,1191.6392,557.7944,1191.4271,557.4137,1191.3726,557.0982,1191,556.651,1190.6782,556.651,1191.3192,547.525,1191.5904,538.3991,1190.5276,529.2731,1190.9041,520.1471,1191,511.0212,1191.0388,511.0372,1191.3472,510.7507,1191.2916,510.3135,1191.5818,510.0195,1191.4152,509.5363,1191.7322,509.2534,1191.6458,509.0448,1192.15,509.262,1192.3479,508.7397,1192.8578,508.9708,1193.1728,508.7312,1193.5,508.5212" style="stroke:#181818;stroke-width:4.0;"/><text fill="#000000" font-family="Chalkduster" font-size="24" lengthAdjust="spacing" textLength="94" x="1201" y="542.362">Web UI</text></g><!--entity iiifapi--><g id="elem_iiifapi"><polygon fill="#00FF7F" points="1153.5,955.8312,1153.5,956.0413,1163.4655,955.4168,1173.431,956.0244,1183.3966,956.2308,1193.3621,955.1178,1203.3276,955.7534,1213.2931,955.4047,1223.2586,955.4477,1233.2241,955.763,1243.1897,955.1398,1253.1552,956.3848,1263.1207,955.2009,1273.0862,955.6334,1283.0517,956.2631,1293.0172,955.7454,1302.9828,955.8994,1312.9483,955.7992,1322.9138,956.0097,1332.8793,956.0703,1342.8448,956.4169,1352.8103,956.5022,1362.7759,956.5104,1372.7414,956.0858,1382.7069,956.2947,1392.6724,956.5334,1402.6379,955.11,1412.6034,956.5097,1422.569,955.5347,1432.5345,956.365,1442.5,955.8312,1442.4369,955.6787,1442.8448,955.9565,1443.3017,956.3524,1443.5544,956.2555,1443.9276,956.4494,1444.2678,956.5634,1444.3721,956.6066,1444.5424,956.97,1444.5595,957.27,1444.7956,957.6607,1444.6773,957.9046,1445,958.3312,1445.2844,958.3312,1445.5482,967.8636,1445.4445,977.3961,1445.613,986.9285,1444.5169,996.461,1444.3478,1005.9935,1444.3786,1015.5259,1444.9411,1025.0584,1445,1034.5908,1444.9395,1034.5658,1445.0634,1035.0313,1444.6533,1035.2757,1444.455,1035.6077,1444.4845,1036.0342,1444.2678,1036.3586,1444.1827,1036.1532,1443.848,1036.3452,1443.6434,1036.8513,1443.2627,1036.9321,1442.9472,1037.1706,1442.5,1037.0908,1442.5,1036.769,1432.5345,1037.41,1422.569,1037.6812,1412.6034,1036.6184,1402.6379,1036.995,1392.6724,1037.2168,1382.7069,1037.7426,1372.7414,1037.0866,1362.7759,1037.5534,1352.8103,1036.537,1342.8448,1036.4136,1332.8793,1037.5944,1322.9138,1036.3739,1312.9483,1037.5998,1302.9828,1037.2975,1293.0172,1036.8229,1283.0517,1036.7371,1273.0862,1037.5496,1263.1207,1036.7915,1253.1552,1037.6827,1243.1897,1036.5381,1233.2241,1037.7083,1223.2586,1037.5751,1213.2931,1037.3358,1203.3276,1037.138,1193.3621,1037.8174,1183.3966,1037.7044,1173.431,1037.2601,1163.4655,1037.359,1153.5,1037.0908,1153.4834,1037.0507,1153.2378,1037.165,1152.8126,1036.8456,1152.4614,1036.7046,1152.0082,1036.3177,1151.7322,1036.3586,1151.6074,1036.3069,1151.7492,1036.0727,1151.5717,1035.7063,1151.2797,1035.2925,1151.0472,1034.9033,1151,1034.5908,1150.7811,1034.5908,1150.3138,1025.0584,1151.4147,1015.5259,1151.7396,1005.9935,1151.5264,996.461,1151.6949,986.9285,1150.8633,977.3961,1151.0872,967.8636,1151,958.3312,1150.8806,958.2817,1151.2339,958.0138,1151.3689,957.6555,1151.6095,957.341,1151.5151,956.8877,1151.7322,956.5634,1151.7151,956.522,1152.1424,956.5535,1152.5117,956.4452,1152.7275,955.9662,1153.1217,955.9179,1153.5,955.8312" style="stroke:#181818;stroke-width:4.0;"/><text fill="#000000" font-family="Chalkduster" font-size="24" font-style="italic" lengthAdjust="spacing" textLength="169" x="1213.5" y="989.672">&#171;repository&#187;</text><text fill="#000000" font-family="Chalkduster" font-size="24" lengthAdjust="spacing" textLength="274" x="1161" y="1020.3019">Trial IIF API proxy</text></g><!--entity Newspapers--><g id="elem_Newspapers"><polygon fill="none" points="1252,1324.9612,1252,1325.1713,1261.7647,1324.5468,1271.5294,1325.1544,1281.2941,1325.3608,1291.0588,1324.2478,1300.8235,1324.8834,1310.5882,1324.5347,1320.3529,1324.5777,1330.1176,1324.893,1339.8824,1324.2698,1349.6471,1325.5148,1359.4118,1324.3309,1369.1765,1324.7634,1378.9412,1325.3931,1388.7059,1324.8754,1398.4706,1325.0294,1408.2353,1324.9292,1418,1324.9612,1418.0228,1325.0161,1418.3841,1325.1813,1418.7818,1325.4344,1419.1463,1325.6072,1419.5009,1325.7561,1419.7678,1325.6934,1419.8462,1325.7259,1420.057,1326.1061,1420.2769,1326.4901,1419.985,1326.6621,1420.5625,1327.1942,1420.5,1327.4612,1420.2035,1327.4612,1421.0338,1336.5871,1420.005,1345.7131,1420.4315,1354.8391,1421.2416,1363.965,1420.5,1373.091,1420.485,1373.0848,1420.386,1373.458,1420.3114,1373.8413,1420.1888,1374.2047,1419.913,1374.5047,1419.7678,1374.8588,1419.8044,1374.9472,1419.3412,1374.8289,1419.0969,1375.2392,1418.777,1375.4669,1418.4103,1375.5814,1418,1375.591,1418,1376.204,1408.2353,1375.1079,1398.4706,1374.9388,1388.7059,1374.9696,1378.9412,1375.5321,1369.1765,1375.3945,1359.4118,1376.2724,1349.6471,1375.4163,1339.8824,1375.2479,1330.1176,1375.8193,1320.3529,1374.9242,1310.5882,1375.0719,1300.8235,1376.2399,1291.0588,1376.0267,1281.2941,1376.3255,1271.5294,1375.2692,1261.7647,1375.9102,1252,1375.591,1252.0753,1375.7728,1251.5862,1375.2991,1251.2807,1375.2686,1250.9554,1375.1905,1250.6689,1375.2059,1250.2322,1374.8588,1250.2309,1374.8582,1250.2282,1374.5642,1249.7688,1374.081,1249.5843,1373.7117,1249.8015,1373.5088,1249.5,1373.091,1248.7831,1373.091,1250.009,1363.965,1249.7066,1354.8391,1249.2321,1345.7131,1249.1462,1336.5871,1249.5,1327.4612,1249.6413,1327.5197,1249.5543,1327.0694,1249.9752,1326.8296,1249.7691,1326.33,1250.2759,1326.1257,1250.2322,1325.6934,1250.294,1325.8425,1250.617,1325.6224,1250.9454,1325.415,1251.3856,1325.4778,1251.7247,1325.2966,1252,1324.9612" style="stroke:#181818;stroke-width:4.0;"/><text fill="#000000" font-family="Chalkduster" font-size="24" lengthAdjust="spacing" textLength="151" x="1259.5" y="1358.802">Newspapers</text></g><!--entity Other--><g id="elem_Other"><polygon fill="none" points="1126,1324.9612,1126,1325.1713,1135.5556,1324.5468,1145.1111,1325.1544,1154.6667,1325.3608,1164.2222,1324.2478,1173.7778,1324.8834,1183.3333,1324.5347,1192.8889,1324.5777,1202.4444,1324.893,1212,1324.9612,1211.9118,1324.7482,1212.4242,1325.2781,1212.6267,1325.06,1213.0354,1325.3396,1213.4693,1325.68,1213.7678,1325.6934,1213.7414,1325.6825,1213.9352,1326.0557,1214.0508,1326.3964,1214.2621,1326.7768,1214.4272,1327.1381,1214.5,1327.4612,1215.0857,1327.4612,1215.1711,1336.5871,1215.1793,1345.7131,1214.7546,1354.8391,1214.9636,1363.965,1214.5,1373.091,1214.7163,1373.1806,1214.1315,1373.3526,1214.4161,1373.8847,1213.9693,1374.1138,1214.0786,1374.5733,1213.7678,1374.8588,1213.7046,1374.7063,1213.4055,1374.9841,1213.1553,1375.38,1212.7009,1375.2831,1212.367,1375.477,1212,1375.591,1212,1375.9296,1202.4444,1376.0072,1192.8889,1375.5871,1183.3333,1375.8782,1173.7778,1375.0186,1164.2222,1375.8754,1154.6667,1376.1392,1145.1111,1376.0355,1135.5556,1376.204,1126,1375.591,1125.9384,1375.4422,1125.5633,1375.2437,1125.2136,1375.1067,1124.9318,1375.1335,1124.5607,1374.9447,1124.2322,1374.8588,1124.4421,1374.9457,1124.032,1374.4829,1123.8337,1374.1079,1123.8632,1373.8272,1123.4411,1373.3595,1123.5,1373.091,1122.9809,1373.091,1124.149,1363.965,1123.9357,1354.8391,1124.2345,1345.7131,1123.1782,1336.5871,1123.5,1327.4612,1123.5983,1327.5019,1123.8283,1327.1829,1123.6474,1326.6938,1123.9098,1326.3883,1124.1246,1326.063,1124.2322,1325.6934,1124.3154,1325.8941,1124.5853,1325.5457,1124.9983,1325.543,1125.2223,1325.0835,1125.5601,1324.899,1126,1324.9612" style="stroke:#181818;stroke-width:4.0;"/><text fill="#000000" font-family="Chalkduster" font-size="24" lengthAdjust="spacing" textLength="71" x="1133.5" y="1358.802">Other</text></g><!--entity API--><g id="elem_API"><polygon fill="none" points="1022,1324.9612,1022,1325.1713,1032.6667,1324.5468,1043.3333,1325.1544,1054,1325.3608,1064.6667,1324.2478,1075.3333,1324.8834,1086,1324.9612,1085.9456,1324.8298,1086.3046,1324.9895,1086.6984,1325.2331,1086.9725,1325.1876,1087.4848,1325.7174,1087.7678,1325.6934,1087.5737,1325.613,1087.8533,1326.0217,1088.1937,1326.4556,1088.1807,1326.7431,1088.3746,1327.1163,1088.5,1327.4612,1088.4681,1327.4612,1088.6785,1336.5871,1088.7391,1345.7131,1089.0857,1354.8391,1089.1711,1363.965,1088.5,1373.091,1088.7092,1373.1776,1088.432,1373.477,1088.3499,1373.8572,1088.2769,1374.2412,1087.6921,1374.4132,1087.7678,1374.8588,1087.8543,1375.0677,1087.3764,1374.9139,1087.1288,1375.316,1086.644,1375.1457,1086.3448,1375.4235,1086,1375.591,1086,1376.3326,1075.3333,1375.5423,1064.6667,1375.6963,1054,1375.9296,1043.3333,1376.0072,1032.6667,1375.5871,1022,1375.591,1022.0366,1375.6794,1021.5734,1375.2683,1021.3292,1375.3857,1021.0093,1375.3205,1020.6425,1375.1421,1020.2322,1374.8588,1020.421,1374.937,1019.937,1374.4436,1019.7385,1374.0685,1019.6015,1373.7188,1019.6283,1373.437,1019.5,1373.091,1019.3035,1373.091,1020.1814,1363.965,1019.3253,1354.8391,1019.1569,1345.7131,1019.7283,1336.5871,1019.5,1327.4612,1019.2946,1327.3761,1019.4866,1327.0414,1019.9927,1326.8368,1020.0735,1326.4561,1020.312,1326.1406,1020.2322,1325.6934,1020.1912,1325.5943,1020.6265,1325.6452,1021.0147,1325.5823,1021.2326,1325.1086,1021.6342,1325.0781,1022,1324.9612" style="stroke:#181818;stroke-width:4.0;"/><text fill="#000000" font-family="Chalkduster" font-size="24" lengthAdjust="spacing" textLength="49" x="1029.5" y="1358.802">API</text></g><!--entity atapapi--><g id="elem_atapapi"><polygon fill="none" points="1050,971.1512,1050,971.3613,1060.6667,970.7368,1071.3333,971.3444,1082,971.5508,1092.6667,970.4378,1103.3333,971.0734,1114,971.1512,1113.9456,971.0198,1114.3046,971.1795,1114.6984,971.4231,1114.9725,971.3776,1115.4848,971.9074,1115.7678,971.8834,1115.5737,971.803,1115.8533,972.2117,1116.1937,972.6456,1116.1807,972.9331,1116.3746,973.3063,1116.5,973.6512,1116.4681,973.6512,1116.6785,982.7771,1116.7391,991.9031,1117.0857,1001.0291,1117.1711,1010.155,1116.5,1019.281,1116.7092,1019.3676,1116.432,1019.667,1116.3499,1020.0472,1116.2769,1020.4312,1115.6921,1020.6032,1115.7678,1021.0488,1115.8543,1021.2577,1115.3764,1021.1039,1115.1288,1021.506,1114.644,1021.3357,1114.3448,1021.6135,1114,1021.781,1114,1022.5226,1103.3333,1021.7323,1092.6667,1021.8863,1082,1022.1196,1071.3333,1022.1972,1060.6667,1021.7771,1050,1021.781,1050.0366,1021.8694,1049.5734,1021.4583,1049.3292,1021.5757,1049.0093,1021.5105,1048.6425,1021.3321,1048.2322,1021.0488,1048.421,1021.127,1047.937,1020.6336,1047.7385,1020.2585,1047.6015,1019.9088,1047.6283,1019.627,1047.5,1019.281,1047.3035,1019.281,1048.1814,1010.155,1047.3253,1001.0291,1047.1569,991.9031,1047.7283,982.7771,1047.5,973.6512,1047.2946,973.5661,1047.4866,973.2314,1047.9927,973.0268,1048.0735,972.6461,1048.312,972.3306,1048.2322,971.8834,1048.1912,971.7843,1048.6265,971.8352,1049.0147,971.7723,1049.2326,971.2986,1049.6342,971.2681,1050,971.1512" style="stroke:#181818;stroke-width:4.0;"/><text fill="#000000" font-family="Chalkduster" font-size="24" lengthAdjust="spacing" textLength="49" x="1057.5" y="1004.992">API</text></g><!--entity atapui--><g id="elem_atapui"><polygon fill="none" points="901.5,971.1512,901.5,971.3613,911.4091,970.7368,921.3182,971.3444,931.2273,971.5508,941.1364,970.4378,951.0455,971.0734,960.9545,970.7247,970.8636,970.7677,980.7727,971.083,990.6818,970.4598,1000.5909,971.7048,1010.5,971.1512,1010.4196,970.9571,1010.8283,971.2367,1011.2622,971.5771,1011.5497,971.5641,1011.9229,971.758,1012.2678,971.8834,1012.2579,971.8793,1012.4692,972.2597,1012.6343,972.621,1012.8875,973.0188,1013.0602,973.3832,1013,973.6512,1013.6793,973.6512,1013.2546,982.7771,1013.4636,991.9031,1013.7022,1001.0291,1012.2788,1010.155,1013,1019.281,1013.209,1019.3675,1012.7622,1019.5967,1012.8715,1020.0562,1012.4082,1020.2785,1012.3931,1020.6865,1012.2678,1021.0488,1012.3624,1021.2771,1011.908,1021.1802,1011.5741,1021.3741,1011.2503,1021.5924,1010.9066,1021.7627,1010.5,1021.781,1010.5,1021.7771,1000.5909,1022.0682,990.6818,1021.2086,980.7727,1022.0654,970.8636,1022.3292,960.9545,1022.2255,951.0455,1022.394,941.1364,1021.2979,931.2273,1021.1288,921.3182,1021.1596,911.4091,1021.7221,901.5,1021.781,901.4749,1021.7205,901.2334,1021.8444,900.7706,1021.4343,900.3956,1021.236,900.1149,1021.2655,899.7322,1021.0488,899.5269,1020.9637,899.4259,1020.629,899.6392,1020.4244,899.4271,1020.0437,899.3726,1019.7282,899,1019.281,898.6782,1019.281,899.3192,1010.155,899.5904,1001.0291,898.5276,991.9031,898.9041,982.7771,899,973.6512,899.0388,973.6672,899.3472,973.3807,899.2916,972.9435,899.5818,972.6495,899.4152,972.1663,899.7322,971.8834,899.6458,971.6748,900.15,971.892,900.3479,971.3697,900.8578,971.6008,901.1728,971.3612,901.5,971.1512" style="stroke:#181818;stroke-width:4.0;"/><text fill="#000000" font-family="Chalkduster" font-size="24" lengthAdjust="spacing" textLength="94" x="909" y="1004.992">Web UI</text></g><!--link iaadapt to API--><g id="link_iaadapt_API"><path d="M310.5,547.9612 L310.5121,548.0538 L305.4944,548.4273 L300.5475,549.3438 L295.5776,550.0835 L290.5319,550.2416 L285.5911,551.2047 L285.5862,551.1705 L280.4413,551.7516 L275.3212,552.505 L270.2183,553.3782 L265.0562,553.8385 L259.977,554.8771 L260.0155,555.1201 L254.7331,555.4246 L249.5631,556.4385 L244.4069,557.539 L239.1708,558.1359 L233.9767,558.9977 L233.982,559.0275 L228.7608,559.9013 L223.5635,560.911 L218.3547,561.8551 L213.168,562.9245 L207.9094,563.5857 L207.9669,563.8783 L202.8045,564.8969 L197.6051,565.7267 L192.4599,566.8328 L187.3173,567.9518 L182.094,568.6606 L182.0268,568.3472 L179.6145,569.5007 L176.981,569.6222 L174.5156,570.5282 L171.8771,570.6263 L169.3805,571.3867 L169.3737,571.357 L166.9475,572.279 L164.3633,572.5075 L161.8724,573.1453 L159.3892,573.8174 L156.8496,574.2417 L156.8932,574.4215 L154.3875,574.8373 L151.9564,575.5603 L149.4046,575.7863 L147.0327,576.7537 L144.5412,577.2281 L144.6023,577.464 L142.1816,578.0434 L139.7912,578.74 L137.2598,578.8924 L134.8318,579.4437 L132.4953,580.3483 L132.4215,580.0822 L130.1395,580.9744 L127.7744,581.5668 L125.53,582.5941 L123.0796,582.8787 L120.7516,583.6048 L120.708,583.4587 L118.5002,584.3811 L116.1064,584.6788 L113.8448,585.4207 L111.7126,586.5973 L109.35,586.9999 L109.4092,587.1843 L107.2458,588.018 L104.8985,588.2782 L102.7816,589.2567 L100.6146,590.0787 L98.3305,590.5361 L98.2616,590.3377 L96.197,591.2318 L94.1098,592.0608 L92.0669,593.0175 L89.8518,593.478 L87.7329,594.2157 L87.8055,594.4081 L85.6188,594.7506 L83.5722,595.4643 L81.7304,596.7205 L79.5117,596.9781 L77.597,598.0413 L77.6833,598.2504 L75.7052,598.921 L73.698,599.5208 L71.7566,600.2803 L69.9675,601.4089 L67.9629,602.0152 L67.9056,601.8951 L64.5554,603.933 L60.8156,605.1544 L57.5188,607.3042 L53.9726,608.9313 L50.3591,610.4176 L50.4149,610.511 L47.3462,612.2405 L44.4773,614.3047 L41.4278,616.0665 L38.3029,617.7019 L35.2406,619.4423 L35.3142,619.536 L32.742,621.33 L30.5116,623.5593 L27.8946,625.2962 L25.4366,627.2357 L22.9264,629.1086 L22.7244,628.9289 L20.9537,631.0544 L19.4263,633.3964 L17.5546,635.432 L15.5595,637.3578 L13.7355,639.436 L13.6086,639.3697 L12.4996,641.5925 L11.1658,643.6979 L10.4498,646.126 L9.4281,648.3943 L7.9871,650.4437 L8.2177,650.4829 L7.8942,652.8369 L7.1323,655.1165 L6.833,657.4747 L6.2276,659.7808 L6,662.1512 L6.3787,662.1512 L6.329,672.0736 L6.7365,681.996 L5.6938,691.9184 L5.8208,701.8408 L6.5913,711.7632 L6.7564,721.6856 L5.3166,731.608 L5.7415,741.5304 L6.199,751.4528 L5.1855,761.3752 L6.4712,771.2976 L6.344,781.22 L5.8657,791.1425 L6.1897,801.0649 L6.9716,810.9873 L5.5828,820.9097 L6.42,830.8321 L6.3809,840.7545 L6.1544,850.6769 L6.1879,860.5993 L6.1513,870.5217 L5.1678,880.4441 L5.4656,890.3665 L5.3846,900.2889 L6.0851,910.2113 L6.1175,920.1338 L6.2157,930.0562 L5.612,939.9786 L5.91,949.901 L5.8397,959.8234 L6.7691,969.7458 L6.5688,979.6682 L5.3526,989.5906 L5.9028,999.513 L5.2304,1009.4354 L6.3845,1019.3578 L6.8113,1029.2802 L6.7261,1039.2026 L5.4193,1049.125 L6.6186,1059.0475 L5.0096,1068.9699 L6.2669,1078.8923 L5.6009,1088.8147 L6.129,1098.7371 L6.3204,1108.6595 L6.6295,1118.5819 L5.0401,1128.5043 L6.634,1138.4267 L6.2376,1148.3491 L6.4738,1158.2715 L6.9971,1168.1939 L6.0073,1178.1163 L6.2337,1188.0388 L6,1197.9612 L6.0921,1197.9838 L6.5535,1199.8886 L6.9364,1201.7741 L7.7119,1203.7561 L7.6104,1205.5226 L8.3419,1207.4938 L8.5431,1207.6443 L9.49,1209.159 L10.8898,1211.0126 L12.4665,1212.9984 L13.8324,1214.8266 L15.1924,1216.6504 L15.0564,1216.4787 L17.5258,1218.552 L19.6609,1220.2031 L22.0507,1222.1757 L24.2535,1223.9123 L26.2886,1225.4373 L26.1915,1225.2633 L29.2182,1226.9675 L32.2923,1228.7565 L35.4131,1230.6292 L38.4392,1232.3323 L41.3677,1233.8607 L41.4232,1233.9825 L43.0949,1234.5378 L45.0653,1235.749 L46.855,1236.5634 L48.5197,1237.1034 L50.3186,1237.938 L50.2787,1237.8395 L52.2213,1238.5705 L54.2221,1239.4452 L56.2504,1240.388 L58.1857,1241.1009 L60.1667,1241.9269 L60.1032,1241.7524 L62.3833,1242.9107 L64.3818,1243.2957 L66.6705,1244.4774 L68.8015,1245.2262 L70.879,1245.8281 L70.9309,1245.985 L73.2843,1246.8831 L75.4623,1247.25 L77.7634,1247.9897 L80.1864,1249.0984 L82.4228,1249.6423 L82.3461,1249.3883 L84.8612,1250.2884 L87.3745,1251.1827 L89.837,1251.9084 L92.2506,1252.4723 L94.7651,1253.3704 L94.76,1253.352 L97.4753,1254.4178 L100.0855,1255.1052 L102.5589,1255.3007 L105.2608,1256.3183 L107.8731,1257.0132 L107.8162,1256.792 L110.6383,1257.7135 L113.4418,1258.5626 L116.224,1259.3288 L118.8722,1259.5736 L121.7139,1260.5714 L121.7553,1260.7445 L124.6229,1261.2699 L127.4729,1261.7211 L130.3897,1262.4524 L133.3803,1263.4921 L136.2547,1264.0458 L136.2789,1264.1542 L139.2947,1264.717 L142.2728,1265.1109 L145.4431,1266.3662 L148.3908,1266.6238 L151.4626,1267.4373 L151.4146,1267.2076 L154.6249,1268.0699 L157.853,1269.0176 L161.0238,1269.6906 L164.1395,1270.1 L167.3047,1270.7466 L167.2918,1270.6807 L170.608,1271.4662 L173.8981,1272.119 L177.1274,1272.4619 L180.495,1273.5095 L183.7483,1273.9745 L183.7935,1274.2187 L187.1333,1274.5097 L190.5184,1275.0458 L194.0101,1276.1577 L197.3597,1276.5015 L200.7604,1277.1218 L200.7604,1277.1217 L204.2928,1277.8662 L207.7301,1278.0661 L211.3296,1279.1943 L214.7974,1279.569 L218.3081,1280.1892 L218.3567,1280.4825 L221.9026,1280.6923 L225.558,1281.5639 L229.1062,1281.7876 L232.7664,1282.6874 L236.3587,1283.1777 L236.3842,1283.3443 L243.8323,1284.1824 L251.3744,1285.6343 L258.8071,1286.3724 L266.3095,1287.5653 L273.8368,1288.9206 L273.8786,1289.2212 L281.6977,1290.3091 L289.5097,1291.3453 L297.2718,1292.0237 L305.1364,1293.4387 L312.9319,1294.3568 L312.9055,1294.1487 L321.025,1295.4096 L329.1115,1296.4106 L337.1867,1297.3226 L345.3257,1298.7371 L353.381,1299.4927 L353.4039,1299.6884 L361.6726,1300.3195 L370.0243,1301.6619 L378.31,1302.4384 L386.5833,1303.1086 L394.9214,1304.3346 L394.9103,1304.2314 L403.3701,1305.0133 L411.8622,1306.0947 L420.3127,1306.7891 L428.7878,1307.7126 L437.29,1308.8887 L437.2931,1308.9198 L445.8715,1309.69 L454.461,1310.5718 L463.0441,1311.3889 L471.6446,1312.3808 L480.2241,1313.1613 L480.2013,1312.9157 L488.8779,1314.0317 L497.4883,1314.4315 L506.1781,1315.6909 L514.8376,1316.6217 L523.4607,1317.1589 L523.4806,1317.3901 L532.1297,1318.0647 L540.7785,1318.7355 L549.4305,1319.443 L558.0573,1319.8585 L566.737,1320.8877 L566.7529,1321.0855 L575.3593,1321.727 L583.9527,1322.2062 L592.5686,1322.9649 L601.172,1323.5683 L609.79,1324.3539 L609.7973,1324.4504 L618.3262,1325.2976 L626.805,1325.4811 L635.3459,1326.4878 L643.8407,1326.8825 L652.357,1327.564 L652.3451,1327.3959 L660.7071,1327.9646 L669.064,1328.4623 L677.434,1329.1447 L685.8126,1329.9483 L694.1751,1330.5242 L694.1832,1330.6453 L702.3533,1331.3231 L710.51,1331.7972 L718.6378,1331.8387 L726.8383,1332.972 L734.9813,1333.2408 L734.9948,1333.4565 L742.9027,1333.9766 L750.8084,1334.4641 L758.6819,1334.4361 L766.5993,1335.11 L774.5128,1335.7202 L774.537,1336.1408 L785.0741,1335.6896 L795.7013,1336.8039 L806.3125,1337.6404 L816.9306,1338.5955 L827.5073,1338.8328 L838.1591,1340.3735 L848.7002,1339.9924 L848.7284,1340.5402 L858.1369,1340.819 L867.5014,1340.2446 L876.9809,1341.9002 L886.3373,1341.1697 L895.8169,1342.8273 L905.2156,1342.9162 L914.6342,1343.3914 L914.6527,1343.7902 L923.8917,1343.7043 L933.1479,1343.9889 L942.3772,1343.6926 L951.6727,1344.8232 L960.9053,1344.5992 L970.2118,1345.9674 L970.2072,1345.8581 L978.8436,1346.5226 L987.4621,1346.7603 L996.0743,1346.8492 L1004.7109,1347.5196 L1013.33,1347.7712 " fill="none" style="stroke:#181818;stroke-width:4.0;"/><polygon fill="#181818" points="1018.13,1348.0012,1018.1608,1348.0641,1016.3003,1347.0107,1014.6204,1346.3261,1012.8817,1345.5215,1010.9495,1344.3218,1009.2851,1343.6689,1009.2661,1343.6513,1009.9506,1344.4014,1010.7308,1345.2404,1011.5775,1346.1411,1012.1949,1346.829,1013.1335,1347.815,1013.259,1347.9503,1012.1613,1348.4307,1011.4302,1349.3061,1010.7437,1350.2296,1009.7971,1350.8728,1008.9873,1351.6634,1008.9958,1351.6845,1010.8119,1350.921,1012.6665,1350.2537,1014.5026,1349.54,1016.3741,1348.9148,1018.13,1348.0012" style="stroke:#181818;stroke-width:4.0;"/><text fill="#000000" font-family="Chalkduster" font-size="24" lengthAdjust="spacing" textLength="354" x="7" y="974.802">Request data using GLAM</text><text fill="#000000" font-family="Chalkduster" font-size="24" lengthAdjust="spacing" textLength="271" x="48.5" y="1005.4319">workbench libraries</text><text fill="#000000" font-family="Chalkduster" font-size="24" lengthAdjust="spacing" textLength="293" x="37.5" y="1036.0617">package as RO-Crate</text></g><!--link examples to iaw--><g id="link_examples_iaw"><path d="M945.07,215.0112 L945.1151,215.093 L942.5512,216.189 L940.2517,217.7646 L937.8661,219.184 L935.1975,220.0898 L932.9206,221.7066 L932.9053,221.6757 L930.2469,222.8179 L927.6658,224.1162 L925.1383,225.5229 L922.4259,226.5558 L919.9725,228.1124 L920.0692,228.3387 L917.1791,229.0013 L914.5712,230.3246 L911.9978,231.7285 L909.224,232.6635 L906.5556,233.8451 L906.5655,233.8737 L903.8399,234.7669 L901.1592,235.7905 L898.4569,236.7512 L895.796,237.832 L893,238.5212 L893.0455,238.8159 L891.2004,239.1044 L889.3259,239.2028 L887.4944,239.5795 L885.6649,239.9692 L883.7716,239.9457 L883.767,239.6252 L881.3871,240.2818 L878.9918,239.883 L876.6082,240.2866 L874.2126,239.864 L871.8269,240.1185 L871.8257,240.0881 L869.1066,240.3451 L866.3608,239.8914 L863.6307,239.8571 L860.902,239.858 L858.1637,239.6049 L858.1718,239.7897 L855.2869,239.4761 L852.4158,239.4784 L849.5222,238.9697 L846.6623,239.2232 L843.78,238.9699 L843.7833,239.2135 L840.9614,239.1293 L838.1412,239.1659 L835.3134,238.6406 L832.4911,238.5273 L829.6738,238.7789 L829.6563,238.5033 L827.106,238.9164 L824.536,239.0189 L821.9947,239.572 L819.4043,239.3559 L816.8431,239.5969 L816.788,239.4548 L813.3112,241.0764 L809.5987,242.0903 L806.0538,243.5364 L802.673,245.4052 L799,246.5212 L799.1489,246.6449 L797.7656,248.5171 L795.9191,250.0044 L794.6528,251.9737 L793.2601,253.8381 L791.5728,255.4577 L791.399,255.3399 L790.2581,257.3228 L789.0604,259.2671 L787.9744,261.2871 L786.4536,263.0127 L785.1758,264.9027 L785.3561,265.0014 L783.8762,266.7651 L782.7443,268.7193 L782.1211,270.9518 L780.5615,272.672 L779.7573,274.8055 L779.9647,274.8958 L778.9433,276.9041 L777.8516,278.8818 L776.9184,280.9285 L776.3512,283.1346 L775.266,285.1151 L775.14,285.0724 L774.792,287.3327 L773.5871,289.3025 L773.3565,291.6026 L772.5774,293.7168 L771.6504,295.7808 L771.7559,295.8077 L771.1124,297.9802 L770.8468,300.2489 L770.2398,302.4307 L769.4901,304.5762 L768.8589,306.7519 L768.9763,306.773 L768.3982,308.9867 L768.3648,311.2984 L767.7154,313.4993 L767.3194,315.7458 L766.8402,317.9773 L766.5715,317.9468 L766.4017,320.2429 L766.5556,322.5756 L766.2515,324.8564 L765.7832,327.1185 L765.5427,329.4065 L765.3997,329.3987 L765.3199,331.7176 L764.987,334.0228 L765.35,336.3656 L765.3686,338.6898 L764.9149,340.9884 L765.1488,340.9886 L765.2218,343.3255 L764.8503,345.662 L764.9479,347.9989 L764.735,350.3355 L764.9053,352.6725 L765.0314,352.6784 L765.1263,355.0247 L765.3735,357.3782 L765.1377,359.7087 L765.2915,362.0578 L765.4626,364.4077 L765.6589,364.4256 L765.9282,366.7778 L765.6648,369.0812 L766.0203,371.4412 L766.3867,373.8022 L766.5351,376.1433 L766.266,376.1079 L766.9981,378.5008 L767.2634,380.8323 L767.4126,383.1486 L767.8269,385.4997 L768.0715,387.8285 L768.3909,387.8823 L768.3241,390.1223 L768.989,392.4854 L769.3659,394.8 L769.6812,397.1043 L770.0202,399.4125 L770.0816,399.4249 L770.5316,401.7089 L770.6721,403.9304 L771.2314,406.2365 L771.6668,408.5175 L772.3298,410.8445 L772.3575,410.8508 L772.6228,411.9818 L772.9095,413.1176 L772.9681,414.2019 L773.3197,415.3524 L773.6038,416.4876 L773.5518,416.4753 L773.9861,417.1069 L774.0539,417.6516 L773.7922,418.1182 L774.1035,418.7206 L774.2678,419.2882 " fill="none" style="stroke:#181818;stroke-width:4.0;"/><polygon fill="#181818" points="774.2678,419.2882,774.3367,419.3008,774.4884,417.3259,775.0439,415.4253,775.468,413.5005,775.4594,411.4961,776.0497,409.6018,776.0276,409.5883,775.3379,410.4927,774.7597,411.4652,774.2588,412.4852,773.4912,413.3418,773.0973,414.4271,773.1936,414.5845,772.0226,413.6574,771.1327,413.1899,770.2772,412.7785,769.2221,412.0408,768.272,411.4747,768.29,411.4886,769.4627,413.0309,770.7175,414.6363,771.9327,416.2113,773.2235,417.8443,774.2678,419.2882" style="stroke:#181818;stroke-width:4.0;"/><text fill="#000000" font-family="Chalkduster" font-size="24" lengthAdjust="spacing" textLength="303" x="808" y="271.362">How to find an image</text><text fill="#000000" font-family="Chalkduster" font-size="24" lengthAdjust="spacing" textLength="117" x="901" y="301.9919">in Trove</text><text fill="#000000" font-family="Chalkduster" font-size="24" lengthAdjust="spacing" textLength="319" x="800" y="332.6217">and instantiate in IAW</text></g><!--link examples to ia--><g id="link_examples_ia"><path d="M1055.16,203.0012 L1055.1905,203.0895 L1057.024,203.4922 L1059.0363,204.4124 L1060.9904,205.1642 L1062.7529,205.3617 L1064.7805,206.3264 L1064.7677,206.2943 L1066.6268,206.9208 L1068.5508,207.7089 L1070.5199,208.6093 L1072.3335,209.1226 L1074.365,210.178 L1074.4695,210.4008 L1076.1304,210.8078 L1078.0962,211.8652 L1080.0993,213.002 L1081.8859,213.6771 L1083.7863,214.595 L1083.8009,214.6216 L1085.6057,215.5868 L1087.477,216.673 L1089.3162,217.7008 L1091.2167,218.84 L1092.9175,219.6162 L1093.08,219.8662 L1094.8248,221.0021 L1096.4648,221.9768 L1098.2582,223.1875 L1100.0588,224.4093 L1101.6315,225.2805 L1101.4349,225.0273 L1103.4504,226.7879 L1104.8185,227.7149 L1106.6789,229.2756 L1108.0323,230.1838 L1109.8013,231.6268 L1109.7804,231.6046 L1111.527,233.2801 L1112.7858,234.4379 L1114.3325,235.9012 L1115.9033,237.3901 L1117.2998,238.6941 L1117.4403,238.8144 L1118.6385,240.2583 L1120.0768,241.9079 L1121.1266,243.2249 L1122.756,245.0379 L1124,246.5212 L1124.1988,246.662 L1125.5246,248.5606 L1126.949,250.5291 L1127.9148,252.1728 L1129.2168,254.0545 L1130.8167,256.1473 L1130.5811,256.0032 L1132.0237,258.1433 L1133.2008,260.1211 L1134.763,262.3344 L1135.6678,264.1456 L1136.9633,266.1958 L1136.8285,266.1246 L1138.1543,268.328 L1138.9037,270.2271 L1140.063,272.3426 L1141.6232,274.6699 L1142.4694,276.6201 L1142.6456,276.7003 L1143.7455,278.906 L1144.2972,280.8622 L1145.5355,283.1309 L1146.6242,285.3315 L1147.3644,287.3734 L1147.1688,287.297 L1148.1873,289.5651 L1149.1418,291.8082 L1150.2222,294.1004 L1150.8133,296.2014 L1151.6777,298.4093 L1151.8727,298.4744 L1152.1965,300.5857 L1152.8967,302.8227 L1154.1468,305.2431 L1154.3844,307.3257 L1155.4389,309.6809 L1155.6566,309.7424 L1156.175,311.9981 L1156.6198,314.2329 L1157.2308,316.5147 L1158.226,318.905 L1158.6775,321.1417 L1158.5481,321.1111 L1159.4826,323.523 L1159.5366,325.7265 L1160.5918,328.1669 L1161.0833,330.474 L1161.423,332.7451 L1161.5298,332.7659 L1161.8999,335.0889 L1162.6526,337.4866 L1163.0597,339.8168 L1163.3222,342.1188 L1163.7047,344.4443 L1163.8225,344.4628 L1164.0171,346.785 L1164.7583,349.1931 L1164.8813,351.504 L1165.2586,353.8549 L1165.5523,356.1927 L1165.284,356.1598 L1165.6622,358.521 L1166.3636,360.9219 L1166.6076,363.2666 L1166.6877,365.5912 L1166.9952,367.9437 L1166.8526,367.9307 L1167.1119,370.2763 L1167.1186,372.5988 L1167.8194,374.9846 L1168.1767,377.3391 L1168.0629,379.6507 L1168.2964,379.6652 L1168.5156,381.9931 L1168.291,384.2934 L1168.5348,386.6228 L1168.4685,388.933 L1168.7849,391.2669 L1168.911,391.2714 L1168.9756,393.5666 L1169.1925,395.8671 L1168.9263,398.1506 L1169.0497,400.4479 L1169.1906,402.7458 L1169.3877,402.7479 L1169.4665,405.0074 L1169.0104,407.2614 L1169.1758,409.5218 L1169.3521,411.7824 L1169.3096,414.0407 L1169.0381,414.0388 L1169.4588,415.1545 L1169.4087,416.267 L1169.2415,417.3787 L1169.3417,418.4922 L1169.2707,419.6045 " fill="none" style="stroke:#181818;stroke-width:4.0;"/><polygon fill="#181818" points="1169.2707,419.6045,1169.3344,419.6338,1169.9679,417.7571,1170.9745,416.0519,1171.8597,414.2909,1172.3452,412.3461,1173.3839,410.6557,1173.3658,410.6371,1172.4746,411.3438,1171.6746,412.1439,1170.9379,413.009,1169.9829,413.6501,1169.3338,414.6049,1169.4659,414.7338,1168.3935,413.6482,1167.7069,412.9389,1167.0673,412.2754,1166.1539,411.3449,1165.3845,410.5548,1165.4054,410.5638,1166.152,412.3606,1166.9937,414.1982,1167.7895,416.0161,1168.6729,417.8716,1169.2707,419.6045" style="stroke:#181818;stroke-width:4.0;"/><text fill="#000000" font-family="Chalkduster" font-size="24" lengthAdjust="spacing" textLength="290" x="1163" y="271.362">Explains how to find</text><text fill="#000000" font-family="Chalkduster" font-size="24" lengthAdjust="spacing" textLength="247" x="1184.5" y="301.9919">text in Trove and</text><text fill="#000000" font-family="Chalkduster" font-size="24" lengthAdjust="spacing" textLength="271" x="1172.5" y="332.6217">analyse in IA in IA</text></g><!--link iaw to iiifapi--><g id="link_iaw_iiifapi"><path d="M823.1567,583.6642 L823.2486,583.6805 L823.0078,583.8147 L823.3062,584.0446 L823.429,584.2434 L822.9744,584.3396 L823.319,584.5778 L823.2851,584.5716 L823.2679,585.2861 L823.4221,586.0319 L823.6954,586.7994 L823.5582,587.4921 L823.9959,588.2895 L824.2371,588.3383 L824.3549,591.3698 L825.1769,594.5437 L826.0848,597.7349 L826.4928,600.8251 L827.1637,603.9684 L827.1932,603.9754 L827.9437,607.3194 L828.8284,610.6953 L829.6484,614.0558 L830.5921,617.4455 L831.1325,620.7399 L831.4199,620.8195 L832.3945,624.3298 L833.1837,627.7888 L834.2443,631.3229 L835.3176,634.8605 L835.9879,638.2866 L835.683,638.1879 L837.4404,641.9804 L838.1936,645.4478 L839.7103,649.1624 L840.4408,652.6224 L841.8157,656.2911 L841.7872,656.2803 L843.501,660.0369 L844.5497,663.5413 L845.9909,667.1945 L847.465,670.8602 L848.7014,674.4357 L848.8703,674.5112 L850.3058,678.0285 L852.0298,681.6748 L853.2869,685.1124 L855.2404,688.8613 L856.7309,692.4032 L856.9462,692.5173 L858.7573,695.9902 L860.6752,699.5199 L862.0966,702.7863 L863.8819,706.2457 L865.9898,709.8759 L865.7567,709.7279 L868.0826,713.194 L870.1457,716.4934 L872.59,720.0346 L874.3835,723.1628 L876.5639,726.5365 L876.4431,726.4434 L879.0392,729.7046 L881.1191,732.5679 L883.566,735.7142 L886.3721,739.1373 L888.5387,742.0674 L888.6787,742.2012 L891.4669,745.1097 L893.8198,747.6021 L896.718,750.6157 L899.4974,753.5157 L902,756.1512 L901.8648,755.9905 L904.8658,758.5537 L907.8226,761.0644 L910.8664,763.6783 L913.5719,765.8904 L916.4664,768.327 L916.5808,768.4978 L919.1537,770.0151 L921.9475,771.8621 L925.0639,774.1907 L927.5863,775.6326 L930.588,777.7899 L930.6913,777.9912 L933.3996,779.2933 L936.0729,780.5273 L938.8251,781.915 L941.7596,783.658 L944.4361,784.8983 L944.3894,784.7737 L947.2576,786.167 L949.8083,786.7131 L952.7199,788.2226 L955.4284,789.1896 L958.082,790.0105 L958.1091,790.116 L960.7902,790.7258 L963.5684,791.7132 L966.2589,792.3595 L968.9127,792.8632 L971.597,793.4852 L971.6162,793.6029 L974.2787,793.8672 L977.0304,794.6778 L979.6812,794.8705 L982.3735,795.3174 L985.0522,795.6808 L985.0268,795.4117 L987.7286,795.7565 L990.4612,796.4257 L993.1503,796.636 L995.8239,796.6818 L998.5191,796.9558 L998.5116,796.8128 L1001.2239,797.0012 L1003.9229,796.9364 L1006.6586,797.5676 L1009.3761,797.8543 L1012.0688,797.6687 L1012.0774,797.9025 L1014.821,798.0791 L1017.548,797.8116 L1020.2925,798.0129 L1023.0254,797.9038 L1025.7725,798.1778 L1025.7785,798.3039 L1028.5636,798.4202 L1031.3559,798.6886 L1034.1251,798.4742 L1036.913,798.6493 L1039.7017,798.8418 L1039.7179,799.0382 L1042.5676,799.3285 L1045.3732,799.0857 L1048.23,799.4623 L1051.0877,799.8497 L1053.9274,800.019 L1053.8897,799.7502 L1056.868,800.5844 L1059.7808,800.9522 L1062.6774,801.2041 L1065.6112,801.7208 L1068.5211,802.068 L1068.5901,802.3845 L1071.498,802.588 L1074.5641,803.5165 L1077.5678,804.1596 L1080.5583,804.7417 L1083.5539,805.3473 L1083.5726,805.407 L1086.6776,806.369 L1089.6883,807.0297 L1092.8266,808.098 L1095.9272,809.0459 L1099.0972,810.2152 L1099.1082,810.2414 L1102.3374,811.6143 L1105.5751,813.0075 L1108.7218,814.1852 L1111.9854,815.6397 L1115.2221,817.0304 L1115.1966,816.9834 L1118.7001,819.0798 L1122.0238,820.8452 L1125.1858,822.3133 L1128.6289,824.2985 L1132,826.1512 L1131.8625,825.9345 L1134.0726,827.5309 L1136.1527,828.9226 L1138.1414,830.1701 L1139.9119,831.0738 L1142.0195,832.5088 L1142.1364,832.6786 L1143.8086,833.5977 L1146.0227,835.3037 L1147.8732,836.4817 L1149.9494,837.9875 L1151.9014,839.3129 L1151.9649,839.3987 L1153.9712,840.9208 L1155.6011,841.9342 L1157.8621,843.8005 L1159.7285,845.1335 L1161.6265,846.5091 L1161.7243,846.6331 L1163.7421,848.2768 L1165.4476,849.5246 L1167.4041,851.0906 L1169.3244,852.6107 L1171.1755,854.043 L1171.2317,854.1103 L1173.046,855.6062 L1175.1195,857.4123 L1176.6139,858.5255 L1178.8196,860.4897 L1180.5292,861.8603 L1180.3459,861.6522 L1182.1983,863.2894 L1184.1966,865.0922 L1186.021,866.6975 L1187.6958,868.133 L1189.6684,869.9066 L1189.7931,870.0417 L1191.4823,871.5864 L1193.4496,873.4323 L1195.2127,875.057 L1196.6576,876.337 L1198.5738,878.1275 L1198.4511,878.0002 L1200.2645,879.7544 L1202.1445,881.5777 L1203.8896,883.2612 L1205.5887,884.8968 L1207.2263,886.4687 L1207.1186,886.3614 L1209.1026,888.3497 L1210.7778,890.0303 L1212.2395,891.498 L1213.8552,893.1192 L1215.6065,894.8757 L1215.4778,894.7521 L1217.1554,896.4933 L1218.886,898.2854 L1220.4378,899.9057 L1221.9436,901.4818 L1223.6952,903.2941 L1223.8539,903.4415 L1225.1014,904.8304 L1226.97,906.7963 L1228.5012,908.4487 L1230.0388,910.1071 L1231.4733,911.6697 L1231.7021,911.8756 L1232.8817,913.2523 L1234.3532,914.8917 L1236.1136,916.791 L1237.2346,918.1149 L1238.9214,919.948 L1238.8431,919.8796 L1240.3799,921.6071 L1241.784,923.2188 L1243.0608,924.7192 L1244.5862,926.4368 L1246.0204,928.0747 L1246.2726,928.289 L1247.5861,929.8455 L1248.5107,931.0714 L1250.0853,932.8497 L1251.2308,934.2633 L1252.751,935.9954 L1252.7419,935.988 L1255.3075,939.079 L1257.807,942.1159 L1259.8897,944.8118 L1262.712,948.1127 L1265.03,951.0012 " fill="none" style="stroke:#181818;stroke-width:4.0;"/><polygon fill="#181818" points="1268.66,954.5812,1268.7278,954.5988,1268.0317,952.6398,1267.7331,950.784,1267.305,948.8947,1266.4512,946.8948,1266.1867,945.0479,1266.161,945.045,1265.9175,946.1559,1265.8038,947.2817,1265.7803,948.4177,1265.446,949.5183,1265.547,950.6685,1265.5679,950.8518,1264.3991,950.3318,1263.2913,950.3471,1262.1909,950.4277,1261.0473,950.1283,1259.9264,950.0287,1259.9369,950.0489,1261.6682,950.9298,1263.4474,951.9025,1265.2034,952.8309,1267.0035,953.8438,1268.66,954.5812" style="stroke:#181818;stroke-width:4.0;"/><text fill="#000000" font-family="Chalkduster" font-size="24" lengthAdjust="spacing" textLength="208" x="903" y="733.492">Request images</text></g><!--link iiifapi to API--><g id="link_iiifapi_API"><path d="M1260.77,1037.5712 L1260.8398,1037.6333 L1257.3142,1041.1758 L1254.1977,1045.0825 L1250.9479,1048.8707 L1247.2602,1052.2688 L1244.1788,1056.2068 L1244.1527,1056.1842 L1240.3446,1060.3366 L1236.6681,1064.6032 L1233.083,1068.949 L1229.1828,1073.0215 L1225.7239,1077.4769 L1225.9121,1077.6355 L1221.5536,1081.9936 L1217.7446,1086.8146 L1214.0026,1091.692 L1209.8705,1096.2409 L1205.9437,1100.9626 L1205.9671,1100.9819 L1203.8889,1103.4422 L1201.9174,1105.9901 L1199.8944,1108.4957 L1197.9697,1111.082 L1195.7247,1113.4054 L1195.9569,1113.5925 L1193.8901,1116.1627 L1191.6734,1118.6122 L1189.6761,1121.2384 L1187.6889,1123.8729 L1185.3763,1126.2449 L1185.1247,1126.0463 L1183.5308,1129.0686 L1181.1086,1131.4368 L1179.316,1134.3023 L1176.875,1136.6557 L1174.9656,1139.4289 L1174.9415,1139.4103 L1173.1453,1142.3255 L1170.7862,1144.806 L1168.7592,1147.5431 L1166.7602,1150.3016 L1164.5599,1152.9049 L1164.7077,1153.0162 L1162.4919,1155.6469 L1160.5286,1158.4679 L1158.1568,1160.9812 L1156.3943,1163.9534 L1154.2266,1166.6205 L1154.4231,1166.7646 L1152.3472,1169.5179 L1150.3689,1172.3428 L1147.9373,1174.8354 L1145.8379,1177.5715 L1144.033,1180.5235 L1143.8079,1180.3634 L1142.0143,1183.3159 L1139.9671,1186.088 L1138.2877,1189.1218 L1135.9803,1191.7088 L1134.0462,1194.5614 L1133.9206,1194.475 L1132.1873,1197.443 L1129.917,1200.0417 L1128.0285,1202.903 L1126.5137,1206.0213 L1124.3336,1208.6819 L1124.495,1208.7888 L1122.7315,1211.6923 L1120.4659,1214.2632 L1118.8292,1217.2507 L1117.0554,1220.1474 L1114.9624,1222.8326 L1114.7851,1222.7202 L1113.134,1225.6355 L1111.4247,1228.514 L1109.8296,1231.4649 L1107.7909,1234.1345 L1106,1236.9612 L1106.1767,1237.0663 L1104.5739,1238.8774 L1103.3122,1240.8913 L1102.5488,1243.2017 L1100.868,1244.9664 L1099.9273,1247.1713 L1100.1253,1247.2807 L1098.8365,1249.3352 L1097.4807,1251.3526 L1096.2761,1253.4536 L1095.4209,1255.7477 L1094.0713,1257.7685 L1093.9532,1257.7073 L1093.1842,1260.0503 L1091.612,1261.9767 L1090.9531,1264.3768 L1089.78,1266.5102 L1088.4683,1268.5717 L1088.566,1268.6197 L1087.4245,1270.7466 L1086.6329,1273.0453 L1085.5251,1275.1888 L1084.2852,1277.2674 L1083.155,1279.3999 L1083.263,1279.4504 L1082.1051,1281.5098 L1081.4487,1283.8036 L1080.2251,1285.8323 L1079.2349,1287.9701 L1078.168,1290.072 L1077.9212,1289.9616 L1077.0787,1292.0654 L1076.5336,1294.3023 L1075.5678,1296.351 L1074.4512,1298.3322 L1073.5438,1300.4069 L1073.4119,1300.3511 L1071.8514,1304.1559 L1070.0574,1307.8618 L1068.9052,1311.8393 L1067.4354,1315.6824 L1065.53,1319.3412 " fill="none" style="stroke:#181818;stroke-width:4.0;"/><polygon fill="#181818" points="1063.34,1323.7412,1063.3887,1323.7915,1064.6604,1322.273,1066.2175,1321.0497,1067.6817,1319.7303,1068.8403,1318.0946,1070.4219,1316.8967,1070.4118,1316.8729,1069.3249,1317.2076,1068.2889,1317.6626,1067.2884,1318.2012,1066.1658,1318.4518,1065.2142,1319.1057,1065.3841,1319.1778,1064.579,1317.9821,1064.2699,1316.9969,1064.0214,1316.0373,1063.4207,1314.9284,1063.0052,1313.898,1063.028,1313.8988,1063.0615,1315.8663,1063.1986,1317.8373,1063.2858,1319.8066,1063.4682,1321.7792,1063.34,1323.7412" style="stroke:#181818;stroke-width:4.0;"/><text fill="#000000" font-family="Chalkduster" font-size="24" lengthAdjust="spacing" textLength="198" x="1179" y="1159.802">Proxy requests</text></g><!--link ia to API--><g id="link_ia_API"><path d="M1155.9557,583.591 L1156.0477,583.6068 L1155.7898,583.6505 L1156.0715,583.7869 L1156.1775,583.8931 L1155.7055,583.9 L1156.0336,584.0444 L1156,584.036 L1156.5694,586.8734 L1157.3077,589.7531 L1158.1633,592.6622 L1158.6144,595.4699 L1159.6322,598.4196 L1159.8559,598.522 L1160.6037,600.9814 L1162.0048,603.7399 L1163.4855,606.5348 L1164.5026,609.1175 L1165.7635,611.8118 L1165.787,611.831 L1167.5998,614.0707 L1169.5196,616.3977 L1171.3878,618.6825 L1173.3545,621.0477 L1175,623.1512 L1175.1557,623.4055 L1177.7782,625.0127 L1180.3002,626.4557 L1182.9693,628.1389 L1185.6453,629.8334 L1188.1029,631.1713 L1188.0124,630.8638 L1191.7245,632.5009 L1195.1386,633.1255 L1198.7792,634.5198 L1202.1866,635.1215 L1205.7851,636.3728 L1205.7802,636.3428 L1207.903,637.0347 L1209.9114,637.0246 L1211.9873,637.4287 L1214.0689,637.8676 L1216.1096,638.0556 L1216.1284,638.2396 L1218.3471,638.2828 L1220.598,638.6405 L1222.7968,638.4894 L1225.0733,639.0972 L1227.2981,639.2004 L1227.3116,639.4437 L1229.7009,639.5301 L1232.0969,639.7374 L1234.4617,639.3835 L1236.8494,639.4409 L1239.2573,639.8628 L1239.2521,639.5867 L1241.784,639.8837 L1244.3101,639.8697 L1246.8446,640.3069 L1249.3648,639.9736 L1251.8934,640.0983 L1251.8919,639.9459 L1254.5384,640.1727 L1257.1782,639.7477 L1259.8228,639.7862 L1262.4721,640.2782 L1265.113,639.9626 L1265.1194,640.1562 L1267.8657,640.1986 L1270.5921,639.6391 L1273.3434,639.8336 L1276.0893,639.8637 L1278.8225,639.5112 L1278.812,639.3015 L1281.6415,639.3263 L1284.4677,639.2825 L1287.3006,639.3735 L1290.1071,638.9401 L1292.9283,638.7996 L1292.9414,639.0048 L1295.7944,638.3707 L1298.6727,638.1327 L1301.5877,638.4732 L1304.435,637.7486 L1307.3369,637.8834 L1307.354,638.1089 L1313.2141,637.5302 L1319.0684,636.8751 L1324.9357,636.3922 L1330.8332,636.3075 L1336.6881,635.6594 L1336.6774,635.5268 L1342.5971,635.4464 L1348.4441,634.4642 L1354.3738,634.5075 L1360.2569,633.9734 L1366.1275,633.2837 L1366.1354,633.3923 L1371.8849,632.888 L1377.6625,632.7726 L1383.4147,632.3059 L1389.1563,631.6923 L1394.9067,631.2007 L1394.9135,631.3197 L1397.685,630.9843 L1400.4881,631.2014 L1403.2555,630.7937 L1406.0375,630.643 L1408.8148,630.4078 L1408.8037,630.1377 L1411.4999,630.1173 L1414.2094,630.4223 L1416.9,630.2669 L1419.5839,629.9464 L1422.2771,629.8549 L1422.2743,629.7117 L1424.8598,629.7061 L1427.4403,629.4469 L1430.0346,629.8846 L1432.6221,629.9775 L1435.2002,629.5973 L1435.202,629.8313 L1437.6606,629.9249 L1440.1158,629.5739 L1442.5746,629.6921 L1445.031,629.4998 L1447.4904,629.6907 L1447.4958,629.8169 L1449.8078,629.9003 L1452.1265,630.136 L1454.4242,629.8887 L1456.7388,630.031 L1459.0541,630.1907 L1459.0717,630.387 L1461.2253,630.6342 L1463.3313,630.3486 L1465.4926,630.6821 L1467.655,631.0264 L1469.7978,631.1527 L1469.7473,630.886 L1473.5577,632.0136 L1477.2804,632.6784 L1480.9814,633.2283 L1484.7321,634.0409 L1488.451,634.6853 L1488.5775,634.9834 L1491.2468,635.7668 L1494.2059,637.2332 L1497.0509,638.4307 L1499.8715,639.5708 L1502.7014,640.7329 L1502.7455,640.7774 L1504.5568,642.5702 L1506.146,644.1386 L1508.0356,646.0106 L1509.8365,647.7928 L1511.8006,649.7401 L1511.8281,649.7471 L1512.4784,652.2321 L1513.15,654.7224 L1513.595,657.1544 L1514.3311,659.6614 L1515,662.1512 L1514.8397,662.1512 L1515.7691,672.0736 L1515.5688,681.996 L1514.3526,691.9184 L1514.9028,701.8408 L1514.2304,711.7632 L1515.3845,721.6856 L1515.8113,731.608 L1515.7261,741.5304 L1514.4193,751.4528 L1515.6186,761.3752 L1514.0096,771.2976 L1515.2669,781.22 L1514.6009,791.1425 L1515.129,801.0649 L1515.3204,810.9873 L1515.6295,820.9097 L1514.0401,830.8321 L1515.634,840.7545 L1515.2376,850.6769 L1515.4738,860.5993 L1515.9971,870.5217 L1515.0073,880.4441 L1515.2337,890.3665 L1515.2846,900.2889 L1515.263,910.2113 L1514.9989,920.1338 L1515.9476,930.0562 L1514.187,939.9786 L1515.7537,949.901 L1514.168,959.8234 L1514.2796,969.7458 L1515.0533,979.6682 L1515.0377,989.5906 L1514.3429,999.513 L1515.5516,1009.4354 L1515.1451,1019.3578 L1515.9689,1029.2802 L1515.8895,1039.2026 L1514.4023,1049.125 L1514.4694,1059.0475 L1514.8278,1068.9699 L1515.474,1078.8923 L1515.5373,1088.8147 L1515.4015,1098.7371 L1514.5441,1108.6595 L1515.8485,1118.5819 L1515.8451,1128.5043 L1514.937,1138.4267 L1514.6813,1148.3491 L1514.4648,1158.2715 L1514.7139,1168.1939 L1515.1832,1178.1163 L1514.9088,1188.0388 L1515,1197.9612 L1514.8223,1197.9073 L1514.2696,1201.1184 L1512.9294,1204.0909 L1512.4006,1207.3092 L1511.431,1210.394 L1510.3116,1213.4333 L1510.3985,1213.5739 L1508.0107,1215.2187 L1505.3284,1216.3875 L1502.8528,1217.8904 L1500.5816,1219.7237 L1497.9975,1221.0512 L1497.9403,1220.7921 L1494.5125,1221.7142 L1491.0834,1222.6304 L1487.6164,1223.3747 L1484.1129,1223.9538 L1480.6847,1224.874 L1480.6813,1224.8552 L1478.8016,1225.551 L1476.852,1225.8603 L1474.8115,1225.6673 L1472.9229,1226.3138 L1470.9746,1226.6308 L1470.9227,1226.4084 L1468.9771,1227.0855 L1467.0144,1227.6898 L1465.0323,1228.2107 L1462.9277,1228.2074 L1461,1228.9612 L1461.0215,1229.1379 L1459.6131,1229.1338 L1458.1955,1229.0539 L1456.8127,1229.26 L1455.4682,1229.7808 L1454.0634,1229.8057 L1454.0682,1229.9166 L1451.4439,1229.9139 L1448.812,1229.7383 L1446.2189,1230.4444 L1443.5808,1230.1292 L1440.9678,1230.3832 L1440.9632,1230.1486 L1437.2931,1230.4249 L1433.6247,1230.7884 L1429.9508,1230.8715 L1426.2717,1230.6852 L1422.5973,1230.7412 L1422.5967,1230.674 L1418.0456,1230.8538 L1413.4934,1230.8983 L1408.9386,1230.627 L1404.3897,1231.0738 L1399.8359,1230.9269 L1399.8365,1231.672 L1390.6425,1230.6466 L1381.4491,1230.3694 L1372.2571,1231.8486 L1363.0632,1230.9845 L1353.87,1230.9636 L1344.6768,1230.9712 L1344.6772,1231.3699 L1334.3233,1230.0976 L1323.9729,1231.6524 L1313.6196,1230.9125 L1303.2683,1231.8121 L1292.9145,1230.6198 L1282.5625,1230.8949 L1282.5641,1231.4402 L1272.2279,1230.3333 L1261.8978,1231.2823 L1251.5654,1231.4916 L1241.2298,1230.5798 L1230.8997,1231.5306 L1220.5654,1231.0769 L1220.5627,1230.8229 L1214.8143,1230.929 L1209.0709,1231.5028 L1203.322,1231.5648 L1197.5725,1231.5745 L1191.8209,1231.3831 L1191.8178,1231.223 L1186.6117,1231.6564 L1181.3916,1231.3785 L1176.1836,1231.7167 L1170.9704,1231.7929 L1165.7578,1231.896 L1165.7538,1231.7794 L1161.2676,1232.323 L1156.7655,1232.3997 L1152.2543,1232.2137 L1147.7676,1232.7434 L1143.2601,1232.6629 L1143.2625,1232.7036 L1139.6352,1232.6176 L1136.0347,1232.9867 L1132.4174,1233.0708 L1128.8179,1233.4558 L1125.2119,1233.7311 L1125.1656,1233.4555 L1121.3253,1234.1141 L1117.5323,1235.054 L1113.6759,1235.6164 L1109.8381,1236.2895 L1106,1236.9612 L1105.9607,1236.9111 L1104.0989,1238.5482 L1101.9536,1239.8242 L1100.2029,1241.6028 L1098.008,1242.8156 L1096.2649,1244.6039 L1096.3612,1244.6936 L1094.7659,1246.5978 L1093.0512,1248.3905 L1091.3073,1250.156 L1089.5606,1251.919 L1087.8064,1253.6749 L1087.8446,1253.7023 L1086.1212,1255.5403 L1085.06,1257.8523 L1083.5638,1259.8531 L1081.9353,1261.759 L1080.5369,1263.8297 L1080.5346,1263.8284 L1079.2226,1265.9628 L1078.1538,1268.2349 L1077.0992,1270.5151 L1075.4655,1272.4674 L1074.3688,1274.7237 L1074.5583,1274.8102 L1073.3018,1276.9649 L1072.1537,1279.1691 L1071.1016,1281.4171 L1069.9847,1283.6356 L1069.2146,1286.0123 L1069.031,1285.9439 L1068.3841,1288.2857 L1067.6371,1290.5902 L1066.9178,1292.9051 L1066.0072,1295.1486 L1064.9867,1297.3512 L1064.6845,1297.2584 L1064.5719,1299.6408 L1063.8377,1301.8323 L1063.1831,1304.0483 L1062.4972,1306.2548 L1061.5977,1308.3956 L1061.3138,1308.3236 L1060.9591,1310.4486 L1060.6788,1312.5923 L1059.8077,1314.5864 L1059.4432,1316.7088 L1058.96,1318.8012 " fill="none" style="stroke:#181818;stroke-width:4.0;"/><polygon fill="#181818" points="1057.7,1323.6412,1057.7566,1323.6825,1058.7511,1321.9695,1060.0772,1320.499,1061.2953,1318.9495,1062.1583,1317.1404,1063.5129,1315.6906,1063.4988,1315.6689,1062.4848,1316.1839,1061.5414,1316.8086,1060.6473,1317.5097,1059.5837,1317.9478,1058.7574,1318.7542,1058.9125,1318.8542,1057.9681,1317.6894,1057.4765,1316.8164,1057.0403,1315.979,1056.2825,1314.9344,1055.6938,1313.9988,1055.7161,1314.0034,1056.0846,1315.9251,1056.5545,1317.8679,1056.9756,1319.8005,1057.4899,1321.7525,1057.7,1323.6412" style="stroke:#181818;stroke-width:4.0;"/><text fill="#000000" font-family="Chalkduster" font-size="24" lengthAdjust="spacing" textLength="55" x="1520.5" y="989.802">Pull</text><text fill="#000000" font-family="Chalkduster" font-size="24" lengthAdjust="spacing" textLength="64" x="1516" y="1020.4319">data</text></g><!--link ia to atapapi--><g id="link_ia_atapapi"><path d="M1148.0119,584.5641 L1148.1041,584.5789 L1147.7818,584.8354 L1148.0001,585.1788 L1148.0424,585.4939 L1147.5057,585.716 L1147.7704,586.0668 L1147.7363,586.0613 L1147.3844,587.2743 L1147.2045,588.5149 L1147.144,589.7747 L1146.6717,590.9683 L1146.7763,592.2546 L1147.5051,592.3717 L1144.373,601.9154 L1143.3688,611.8011 L1142.6242,621.7284 L1140.3691,631.4131 L1138.9983,641.2398 L1137.2928,651.0128 L1135.9964,660.8515 L1134.5026,670.6584 L1133.3853,680.5259 L1131.9241,690.3381 L1130.3613,700.134 L1128.2288,709.8384 L1126.32,719.5787 L1126.9303,719.6767 L1125.6305,729.7737 L1122.1426,739.5191 L1122.3712,749.8617 L1119.4737,759.702 L1118.9527,769.9241 L1115.9843,779.753 L1114.9318,789.8897 L1114.3843,800.1075 L1111.7298,809.9869 L1110.3186,820.0659 L1109.0118,830.1618 L1107.4999,840.2247 L1105.3329,850.1823 L1104.1021,860.2904 L1101.3564,870.1551 L1100.8704,880.3828 L1099.6037,890.4851 L1097.8532,900.5097 L1096.461,910.5918 L1093.404,920.4065 L1091.5674,930.4172 L1089.994,940.4702 L1089.1205,950.6357 L1087.3253,960.6531 L1085.97,970.7412 " fill="none" style="stroke:#181818;stroke-width:4.0;"/><text fill="#000000" font-family="Chalkduster" font-size="24" lengthAdjust="spacing" textLength="131" x="1216.5" y="717.992">Pull data</text><text fill="#000000" font-family="Chalkduster" font-size="24" lengthAdjust="spacing" textLength="290" x="1143" y="748.6219">(with access control)</text></g><!--SRC=[XLHDRzim3BtxLt0-fGTtzw8eO6pzCB2jGJ_GYo-ApIH4PKcJw3h1qFy-oh7psMuw9BP5FZq-Fl4BcKgtDSBvrrgnohIQPO7N6i-REacOMEC558QOb8OQdRRh1Ws3dKEHlu0ojVo32Z2d5TOPesyWe7-Z2eFaMmTiOMQPRGCrUQoOh4banKTb5XeXVVBs3U6x70-tBTMOHZok5t1v6LhdhEUhA_YJWAozB5ofncaCwV56ZQ7ovE91SIzvJuxEkxE1iOQR7UF7WN4w73EklQIYKGk4t1ZBAaB3Y_MlCpJL4YRFJ9fuVPOAuqu-1wSg5Cwn3bBT4UWHyARwV5g0gfLZwzDDMl-Mx6KUWBn_ojCmQasBsAJSLqiIyCcZTDGso3voxD7XYEe_ARxW39wBz2JaSqR9mSlxWVmRLcAd1tGsa5HCUyeVA1DDLnGtlJhEszLwmvvehXn91Nv4M9-KSCWDJlosCLcl_OSuU_6_i1EP7FfJhztp4drwmbpufbBr_fSsi5UQb84dN4bhZD9hfYh0L2kUMp7X97_AfsUmuvB-bray9zOXLqS8Kl9ntyQ8beIJz6Bm5cIrxKnsrQjx8TtutM9WY6C0sa1c0RS_yf-bwRP6rpJpAdQhD6ARrtWX1FhXFllc5MEIZ5ToYnpDVm5tjejJO4uoBAH-YZUfD2HAHFbB4uS8cI2iPSemodESBH_22ThrocabuR3SmPPYUX5rX8nZASAAn660s_p6sZl8jdY3aNR5zznaS8qxG-XMf6aqeKZSHySuTHhIQbsQNiM3_R59GqYlSsbWqX4lGLKoVG9KreWbzTbV]--></g></svg>