<?xml version="1.0" encoding="us-ascii" standalone="no"?><svg xmlns="http://www.w3.org/2000/svg" xmlns:xlink="http://www.w3.org/1999/xlink" contentStyleType="text/css" height="996px" preserveAspectRatio="none" style="width:1014px;height:996px;background:#FFFFFF;" version="1.1" viewBox="0 0 1014 996" width="1014px" zoomAndPan="magnify"><defs/><g><text fill="#000000" font-family="Chalkduster" font-size="42" font-weight="bold" lengthAdjust="spacing" textLength="618" x="191" y="51.7215">High level architecture of</text><text fill="#000000" font-family="Chalkduster" font-size="42" font-weight="bold" lengthAdjust="spacing" textLength="789" x="105.5" y="105.3238">the Trove Data Guide (WP-TDG)</text><!--cluster Public Git Service--><g id="cluster_Public Git Service"><polygon fill="#FFC7D8" points="9.5,419.1234,9.5,419.3336,19.4796,418.7091,29.4592,419.3167,39.4388,419.5231,49.4184,418.41,59.398,419.0457,69.3776,418.6969,79.3571,418.7399,89.3367,419.0552,99.3163,418.432,109.2959,419.677,119.2755,418.4931,129.2551,418.9256,139.2347,419.5553,149.2143,419.0376,159.1939,419.1916,169.1735,419.0914,179.1531,419.3019,189.1327,419.3625,199.1122,419.7091,209.0918,419.7944,219.0714,419.8026,229.051,419.378,239.0306,419.587,249.0102,419.8256,258.9898,418.4022,268.9694,419.8019,278.949,418.8269,288.9286,419.6572,298.9082,418.6283,308.8878,419.0549,318.8673,419.865,328.8469,419.0746,338.8265,419.2287,348.8061,419.462,358.7857,419.5396,368.7653,419.1195,378.7449,419.4106,388.7245,418.551,398.7041,419.4078,408.6837,419.6716,418.6633,419.5679,428.6429,419.7364,438.6224,418.6403,448.602,418.4712,458.5816,418.502,468.5612,419.0645,478.5408,418.9268,488.5204,419.8048,498.5,419.1234,498.4777,419.0696,498.8098,419.1642,499.2362,419.4866,499.4756,419.3574,499.848,419.5493,500.2678,419.8556,500.4676,419.9384,500.5484,420.2647,500.7869,420.6564,500.608,420.8752,500.9519,421.3105,501,421.6234,501.5904,421.6234,500.5276,431.7398,500.9041,441.8562,501.126,451.9727,501.6518,462.0891,500.9958,472.2055,501.4626,482.3219,500.4462,492.4384,500.3227,502.5548,501.5036,512.6712,500.2831,522.7877,501.509,532.9041,501.2066,543.0205,500.7321,553.1369,501,563.2534,500.8911,563.2082,500.9948,563.6654,500.6149,563.9223,500.7429,564.3895,500.244,564.5971,500.2678,565.0211,500.3465,565.2113,499.976,565.3167,499.5919,565.3895,499.2131,565.475,498.9462,565.8307,498.5,565.7534,498.5,566.3669,488.5204,565.9226,478.5408,566.0216,468.5612,565.6231,458.5816,566.4698,448.602,565.9082,438.6224,565.9259,428.6429,565.145,418.6633,565.3481,408.6837,566.2841,398.7041,566.1831,388.7245,565.7104,378.7449,565.4312,368.7653,565.5344,358.7857,565.0672,348.8061,566.1681,338.8265,566.4929,328.8469,566.2798,318.8673,566.4483,308.8878,565.6166,298.9082,565.8406,288.9286,565.3658,278.949,566.0374,268.9694,566.0001,258.9898,566.3058,249.0102,565.5237,239.0306,565.619,229.051,566.1968,219.0714,566.3207,209.0918,565.2408,199.1122,565.5595,189.1327,565.9026,179.1531,565.1425,169.1735,566.1068,159.1939,566.0114,149.2143,565.6526,139.2347,565.8956,129.2551,566.482,119.2755,565.4405,109.2959,566.0684,99.3163,566.039,89.3367,565.8691,79.3571,565.8943,69.3776,565.8668,59.398,565.1292,49.4184,565.3526,39.4388,565.2918,29.4592,565.8172,19.4796,565.8415,9.5,565.7534,9.5206,565.8032,9.1093,565.5173,8.7843,565.4397,8.424,565.277,8.1594,565.3452,7.7322,565.0211,7.8636,565.0756,7.4363,564.6057,7.4169,564.3047,7.1151,563.8868,7.2353,563.6437,7,563.2534,7.6085,563.2534,7.5446,553.1369,6.5644,543.0205,7.464,532.9041,6.2572,522.7877,7.2002,512.6712,6.7007,502.5548,7.0967,492.4384,7.2403,482.3219,7.4721,472.2055,6.2801,462.0891,7.4755,451.9727,7.1782,441.8562,7.3553,431.7398,7,421.6234,7.2303,421.7188,7.1481,421.2705,7.3469,420.9386,7.5051,420.5899,7.6465,420.2343,7.7322,419.8556,7.7321,419.8554,8.1764,419.928,8.3616,419.3749,8.865,419.5903,9.0668,419.0777,9.5,419.1234" style="stroke:#181818;stroke-width:4.0;"/><text fill="#000000" font-family="Chalkduster" font-size="24" font-style="italic" lengthAdjust="spacing" textLength="175" x="166.5" y="444.9643">&#171;workspace&#187;</text><text fill="#000000" font-family="Chalkduster" font-size="24" font-weight="bold" lengthAdjust="spacing" textLength="247" x="130.5" y="475.5941">Public Git Service</text></g><!--cluster tdg--><g id="cluster_tdg"><polygon fill="#FFFF00" points="293.5,137.4934,293.5,137.7036,303.381,137.0791,313.2619,137.6867,323.1429,137.8931,333.0238,136.78,342.9048,137.4157,352.7857,137.0669,362.6667,137.1099,372.5476,137.4252,382.4286,136.802,392.3095,138.047,402.1905,136.8631,412.0714,137.2956,421.9524,137.9253,431.8333,137.4076,441.7143,137.5616,451.5952,137.4614,461.4762,137.6719,471.3571,137.7325,481.2381,138.0791,491.119,138.1644,501,138.1726,510.881,137.748,520.7619,137.957,530.6429,138.1956,540.5238,136.7722,550.4048,138.1719,560.2857,137.1969,570.1667,138.0272,580.0476,136.9983,589.9286,137.4249,599.8095,138.235,609.6905,137.4446,619.5714,137.5987,629.4524,137.832,639.3333,137.9096,649.2143,137.4895,659.0952,137.7806,668.9762,136.921,678.8571,137.7778,688.7381,138.0416,698.619,137.9379,708.5,137.4934,708.5782,137.6822,708.7919,137.491,709.1239,137.5854,709.4814,137.7413,709.9067,138.061,710.2678,138.2256,710.2072,138.2005,710.6241,138.6661,710.5069,138.9104,710.6015,139.2425,710.9239,139.6689,711,139.9934,710.3332,139.9934,710.4809,149.8452,711.649,159.6971,711.4357,169.549,711.7345,179.4009,710.6782,189.2527,711.3192,199.1046,711.5904,208.9565,710.5276,218.8084,710.9041,228.6602,711.126,238.5121,711.6518,248.364,710.9958,258.2159,711.4626,268.0677,710.4462,277.9196,710.3227,287.7715,711,297.6234,711.1551,297.6876,710.6328,297.8855,710.8638,298.3954,710.6243,298.7104,710.3317,299.0034,710.2678,299.3911,710.2226,299.2822,709.9727,299.6789,709.5225,299.5918,709.2826,300.0127,708.783,299.8067,708.5,300.1234,708.5,300.7408,698.619,300.6077,688.7381,300.3683,678.8571,300.1706,668.9762,300.85,659.0952,300.7369,649.2143,300.2926,639.3333,300.3916,629.4524,299.9931,619.5714,300.8398,609.6905,300.2782,599.8095,300.2959,589.9286,299.515,580.0476,299.7181,570.1667,300.6541,560.2857,300.5531,550.4048,300.0804,540.5238,299.8012,530.6429,299.9044,520.7619,299.4372,510.881,300.5381,501,300.8629,491.119,300.6498,481.2381,300.8183,471.3571,299.9866,461.4762,300.2106,451.5952,299.7358,441.7143,300.4074,431.8333,300.3701,421.9524,300.6758,412.0714,299.8937,402.1905,299.989,392.3095,300.5668,382.4286,300.6907,372.5476,299.6108,362.6667,299.9295,352.7857,300.2726,342.9048,299.5125,333.0238,300.4768,323.1429,300.3814,313.2619,300.0226,303.381,300.2656,293.5,300.1234,293.593,300.3478,293.1065,299.8806,292.8331,299.9275,292.4758,299.772,292.1006,299.5732,291.7322,299.3911,291.7756,299.4091,291.6207,299.0521,291.2471,298.6044,291.1695,298.2793,291.0043,297.9181,291,297.6234,291.0638,297.6234,291.0881,287.7715,291.1617,277.9196,290.709,268.0677,290.9325,258.2159,290.8798,248.364,291.5769,238.5121,291.4266,228.6602,290.5145,218.8084,290.9271,208.9565,290.4228,199.1046,291.2884,189.2527,291.6085,179.4009,291.5446,169.549,290.5644,159.6971,291.464,149.8452,291,139.9934,290.7712,139.8986,291.2081,139.6654,291.2007,139.2481,291.4691,138.945,291.6598,138.6098,291.7322,138.2256,291.7925,138.371,291.994,137.8575,292.5,138.0791,292.8156,137.8411,293.1918,137.7492,293.5,137.4934" style="stroke:#181818;stroke-width:4.0;"/><text fill="#000000" font-family="Chalkduster" font-size="24" font-style="italic" lengthAdjust="spacing" textLength="131" x="435.5" y="163.3343">&#171;support&#187;</text><text fill="#000000" font-family="Chalkduster" font-size="24" font-weight="bold" lengthAdjust="spacing" textLength="250" x="376" y="193.9641">Trove Data Guide</text></g><!--cluster trove--><g id="cluster_trove"><polygon fill="#00FF7F" points="594.5,411.1234,594.5,411.3336,604.5,410.7091,614.5,411.3167,624.5,411.5231,634.5,410.41,644.5,411.0457,654.5,410.6969,664.5,410.7399,674.5,411.0552,684.5,410.432,694.5,411.677,704.5,410.4931,714.5,410.9256,724.5,411.5553,734.5,411.0376,744.5,411.1916,754.5,411.0914,764.5,411.3019,774.5,411.3625,784.5,411.7091,794.5,411.7944,804.5,411.8026,814.5,411.378,824.5,411.587,834.5,411.8256,844.5,410.4022,854.5,411.8019,864.5,410.8269,874.5,411.6572,884.5,410.6283,894.5,411.0549,904.5,411.865,914.5,411.0746,924.5,411.2287,934.5,411.462,944.5,411.5396,954.5,411.1234,954.4995,411.1222,954.8902,411.3583,955.1341,411.24,955.5969,411.6503,955.9841,411.878,956.2678,411.8556,956.4047,411.9123,956.603,412.2874,956.4119,412.5011,956.5063,412.8331,956.6622,413.1906,957,413.6234,956.9411,413.6234,956.8035,423.4752,957.6814,433.3271,956.8253,443.179,956.6569,453.0309,957.2283,462.8827,956.3332,472.7346,956.4809,482.5865,957.649,492.4384,957.4357,502.2902,957.7345,512.1421,956.6782,521.994,957.3192,531.8459,957.5904,541.6977,956.5276,551.5496,956.9041,561.4015,957,571.2534,957.0388,571.2694,957.0543,571.6901,956.7058,571.9599,956.7031,572.373,956.2437,572.5969,956.2678,573.0211,956.1814,572.8126,955.9785,573.3227,955.4692,573.0932,955.272,573.6172,954.8799,573.6706,954.5,573.7534,954.5,573.4855,944.5,573.3996,934.5,574.2121,924.5,573.454,914.5,574.3452,904.5,573.2006,894.5,574.3708,884.5,574.2377,874.5,573.9983,864.5,573.8006,854.5,574.48,844.5,574.3669,834.5,573.9226,824.5,574.0216,814.5,573.6231,804.5,574.4698,794.5,573.9082,784.5,573.9259,774.5,573.145,764.5,573.3481,754.5,574.2841,744.5,574.1831,734.5,573.7104,724.5,573.4312,714.5,573.5344,704.5,573.0672,694.5,574.1681,684.5,574.4929,674.5,574.2798,664.5,574.4483,654.5,573.6166,644.5,573.8406,634.5,573.3658,624.5,574.0374,614.5,574.0001,604.5,574.3058,594.5,573.7534,594.4707,573.6826,594.1293,573.5655,593.8495,573.597,593.5117,573.4887,593.0204,573.0097,592.7322,573.0211,592.6725,572.9964,592.6318,572.6866,592.2512,572.2361,592.4017,572.0056,592.2259,571.6398,592,571.2534,591.8992,571.2534,592.1422,561.4015,592.7287,551.5496,591.6871,541.6977,592.315,531.8459,592.2856,521.994,592.1158,512.1421,592.1409,502.2902,592.1135,492.4384,591.3758,482.5865,591.5992,472.7346,591.5385,462.8827,592.0638,453.0309,592.0881,443.179,592.1617,433.3271,591.709,423.4752,592,413.6234,591.9792,413.6148,592.1094,413.2545,592.4705,412.9898,592.5707,412.6171,592.4363,412.1472,592.7322,411.8556,592.7229,411.8331,593.0122,411.5314,593.4761,411.6515,593.8705,411.6037,594.2159,411.4375,594.5,411.1234" style="stroke:#181818;stroke-width:4.0;"/><text fill="#000000" font-family="Chalkduster" font-size="24" font-style="italic" lengthAdjust="spacing" textLength="169" x="690" y="436.9643">&#171;repository&#187;</text><text fill="#000000" font-family="Chalkduster" font-size="24" font-weight="bold" lengthAdjust="spacing" textLength="78" x="735.5" y="467.5941">Trove</text></g><!--cluster compute--><g id="cluster_compute"><polygon fill="#FFC7D8" points="532.5,715.7534,532.5,715.9636,542.5638,715.3391,552.6277,715.9467,562.6915,716.1531,572.7553,715.04,582.8191,715.6757,592.883,715.3269,602.9468,715.3699,613.0106,715.6852,623.0745,715.062,633.1383,716.307,643.2021,715.1231,653.266,715.5556,663.3298,716.1853,673.3936,715.6676,683.4574,715.8216,693.5213,715.7214,703.5851,715.9319,713.6489,715.9925,723.7128,716.3391,733.7766,716.4244,743.8404,716.4326,753.9043,716.008,763.9681,716.217,774.0319,716.4556,784.0957,715.0322,794.1596,716.4319,804.2234,715.4569,814.2872,716.2872,824.3511,715.2583,834.4149,715.6849,844.4787,716.495,854.5426,715.7046,864.6064,715.8587,874.6702,716.092,884.734,716.1696,894.7979,715.7495,904.8617,716.0406,914.9255,715.181,924.9894,716.0378,935.0532,716.3016,945.117,716.1979,955.1809,716.3664,965.2447,715.2703,975.3085,715.1012,985.3723,715.132,995.4362,715.6945,1005.5,715.7534,1005.4749,715.6928,1005.9405,716.1097,1006.1848,715.9925,1006.5169,716.0871,1006.9433,716.4095,1007.2678,716.4856,1007.0624,716.4005,1007.2543,716.7729,1007.7605,717.2755,1007.8413,717.6018,1008.0797,717.9935,1008,718.2534,1007.6782,718.2534,1008.3192,728.226,1008.5904,738.1986,1007.5276,748.1711,1007.9041,758.1437,1008.126,768.1163,1008.6518,778.0889,1007.9958,788.0615,1008.4626,798.0341,1007.4462,808.0067,1007.3227,817.9793,1008.5036,827.9519,1007.2831,837.9245,1008.509,847.8971,1008.2066,857.8697,1007.7321,867.8423,1007.6462,877.8149,1008.4588,887.7874,1007.7007,897.76,1008.5919,907.7326,1007.4473,917.7052,1008.6174,927.6778,1008.4843,937.6504,1008.245,947.623,1008.0472,957.5956,1008.7266,967.5682,1008.6136,977.5408,1008,987.5134,1008.0521,987.535,1007.9361,987.9011,1007.667,988.2039,1007.7813,988.6654,1007.4619,988.9473,1007.2678,989.2811,1007.2898,989.3343,1006.8366,989.2402,1006.509,989.4492,1006.2748,989.8839,1005.9084,989.9993,1005.5,990.0134,1005.5,989.9704,995.4362,989.6912,985.3723,989.7944,975.3085,989.3272,965.2447,990.4281,955.1809,990.7529,945.117,990.5398,935.0532,990.7083,924.9894,989.8766,914.9255,990.1006,904.8617,989.6258,894.7979,990.2974,884.734,990.2601,874.6702,990.5658,864.6064,989.7837,854.5426,989.879,844.4787,990.4568,834.4149,990.5807,824.3511,989.5008,814.2872,989.8195,804.2234,990.1626,794.1596,989.4025,784.0957,990.3668,774.0319,990.2714,763.9681,989.9126,753.9043,990.1556,743.8404,990.742,733.7766,989.7005,723.7128,990.3284,713.6489,990.299,703.5851,990.1291,693.5213,990.1543,683.4574,990.1268,673.3936,989.3892,663.3298,989.6126,653.266,989.5518,643.2021,990.0772,633.1383,990.1015,623.0745,990.1751,613.0106,989.7224,602.9468,989.9459,592.883,989.8932,582.8191,990.5902,572.7553,990.4399,562.6915,989.5278,552.6277,989.9404,542.5638,989.4361,532.5,990.0134,532.5368,990.1022,532.2241,990.0543,531.8624,989.8882,531.3838,989.4399,531.145,989.5705,530.7322,989.2811,530.5035,989.1864,530.6474,988.9531,530.3472,988.5359,530.3227,988.2328,530.2205,987.8976,530,987.5134,530.4721,987.5134,529.2801,977.5408,530.4755,967.5682,530.1782,957.5956,530.3553,947.623,530.7478,937.6504,530.0055,927.6778,530.1753,917.7052,530.2134,907.7326,530.1972,897.76,529.9992,887.7874,530.7107,877.8149,529.3903,867.8423,530.5653,857.8697,529.376,847.8971,529.4597,837.9245,530.04,827.9519,530.0283,817.9793,529.5072,808.0067,530.4137,798.0341,530.1089,788.0615,530.7267,778.0889,530.6671,768.1163,529.5517,758.1437,529.6021,748.1711,529.8708,738.1986,530.3555,728.226,530,718.2534,530.1241,718.3048,530.2392,717.9382,530.1876,717.5026,530.6353,717.2739,530.781,716.92,530.7322,716.4856,530.7262,716.471,531.0553,716.2655,531.3881,716.0691,531.7655,715.9802,532.164,715.9421,532.5,715.7534" style="stroke:#181818;stroke-width:4.0;"/><text fill="#000000" font-family="Chalkduster" font-size="24" font-style="italic" lengthAdjust="spacing" textLength="175" x="681.5" y="741.5943">&#171;workspace&#187;</text><text fill="#000000" font-family="Chalkduster" font-size="24" font-weight="bold" lengthAdjust="spacing" textLength="113" x="712.5" y="772.2241">compute</text></g><!--entity guidesource--><g id="elem_guidesource"><polygon fill="none" points="25,499.1234,25,499.3336,35.1538,498.7091,45.3077,499.3167,55.4615,499.5231,65.6154,498.41,75.7692,499.0457,85.9231,498.6969,96.0769,498.7399,106.2308,499.0552,116.3846,498.432,126.5385,499.677,136.6923,498.4931,146.8462,498.9256,157,499.5553,167.1538,499.0376,177.3077,499.1916,187.4615,499.0914,197.6154,499.3019,207.7692,499.3625,217.9231,499.7091,228.0769,499.7944,238.2308,499.8026,248.3846,499.378,258.5385,499.587,268.6923,499.8256,278.8462,498.4022,289,499.1234,289.0866,499.3323,289.3157,499.1785,289.7752,499.5807,289.9975,499.4103,290.4055,499.6881,290.7678,499.8556,290.9962,499.9502,290.8992,500.2029,291.0931,500.5761,291.3114,500.9595,291.4817,501.3229,291.5,501.6234,291.4961,501.6234,291.7872,510.7493,290.9276,519.8753,291.7844,529.0013,292.0482,538.1272,291.5,547.2532,291.6369,547.3099,291.5423,547.685,291.0583,547.8987,290.8598,548.2307,290.7228,548.5882,290.7678,549.021,290.7603,549.0028,290.3891,549.1069,290.1476,549.5237,289.6848,549.4065,289.3098,549.5011,289,549.7532,289,549.9815,278.8462,549.0864,268.6923,549.2341,258.5385,550.4022,248.3846,550.1889,238.2308,550.4877,228.0769,549.4314,217.9231,550.0724,207.7692,550.3436,197.6154,549.2808,187.4615,549.6573,177.3077,549.8792,167.1538,550.405,157,549.749,146.8462,550.2158,136.6923,549.1994,126.5385,549.0759,116.3846,550.2568,106.2308,549.0363,96.0769,550.2622,85.9231,549.9598,75.7692,549.4853,65.6154,549.3994,55.4615,550.212,45.3077,549.4539,35.1538,550.3451,25,549.7532,24.9295,549.583,24.7252,549.7969,24.3547,549.6095,23.9706,549.3893,23.5918,549.182,23.2322,549.021,23.456,549.1137,23.2747,548.7457,22.9915,548.3355,22.8755,547.9945,22.6063,547.5901,22.5,547.2532,23.2165,547.2532,22.6549,538.1272,22.6726,529.0013,21.8916,519.8753,22.0948,510.7493,22.5,501.6234,22.6634,501.6911,22.7788,501.3246,22.7797,500.9108,22.8401,500.5216,23.0184,500.1812,23.2322,499.8556,23.1447,499.6443,23.6387,499.8369,24.0337,499.7905,24.36,499.5784,24.7351,499.4838,25,499.1234" style="stroke:#181818;stroke-width:4.0;"/><text fill="#000000" font-family="Chalkduster" font-size="24" lengthAdjust="spacing" textLength="249" x="32.5" y="532.9643">Data guide source</text></g><!--entity Notebooks--><g id="elem_Notebooks"><polygon fill="none" points="329,499.1234,329,499.3336,339.2667,498.7091,349.5333,499.3167,359.8,499.5231,370.0667,498.41,380.3333,499.0457,390.6,498.6969,400.8667,498.7399,411.1333,499.0552,421.4,498.432,431.6667,499.677,441.9333,498.4931,452.2,498.9256,462.4667,499.5553,472.7333,499.0376,483,499.1234,483.0087,499.1444,483.3495,499.26,483.7299,499.4712,484.0912,499.6364,484.4889,499.8895,484.7678,499.8556,484.9744,499.9412,485.1234,500.2958,485.1391,500.5952,485.3499,500.9754,485.5698,501.3594,485.5,501.6234,484.7788,501.6234,486.1785,510.7493,485.2035,519.8753,486.0338,529.0013,485.005,538.1272,485.5,547.2532,485.4789,547.2445,485.5819,547.7014,485.1921,547.9541,485.0931,548.3273,485.0185,548.7106,484.7678,549.021,484.8209,549.1492,484.4137,549.1662,484.0973,549.4023,483.6341,549.284,483.3898,549.6943,483,549.7532,483,550.3014,472.7333,550.1977,462.4667,550.3662,452.2,549.2701,441.9333,549.101,431.6667,549.1318,421.4,549.6943,411.1333,549.5567,400.8667,550.4346,390.6,549.5785,380.3333,549.4102,370.0667,549.9815,359.8,549.0864,349.5333,549.2341,339.2667,550.4022,329,549.7532,329.0556,549.8874,328.7401,549.833,328.2518,549.3612,327.9801,549.4122,327.6611,549.3492,327.2322,549.021,327.0868,548.9607,327.0563,548.6552,326.9781,548.3299,326.9936,548.0435,326.6452,547.6062,326.5,547.2532,326.9626,547.2532,325.9462,538.1272,325.8227,529.0013,327.0036,519.8753,325.7831,510.7493,326.5,501.6234,326.6567,501.6883,326.7101,501.2962,326.7104,500.8821,326.8304,500.5176,327.2271,500.2677,327.2322,499.8556,327.194,499.7634,327.6613,499.8914,327.8688,499.3925,328.3717,499.6064,328.7082,499.419,329,499.1234" style="stroke:#181818;stroke-width:4.0;"/><text fill="#000000" font-family="Chalkduster" font-size="24" lengthAdjust="spacing" textLength="139" x="336.5" y="532.9643">Notebooks</text></g><!--entity examples--><g id="elem_examples"><polygon fill="none" points="336.5,225.4934,336.5,225.7036,346.4286,225.0791,356.3571,225.6867,366.2857,225.8931,376.2143,224.78,386.1429,225.4157,396.0714,225.0669,406,225.1099,415.9286,225.4252,425.8571,224.802,435.7857,226.047,445.7143,224.8631,455.6429,225.2956,465.5714,225.9253,475.5,225.4934,475.4891,225.467,475.8623,225.6608,476.203,225.7764,476.5834,225.9877,476.9447,226.1528,477.2678,226.2256,477.4481,226.3003,477.6209,226.6648,477.7698,227.0194,477.7855,227.3187,477.9963,227.699,478,227.9934,478.7022,227.9934,477.2788,237.1193,478.6785,246.2453,477.7035,255.3713,478.5338,264.4972,478,273.6232,477.8476,273.5601,477.8325,273.968,477.9355,274.4249,477.5457,274.6776,477.4466,275.0509,477.2678,275.391,477.311,275.4953,476.9673,275.6656,476.5602,275.6827,476.2437,275.9188,475.7805,275.8005,475.5,276.1232,475.5,276.4076,465.5714,276.6714,455.6429,276.5677,445.7143,276.7362,435.7857,275.6401,425.8571,275.471,415.9286,275.5018,406,276.0643,396.0714,275.9267,386.1429,276.8046,376.2143,275.9485,366.2857,275.7802,356.3571,276.3515,346.4286,275.4564,336.5,276.1232,336.4338,275.9633,336.2292,276.1766,335.8485,275.9645,335.533,275.9101,335.0447,275.4383,334.7322,275.391,334.8305,275.4317,334.7676,275.1127,334.2939,274.6236,334.2634,274.3181,334.1852,273.9928,334,273.6232,334.6518,273.6232,333.9958,264.4972,334.4626,255.3713,333.4462,246.2453,333.3227,237.1193,334,227.9934,334.1551,228.0576,333.9257,227.5484,334.4496,227.3512,334.503,226.9591,334.5033,226.545,334.7322,226.2256,334.6871,226.1167,335.1443,226.2204,335.4012,225.8405,335.8684,225.9685,336.0759,225.4696,336.5,225.4934" style="stroke:#181818;stroke-width:4.0;"/><text fill="#000000" font-family="Chalkduster" font-size="24" lengthAdjust="spacing" textLength="124" x="344" y="259.3343">examples</text></g><!--entity description--><g id="elem_description"><polygon fill="none" points="516,225.4934,516,225.7036,525.8824,225.0791,535.7647,225.6867,545.6471,225.8931,555.5294,224.78,565.4118,225.4157,575.2941,225.0669,585.1765,225.1099,595.0588,225.4252,604.9412,224.802,614.8235,226.047,624.7059,224.8631,634.5882,225.2956,644.4706,225.9253,654.3529,225.4076,664.2353,225.5616,674.1176,225.4614,684,225.4934,684.0228,225.5484,684.3841,225.7135,684.7818,225.9666,685.1463,226.1394,685.5009,226.2883,685.7678,226.2256,685.8462,226.2581,686.057,226.6383,686.2769,227.0223,685.985,227.1943,686.5625,227.7264,686.5,227.9934,686.2035,227.9934,687.0338,237.1193,686.005,246.2453,686.4315,255.3713,687.2416,264.4972,686.5,273.6232,686.485,273.617,686.386,273.9902,686.3114,274.3735,686.1888,274.737,685.913,275.0369,685.7678,275.391,685.8044,275.4794,685.3412,275.3611,685.0969,275.7714,684.777,275.9991,684.4103,276.1137,684,276.1232,684,276.7362,674.1176,275.6401,664.2353,275.471,654.3529,275.5018,644.4706,276.0643,634.5882,275.9267,624.7059,276.8046,614.8235,275.9485,604.9412,275.7802,595.0588,276.3515,585.1765,275.4564,575.2941,275.6041,565.4118,276.7722,555.5294,276.5589,545.6471,276.8577,535.7647,275.8014,525.8824,276.4424,516,276.1232,516.0753,276.305,515.5862,275.8313,515.2807,275.8008,514.9554,275.7227,514.6689,275.7381,514.2322,275.391,514.2309,275.3904,514.2282,275.0964,513.7688,274.6132,513.5843,274.2439,513.8015,274.041,513.5,273.6232,512.7831,273.6232,514.009,264.4972,513.7066,255.3713,513.2321,246.2453,513.1462,237.1193,513.5,227.9934,513.6413,228.0519,513.5543,227.6016,513.9752,227.3618,513.7691,226.8622,514.2759,226.6579,514.2322,226.2256,514.294,226.3748,514.617,226.1546,514.9454,225.9473,515.3856,226.01,515.7247,225.8288,516,225.4934" style="stroke:#181818;stroke-width:4.0;"/><text fill="#000000" font-family="Chalkduster" font-size="24" lengthAdjust="spacing" textLength="153" x="523.5" y="259.3343">description</text></g><!--entity Newspapers--><g id="elem_Newspapers"><polygon fill="none" points="764,499.1234,764,499.3336,773.7647,498.7091,783.5294,499.3167,793.2941,499.5231,803.0588,498.41,812.8235,499.0457,822.5882,498.6969,832.3529,498.7399,842.1176,499.0552,851.8824,498.432,861.6471,499.677,871.4118,498.4931,881.1765,498.9256,890.9412,499.5553,900.7059,499.0376,910.4706,499.1916,920.2353,499.0914,930,499.1234,930.0228,499.1784,930.3841,499.3435,930.7818,499.5966,931.1463,499.7694,931.5009,499.9183,931.7678,499.8556,931.8462,499.8881,932.057,500.2683,932.2769,500.6523,931.985,500.8243,932.5625,501.3564,932.5,501.6234,932.2035,501.6234,933.0338,510.7493,932.005,519.8753,932.4315,529.0013,933.2416,538.1272,932.5,547.2532,932.485,547.247,932.386,547.6202,932.3114,548.0035,932.1888,548.367,931.913,548.6669,931.7678,549.021,931.8044,549.1094,931.3412,548.9911,931.0969,549.4014,930.777,549.6291,930.4103,549.7437,930,549.7532,930,550.3662,920.2353,549.2701,910.4706,549.101,900.7059,549.1318,890.9412,549.6943,881.1765,549.5567,871.4118,550.4346,861.6471,549.5785,851.8824,549.4102,842.1176,549.9815,832.3529,549.0864,822.5882,549.2341,812.8235,550.4022,803.0588,550.1889,793.2941,550.4877,783.5294,549.4314,773.7647,550.0724,764,549.7532,764.0753,549.935,763.5862,549.4613,763.2807,549.4308,762.9554,549.3527,762.6689,549.3681,762.2322,549.021,762.2309,549.0204,762.2282,548.7264,761.7688,548.2432,761.5843,547.8739,761.8015,547.671,761.5,547.2532,760.7831,547.2532,762.009,538.1272,761.7066,529.0013,761.2321,519.8753,761.1462,510.7493,761.5,501.6234,761.6413,501.6819,761.5543,501.2316,761.9752,500.9918,761.7691,500.4922,762.2759,500.2879,762.2322,499.8556,762.294,500.0048,762.617,499.7846,762.9454,499.5773,763.3856,499.64,763.7247,499.4588,764,499.1234" style="stroke:#181818;stroke-width:4.0;"/><text fill="#000000" font-family="Chalkduster" font-size="24" lengthAdjust="spacing" textLength="151" x="771.5" y="532.9643">Newspapers</text></g><!--entity Other--><g id="elem_Other"><polygon fill="none" points="638,499.1234,638,499.3336,647.5556,498.7091,657.1111,499.3167,666.6667,499.5231,676.2222,498.41,685.7778,499.0457,695.3333,498.6969,704.8889,498.7399,714.4444,499.0552,724,499.1234,723.9118,498.9105,724.4242,499.4403,724.6267,499.2222,725.0354,499.5018,725.4693,499.8422,725.7678,499.8556,725.7414,499.8447,725.9352,500.2179,726.0508,500.5586,726.2621,500.939,726.4272,501.3003,726.5,501.6234,727.0857,501.6234,727.1711,510.7493,727.1793,519.8753,726.7546,529.0013,726.9636,538.1272,726.5,547.2532,726.7163,547.3428,726.1315,547.5148,726.4161,548.0469,725.9693,548.276,726.0786,548.7355,725.7678,549.021,725.7046,548.8685,725.4055,549.1463,725.1553,549.5423,724.7009,549.4453,724.367,549.6392,724,549.7532,724,550.0918,714.4444,550.1694,704.8889,549.7493,695.3333,550.0404,685.7778,549.1808,676.2222,550.0376,666.6667,550.3014,657.1111,550.1977,647.5556,550.3662,638,549.7532,637.9384,549.6044,637.5633,549.4059,637.2136,549.2689,636.9318,549.2957,636.5607,549.1069,636.2322,549.021,636.4421,549.1079,636.032,548.6451,635.8337,548.2701,635.8632,547.9894,635.4411,547.5217,635.5,547.2532,634.9809,547.2532,636.149,538.1272,635.9357,529.0013,636.2345,519.8753,635.1782,510.7493,635.5,501.6234,635.5983,501.6641,635.8283,501.3451,635.6474,500.856,635.9098,500.5505,636.1246,500.2252,636.2322,499.8556,636.3154,500.0563,636.5853,499.7079,636.9983,499.7052,637.2223,499.2457,637.5601,499.0613,638,499.1234" style="stroke:#181818;stroke-width:4.0;"/><text fill="#000000" font-family="Chalkduster" font-size="24" lengthAdjust="spacing" textLength="71" x="645.5" y="532.9643">Other</text></g><!--entity Nectar--><g id="elem_Nectar"><polygon fill="none" points="575.5,803.7534,575.5,803.9636,585.8,803.3391,596.1,803.9467,606.4,804.1531,616.7,803.04,627,803.6757,637.3,803.3269,647.6,803.3699,657.9,803.6852,668.2,803.062,678.5,803.7534,678.5706,803.9239,678.7732,803.7057,679.1819,803.9854,679.6158,804.3257,679.9033,804.3127,680.2678,804.4856,680.2888,804.4943,680.4044,804.8351,680.6156,805.2155,680.7808,805.5768,681.0339,805.9745,681,806.2534,681.6711,806.2534,681.6793,815.3793,681.2546,824.5053,681.4636,833.6313,681.7022,842.7572,681,851.8832,680.7779,851.7912,681.0625,852.3233,680.6158,852.5525,680.7251,853.012,680.2618,853.2343,680.2678,853.651,680.259,853.6299,680.0088,854.0258,679.5544,853.9289,679.2205,854.1227,678.8967,854.341,678.5,854.3832,678.5,854.7994,668.2,854.3793,657.9,854.6704,647.6,853.8108,637.3,854.6676,627,854.9314,616.7,854.8277,606.4,854.9962,596.1,853.9001,585.8,853.731,575.5,854.3832,575.4207,854.1918,575.1389,854.2186,574.7678,854.0298,574.5263,854.1537,574.0635,853.7436,573.7322,853.651,573.6266,853.6072,573.6561,853.3265,573.234,852.8588,573.133,852.5241,573.3463,852.3195,573,851.8832,573.4357,851.8832,573.7345,842.7572,572.6782,833.6313,573.3192,824.5053,573.5904,815.3793,573,806.2534,572.8545,806.1931,573.1169,805.8876,573.3317,805.5623,573.6401,805.2759,573.5845,804.8386,573.7322,804.4856,573.7912,804.6281,574.0151,804.1686,574.3529,803.9841,574.8571,804.2014,575.055,803.679,575.5,803.7534" style="stroke:#181818;stroke-width:4.0;"/><text fill="#000000" font-family="Chalkduster" font-size="24" lengthAdjust="spacing" textLength="88" x="583" y="837.5943">Nectar</text></g><!--entity Binder--><g id="elem_Binder"><polygon fill="none" points="718.5,803.7534,718.5,803.9636,728.0455,803.3391,737.5909,803.9467,747.1364,804.1531,756.6818,803.04,766.2273,803.6757,775.7727,803.3269,785.3182,803.3699,794.8636,803.6852,804.4091,803.062,813.9545,804.307,823.5,803.7534,823.4196,803.5593,823.8283,803.8389,824.2622,804.1793,824.5497,804.1663,824.9229,804.3602,825.2678,804.4856,825.2579,804.4815,825.4692,804.8619,825.6343,805.2232,825.8875,805.621,826.0602,805.9854,826,806.2534,826.6793,806.2534,826.2546,815.3793,826.4636,824.5053,826.7022,833.6313,825.2788,842.7572,826,851.8832,826.209,851.9698,825.7622,852.1989,825.8715,852.6584,825.4082,852.8807,825.3931,853.2887,825.2678,853.651,825.3624,853.8794,824.908,853.7824,824.5741,853.9763,824.2503,854.1946,823.9066,854.3649,823.5,854.3832,823.5,854.3793,813.9545,854.6704,804.4091,853.8108,794.8636,854.6676,785.3182,854.9314,775.7727,854.8277,766.2273,854.9962,756.6818,853.9001,747.1364,853.731,737.5909,853.7618,728.0455,854.3243,718.5,854.3832,718.4749,854.3227,718.2334,854.4466,717.7706,854.0365,717.3956,853.8382,717.1149,853.8677,716.7322,853.651,716.5269,853.5659,716.4259,853.2312,716.6392,853.0266,716.4271,852.6459,716.3726,852.3305,716,851.8832,715.6782,851.8832,716.3192,842.7572,716.5904,833.6313,715.5276,824.5053,715.9041,815.3793,716,806.2534,716.0388,806.2694,716.3472,805.983,716.2916,805.5457,716.5818,805.2517,716.4152,804.7685,716.7322,804.4856,716.6458,804.277,717.15,804.4943,717.3479,803.9719,717.8578,804.203,718.1728,803.9635,718.5,803.7534" style="stroke:#181818;stroke-width:4.0;"/><text fill="#000000" font-family="Chalkduster" font-size="24" lengthAdjust="spacing" textLength="90" x="726" y="837.5943">Binder</text></g><!--entity Reclaim--><g id="elem_Reclaim"><polygon fill="none" points="564.5,915.3834,564.5,915.5936,574.1154,914.9691,583.7308,915.5767,593.3462,915.7831,602.9615,914.67,612.5769,915.3057,622.1923,914.9569,631.8077,914.9999,641.4231,915.3152,651.0385,914.692,660.6538,915.937,670.2692,914.7531,679.8846,915.1856,689.5,915.3834,689.5551,915.5164,689.8426,915.5034,690.2158,915.6973,690.5566,915.8129,690.937,916.0241,691.2678,916.1156,691.3414,916.1461,691.5946,916.5439,691.7673,916.9083,691.9163,917.2629,691.932,917.5623,692,917.8834,692.4636,917.8834,692.7022,927.0093,691.2788,936.1353,692.6785,945.2613,691.7035,954.3872,692,963.5132,692.1644,963.5813,691.7011,963.8036,691.686,964.2116,691.789,964.6685,691.3992,964.9212,691.2678,965.281,691.2812,965.3134,690.9574,965.5317,690.6138,965.702,690.2066,965.7191,689.8902,965.9552,689.5,966.0132,689.5,965.4408,679.8846,966.2976,670.2692,966.5614,660.6538,966.4577,651.0385,966.6262,641.4231,965.5301,631.8077,965.361,622.1923,965.3918,612.5769,965.9543,602.9615,965.8167,593.3462,966.6946,583.7308,965.8385,574.1154,965.6702,564.5,966.0132,564.5291,966.0835,564.0614,965.6614,563.7267,965.5604,563.5221,965.7737,563.1414,965.5616,562.7322,965.281,562.9584,965.3747,562.4867,964.8864,562.5376,964.6146,562.4747,964.2956,562.001,963.8065,562,963.5132,561.9041,963.5132,562.126,954.3872,562.6518,945.2613,561.9958,936.1353,562.4626,927.0093,562,917.8834,561.8295,917.8127,561.9379,917.4434,562.448,917.2405,562.2186,916.7313,562.7425,916.5341,562.7322,916.1156,562.7586,916.1792,563.0516,915.8867,563.3942,915.7138,563.8514,915.8175,564.1083,915.4376,564.5,915.3834" style="stroke:#181818;stroke-width:4.0;"/><text fill="#000000" font-family="Chalkduster" font-size="24" lengthAdjust="spacing" textLength="110" x="572" y="949.2243">Reclaim</text></g><!--entity Institutional HPC--><g id="elem_Institutional HPC"><polygon fill="none" points="730,915.3834,730,915.5936,740.08,914.9691,750.16,915.5767,760.24,915.7831,770.32,914.67,780.4,915.3057,790.48,914.9569,800.56,914.9999,810.64,915.3152,820.72,914.692,830.8,915.937,840.88,914.7531,850.96,915.1856,861.04,915.8153,871.12,915.2976,881.2,915.4516,891.28,915.3514,901.36,915.5619,911.44,915.6225,921.52,915.9691,931.6,916.0544,941.68,916.0626,951.76,915.638,961.84,915.847,971.92,916.0856,982,915.3834,981.908,915.1613,982.4401,915.7388,982.6693,915.585,983.1288,915.9871,983.3511,915.8167,983.7678,916.1156,983.7467,916.1069,984.1426,916.5638,984.0457,916.8165,984.2395,917.1897,984.4578,917.573,984.5,917.8834,984.9162,917.8834,984.4961,927.0093,984.7872,936.1353,983.9276,945.2613,984.7844,954.3872,984.5,963.5132,984.6688,963.5831,984.4905,963.9235,984.3959,964.2985,983.9119,964.5122,983.7134,964.8442,983.7678,965.281,983.6885,965.0896,983.4067,965.4093,983.0356,965.5133,982.794,965.9302,982.3313,965.813,982,966.0132,982,965.6702,971.92,966.2415,961.84,965.3464,951.76,965.4941,941.68,966.6622,931.6,966.4489,921.52,966.7477,911.44,965.6914,901.36,966.3324,891.28,966.6036,881.2,965.5408,871.12,965.9173,861.04,966.1392,850.96,966.665,840.88,966.009,830.8,966.4758,820.72,965.4594,810.64,965.3359,800.56,966.5168,790.48,965.2963,780.4,966.5222,770.32,966.2198,760.24,965.7453,750.16,965.6594,740.08,966.472,730,966.0132,729.9618,965.921,729.7219,966.049,729.2224,965.5501,729.0181,965.764,728.6476,965.5766,728.2322,965.281,728.3077,965.3122,728.1003,964.9334,728.1631,964.6666,727.9819,964.2986,727.6986,963.8883,727.5,963.5132,727.7682,963.5132,727.3697,954.3872,728.2165,945.2613,727.6549,936.1353,727.6726,927.0093,727.5,917.8834,727.3127,917.8058,727.5217,917.4781,727.9563,917.244,728.0717,916.8775,728.0726,916.4637,728.2322,916.1156,728.1911,916.0164,728.5579,915.9017,728.8518,915.6114,729.3458,915.804,729.7408,915.7576,730,915.3834" style="stroke:#181818;stroke-width:4.0;"/><text fill="#000000" font-family="Chalkduster" font-size="24" lengthAdjust="spacing" textLength="237" x="737.5" y="949.2243">Institutional HPC</text></g><!--link examples to compute--><g id="link_examples_compute"><path d="M428.16,276.6134 L428.2323,276.6726 L429.8151,278.6903 L431.8215,281.0551 L433.69,283.3068 L435.1049,285.1869 L437.1477,287.5815 L437.1204,287.5603 L438.941,289.9633 L440.8989,292.4731 L442.9525,295.0573 L444.6767,297.3854 L446.8622,300.0721 L447.0608,300.2174 L448.655,302.667 L450.8291,305.5407 L453.0739,308.4662 L454.9071,311.0906 L456.9568,313.8734 L456.9819,313.8904 L458.9707,316.8454 L461.0737,319.878 L463.1216,322.8731 L465.2746,325.9397 L467.085,328.7734 L467.3383,328.9308 L469.3044,332.0901 L471.1071,335.1479 L473.149,338.3543 L475.2021,341.5677 L476.9,344.5602 L476.6199,344.4045 L478.9946,347.9992 L480.447,351.0809 L482.6005,354.5527 L484.032,357.6228 L486.0553,361.0221 L486.0279,361.0089 L487.9821,364.5501 L489.2953,367.7827 L490.9868,371.1974 L492.71,374.6274 L494.2042,377.9471 L494.3762,378.0152 L495.5617,381.3817 L497.0412,384.8646 L498.0451,388.1593 L499.7584,391.7346 L501,395.1234 L501.2314,395.1997 L502.3186,398.6153 L503.5206,402.0688 L504.1888,405.3464 L505.2484,408.7529 L506.6546,412.2737 L506.3897,412.1956 L507.6606,415.7637 L508.6331,419.2437 L510.0385,422.8514 L510.7047,426.2412 L511.8104,429.7605 L511.6629,429.7217 L512.844,433.3396 L513.3949,436.7915 L514.3939,440.3615 L515.8315,444.0469 L516.4882,447.5267 L516.6767,447.571 L517.6501,451.199 L518.0372,454.6895 L519.1587,458.3523 L520.1202,461.9776 L520.7089,465.5154 L520.5034,465.4725 L521.4241,469.1375 L522.2775,472.7884 L523.2632,476.4669 L523.7347,480.0382 L524.4934,483.6694 L524.6956,483.7067 L524.9252,487.2773 L525.5451,490.9198 L526.735,494.6675 L526.8754,498.2216 L527.8625,501.9319 L528.0858,501.9681 L528.5481,505.6093 L528.9349,509.2383 L529.4921,512.8949 L530.4435,516.6156 L530.8372,520.2457 L530.7054,520.227 L531.6178,523.9443 L531.6343,527.5344 L532.6694,531.2692 L533.131,534.9225 L533.4381,538.5538 L533.5462,538.5672 L533.9086,542.2055 L534.6579,545.8915 L535.0577,549.5345 L535.3113,553.1595 L535.6863,556.7994 L535.8048,556.8119 L536.012,560.4184 L536.7695,564.0832 L536.9045,567.6821 L537.2956,571.3081 L537.6025,574.9252 L537.3332,574.9011 L537.7442,578.499 L538.4796,582.1259 L538.7559,585.7117 L538.8677,589.2829 L539.2077,592.8744 L539.0649,592.8638 L539.3737,596.4103 L539.4296,599.938 L540.1805,603.5173 L540.5875,607.0711 L540.5227,610.5899 L540.7562,610.6039 L541.0401,614.0933 L540.8802,617.5561 L541.1887,621.0471 L541.1872,624.5194 L541.5683,628.0147 L541.6944,628.0205 L541.8372,631.4352 L542.1323,634.8569 L541.9446,638.2561 L542.1463,641.6735 L542.3654,645.0917 L542.5623,645.0984 L542.7312,648.4348 L542.3655,651.7529 L542.6209,655.0922 L542.8872,658.4318 L542.9348,661.764 L542.6634,661.758 L543.1644,665.0097 L543.1945,668.2508 L543.1077,671.4894 L543.2882,674.7339 L543.2975,677.9746 L543.6213,677.9783 L543.1938,681.1114 L543.5082,684.2529 L543.5305,687.3911 L543.4904,690.5287 L543.4743,693.6664 L543.5369,693.6665 L543.527,696.6897 L543.2015,699.7126 L543.3032,702.7359 L543.2785,705.7591 L543.486,708.7825 L543.5143,708.7826 L543.5211,709.5192 L543.5497,710.2558 L543.3444,710.9912 L543.4396,711.7282 L543.4656,712.4649 L543.4121,712.4645 L543.7192,712.832 L543.6497,713.1967 L543.2417,713.5589 L543.4224,713.9255 L543.4521,714.2909 " fill="none" style="stroke:#181818;stroke-width:4.0;"/><polygon fill="#181818" points="543.4521,714.2909,543.5159,714.3199,544.1407,712.4403,545.1395,710.7305,546.0165,708.9654,546.493,707.0184,547.5239,705.3232,547.5057,705.3047,546.6178,706.0155,545.8215,706.8192,545.0889,707.6877,544.1368,708.3333,543.492,709.2911,543.6236,709.4205,542.5487,708.3374,541.8579,707.6321,541.2139,706.973,540.2974,706.0456,539.5242,705.2592,539.545,705.2683,540.3,707.0613,541.1499,708.8956,541.954,710.71,542.8455,712.5625,543.4521,714.2909" style="stroke:#181818;stroke-width:4.0;"/><text fill="#000000" font-family="Chalkduster" font-size="24" lengthAdjust="spacing" textLength="92" x="542" y="622.5943">launch</text></g><!--link examples to Notebooks--><g id="link_examples_Notebooks"><path d="M406,276.3934 L406.2802,276.3934 L405.4476,286.2397 L406.2577,296.0861 L406.5329,305.9325 L405.0488,315.7788 L405.8964,325.6252 L405.4313,335.4716 L405.4887,345.3179 L405.9091,355.1643 L405.0782,365.0106 L406.7382,374.857 L405.1596,384.7034 L405.7363,394.5497 L406.5759,404.3961 L405.8856,414.2425 L406.091,424.0888 L405.9574,433.9352 L406.238,443.7816 L406.3188,453.6279 L406.7809,463.4743 L406.8947,473.3206 L406.9057,483.167 L406,493.0134 " fill="none" style="stroke:#181818;stroke-width:4.0;"/><polygon fill="#181818" points="406,497.7134,406.064,497.7418,406.6738,495.8573,407.6589,494.1395,408.5217,492.3675,408.9827,490.4168,410,488.7134,409.9817,488.6951,409.0995,489.4128,408.3096,490.223,407.5839,491.0973,406.637,491.7504,406,492.7134,406.1305,492.8439,405.0514,491.7648,404.3534,491.0668,403.7018,490.4152,402.7798,489.4932,402,488.7134,402.0208,488.7226,402.7903,490.509,403.6544,492.3375,404.4728,494.1457,405.3784,495.9927,406,497.7134" style="stroke:#181818;stroke-width:4.0;"/></g><!--link description to trove--><g id="link_description_trove"><path d="M600,276.3934 L600.2802,276.3934 L599.4476,285.7617 L600.2577,295.13 L600.5329,304.4983 L599.0488,313.8667 L599.8964,323.235 L599.4313,332.6033 L600,341.9717 L599.8296,341.9717 L599.9697,349.9773 L599.6927,357.9829 L600.2461,365.9885 L599.7199,373.9941 L600,381.9998 L599.9121,381.9998 L600.192,386.0775 L599.9619,390.1552 L600.0303,394.2329 L599.9858,398.3106 L600,402.3883 L600.0793,402.3883 L600.1063,403.4016 L600.2603,404.4149 L600.2982,405.4283 L600.3019,406.4416 L600,407.455 L600.1132,407.455 L600.206,407.9599 L600.3121,408.4647 L599.6795,408.9696 L600.3016,409.4745 L600,409.9794 " fill="none" style="stroke:#181818;stroke-width:4.0;"/><polygon fill="#181818" points="600,409.9794,600.064,410.0078,600.6738,408.1233,601.6589,406.4055,602.5217,404.6335,602.9827,402.6828,604,400.9794,603.9817,400.9611,603.0995,401.6788,602.3096,402.489,601.5839,403.3633,600.637,404.0164,600,404.9794,600.1305,405.1099,599.0514,404.0308,598.3534,403.3328,597.7018,402.6812,596.7798,401.7592,596,400.9794,596.0208,400.9886,596.7903,402.775,597.6544,404.6035,598.4728,406.4117,599.3784,408.2587,600,409.9794" style="stroke:#181818;stroke-width:4.0;"/><text fill="#000000" font-family="Chalkduster" font-size="24" lengthAdjust="spacing" textLength="382" x="601" y="348.9643">Introduction / background</text><text fill="#000000" font-family="Chalkduster" font-size="24" lengthAdjust="spacing" textLength="147" x="718.5" y="379.5941">how to use</text></g><!--link guidesource to tdg--><g id="link_guidesource_tdg"><path d="M169.91,498.7334 L170.1584,498.8632 L173.9421,489.8284 L179.1816,481.5547 L183.9471,473.0331 L187.1535,463.6965 L192.4263,455.4401 L196.5358,446.5756 L201.1082,437.9532 L206.0024,429.4989 L209.7876,420.4649 L215.7804,412.5849 L218.9031,403.2045 L223.9357,394.8227 L229.2014,386.5626 L233.1113,377.5938 L237.8149,369.0399 L242.2181,360.3289 L246.7775,351.6996 L246.9884,351.8099 L251.5795,343.2025 L256.5085,334.7717 L261.1288,326.1796 L265.6579,317.5398 L269.6756,308.6326 L274.442,300.1168 L279.2434,291.6194 L282.9331,282.5407 L282.6491,282.3922 L284.4884,280.2166 L285.3925,277.552 L287.0075,275.2591 L287.8904,272.5834 L289.3734,270.2215 L289.3464,270.2074 L289.9431,269.8431 L289.9094,269.1494 L290.2477,268.65 L290.6172,268.1671 L290.7615,267.5663 " fill="none" style="stroke:#181818;stroke-width:4.0;"/><polygon fill="#181818" points="290.7615,267.5663,290.805,267.6212,289.1327,268.6827,287.7157,270.0659,286.2156,271.3443,284.4421,272.2782,283.047,273.689,283.0393,273.6643,284.0841,273.215,285.168,272.8904,286.279,272.6523,287.2965,272.1158,288.445,271.9973,288.6211,272.0525,288.5829,273.0141,289.0588,274.1368,289.5974,275.2792,289.7711,276.3072,290.1367,277.3953,290.1594,277.3968,290.251,275.4288,290.446,273.4675,290.5911,271.503,290.8313,269.5445,290.7615,267.5663" style="stroke:#181818;stroke-width:4.0;"/><text fill="#000000" font-family="Chalkduster" font-size="24" lengthAdjust="spacing" textLength="131" x="262" y="364.4643">Generate</text></g><!--SRC=[RL8zJyCm4DtzAuvCC8JkLTK1a0eBL529XSMnZyIguxFiSmj2_7Vi1519o7GwvttSkpipJjca4IuNMhAihMpgoEyMBtij11ksk8HRqtPWyO0MP52TOLIS0WAzlZZk47Q13WWt6G-RP3BP-VEstjriBZ83UM22XfYf1sr2XXfoGfH2kjOYLDlKMADWOnYUC1oCmWfMgoE5VVHIuNeD7q90_aumWrWxY4LAeK10nh4pDgQ8Us9iYFQn-g7x59z_V4p7g0eZwpQRYSbx2ZnOcV3Yc-oznLXD7x8H5OmlurP5QIOryW-YgrL0Jz4mXVV_HExncBFm6EOo3ta3OH3uSG9rhUdewdeDYdgVEA_GokHKzyV3zVWskFZ-RnRxp4Okmyp2bN4Qv-r7L5QQVjQ_Sp4VLYh1I0kts-k9-y7y6duN9awIX3BLcDaIxbokT1ek2XRGIBLl0oMdNrn7nt9tAQ8ukGaeuBpG9MpGOP2CuWi0]--></g></svg>