<?xml version="1.0" encoding="us-ascii" standalone="no"?><svg xmlns="http://www.w3.org/2000/svg" xmlns:xlink="http://www.w3.org/1999/xlink" contentStyleType="text/css" height="1157px" preserveAspectRatio="none" style="width:946px;height:1157px;background:#FFFFFF;" version="1.1" viewBox="0 0 946 1157" width="946px" zoomAndPan="magnify"><defs/><g><text fill="#000000" font-family="Chalkduster" font-size="42" font-weight="bold" lengthAdjust="spacing" textLength="748" x="92" y="51.7215">Launching software tools from</text><text fill="#000000" font-family="Chalkduster" font-size="42" font-weight="bold" lengthAdjust="spacing" textLength="697" x="117.5" y="105.3238">Trove Data Guide (WP-TDG)</text><!--cluster Public Git Service--><g id="cluster_Public Git Service"><polygon fill="#FFC7D8" points="9.5,410.1234,9.5,410.3336,19.4796,409.7091,29.4592,410.3167,39.4388,410.5231,49.4184,409.41,59.398,410.0457,69.3776,409.6969,79.3571,409.7399,89.3367,410.0552,99.3163,409.432,109.2959,410.677,119.2755,409.4931,129.2551,409.9256,139.2347,410.5553,149.2143,410.0376,159.1939,410.1916,169.1735,410.0914,179.1531,410.3019,189.1327,410.3625,199.1122,410.7091,209.0918,410.7944,219.0714,410.8026,229.051,410.378,239.0306,410.587,249.0102,410.8256,258.9898,409.4022,268.9694,410.8019,278.949,409.8269,288.9286,410.6572,298.9082,409.6283,308.8878,410.0549,318.8673,410.865,328.8469,410.0746,338.8265,410.2287,348.8061,410.462,358.7857,410.5396,368.7653,410.1195,378.7449,410.4106,388.7245,409.551,398.7041,410.4078,408.6837,410.6716,418.6633,410.5679,428.6429,410.7364,438.6224,409.6403,448.602,409.4712,458.5816,409.502,468.5612,410.0645,478.5408,409.9268,488.5204,410.8048,498.5,410.1234,498.4777,410.0696,498.8098,410.1642,499.2362,410.4866,499.4756,410.3574,499.848,410.5493,500.2678,410.8556,500.4676,410.9384,500.5484,411.2647,500.7869,411.6564,500.608,411.8752,500.9519,412.3105,501,412.6234,501.5904,412.6234,500.5276,422.7398,500.9041,432.8562,501.126,442.9727,501.6518,453.0891,500.9958,463.2055,501.4626,473.3219,500.4462,483.4384,500.3227,493.5548,501.5036,503.6712,500.2831,513.7877,501.509,523.9041,501.2066,534.0205,500.7321,544.1369,501,554.2534,500.8911,554.2082,500.9948,554.6654,500.6149,554.9223,500.7429,555.3895,500.244,555.5971,500.2678,556.0211,500.3465,556.2113,499.976,556.3167,499.5919,556.3895,499.2131,556.475,498.9462,556.8307,498.5,556.7534,498.5,557.3669,488.5204,556.9226,478.5408,557.0216,468.5612,556.6231,458.5816,557.4698,448.602,556.9082,438.6224,556.9259,428.6429,556.145,418.6633,556.3481,408.6837,557.2841,398.7041,557.1831,388.7245,556.7104,378.7449,556.4312,368.7653,556.5344,358.7857,556.0672,348.8061,557.1681,338.8265,557.4929,328.8469,557.2798,318.8673,557.4483,308.8878,556.6166,298.9082,556.8406,288.9286,556.3658,278.949,557.0374,268.9694,557.0001,258.9898,557.3058,249.0102,556.5237,239.0306,556.619,229.051,557.1968,219.0714,557.3207,209.0918,556.2408,199.1122,556.5595,189.1327,556.9026,179.1531,556.1425,169.1735,557.1068,159.1939,557.0114,149.2143,556.6526,139.2347,556.8956,129.2551,557.482,119.2755,556.4405,109.2959,557.0684,99.3163,557.039,89.3367,556.8691,79.3571,556.8943,69.3776,556.8668,59.398,556.1292,49.4184,556.3526,39.4388,556.2918,29.4592,556.8172,19.4796,556.8415,9.5,556.7534,9.5206,556.8032,9.1093,556.5173,8.7843,556.4397,8.424,556.277,8.1594,556.3452,7.7322,556.0211,7.8636,556.0756,7.4363,555.6057,7.4169,555.3047,7.1151,554.8868,7.2353,554.6437,7,554.2534,7.6085,554.2534,7.5446,544.1369,6.5644,534.0205,7.464,523.9041,6.2572,513.7877,7.2002,503.6712,6.7007,493.5548,7.0967,483.4384,7.2403,473.3219,7.4721,463.2055,6.2801,453.0891,7.4755,442.9727,7.1782,432.8562,7.3553,422.7398,7,412.6234,7.2303,412.7188,7.1481,412.2705,7.3469,411.9386,7.5051,411.5899,7.6465,411.2343,7.7322,410.8556,7.7321,410.8554,8.1764,410.928,8.3616,410.3749,8.865,410.5903,9.0668,410.0777,9.5,410.1234" style="stroke:#181818;stroke-width:4.0;"/><text fill="#000000" font-family="Chalkduster" font-size="24" font-style="italic" lengthAdjust="spacing" textLength="175" x="166.5" y="435.9643">&#171;workspace&#187;</text><text fill="#000000" font-family="Chalkduster" font-size="24" font-weight="bold" lengthAdjust="spacing" textLength="247" x="130.5" y="466.5941">Public Git Service</text></g><!--cluster tdg--><g id="cluster_tdg"><polygon fill="#FFFF00" points="371.5,137.4934,371.5,137.7036,381.5,137.0791,391.5,137.6867,401.5,137.8931,411.5,136.78,421.5,137.4157,431.5,137.0669,441.5,137.1099,451.5,137.4252,461.5,136.802,471.5,138.047,481.5,136.8631,491.5,137.2956,501.5,137.9253,511.5,137.4076,521.5,137.5616,531.5,137.4614,541.5,137.6719,551.5,137.7325,561.5,138.0791,571.5,138.1644,581.5,138.1726,591.5,137.748,601.5,137.957,611.5,138.1956,621.5,136.7722,631.5,138.1719,641.5,137.1969,651.5,138.0272,661.5,136.9983,671.5,137.4249,681.5,138.235,691.5,137.4446,701.5,137.5987,711.5,137.832,721.5,137.9096,731.5,137.4895,741.5,137.7806,751.5,137.4934,751.427,137.3171,751.8898,137.7274,752.277,137.9551,752.6174,138.0696,752.9924,138.2679,753.2678,138.2256,753.119,138.164,753.2134,138.496,753.3693,138.8534,753.689,139.2788,753.793,139.6147,754,139.9934,754.6814,139.9934,753.8253,150.1098,753.6569,160.2262,754.2283,170.3427,753.3332,180.4591,753.4809,190.5755,754.649,200.6919,754.4357,210.8084,754.7345,220.9248,753.6782,231.0412,754.3192,241.1577,754.5904,251.2741,753.5276,261.3905,753.9041,271.5069,754,281.6234,754.0388,281.6394,754.0543,282.0601,753.7058,282.3299,753.7031,282.743,753.2437,282.9669,753.2678,283.3911,753.1814,283.1826,752.9785,283.6927,752.4692,283.4632,752.272,283.9872,751.8799,284.0406,751.5,284.1234,751.5,283.8555,741.5,283.7696,731.5,284.5821,721.5,283.824,711.5,284.7152,701.5,283.5706,691.5,284.7408,681.5,284.6077,671.5,284.3683,661.5,284.1706,651.5,284.85,641.5,284.7369,631.5,284.2926,621.5,284.3916,611.5,283.9931,601.5,284.8398,591.5,284.2782,581.5,284.2959,571.5,283.515,561.5,283.7181,551.5,284.6541,541.5,284.5531,531.5,284.0804,521.5,283.8012,511.5,283.9044,501.5,283.4372,491.5,284.5381,481.5,284.8629,471.5,284.6498,461.5,284.8183,451.5,283.9866,441.5,284.2106,431.5,283.7358,421.5,284.4074,411.5,284.3701,401.5,284.6758,391.5,283.8937,381.5,283.989,371.5,284.1234,371.5566,284.2599,371.2188,284.1516,370.7275,283.6726,370.4146,283.6243,370.1048,283.5836,369.7322,283.3911,369.5441,283.3132,369.6946,283.0827,369.5188,282.7169,369.2619,282.3176,369.1903,281.9951,369,281.6234,369.7287,281.6234,368.6871,271.5069,369.315,261.3905,369.2856,251.2741,369.1158,241.1577,369.1409,231.0412,369.1135,220.9248,368.3758,210.8084,368.5992,200.6919,368.5385,190.5755,369.0638,180.4591,369.0881,170.3427,369.1617,160.2262,368.709,150.1098,369,139.9934,368.9792,139.9848,369.1094,139.6245,369.4705,139.3598,369.5707,138.9871,369.4363,138.5172,369.7322,138.2256,369.7229,138.2031,370.0122,137.9014,370.4761,138.0215,370.8705,137.9737,371.2159,137.8075,371.5,137.4934" style="stroke:#181818;stroke-width:4.0;"/><text fill="#000000" font-family="Chalkduster" font-size="24" font-style="italic" lengthAdjust="spacing" textLength="131" x="496" y="163.3343">&#171;support&#187;</text><text fill="#000000" font-family="Chalkduster" font-size="24" font-weight="bold" lengthAdjust="spacing" textLength="250" x="436.5" y="193.9641">Trove Data Guide</text></g><!--cluster trove--><g id="cluster_trove"><polygon fill="#00FF7F" points="488.5,1004.6434,488.5,1004.8536,498.4535,1004.2291,508.407,1004.8367,518.3605,1005.0431,528.314,1003.93,538.2674,1004.5657,548.2209,1004.2169,558.1744,1004.2599,568.1279,1004.5752,578.0814,1003.952,588.0349,1005.197,597.9884,1004.0131,607.9419,1004.4456,617.8953,1005.0753,627.8488,1004.5576,637.8023,1004.7116,647.7558,1004.6114,657.7093,1004.8219,667.6628,1004.8825,677.6163,1005.2291,687.5698,1005.3144,697.5233,1005.3226,707.4767,1004.898,717.4302,1005.107,727.3837,1005.3456,737.3372,1003.9222,747.2907,1005.3219,757.2442,1004.3469,767.1977,1005.1772,777.1512,1004.1483,787.1047,1004.5749,797.0581,1005.385,807.0116,1004.5946,816.9651,1004.7487,826.9186,1004.982,836.8721,1005.0596,846.8256,1004.6395,856.7791,1004.9306,866.7326,1004.071,876.686,1004.9278,886.6395,1005.1916,896.593,1005.0879,906.5465,1005.2564,916.5,1004.6434,916.4384,1004.4946,916.7704,1004.589,917.1278,1004.7449,917.5531,1005.0646,917.8891,1005.1686,918.2678,1005.3756,918.4776,1005.4625,918.3604,1005.7069,918.455,1006.039,918.7774,1006.4654,918.6482,1006.7048,919,1007.1434,918.4809,1007.1434,919.649,1017.2598,919.4357,1027.3762,919.7345,1037.4927,918.6782,1047.6091,919.3192,1057.7255,919.5904,1067.8419,918.5276,1077.9584,918.9041,1088.0748,919.126,1098.1912,919.6518,1108.3077,918.9958,1118.4241,919.4626,1128.5405,918.4462,1138.6569,919,1148.7734,918.7914,1148.687,919.0086,1149.1912,918.4863,1149.389,918.7174,1149.899,918.4778,1150.2139,918.2678,1150.5411,918.2336,1150.4586,917.8691,1150.5786,917.6192,1150.9753,917.1689,1150.8883,916.9291,1151.3092,916.5,1151.2734,916.5,1150.7206,906.5465,1151.8908,896.593,1151.7577,886.6395,1151.5183,876.686,1151.3206,866.7326,1152,856.7791,1151.8869,846.8256,1151.4426,836.8721,1151.5416,826.9186,1151.1431,816.9651,1151.9898,807.0116,1151.4282,797.0581,1151.4459,787.1047,1150.665,777.1512,1150.8681,767.1977,1151.8041,757.2442,1151.7031,747.2907,1151.2304,737.3372,1150.9512,727.3837,1151.0544,717.4302,1150.5872,707.4767,1151.6881,697.5233,1152.0129,687.5698,1151.7998,677.6163,1151.9683,667.6628,1151.1366,657.7093,1151.3606,647.7558,1150.8858,637.8023,1151.5574,627.8488,1151.5201,617.8953,1151.8258,607.9419,1151.0437,597.9884,1151.139,588.0349,1151.7168,578.0814,1151.8407,568.1279,1150.7608,558.1744,1151.0795,548.2209,1151.4226,538.2674,1150.6625,528.314,1151.6268,518.3605,1151.5314,508.407,1151.1726,498.4535,1151.4156,488.5,1151.2734,488.593,1151.4978,488.1065,1151.0306,487.8331,1151.0775,487.4758,1150.922,487.1006,1150.7232,486.7322,1150.5411,486.7756,1150.5591,486.6207,1150.2021,486.2471,1149.7544,486.1695,1149.4293,486.0043,1149.0681,486,1148.7734,486.0638,1148.7734,486.0881,1138.6569,486.1617,1128.5405,485.709,1118.4241,485.9325,1108.3077,485.8798,1098.1912,486.5769,1088.0748,486.4266,1077.9584,485.5145,1067.8419,485.9271,1057.7255,485.4228,1047.6091,486.2884,1037.4927,486.6085,1027.3762,486.5446,1017.2598,486,1007.1434,485.8659,1007.0878,486.2893,1006.849,486.0641,1006.3415,486.501,1006.1082,486.4936,1005.691,486.7322,1005.3756,486.7446,1005.4054,487.1164,1005.3032,487.4996,1005.2281,487.7011,1004.7146,488.2071,1004.9362,488.5,1004.6434" style="stroke:#181818;stroke-width:4.0;"/><text fill="#000000" font-family="Chalkduster" font-size="24" font-style="italic" lengthAdjust="spacing" textLength="169" x="618" y="1030.4843">&#171;repository&#187;</text><text fill="#000000" font-family="Chalkduster" font-size="24" font-weight="bold" lengthAdjust="spacing" textLength="78" x="663.5" y="1061.1141">Trove</text></g><!--cluster compute--><g id="cluster_compute"><polygon fill="#FFC7D8" points="389.5,620.7534,389.5,620.9636,399.6905,620.3391,409.881,620.9467,420.0714,621.1531,430.2619,620.04,440.4524,620.6757,450.6429,620.3269,460.8333,620.3699,471.0238,620.6852,481.2143,620.062,491.4048,621.307,501.5952,620.1231,511.7857,620.5556,521.9762,621.1853,532.1667,620.6676,542.3571,620.8216,552.5476,620.7214,562.7381,620.9319,572.9286,620.9925,583.119,621.3391,593.3095,621.4244,603.5,620.7534,603.5866,620.9626,603.886,620.9782,604.2662,621.189,604.6502,621.409,604.8222,621.1171,605.2678,621.4856,605.4767,621.5722,605.3229,621.8013,605.7251,622.2608,605.5547,622.4831,605.8325,622.8911,606,623.2534,606.7416,623.2534,605.9513,633.3698,606.1053,643.4862,606.3386,653.6027,606.4162,663.7191,605.9961,673.8355,606.2872,683.9519,605.4276,694.0684,606.2844,704.1848,606.5482,714.3012,606.4445,724.4177,606.613,734.5341,605.5169,744.6505,605.3478,754.7669,606,764.8834,605.8086,764.8041,605.8354,765.2294,605.6466,765.5654,605.7705,766.031,605.3604,766.2753,605.2678,766.6511,605.224,766.5455,604.9433,766.8679,604.4756,766.7387,604.1409,766.9306,603.9363,767.4368,603.5,767.3834,603.5,767.819,593.3095,768.1179,583.119,767.0616,572.9286,767.7026,562.7381,767.9738,552.5476,766.911,542.3571,767.2875,532.1667,767.5094,521.9762,768.0351,511.7857,767.3792,501.5952,767.8459,491.4048,766.8296,481.2143,766.7061,471.0238,767.887,460.8333,766.6664,450.6429,767.8923,440.4524,767.59,430.2619,767.1155,420.0714,767.0296,409.881,767.8421,399.6905,767.084,389.5,767.3834,389.5755,767.5656,389.0759,767.0667,388.8717,767.2806,388.5011,767.0932,388.117,766.873,387.7322,766.6511,387.7468,766.6572,387.8096,766.3903,387.6283,766.0223,387.345,765.6121,387.229,765.2711,387,764.8834,386.8697,764.8834,387.7165,754.7669,387.1549,744.6505,387.1726,734.5341,386.3916,724.4177,386.5948,714.3012,387.5307,704.1848,387.4298,694.0684,386.9571,683.9519,386.6778,673.8355,386.7811,663.7191,386.3138,653.6027,387.4147,643.4862,387.7396,633.3698,387,623.2534,387.1621,623.3205,387.3605,622.9885,387.2508,622.5288,387.4662,622.2038,387.4664,621.7897,387.7322,621.4856,387.7685,621.5731,388.1173,621.4152,388.5098,621.3628,388.7636,620.9755,389.1293,620.8584,389.5,620.7534" style="stroke:#181818;stroke-width:4.0;"/><text fill="#000000" font-family="Chalkduster" font-size="24" font-style="italic" lengthAdjust="spacing" textLength="175" x="409" y="646.5943">&#171;workspace&#187;</text><text fill="#000000" font-family="Chalkduster" font-size="24" font-weight="bold" lengthAdjust="spacing" textLength="117" x="438" y="677.2241">Compute</text></g><!--entity guidesource--><g id="elem_guidesource"><polygon fill="none" points="25,490.1234,25,490.3336,35.1538,489.7091,45.3077,490.3167,55.4615,490.5231,65.6154,489.41,75.7692,490.0457,85.9231,489.6969,96.0769,489.7399,106.2308,490.0552,116.3846,489.432,126.5385,490.677,136.6923,489.4931,146.8462,489.9256,157,490.5553,167.1538,490.0376,177.3077,490.1916,187.4615,490.0914,197.6154,490.3019,207.7692,490.3625,217.9231,490.7091,228.0769,490.7944,238.2308,490.8026,248.3846,490.378,258.5385,490.587,268.6923,490.8256,278.8462,489.4022,289,490.1234,289.0866,490.3323,289.3157,490.1785,289.7752,490.5807,289.9975,490.4103,290.4055,490.6881,290.7678,490.8556,290.9962,490.9502,290.8992,491.2029,291.0931,491.5761,291.3114,491.9595,291.4817,492.3229,291.5,492.6234,291.4961,492.6234,291.7872,501.7493,290.9276,510.8753,291.7844,520.0013,292.0482,529.1272,291.5,538.2532,291.6369,538.3099,291.5423,538.685,291.0583,538.8987,290.8598,539.2307,290.7228,539.5882,290.7678,540.021,290.7603,540.0028,290.3891,540.1069,290.1476,540.5237,289.6848,540.4065,289.3098,540.5011,289,540.7532,289,540.9815,278.8462,540.0864,268.6923,540.2341,258.5385,541.4022,248.3846,541.1889,238.2308,541.4877,228.0769,540.4314,217.9231,541.0724,207.7692,541.3436,197.6154,540.2808,187.4615,540.6573,177.3077,540.8792,167.1538,541.405,157,540.749,146.8462,541.2158,136.6923,540.1994,126.5385,540.0759,116.3846,541.2568,106.2308,540.0363,96.0769,541.2622,85.9231,540.9598,75.7692,540.4853,65.6154,540.3994,55.4615,541.212,45.3077,540.4539,35.1538,541.3451,25,540.7532,24.9295,540.583,24.7252,540.7969,24.3547,540.6095,23.9706,540.3893,23.5918,540.182,23.2322,540.021,23.456,540.1137,23.2747,539.7457,22.9915,539.3355,22.8755,538.9945,22.6063,538.5901,22.5,538.2532,23.2165,538.2532,22.6549,529.1272,22.6726,520.0013,21.8916,510.8753,22.0948,501.7493,22.5,492.6234,22.6634,492.6911,22.7788,492.3246,22.7797,491.9108,22.8401,491.5216,23.0184,491.1812,23.2322,490.8556,23.1447,490.6443,23.6387,490.8369,24.0337,490.7905,24.36,490.5784,24.7351,490.4838,25,490.1234" style="stroke:#181818;stroke-width:4.0;"/><text fill="#000000" font-family="Chalkduster" font-size="24" lengthAdjust="spacing" textLength="249" x="32.5" y="523.9643">Data guide source</text></g><!--entity Notebooks--><g id="elem_Notebooks"><polygon fill="none" points="329,490.1234,329,490.3336,339.2667,489.7091,349.5333,490.3167,359.8,490.5231,370.0667,489.41,380.3333,490.0457,390.6,489.6969,400.8667,489.7399,411.1333,490.0552,421.4,489.432,431.6667,490.677,441.9333,489.4931,452.2,489.9256,462.4667,490.5553,472.7333,490.0376,483,490.1234,483.0087,490.1444,483.3495,490.26,483.7299,490.4712,484.0912,490.6364,484.4889,490.8895,484.7678,490.8556,484.9744,490.9412,485.1234,491.2958,485.1391,491.5952,485.3499,491.9754,485.5698,492.3594,485.5,492.6234,484.7788,492.6234,486.1785,501.7493,485.2035,510.8753,486.0338,520.0013,485.005,529.1272,485.5,538.2532,485.4789,538.2445,485.5819,538.7014,485.1921,538.9541,485.0931,539.3273,485.0185,539.7106,484.7678,540.021,484.8209,540.1492,484.4137,540.1662,484.0973,540.4023,483.6341,540.284,483.3898,540.6943,483,540.7532,483,541.3014,472.7333,541.1977,462.4667,541.3662,452.2,540.2701,441.9333,540.101,431.6667,540.1318,421.4,540.6943,411.1333,540.5567,400.8667,541.4346,390.6,540.5785,380.3333,540.4102,370.0667,540.9815,359.8,540.0864,349.5333,540.2341,339.2667,541.4022,329,540.7532,329.0556,540.8874,328.7401,540.833,328.2518,540.3612,327.9801,540.4122,327.6611,540.3492,327.2322,540.021,327.0868,539.9607,327.0563,539.6552,326.9781,539.3299,326.9936,539.0435,326.6452,538.6062,326.5,538.2532,326.9626,538.2532,325.9462,529.1272,325.8227,520.0013,327.0036,510.8753,325.7831,501.7493,326.5,492.6234,326.6567,492.6883,326.7101,492.2962,326.7104,491.8821,326.8304,491.5176,327.2271,491.2677,327.2322,490.8556,327.194,490.7634,327.6613,490.8914,327.8688,490.3925,328.3717,490.6064,328.7082,490.419,329,490.1234" style="stroke:#181818;stroke-width:4.0;"/><text fill="#000000" font-family="Chalkduster" font-size="24" lengthAdjust="spacing" textLength="139" x="336.5" y="523.9643">Notebooks</text></g><!--entity examples--><g id="elem_examples"><polygon fill="none" points="596.5,217.4934,596.5,217.7036,606.4286,217.0791,616.3571,217.6867,626.2857,217.8931,636.2143,216.78,646.1429,217.4157,656.0714,217.0669,666,217.1099,675.9286,217.4252,685.8571,216.802,695.7857,218.047,705.7143,216.8631,715.6429,217.2956,725.5714,217.9253,735.5,217.4934,735.4891,217.467,735.8623,217.6608,736.203,217.7764,736.5834,217.9877,736.9447,218.1528,737.2678,218.2256,737.4481,218.3003,737.6209,218.6648,737.7698,219.0194,737.7855,219.3187,737.9963,219.699,738,219.9934,738.7022,219.9934,737.2788,229.1193,738.6785,238.2453,737.7035,247.3713,738.5338,256.4972,738,265.6232,737.8476,265.5601,737.8325,265.968,737.9355,266.4249,737.5457,266.6776,737.4466,267.0509,737.2678,267.391,737.311,267.4953,736.9673,267.6656,736.5602,267.6827,736.2437,267.9188,735.7805,267.8005,735.5,268.1232,735.5,268.4076,725.5714,268.6714,715.6429,268.5677,705.7143,268.7362,695.7857,267.6401,685.8571,267.471,675.9286,267.5018,666,268.0643,656.0714,267.9267,646.1429,268.8046,636.2143,267.9485,626.2857,267.7802,616.3571,268.3515,606.4286,267.4564,596.5,268.1232,596.4338,267.9633,596.2292,268.1766,595.8485,267.9645,595.533,267.9101,595.0447,267.4383,594.7322,267.391,594.8305,267.4317,594.7676,267.1127,594.2939,266.6236,594.2634,266.3181,594.1852,265.9928,594,265.6232,594.6518,265.6232,593.9958,256.4972,594.4626,247.3713,593.4462,238.2453,593.3227,229.1193,594,219.9934,594.1551,220.0576,593.9257,219.5484,594.4496,219.3512,594.503,218.9591,594.5033,218.545,594.7322,218.2256,594.6871,218.1167,595.1443,218.2204,595.4012,217.8405,595.8684,217.9685,596.0759,217.4696,596.5,217.4934" style="stroke:#181818;stroke-width:4.0;"/><text fill="#000000" font-family="Chalkduster" font-size="24" lengthAdjust="spacing" textLength="124" x="604" y="251.3343">examples</text></g><!--entity description--><g id="elem_description"><polygon fill="none" points="388,217.4934,388,217.7036,397.8824,217.0791,407.7647,217.6867,417.6471,217.8931,427.5294,216.78,437.4118,217.4157,447.2941,217.0669,457.1765,217.1099,467.0588,217.4252,476.9412,216.802,486.8235,218.047,496.7059,216.8631,506.5882,217.2956,516.4706,217.9253,526.3529,217.4076,536.2353,217.5616,546.1176,217.4614,556,217.4934,556.0228,217.5484,556.3841,217.7135,556.7818,217.9666,557.1463,218.1394,557.5009,218.2883,557.7678,218.2256,557.8462,218.2581,558.057,218.6383,558.2769,219.0223,557.985,219.1943,558.5625,219.7264,558.5,219.9934,558.2035,219.9934,559.0338,229.1193,558.005,238.2453,558.4315,247.3713,559.2416,256.4972,558.5,265.6232,558.485,265.617,558.386,265.9902,558.3114,266.3735,558.1888,266.737,557.913,267.0369,557.7678,267.391,557.8044,267.4794,557.3412,267.3611,557.0969,267.7714,556.777,267.9991,556.4103,268.1137,556,268.1232,556,268.7362,546.1176,267.6401,536.2353,267.471,526.3529,267.5018,516.4706,268.0643,506.5882,267.9267,496.7059,268.8046,486.8235,267.9485,476.9412,267.7802,467.0588,268.3515,457.1765,267.4564,447.2941,267.6041,437.4118,268.7722,427.5294,268.5589,417.6471,268.8577,407.7647,267.8014,397.8824,268.4424,388,268.1232,388.0753,268.305,387.5862,267.8313,387.2807,267.8008,386.9554,267.7227,386.6689,267.7381,386.2322,267.391,386.2309,267.3904,386.2282,267.0964,385.7688,266.6132,385.5843,266.2439,385.8015,266.041,385.5,265.6232,384.7831,265.6232,386.009,256.4972,385.7066,247.3713,385.2321,238.2453,385.1462,229.1193,385.5,219.9934,385.6413,220.0519,385.5543,219.6016,385.9752,219.3618,385.7691,218.8622,386.2759,218.6579,386.2322,218.2256,386.294,218.3748,386.617,218.1546,386.9454,217.9473,387.3856,218.01,387.7247,217.8288,388,217.4934" style="stroke:#181818;stroke-width:4.0;"/><text fill="#000000" font-family="Chalkduster" font-size="24" lengthAdjust="spacing" textLength="153" x="395.5" y="251.3343">description</text></g><!--entity Newspapers--><g id="elem_Newspapers"><polygon fill="none" points="734,1084.6434,734,1084.8536,743.7647,1084.2291,753.5294,1084.8367,763.2941,1085.0431,773.0588,1083.93,782.8235,1084.5657,792.5882,1084.2169,802.3529,1084.2599,812.1176,1084.5752,821.8824,1083.952,831.6471,1085.197,841.4118,1084.0131,851.1765,1084.4456,860.9412,1085.0753,870.7059,1084.5576,880.4706,1084.7116,890.2353,1084.6114,900,1084.6434,900.0228,1084.6984,900.3841,1084.8635,900.7818,1085.1166,901.1463,1085.2894,901.5009,1085.4383,901.7678,1085.3756,901.8462,1085.4081,902.057,1085.7883,902.2769,1086.1723,901.985,1086.3443,902.5625,1086.8764,902.5,1087.1434,902.2035,1087.1434,903.0338,1096.2693,902.005,1105.3953,902.4315,1114.5213,903.2416,1123.6472,902.5,1132.7732,902.485,1132.767,902.386,1133.1402,902.3114,1133.5235,902.1888,1133.887,901.913,1134.1869,901.7678,1134.541,901.8044,1134.6294,901.3412,1134.5111,901.0969,1134.9214,900.777,1135.1491,900.4103,1135.2637,900,1135.2732,900,1135.8862,890.2353,1134.7901,880.4706,1134.621,870.7059,1134.6518,860.9412,1135.2143,851.1765,1135.0767,841.4118,1135.9546,831.6471,1135.0985,821.8824,1134.9302,812.1176,1135.5015,802.3529,1134.6064,792.5882,1134.7541,782.8235,1135.9222,773.0588,1135.7089,763.2941,1136.0077,753.5294,1134.9514,743.7647,1135.5924,734,1135.2732,734.0753,1135.455,733.5862,1134.9813,733.2807,1134.9508,732.9554,1134.8727,732.6689,1134.8881,732.2322,1134.541,732.2309,1134.5404,732.2282,1134.2464,731.7688,1133.7632,731.5843,1133.3939,731.8015,1133.191,731.5,1132.7732,730.7831,1132.7732,732.009,1123.6472,731.7066,1114.5213,731.2321,1105.3953,731.1462,1096.2693,731.5,1087.1434,731.6413,1087.2019,731.5543,1086.7516,731.9752,1086.5118,731.7691,1086.0122,732.2759,1085.8079,732.2322,1085.3756,732.294,1085.5248,732.617,1085.3046,732.9454,1085.0973,733.3856,1085.16,733.7247,1084.9788,734,1084.6434" style="stroke:#181818;stroke-width:4.0;"/><text fill="#000000" font-family="Chalkduster" font-size="24" lengthAdjust="spacing" textLength="151" x="741.5" y="1118.4843">Newspapers</text></g><!--entity Other--><g id="elem_Other"><polygon fill="none" points="608,1084.6434,608,1084.8536,617.5556,1084.2291,627.1111,1084.8367,636.6667,1085.0431,646.2222,1083.93,655.7778,1084.5657,665.3333,1084.2169,674.8889,1084.2599,684.4444,1084.5752,694,1084.6434,693.9118,1084.4305,694.4242,1084.9603,694.6267,1084.7422,695.0354,1085.0218,695.4693,1085.3622,695.7678,1085.3756,695.7414,1085.3647,695.9352,1085.7379,696.0508,1086.0786,696.2621,1086.459,696.4272,1086.8203,696.5,1087.1434,697.0857,1087.1434,697.1711,1096.2693,697.1793,1105.3953,696.7546,1114.5213,696.9636,1123.6472,696.5,1132.7732,696.7163,1132.8628,696.1315,1133.0348,696.4161,1133.5669,695.9693,1133.796,696.0786,1134.2555,695.7678,1134.541,695.7046,1134.3885,695.4055,1134.6663,695.1553,1135.0623,694.7009,1134.9653,694.367,1135.1592,694,1135.2732,694,1135.6118,684.4444,1135.6894,674.8889,1135.2693,665.3333,1135.5604,655.7778,1134.7008,646.2222,1135.5576,636.6667,1135.8214,627.1111,1135.7177,617.5556,1135.8862,608,1135.2732,607.9384,1135.1244,607.5633,1134.9259,607.2136,1134.7889,606.9318,1134.8157,606.5607,1134.6269,606.2322,1134.541,606.4421,1134.6279,606.032,1134.1651,605.8337,1133.7901,605.8632,1133.5094,605.4411,1133.0417,605.5,1132.7732,604.9809,1132.7732,606.149,1123.6472,605.9357,1114.5213,606.2345,1105.3953,605.1782,1096.2693,605.5,1087.1434,605.5983,1087.1841,605.8283,1086.8651,605.6474,1086.376,605.9098,1086.0705,606.1246,1085.7452,606.2322,1085.3756,606.3154,1085.5763,606.5853,1085.2279,606.9983,1085.2252,607.2223,1084.7657,607.5601,1084.5813,608,1084.6434" style="stroke:#181818;stroke-width:4.0;"/><text fill="#000000" font-family="Chalkduster" font-size="24" lengthAdjust="spacing" textLength="71" x="615.5" y="1118.4843">Other</text></g><!--entity API--><g id="elem_API"><polygon fill="none" points="504,1084.6434,504,1084.8536,514.6667,1084.2291,525.3333,1084.8367,536,1085.0431,546.6667,1083.93,557.3333,1084.5657,568,1084.6434,567.9456,1084.512,568.3046,1084.6717,568.6984,1084.9153,568.9725,1084.8698,569.4848,1085.3997,569.7678,1085.3756,569.5737,1085.2952,569.8533,1085.7039,570.1937,1086.1378,570.1807,1086.4253,570.3746,1086.7985,570.5,1087.1434,570.4681,1087.1434,570.6785,1096.2693,570.7391,1105.3953,571.0857,1114.5213,571.1711,1123.6472,570.5,1132.7732,570.7092,1132.8599,570.432,1133.1592,570.3499,1133.5394,570.2769,1133.9234,569.6921,1134.0954,569.7678,1134.541,569.8543,1134.7499,569.3764,1134.5961,569.1288,1134.9983,568.644,1134.8279,568.3448,1135.1057,568,1135.2732,568,1136.0148,557.3333,1135.2245,546.6667,1135.3785,536,1135.6118,525.3333,1135.6894,514.6667,1135.2693,504,1135.2732,504.0366,1135.3617,503.5734,1134.9505,503.3292,1135.0679,503.0093,1135.0027,502.6425,1134.8243,502.2322,1134.541,502.421,1134.6192,501.937,1134.1258,501.7385,1133.7507,501.6015,1133.401,501.6283,1133.1192,501.5,1132.7732,501.3035,1132.7732,502.1814,1123.6472,501.3253,1114.5213,501.1569,1105.3953,501.7283,1096.2693,501.5,1087.1434,501.2946,1087.0583,501.4866,1086.7236,501.9927,1086.519,502.0735,1086.1383,502.312,1085.8229,502.2322,1085.3756,502.1912,1085.2765,502.6265,1085.3275,503.0147,1085.2645,503.2326,1084.7908,503.6342,1084.7603,504,1084.6434" style="stroke:#181818;stroke-width:4.0;"/><text fill="#000000" font-family="Chalkduster" font-size="24" lengthAdjust="spacing" textLength="49" x="511.5" y="1118.4843">API</text></g><!--entity Nectar--><g id="elem_Nectar"><polygon fill="none" points="484.5,700.7534,484.5,700.9636,494.8,700.3391,505.1,700.9467,515.4,701.1531,525.7,700.04,536,700.6757,546.3,700.3269,556.6,700.3699,566.9,700.6852,577.2,700.062,587.5,700.7534,587.5706,700.9239,587.7732,700.7057,588.1819,700.9854,588.6158,701.3257,588.9033,701.3127,589.2678,701.4856,589.2888,701.4943,589.4044,701.8351,589.6156,702.2155,589.7808,702.5768,590.0339,702.9745,590,703.2534,590.6711,703.2534,590.6793,712.3793,590.2546,721.5053,590.4636,730.6313,590.7022,739.7572,590,748.8832,589.7779,748.7912,590.0625,749.3233,589.6158,749.5525,589.7251,750.012,589.2618,750.2343,589.2678,750.651,589.259,750.6299,589.0088,751.0258,588.5544,750.9289,588.2205,751.1227,587.8967,751.341,587.5,751.3832,587.5,751.7994,577.2,751.3793,566.9,751.6704,556.6,750.8108,546.3,751.6676,536,751.9314,525.7,751.8277,515.4,751.9962,505.1,750.9001,494.8,750.731,484.5,751.3832,484.4207,751.1918,484.1389,751.2186,483.7678,751.0298,483.5263,751.1537,483.0635,750.7436,482.7322,750.651,482.6266,750.6072,482.6561,750.3265,482.234,749.8588,482.133,749.5241,482.3463,749.3195,482,748.8832,482.4357,748.8832,482.7345,739.7572,481.6782,730.6313,482.3192,721.5053,482.5904,712.3793,482,703.2534,481.8545,703.1931,482.1169,702.8876,482.3317,702.5623,482.6401,702.2759,482.5845,701.8386,482.7322,701.4856,482.7912,701.6281,483.0151,701.1686,483.3529,700.9841,483.8571,701.2014,484.055,700.679,484.5,700.7534" style="stroke:#181818;stroke-width:4.0;"/><text fill="#000000" font-family="Chalkduster" font-size="24" lengthAdjust="spacing" textLength="88" x="492" y="734.5943">Nectar</text></g><!--entity ...--><g id="elem_..."><polygon fill="none" points="405.5,700.7534,405.5,700.8234,413.3,700.6153,421.1,700.8178,428.9,700.8866,436.7,700.5156,444.5,700.7534,444.4901,700.7294,444.7991,700.7685,445.1582,700.9282,445.552,701.1717,445.826,701.1262,446.2678,701.4856,446.4383,701.5562,446.2201,701.7588,446.4998,702.1675,446.8401,702.6014,446.8271,702.8889,447,703.2534,447.0682,703.2534,446.9681,712.3793,447.1785,721.5053,447.2391,730.6313,447.5857,739.7572,447,748.8832,447.2067,748.9688,447.0627,749.3234,446.7855,749.6228,446.7034,750.003,446.6305,750.387,446.2678,750.651,446.1758,750.4289,446.0008,751.0064,445.5228,750.8526,445.2752,751.2547,444.7904,751.0843,444.5,751.3832,444.5,751.3604,436.7,751.6304,428.9,751.367,421.1,751.4183,413.3,751.4961,405.5,751.3832,405.5531,751.5114,405.1459,751.2356,404.8295,751.1788,404.3663,750.7676,404.1221,750.885,403.7322,750.651,403.9011,750.7209,403.7227,750.3541,403.6281,750.0221,403.1441,749.5287,402.9456,749.1536,403,748.8832,402.3786,748.8832,402.9411,739.7572,402.8035,730.6313,403.6814,721.5053,402.8253,712.3793,403,703.2534,402.8944,703.2096,403.2167,702.9289,403.0875,702.4612,403.2795,702.1265,403.7856,701.9219,403.7322,701.4856,403.7878,701.6198,404.1795,701.5654,404.3983,701.0936,404.8336,701.1446,405.2218,701.0816,405.5,700.7534" style="stroke:#181818;stroke-width:4.0;"/><text fill="#000000" font-family="Chalkduster" font-size="24" lengthAdjust="spacing" textLength="24" x="413" y="734.5943">...</text></g><!--entity instance--><g id="elem_instance"><polygon fill="#FFC7D8" points="358,845.3834,358,845.5936,367.8889,844.9691,377.7778,845.5767,387.6667,845.7831,397.5556,844.67,407.4444,845.3057,417.3333,844.9569,427.2222,844.9999,437.1111,845.3152,447,844.692,456.8889,845.937,466.7778,844.7531,476.6667,845.1856,486.5556,845.8153,496.4444,845.2976,506.3333,845.4516,516.2222,845.3514,526.1111,845.5619,536,845.6225,545.8889,845.9691,555.7778,846.0544,565.6667,846.0626,575.5556,845.638,585.4444,845.847,595.3333,846.0856,605.2222,844.6622,615.1111,846.0619,625,845.0869,634.8889,845.9172,644.7778,844.8883,654.6667,845.3149,664.5556,846.125,674.4444,845.3346,684.3333,845.4887,694.2222,845.722,704.1111,845.7996,714,845.3834,713.9995,845.3822,714.3902,845.6183,714.6341,845.5,715.0969,845.9103,715.4841,846.138,715.7678,846.1156,715.9047,846.1723,716.103,846.5474,715.9119,846.7611,716.0063,847.0931,716.1622,847.4506,716.5,847.8834,716.4411,847.8834,716.3035,857.4158,717.1814,866.9483,716.3253,876.4807,716.1569,886.0132,716.7283,895.5457,715.8332,905.0781,715.9809,914.6106,716.5,924.143,716.6999,924.2258,716.4877,924.5522,716.4333,924.9438,715.9616,925.1627,716.0125,925.598,715.7678,925.9108,715.8431,926.0926,715.354,925.9118,715.0484,926.1742,714.7232,926.3889,714.4367,926.6973,714,926.643,714,926.6388,704.1111,927.1056,694.2222,926.0893,684.3333,925.9658,674.4444,927.1467,664.5556,925.9261,654.6667,927.152,644.7778,926.8497,634.8889,926.3751,625,926.2893,615.1111,927.1018,605.2222,926.3437,595.3333,927.2349,585.4444,926.0903,575.5556,927.2605,565.6667,927.1273,555.7778,926.888,545.8889,926.6903,536,927.3696,526.1111,927.2566,516.2222,926.8123,506.3333,926.9112,496.4444,926.5128,486.5556,927.3595,476.6667,926.7979,466.7778,926.8156,456.8889,926.0347,447,926.2378,437.1111,927.1738,427.2222,927.0728,417.3333,926.6001,407.4444,926.3209,397.5556,926.4241,387.6667,925.9569,377.7778,927.0578,367.8889,927.3826,358,926.643,358.0671,926.8051,357.7351,926.7106,357.2755,926.308,356.9505,926.2306,356.5363,925.9379,356.2322,925.9108,356.3197,925.947,356.1618,925.5887,356.1095,925.2742,355.7222,924.8208,355.6051,924.4794,355.5,924.143,355.9435,924.143,356.0673,914.6106,354.9875,905.0781,355.3061,895.5457,355.6493,886.0132,354.8892,876.4807,355.8534,866.9483,355.758,857.4158,355.5,847.8834,355.469,847.8705,355.6903,847.548,356.0173,847.2692,355.843,846.7828,356.1828,846.5093,356.2322,846.1156,356.2687,846.2036,356.6006,846.0048,356.9573,845.8661,357.3074,845.7112,357.5668,845.3376,358,845.3834" style="stroke:#181818;stroke-width:4.0;"/><text fill="#000000" font-family="Chalkduster" font-size="24" font-style="italic" lengthAdjust="spacing" textLength="175" x="448.5" y="879.2243">&#171;workspace&#187;</text><text fill="#000000" font-family="Chalkduster" font-size="24" lengthAdjust="spacing" textLength="341" x="365.5" y="909.8541">&#9881;&#65039; Running Notebook &#9881;&#65039;</text></g><!--link examples to Nectar--><g id="link_examples_Nectar"><path d="M669.82,268.2534 L669.9126,268.2655 L669.9613,270.7065 L670.553,273.2185 L670.9678,275.7075 L670.8012,278.1203 L671.4395,280.6385 L671.4051,280.6345 L671.5864,283.5145 L671.9406,286.4146 L672.4151,289.3286 L672.4752,292.1946 L673.1156,295.1278 L673.3605,295.1521 L673.1625,298.378 L673.6795,301.675 L674.2837,304.9806 L674.3804,308.2358 L674.744,311.5175 L674.7742,311.52 L675.025,315.1336 L675.4135,318.7584 L675.7355,322.3779 L676.1842,326.0076 L676.22,329.6037 L676.5177,329.6222 L676.7651,333.5382 L676.8206,337.4422 L677.1571,341.3638 L677.5068,345.2861 L677.4391,349.1825 L677.1189,349.1693 L677.912,353.3684 L677.6506,357.5241 L678.1908,361.7128 L677.9055,365.8675 L678.2969,370.0501 L678.2664,370.0495 L678.7048,374.4464 L678.4319,378.8306 L678.5787,383.2223 L678.7608,387.6147 L678.6887,392.0025 L678.8737,392.0027 L678.6846,394.2663 L678.8117,396.5303 L678.4274,398.7938 L678.8059,401.0581 L678.6772,403.3218 L678.9208,403.3253 L678.8413,405.6275 L678.8827,407.9314 L678.3622,410.2271 L678.2536,412.5288 L678.51,414.8359 L678.2339,414.8279 L678.4167,417.1718 L678.2883,419.5067 L678.6112,421.8546 L678.1637,424.1803 L678.1741,426.5192 L678.0217,426.5126 L678.1719,428.8891 L677.6709,431.2371 L677.6329,433.6054 L678.048,435.9936 L677.6563,438.3464 L677.8496,438.3579 L677.8397,440.7549 L677.2285,443.1161 L677.3704,445.5221 L677.3482,447.9184 L676.9437,450.2918 L676.7344,450.2758 L676.7171,452.6963 L676.6313,455.1114 L676.6802,457.5369 L676.2054,459.9223 L676.0231,462.3301 L676.2278,462.3494 L675.5498,464.7281 L675.2668,467.1441 L675.561,469.6145 L674.7926,471.9847 L674.8815,474.4358 L675.1063,474.4612 L674.6977,476.8756 L674.2129,479.2813 L673.8999,481.7065 L673.9836,484.1767 L673.5059,486.5832 L673.374,486.5656 L673.442,489.0508 L672.6132,491.4163 L672.8042,493.9178 L672.421,496.3428 L671.883,498.7471 L671.9906,498.7637 L671.5272,501.1812 L671.449,503.6584 L671.0227,506.0817 L670.4509,508.4824 L670,510.9018 L670.1174,510.9227 L669.5117,513.3157 L669.451,515.8056 L668.774,518.1859 L668.3505,520.6114 L667.8437,523.0219 L667.5787,522.9683 L667.1786,525.3982 L667.0978,527.8928 L666.5653,530.2959 L665.8708,532.6662 L665.401,535.082 L665.2614,535.05 L664.7578,537.4552 L664.0069,539.8037 L663.9354,542.3078 L663.5278,544.7349 L662.6589,547.0565 L662.8855,547.1148 L662.3471,549.5062 L661.3783,551.7867 L660.8637,554.1842 L660.0485,556.5043 L659.6044,558.9199 L659.7257,558.9549 L659.0337,561.2956 L658.4882,563.6786 L657.4782,565.9278 L656.8429,568.2849 L656.2243,570.6468 L656.4119,570.7071 L655.7206,573.0369 L654.5199,575.203 L653.911,577.5593 L653.3124,579.919 L652.5055,582.2116 L652.2499,582.1202 L651.8394,584.54 L650.9853,586.8012 L650.0211,589.023 L649.3088,591.3348 L648.4351,593.589 L648.7361,593.7086 L647.4189,595.7705 L646.7912,598.1064 L645.892,600.3345 L644.9348,602.5395 L644,604.7534 L644.0565,604.7803 L642.7465,607.4997 L641.1516,610.0833 L639.9422,612.8507 L638.6188,615.5638 L637.505,618.3767 L637.5295,618.3911 L635.9889,621.0334 L634.4672,623.6868 L632.7439,626.2217 L631.2796,628.9088 L629.7556,631.5609 L629.7116,631.5305 L628.2193,634.2387 L626.417,636.733 L624.3361,639.0349 L622.7397,641.6713 L621.0191,644.2219 L620.8172,644.0635 L619.2286,646.7118 L617.4492,649.2104 L615.5355,651.6037 L613.3015,653.7456 L611.5625,656.2759 L611.7179,656.4114 L609.3318,658.3315 L607.6658,660.8796 L605.5166,663.0063 L603.6674,665.3946 L601.6531,667.6389 L601.7304,667.7126 L599.786,669.9013 L597.3835,671.6534 L595.7491,674.1377 L593.6344,676.1641 L591.5581,678.2271 L591.6682,678.3404 L589.787,680.4114 L587.5544,682.1207 L585.6043,684.1207 L583.6135,686.0787 L581.5447,687.9566 L581.6037,688.0214 L579.6115,689.7137 L577.8913,691.705 L575.5636,693.0281 L573.9819,695.1719 L571.88,696.7434 " fill="none" style="stroke:#181818;stroke-width:4.0;"/><polygon fill="#181818" points="568.6,700.4634,568.6205,700.5304,570.4436,699.7561,572.3867,699.3747,574.2907,698.8654,576.0663,697.9354,578.0197,697.5877,578.0178,697.5618,576.8811,697.3658,575.7536,697.2999,574.6325,697.3247,573.4892,697.0373,572.377,697.1871,572.5611,697.2002,572.2476,696.0437,572.4715,694.9254,572.761,693.8117,572.669,692.6709,572.7776,691.5444,572.7982,691.5541,571.9325,693.3237,571.1605,695.1373,570.3432,696.9296,569.6123,698.7624,568.6,700.4634" style="stroke:#181818;stroke-width:4.0;"/><text fill="#000000" font-family="Chalkduster" font-size="24" lengthAdjust="spacing" textLength="258" x="680" y="386.9643">launch Notebook 1</text></g><!--reverse link Notebooks to Nectar--><g id="link_Notebooks_Nectar"><path d="M395.38,546.9134 L395.472,546.9296 L394.6771,549.846 L394.4215,552.8574 L393.9904,555.8378 L392.9816,558.7167 L392.7723,561.7362 L392.7378,561.7354 L392.5126,564.8063 L392.4615,567.8812 L392.5314,570.9588 L392.1843,574.0269 L392.4213,577.1084 L392.6623,577.158 L392.7535,579.9988 L393.5485,582.9845 L394.4293,585.9879 L394.8105,588.8884 L395.4545,591.8431 L395.4807,591.8584 L396.9514,594.418 L398.5412,597.0472 L400.0736,599.6429 L401.7156,602.3027 L403,604.7534 L403.1081,605.0313 L405.4522,605.9459 L407.7265,606.6813 L410.1029,607.6791 L412.4841,608.6891 L414.7138,609.3095 L414.7039,608.9891 L418.2913,609.7209 L421.8462,609.3978 L425.4258,609.8767 L428.98,609.5297 L432.555,609.8596 L432.555,609.8292 L436.2178,610.1886 L439.8805,609.8368 L443.5433,609.9046 L447.206,610.0077 L450.8688,609.8567 L450.9086,610.0373 L453.4946,610.4343 L456.1487,611.14 L458.6927,611.3462 L461.401,612.2975 L464,612.7534 L464.145,612.9491 L466.4289,614.6245 L468.7848,616.3971 L470.8061,617.7181 L473.0727,619.3701 L475.5565,621.3154 L475.3653,621.1161 L477.6345,623.3077 L479.6881,625.2746 L482.0543,627.5673 L483.8869,629.3039 L486.0367,631.371 L485.9203,631.2726 L487.9989,633.6652 L489.5798,635.637 L491.5146,637.9081 L493.7957,640.4719 L495.4601,642.5144 L495.618,642.6264 L497.4036,645.0683 L498.6979,647.1617 L500.6075,649.6916 L502.3831,652.1264 L503.8463,654.3396 L503.6669,654.2304 L505.2836,656.7377 L506.8415,659.2093 L508.5148,661.7511 L509.7395,664.0197 L511.2147,666.441 L511.3962,666.5375 L512.2715,668.7197 L513.4972,671.0882 L515.2346,673.7291 L516.0298,675.8686 L517.5852,678.4126 L517.7898,678.5091 L518.7466,680.739 L519.6342,682.9362 L520.6781,685.2072 L522.0831,687.6484 L522.9771,689.8487 L522.8545,689.7969 L524.106,692.05 L524.5239,693.951 L525.8896,696.2523 L526.7217,698.3282 L527.41,700.3434 " fill="none" style="stroke:#181818;stroke-width:4.0;"/><polygon fill="#181818" points="396.85,542.2234,396.9049,542.2668,395.5194,543.6823,394.4559,545.3526,393.2875,546.9399,391.7742,548.2543,390.7383,549.9465,390.7251,549.9242,391.6397,549.2482,392.6207,548.6845,393.648,548.1989,394.516,547.4441,395.6071,547.0664,395.7659,547.1604,396.0023,547.9332,396.7024,548.9804,397.4591,550.061,397.8866,550.9469,398.4872,551.9352,398.5096,551.939,398.1493,549.9911,397.891,548.0604,397.5835,546.1214,397.37,544.1982,396.85,542.2234" style="stroke:#181818;stroke-width:4.0;"/><text fill="#000000" font-family="Chalkduster" font-size="24" lengthAdjust="spacing" textLength="235" x="404" y="597.5943">fetch Notebook 1</text></g><!--link Nectar to instance--><g id="link_Nectar_instance"><path d="M536,751.7434 L536.2802,751.7434 L535.4476,761.4589 L536.2577,771.1745 L536.5329,780.89 L535.0488,790.6056 L535.8964,800.3211 L535.4313,810.0367 L535.4887,819.7523 L535.9091,829.4678 L536,839.1834 " fill="none" style="stroke:#181818;stroke-width:4.0;"/><polygon fill="#181818" points="536,844.1534,536.064,844.1818,536.6738,842.2973,537.6589,840.5795,538.5217,838.8075,538.9827,836.8568,540,835.1534,539.9817,835.1351,539.0995,835.8528,538.3096,836.663,537.5839,837.5373,536.637,838.1904,536,839.1534,536.1305,839.2839,535.0514,838.2048,534.3534,837.5068,533.7018,836.8552,532.7798,835.9332,532,835.1534,532.0208,835.1626,532.7903,836.949,533.6544,838.7775,534.4728,840.5857,535.3784,842.4327,536,844.1534" style="stroke:#181818;stroke-width:4.0;"/><text fill="#000000" font-family="Chalkduster" font-size="24" lengthAdjust="spacing" textLength="258" x="537" y="808.2243">launch Notebook 1</text></g><!--link instance to API--><g id="link_instance_API"><path d="M536,926.9534 L536.2802,926.9534 L535.4476,937.0814 L536.2577,947.2094 L536.5329,957.3374 L535.0488,967.4654 L535.8964,977.5934 L535.4313,987.7214 L535.4887,997.8494 L535.9091,1007.9774 L535.0782,1018.1054 L536.7382,1028.2334 L535.1596,1038.3614 L535.7363,1048.4894 L536.5759,1058.6174 L535.8856,1068.7454 L536,1078.8734 " fill="none" style="stroke:#181818;stroke-width:4.0;"/><polygon fill="#181818" points="536,1083.4534,536.064,1083.4818,536.6738,1081.5973,537.6589,1079.8795,538.5217,1078.1075,538.9827,1076.1568,540,1074.4534,539.9817,1074.4351,539.0995,1075.1528,538.3096,1075.963,537.5839,1076.8373,536.637,1077.4904,536,1078.4534,536.1305,1078.5839,535.0514,1077.5048,534.3534,1076.8068,533.7018,1076.1552,532.7798,1075.2332,532,1074.4534,532.0208,1074.4626,532.7903,1076.249,533.6544,1078.0775,534.4728,1079.8857,535.3784,1081.7327,536,1083.4534" style="stroke:#181818;stroke-width:4.0;"/><text fill="#000000" font-family="Chalkduster" font-size="24" lengthAdjust="spacing" textLength="44" x="537" y="981.4843">Use</text></g><!--SRC=[XL9BJiCm4Dtd54DMi4WGswggXAXK8Q5IGH4RDcuoRQqw7iiUjrIePs0D9-4yN80huCHgwISIsTYQcVUPvvn9NIXV8kINfM2HAJ797AyLvbMP92nPOGVkXDV5NEePE9hoIbW49b8EffQg5pssj4Je1pWCl0nSvy-ZRDmVN0G2Cc4K9iHC5PJIOi6IT5AVGiyKGZho4oKB64Y6HxHBMM0AtUwAxC8PKM2l1sy9X6yFqaZD6Yb7tjO842vMOk4OCIJ62T72fO6jQMwIJR9lutY9j6RaSXQyE6yCMMvpWg-YCWfTUjm8HWehJRritMiJYmgDRBThqP2JJ7RT9ZF4LGZ3e3qLkkSvsbZTBr-FRjCZqU_FZv-lTtZmMjTFkOq4OZr4U9XwC2Ur2-2GvW7F3LN6SxHVnFj_3pQih_R4UvxdZSbjYf1b9QrqblKW8ZgWcb_lp-nL4ZkGULEFRT-r0rFazi66ihTRferpsziDX_YW0qyEary0]--></g></svg>