<?xml version="1.0" encoding="us-ascii" standalone="no"?><svg xmlns="http://www.w3.org/2000/svg" xmlns:xlink="http://www.w3.org/1999/xlink" contentStyleType="text/css" height="652px" preserveAspectRatio="none" style="width:1186px;height:652px;background:#FFFFFF;" version="1.1" viewBox="0 0 1186 652" width="1186px" zoomAndPan="magnify"><defs/><g><text fill="#000000" font-family="Chalkduster" font-size="42" font-weight="bold" lengthAdjust="spacing" textLength="1132" x="20" y="51.7215">Trove Data Guide and Findability of software</text><!--cluster Public Git Service--><g id="cluster_Public Git Service"><polygon fill="#FFC7D8" points="9.5,83.8912,9.5,84.1013,19.4796,83.4768,29.4592,84.0844,39.4388,84.2908,49.4184,83.1778,59.398,83.8134,69.3776,83.4647,79.3571,83.5077,89.3367,83.823,99.3163,83.1998,109.2959,84.4448,119.2755,83.2609,129.2551,83.6934,139.2347,84.3231,149.2143,83.8054,159.1939,83.9594,169.1735,83.8592,179.1531,84.0697,189.1327,84.1303,199.1122,84.4769,209.0918,84.5622,219.0714,84.5704,229.051,84.1458,239.0306,84.3547,249.0102,84.5934,258.9898,83.17,268.9694,84.5697,278.949,83.5947,288.9286,84.425,298.9082,83.3961,308.8878,83.8227,318.8673,84.6328,328.8469,83.8424,338.8265,83.9965,348.8061,84.2298,358.7857,84.3074,368.7653,83.8873,378.7449,84.1784,388.7245,83.3187,398.7041,84.1755,408.6837,84.4394,418.6633,84.3357,428.6429,84.5042,438.6224,83.4081,448.602,83.239,458.5816,83.2698,468.5612,83.8323,478.5408,83.6946,488.5204,84.5726,498.5,83.8912,498.4777,83.8374,498.8098,83.932,499.2362,84.2544,499.4756,84.1251,499.848,84.3171,500.2678,84.6234,500.4676,84.7062,500.5484,85.0325,500.7869,85.4242,500.608,85.643,500.9519,86.0783,501,86.3912,501.5904,86.3912,500.5276,96.5076,500.9041,106.624,501.126,116.7404,501.6518,126.8569,500.9958,136.9733,501.4626,147.0897,500.4462,157.2062,500.3227,167.3226,501.5036,177.439,500.2831,187.5554,501.509,197.6719,501.2066,207.7883,500.7321,217.9047,501,228.0212,500.8911,227.976,500.9948,228.4332,500.6149,228.6901,500.7429,229.1573,500.244,229.3649,500.2678,229.7889,500.3465,229.9791,499.976,230.0845,499.5919,230.1573,499.2131,230.2428,498.9462,230.5985,498.5,230.5212,498.5,231.1347,488.5204,230.6904,478.5408,230.7893,468.5612,230.3909,458.5816,231.2376,448.602,230.676,438.6224,230.6937,428.6429,229.9128,418.6633,230.1159,408.6837,231.0519,398.7041,230.9509,388.7245,230.4782,378.7449,230.199,368.7653,230.3022,358.7857,229.835,348.8061,230.9359,338.8265,231.2607,328.8469,231.0476,318.8673,231.2161,308.8878,230.3844,298.9082,230.6084,288.9286,230.1336,278.949,230.8052,268.9694,230.7679,258.9898,231.0735,249.0102,230.2915,239.0306,230.3868,229.051,230.9646,219.0714,231.0885,209.0918,230.0086,199.1122,230.3273,189.1327,230.6704,179.1531,229.9103,169.1735,230.8746,159.1939,230.7792,149.2143,230.4204,139.2347,230.6634,129.2551,231.2498,119.2755,230.2083,109.2959,230.8361,99.3163,230.8068,89.3367,230.6369,79.3571,230.6621,69.3776,230.6346,59.398,229.897,49.4184,230.1203,39.4388,230.0596,29.4592,230.585,19.4796,230.6093,9.5,230.5212,9.5206,230.571,9.1093,230.2851,8.7843,230.2075,8.424,230.0448,8.1594,230.113,7.7322,229.7889,7.8636,229.8433,7.4363,229.3734,7.4169,229.0725,7.1151,228.6546,7.2353,228.4115,7,228.0212,7.6085,228.0212,7.5446,217.9047,6.5644,207.7883,7.464,197.6719,6.2572,187.5554,7.2002,177.439,6.7007,167.3226,7.0967,157.2062,7.2403,147.0897,7.4721,136.9733,6.2801,126.8569,7.4755,116.7404,7.1782,106.624,7.3553,96.5076,7,86.3912,7.2303,86.4866,7.1481,86.0383,7.3469,85.7064,7.5051,85.3577,7.6465,85.0021,7.7322,84.6234,7.7321,84.6231,8.1764,84.6958,8.3616,84.1427,8.865,84.3581,9.0668,83.8454,9.5,83.8912" style="stroke:#181818;stroke-width:4.0;"/><text fill="#000000" font-family="Chalkduster" font-size="24" font-style="italic" lengthAdjust="spacing" textLength="175" x="166.5" y="109.732">&#171;workspace&#187;</text><text fill="#000000" font-family="Chalkduster" font-size="24" font-weight="bold" lengthAdjust="spacing" textLength="247" x="130.5" y="140.3619">Public Git Service</text></g><!--cluster Australian Text Analytics Platform (ATAP) repository--><g id="cluster_Australian Text Analytics Platform (ATAP) repository"><polygon fill="#00FF7F" points="254.5,418.5212,254.5,418.7313,264.5326,418.1068,274.5652,418.7144,284.5978,418.9208,294.6304,417.8078,304.663,418.4434,314.6957,418.0947,324.7283,418.1377,334.7609,418.453,344.7935,417.8298,354.8261,419.0748,364.8587,417.8909,374.8913,418.3234,384.9239,418.9531,394.9565,418.4354,404.9891,418.5894,415.0217,418.4892,425.0543,418.6997,435.087,418.7603,445.1196,419.1069,455.1522,419.1922,465.1848,419.2004,475.2174,418.7758,485.25,418.9847,495.2826,419.2234,505.3152,417.8,515.3478,419.1997,525.3804,418.2247,535.413,419.055,545.4457,418.0261,555.4783,418.4527,565.5109,419.2628,575.5435,418.4724,585.5761,418.6265,595.6087,418.8598,605.6413,418.9374,615.6739,418.5173,625.7065,418.8084,635.7391,417.9487,645.7717,418.8055,655.8043,419.0694,665.837,418.9657,675.8696,419.1342,685.9022,418.0381,695.9348,417.869,705.9674,417.8998,716,418.4623,726.0326,418.3246,736.0652,419.2026,746.0978,418.3465,756.1304,418.1781,766.163,418.7494,776.1957,417.8543,786.2283,418.002,796.2609,419.1701,806.2935,418.9568,816.3261,419.2557,826.3587,418.1994,836.3913,418.8404,846.4239,419.1116,856.4565,418.0488,866.4891,418.4253,876.5217,418.6471,886.5543,419.1729,896.587,418.517,906.6196,418.9837,916.6522,417.9674,926.6848,417.8439,936.7174,419.0248,946.75,417.8042,956.7826,419.0301,966.8152,418.7278,976.8478,418.2532,986.8804,418.1674,996.913,418.9799,1006.9457,418.2218,1016.9783,419.113,1027.0109,417.9684,1037.0435,419.1386,1047.0761,419.0055,1057.1087,418.7661,1067.1413,418.5684,1077.1739,419.2478,1087.2065,419.1347,1097.2391,418.6904,1107.2717,418.7893,1117.3043,418.3909,1127.337,419.2376,1137.3696,418.676,1147.4022,418.6937,1157.4348,417.9128,1167.4674,418.1159,1177.5,418.5212,1177.5677,418.6846,1177.9084,418.8,1178.2016,418.8008,1178.5196,418.8613,1178.8863,419.0395,1179.2678,419.2534,1179.0565,419.1659,1179.5419,419.6599,1179.7884,420.0548,1179.8692,420.3812,1180.0676,420.7563,1180,421.0212,1179.8633,421.0212,1180.0872,431.1407,1179.6124,441.2603,1180.284,451.3798,1180.2468,461.4993,1180.5524,471.6189,1179.7703,481.7384,1179.8656,491.858,1180.4435,501.9775,1180.5673,512.0971,1179.4875,522.2166,1179.8061,532.3362,1180.1493,542.4557,1179.3892,552.5753,1180.3534,562.6948,1180.258,572.8143,1179.8992,582.9339,1180.1422,593.0534,1180.7287,603.173,1179.6871,613.2925,1180.315,623.4121,1180.2856,633.5316,1180,643.6512,1180.0357,643.6659,1179.897,644.0227,1179.7421,644.3727,1179.3684,644.6322,1179.2908,645.0142,1179.2678,645.4189,1179.2089,645.2768,1178.9224,645.585,1178.5719,645.739,1178.2277,645.9081,1177.8164,645.9151,1177.5,646.1512,1177.5,646.0836,1167.4674,646.0309,1157.4348,646.728,1147.4022,646.5777,1137.3696,645.6656,1127.337,646.0782,1117.3043,645.5739,1107.2717,646.4395,1097.2391,646.7596,1087.2065,646.6957,1077.1739,645.7156,1067.1413,646.6151,1057.1087,645.4084,1047.0761,646.3513,1037.0435,645.8518,1027.0109,646.2479,1016.9783,646.3915,1006.9457,646.6233,996.913,645.4312,986.8804,646.6266,976.8478,646.3293,966.8152,646.5065,956.7826,646.899,946.75,646.1566,936.7174,646.3264,926.6848,646.3646,916.6522,646.3484,906.6196,646.1503,896.587,646.8619,886.5543,645.5414,876.5217,646.7164,866.4891,645.5272,856.4565,645.6108,846.4239,646.1912,836.3913,646.1794,826.3587,645.6583,816.3261,646.5649,806.2935,646.26,796.2609,646.8778,786.2283,646.8183,776.1957,645.7029,766.163,645.7532,756.1304,646.022,746.0978,646.5067,736.0652,646.5541,726.0326,646.4523,716,645.8092,705.9674,646.7875,695.9348,646.7849,685.9022,646.1039,675.8696,645.9121,665.837,645.7498,655.8043,645.9366,645.7717,646.2886,635.7391,646.0828,625.7065,645.7334,615.6739,646.6385,605.6413,645.6922,595.6087,646.6535,585.5761,646.5784,575.5435,646.523,565.5109,646.8437,555.4783,645.9053,545.4457,645.8505,535.413,646.67,525.3804,645.5543,515.3478,645.9172,505.3152,646.2667,495.2826,646.2198,485.25,645.7927,475.2174,646.1082,465.1848,646.8958,455.1522,646.7996,445.1196,645.5549,435.087,646.2297,425.0543,645.6373,415.0217,646.1248,404.9891,646.4442,394.9565,646.571,384.9239,645.4864,374.8913,646.5517,364.8587,646.1596,354.8261,645.5958,344.7935,645.6801,334.7609,646.4778,324.7283,646.401,314.6957,646.1347,304.663,645.4791,294.6304,646.8093,284.5978,645.8393,274.5652,645.6231,264.5326,646.0838,254.5,646.1512,254.5752,646.3328,254.225,646.1942,253.7974,645.8691,253.4201,645.6653,253.1074,645.6177,252.7322,645.4189,252.7896,645.4427,252.4294,645.0006,252.5668,644.7646,252.465,644.4295,252.08,643.9772,252,643.6512,251.5708,643.6512,252.6746,633.5316,252.021,623.4121,251.9998,613.2925,252.299,603.173,251.3543,593.0534,252.53,582.9339,251.9846,572.8143,252.6688,562.6948,251.7841,552.5753,252.409,542.4557,251.556,532.3362,252.245,522.2166,252.3793,512.0971,251.6727,501.9775,252.363,491.858,251.4286,481.7384,251.5295,471.6189,252.6828,461.4993,252.6844,451.3798,252.5685,441.2603,251.6396,431.1407,252,421.0212,252.1183,421.0702,252.0011,420.6074,252.3108,420.3215,252.439,419.9603,252.505,419.5735,252.7322,419.2534,252.8108,419.4431,253.1423,419.2435,253.3984,418.8617,253.8601,418.9762,254.1582,418.6959,254.5,418.5212" style="stroke:#181818;stroke-width:4.0;"/><text fill="#000000" font-family="Chalkduster" font-size="24" font-style="italic" lengthAdjust="spacing" textLength="169" x="631.5" y="444.362">&#171;repository&#187;</text><text fill="#000000" font-family="Chalkduster" font-size="24" font-weight="bold" lengthAdjust="spacing" textLength="741" x="345.5" y="474.9919">Australian Text Analytics Platform (ATAP) repository</text></g><!--cluster atapui--><g id="cluster_atapui"><polygon fill="none" points="669.5,506.5212,669.5,506.7313,679.5833,506.1068,689.6667,506.7144,699.75,506.9208,709.8333,505.8078,719.9167,506.4434,730,506.0947,740.0833,506.1377,750.1667,506.453,760.25,505.8298,770.3333,507.0748,780.4167,505.8909,790.5,506.3234,800.5833,506.9531,810.6667,506.4354,820.75,506.5894,830.8333,506.4892,840.9167,506.6997,851,506.7603,861.0833,507.1069,871.1667,507.1922,881.25,507.2004,891.3333,506.7758,901.4167,506.9847,911.5,507.2234,921.5833,505.8,931.6667,507.1997,941.75,506.2247,951.8333,507.055,961.9167,506.0261,972,506.4527,982.0833,507.2628,992.1667,506.4724,1002.25,506.6265,1012.3333,506.8598,1022.4167,506.9374,1032.5,506.5173,1042.5833,506.8084,1052.6667,505.9487,1062.75,506.8055,1072.8333,507.0694,1082.9167,506.9657,1093,507.1342,1103.0833,506.0381,1113.1667,505.869,1123.25,505.8998,1133.3333,506.4623,1143.4167,506.3246,1153.5,506.5212,1153.5869,506.731,1153.8313,506.6138,1154.1633,506.7084,1154.5898,507.0308,1154.8292,506.9016,1155.2678,507.2534,1155.1079,507.1872,1155.6141,507.6897,1155.6948,508.0161,1155.9333,508.4077,1155.7545,508.6266,1156,509.0212,1156.3192,509.0212,1156.5904,519.0784,1155.5276,529.1357,1155.9041,539.193,1156.126,549.2503,1156.6518,559.3075,1155.9958,569.3648,1156.4626,579.4221,1155.4462,589.4793,1155.3227,599.5366,1156.5036,609.5939,1156,619.6512,1155.7792,619.5597,1156.0103,620.0696,1155.7707,620.3846,1155.4782,620.6776,1155.3053,621.0202,1155.2678,621.4189,1155.3263,621.5602,1154.876,621.4732,1154.6362,621.8941,1154.1366,621.688,1153.9323,622.1949,1153.5,622.1512,1153.5,622.6355,1143.4167,622.3961,1133.3333,622.1984,1123.25,622.8778,1113.1667,622.7647,1103.0833,622.3204,1093,622.4193,1082.9167,622.0209,1072.8333,622.8676,1062.75,622.306,1052.6667,622.3237,1042.5833,621.5428,1032.5,621.7459,1022.4167,622.6819,1012.3333,622.5809,1002.25,622.1082,992.1667,621.829,982.0833,621.9322,972,621.465,961.9167,622.5659,951.8333,622.8907,941.75,622.6776,931.6667,622.8461,921.5833,622.0144,911.5,622.2384,901.4167,621.7636,891.3333,622.4352,881.25,622.3979,871.1667,622.7035,861.0833,621.9215,851,622.0168,840.9167,622.5946,830.8333,622.7185,820.75,621.6386,810.6667,621.9573,800.5833,622.3004,790.5,621.5403,780.4167,622.5046,770.3333,622.4092,760.25,622.0504,750.1667,622.2934,740.0833,622.8798,730,621.8383,719.9167,622.4661,709.8333,622.4368,699.75,622.2669,689.6667,622.2921,679.5833,622.2646,669.5,622.1512,669.4204,621.9589,669.0953,621.8813,668.734,621.7161,668.4475,621.7315,668.097,621.5925,667.7322,621.4189,667.782,621.4396,667.4962,621.0283,667.4185,620.7032,667.2559,620.3429,667.3241,620.0783,667,619.6512,667.4266,619.6512,666.5145,609.5939,666.9271,599.5366,666.4228,589.4793,667.2884,579.4221,667.6085,569.3648,667.5446,559.3075,666.5644,549.2503,667.464,539.193,666.2572,529.1357,667.2002,519.0784,667,509.0212,666.9078,508.983,667.1762,508.6799,667.3669,508.3447,667.5847,508.0207,667.3641,507.5151,667.7322,507.2534,667.7929,507.3998,668.1085,507.1618,668.4847,507.0699,668.8883,507.0443,669.1471,506.6693,669.5,506.5212" style="stroke:#181818;stroke-width:4.0;"/><text fill="#000000" font-family="Chalkduster" font-size="24" font-weight="bold" lengthAdjust="spacing" textLength="94" x="864.5" y="532.362">Web UI</text></g><!--entity guidesource--><g id="elem_guidesource"><polygon fill="none" points="25,163.8912,25,164.1013,35.1538,163.4768,45.3077,164.0844,55.4615,164.2908,65.6154,163.1778,75.7692,163.8134,85.9231,163.4647,96.0769,163.5077,106.2308,163.823,116.3846,163.1998,126.5385,164.4448,136.6923,163.2609,146.8462,163.6934,157,164.3231,167.1538,163.8054,177.3077,163.9594,187.4615,163.8592,197.6154,164.0697,207.7692,164.1303,217.9231,164.4769,228.0769,164.5622,238.2308,164.5704,248.3846,164.1458,258.5385,164.3547,268.6923,164.5934,278.8462,163.17,289,163.8912,289.0866,164.1001,289.3157,163.9463,289.7752,164.3484,289.9975,164.1781,290.4055,164.4559,290.7678,164.6234,290.9962,164.718,290.8992,164.9707,291.0931,165.3439,291.3114,165.7272,291.4817,166.0907,291.5,166.3912,291.4961,166.3912,291.7872,175.5171,290.9276,184.6431,291.7844,193.7691,292.0482,202.895,291.5,212.021,291.6369,212.0777,291.5423,212.4527,291.0583,212.6665,290.8598,212.9985,290.7228,213.3559,290.7678,213.7888,290.7603,213.7706,290.3891,213.8747,290.1476,214.2915,289.6848,214.1743,289.3098,214.2689,289,214.521,289,214.7493,278.8462,213.8542,268.6923,214.0019,258.5385,215.1699,248.3846,214.9567,238.2308,215.2555,228.0769,214.1992,217.9231,214.8402,207.7692,215.1114,197.6154,214.0486,187.4615,214.4251,177.3077,214.647,167.1538,215.1728,157,214.5168,146.8462,214.9836,136.6923,213.9672,126.5385,213.8437,116.3846,215.0246,106.2308,213.8041,96.0769,215.03,85.9231,214.7276,75.7692,214.2531,65.6154,214.1672,55.4615,214.9798,45.3077,214.2217,35.1538,215.1129,25,214.521,24.9295,214.3508,24.7252,214.5647,24.3547,214.3772,23.9706,214.1571,23.5918,213.9497,23.2322,213.7888,23.456,213.8814,23.2747,213.5135,22.9915,213.1032,22.8755,212.7623,22.6063,212.3579,22.5,212.021,23.2165,212.021,22.6549,202.895,22.6726,193.7691,21.8916,184.6431,22.0948,175.5171,22.5,166.3912,22.6634,166.4589,22.7788,166.0924,22.7797,165.6786,22.8401,165.2894,23.0184,164.949,23.2322,164.6234,23.1447,164.4121,23.6387,164.6047,24.0337,164.5583,24.36,164.3462,24.7351,164.2516,25,163.8912" style="stroke:#181818;stroke-width:4.0;"/><text fill="#000000" font-family="Chalkduster" font-size="24" lengthAdjust="spacing" textLength="249" x="32.5" y="197.732">Data guide source</text></g><!--entity Notebooks--><g id="elem_Notebooks"><polygon fill="none" points="329,163.8912,329,164.1013,339.2667,163.4768,349.5333,164.0844,359.8,164.2908,370.0667,163.1778,380.3333,163.8134,390.6,163.4647,400.8667,163.5077,411.1333,163.823,421.4,163.1998,431.6667,164.4448,441.9333,163.2609,452.2,163.6934,462.4667,164.3231,472.7333,163.8054,483,163.8912,483.0087,163.9122,483.3495,164.0278,483.7299,164.239,484.0912,164.4041,484.4889,164.6573,484.7678,164.6234,484.9744,164.709,485.1234,165.0636,485.1391,165.363,485.3499,165.7432,485.5698,166.1272,485.5,166.3912,484.7788,166.3912,486.1785,175.5171,485.2035,184.6431,486.0338,193.7691,485.005,202.895,485.5,212.021,485.4789,212.0123,485.5819,212.4691,485.1921,212.7219,485.0931,213.0951,485.0185,213.4784,484.7678,213.7888,484.8209,213.9169,484.4137,213.934,484.0973,214.1701,483.6341,214.0518,483.3898,214.4621,483,214.521,483,215.0692,472.7333,214.9655,462.4667,215.134,452.2,214.0379,441.9333,213.8688,431.6667,213.8996,421.4,214.4621,411.1333,214.3245,400.8667,215.2024,390.6,214.3463,380.3333,214.1779,370.0667,214.7493,359.8,213.8542,349.5333,214.0019,339.2667,215.1699,329,214.521,329.0556,214.6552,328.7401,214.6007,328.2518,214.129,327.9801,214.18,327.6611,214.117,327.2322,213.7888,327.0868,213.7285,327.0563,213.423,326.9781,213.0977,326.9936,212.8112,326.6452,212.374,326.5,212.021,326.9626,212.021,325.9462,202.895,325.8227,193.7691,327.0036,184.6431,325.7831,175.5171,326.5,166.3912,326.6567,166.4561,326.7101,166.064,326.7104,165.6499,326.8304,165.2854,327.2271,165.0355,327.2322,164.6234,327.194,164.5312,327.6613,164.6592,327.8688,164.1603,328.3717,164.3742,328.7082,164.1868,329,163.8912" style="stroke:#181818;stroke-width:4.0;"/><text fill="#000000" font-family="Chalkduster" font-size="24" lengthAdjust="spacing" textLength="139" x="336.5" y="197.732">Notebooks</text></g><!--entity atapapi--><g id="elem_atapapi"><polygon fill="none" points="581,555.5212,581,555.7313,591.6667,555.1068,602.3333,555.7144,613,555.9208,623.6667,554.8078,634.3333,555.4434,645,555.5212,644.9456,555.3898,645.3046,555.5495,645.6984,555.7931,645.9725,555.7476,646.4848,556.2774,646.7678,556.2534,646.5737,556.173,646.8533,556.5817,647.1937,557.0156,647.1807,557.3031,647.3746,557.6763,647.5,558.0212,647.4681,558.0212,647.6785,567.1471,647.7391,576.2731,648.0857,585.3991,648.1711,594.525,647.5,603.651,647.7092,603.7376,647.432,604.037,647.3499,604.4172,647.2769,604.8012,646.6921,604.9732,646.7678,605.4188,646.8543,605.6277,646.3764,605.4739,646.1288,605.876,645.644,605.7057,645.3448,605.9835,645,606.151,645,606.8926,634.3333,606.1023,623.6667,606.2563,613,606.4896,602.3333,606.5672,591.6667,606.1471,581,606.151,581.0366,606.2394,580.5734,605.8283,580.3292,605.9457,580.0093,605.8805,579.6425,605.7021,579.2322,605.4188,579.421,605.497,578.937,605.0036,578.7385,604.6285,578.6015,604.2788,578.6283,603.997,578.5,603.651,578.3035,603.651,579.1814,594.525,578.3253,585.3991,578.1569,576.2731,578.7283,567.1471,578.5,558.0212,578.2946,557.9361,578.4866,557.6014,578.9927,557.3968,579.0735,557.0161,579.312,556.7006,579.2322,556.2534,579.1912,556.1543,579.6265,556.2052,580.0147,556.1423,580.2326,555.6686,580.6342,555.6381,581,555.5212" style="stroke:#181818;stroke-width:4.0;"/><text fill="#000000" font-family="Chalkduster" font-size="24" lengthAdjust="spacing" textLength="49" x="588.5" y="589.362">API</text></g><!--entity harvest--><g id="elem_harvest"><polygon fill="none" points="270.5,555.5212,270.5,555.7313,280.537,555.1068,290.5741,555.7144,300.6111,555.9208,310.6481,554.8078,320.6852,555.4434,330.7222,555.0947,340.7593,555.1377,350.7963,555.453,360.8333,554.8298,370.8704,556.0748,380.9074,554.8909,390.9444,555.3234,400.9815,555.9531,411.0185,555.4354,421.0556,555.5894,431.0926,555.4892,441.1296,555.6997,451.1667,555.7603,461.2037,556.1069,471.2407,556.1922,481.2778,556.2004,491.3148,555.7758,501.3519,555.9847,511.3889,556.2234,521.4259,554.8,531.463,556.1997,541.5,555.5212,541.4622,555.4298,541.9216,555.832,542.144,555.6616,542.5519,555.9394,543.0088,556.3353,543.2678,556.2534,543.2528,556.2472,543.4466,556.6204,543.6649,557.0037,543.8353,557.3671,543.8524,557.6671,544,558.0212,544.2872,558.0212,543.4276,567.1471,544.2844,576.2731,544.5482,585.3991,544.4445,594.525,544,603.651,544.1888,603.7292,543.7048,603.9429,543.5063,604.2749,543.3693,604.6324,543.3961,605.0577,543.2678,605.4188,543.2427,605.3582,543.0011,605.7751,542.5384,605.6579,542.1633,605.7525,541.8827,606.0748,541.5,606.151,541.5,605.4842,531.463,605.6319,521.4259,606.7999,511.3889,606.5867,501.3519,606.8855,491.3148,605.8292,481.2778,606.4702,471.2407,606.7414,461.2037,605.6786,451.1667,606.0551,441.1296,606.277,431.0926,606.8028,421.0556,606.1468,411.0185,606.6136,400.9815,605.5972,390.9444,605.4737,380.9074,606.6546,370.8704,605.4341,360.8333,606.66,350.7963,606.3576,340.7593,605.8831,330.7222,605.7972,320.6852,606.6098,310.6481,605.8517,300.6111,606.7429,290.5741,605.5982,280.537,606.7684,270.5,606.151,270.5618,606.3001,270.1777,606.08,269.7989,605.8726,269.532,605.9354,269.1641,605.7542,268.7322,605.4188,268.7844,605.4404,268.6684,605.0994,268.3992,604.695,268.5135,604.4495,268.1941,604.0243,268,603.651,268.1726,603.651,267.3916,594.525,267.5948,585.3991,268.5307,576.2731,268.4298,567.1471,268,558.0212,267.9868,558.0157,268.0472,557.6265,268.2255,557.2861,268.228,556.873,268.7135,556.6599,268.7322,556.2534,268.8266,556.4812,269.1529,556.2691,269.528,556.1745,269.7755,555.7719,270.1576,555.6945,270.5,555.5212" style="stroke:#181818;stroke-width:4.0;"/><text fill="#000000" font-family="Chalkduster" font-size="24" lengthAdjust="spacing" textLength="256" x="278" y="589.362">Software Harvester</text></g><!--entity Discover Data--><g id="elem_Discover Data"><polygon fill="none" points="935,555.5212,935,555.7313,945.1,555.1068,955.2,555.7144,965.3,555.9208,975.4,554.8078,985.5,555.4434,995.6,555.0947,1005.7,555.1377,1015.8,555.453,1025.9,554.8298,1036,556.0748,1046.1,554.8909,1056.2,555.3234,1066.3,555.9531,1076.4,555.4354,1086.5,555.5894,1096.6,555.4892,1106.7,555.6997,1116.8,555.7603,1126.9,556.1069,1137,555.5212,1137.0856,555.7278,1137.4402,555.8768,1137.7396,555.8925,1138.1198,556.1033,1138.5038,556.3232,1138.7678,556.2534,1138.5457,556.1614,1139.1232,556.6935,1138.9693,556.9227,1139.3715,557.3821,1139.2011,557.6045,1139.5,558.0212,1139.4315,558.0212,1140.2416,567.1471,1139.4513,576.2731,1139.6053,585.3991,1139.8386,594.525,1139.5,603.651,1139.6282,603.7041,1139.3524,604.004,1139.2956,604.3947,1138.8844,604.6386,1139.0018,605.1015,1138.7678,605.4188,1138.8377,605.5876,1138.4709,605.7021,1138.1389,605.9004,1137.6455,605.7093,1137.2704,605.8037,1137,606.151,1137,605.5296,1126.9,606.0921,1116.8,605.9545,1106.7,606.8324,1096.6,605.9763,1086.5,605.8079,1076.4,606.3793,1066.3,605.4842,1056.2,605.6319,1046.1,606.7999,1036,606.5867,1025.9,606.8855,1015.8,605.8292,1005.7,606.4702,995.6,606.7414,985.5,605.6786,975.4,606.0551,965.3,606.277,955.2,606.8028,945.1,606.1468,935,606.151,935.059,606.2934,934.5758,605.834,934.2065,605.6495,934.0036,605.8667,933.4943,605.3444,933.2322,605.4188,933.389,605.4837,933.1494,605.0916,932.8568,604.6775,932.6839,604.313,932.7877,604.0631,932.5,603.651,932.2007,603.651,933.0919,594.525,931.9473,585.3991,933.1174,576.2731,932.9843,567.1471,932.5,558.0212,932.5754,558.0524,932.661,557.6736,933.0167,557.4067,933.1283,557.0388,933.1379,556.6285,933.2322,556.2534,933.2664,556.336,933.5692,556.0668,934.0307,556.1811,934.3126,555.8617,934.6685,555.7208,935,555.5212" style="stroke:#181818;stroke-width:4.0;"/><text fill="#000000" font-family="Chalkduster" font-size="24" lengthAdjust="spacing" textLength="187" x="942.5" y="589.362">Discover Data</text></g><!--entity Discover Code--><g id="elem_Discover Code"><polygon fill="none" points="685,555.5212,685,555.7313,695,555.1068,705,555.7144,715,555.9208,725,554.8078,735,555.4434,745,555.0947,755,555.1377,765,555.453,775,554.8298,785,556.0748,795,554.8909,805,555.3234,815,555.9531,825,555.4354,835,555.5894,845,555.4892,855,555.6997,865,555.7603,875,556.1069,885,556.1922,895,555.5212,895.0866,555.7303,895.386,555.746,895.7662,555.9568,896.1502,556.1768,896.3222,555.8849,896.7678,556.2534,896.9767,556.3399,896.8229,556.5691,897.2251,557.0286,897.0547,557.2509,897.3325,557.6589,897.5,558.0212,898.2416,558.0212,897.4513,567.1471,897.6053,576.2731,897.8386,585.3991,897.9162,594.525,897.5,603.651,897.4988,603.6505,897.442,604.0412,897.0308,604.2851,897.1482,604.7479,897.083,605.1351,896.7678,605.4188,896.8245,605.5557,896.4924,605.754,895.999,605.5629,895.6239,605.6573,895.2743,605.8132,895,606.151,895,606.0921,885,605.9545,875,606.8324,865,605.9763,855,605.8079,845,606.3793,835,605.4842,825,605.6319,815,606.7999,805,606.5867,795,606.8855,785,605.8292,775,606.4702,765,606.7414,755,605.6786,745,606.0551,735,606.277,725,606.8028,715,606.1468,705,606.6136,695,605.5972,685,606.151,684.9136,605.9424,684.7107,606.1596,684.2014,605.6373,684.0043,605.8684,683.6121,605.6288,683.2322,605.4188,683.1497,605.3846,682.9768,605.0201,683.0806,604.7702,682.7007,604.3199,682.8287,604.08,682.5,603.651,681.9473,603.651,683.1174,594.525,682.9843,585.3991,682.745,576.2731,682.5472,567.1471,682.5,558.0212,682.7238,558.1138,682.8354,557.7459,682.845,557.3356,683.0219,556.9947,683.0457,556.5903,683.2322,556.2534,683.3236,556.474,683.6055,556.1546,683.9614,556.0136,684.2153,555.6267,684.5948,555.5428,685,555.5212" style="stroke:#181818;stroke-width:4.0;"/><text fill="#000000" font-family="Chalkduster" font-size="24" lengthAdjust="spacing" textLength="195" x="692.5" y="589.362">Discover Code</text></g><!--reverse link Notebooks to harvest--><g id="link_Notebooks_harvest"><path d="M406,220.4612 L406.2802,220.4612 L405.4476,230.5993 L406.2577,240.7375 L406.5329,250.8757 L405.0488,261.0139 L405.8964,271.1521 L405.4313,281.2903 L405.4887,291.4284 L405.9091,301.5666 L405.0782,311.7048 L406.7382,321.843 L405.1596,331.9812 L405.7363,342.1193 L406.5759,352.2575 L405.8856,362.3957 L406.091,372.5339 L405.9574,382.6721 L406.238,392.8103 L406.3188,402.9484 L406.7809,413.0866 L406.8947,423.2248 L406.9057,433.363 L406.3395,443.5012 L406.6181,453.6393 L406.9363,463.7775 L405.0384,473.9157 L406.9047,484.0539 L405.6047,494.1921 L406.7117,504.3303 L405.34,514.4684 L405.9087,524.6066 L406.9888,534.7448 L405.935,544.883 L406,555.0212 " fill="none" style="stroke:#181818;stroke-width:4.0;"/><polygon fill="#181818" points="406,215.8712,406.064,215.8996,405.0738,217.6151,404.4589,219.4973,403.7217,221.3253,402.5827,222.9746,402,224.8712,401.9817,224.8528,402.6995,223.9706,403.5096,223.1808,404.3839,222.4551,405.037,221.5082,406,220.8712,406.1305,221.0017,406.6514,221.5226,407.5534,222.4245,408.5018,223.373,409.1798,224.0509,410,224.8712,410.0208,224.8804,409.1903,223.0668,408.4544,221.2953,407.6728,219.5035,406.9784,217.7505,406,215.8712" style="stroke:#181818;stroke-width:4.0;"/><text fill="#000000" font-family="Chalkduster" font-size="24" lengthAdjust="spacing" textLength="367" x="407" y="333.362">Read metadata and index</text></g><!--SRC=[VL9DJyCm3BtdLvYUuD1ndwP95OZ11LLiYBFRUCDQMbU9km-X_NVI3x4n8NA8Oliz-zdE3TUbQot1vDwYOkgmI8CU7KqgQuooEfh2oikEu376OT5o16DjuObhYmKxrYF86eAiTO-U8aaQK852LAK2ovvAPQcDwHvORnn1ahU5un8MhB0al-EI4fZDzkAteS6IvdFuCX3F1QKll-dB1sbznm0CWsTmN3DUHQaGsOOaPkk3f_4slyHaRL2FZh665HqKiXhTKRaCa3lKjVWARhDLbj_5v8q4Ll77JkxP-ajlbhyadS0eky66hyCVLC3x6T7ocE6wQmvb7Bxlfv_yYtWGIyb5cnUOvRWSU4Q_ew3aX-5z3gOvcV45QTesQJg7dzd15Du8BLIasFsGVlTnzNJu1W00]--></g></svg>